<svg width="48" height="48" viewBox="0 0 48 48" fill="none" xmlns="http://www.w3.org/2000/svg">
<path d="M28.5491 24L35.372 17.177C36.2093 16.3398 36.2093 14.9823 35.372 14.1443L33.8557 12.628C33.0184 11.7907 31.6609 11.7907 30.823 12.628L24 19.4509L17.177 12.628C16.3398 11.7907 14.9823 11.7907 14.1443 12.628L12.628 14.1443C11.7907 14.9816 11.7907 16.3391 12.628 17.177L19.4509 24L12.628 30.823C11.7907 31.6602 11.7907 33.0177 12.628 33.8557L14.1443 35.372C14.9816 36.2093 16.3398 36.2093 17.177 35.372L24 28.5491L30.823 35.372C31.6602 36.2093 33.0184 36.2093 33.8557 35.372L35.372 33.8557C36.2093 33.0184 36.2093 31.6609 35.372 30.823L28.5491 24Z" fill="black"/>
</svg>
