<svg width="48" height="48" viewBox="0 0 48 48" fill="none" xmlns="http://www.w3.org/2000/svg">
<path d="M35.5453 20.9438C35.7281 20.7984 36 20.9344 36 21.1641V30.75C36 31.9922 34.9922 33 33.75 33H14.25C13.0078 33 12 31.9922 12 30.75V21.1688C12 20.9344 12.2672 20.8031 12.4547 20.9484C13.5047 21.7641 14.8969 22.8 19.6781 26.2734C20.6672 26.9953 22.3359 28.5141 24 28.5047C25.6734 28.5188 27.375 26.9672 28.3266 26.2734C33.1078 22.8 34.4953 21.7594 35.5453 20.9438ZM24 27C25.0875 27.0188 26.6531 25.6313 27.4406 25.0594C33.6609 20.5453 34.1344 20.1516 35.5687 19.0266C35.8406 18.8156 36 18.4875 36 18.1406V17.25C36 16.0078 34.9922 15 33.75 15H14.25C13.0078 15 12 16.0078 12 17.25V18.1406C12 18.4875 12.1594 18.8109 12.4312 19.0266C13.8656 20.1469 14.3391 20.5453 20.5594 25.0594C21.3469 25.6313 22.9125 27.0188 24 27Z" fill="black"/>
</svg>
