<svg width="48" height="48" viewBox="0 0 48 48" fill="none" xmlns="http://www.w3.org/2000/svg">
<path d="M24 39C32.2843 39 39 32.2843 39 24C39 15.7157 32.2843 9 24 9C15.7157 9 9 15.7157 9 24C9 32.2843 15.7157 39 24 39Z" fill="#383E45"/>
<path d="M24 14.5019C18.7559 14.5019 14.502 18.7558 14.502 24C14.502 28.1308 17.1387 31.6406 20.8184 32.9531C20.8359 32.959 20.9004 32.9824 20.918 32.9883C20.9707 33.0058 21.0293 33.0176 21.0879 33.0176C21.3984 33.0176 21.6445 32.7656 21.6445 32.4609C21.6445 32.4433 21.6445 32.4316 21.6445 32.414C21.6445 31.9101 21.6445 31.2715 21.6445 30.7617C21.041 30.8847 20.127 31.0019 19.6289 30.7617C18.9844 30.4511 18.6562 30.0527 18.3457 29.2676C17.959 28.3125 17.0684 28.0488 17.0332 27.8847C16.998 27.7148 17.9766 27.4629 18.4805 28.0429C18.9844 28.623 19.4941 29.7832 20.5781 29.6718C21.1113 29.6191 21.457 29.5312 21.6738 29.4668C21.7148 29.0918 21.8379 28.6289 22.1484 28.3008C19.5996 27.8789 17.9004 26.5078 17.9004 23.8183C17.9004 22.5937 18.252 21.6445 18.873 20.9355C18.7676 20.3496 18.5918 18.9902 19.0605 18.5156C19.0605 18.5156 19.7227 18.1054 21.6211 19.4414C22.3301 19.2773 23.1152 19.1953 23.9531 19.1953C23.9707 19.1953 23.9824 19.1953 24 19.1953C24.0176 19.1953 24.0293 19.1953 24.0469 19.1953C24.8906 19.2011 25.6758 19.2832 26.3789 19.4414C28.2773 18.1054 28.9395 18.5156 28.9395 18.5156C29.4082 18.9961 29.2324 20.3554 29.127 20.9355C29.748 21.6504 30.0996 22.5996 30.0996 23.8183C30.0996 26.5078 28.4062 27.8789 25.8516 28.3008C26.3379 28.8105 26.3555 29.6367 26.3555 29.9765C26.3555 30.2988 26.3555 32.4551 26.3555 32.4668C26.3555 32.7773 26.6074 33.0234 26.9121 33.0234C26.959 33.0234 27 33.0176 27.0469 33.0058C27.0586 33.0058 27.0937 32.9941 27.1055 32.9883C30.8262 31.6992 33.498 28.166 33.498 24.0058C33.498 18.75 29.2441 14.5019 24 14.5019Z" fill="#E8E8E8"/>
</svg>
