<svg width="48" height="48" viewBox="0 0 48 48" fill="none" xmlns="http://www.w3.org/2000/svg">
<path d="M12.8571 16.4082H35.1429C35.6163 16.4082 36 15.9696 36 15.4286V12.9796C36 12.4386 35.6163 12 35.1429 12H12.8571C12.3837 12 12 12.4386 12 12.9796V15.4286C12 15.9696 12.3837 16.4082 12.8571 16.4082ZM12.8571 26.2041H35.1429C35.6163 26.2041 36 25.7655 36 25.2245V22.7755C36 22.2345 35.6163 21.7959 35.1429 21.7959H12.8571C12.3837 21.7959 12 22.2345 12 22.7755V25.2245C12 25.7655 12.3837 26.2041 12.8571 26.2041ZM12.8571 36H35.1429C35.6163 36 36 35.5614 36 35.0204V32.5714C36 32.0304 35.6163 31.5918 35.1429 31.5918H12.8571C12.3837 31.5918 12 32.0304 12 32.5714V35.0204C12 35.5614 12.3837 36 12.8571 36Z" fill="#262C35"/>
</svg>
