<svg width="49" height="48" viewBox="0 0 49 48" fill="none" xmlns="http://www.w3.org/2000/svg">
<path d="M18.7531 21.6429C17.9234 21.6429 17.2531 22.3451 17.2531 23.2143C17.2531 24.0835 17.9234 24.7857 18.7531 24.7857C19.5828 24.7857 20.2531 24.0835 20.2531 23.2143C20.2531 22.3451 19.5828 21.6429 18.7531 21.6429ZM24.0031 21.6429C23.1734 21.6429 22.5031 22.3451 22.5031 23.2143C22.5031 24.0835 23.1734 24.7857 24.0031 24.7857C24.8328 24.7857 25.5031 24.0835 25.5031 23.2143C25.5031 22.3451 24.8328 21.6429 24.0031 21.6429ZM29.2531 21.6429C28.4234 21.6429 27.7531 22.3451 27.7531 23.2143C27.7531 24.0835 28.4234 24.7857 29.2531 24.7857C30.0828 24.7857 30.7531 24.0835 30.7531 23.2143C30.7531 22.3451 30.0828 21.6429 29.2531 21.6429ZM24.0031 13C17.375 13 12.0031 17.5719 12.0031 23.2143C12.0031 25.5518 12.9359 27.6929 14.4828 29.4165C13.7844 31.3513 12.3312 32.9915 12.3078 33.0112C11.9984 33.3549 11.914 33.8558 12.0922 34.2879C12.2703 34.7201 12.6781 35 13.1281 35C16.0109 35 18.2844 33.7379 19.6484 32.7263C21.0031 33.1732 22.4656 33.4286 24.0031 33.4286C30.6312 33.4286 36.0031 28.8567 36.0031 23.2143C36.0031 17.5719 30.6312 13 24.0031 13ZM24.0031 31.0714C22.7515 31.0714 21.514 30.8701 20.3281 30.4772L19.264 30.1237L18.35 30.8013C17.6797 31.2973 16.7609 31.8522 15.6547 32.2254C15.9969 31.6313 16.3297 30.9634 16.5875 30.2513L17.0844 28.8714L16.1187 27.8009C15.2703 26.8531 14.2531 25.2866 14.2531 23.2143C14.2531 18.883 18.6265 15.3571 24.0031 15.3571C29.3797 15.3571 33.7531 18.883 33.7531 23.2143C33.7531 27.5455 29.3797 31.0714 24.0031 31.0714Z" fill="black"/>
</svg>
