<svg width="48" height="48" viewBox="0 0 48 48" fill="none" xmlns="http://www.w3.org/2000/svg">
<path d="M29.6 12H18.4C17.075 12 16 13.0078 16 14.25V33.75C16 34.9922 17.075 36 18.4 36H29.6C30.925 36 32 34.9922 32 33.75V14.25C32 13.0078 30.925 12 29.6 12ZM24 34.5C23.115 34.5 22.4 33.8297 22.4 33C22.4 32.1703 23.115 31.5 24 31.5C24.885 31.5 25.6 32.1703 25.6 33C25.6 33.8297 24.885 34.5 24 34.5ZM29.6 29.4375C29.6 29.7469 29.33 30 29 30H19C18.67 30 18.4 29.7469 18.4 29.4375V14.8125C18.4 14.5031 18.67 14.25 19 14.25H29C29.33 14.25 29.6 14.5031 29.6 14.8125V29.4375Z" fill="#383E45"/>
</svg>
