<svg width="12" height="20" viewBox="0 0 12 20" fill="none" xmlns="http://www.w3.org/2000/svg">
<path d="M6.27096 19.3332C7.79598 19.3332 8.66715 18.6171 8.87362 17.6895H3.66895C3.87541 18.6171 4.74626 19.3332 6.27128 19.3332H6.27096Z" fill="#D0CFCE"/>
<path d="M9.3948 2.02459C9.39467 2.02459 5.49209 0.921435 3.58701 2.42954C1.68225 3.93765 1.14551 7.40764 1.14551 7.40764C1.33212 8.11383 2.49406 10.1178 2.49406 10.1178C2.66638 10.4085 3.21302 12.6646 3.53085 13.9024H9.00995C9.28636 12.9946 10.3981 9.54663 10.5433 9.20838C10.7296 8.77343 11.0475 7.92684 11.208 7.60741C11.5941 6.83867 11.3796 6.18578 11.3796 5.36503C11.3796 3.61408 10.7726 2.89959 9.39441 2.02396L9.3948 2.02459Z" fill="#CBCBCB"/>
<path d="M6.27112 1.00096C3.54848 1.00096 1.00582 3.15558 1.00582 5.87695C1.00582 6.22126 0.92155 7.31006 1.39418 7.31006C1.39418 7.31006 2.15781 4.81304 4.06257 3.30524C5.96733 1.79745 9.01514 2.11656 9.01514 2.11656C8.80309 1.46398 7.24409 1 6.27208 1L6.27112 1.00096Z" fill="white"/>
<path d="M11.6445 6.28162C11.6445 7.55327 11.0749 8.16692 10.4466 9.63227C10.2862 10.0063 9.10284 13.902 9.10284 13.902H3.62374C3.62374 13.902 2.67247 10.178 2.49217 9.87479C1.73589 8.59899 1.08203 7.66974 1.08203 6.28162C1.08203 3.36464 3.44663 1.00037 6.36329 1.00037C9.28026 1.00037 11.6445 3.36496 11.6445 6.28162Z" stroke="black" stroke-width="0.638218" stroke-miterlimit="10" stroke-linecap="round" stroke-linejoin="round"/>
<path d="M6.36328 13.7711V9.96094" stroke="black" stroke-width="0.638218" stroke-miterlimit="10" stroke-linecap="round" stroke-linejoin="round"/>
<path d="M8.26817 9.96094H4.45801" stroke="black" stroke-width="0.638218" stroke-miterlimit="10" stroke-linecap="round" stroke-linejoin="round"/>
<path d="M8.96735 17.4631C8.96735 18.497 7.8023 19.3353 6.36503 19.3353C4.92775 19.3353 3.7627 18.497 3.7627 17.4631H8.96735Z" stroke="black" stroke-width="0.541209" stroke-miterlimit="10" stroke-linecap="round" stroke-linejoin="round"/>
<path d="M3.80762 16.2473L8.91974 15.14" stroke="black" stroke-width="0.627049" stroke-miterlimit="10" stroke-linecap="round" stroke-linejoin="round"/>
<path d="M7.06543 16.5952L8.90988 16.2186" stroke="black" stroke-width="0.638218" stroke-miterlimit="10" stroke-linecap="round" stroke-linejoin="round"/>
<path d="M3.81641 15.1687L5.66086 14.7922" stroke="black" stroke-width="0.638218" stroke-miterlimit="10" stroke-linecap="round" stroke-linejoin="round"/>
</svg>
