<svg width="48" height="48" viewBox="0 0 48 48" fill="none" xmlns="http://www.w3.org/2000/svg">
<path d="M36 24C36 30.6281 30.6281 36 24 36C17.3719 36 12 30.6281 12 24C12 17.3719 17.3719 12 24 12C30.6281 12 36 17.3719 36 24Z" fill="#383E45"/>
<path d="M28.8046 21.5109C28.9593 24.975 26.3765 28.8328 21.8061 28.8328C20.414 28.8328 19.1202 28.425 18.0327 27.7265C19.3405 27.8812 20.6436 27.5203 21.6796 26.7093C20.6015 26.6906 19.6921 25.9781 19.378 24.9984C19.7624 25.0734 20.1421 25.05 20.489 24.9562C19.303 24.7171 18.4874 23.6531 18.5155 22.5093C18.8483 22.6921 19.228 22.8046 19.6312 22.8187C18.5343 22.0875 18.2249 20.639 18.8671 19.5328C20.0811 21.0234 21.8952 22.0031 23.9436 22.1062C23.5874 20.564 24.7546 19.0828 26.3436 19.0828C27.0515 19.0828 27.689 19.3828 28.139 19.8609C28.7015 19.7484 29.2265 19.5468 29.7046 19.2656C29.5218 19.8421 29.128 20.325 28.6218 20.6296C29.1186 20.5687 29.5921 20.4375 30.0374 20.2406C29.6999 20.7328 29.2827 21.164 28.8046 21.5109Z" fill="#E6E6E6"/>
</svg>
