<svg width="48" height="48" viewBox="0 0 48 48" fill="none" xmlns="http://www.w3.org/2000/svg">
<path d="M39 24C39 32.2852 32.2852 39 24 39C15.7148 39 9 32.2852 9 24C9 15.7148 15.7148 9 24 9C32.2852 9 39 15.7148 39 24Z" fill="#383E45"/>
<path d="M30.0061 20.8886C30.1994 25.2187 26.9709 30.041 21.2581 30.041C19.5178 30.041 17.9006 29.5312 16.5413 28.6582C18.176 28.8515 19.8049 28.4003 21.0998 27.3867C19.7522 27.3632 18.6155 26.4726 18.2229 25.248C18.7034 25.3418 19.178 25.3125 19.6116 25.1953C18.1291 24.8964 17.1096 23.5664 17.1448 22.1367C17.5608 22.3652 18.0354 22.5058 18.5393 22.5234C17.1682 21.6093 16.7815 19.7988 17.5842 18.416C19.1018 20.2793 21.3694 21.5039 23.9299 21.6328C23.4846 19.705 24.9436 17.8535 26.9299 17.8535C27.8147 17.8535 28.6116 18.2285 29.1741 18.8261C29.8772 18.6855 30.5334 18.4335 31.1311 18.082C30.9026 18.8027 30.4104 19.4062 29.7776 19.7871C30.3987 19.7109 30.9905 19.5468 31.5471 19.3007C31.1252 19.916 30.6037 20.455 30.0061 20.8886Z" fill="#E8E8E8"/>
</svg>
