<svg width="70" height="70" viewBox="0 0 70 70" fill="none" xmlns="http://www.w3.org/2000/svg">
<circle cx="35" cy="35" r="35" fill="#C4C4C4"/>
<path d="M34.5 13C22.1109 13 12 23.1117 12 35.5C12 47.8891 22.1117 58 34.5 58C46.8891 58 57 47.8883 57 35.5C57 23.1109 46.8883 13 34.5 13ZM18.6181 23.5838C20.9011 26.6466 22.2519 30.3283 22.5035 34.1816H14.6815C14.9423 30.2223 16.3673 26.5761 18.6181 23.5838ZM14.6815 36.8184H22.5035C22.2522 40.6743 20.9017 44.3535 18.618 47.4161C16.3673 44.4238 14.9423 40.7777 14.6815 36.8184ZM33.1816 55.3185C28.1875 54.9896 23.6921 52.8073 20.3782 49.454C23.2157 45.8494 24.8778 41.4408 25.1443 36.8184H33.1816V55.3185ZM33.1816 34.1816H25.1442C24.8775 29.5623 23.2152 25.1502 20.3785 21.5457C23.6924 18.1925 28.1877 16.0104 33.1816 15.6815V34.1816ZM54.3185 34.1816H46.4965C46.7478 30.3257 48.0983 26.6465 50.382 23.5839C52.6327 26.5762 54.0577 30.2223 54.3185 34.1816ZM35.8184 15.6815C40.8125 16.0104 45.3079 18.1927 48.6218 21.546C45.7843 25.1506 44.1222 29.5591 43.8557 34.1816H35.8184V15.6815ZM35.8184 55.3185V36.8184H43.8558C44.1228 41.4346 45.7857 45.8499 48.6215 49.4542C45.3076 52.8075 40.8123 54.9896 35.8184 55.3185ZM50.3815 47.4167C48.0991 44.3538 46.7483 40.6693 46.4964 36.8184H54.3185C54.0577 40.7779 52.6325 44.4243 50.3815 47.4167Z" fill="#383E45"/>
</svg>
