<svg width="255" height="285" viewBox="0 0 255 285" fill="none" xmlns="http://www.w3.org/2000/svg">
<rect y="18" width="255" height="250" fill="#C4C4C4"/>
<rect x="28.5" y="0.5" width="199" height="284" stroke="#262C35"/>
<g clip-path="url(#clip0)">
<path d="M93.3765 113.581L97.421 133.457L117.228 166.751L141.662 156.316C141.662 156.316 174.87 121.531 154 116.562C151.5 116.027 149.139 114.976 147.068 113.476C142.973 110.385 139.528 105.837 139.508 101.44C139.67 96.5095 139.418 87.7619 139.418 87.7619C126.139 85.9775 109.558 80.9021 109.57 91.4748C109.898 103.113 101.391 108.512 97.8426 111.245C96.5226 112.311 95.0046 113.105 93.3757 113.581H93.3765Z" fill="#DEAA87"/>
<path opacity="0.1" d="M93.3772 113.581L97.4217 133.457L117.229 166.75L141.662 156.315C141.662 156.315 174.871 121.531 154.001 116.562C151.5 116.027 149.139 114.976 147.068 113.476C150.84 123.832 135.282 145.383 135.282 145.383C133.473 148.046 129.319 146.377 129.319 146.377C119.301 144.861 100.85 116.04 97.8441 111.245C96.5241 112.311 95.006 113.105 93.3772 113.581Z" fill="black"/>
<path opacity="0.999" d="M131.764 121.261C131.764 121.261 133.661 118.453 142.699 109.224L176.126 124.36C176.126 124.36 188.209 128.177 199.881 149.209C201.106 160.952 203.146 169.726 205.845 182.818C207.967 201.878 211.477 230.853 196.569 234.166C181.662 237.478 184.103 235.572 184.103 235.572L189.586 280.909L179.287 280.688L74.2252 281.202C74.2252 281.202 72.2218 265.927 73.6184 249.633C75.1646 231.597 87.5788 212.52 87.5788 212.52L53.7885 166.751C53.7885 166.751 47.8254 139.089 68.696 126.832C89.5664 114.575 103.386 106.818 103.386 106.818C103.386 106.818 112.72 114.822 122.039 120.772C126.71 123.755 127.365 132.649 131.764 121.261Z" fill="#3F3D56"/>
<path opacity="0.1" d="M174.043 155.984C174.043 155.984 174.374 166.916 172.386 171.223C170.399 175.53 163.111 199.382 163.111 199.382H179.675C179.675 199.382 170.73 189.774 171.393 185.137C172.055 180.499 174.043 155.984 174.043 155.984Z" fill="black"/>
<path d="M125.013 238.472C125.013 238.472 161.592 229.527 165.001 221.908C168.41 214.289 177.807 197.238 177.807 197.238L173.946 192.037L156.153 206.007C156.153 206.007 134.951 222.902 125.013 224.558C115.075 226.215 125.013 238.472 125.013 238.472Z" fill="#DEAA87"/>
<path opacity="0.05" d="M125.13 238.274C125.13 238.274 161.709 229.329 165.118 221.71C168.527 214.091 177.924 197.04 177.924 197.04L174.063 191.839L156.27 205.808C156.27 205.808 135.068 222.704 125.13 224.36C115.192 226.017 125.13 238.274 125.13 238.274Z" fill="black"/>
<path d="M93.3772 195.407V215.254H96.5672C112.328 215.254 127.83 219.266 141.612 226.912L147.591 230.231L149.201 231.126L159.467 207.994L149.861 199.383C149.861 199.383 149.686 199.408 149.369 199.428C147.019 199.657 136.857 200.506 132.549 199.05C128.459 197.664 123.376 193.256 111.326 196.337C105.392 197.852 100.324 204.506 94.5645 202.429L93.3772 195.407Z" fill="#DEAA87"/>
<path opacity="0.1" d="M61.4082 159.297L54.7825 166.751V184.805C54.7825 184.805 60.4143 241.785 78.3034 248.079C96.1922 254.373 128.126 244.435 128.126 244.435C128.126 244.435 136.374 222.571 132.516 221.246C128.657 219.921 98.4145 211.932 98.4145 211.932C98.4145 211.932 95.7385 180.29 93.4469 167.792C93.4469 167.792 96.7586 137.658 81.851 136.996C66.9436 136.333 61.4082 159.297 61.4082 159.297Z" fill="black"/>
<path d="M60.4136 159.297L53.3538 164.605L53.7882 184.805C53.7882 184.805 59.4199 241.785 77.3087 248.079C95.1978 254.373 127.132 244.435 127.132 244.435C127.132 244.435 135.38 222.57 131.521 221.245C127.663 219.92 97.4205 211.932 97.4205 211.932L92.8599 168.521C92.8599 168.521 95.5291 137.432 80.6218 136.77C65.7141 136.107 60.4136 159.297 60.4136 159.297Z" fill="#3F3D56"/>
<path opacity="0.1" d="M149.859 200.375C149.859 200.375 153.172 223.564 147.208 232.84C147.208 232.84 159.338 237.809 176.361 236.815L178.349 200.375H149.859Z" fill="black"/>
<path opacity="0.1" d="M147.59 230.232L149.2 231.126L159.466 207.995L149.861 199.383H149.364C149.363 199.398 149.363 199.413 149.364 199.428C149.514 200.496 152.192 220.413 147.585 230.232L147.59 230.232Z" fill="black"/>
<path d="M149.859 199.382C149.859 199.382 153.172 222.571 147.208 231.847C147.208 231.847 159.338 236.816 176.361 235.822L187.956 199.382H149.859Z" fill="#3F3D56"/>
<path d="M119.408 14.8262C107.098 14.8272 97.3271 30.5089 97.1881 49.9432L97.1573 54.4401C97.1221 54.4385 97.0869 54.4385 97.0517 54.4401C96.6768 54.4399 96.3054 54.6195 95.9591 54.9681C95.6127 55.3168 95.2981 55.8281 95.033 56.4725C94.7679 57.1169 94.5573 57.8818 94.4138 58.7238C94.2703 59.5658 94.1963 60.4685 94.1963 61.3799C94.1963 62.2912 94.2703 63.1934 94.4138 64.0353C94.5573 64.8773 94.7679 65.6422 95.033 66.2866C95.2981 66.9309 95.6127 67.4423 95.9591 67.791C96.3054 68.1396 96.6768 68.3192 97.0517 68.319C96.9409 87.7191 107.991 103.593 120.285 103.593H129.132C141.005 103.593 152.091 85.2109 152.872 66.4683C153.006 66.5144 153.14 66.5373 153.275 66.5374C153.65 66.5376 154.021 66.3586 154.367 66.01C154.714 65.6613 155.028 65.15 155.293 64.5056C155.559 63.8612 155.769 63.0963 155.913 62.2543C156.056 61.4123 156.13 60.5096 156.13 59.5982C156.13 58.6869 156.056 57.7847 155.912 56.9428C155.769 56.1008 155.559 55.3359 155.293 54.6915C155.028 54.0472 154.714 53.5358 154.367 53.1871C154.021 52.8385 153.65 52.6589 153.275 52.6591C153.158 52.658 153.041 52.6744 152.925 52.7081L152.927 49.9451C152.955 30.5098 143.016 14.8287 130.706 14.8287H119.402L119.408 14.8262Z" fill="#DEAA87"/>
<path opacity="0.6" d="M153.61 60.0714C153.95 60.0389 154.134 58.8878 154.02 57.5007C153.906 56.1135 153.538 55.0151 153.197 55.0476C152.857 55.0801 152.673 56.2311 152.787 57.6183C152.901 59.0055 153.269 60.1038 153.61 60.0714Z" fill="black"/>
<path opacity="0.6" d="M96.3883 62.3826C96.0478 62.3501 95.8642 61.1991 95.978 59.8119C96.0919 58.4247 96.46 57.3267 96.8006 57.3592C97.1411 57.3916 97.3247 58.5423 97.2109 59.9295C97.097 61.3167 96.7288 62.4151 96.3883 62.3826Z" fill="black"/>
<path d="M125.331 11.7316C109.832 11.7316 98.128 26.1503 97.2121 43.9989L96.8185 51.673C97.0194 56.7128 96.7871 56.6559 96.7871 60.9464C96.7874 65.2374 96.7871 65.3304 96.8669 69.1335L97.6094 75.3585C98.0479 79.0366 99.7352 85.4332 101.958 89.6367C103.84 93.193 106.419 96.3891 109.957 99.5651C114.848 103.47 116.26 104.278 120.528 104.184L129.308 103.991C132.312 103.816 138.113 101.086 141.481 96.9222C145.026 92.5481 143.847 94.06 145.818 91.0097C148.653 86.6234 153.298 78.0187 153.298 70.4291V69.9243C153.2 64.8346 153.237 64.8414 153.237 60.6987C153.236 56.5558 153.236 56.5552 153.298 52.9347V43.9983C153.298 26.1221 140.821 11.731 125.323 11.731L125.331 11.7316ZM120.803 31.2534L129.823 31.7658L141.215 31.552L145.064 34.8858L145.644 40.2125L146.965 45.5762L150.67 49.4796L151.569 55.0382L151.446 72.2906L150.476 78.1805L147.475 84.4603L142.483 92.5914L137.657 97.9752L132.662 101.009L129.168 101.281C128.021 100.829 125.533 94.9107 125.463 92.3078L124.313 92.2745C123.87 93.8002 123.841 99.741 121.942 101.271L116.746 101.096L112.861 98.0978L106.208 92.5448L103.742 88.5906L101.364 83.1815L99.7211 77.8989L98.6442 71.6525L98.8095 54.4184L101.08 47.3717L103.573 43.7852C103.876 41.7623 103.776 40.4087 103.825 38.9005C103.856 37.9555 103.89 35.8624 104.229 34.911C104.516 34.1066 105.27 34.0397 105.27 34.0397C106.127 33.6712 105.902 33.2288 106.809 32.8961C107.321 32.7107 107.831 32.5433 108.344 32.3976C112.041 31.348 115.839 31.3159 120.805 31.2515L120.803 31.2534Z" fill="#333333"/>
<path d="M98.8184 34.3678C104.12 24.0009 103.511 23.3449 103.511 23.3449L105.621 18.6789L108.382 19.913L110.332 14.3996L112.566 15.2138L115.906 10.1134L114.923 14.1708L119.12 9.47407L119.386 13.2844L123.166 8.3035L122.035 12.9455L126.899 8.00049L127.503 10.6509L130.206 8.74922L131.819 13.109L135.652 10.7584L136.475 14.2286L138.08 12.1126L139.778 16.5013L142.097 15.5268L144.234 17.6926L146.352 20.9402L148.702 24.0144L150.278 28.2396L151.122 33.0715L151.81 35.0669L146.248 39.7096L137.604 34.0988L125.814 32.2046L115.009 33.565L103.438 37.7928L98.8184 34.3678Z" fill="#333333"/>
<path d="M116.037 64.1756C117.177 64.1756 118.102 63.1394 118.102 61.8615C118.102 60.5835 117.177 59.5474 116.037 59.5474C114.896 59.5474 113.972 60.5835 113.972 61.8615C113.972 63.1394 114.896 64.1756 116.037 64.1756Z" fill="black"/>
<path d="M132.632 63.9085C133.772 63.9085 134.697 62.8723 134.697 61.5944C134.697 60.3164 133.772 59.2803 132.632 59.2803C131.491 59.2803 130.566 60.3164 130.566 61.5944C130.566 62.8723 131.491 63.9085 132.632 63.9085Z" fill="black"/>
<path d="M127.4 77.7891H120.803C120.643 77.7891 120.514 77.9186 120.514 78.0782V78.5284C120.514 78.688 120.643 78.8169 120.803 78.8169H127.4C127.56 78.8169 127.689 78.688 127.689 78.5284V78.0782C127.689 77.9186 127.56 77.7891 127.4 77.7891Z" fill="black"/>
<path d="M121.59 53.5132H111.82C111.482 53.5132 111.208 53.7871 111.208 54.1249V55.0773C111.208 55.4151 111.482 55.689 111.82 55.689H121.59C121.928 55.689 122.201 55.4151 122.201 55.0773V54.1249C122.201 53.7871 121.928 53.5132 121.59 53.5132Z" fill="black"/>
<path d="M137.375 53.248H127.638C127.291 53.248 127.01 53.5295 127.01 53.8767V54.8555C127.01 55.2027 127.291 55.4842 127.638 55.4842H137.375C137.722 55.4842 138.003 55.2027 138.003 54.8555V53.8767C138.003 53.5295 137.722 53.248 137.375 53.248Z" fill="black"/>
<path d="M114.293 83.5767C114.297 85.7512 115.335 87.8357 117.181 89.3723C119.027 90.9088 121.529 91.7719 124.137 91.7719C126.745 91.7719 129.247 90.9088 131.093 89.3723C132.939 87.8357 133.977 85.7512 133.981 83.5767H114.293Z" fill="#F2F2F2"/>
<path d="M114.973 83.7949C114.976 85.7188 115.955 87.5629 117.694 88.9223C119.434 90.2817 121.792 91.0452 124.25 91.0452C126.708 91.0452 129.065 90.2817 130.805 88.9223C132.544 87.5629 133.523 85.7188 133.527 83.7949H114.973Z" fill="white"/>
<path d="M115.132 82.5224C115.217 82.4761 115.16 82.2676 115.131 82.2382C114.704 81.6846 113.841 81.9393 113.211 82.4778C112.498 83.088 112.639 83.9946 113.012 84.7504C113.043 84.807 113.505 85.5091 113.657 85.198C113.729 85.0538 113.357 83.984 113.349 83.8985C113.29 83.1927 113.247 83.4927 113.53 82.8531C114.049 82.4825 114.337 82.4342 114.897 82.5218L115.132 82.5224Z" fill="#808080"/>
<path d="M133.362 82.7181C133.277 82.6717 133.29 82.474 133.318 82.4433C133.746 81.8894 134.565 82.0604 135.195 82.5999C135.908 83.2104 135.919 83.9803 135.546 84.7361C135.515 84.7927 135.131 85.0287 135.084 84.9932C134.963 84.8979 135.184 84.3108 135.197 84.2268C135.333 83.5089 135.331 83.5169 134.795 83.0575C134.311 82.6435 134.153 82.655 133.593 82.7426L133.362 82.7181Z" fill="#808080"/>
</g>
<defs>
<clipPath id="clip0">
<rect width="154.79" height="273.202" fill="white" transform="translate(53 8)"/>
</clipPath>
</defs>
</svg>
