<svg width="570" height="369" viewBox="0 0 570 369" fill="none" xmlns="http://www.w3.org/2000/svg">
<g clip-path="url(#clip0)">
<path d="M264.808 39.8363L177.635 94.8374L263.258 230.546L350.432 175.545L264.808 39.8363Z" fill="#999999"/>
<path d="M222.324 85.3044L197.693 100.845L201.35 106.64L225.981 91.0995L222.324 85.3044Z" fill="#E6E6E6"/>
<path d="M266.468 80.2445L212.217 114.163L215.548 119.491L269.799 85.5719L266.468 80.2445Z" fill="#E6E6E6"/>
<path d="M273.586 91.6291L219.335 125.548L222.666 130.875L276.917 96.9565L273.586 91.6291Z" fill="#E6E6E6"/>
<path d="M280.702 103.015L226.45 136.933L229.781 142.261L284.032 108.342L280.702 103.015Z" fill="#E6E6E6"/>
<path d="M289.198 113.924L234.946 147.843L238.277 153.171L292.528 119.252L289.198 113.924Z" fill="#E6E6E6"/>
<path d="M297.996 126.951L243.745 160.87L247.076 166.197L301.327 132.279L297.996 126.951Z" fill="#E6E6E6"/>
<path d="M99.783 153.104H18.3211C14.4946 153.104 11.3926 156.206 11.3926 160.033V267.868C11.3926 271.694 14.4946 274.796 18.3211 274.796H99.783C103.61 274.796 106.712 271.694 106.712 267.868V160.033C106.712 156.206 103.61 153.104 99.783 153.104Z" fill="#B3B3B3" fill-opacity="0.792157"/>
<path d="M80.9692 45.3211C76.3483 46.891 73.8881 51.8596 75.4442 56.4732L80.4603 71.3428C82.0164 75.9564 86.991 78.4226 91.6052 76.8647L114.581 69.0991C118.121 67.9141 120.392 64.714 120.555 61.1771L127.899 58.7169L121.077 38.4998L113.981 40.8999C111.806 37.766 107.753 36.2983 103.937 37.5976L80.9692 45.3211Z" fill="#3771C8"/>
<path d="M92.1699 69.4119L113.36 66.1396C113.36 66.1396 151.323 111.554 165.295 133.762C174.639 148.62 153.909 183.189 153.909 183.189L130.26 215.34L92.1699 69.4119Z" fill="#3771C8"/>
<path opacity="0.95" d="M80.2201 260.815V266.566L70.9014 302.085L80.175 301.863V303.15L137.12 303.379V302.116H144.765L137.12 271.907V260.815L80.2201 260.815Z" fill="#0B2228"/>
<path opacity="0.4" d="M107.369 264.869V301.923H100.156L104.559 264.809L107.369 264.869Z" fill="black"/>
<path opacity="0.4" d="M134.579 263.642H132.896V302.603H145.183L134.579 263.642Z" fill="black" stroke="black" stroke-width="0.156216"/>
<path opacity="0.4" d="M82.4841 264.244H84.1677V303.481H71.8799L82.4841 264.244Z" fill="black" stroke="black" stroke-width="0.156782"/>
<path d="M78.4501 263.588V265.657H79.8991L71.0514 300.654H69.5049V303.505H147.59V300.654H145.996L137.148 265.657H138.544V263.588H78.4501ZM81.833 265.657H108.642V300.654H72.9877L81.833 265.657ZM111.584 265.657H135.212L144.06 300.654H115.976L111.584 265.657Z" fill="#4D4D4D"/>
<path d="M82.4256 233.745H75.4302C74.3782 233.745 73.5254 234.929 73.5254 236.388V242.254C73.5254 243.713 74.3782 244.896 75.4302 244.896H82.4256C83.4776 244.896 84.3304 243.713 84.3304 242.254V236.388C84.3304 234.929 83.4776 233.745 82.4256 233.745Z" fill="#4D4D4D"/>
<path d="M68.6914 209.5H148.362L130.352 261.098L88.3274 260.96L68.6914 209.5Z" fill="#3771C8"/>
<path d="M133.515 223.863C146.717 223.863 157.419 212.718 157.419 198.97C157.419 185.222 146.717 174.077 133.515 174.077C120.314 174.077 109.611 185.222 109.611 198.97C109.611 212.718 120.314 223.863 133.515 223.863Z" fill="#373E48"/>
<path d="M219.507 0.748562C216.754 1.61658 214.283 3.20841 212.351 5.35942C210.419 7.51043 209.096 10.1425 208.519 12.9835L119.523 41.0624L124.205 55.9018L213.056 27.8951C215.161 29.9668 217.786 31.4257 220.65 32.1156C223.513 32.8054 226.507 32.7001 229.311 31.811C231.341 31.1708 233.224 30.1348 234.853 28.7623C236.482 27.3898 237.825 25.7076 238.805 23.8118C239.785 21.9161 240.383 19.8438 240.565 17.7134C240.747 15.5829 240.509 13.4361 239.865 11.3954C238.562 7.27722 235.685 3.84232 231.868 1.84582C228.05 -0.150669 223.604 -0.545343 219.507 0.748562Z" fill="#3771C8"/>
<path d="M243.758 30.2613L238.347 22.9396L225.83 32.1901L231.242 39.5118L243.758 30.2613Z" fill="#3771C8"/>
<path d="M50.4159 225.005H27.9071C24.0805 225.005 20.9785 228.107 20.9785 231.933V252.338C20.9785 256.165 24.0805 259.267 27.9071 259.267H50.4159C54.2424 259.267 57.3445 256.165 57.3445 252.338V231.933C57.3445 228.107 54.2424 225.005 50.4159 225.005Z" fill="#808080" fill-opacity="0.792157"/>
<path d="M231.849 42.7947C231.849 42.7947 224.487 49.231 216.674 43.2158C205.892 33.1704 203.686 24.4604 189.156 29.844C153.533 43.0413 104.654 54.3018 77.7069 68.666C68.9789 73.1474 72.7197 85.0153 77.4651 89.4967C85.6518 97.2322 97.859 90.2606 105.204 93.9359C110.576 96.6246 111.498 104.426 111.498 104.426L120.504 135.032C121.671 141.546 125.185 152.151 122.315 159.742C119.482 167.363 113.217 174.84 105.543 178.666C92.5855 185.138 54.8811 203.875 53.6774 228.249C53.3039 235.792 56.1792 239.642 63.8527 239.461C72.049 239.275 75.8296 239.732 75.8296 239.732" stroke="#373E48" stroke-width="3.56133"/>
<path d="M229.879 27.584C236.108 24.5096 238.643 16.9254 235.543 10.6443C232.442 4.3631 224.88 1.76353 218.651 4.83794C212.423 7.91236 209.887 15.4965 212.988 21.7777C216.088 28.0588 223.651 30.6584 229.879 27.584Z" fill="#373E48"/>
<path d="M250.431 31.399L247.537 27.4838L228.914 41.248L231.807 45.1632L250.431 31.399Z" fill="#3771C8"/>
<path d="M250.841 36.7292L247.947 32.814L232.592 44.1624L235.486 48.0776L250.841 36.7292Z" fill="#1C2224"/>
<path d="M97.6788 175.342H57.4097C53.6788 175.342 50.6543 182.043 50.6543 190.31V200.224C50.6543 208.49 53.6788 215.192 57.4097 215.192H97.6788C101.41 215.192 104.434 208.49 104.434 200.224V190.31C104.434 182.043 101.41 175.342 97.6788 175.342Z" fill="#373E48"/>
<path d="M104.707 83.3997C115.15 83.3997 123.615 75.1032 123.615 64.869C123.615 54.6347 115.15 46.3383 104.707 46.3383C94.265 46.3383 85.7998 54.6347 85.7998 64.869C85.7998 75.1032 94.265 83.3997 104.707 83.3997Z" fill="#373E48"/>
<path d="M112.32 98.9622L108.877 99.9495C107.987 100.205 107.533 101.351 107.864 102.509L110.106 110.373C110.436 111.532 111.425 112.264 112.315 112.009L115.759 111.021C116.649 110.766 117.102 109.62 116.772 108.462L114.53 100.598C114.199 99.4394 113.21 98.7071 112.32 98.9622Z" fill="#373E48"/>
<path d="M192.404 30.8997L191.449 27.4471C191.202 26.5549 190.06 26.0907 188.899 26.4103L181.014 28.5794C179.853 28.899 179.112 29.8813 179.358 30.7735L180.314 34.2261C180.561 35.1182 181.702 35.5824 182.864 35.2629L190.748 33.0937C191.91 32.7741 192.651 31.7918 192.404 30.8997Z" fill="#373E48"/>
<path d="M137.73 48.6124L136.775 45.1598C136.528 44.2677 135.387 43.8035 134.225 44.123L126.341 46.2922C125.179 46.6118 124.438 47.5941 124.685 48.4862L125.64 51.9388C125.887 52.831 127.028 53.2952 128.19 52.9756L136.074 50.8065C137.236 50.4869 137.977 49.5046 137.73 48.6124Z" fill="#373E48"/>
<path d="M123.468 137.242L119.933 137.821C119.02 137.971 118.436 139.056 118.629 140.245L119.94 148.317C120.134 149.506 121.031 150.349 121.944 150.199L125.479 149.619C126.393 149.469 126.977 148.384 126.784 147.195L125.472 139.123C125.279 137.934 124.382 137.092 123.468 137.242Z" fill="#373E48"/>
<path d="M75.168 235.362H70.023C69.2493 235.362 68.6221 236.304 68.6221 237.466V242.135C68.6221 243.296 69.2493 244.238 70.023 244.238H75.168C75.9417 244.238 76.5689 243.296 76.5689 242.135V237.466C76.5689 236.304 75.9417 235.362 75.168 235.362Z" fill="#4D4D4D"/>
<path opacity="0.15" d="M120.089 74.2722L135.411 93.2261L151.766 114.454L163.035 130.153C163.035 130.153 166.217 134.472 166.795 136.812C167.989 141.618 168.256 144.229 166.59 152.331C164.889 160.59 161.003 170.69 152.984 184.434C152.552 185.174 153.661 185.493 153.958 186.022C154.417 186.834 154.828 188.019 155.422 189.253C156.78 192.086 157.408 196.344 157.326 199.593C157.239 203.075 157.095 202.823 156.928 203.334C156.812 203.701 157 204.158 155.868 207.599C155.104 209.927 152.959 214.288 149.676 217.223C148.306 218.456 147.012 219.467 145.826 220.213C145.199 220.616 144.212 221.235 144.212 221.235C140.214 233.801 136.573 243.57 136.573 243.57L130.307 260.984L104.859 261.212C104.859 261.212 116.699 255.227 122.199 250.349C125.537 247.389 131.329 243.064 134.478 237.488C138.168 230.962 139.77 228.093 139.553 224.742C139.418 222.655 135.998 224.261 136.23 223.563C147.231 190.143 161.437 146.647 161.752 143.832C161.888 142.629 161.946 141.769 161.275 139.224C157.853 126.171 120.089 74.2722 120.089 74.2722Z" fill="black"/>
<path opacity="0.18" d="M227.182 33.9825L228.54 33.3509C228.54 33.3509 229.218 34.975 233.482 37.5615C234.692 38.2954 232.583 44.2203 232.583 44.2203L232.769 44.4309L231.683 45.2369L228.874 41.315L231.205 39.4743L227.182 33.9825Z" fill="black"/>
<path opacity="0.26" d="M70.7344 215.106C70.7344 215.106 87.6022 207.924 93.571 201.848C98.2346 197.096 98.8037 173.956 99.0629 175.345L103.959 183.057L104.298 203.268L103.047 209.446L111.241 209.518C111.241 209.518 106.696 211.719 103.645 214.059C100.835 216.225 92.9779 218.553 90.1773 218.138L71.4803 216.88L70.7344 215.106Z" fill="black"/>
<path opacity="0.19" d="M107.592 77.6527C110.919 76.0527 114.617 74.0556 116.237 70.7413C118.906 65.2735 116.531 53.3213 117.8 53.9168L126.004 55.0597L127.636 58.6628L121.087 60.5155C121.087 60.5155 122.216 68.7743 120.865 72.3834C120.371 73.6827 117.243 77.9655 117.243 77.9655V78.0377C117.243 78.0377 115.277 80.9611 113.261 82.1822C109.938 84.1792 106.654 84.9191 105.565 84.9131C105.565 84.9131 103.577 85.0695 101.509 84.8469C100.032 84.7025 98.513 84.2334 97.6601 84.0168C96.3085 83.6679 94.765 83.1025 93.6486 82.4348C92.5309 81.7551 91.2539 80.1069 91.2539 80.1069C91.2539 80.1069 102.974 79.8483 107.584 77.6287L107.592 77.6527Z" fill="black"/>
<path opacity="0.26" d="M60.1288 239.04C60.1288 239.04 51.9626 239.846 54.3374 228.58C55.7106 222.059 58.2942 214.384 59.7035 214.264L60.8572 215.058C60.8572 215.058 58.9985 218.011 58.3194 219.617C57.1627 222.36 55.9446 225.193 55.7449 228.165C55.591 230.463 55.8357 232.911 56.8355 234.98C58.1239 237.651 61.9502 238.276 64.9572 238.114C66.0116 238.042 68.5663 237.97 68.5663 237.97L68.7257 236.406L69.2521 235.648L69.8241 235.347H73.6233C73.6233 235.347 74.0696 234.481 74.4883 234.078C75.0369 233.548 77.9205 233.843 77.9205 233.843L80.5432 240.881C80.5432 240.881 77.6571 240.141 75.8447 239.846C71.4705 239.089 62.1902 239.606 62.1902 239.606L60.1288 239.04Z" fill="black"/>
<path d="M248.558 38.3495L252.187 48.467L260.558 60.1485L256.841 62.8975C256.106 61.2613 248.276 50.9092 248.276 50.9092L238.731 45.3211L248.558 38.3495Z" fill="#373E48"/>
<path d="M27.8334 177.081C32.1467 177.081 35.6433 173.559 35.6433 169.214C35.6433 164.869 32.1467 161.346 27.8334 161.346C23.5201 161.346 20.0234 164.869 20.0234 169.214C20.0234 173.559 23.5201 177.081 27.8334 177.081Z" fill="#D40000" fill-opacity="0.792157"/>
<path d="M44.0489 171.269C46.0284 171.269 47.633 169.659 47.633 167.672C47.633 165.686 46.0284 164.076 44.0489 164.076C42.0695 164.076 40.4648 165.686 40.4648 167.672C40.4648 169.659 42.0695 171.269 44.0489 171.269Z" fill="#37C871" fill-opacity="0.792157"/>
<path d="M96.5531 161.394H54.1787V168.283H96.5531V161.394Z" fill="#999999" fill-opacity="0.792157"/>
<path d="M428.586 206.172V331.965H203.823V191.563H232.568L244.393 206.172H428.586Z" fill="#6F8A91"/>
<path d="M346.807 133.273L245.65 169.862L302.61 327.338L403.766 290.749L346.807 133.273Z" fill="#999999"/>
<path d="M293.338 170.13L264.756 180.468L267.188 187.193L295.77 176.855L293.338 170.13Z" fill="#E6E6E6"/>
<path d="M339.469 174.836L276.585 197.29L278.79 203.465L341.674 181.012L339.469 174.836Z" fill="#E6E6E6"/>
<path d="M344.182 188.033L281.298 210.486L283.503 216.662L346.387 194.208L344.182 188.033Z" fill="#E6E6E6"/>
<path d="M348.89 201.229L286.006 223.683L288.211 229.858L351.095 207.404L348.89 201.229Z" fill="#E6E6E6"/>
<path d="M353.603 214.421L290.719 236.875L292.924 243.05L355.807 220.596L353.603 214.421Z" fill="white"/>
<path d="M358.313 227.613L295.43 250.067L297.635 256.242L360.518 233.788L358.313 227.613Z" fill="white"/>
<path d="M363.026 240.809L300.143 263.263L302.348 269.438L365.231 246.984L363.026 240.809Z" fill="white"/>
<path d="M375.273 262.706L358.992 268.52L364.806 284.801L381.087 278.987L375.273 262.706Z" fill="white"/>
<path d="M225.097 141.996L168.364 237.468L316.994 325.788L373.727 230.316L225.097 141.996Z" fill="url(#paint0_linear)"/>
<path d="M226.524 144.847L171.551 237.359L315.57 322.939L370.543 230.427L226.524 144.847Z" fill="#999999"/>
<path d="M208.486 207.296L192.953 233.436L199.103 237.09L214.636 210.951L208.486 207.296Z" fill="#E6E6E6"/>
<path d="M246.51 180.651L212.399 238.053L218.036 241.403L252.146 184.001L246.51 180.651Z" fill="#E6E6E6"/>
<path d="M258.555 187.81L224.444 245.212L230.081 248.562L264.191 191.16L258.555 187.81Z" fill="#E6E6E6"/>
<path d="M270.494 194.755L236.44 252.179L242.079 255.523L276.133 198.099L270.494 194.755Z" fill="#E6E6E6"/>
<path d="M282.639 202.121L248.529 259.524L254.166 262.874L288.276 205.471L282.639 202.121Z" fill="#E6E6E6"/>
<path d="M294.684 209.28L260.574 266.683L266.211 270.032L300.321 212.63L294.684 209.28Z" fill="#E6E6E6"/>
<path d="M306.733 216.439L272.623 273.842L278.26 277.191L312.37 219.789L306.733 216.439Z" fill="white"/>
<path d="M329.985 225.254L321.168 240.121L336.035 248.938L344.852 234.071L329.985 225.254Z" fill="white"/>
<path d="M455.638 153.9L353.103 121.234L302.249 280.856L404.784 313.523L455.638 153.9Z" fill="#999999"/>
<path d="M390.728 150.427L361.757 141.197L359.585 148.013L388.557 157.243L390.728 150.427Z" fill="#E6E6E6"/>
<path d="M425.27 181.453L361.648 161.184L359.658 167.431L423.28 187.7L425.27 181.453Z" fill="#E6E6E6"/>
<path d="M421.015 194.803L357.394 174.534L355.403 180.781L419.025 201.05L421.015 194.803Z" fill="#E6E6E6"/>
<path d="M416.946 208.002L353.315 187.793L351.331 194.041L414.961 214.251L416.946 208.002Z" fill="#E6E6E6"/>
<path d="M412.511 221.498L348.89 201.229L346.899 207.477L410.521 227.746L412.511 221.498Z" fill="#E6E6E6"/>
<path d="M408.257 234.848L344.636 214.579L342.645 220.827L406.267 241.096L408.257 234.848Z" fill="#E6E6E6"/>
<path d="M428.586 341.765H203.823V201.363H232.568L244.393 215.971H428.586V341.765Z" fill="#374548"/>
<path opacity="0.1" d="M338.944 263.428H289.133V272.016H338.944V263.428Z" fill="black"/>
<path d="M569.196 350.108H102.652V351.149H569.196V350.108Z" fill="#2F2E41"/>
<path d="M486.489 250.849C504.169 250.849 518.501 247.223 518.501 242.75C518.501 238.276 504.169 234.65 486.489 234.65C468.81 234.65 454.478 238.276 454.478 242.75C454.478 247.223 468.81 250.849 486.489 250.849Z" fill="#2F2E41"/>
<path d="M473.954 134.951C473.954 134.951 473.569 150.378 470.483 152.306C467.398 154.235 475.883 160.02 475.883 160.02L488.61 157.706L496.71 147.678C496.71 147.678 490.924 140.736 492.853 134.951H473.954Z" fill="#DEAA87"/>
<path d="M460.83 148.503C460.83 148.503 455.783 149.782 449.834 156.883C447.262 159.953 443.272 166.43 440.685 172.724C437.086 181.48 435.934 190.367 435.934 190.367L449.449 198.164L451.588 192.349L456.456 180.38L460.83 148.503Z" fill="#F0F0F0"/>
<path d="M505.963 247.134L505.198 247.236L519.083 350.793L519.847 350.69L505.963 247.134Z" fill="#2F2E41"/>
<path d="M493.237 248.694L492.469 248.761L501.339 350.968L502.108 350.901L493.237 248.694Z" fill="#2F2E41"/>
<path d="M468.914 232.877L458.171 350.709L458.939 350.779L469.683 232.947L468.914 232.877Z" fill="#2F2E41"/>
<path d="M478.891 230.947L478.12 230.974L482.44 351.141L483.211 351.113L478.891 230.947Z" fill="#2F2E41"/>
<path d="M445.799 215.173C445.799 215.173 401.445 218.259 408.773 232.915C416.101 247.571 451.585 272.255 451.585 272.255C451.585 272.255 458.141 273.797 459.298 274.183C460.455 274.569 478.197 262.612 478.197 262.612C478.197 262.612 467.398 256.056 462.384 254.899C457.37 253.742 443.099 241.4 443.099 241.4L483.211 231.372L459.684 211.316L445.799 215.173Z" fill="#2F2E41"/>
<path d="M481.282 224.815C481.282 224.815 455.827 260.824 460.841 275.024C465.855 289.225 462.383 336.278 462.383 336.278C462.383 336.278 481.282 342.449 481.282 336.278C481.282 330.107 486.682 286.525 481.282 271.869C481.282 271.869 482.439 262.612 485.525 261.07C488.61 259.527 499.409 245.257 499.409 245.257C499.409 245.257 510.98 239.857 509.437 234.843C507.894 229.829 481.282 224.815 481.282 224.815Z" fill="#2F2E41"/>
<path d="M493.625 142.279C493.625 142.279 516.766 151.921 513.295 164.263C509.824 176.605 502.495 229.829 491.311 229.829C480.126 229.829 456.599 223.658 455.056 221.344C453.513 219.03 460.841 171.976 460.841 171.976C460.841 171.976 469.703 143.287 472.986 145.676C472.986 145.676 470.869 158.092 482.054 155.006C493.239 151.921 493.625 142.279 493.625 142.279Z" fill="#F0F0F0"/>
<path d="M473.446 142.279C473.446 142.279 453.898 144.978 454.67 149.221L453.127 165.42L459.298 198.203L458.526 209.002L439.628 215.559L461.998 222.115C461.998 222.115 471.254 177.762 469.711 169.276C468.169 160.791 473.446 142.279 473.446 142.279Z" fill="#3F3D56"/>
<path d="M493.025 140.912C493.025 140.912 514.066 153.078 515.608 156.935C517.151 160.791 515.608 197.817 515.608 197.817C515.608 197.817 518.308 232.529 510.594 241.4C510.594 241.4 513.294 236.772 499.024 236.772C484.754 236.772 477.811 234.072 477.425 233.686C477.04 233.3 469.712 233.686 469.712 233.686C469.712 233.686 467.012 178.533 475.883 168.505C484.753 158.477 494.354 146.874 493.025 140.912Z" fill="#3F3D56"/>
<path d="M431.786 211.139V215.768C431.786 215.768 416.358 230.038 422.529 233.895C428.7 237.752 440.657 220.01 440.657 220.01L442.11 209.701L431.786 211.139Z" fill="#DEAA87"/>
<path d="M458.141 271.097L462.383 277.268C462.383 277.268 447.727 299.638 454.284 301.952C460.841 304.266 489.381 276.497 488.996 274.183C488.61 271.869 475.111 262.612 475.111 262.612L458.141 271.097Z" fill="#2F2E41"/>
<path d="M463.541 333.193L460.069 348.62C460.069 348.62 446.57 366.362 452.741 367.905C458.912 369.447 472.797 367.519 474.725 363.276C476.654 359.034 478.968 353.249 482.053 348.62C485.139 343.992 479.354 333.193 479.354 333.193H463.541Z" fill="#2F2E41"/>
<path d="M440.697 184.64L435.934 190.367L428.587 215.971C428.587 215.971 438.955 215.373 440.657 220.01L449.449 198.164L444.721 185.987L440.697 184.64Z" fill="#F0F0F0"/>
<path d="M472.797 220.376L465.469 222.69C465.469 222.69 436.928 231.946 449.656 238.503C462.384 245.059 469.712 234.26 469.712 234.26L474.725 230.403L472.797 220.376Z" fill="#DEAA87"/>
<path d="M509.823 158.092C509.823 158.092 499.41 163.106 497.867 176.605C496.324 190.104 494.396 207.845 494.396 207.845L475.111 220.573C475.111 220.573 461.924 220.049 463.889 224.939C465.855 229.829 466.241 240.243 469.712 238.7C473.183 237.157 478.197 227.901 483.211 227.515C488.225 227.129 509.052 219.03 511.366 209.774C513.68 200.517 522.551 169.277 518.694 164.648C514.837 160.02 512.909 156.163 509.823 158.092Z" fill="#F0F0F0"/>
<path d="M473.27 199.986H416.949L422.23 243.5H478.551L473.27 199.986Z" fill="#4D4D4D"/>
<path d="M478.162 242.095L421.841 242.095L435.331 245.358L491.652 245.358L478.162 242.095Z" fill="#4D4D4D"/>
<path d="M478.417 97.179C472.093 97.1795 467.073 105.235 467.002 115.219L466.986 117.529C466.968 117.529 466.95 117.529 466.932 117.529C466.739 117.529 466.548 117.621 466.37 117.801C466.192 117.98 466.031 118.242 465.895 118.573C465.759 118.904 465.65 119.297 465.577 119.73C465.503 120.162 465.465 120.626 465.465 121.094C465.465 121.563 465.503 122.026 465.577 122.459C465.65 122.891 465.759 123.284 465.895 123.615C466.031 123.946 466.192 124.209 466.37 124.388C466.548 124.567 466.739 124.659 466.932 124.659C466.875 134.625 472.551 142.78 478.867 142.78H483.412C489.511 142.78 495.206 133.337 495.608 123.708C495.676 123.732 495.745 123.744 495.815 123.744C496.007 123.744 496.198 123.652 496.376 123.473C496.554 123.294 496.715 123.031 496.852 122.7C496.988 122.369 497.096 121.976 497.17 121.544C497.243 121.111 497.281 120.647 497.281 120.179C497.281 119.711 497.243 119.248 497.169 118.815C497.096 118.382 496.988 117.99 496.852 117.658C496.715 117.327 496.554 117.065 496.376 116.886C496.198 116.707 496.007 116.614 495.815 116.614C495.755 116.614 495.695 116.622 495.635 116.64L495.636 115.22C495.65 105.236 490.545 97.1802 484.22 97.1802H478.414L478.417 97.179Z" fill="#DEAA87"/>
<path opacity="0.6" d="M495.986 120.422C496.161 120.405 496.256 119.814 496.197 119.101C496.139 118.389 495.95 117.824 495.775 117.841C495.6 117.858 495.505 118.449 495.564 119.162C495.622 119.874 495.812 120.439 495.986 120.422Z" fill="black"/>
<path opacity="0.6" d="M466.591 121.609C466.416 121.593 466.321 121.001 466.38 120.289C466.438 119.576 466.628 119.012 466.802 119.029C466.977 119.046 467.072 119.637 467.013 120.349C466.955 121.062 466.766 121.626 466.591 121.609Z" fill="black"/>
<path d="M481.459 95.5889C473.497 95.5889 467.485 102.996 467.014 112.165L466.812 116.108C466.915 118.697 466.796 118.667 466.796 120.871C466.796 123.076 466.796 123.124 466.837 125.077L467.218 128.275C467.444 130.165 468.31 133.451 469.453 135.61C470.419 137.437 471.744 139.079 473.561 140.711C476.074 142.717 476.8 143.132 478.992 143.083L483.502 142.984C485.046 142.894 488.026 141.492 489.756 139.353C491.577 137.106 490.972 137.883 491.984 136.316C493.44 134.062 495.827 129.642 495.827 125.743V125.484C495.776 122.869 495.795 122.872 495.795 120.744C495.795 118.616 495.795 118.616 495.827 116.756V112.165C495.827 102.982 489.417 95.5886 481.455 95.5886L481.459 95.5889ZM479.133 105.618L483.767 105.881L489.619 105.771L491.597 107.484L491.895 110.22L492.573 112.976L494.477 114.981L494.938 117.836L494.875 126.699L494.377 129.725L492.835 132.951L490.271 137.128L487.792 139.894L485.225 141.452L483.431 141.592C482.841 141.36 481.563 138.32 481.527 136.982L480.936 136.965C480.709 137.749 480.694 140.801 479.719 141.587L477.049 141.497L475.053 139.957L471.636 137.104L470.369 135.073L469.147 132.294L468.303 129.58L467.75 126.371L467.835 117.518L469.001 113.898L470.282 112.055C470.437 111.016 470.386 110.321 470.411 109.546C470.427 109.061 470.445 107.985 470.619 107.497C470.767 107.083 471.154 107.049 471.154 107.049C471.594 106.86 471.478 106.632 471.944 106.462C472.207 106.366 472.47 106.28 472.733 106.205C474.632 105.666 476.583 105.65 479.134 105.617L479.133 105.618Z" fill="#333333"/>
<path d="M467.84 107.217C470.563 101.892 470.251 101.555 470.251 101.555L471.335 99.1578L472.753 99.7918L473.754 96.9595L474.902 97.3777L476.618 94.7576L476.113 96.8419L478.269 94.4291L478.406 96.3866L480.348 93.8278L479.767 96.2125L482.266 93.6721L482.576 95.0337L483.964 94.0568L484.793 96.2965L486.762 95.0889L487.185 96.8716L488.009 95.7846L488.881 98.0391L490.073 97.5385L491.171 98.6511L492.258 100.32L493.466 101.899L494.276 104.069L494.709 106.552L495.062 107.577L492.205 109.962L487.765 107.079L481.708 106.106L476.157 106.805L470.213 108.977L467.84 107.217Z" fill="#333333"/>
<path d="M476.685 122.531C477.271 122.531 477.746 121.998 477.746 121.342C477.746 120.685 477.271 120.153 476.685 120.153C476.099 120.153 475.624 120.685 475.624 121.342C475.624 121.998 476.099 122.531 476.685 122.531Z" fill="black"/>
<path d="M485.209 122.393C485.795 122.393 486.27 121.861 486.27 121.204C486.27 120.548 485.795 120.016 485.209 120.016C484.623 120.016 484.148 120.548 484.148 121.204C484.148 121.861 484.623 122.393 485.209 122.393Z" fill="black"/>
<path d="M482.523 129.524H479.134C479.052 129.524 478.985 129.59 478.985 129.672V129.903C478.985 129.985 479.052 130.052 479.134 130.052H482.523C482.605 130.052 482.672 129.985 482.672 129.903V129.672C482.672 129.59 482.605 129.524 482.523 129.524Z" fill="black"/>
<path d="M479.537 117.053H474.518C474.345 117.053 474.204 117.194 474.204 117.367V117.856C474.204 118.03 474.345 118.171 474.518 118.171H479.537C479.711 118.171 479.852 118.03 479.852 117.856V117.367C479.852 117.194 479.711 117.053 479.537 117.053Z" fill="black"/>
<path d="M487.647 116.917H482.645C482.467 116.917 482.322 117.061 482.322 117.24V117.743C482.322 117.921 482.467 118.065 482.645 118.065H487.647C487.825 118.065 487.97 117.921 487.97 117.743V117.24C487.97 117.061 487.825 116.917 487.647 116.917Z" fill="black"/>
<path d="M475.789 132.497C475.791 133.614 476.325 134.685 477.273 135.475C478.221 136.264 479.506 136.707 480.846 136.707C482.186 136.707 483.471 136.264 484.419 135.475C485.368 134.685 485.901 133.614 485.903 132.497H475.789Z" fill="#F2F2F2"/>
<path d="M476.139 132.609C476.14 133.598 476.643 134.545 477.537 135.243C478.43 135.942 479.642 136.334 480.904 136.334C482.167 136.334 483.378 135.942 484.272 135.243C485.165 134.545 485.668 133.598 485.67 132.609H476.139Z" fill="white"/>
<path d="M476.22 131.956C476.264 131.932 476.235 131.825 476.219 131.81C476 131.525 475.557 131.656 475.233 131.933C474.867 132.246 474.939 132.712 475.131 133.1C475.147 133.13 475.384 133.49 475.462 133.33C475.499 133.256 475.308 132.707 475.304 132.663C475.274 132.3 475.251 132.454 475.397 132.126C475.664 131.935 475.812 131.911 476.099 131.956L476.22 131.956Z" fill="#808080"/>
<path d="M485.584 132.056C485.54 132.032 485.547 131.931 485.562 131.915C485.781 131.63 486.202 131.718 486.526 131.995C486.892 132.309 486.898 132.704 486.706 133.093C486.69 133.122 486.493 133.243 486.469 133.225C486.407 133.176 486.52 132.874 486.527 132.831C486.597 132.462 486.596 132.466 486.32 132.23C486.072 132.018 485.991 132.024 485.703 132.069L485.584 132.056Z" fill="#808080"/>
<path d="M182.763 304.017H0V305.057H182.763V304.017Z" fill="#2F2E41"/>
</g>
<defs>
<linearGradient id="paint0_linear" x1="345.361" y1="278.05" x2="196.728" y2="189.728" gradientUnits="userSpaceOnUse">
<stop stop-color="#808080" stop-opacity="0.25"/>
<stop offset="0.54" stop-color="#808080" stop-opacity="0.12"/>
<stop offset="1" stop-color="#808080" stop-opacity="0.1"/>
</linearGradient>
<clipPath id="clip0">
<rect width="569.196" height="368.432" fill="white"/>
</clipPath>
</defs>
</svg>
