<svg width="159" height="165" viewBox="0 0 159 165" fill="none" xmlns="http://www.w3.org/2000/svg">
<g clip-path="url(#clip0)">
<path d="M143.194 120H54.8063C49.0027 120 44.2979 115.295 44.2979 109.492V50.2763L93.8025 1.97392C96.4866 -0.644751 100.765 -0.659751 103.467 1.94017L153.703 50.2763V109.492C153.703 115.295 148.998 120 143.194 120Z" fill="#FFC850"/>
<path d="M147.962 57.9281V44.7525L111.034 9.22078H86.3754L50.0391 44.6747V57.9281L98.5692 89.0454L147.962 57.9281Z" fill="#FFAA4D"/>
<path d="M142.362 57.5791L98.6176 85.1381L55.6367 57.5791V20.4108C55.6367 17.1143 58.3091 14.4419 61.6055 14.4419H136.393C139.689 14.4419 142.362 17.1143 142.362 20.4108L142.362 57.5791Z" fill="#E9EBF2"/>
<path d="M55.6367 48.2948V57.5791L98.6173 85.1381L142.362 57.5791V48.2948L105.239 71.6824C101.198 74.228 96.0498 74.2076 92.0295 71.6297L55.6367 48.2948Z" fill="#DFE2EA"/>
<path d="M130.982 27.3762H67.1415C66.0531 27.3762 65.1709 26.494 65.1709 25.4056C65.1709 24.3171 66.0531 23.4349 67.1415 23.4349H130.982C132.07 23.4349 132.952 24.3171 132.952 25.4056C132.953 26.494 132.07 27.3762 130.982 27.3762Z" fill="#C7CAD3"/>
<path d="M105.175 54.7034H67.1415C66.0531 54.7034 65.1709 53.8212 65.1709 52.7327C65.1709 51.6443 66.0531 50.7621 67.1415 50.7621H105.175C106.263 50.7621 107.145 51.6443 107.145 52.7327C107.145 53.8212 106.263 54.7034 105.175 54.7034Z" fill="#C7CAD3"/>
<path d="M93.5265 36.4854H67.1415C66.0531 36.4854 65.1709 35.6032 65.1709 34.5148C65.1709 33.4263 66.0531 32.5441 67.1415 32.5441H93.5265C94.615 32.5441 95.4971 33.4263 95.4971 34.5148C95.4974 35.6032 94.6152 36.4854 93.5265 36.4854Z" fill="#C7CAD3"/>
<path d="M83.7271 45.5944H67.1415C66.0531 45.5944 65.1709 44.7122 65.1709 43.6238C65.1709 42.5353 66.0531 41.6531 67.1415 41.6531H83.7271C84.8155 41.6531 85.6977 42.5353 85.6977 43.6238C85.6979 44.7122 84.8158 45.5944 83.7271 45.5944Z" fill="#C7CAD3"/>
<path d="M111.279 45.5944H90.1132C89.0248 45.5944 88.1426 44.7122 88.1426 43.6238C88.1426 42.5353 89.0248 41.6531 90.1132 41.6531H111.279C112.367 41.6531 113.25 42.5353 113.25 43.6238C113.25 44.7122 112.367 45.5944 111.279 45.5944Z" fill="#C7CAD3"/>
<path d="M131.407 45.5944H118.283C117.195 45.5944 116.312 44.7122 116.312 43.6238C116.312 42.5353 117.195 41.6531 118.283 41.6531H131.407C132.495 41.6531 133.378 42.5353 133.378 43.6238C133.378 44.7122 132.495 45.5944 131.407 45.5944Z" fill="#C7CAD3"/>
<path d="M131.407 54.7034H111.86C110.772 54.7034 109.89 53.8212 109.89 52.7327C109.89 51.6443 110.772 50.7621 111.86 50.7621H131.407C132.495 50.7621 133.377 51.6443 133.377 52.7327C133.377 53.8212 132.495 54.7034 131.407 54.7034Z" fill="#C7CAD3"/>
<path d="M130.982 36.4854H100.795C99.7064 36.4854 98.8242 35.6032 98.8242 34.5148C98.8242 33.4263 99.7064 32.5441 100.795 32.5441H130.982C132.071 32.5441 132.953 33.4263 132.953 34.5148C132.953 35.6032 132.071 36.4854 130.982 36.4854Z" fill="#C7CAD3"/>
<path d="M54.8063 120H143.194C148.998 120 153.703 115.295 153.703 109.492V50.2762L98.6185 85.1381L44.2979 50.2762V109.492C44.2979 115.295 49.0027 120 54.8063 120Z" fill="#FFDC64"/>
<path d="M54.8064 120H143.194C145.793 120 148.17 119.054 150.005 117.491L98.6186 85.1381L46.1572 115.458C48.0533 118.201 51.219 120 54.8064 120Z" fill="#FFC850"/>
</g>
<path d="M40 85C18.0156 85 0 103.016 0 125C0 146.984 18.0156 165 40 165C61.9844 165 80 146.984 80 125C80 103.016 61.9844 85 40 85Z" fill="#77DD00"/>
<path d="M80 125C80 146.984 61.9844 165 40 165V85C61.9844 85 80 103.016 80 125Z" fill="#66BB00"/>
<path d="M64.2334 116.75L39.9992 138.781L35.1709 143.187L17.6396 125.656L24.2492 119.047L35.4525 130.25L39.9992 126.125L57.9525 109.812L64.2334 116.75Z" fill="#E7E7E7"/>
<path d="M64.2342 116.75L40 138.781V126.125L57.9533 109.812L64.2342 116.75Z" fill="#D3D3D8"/>
<defs>
<clipPath id="clip0">
<rect width="120" height="120" fill="white" transform="translate(39)"/>
</clipPath>
</defs>
</svg>
