<svg width="160" height="165" viewBox="0 0 160 165" fill="none" xmlns="http://www.w3.org/2000/svg">
<g clip-path="url(#clip0)">
<path d="M144.194 120H55.8063C50.0027 120 45.2979 115.295 45.2979 109.492V50.2763L94.8025 1.97392C97.4866 -0.644751 101.765 -0.659751 104.467 1.94017L154.703 50.2763V109.492C154.703 115.295 149.998 120 144.194 120Z" fill="#FFC850"/>
<path d="M148.962 57.9281V44.7525L112.034 9.22078H87.3754L51.0391 44.6747V57.9281L99.5692 89.0454L148.962 57.9281Z" fill="#FFAA4D"/>
<path d="M143.362 57.5791L99.6176 85.1381L56.6367 57.5791V20.4108C56.6367 17.1143 59.3091 14.4419 62.6055 14.4419H137.393C140.689 14.4419 143.362 17.1143 143.362 20.4108L143.362 57.5791Z" fill="#E9EBF2"/>
<path d="M56.6367 48.2948V57.5791L99.6173 85.1381L143.362 57.5791V48.2948L106.239 71.6824C102.198 74.228 97.0498 74.2076 93.0295 71.6297L56.6367 48.2948Z" fill="#DFE2EA"/>
<path d="M131.982 27.3762H68.1415C67.0531 27.3762 66.1709 26.494 66.1709 25.4056C66.1709 24.3171 67.0531 23.4349 68.1415 23.4349H131.982C133.07 23.4349 133.952 24.3171 133.952 25.4056C133.953 26.494 133.07 27.3762 131.982 27.3762Z" fill="#C7CAD3"/>
<path d="M106.175 54.7034H68.1415C67.0531 54.7034 66.1709 53.8212 66.1709 52.7327C66.1709 51.6443 67.0531 50.7621 68.1415 50.7621H106.175C107.263 50.7621 108.145 51.6443 108.145 52.7327C108.145 53.8212 107.263 54.7034 106.175 54.7034Z" fill="#C7CAD3"/>
<path d="M94.5265 36.4854H68.1415C67.0531 36.4854 66.1709 35.6032 66.1709 34.5148C66.1709 33.4263 67.0531 32.5441 68.1415 32.5441H94.5265C95.615 32.5441 96.4971 33.4263 96.4971 34.5148C96.4974 35.6032 95.6152 36.4854 94.5265 36.4854Z" fill="#C7CAD3"/>
<path d="M84.7271 45.5944H68.1415C67.0531 45.5944 66.1709 44.7122 66.1709 43.6238C66.1709 42.5353 67.0531 41.6531 68.1415 41.6531H84.7271C85.8155 41.6531 86.6977 42.5353 86.6977 43.6238C86.6979 44.7122 85.8158 45.5944 84.7271 45.5944Z" fill="#C7CAD3"/>
<path d="M112.279 45.5944H91.1132C90.0248 45.5944 89.1426 44.7122 89.1426 43.6238C89.1426 42.5353 90.0248 41.6531 91.1132 41.6531H112.279C113.367 41.6531 114.25 42.5353 114.25 43.6238C114.25 44.7122 113.367 45.5944 112.279 45.5944Z" fill="#C7CAD3"/>
<path d="M132.407 45.5944H119.283C118.195 45.5944 117.312 44.7122 117.312 43.6238C117.312 42.5353 118.195 41.6531 119.283 41.6531H132.407C133.495 41.6531 134.378 42.5353 134.378 43.6238C134.378 44.7122 133.495 45.5944 132.407 45.5944Z" fill="#C7CAD3"/>
<path d="M132.407 54.7034H112.86C111.772 54.7034 110.89 53.8212 110.89 52.7327C110.89 51.6443 111.772 50.7621 112.86 50.7621H132.407C133.495 50.7621 134.377 51.6443 134.377 52.7327C134.377 53.8212 133.495 54.7034 132.407 54.7034Z" fill="#C7CAD3"/>
<path d="M131.982 36.4854H101.795C100.706 36.4854 99.8242 35.6032 99.8242 34.5148C99.8242 33.4263 100.706 32.5441 101.795 32.5441H131.982C133.071 32.5441 133.953 33.4263 133.953 34.5148C133.953 35.6032 133.071 36.4854 131.982 36.4854Z" fill="#C7CAD3"/>
<path d="M55.8063 120H144.194C149.998 120 154.703 115.295 154.703 109.492V50.2762L99.6185 85.1381L45.2979 50.2762V109.492C45.2979 115.295 50.0027 120 55.8063 120Z" fill="#FFDC64"/>
<path d="M55.8064 120H144.194C146.793 120 149.17 119.054 151.005 117.491L99.6186 85.1381L47.1572 115.458C49.0533 118.201 52.219 120 55.8064 120Z" fill="#FFC850"/>
</g>
<path d="M40 165C62.0914 165 80 147.091 80 125C80 102.909 62.0914 85 40 85C17.9086 85 0 102.909 0 125C0 147.091 17.9086 165 40 165Z" fill="#F15249"/>
<path d="M23.2178 143.044L44.7951 164.621C62.9654 162.476 77.3503 148.218 79.6216 130.047L57.9181 108.344L23.2178 143.044Z" fill="#AD0E0E"/>
<path d="M58.9269 133.833C60.6934 135.599 60.6934 138.628 58.9269 140.394L55.3938 143.927C53.6272 145.694 50.5988 145.694 48.8322 143.927L21.072 116.167C19.3054 114.401 19.3054 111.372 21.072 109.606L24.7313 105.946C26.4979 104.18 29.5262 104.18 31.2928 105.946L58.9269 133.833Z" fill="white"/>
<path d="M44.2902 119.069L34.0693 129.29L48.8327 143.927C50.5993 145.694 53.6277 145.694 55.3943 143.927L59.0536 140.268C60.8201 138.502 60.8201 135.473 59.0536 133.707L44.2902 119.069Z" fill="#D6D6D6"/>
<path d="M48.8322 106.073C50.5988 104.306 53.6272 104.306 55.3938 106.073L59.0531 109.732C60.8196 111.498 60.8196 114.527 59.0531 116.293L31.1666 143.927C29.4001 145.694 26.3717 145.694 24.6051 143.927L21.072 140.394C19.3054 138.628 19.3054 135.599 21.072 133.833L48.8322 106.073Z" fill="white"/>
<defs>
<clipPath id="clip0">
<rect width="120" height="120" fill="white" transform="translate(40)"/>
</clipPath>
</defs>
</svg>
