<svg width="70" height="70" viewBox="0 0 70 70" fill="none" xmlns="http://www.w3.org/2000/svg">
<circle cx="35" cy="35" r="35" fill="#C4C4C4"/>
<path d="M56.0443 29.8646H14.7789C14.2612 29.8646 13.8411 30.2847 13.8411 30.8024V53.3108C13.8411 55.8955 15.9437 58 18.5303 58H52.2928C54.8794 58 56.982 55.8955 56.982 53.3108V30.8024C56.9821 30.2847 56.562 29.8646 56.0443 29.8646ZM55.1064 53.3107C55.1064 54.8619 53.8441 56.1242 52.2929 56.1242H18.5304C16.9791 56.1242 15.7168 54.8619 15.7168 53.3107V31.7402H55.1064V53.3107Z" fill="#383E45"/>
<path d="M56.9521 21.1857L55.3558 15.1291C54.9882 13.6566 53.4839 12.7319 51.9928 13.0696L14.2049 22.0354C13.4622 22.2042 12.8338 22.6562 12.4342 23.3052C12.0347 23.9542 11.9166 24.7195 12.1041 25.4622L13.871 32.4473C13.9761 32.8712 14.3587 33.1545 14.7788 33.1545C14.8538 33.1545 14.9307 33.147 15.0114 33.1263C15.5122 33.0007 15.816 32.4905 15.6885 31.9878L15.5853 31.5808L56.2523 22.3411C56.4999 22.283 56.7156 22.1292 56.8469 21.9116C56.9802 21.694 57.0158 21.4314 56.9521 21.1857ZM15.1259 29.7613L13.9217 25.0065C13.8598 24.7589 13.9011 24.5038 14.0324 24.2862C14.1656 24.0705 14.3757 23.9204 14.6307 23.8604L52.4185 14.8965C52.486 14.8796 52.5554 14.8722 52.6229 14.8722C53.0431 14.8722 53.4314 15.161 53.5383 15.5943L54.8906 20.7243L15.1259 29.7613Z" fill="#383E45"/>
<path d="M22.7019 29.9621C22.2367 29.7351 21.6777 29.9189 21.4414 30.3823L17.69 37.885C17.4593 38.3483 17.6468 38.911 18.1102 39.1436C18.2471 39.2111 18.3897 39.2431 18.5303 39.2431C18.8736 39.2431 19.2056 39.0536 19.3706 38.7235L23.1221 31.2208C23.3528 30.7573 23.1651 30.1946 22.7019 29.9621Z" fill="#383E45"/>
<path d="M32.0786 29.9621C31.6153 29.7351 31.0526 29.9189 30.8199 30.3823L27.0685 37.885C26.8378 38.3483 27.0253 38.911 27.4887 39.1436C27.6256 39.2111 27.7682 39.2431 27.9089 39.2431C28.2521 39.2431 28.5841 39.0536 28.7473 38.7235L32.4988 31.2208C32.7294 30.7573 32.5418 30.1946 32.0786 29.9621Z" fill="#383E45"/>
<path d="M41.457 29.9621C40.9955 29.7351 40.4328 29.9189 40.1983 30.3823L36.4469 37.885C36.2162 38.3483 36.4038 38.911 36.8671 39.1436C37.004 39.2111 37.1466 39.2431 37.2873 39.2431C37.6306 39.2431 37.9626 39.0536 38.1257 38.7235L41.8772 31.2208C42.1079 30.7573 41.9202 30.1946 41.457 29.9621Z" fill="#383E45"/>
<path d="M50.8355 29.9621C50.3703 29.7351 49.8113 29.9189 49.5768 30.3823L45.8254 37.885C45.5947 38.3483 45.7822 38.911 46.2456 39.1436C46.3825 39.2111 46.5251 39.2431 46.6658 39.2431C47.009 39.2431 47.341 39.0536 47.5042 38.7235L51.2556 31.2208C51.4863 30.7573 51.2987 30.1946 50.8355 29.9621Z" fill="#383E45"/>
<path d="M56.0443 37.3673H14.7789C14.2612 37.3673 13.8411 37.7875 13.8411 38.3052C13.8411 38.8229 14.2612 39.2431 14.7789 39.2431H56.0443C56.5639 39.2431 56.9822 38.8229 56.9822 38.3052C56.9822 37.7875 56.562 37.3673 56.0443 37.3673Z" fill="#383E45"/>
<path d="M23.8479 28.2271L17.388 21.7672C17.0222 21.4014 16.4276 21.4014 16.0619 21.7672C15.6961 22.1329 15.6961 22.7276 16.0619 23.0933L22.5217 29.5551C22.7056 29.737 22.9456 29.829 23.1857 29.829C23.4259 29.829 23.6659 29.7371 23.8479 29.5532C24.2137 29.1874 24.2137 28.5928 23.8479 28.2271Z" fill="#383E45"/>
<path d="M33.0237 26.1431L26.5583 19.6832C26.1925 19.3175 25.5979 19.3175 25.2321 19.6832C24.8664 20.049 24.8664 20.6436 25.2321 21.0094L31.6958 27.4693C31.8797 27.6512 32.1197 27.7431 32.3598 27.7431C32.5999 27.7431 32.84 27.6513 33.0238 27.4693C33.3896 27.1035 33.3896 26.5089 33.0237 26.1431Z" fill="#383E45"/>
<path d="M42.1922 24.0592L35.738 17.5975C35.3722 17.2317 34.7776 17.2317 34.4118 17.5975C34.0461 17.9633 34.0461 18.5579 34.4118 18.9236L40.8661 25.3854C41.0499 25.5673 41.29 25.6593 41.5301 25.6593C41.7702 25.6593 42.0102 25.5692 42.1922 25.3854C42.558 25.0196 42.558 24.425 42.1922 24.0592Z" fill="#383E45"/>
<path d="M51.3569 21.9772L44.9007 15.5155C44.5349 15.1497 43.9403 15.1497 43.5746 15.5155C43.2088 15.8813 43.2088 16.4759 43.5746 16.8416L50.0307 23.3034C50.2145 23.4853 50.4545 23.5773 50.6947 23.5773C50.9348 23.5773 51.1748 23.4854 51.3568 23.3034C51.7227 22.9376 51.7226 22.343 51.3569 21.9772Z" fill="#383E45"/>
</svg>
