<svg width="291" height="414" viewBox="0 0 291 414" fill="none" xmlns="http://www.w3.org/2000/svg">
<g clip-path="url(#clip0)">
<path d="M37.9095 171.837H128.462C133.63 171.837 137.819 175.435 137.819 179.872V241.773C137.819 246.21 133.63 249.807 128.462 249.807H37.9095C32.7417 249.807 28.5531 246.21 28.5531 241.773V179.872C28.5531 175.435 32.7417 171.837 37.9095 171.837Z" fill="#B3B3B3"/>
<path d="M120.824 194.09C116.701 194.09 113.359 190.729 113.359 186.583C113.359 182.437 116.701 179.077 120.824 179.077C124.947 179.077 128.288 182.437 128.288 186.583C128.288 190.729 124.947 194.09 120.824 194.09Z" fill="#C83737"/>
<path d="M106.443 190.216C104.379 190.216 102.706 188.561 102.706 186.52C102.706 184.478 104.379 182.823 106.443 182.823C108.508 182.823 110.181 184.478 110.181 186.52C110.181 188.561 108.508 190.216 106.443 190.216Z" fill="#37C871"/>
<path d="M44.3576 181.985H97.3077C97.8972 181.985 98.3755 182.396 98.3755 182.902V188.071C98.3755 188.577 97.8972 188.988 97.3077 188.988H44.3576C43.7681 188.988 43.2915 188.577 43.2915 188.071V182.902C43.2915 182.396 43.7681 181.985 44.3576 181.985Z" fill="#999999"/>
<path d="M50.2287 199.849H120.245C124.734 199.849 128.374 202.973 128.374 206.828V234.342C128.374 238.196 124.734 241.321 120.245 241.321H50.2287C45.7397 241.321 42.1005 238.196 42.1005 234.342V206.828C42.1005 202.973 45.7397 199.849 50.2287 199.849Z" fill="#999999"/>
<path d="M21.8615 213.361L20.7378 220.779C20.7378 220.779 14.273 235.023 23.2671 235.023C32.2617 235.023 29.7313 229.385 29.7313 229.385L28.8882 213.361H21.8615Z" fill="#1A1A1A"/>
<path d="M60.0863 213.361L61.2113 220.779C61.2113 220.779 67.6761 235.023 58.682 235.023C49.6876 235.023 52.2165 229.385 52.2165 229.385L53.0596 213.361H60.0863Z" fill="#1A1A1A"/>
<path d="M15.6785 127.898L17.9272 183.983L19.7677 212.76L19.9922 215.25C20.3994 219.761 30.8162 217.076 30.8645 214.155C30.6634 210.663 30.575 208.316 30.575 208.316L29.4513 179.828L37.8836 144.812L48.5646 182.499L50.8133 209.503C50.8133 209.503 50.247 218.007 53.3388 218.897C56.4306 219.787 61.4593 219.848 61.178 217.177C60.8969 214.506 60.3693 210.096 60.3693 210.096L61.7749 131.755L57.5581 124.93L15.6785 127.898Z" fill="#002255"/>
<path d="M31.4168 43.9188C31.4168 43.9188 28.6071 54.6017 28.0444 54.6017C27.4825 54.6017 33.3849 62.9106 33.3849 62.9106L42.0978 67.9553L45.1897 54.3048C45.1897 54.3048 42.3788 46.8863 42.941 43.0286L31.4168 43.9188Z" fill="#DEAA87"/>
<path d="M37.32 59.943L29.0102 52.3244L24.1097 54.8983L13.4287 62.0202C13.4287 62.0202 16.2394 126.117 14.8343 128.491C14.8343 128.491 17.9257 135.91 36.195 131.459C54.4646 127.008 59.2433 126.414 59.2433 126.414L55.3084 87.2436L60.0864 62.6137L44.0368 50.7644L39.0062 59.943H37.32Z" fill="#002255"/>
<path d="M5.21606 85.6377C5.21606 85.6377 2.18587 98.8166 5.27665 100.3C8.36873 101.784 10.8978 101.19 10.8978 101.19L15.6764 89.024L5.21606 85.6377Z" fill="#162D50"/>
<path d="M64.8645 82.4956L67.3951 94.9589V120.182C67.3951 120.182 63.7404 136.207 60.9296 132.052C58.1189 127.898 58.1771 126.582 58.1771 126.582L61.7727 120.776L60.0865 97.0362L55.6057 85.7116L64.8645 82.4956Z" fill="#DEAA87"/>
<path d="M15.677 62.6135L13.4283 62.02C13.4283 62.02 9.21254 67.6582 7.80717 74.1866C6.40179 80.715 4.43391 87.2435 5.55847 87.2435C6.6825 87.2435 16.8007 91.3979 16.8007 91.3979L15.677 62.6135Z" fill="#002255"/>
<path d="M53.6225 62.02L60.0867 62.6135C60.0867 62.6135 67.3952 83.6825 66.5522 84.276C65.7087 84.8695 55.5904 88.4304 54.185 87.5402C52.7796 86.6499 53.6225 62.02 53.6225 62.02Z" fill="#162D50"/>
<path d="M28.0855 52.7375L35.1518 60.9122L31.6684 130.782C13.9774 134.9 14.6794 127.928 14.6794 127.928C16.085 125.554 13.2738 61.4567 13.2738 61.4567L23.9555 54.3349L28.0855 52.7375Z" fill="#0044AA"/>
<path d="M44.9868 51.4695L60.1371 62.3188L55.3591 86.949L59.294 126.119C59.294 126.119 57.9818 125.289 43.3835 128.763L40.1003 61.1255L44.9868 51.4695Z" fill="#0044AA"/>
<path opacity="0.999" d="M23.1938 54.8782L19.8431 56.8862L19.6938 132.263H23.829L23.1938 54.8782Z" fill="#999999"/>
<path d="M44.4721 83.8611C46.4332 83.8741 48.1251 86.3385 48.2654 89.3872L48.7572 100.077C48.8975 103.126 47.4315 105.57 45.4703 105.557L25.8564 105.428C23.8953 105.415 22.2037 102.95 22.0634 99.9012L21.6787 91.5412L20.0754 91.5306C20.0034 92.0097 19.897 92.4001 19.765 92.6691C19.633 92.9381 19.4793 93.0778 19.3168 93.0767C19.1832 93.0758 19.0464 92.9796 18.9144 92.7935C18.7824 92.6075 18.6577 92.3352 18.5474 91.9923C18.4372 91.6495 18.3435 91.2427 18.2718 90.7952C18.2001 90.3476 18.1517 89.8682 18.1294 89.3842C18.0845 88.4068 18.1486 87.4701 18.3076 86.7802C18.4667 86.0903 18.7077 85.7037 18.9777 85.7054C19.1647 85.7068 19.3567 85.8946 19.5325 86.2483C19.7084 86.602 19.8613 87.1079 19.9746 87.7105L21.6343 87.7215C21.9439 85.4048 23.2298 83.7212 24.8582 83.7319L44.4721 83.8611Z" fill="#4D4D4D"/>
<path d="M18.1759 94.2533C17.1912 94.1863 16.4545 92.1695 16.5304 89.7485C16.6063 87.3274 17.4662 85.4191 18.4509 85.486C19.4356 85.5529 20.1723 87.5698 20.0964 89.9908C20.0205 92.4118 19.1606 94.3202 18.1759 94.2533Z" fill="#C83737"/>
<path d="M7.80797 91.6949C7.80797 91.6949 4.4348 98.2233 5.27802 100.3C6.12125 102.378 13.1477 103.565 13.9909 103.565C14.8344 103.565 24.9532 101.191 24.9532 101.191C24.9532 101.191 40.412 93.4753 35.9148 89.6177C31.4174 85.76 22.9864 94.959 22.9864 94.959H16.2396L12.586 92.2885L7.80797 91.6949Z" fill="#DEAA87"/>
<path d="M39.0445 14.7497C43.6104 14.75 47.2348 20.558 47.2868 27.7559V29.4216C47.2998 29.4204 47.312 29.4198 47.325 29.4198C47.6058 29.4198 47.8752 29.6907 48.0737 30.1726C48.2723 30.6546 48.3837 31.3083 48.3837 31.9899C48.3837 32.6715 48.2723 33.3252 48.0737 33.8072C47.8752 34.2892 47.6058 34.56 47.325 34.56C47.3642 41.745 43.2679 47.6244 38.7078 47.6244H35.4259C31.0222 47.6244 26.9096 40.8161 26.6199 33.8745C26.5706 33.8916 26.5205 33.9003 26.4706 33.9005C26.1899 33.9004 25.9205 33.6297 25.7219 33.1477C25.5234 32.6658 25.412 32.012 25.412 31.3305C25.412 30.6489 25.5234 29.9951 25.7219 29.5132C25.9205 29.0312 26.1899 28.7604 26.4706 28.7603C26.5143 28.7599 26.5574 28.766 26.6007 28.7786V27.7553C26.6007 20.5571 30.2766 14.7493 34.843 14.7493H39.0356L39.0445 14.7497Z" fill="#DEAA87"/>
<path opacity="0.6" d="M26.3557 31.5069C26.2294 31.4949 26.1614 31.0687 26.2036 30.5549C26.2458 30.0411 26.3823 29.6344 26.5086 29.6464C26.6349 29.6585 26.703 30.0847 26.6607 30.5985C26.6185 31.1122 26.482 31.519 26.3557 31.5069Z" fill="black"/>
<path opacity="0.6" d="M47.5817 32.3631C47.708 32.3511 47.776 31.9249 47.7338 31.4111C47.6915 30.8973 47.5551 30.4906 47.4287 30.5026C47.3024 30.5147 47.2344 30.9409 47.2767 31.4546C47.3189 31.9684 47.4553 32.3751 47.5817 32.3631Z" fill="black"/>
<path d="M36.8461 13.6034C42.5948 13.6034 46.9375 18.9437 47.2771 25.5542L47.42 28.3966C47.3468 30.2631 47.42 30.2418 47.42 31.8309C47.42 33.4201 47.4208 33.4547 47.3843 34.8631L47.11 37.1687C46.9481 38.531 46.3209 40.9002 45.4965 42.457C44.7988 43.774 43.8421 44.9576 42.5297 46.1339C40.7153 47.5801 40.1921 47.8794 38.6088 47.8446L35.3512 47.7729C34.2369 47.7082 32.0849 46.6973 30.836 45.1551C29.5212 43.5351 29.9587 44.095 29.2276 42.9653C28.1762 41.3407 26.4534 38.1541 26.4534 35.3431V35.156C26.4899 33.271 26.4891 33.2736 26.4891 31.7392C26.4891 30.2049 26.4899 30.2046 26.4534 28.8636V25.5541C26.4534 18.9334 31.0808 13.6033 36.8295 13.6033L36.8461 13.6034ZM38.5259 20.8338L35.1803 21.0234L30.9546 20.9443L29.5273 22.1789L29.3105 24.1517L28.8207 26.1385L27.4457 27.5842L27.1141 29.6427L27.1613 36.0326L27.5222 38.214L28.6345 40.5398L30.4865 43.5513L32.2773 45.5452L34.1293 46.6689L35.4252 46.7701C35.8507 46.6024 36.7743 44.4106 36.8002 43.4467L37.2262 43.4362C37.3882 44.0013 37.4031 46.2016 38.105 46.7683L40.0336 46.7031L41.4749 45.5927L43.9417 43.5362L44.8562 42.0715L45.7389 40.0683L46.3486 38.1116L46.7478 35.7983L46.6853 29.4152L45.8422 26.8054L44.9175 25.4772C44.8051 24.728 44.8426 24.2265 44.8243 23.668C44.8243 23.3178 44.7875 22.5429 44.6726 22.1905C44.5655 21.8926 44.2861 21.8678 44.2861 21.8678C43.969 21.7313 44.0519 21.5673 43.7159 21.4442C43.5252 21.3748 43.3357 21.3135 43.1458 21.2596C41.7746 20.8709 40.3668 20.8589 38.5247 20.835L38.5259 20.8338Z" fill="#333333"/>
<path d="M40.2936 33.0268C39.8706 33.0268 39.5283 32.6431 39.5283 32.1698C39.5283 31.6964 39.8706 31.3127 40.2936 31.3127C40.7166 31.3127 41.0602 31.6964 41.0602 32.1698C41.0602 32.6431 40.7166 33.0268 40.2936 33.0268Z" fill="black"/>
<path d="M34.1373 32.9279C33.7143 32.9279 33.3707 32.5442 33.3707 32.0709C33.3707 31.5976 33.7143 31.2139 34.1373 31.2139C34.5603 31.2139 34.9026 31.5976 34.9026 32.0709C34.9026 32.5442 34.5603 32.9279 34.1373 32.9279Z" fill="black"/>
<path d="M36.0785 38.0688H38.5262C38.5854 38.0688 38.6333 38.1168 38.6333 38.1759V38.3426C38.6333 38.4017 38.5854 38.4496 38.5262 38.4496H36.0785C36.0193 38.4496 35.9713 38.4017 35.9713 38.3426V38.1759C35.9713 38.1168 36.0193 38.0688 36.0785 38.0688Z" fill="black"/>
<path d="M38.2342 29.0779H41.8579C41.9832 29.0779 42.085 29.1793 42.085 29.3044V29.6571C42.085 29.7822 41.9832 29.8836 41.8579 29.8836H38.2342C38.1089 29.8836 38.0072 29.7822 38.0072 29.6571V29.3044C38.0072 29.1793 38.1089 29.0779 38.2342 29.0779Z" fill="black"/>
<path d="M32.3788 28.9797H35.9897C36.1185 28.9797 36.2231 29.084 36.2231 29.2126V29.575C36.2231 29.7036 36.1185 29.8079 35.9897 29.8079H32.3788C32.25 29.8079 32.1454 29.7036 32.1454 29.575V29.2126C32.1454 29.084 32.25 28.9797 32.3788 28.9797Z" fill="black"/>
<path d="M40.9406 40.2129C40.9392 41.0183 40.5539 41.7903 39.8692 42.3594C39.1846 42.9285 38.2566 43.2481 37.2891 43.2481C36.3216 43.2481 35.3936 42.9285 34.709 42.3594C34.0243 41.7903 33.639 41.0183 33.6376 40.2129H40.9406Z" fill="#F2F2F2"/>
<path d="M40.6902 40.2935C40.6889 41.006 40.3258 41.689 39.6806 42.1925C39.0354 42.6959 38.1609 42.9787 37.2491 42.9787C36.3373 42.9787 35.4627 42.6959 34.8176 42.1925C34.1724 41.689 33.8092 41.006 33.8079 40.2935H40.6902Z" fill="white"/>
<path d="M40.6283 39.8223C40.5918 39.804 40.6291 39.7281 40.6296 39.7169C40.789 39.5119 41.1076 39.6061 41.3414 39.8059C41.6047 40.032 41.5525 40.3677 41.4141 40.6476C41.4141 40.6685 41.2317 40.9287 41.1768 40.8132C41.1402 40.76 41.289 40.3637 41.2916 40.332C41.3282 40.0704 41.3311 40.182 41.224 39.9448C41.0333 39.8073 40.9246 39.7896 40.7164 39.8222L40.6283 39.8223Z" fill="#808080"/>
<path d="M33.8668 39.8945C33.9034 39.8763 33.9034 39.8035 33.8668 39.7923C33.7075 39.5873 33.4042 39.6509 33.1704 39.8502C32.9073 40.0761 32.9042 40.3613 33.0403 40.6412C33.0403 40.662 33.1942 40.7502 33.2125 40.7369C33.2569 40.7009 33.1757 40.4842 33.1678 40.453C33.1182 40.1871 33.1185 40.1899 33.3171 40.0198C33.4973 39.8664 33.554 39.8706 33.7622 39.9032L33.8668 39.8945Z" fill="#808080"/>
<path d="M39.5336 12.47V12.4702C43.9383 12.4704 47.5341 17.4307 48.3243 23.9987H26.1715C26.9306 17.4302 30.5733 12.47 34.9788 12.47H39.5336Z" fill="#0044AA"/>
<path d="M36.2305 10.8403H38.1055C38.5827 10.8403 38.969 11.2266 38.969 11.7031V12.8636C38.969 13.3401 38.5827 13.7264 38.1055 13.7264H36.2305C35.7533 13.7264 35.367 13.3401 35.367 12.8636V11.7031C35.367 11.2266 35.7533 10.8403 36.2305 10.8403Z" fill="#0044AA"/>
<path d="M30.3161 12.3403H31.6618C32.0567 12.3403 32.3773 12.66 32.3773 13.0543V16.6899C32.3773 17.0843 32.0567 17.4039 31.6618 17.4039H30.3161C29.9212 17.4039 29.6018 17.0843 29.6018 16.6899V13.0543C29.6018 12.66 29.9212 12.3403 30.3161 12.3403Z" fill="#0044AA"/>
<path d="M42.601 12.2815H44.2795C44.5826 12.2815 44.828 12.5269 44.828 12.8295V16.7971C44.828 17.0998 44.5826 17.3451 44.2795 17.3451H42.601C42.2979 17.3451 42.0513 17.0998 42.0513 16.7971V12.8295C42.0513 12.5269 42.2979 12.2815 42.601 12.2815Z" fill="#0044AA"/>
<path opacity="0.61" d="M48.4798 23.9272L43.2655 21.3513H31.7019L26.2976 23.959L48.4798 23.9272Z" fill="#002255"/>
<path opacity="0.65" d="M27.0707 28.4363L29.0784 29.6153V29.6169C29.571 29.3806 30.3409 29.3369 31.211 29.3376C31.7097 29.3381 32.2409 29.3533 32.7709 29.3533C34.169 29.3533 35.3324 29.6603 35.9635 30.2599C35.9635 30.2599 36.4889 30.5715 36.776 30.6408C36.9171 30.6768 37.0685 30.6768 37.2122 30.6565C37.5043 30.6108 38.0617 30.3599 38.0617 30.3599C39.0107 29.713 40.1918 29.4077 41.3015 29.3977C41.8312 29.3977 42.363 29.3821 42.8614 29.3821C43.714 29.3815 44.471 29.4227 44.9647 29.6469L46.6687 29.3968V29.7048L45.5476 30.5581C45.511 31.9144 44.1475 33.5419 42.1037 34.0895C41.2966 34.3057 40.1911 34.1727 39.5553 34.0297C38.9033 33.8829 38.4164 33.3909 38.0617 32.9361C37.9285 32.7674 37.7983 32.4324 37.7046 32.1101C37.621 31.819 37.4754 31.6496 37.2722 31.5411C37.1233 31.4605 36.9257 31.4443 36.776 31.5202C36.5853 31.6175 36.4845 31.7753 36.3831 32.0666C36.3048 32.2959 36.0801 32.7709 35.9826 32.8932C35.6295 33.3481 35.141 33.8401 34.489 33.9868C33.8532 34.1297 32.748 34.2629 31.9406 34.0466C30.2544 33.5947 29.021 32.4074 28.6294 31.244L27.058 29.0754L27.0707 28.4363Z" fill="white"/>
<path d="M66.6966 84.1189L68.7553 98.2486L67.2744 120.799C67.2744 120.799 67.4343 120.767 61.6674 120.762L59.1725 100.083L55.0577 87.5628L66.6966 84.1189Z" fill="#002255"/>
<path opacity="0.999" d="M50.9891 55.5712L47.9968 53.3469L48.3871 127.56L51.8463 126.924L50.9891 55.5712Z" fill="#999999"/>
<path d="M7.81723 91.603C7.81723 91.603 3.53782 97.232 4.38104 99.3259C4.74153 100.219 5.91486 101.343 7.75282 102.085C10.2263 103.083 13.5177 103.568 14.0015 103.568C14.8444 103.568 23.5033 101.545 23.5033 101.545C22.5989 100.228 22.9844 102.509 22.9956 94.8935H16.2495L12.5959 92.2014L7.81723 91.603Z" fill="#002255"/>
<path d="M200.337 108.852H193.41V122.462H200.337V108.852Z" fill="#374548"/>
<path opacity="0.95" d="M86.6289 230.923V237.949L98.0288 281.324L86.6833 281.063V282.632L17.0166 282.913V281.37L7.66394 281.35L17.0166 244.444V230.92L86.6289 230.923Z" fill="#0B2228"/>
<path opacity="0.4" d="M53.4124 235.871V281.125H62.2379L56.8518 235.807L53.4124 235.871Z" fill="black"/>
<path opacity="0.4" d="M20.1272 234.383H22.1844V281.972H7.15308L20.1272 234.383Z" fill="black" stroke="black" stroke-width="0.201254"/>
<path opacity="0.4" d="M83.8572 235.106H81.7997V283.042H96.8307L83.8572 235.106Z" fill="black" stroke="black" stroke-width="0.201982"/>
<path d="M88.7939 234.303V236.838H87.0213L97.8444 279.593H99.7374V283.08H4.20667V279.593H6.15873L16.9821 236.838H15.2755V234.303H88.7939ZM84.6526 236.838H51.8574V279.593H95.476L84.6526 236.838ZM48.2588 236.838H19.3508L8.52673 279.593H42.8849L48.2588 236.838Z" fill="#4D4D4D"/>
<path d="M17.5911 213.095H18.9308C19.5982 213.095 19.91 213.518 20.1302 213.979L20.9558 215.712C21.1781 216.174 20.4235 216.596 19.7564 216.596H16.7655C16.0978 216.596 15.3455 216.173 15.5657 215.712L16.3913 213.979C16.6136 213.517 16.9237 213.095 17.5911 213.095Z" fill="#373E48"/>
<path d="M22.4137 215.084H14.1618C13.7989 215.084 13.5048 215.378 13.5048 215.74V221.331C13.5048 221.693 13.7989 221.987 14.1618 221.987H22.4137C22.7766 221.987 23.0708 221.693 23.0708 221.331V215.74C23.0708 215.378 22.7766 215.084 22.4137 215.084Z" fill="#A02C2C"/>
<path d="M33.5302 207.753H73.9731C74.1622 207.753 74.2352 207.87 74.3204 207.987L83.8422 221.264C83.9285 221.381 83.6863 221.498 83.4953 221.498H25.5124C25.3233 221.498 25.0941 221.384 25.1654 221.264L33.1836 207.987C33.2566 207.867 33.3395 207.753 33.5306 207.753H33.5302Z" fill="#00222B"/>
<path d="M91.3486 219.346H13.1376C11.9664 219.346 11.017 220.294 11.017 221.463V229.103C11.017 230.272 11.9664 231.22 13.1376 231.22H91.3486C92.5198 231.22 93.4693 230.272 93.4693 229.103V221.463C93.4693 220.294 92.5198 219.346 91.3486 219.346Z" fill="#A02C2C"/>
<path d="M100.458 2.75605L97.4178 0.505238C96.2818 -0.335792 94.6781 -0.0980904 93.8358 1.03615L83.166 15.4039C82.3237 16.5382 82.5618 18.1395 83.6977 18.9805L86.7379 21.2313C87.8739 22.0723 89.4776 21.8346 90.3199 20.7004L100.99 6.3326C101.832 5.19835 101.594 3.59708 100.458 2.75605Z" fill="#0A2228" fill-opacity="0.952941"/>
<path d="M104.491 1.75435L198.045 82.5602C198.97 83.3591 199.231 84.6626 198.503 85.644L190.828 95.9806C190.1 96.9618 188.746 97.1312 187.739 96.4384L86.0891 26.5315C85.0818 25.8387 84.902 24.4288 85.6304 23.4478L101.4 2.21034C102.129 1.22927 103.563 0.953417 104.489 1.75243L104.491 1.75435Z" fill="#C83737"/>
<path d="M118.771 22.4255C116.684 21.8479 114.516 21.6413 112.391 21.8176C110.267 21.9939 108.227 22.5497 106.388 23.4531C104.549 24.3565 102.947 25.5898 101.674 27.0828C100.401 28.5758 99.4816 30.299 98.9681 32.1543C98.9465 32.2287 98.9255 32.3033 98.9051 32.3781C98.19 32.6577 97.633 33.2023 97.4012 33.9217L56.8309 159.893C56.5191 160.857 57.0067 161.893 57.8894 162.549C55.3943 172.653 62.78 183.313 74.5271 186.564C86.2265 189.803 98.0045 184.514 101.114 174.626C102.354 174.626 103.491 173.966 103.732 172.874L132.266 43.5715C132.515 42.4481 131.933 41.2873 130.824 40.6687C131.765 36.9485 131.029 32.9541 128.775 29.5431C126.521 26.1321 122.928 23.5766 118.768 22.4252L118.771 22.4255Z" fill="#C83737"/>
<path d="M114.254 53.5817C106.314 53.5817 99.8776 47.1236 99.8776 39.1572C99.8776 31.1907 106.314 24.7327 114.254 24.7327C122.194 24.7327 128.63 31.1907 128.63 39.1572C128.63 47.1236 122.194 53.5817 114.254 53.5817Z" fill="#0A2228" fill-opacity="0.952941"/>
<path d="M161.735 50.0112L147.595 68.7106C146.794 69.769 147.005 71.2748 148.065 72.0739L169.106 87.9364C170.166 88.7355 171.674 88.5254 172.474 87.467L186.614 68.7676C187.415 67.7092 187.204 66.2034 186.144 65.4043L165.103 49.5418C164.043 48.7427 162.535 48.9528 161.735 50.0112Z" fill="#0A2228" fill-opacity="0.952941"/>
<path d="M205.425 107.063H188.154C187.972 107.063 187.824 107.211 187.824 107.393V108.524C187.824 108.706 187.972 108.854 188.154 108.854H205.425C205.607 108.854 205.755 108.706 205.755 108.524V107.393C205.755 107.211 205.607 107.063 205.425 107.063Z" fill="#1C2224"/>
<path d="M203.266 102.668H190.594V107.069H203.266V102.668Z" fill="#6F8A91"/>
<path d="M196.96 104.704C190.371 104.704 185.029 99.3973 185.029 92.8513C185.029 86.3052 190.371 80.9985 196.96 80.9985C203.55 80.9985 208.891 86.3052 208.891 92.8513C208.891 99.3973 203.55 104.704 196.96 104.704Z" fill="#0A2228" fill-opacity="0.952941"/>
<path d="M18.1539 214.1L18.3032 198.493C18.3032 198.493 19.0455 178.194 22.8793 169.017C26.2793 160.879 29.856 148.762 38.6285 147.745C45.9597 146.896 47.5953 148.615 54.9518 149.649C63.4981 150.851 69.3685 147.146 73.7562 138.979C84.5537 118.885 91.2106 74.0373 99.2295 68.2484C110.162 60.3564 105.685 79.8417 124.575 78.7572C143.409 77.676 142.848 55.0496 147.309 58.3368C160.832 68.3011 170.627 74.5088 180.387 83.537C184.411 87.2591 178.664 91.8296 177.217 95.9688C175.847 99.8874 175.644 107.048 181.554 111.391C186.975 115.374 193.324 116.12 193.324 116.12" stroke="#1A1A1A" stroke-width="4.68632"/>
<path d="M193.349 113.223L192.413 113.23C192.238 113.231 192.096 113.374 192.096 113.549L192.095 118.34C192.095 118.515 192.237 118.656 192.412 118.655L193.348 118.648C193.524 118.647 193.666 118.504 193.666 118.329L193.666 113.538C193.666 113.363 193.524 113.222 193.349 113.223Z" fill="#939DAC"/>
<path d="M78.2743 155.538C77.2628 155.538 76.2524 155.607 75.2499 155.745H10.6187C10.6187 155.745 10.5723 155.738 10.5557 155.738H0.853463C0.38079 155.738 0 156.237 0 156.858V169.537C0 170.157 0.382449 170.657 0.853463 170.657H3.54455V208.262H79.1106V201.87C84.9847 201.649 90.5458 199.112 94.6248 194.793C98.7038 190.475 100.983 184.71 100.983 178.713C100.983 172.567 98.5902 166.673 94.3311 162.327C90.072 157.981 84.2954 155.539 78.272 155.539L78.2743 155.538Z" fill="#C83737"/>
<path d="M76.8663 197.518C66.8257 197.518 58.6862 189.235 58.6862 179.018C58.6862 168.801 66.8257 160.518 76.8663 160.518C86.9069 160.518 95.0464 168.801 95.0464 179.018C95.0464 189.235 86.9069 197.518 76.8663 197.518Z" fill="#0A2228" fill-opacity="0.952941"/>
<path d="M156.772 59.7516L152.329 65.4515C151.809 66.1186 151.934 67.0748 152.607 67.5872L171.043 81.6141C171.716 82.1265 172.684 82.001 173.204 81.3338L177.646 75.634C178.166 74.9668 178.042 74.0106 177.368 73.4983L158.933 59.4713C158.259 58.959 157.292 59.0844 156.772 59.7516Z" fill="#6F7C91"/>
<path d="M98.5234 72.4146L91.8386 70.6243C91.3893 70.504 90.9261 70.7698 90.804 71.2179L87.4607 83.4853C87.3386 83.9334 87.6038 84.3942 88.053 84.5145L94.7378 86.3047C95.1871 86.425 95.6502 86.1593 95.7723 85.7112L99.1156 73.4438C99.2377 72.9957 98.9726 72.5349 98.5234 72.4146Z" fill="#6F7C91"/>
<path d="M82.0726 125.496L75.4444 123.507C74.999 123.373 74.5281 123.625 74.3926 124.069L70.6828 136.231C70.5473 136.675 70.7985 137.144 71.2439 137.278L77.872 139.267C78.3175 139.401 78.7884 139.149 78.9239 138.705L82.6337 126.543C82.7692 126.099 82.518 125.63 82.0726 125.496Z" fill="#6F7C91"/>
<path opacity="0.15" d="M6.84363 155.76L11.6394 208.682L21.0003 189.273C21.0003 189.273 25.4006 169.887 25.4006 168.375C25.4006 166.863 23.1129 158.129 23.1129 158.129L23.6526 155.315L6.84363 155.76Z" fill="black"/>
<path opacity="0.2" d="M124.734 53.7759L104.015 135.772L90.7135 161.791L80.6543 188.815L72.9005 200.932L73.3277 208.042H79.1647L79.6685 201.666L91.7016 198.177L98.3751 188.987L100.947 174.891L103.489 172.958L123.004 82.0159L129.175 57.8058L124.734 53.7759Z" fill="black"/>
<path d="M190.279 331.384H179.179V279.128H190.279V331.384Z" fill="#ACABAB"/>
<path d="M184.728 331.384H155.406V327.768L184.728 324.152V331.384Z" fill="#ACABAB"/>
<path d="M184.729 331.384H214.05V327.768L184.729 324.152V331.384Z" fill="#ACABAB"/>
<path d="M96.1612 331.384H85.0614V279.128H96.1612V331.384Z" fill="#ACABAB"/>
<path d="M90.6111 331.384H61.2904V327.768L90.6111 324.152V331.384Z" fill="#ACABAB"/>
<path d="M90.6097 331.384H119.93V327.768L90.6097 324.152V331.384Z" fill="#ACABAB"/>
<path d="M123.989 335.372H57.2323V331.384H123.989V335.372Z" fill="#58595B"/>
<path d="M218.109 335.372H151.354V331.384H218.109V335.372Z" fill="#58595B"/>
<path d="M204.024 276.169H71.3227C61.4752 276.169 53.4923 268.198 53.4923 258.365C53.4923 248.532 61.4752 240.561 71.3227 240.561H204.024C213.872 240.561 221.856 248.532 221.856 258.365C221.856 268.198 213.872 276.169 204.024 276.169Z" fill="#343434"/>
<path d="M195.247 275.409H201.517V276.929H195.247V275.409Z" fill="#343434"/>
<path d="M186.47 275.409H192.739V276.929H186.47V275.409Z" fill="#343434"/>
<path d="M177.693 275.409H183.963V276.929H177.693V275.409Z" fill="#343434"/>
<path d="M168.915 275.409H175.186V276.929H168.915V275.409Z" fill="#343434"/>
<path d="M160.138 275.409H166.409V276.929H160.138V275.409Z" fill="#343434"/>
<path d="M151.363 275.409H157.632V276.929H151.363V275.409Z" fill="#343434"/>
<path d="M142.585 275.409H148.855V276.929H142.585V275.409Z" fill="#343434"/>
<path d="M133.808 275.409H140.077V276.929H133.808V275.409Z" fill="#343434"/>
<path d="M125.032 275.409H131.3V276.929H125.032V275.409Z" fill="#343434"/>
<path d="M116.255 275.409H122.523V276.929H116.255V275.409Z" fill="#343434"/>
<path d="M107.477 275.409H113.745V276.929H107.477V275.409Z" fill="#343434"/>
<path d="M98.7001 275.409H104.97V276.929H98.7001V275.409Z" fill="#343434"/>
<path d="M89.9244 275.409H96.1939V276.929H89.9244V275.409Z" fill="#343434"/>
<path d="M81.147 275.409H87.4164V276.929H81.147V275.409Z" fill="#343434"/>
<path d="M72.3696 275.409H78.639V276.929H72.3696V275.409Z" fill="#343434"/>
<path d="M64.1581 273.819C64.1581 273.819 64.2404 273.858 64.3886 273.93C64.5334 274.005 64.7473 274.104 65.0147 274.192C65.5459 274.377 66.2359 274.674 66.9722 274.829C67.3372 274.915 67.6951 275.033 68.0426 275.087C68.3904 275.139 68.7157 275.189 68.9935 275.23C69.5478 275.333 69.9243 275.337 69.9243 275.337L69.7997 276.853C69.7997 276.853 69.3907 276.846 68.7865 276.737C68.4832 276.691 68.1282 276.637 67.7497 276.579C67.3719 276.518 66.9808 276.393 66.5834 276.298C65.782 276.127 65.0273 275.808 64.4492 275.604C64.1597 275.507 63.9268 275.4 63.7676 275.318C63.6056 275.241 63.5151 275.197 63.5151 275.197L64.1564 273.818" fill="#343434"/>
<path d="M57.6945 268.596C57.6945 268.596 57.7494 268.672 57.8494 268.803C57.9528 268.929 58.0744 269.133 58.2702 269.336C58.6645 269.737 59.1183 270.342 59.6991 270.82C59.9783 271.07 60.2489 271.33 60.517 271.557C60.7997 271.766 61.0621 271.962 61.2879 272.131C61.7294 272.479 62.0571 272.665 62.0571 272.665L61.2273 273.941C61.2273 273.941 60.873 273.738 60.3908 273.358C60.1461 273.175 59.8594 272.961 59.5527 272.733C59.2597 272.485 58.9646 272.205 58.6606 271.932C58.0312 271.408 57.5319 270.754 57.1055 270.316C56.8952 270.094 56.7607 269.874 56.6477 269.735C56.5408 269.593 56.4794 269.511 56.4794 269.511L57.6945 268.596" fill="#343434"/>
<path d="M54.4695 260.951C54.4695 260.951 54.5177 261.322 54.6176 261.875C54.7796 262.413 54.9004 263.158 55.1747 263.856C55.3023 264.207 55.4338 264.559 55.5534 264.888C55.6844 265.214 55.8432 265.503 55.9607 265.758C56.0814 266.01 56.1846 266.222 56.2536 266.37C56.3191 266.519 56.3781 266.596 56.3781 266.596L55.0451 267.331C55.0451 267.331 54.9863 267.247 54.9105 267.085C54.8312 266.925 54.72 266.694 54.589 266.418C54.4615 266.142 54.2894 265.826 54.1464 265.471C54.0154 265.113 53.8743 264.729 53.734 264.346C53.4376 263.585 53.2994 262.773 53.1281 262.187C53.0178 261.585 52.9666 261.181 52.9666 261.181L54.4712 260.951" fill="#343434"/>
<path d="M55.2438 252.688C55.2438 252.688 55.2097 252.775 55.1546 252.929C55.0994 253.083 55.0062 253.299 54.9476 253.575C54.8235 254.123 54.5771 254.835 54.4999 255.583C54.4447 255.954 54.3883 256.324 54.3366 256.671C54.3021 257.022 54.3033 257.349 54.2895 257.63C54.2895 257.911 54.2541 258.144 54.2541 258.308C54.2541 258.472 54.2541 258.565 54.2541 258.565L52.731 258.582C52.731 258.582 52.731 258.481 52.731 258.302C52.731 258.123 52.7662 257.87 52.7697 257.564C52.7697 257.259 52.8045 256.902 52.8252 256.521C52.8804 256.142 52.9382 255.739 53.0002 255.335C53.0899 254.521 53.3528 253.743 53.49 253.147C53.5555 252.848 53.6553 252.611 53.7139 252.444C53.7759 252.275 53.8098 252.18 53.8098 252.18L55.2455 252.686" fill="#343434"/>
<path d="M59.8456 245.777C59.8456 245.777 59.5584 246.018 59.1589 246.415C58.9693 246.623 58.7507 246.866 58.5143 247.126C58.3971 247.255 58.2731 247.39 58.149 247.526C58.0387 247.674 57.9279 247.824 57.8141 247.974C57.5901 248.274 57.366 248.575 57.156 248.857C56.9733 249.157 56.802 249.437 56.6562 249.677C56.5114 249.917 56.3882 250.117 56.3044 250.258C56.232 250.405 56.1933 250.49 56.1933 250.49L54.8435 249.786C54.8435 249.786 54.8889 249.695 54.9647 249.533C55.0578 249.38 55.1889 249.162 55.3467 248.901C55.5053 248.638 55.6928 248.334 55.8921 248.007C56.1196 247.7 56.3637 247.373 56.6074 247.045C56.7314 246.883 56.8516 246.719 56.9726 246.559C57.107 246.411 57.2409 246.264 57.3681 246.121C57.6266 245.839 57.8672 245.575 58.0733 245.349C58.5066 244.917 58.8189 244.652 58.8189 244.652L59.8439 245.777" fill="#343434"/>
<path d="M67.1672 241.853C67.1672 241.853 66.8033 241.945 66.2584 242.085C65.7369 242.292 65.0116 242.5 64.3363 242.826C63.9985 242.988 63.6608 243.151 63.3433 243.302C63.0262 243.455 62.7593 243.648 62.5152 243.787C62.274 243.932 62.0735 244.054 61.9329 244.139C61.7916 244.22 61.7158 244.279 61.7158 244.279L60.8574 243.023C60.8574 243.023 60.9363 242.96 61.0914 242.87C61.243 242.777 61.4626 242.645 61.7242 242.485C61.9896 242.334 62.2837 242.126 62.628 241.96C62.9734 241.794 63.3414 241.616 63.7102 241.439C64.4465 241.086 65.2355 240.855 65.8056 240.633C66.3995 240.48 66.7953 240.378 66.7953 240.378L67.1656 241.853" fill="#343434"/>
<path d="M75.712 241.321C75.712 241.321 74.1437 241.321 72.5764 241.321C72.1845 241.321 71.7923 241.321 71.4252 241.321C71.0722 241.338 70.7435 241.352 70.4608 241.366C70.1816 241.38 69.9449 241.39 69.7809 241.4C69.6154 241.404 69.5267 241.418 69.5267 241.418L69.3668 239.905C69.3668 239.905 69.467 239.891 69.6462 239.884C69.8255 239.877 70.081 239.864 70.3868 239.847C70.6901 239.833 71.046 239.819 71.4269 239.801C71.794 239.801 72.1862 239.801 72.5781 239.801C74.1454 239.801 75.712 239.801 75.712 239.801V241.321" fill="#343434"/>
<path d="M84.4881 241.321H78.2203V239.801H84.4881V241.321Z" fill="#343434"/>
<path d="M93.2654 241.321H86.9977V239.801H93.2654V241.321Z" fill="#343434"/>
<path d="M102.042 241.321H95.7742V239.801H102.042V241.321Z" fill="#343434"/>
<path d="M110.819 241.321H104.55V239.801H110.819V241.321Z" fill="#343434"/>
<path d="M119.596 241.321H113.326V239.801H119.596V241.321Z" fill="#343434"/>
<path d="M128.373 241.321H122.104V239.801H128.373V241.321Z" fill="#343434"/>
<path d="M137.151 241.321H130.881V239.801H137.151V241.321Z" fill="#343434"/>
<path d="M145.928 241.321H139.659V239.801H145.928V241.321Z" fill="#343434"/>
<path d="M154.705 241.321H148.434V239.801H154.705V241.321Z" fill="#343434"/>
<path d="M163.482 241.321H157.211V239.801H163.482V241.321Z" fill="#343434"/>
<path d="M172.258 241.321H165.988V239.801H172.258V241.321Z" fill="#343434"/>
<path d="M181.036 241.321H174.766V239.801H181.036V241.321Z" fill="#343434"/>
<path d="M189.812 241.321H183.543V239.801H189.812V241.321Z" fill="#343434"/>
<path d="M198.589 241.321H192.32V239.801H198.589V241.321Z" fill="#343434"/>
<path d="M207.205 241.628C207.205 241.628 206.835 241.572 206.279 241.487C205.727 241.367 204.97 241.386 204.222 241.332C202.66 241.328 201.097 241.321 201.097 241.321V239.801C201.097 239.801 202.668 239.805 204.241 239.811C205.054 239.866 205.876 239.853 206.478 239.98C207.083 240.072 207.488 240.134 207.488 240.134L207.205 241.628" fill="#343434"/>
<path d="M214.75 245.115C214.75 245.115 214.452 244.892 214.002 244.555C213.569 244.191 212.898 243.843 212.265 243.442C211.596 243.109 210.929 242.761 210.403 242.564C209.875 242.371 209.523 242.242 209.523 242.242L210.013 240.802C210.013 240.802 210.396 240.943 210.972 241.153C211.545 241.369 212.273 241.746 213.002 242.111C213.694 242.543 214.419 242.93 214.892 243.323C215.382 243.69 215.708 243.934 215.708 243.934L214.75 245.115" fill="#343434"/>
<path d="M220.163 251.153C220.163 251.153 220.001 250.815 219.757 250.309C219.536 249.789 219.143 249.152 218.751 248.514C218.348 247.882 217.873 247.299 217.532 246.853C217.154 246.437 216.901 246.16 216.901 246.16L218.015 245.123C218.015 245.123 218.29 245.425 218.702 245.878C219.073 246.363 219.589 246.999 220.026 247.686C220.456 248.381 220.887 249.077 221.127 249.641C221.393 250.194 221.566 250.561 221.566 250.561L220.163 251.153Z" fill="#343434"/>
<path d="M221.013 259.962C221.013 259.962 221.048 259.586 221.062 259.026C221.12 258.465 221.058 257.715 221.023 256.968C220.982 256.22 220.816 255.485 220.747 254.928C220.606 254.384 220.513 254.021 220.513 254.021L221.986 253.634C221.986 253.634 222.085 254.029 222.236 254.622C222.316 255.229 222.493 256.03 222.541 256.844C222.582 257.658 222.644 258.473 222.581 259.084C222.547 259.695 222.529 260.101 222.529 260.101L221.015 259.961" fill="#343434"/>
<path d="M218.242 267.789C218.242 267.789 218.435 267.47 218.728 266.989C219.049 266.524 219.34 265.831 219.674 265.16C219.953 264.468 220.219 263.764 220.379 263.227C220.521 262.684 220.613 262.321 220.613 262.321L222.094 262.673C222.094 262.673 221.99 263.068 221.839 263.661C221.663 264.246 221.378 265.013 221.071 265.767C220.71 266.5 220.388 267.252 220.041 267.76C219.724 268.283 219.509 268.632 219.509 268.632L218.242 267.789" fill="#343434"/>
<path d="M212.093 273.385C212.093 273.385 212.179 273.346 212.316 273.258C212.458 273.173 212.657 273.05 212.897 272.904C213.131 272.753 213.429 272.603 213.71 272.393C213.993 272.182 214.292 271.957 214.592 271.734C215.19 271.281 215.719 270.744 216.137 270.37C216.515 269.954 216.768 269.677 216.768 269.677L217.904 270.687C217.904 270.687 217.629 270.99 217.218 271.441C216.764 271.851 216.187 272.433 215.536 272.926C215.209 273.17 214.881 273.414 214.573 273.644C214.267 273.872 213.948 274.037 213.69 274.202C213.428 274.361 213.209 274.493 213.057 274.586C212.905 274.682 212.813 274.724 212.813 274.724L212.093 273.385" fill="#343434"/>
<path d="M204.024 275.409C204.024 275.409 204.398 275.388 204.961 275.361C205.24 275.34 205.571 275.347 205.919 275.298C206.267 275.245 206.639 275.189 207.009 275.131C207.755 275.037 208.466 274.782 209.016 274.665C209.55 274.488 209.898 274.351 209.898 274.351L210.423 275.778C210.423 275.778 210.041 275.926 209.46 276.118C208.863 276.251 208.085 276.523 207.274 276.63C206.869 276.69 206.465 276.752 206.087 276.809C205.708 276.862 205.349 276.857 205.044 276.88C204.432 276.911 204.024 276.93 204.024 276.93V275.41" fill="#343434"/>
<path d="M203.33 275.177H72.0091C62.71 275.177 55.1718 267.651 55.1718 258.365C55.1718 249.08 62.71 241.553 72.0091 241.553H203.33C212.629 241.553 220.168 249.08 220.168 258.365C220.168 267.651 212.629 275.177 203.33 275.177Z" fill="#808080"/>
<path d="M203.163 265.12C199.362 263.888 197.281 259.813 198.516 256.018C199.75 252.224 203.833 250.148 207.633 251.38C211.433 252.612 213.513 256.688 212.278 260.482C211.044 264.277 206.963 266.354 203.163 265.12Z" fill="#999999"/>
<path d="M67.7104 265.12C63.9098 263.888 61.8287 259.813 63.0634 256.018C64.2974 252.224 68.3803 250.148 72.1806 251.38C75.9812 252.612 78.0602 256.688 76.8258 260.482C75.5912 264.277 71.5106 266.354 67.7104 265.12Z" fill="#B3B3B3"/>
<path d="M76.4564 275.177H198.886V264.952H76.4564V275.177Z" fill="#666666"/>
<path d="M196.285 285.834H79.054V267.332H196.285V285.834Z" fill="#ACABAB"/>
<path d="M96.164 285.834H85.0642V291.674H96.164V285.834Z" fill="#919191"/>
<path d="M190.282 285.834H179.183V291.674H190.282V285.834Z" fill="#919191"/>
<path d="M96.1647 324.836L119.936 327.768V328.438H96.1647V324.836Z" fill="#919191"/>
<path d="M85.064 324.836L61.2924 327.768V328.438H85.064V324.836Z" fill="#919191"/>
<path d="M190.281 324.836L214.053 327.768V328.438H190.281V324.836Z" fill="#919191"/>
<path d="M179.181 324.836L155.41 327.768V328.438H179.181V324.836Z" fill="#919191"/>
<path d="M96.164 267.374H85.0642V246.261H96.164V267.374Z" fill="#ACABAB"/>
<path d="M190.282 267.374H179.183V246.261H190.282V267.374Z" fill="#ACABAB"/>
<path d="M186.078 267.374H183.388V250.485H186.078V267.374Z" fill="#606163"/>
<path d="M186.078 306.946H183.388V285.834H186.078V306.946Z" fill="#606163"/>
<path d="M91.9593 267.374H89.2698V250.485H91.9593V267.374Z" fill="#606163"/>
<path d="M91.9593 306.946H89.2698V285.834H91.9593V306.946Z" fill="#606163"/>
<path d="M190.131 276.583C190.131 279.56 187.714 281.974 184.732 281.974C181.75 281.974 179.333 279.56 179.333 276.583C179.333 273.606 181.75 271.192 184.732 271.192C187.714 271.192 190.131 273.606 190.131 276.583Z" fill="#666666"/>
<path d="M188.901 276.583C188.901 278.882 187.035 280.745 184.732 280.745C182.431 280.745 180.563 278.882 180.563 276.583C180.563 274.284 182.431 272.421 184.732 272.421C187.035 272.421 188.901 274.284 188.901 276.583Z" fill="#B3B3B3"/>
<path d="M183.252 279.145L181.769 276.583L183.252 274.02H186.216L187.697 276.583L186.216 279.145H183.252Z" fill="#333333"/>
<path d="M96.0102 276.583C96.0102 279.56 93.5929 281.974 90.6109 281.974C87.6294 281.974 85.2117 279.56 85.2117 276.583C85.2117 273.606 87.6294 271.192 90.6109 271.192C93.5929 271.192 96.0102 273.606 96.0102 276.583Z" fill="#4D4D4D"/>
<path d="M94.7794 276.583C94.7794 278.882 92.9126 280.745 90.6104 280.745C88.3085 280.745 86.4431 278.882 86.4431 276.583C86.4431 274.284 88.3085 272.421 90.6104 272.421C92.9126 272.421 94.7794 274.284 94.7794 276.583Z" fill="#B3B3B3"/>
<path d="M89.1298 279.145L87.6487 276.583L89.1298 274.02H92.0937L93.5748 276.583L92.0937 279.145H89.1298Z" fill="#333333"/>
<g opacity="0.7">
<path opacity="0.7" d="M285.162 297.554H167.207C166.196 297.558 165.228 297.962 164.516 298.678C163.803 299.395 163.405 300.364 163.408 301.373V382.433C163.405 383.442 163.803 384.411 164.516 385.127C165.228 385.844 166.196 386.248 167.207 386.252H207.775V400.244H205.926C205.672 400.245 205.421 400.296 205.187 400.393C204.952 400.491 204.74 400.634 204.561 400.814C204.382 400.994 204.24 401.207 204.144 401.442C204.048 401.676 203.999 401.928 204 402.181V404.988H207.775V406.649H244.593V404.988H248.369V402.181C248.37 401.928 248.321 401.676 248.225 401.442C248.129 401.207 247.987 400.994 247.808 400.814C247.629 400.634 247.417 400.491 247.182 400.393C246.948 400.296 246.697 400.245 246.443 400.244H244.703V400.123H244.584V386.252H285.162C286.173 386.248 287.141 385.844 287.853 385.127C288.566 384.411 288.964 383.442 288.961 382.433V301.373C288.964 300.364 288.566 299.395 287.853 298.678C287.141 297.962 286.173 297.558 285.162 297.554Z" fill="url(#paint0_linear)"/>
</g>
<path d="M244.471 383.842H208.133V405.24H244.471V383.842Z" fill="#BDBDBD"/>
<g opacity="0.1">
<path opacity="0.1" d="M208.848 385.935H243.828C244.25 384.105 244.588 382.912 244.588 382.912H208.017C208.017 382.912 208.392 384.1 208.848 385.935Z" fill="black"/>
</g>
<path d="M168.09 298.252H284.513C285.005 298.252 285.494 298.349 285.949 298.537C286.404 298.725 286.816 299.001 287.164 299.349C287.512 299.696 287.79 300.109 287.978 300.564C288.167 301.018 288.263 301.505 288.263 301.997V373.608H164.34V301.997C164.34 301.505 164.438 301.018 164.627 300.564C164.815 300.109 165.091 299.696 165.439 299.349C165.787 299.001 166.201 298.725 166.656 298.537C167.111 298.349 167.598 298.252 168.09 298.252V298.252Z" fill="#535461"/>
<path d="M284.512 385.238H168.09C167.095 385.238 166.142 384.843 165.439 384.141C164.735 383.438 164.341 382.486 164.341 381.493V373.608H288.263V381.493C288.263 381.985 288.166 382.472 287.978 382.926C287.789 383.38 287.512 383.793 287.163 384.141C286.815 384.489 286.403 384.764 285.948 384.952C285.493 385.141 285.005 385.238 284.512 385.238V385.238Z" fill="#BDBDBD"/>
<path d="M226.303 381.516C227.461 381.516 228.399 380.579 228.399 379.423C228.399 378.267 227.461 377.33 226.303 377.33C225.145 377.33 224.207 378.267 224.207 379.423C224.207 380.579 225.145 381.516 226.303 381.516Z" fill="#535461"/>
<path d="M206.308 398.96H246.294C246.798 398.96 247.283 399.16 247.64 399.517C247.997 399.873 248.197 400.356 248.197 400.86V403.612H204.405V400.86C204.405 400.356 204.605 399.873 204.962 399.517C205.318 399.16 205.803 398.96 206.308 398.96Z" fill="#BDBDBD"/>
<g opacity="0.5">
<path opacity="0.5" d="M270.207 314.095H189.005C188.377 314.095 187.867 314.564 187.867 315.142V356.718C187.867 357.296 188.377 357.765 189.005 357.765H270.207C270.836 357.765 271.346 357.296 271.346 356.718V315.142C271.346 314.564 270.836 314.095 270.207 314.095Z" fill="url(#paint1_linear)"/>
</g>
<path d="M228.742 314.417H189.421C189.108 314.417 188.854 314.885 188.854 315.463V356.156C188.854 356.734 189.108 357.202 189.421 357.202H228.742C229.054 357.202 229.307 356.734 229.307 356.156V315.463C229.307 314.885 229.054 314.417 228.742 314.417Z" fill="#373E48"/>
<path d="M221.598 333.137H200.133C199.906 333.137 199.72 333.321 199.72 333.549C199.72 333.776 199.906 333.96 200.133 333.96H221.598C221.825 333.96 222.011 333.776 222.011 333.549C222.011 333.321 221.825 333.137 221.598 333.137Z" fill="#AA87DE"/>
<path d="M217.836 335.612H200.133C199.906 335.612 199.72 335.796 199.72 336.023C199.72 336.251 199.906 336.435 200.133 336.435H217.836C218.063 336.435 218.249 336.251 218.249 336.023C218.249 335.796 218.063 335.612 217.836 335.612Z" fill="#80FFE6"/>
<path d="M221.197 327.271H199.733C199.505 327.271 199.32 327.455 199.32 327.683C199.32 327.91 199.505 328.094 199.733 328.094H221.197C221.425 328.094 221.61 327.91 221.61 327.683C221.61 327.455 221.425 327.271 221.197 327.271Z" fill="#ABC837"/>
<path d="M221.197 329.743H199.733C199.505 329.743 199.32 329.928 199.32 330.155C199.32 330.382 199.505 330.567 199.733 330.567H221.197C221.425 330.567 221.61 330.382 221.61 330.155C221.61 329.928 221.425 329.743 221.197 329.743Z" fill="#55FFDD"/>
<path d="M221.197 338.812H199.733C199.505 338.812 199.32 338.996 199.32 339.223C199.32 339.451 199.505 339.635 199.733 339.635H221.197C221.425 339.635 221.61 339.451 221.61 339.223C221.61 338.996 221.425 338.812 221.197 338.812Z" fill="#D35FBC"/>
<path d="M221.388 341.284H199.69C199.485 341.284 199.32 341.449 199.32 341.654V341.737C199.32 341.942 199.485 342.107 199.69 342.107H221.388C221.592 342.107 221.759 341.942 221.759 341.737V341.654C221.759 341.449 221.592 341.284 221.388 341.284Z" fill="#E0E0E0"/>
<g opacity="0.1">
<path opacity="0.1" d="M244.587 398.844H208.248V399.541H244.587V398.844Z" fill="black"/>
</g>
<path d="M291.001 403.519H164.584V411.178H291.001V403.519Z" fill="#E0E0E0"/>
<path d="M288.836 411.488H166.593V414H288.836V411.488Z" fill="#E0E0E0"/>
<path opacity="0.1" d="M289.624 411.177H165.604V412.221H289.624V411.177Z" fill="black"/>
<path d="M221.46 322.828H199.995C199.767 322.828 199.583 323.012 199.583 323.239C199.583 323.467 199.767 323.651 199.995 323.651H221.46C221.688 323.651 221.872 323.467 221.872 323.239C221.872 323.012 221.688 322.828 221.46 322.828Z" fill="#C83737"/>
<path d="M217.698 325.302H199.995C199.767 325.302 199.583 325.487 199.583 325.714C199.583 325.941 199.767 326.126 199.995 326.126H217.698C217.926 326.126 218.11 325.941 218.11 325.714C218.11 325.487 217.926 325.302 217.698 325.302Z" fill="#8080FF"/>
<path d="M221.267 343.949H199.802C199.574 343.949 199.39 344.134 199.39 344.361C199.39 344.588 199.574 344.773 199.802 344.773H221.267C221.495 344.773 221.68 344.588 221.68 344.361C221.68 344.134 221.495 343.949 221.267 343.949Z" fill="#5FD3BC"/>
<path d="M217.505 346.424H199.802C199.574 346.424 199.39 346.608 199.39 346.835C199.39 347.063 199.574 347.247 199.802 347.247H217.505C217.733 347.247 217.918 347.063 217.918 346.835C217.918 346.608 217.733 346.424 217.505 346.424Z" fill="#8080FF"/>
<path d="M269.233 314.441H231.03C230.726 314.441 230.48 314.907 230.48 315.482V355.954C230.48 356.529 230.726 356.995 231.03 356.995H269.233C269.537 356.995 269.783 356.529 269.783 355.954V315.482C269.783 314.907 269.537 314.441 269.233 314.441Z" fill="#373E48"/>
<path d="M260.687 331.721H239.222C238.994 331.721 238.809 331.906 238.809 332.133C238.809 332.36 238.994 332.545 239.222 332.545H260.687C260.915 332.545 261.099 332.36 261.099 332.133C261.099 331.906 260.915 331.721 260.687 331.721Z" fill="#AA87DE"/>
<path d="M256.925 334.196H239.222C238.994 334.196 238.809 334.38 238.809 334.608C238.809 334.835 238.994 335.019 239.222 335.019H256.925C257.153 335.019 257.337 334.835 257.337 334.608C257.337 334.38 257.153 334.196 256.925 334.196Z" fill="#80FFE6"/>
<path d="M260.286 325.855H238.821C238.594 325.855 238.409 326.04 238.409 326.267C238.409 326.494 238.594 326.679 238.821 326.679H260.286C260.514 326.679 260.699 326.494 260.699 326.267C260.699 326.04 260.514 325.855 260.286 325.855Z" fill="#ABC837"/>
<path d="M260.286 328.328H238.821C238.594 328.328 238.409 328.512 238.409 328.74C238.409 328.967 238.594 329.151 238.821 329.151H260.286C260.514 329.151 260.699 328.967 260.699 328.74C260.699 328.512 260.514 328.328 260.286 328.328Z" fill="#55FFDD"/>
<path d="M260.286 337.396H238.821C238.594 337.396 238.409 337.58 238.409 337.808C238.409 338.035 238.594 338.219 238.821 338.219H260.286C260.514 338.219 260.699 338.035 260.699 337.808C260.699 337.58 260.514 337.396 260.286 337.396Z" fill="#D35FBC"/>
<path d="M260.477 339.868H238.779C238.575 339.868 238.409 340.034 238.409 340.238V340.322C238.409 340.526 238.575 340.692 238.779 340.692H260.477C260.682 340.692 260.848 340.526 260.848 340.322V340.238C260.848 340.034 260.682 339.868 260.477 339.868Z" fill="#E0E0E0"/>
<path d="M260.55 321.412H239.084C238.857 321.412 238.672 321.596 238.672 321.824C238.672 322.051 238.857 322.235 239.084 322.235H260.55C260.777 322.235 260.962 322.051 260.962 321.824C260.962 321.596 260.777 321.412 260.55 321.412Z" fill="#C83737"/>
<path d="M256.788 323.887H239.084C238.857 323.887 238.672 324.071 238.672 324.298C238.672 324.526 238.857 324.71 239.084 324.71H256.788C257.015 324.71 257.2 324.526 257.2 324.298C257.2 324.071 257.015 323.887 256.788 323.887Z" fill="#8080FF"/>
<path d="M260.357 342.533H238.892C238.664 342.533 238.479 342.718 238.479 342.945C238.479 343.172 238.664 343.357 238.892 343.357H260.357C260.585 343.357 260.769 343.172 260.769 342.945C260.769 342.718 260.585 342.533 260.357 342.533Z" fill="#5FD3BC"/>
<path d="M256.595 345.008H238.892C238.664 345.008 238.479 345.193 238.479 345.42C238.479 345.647 238.664 345.832 238.892 345.832H256.595C256.823 345.832 257.007 345.647 257.007 345.42C257.007 345.193 256.823 345.008 256.595 345.008Z" fill="#8080FF"/>
<path opacity="0.15" d="M282.932 305.004H172.772C171.92 305.004 171.228 305.675 171.228 306.502V365.992C171.228 366.819 171.92 367.489 172.772 367.489H282.932C283.785 367.489 284.476 366.819 284.476 365.992V306.502C284.476 305.675 283.785 305.004 282.932 305.004Z" fill="black"/>
<path d="M196.88 122.97C199.908 122.97 202.363 122.824 202.363 122.644C202.363 122.464 199.908 122.319 196.88 122.319C193.852 122.319 191.397 122.464 191.397 122.644C191.397 122.824 193.852 122.97 196.88 122.97Z" fill="#6F8A91"/>
</g>
<defs>
<linearGradient id="paint0_linear" x1="226.184" y1="406.647" x2="226.184" y2="297.554" gradientUnits="userSpaceOnUse">
<stop stop-color="#808080" stop-opacity="0.25"/>
<stop offset="0.54" stop-color="#808080" stop-opacity="0.12"/>
<stop offset="1" stop-color="#808080" stop-opacity="0.1"/>
</linearGradient>
<linearGradient id="paint1_linear" x1="44221.5" y1="11619.3" x2="44221.5" y2="3419.87" gradientUnits="userSpaceOnUse">
<stop stop-color="#808080" stop-opacity="0.25"/>
<stop offset="0.54" stop-color="#808080" stop-opacity="0.12"/>
<stop offset="1" stop-color="#808080" stop-opacity="0.1"/>
</linearGradient>
<clipPath id="clip0">
<rect width="291" height="414" fill="white"/>
</clipPath>
</defs>
</svg>
