<svg width="376" height="536" viewBox="0 0 376 536" fill="none" xmlns="http://www.w3.org/2000/svg">
<g clip-path="url(#clip0)">
<path d="M48.9827 222.475H165.986C172.663 222.475 178.075 227.133 178.075 232.878V313.02C178.075 318.765 172.663 323.422 165.986 323.422H48.9827C42.3054 323.422 36.8934 318.765 36.8934 313.02V232.878C36.8934 227.133 42.3054 222.475 48.9827 222.475Z" fill="#B3B3B3"/>
<path d="M156.116 251.285C150.789 251.285 146.471 246.934 146.471 241.567C146.471 236.199 150.789 231.848 156.116 231.848C161.443 231.848 165.761 236.199 165.761 241.567C165.761 246.934 161.443 251.285 156.116 251.285Z" fill="#C83737"/>
<path d="M137.535 246.27C134.868 246.27 132.706 244.127 132.706 241.484C132.706 238.841 134.868 236.698 137.535 236.698C140.202 236.698 142.364 238.841 142.364 241.484C142.364 244.127 140.202 246.27 137.535 246.27Z" fill="#37C871"/>
<path d="M57.3143 235.614H125.731C126.492 235.614 127.111 236.145 127.111 236.8V243.493C127.111 244.148 126.492 244.679 125.731 244.679H57.3143C56.5526 244.679 55.9367 244.148 55.9367 243.493V236.8C55.9367 236.145 56.5526 235.614 57.3143 235.614Z" fill="#999999"/>
<path d="M64.9004 258.741H155.369C161.169 258.741 165.871 262.787 165.871 267.777V303.398C165.871 308.389 161.169 312.435 155.369 312.435H64.9004C59.1001 312.435 54.398 308.389 54.398 303.398V267.777C54.398 262.787 59.1001 258.741 64.9004 258.741Z" fill="#999999"/>
<path d="M28.2471 276.235L26.7951 285.84C26.7951 285.84 18.442 304.281 30.0632 304.281C41.6852 304.281 38.4156 296.982 38.4156 296.982L37.3262 276.235H28.2471Z" fill="#1A1A1A"/>
<path d="M77.6373 276.235L79.0909 285.84C79.0909 285.84 87.444 304.281 75.8228 304.281C64.2011 304.281 67.4687 296.982 67.4687 296.982L68.5581 276.235H77.6373Z" fill="#1A1A1A"/>
<path d="M20.258 165.587L23.1635 238.2L25.5417 275.457L25.8317 278.681C26.3579 284.521 39.8174 281.045 39.8798 277.263C39.6199 272.742 39.5057 269.704 39.5057 269.704L38.0538 232.821L48.9491 187.486L62.75 236.279L65.6555 271.24C65.6555 271.24 64.9238 282.25 68.9187 283.403C72.9136 284.556 79.4112 284.634 79.0477 281.176C78.6845 277.718 78.0028 272.009 78.0028 272.009L79.819 170.582L74.3705 161.746L20.258 165.587Z" fill="#002255"/>
<path d="M40.5935 56.861C40.5935 56.861 36.963 70.692 36.236 70.692C35.51 70.692 43.1365 81.4494 43.1365 81.4494L54.3944 87.9807L58.3893 70.3077C58.3893 70.3077 54.7574 60.703 55.4838 55.7085L40.5935 56.861Z" fill="#DEAA87"/>
<path d="M48.2209 77.6075L37.4838 67.7439L31.1519 71.0762L17.351 80.2969C17.351 80.2969 20.9827 163.283 19.1672 166.356C19.1672 166.356 23.1616 175.961 46.7673 170.198C70.3734 164.435 76.5479 163.667 76.5479 163.667L71.4636 112.953L77.6372 81.0652L56.8996 65.7241L50.3997 77.6075H48.2209Z" fill="#002255"/>
<path d="M6.73957 110.874C6.73957 110.874 2.82427 127.937 6.81785 129.857C10.8131 131.778 14.0809 131.01 14.0809 131.01L20.2553 115.258L6.73957 110.874Z" fill="#162D50"/>
<path d="M83.8112 106.806L87.081 122.942V155.599C87.081 155.599 82.3587 176.345 78.7269 170.966C75.0952 165.588 75.1704 163.884 75.1704 163.884L79.8163 156.367L77.6376 125.632L71.8479 110.97L83.8112 106.806Z" fill="#DEAA87"/>
<path d="M20.2561 81.065L17.3506 80.2966C17.3506 80.2966 11.9035 87.5963 10.0876 96.0485C8.27171 104.501 5.72901 112.953 7.18205 112.953C8.63441 112.953 21.7081 118.332 21.7081 118.332L20.2561 81.065Z" fill="#002255"/>
<path d="M69.2853 80.2966L77.6377 81.065C77.6377 81.065 87.0809 108.343 85.9917 109.111C84.9018 109.88 71.8279 114.49 70.0121 113.337C68.1962 112.185 69.2853 80.2966 69.2853 80.2966Z" fill="#162D50"/>
<path d="M36.2891 68.2788L45.4194 78.8625L40.9185 169.322C18.0601 174.654 18.9671 165.627 18.9671 165.627C20.7833 162.553 17.1509 79.5674 17.1509 79.5674L30.9527 70.3469L36.2891 68.2788Z" fill="#0044AA"/>
<path d="M58.1272 66.637L77.7029 80.6834L71.5292 112.572L76.6135 163.285C76.6135 163.285 74.9181 162.21 56.0556 166.707L51.8134 79.1384L58.1272 66.637Z" fill="#0044AA"/>
<path opacity="0.999" d="M29.9686 71.05L25.6391 73.6498L25.4463 171.239H30.7893L29.9686 71.05Z" fill="#999999"/>
<path d="M57.4581 108.584C59.9926 108.602 62.1806 111.793 62.3639 115.739L63.0064 129.575C63.1897 133.521 61.2967 136.683 58.7622 136.665L33.4143 136.487C30.8797 136.469 28.692 133.278 28.5088 129.332L28.0063 118.511L25.9343 118.497C25.8415 119.117 25.7042 119.622 25.5338 119.97C25.3634 120.318 25.1649 120.499 24.9549 120.498C24.7821 120.496 24.6054 120.372 24.4346 120.131C24.2639 119.89 24.1026 119.538 23.9599 119.094C23.8171 118.65 23.6958 118.123 23.6028 117.544C23.5099 116.965 23.447 116.344 23.418 115.718C23.3592 114.453 23.4414 113.24 23.6466 112.348C23.8517 111.455 24.163 110.954 24.5118 110.957C24.7535 110.959 25.0017 111.202 25.2292 111.66C25.4567 112.118 25.6547 112.773 25.8015 113.553L27.9464 113.568C28.345 110.569 30.0057 108.391 32.1102 108.406L57.4581 108.584Z" fill="#4D4D4D"/>
<path d="M23.4876 122.027C22.2138 121.94 21.2595 119.329 21.3562 116.195C21.4528 113.061 22.5638 110.591 23.8376 110.679C25.1114 110.766 26.0657 113.377 25.969 116.511C25.8724 119.645 24.7614 122.115 23.4876 122.027Z" fill="#C83737"/>
<path d="M10.0886 118.716C10.0886 118.716 5.73016 127.168 6.81969 129.858C7.90921 132.547 16.9881 134.084 18.0776 134.084C19.1675 134.084 32.2419 131.01 32.2419 131.01C32.2419 131.01 52.2162 121.021 46.4054 116.027C40.5942 111.032 29.7006 122.942 29.7006 122.942H20.9831L16.2623 119.485L10.0886 118.716Z" fill="#DEAA87"/>
<path d="M50.4491 19.0963C56.3487 19.0966 61.0318 26.6162 61.0989 35.9352V38.0917C61.1158 38.0902 61.1315 38.0894 61.1484 38.0894C61.5112 38.0895 61.8592 38.4401 62.1158 39.0641C62.3723 39.6881 62.5163 40.5345 62.5163 41.4169C62.5163 42.2994 62.3723 43.1457 62.1158 43.7697C61.8592 44.3937 61.5112 44.7444 61.1484 44.7444C61.199 54.0467 55.9062 61.6587 50.014 61.6587H45.7736C40.0836 61.6587 34.7697 52.8441 34.3953 43.8568C34.3316 43.8791 34.2669 43.8903 34.2025 43.8905C33.8397 43.8905 33.4916 43.5399 33.2351 42.9159C32.9786 42.2919 32.8346 41.4456 32.8346 40.5631C32.8346 39.6807 32.9786 38.8343 33.2351 38.2103C33.4916 37.5863 33.8397 37.2357 34.2025 37.2356C34.2589 37.2351 34.3146 37.243 34.3706 37.2593V35.9345C34.3706 26.615 39.1202 19.0957 45.0204 19.0957H50.4376L50.4491 19.0963Z" fill="#DEAA87"/>
<path opacity="0.6" d="M34.054 40.7915C33.8908 40.7759 33.8029 40.224 33.8575 39.5589C33.9121 38.8937 34.0884 38.3671 34.2516 38.3827C34.4148 38.3983 34.5027 38.9501 34.4481 39.6153C34.3936 40.2804 34.2172 40.807 34.054 40.7915Z" fill="black"/>
<path opacity="0.6" d="M61.48 41.9001C61.6432 41.8845 61.7311 41.3327 61.6765 40.6675C61.622 40.0023 61.4456 39.4758 61.2824 39.4913C61.1192 39.5069 61.0313 40.0587 61.0859 40.7239C61.1405 41.389 61.3168 41.9156 61.48 41.9001Z" fill="black"/>
<path d="M47.6087 17.6123C55.0365 17.6123 60.6477 24.5262 61.0865 33.0848L61.2711 36.7648C61.1766 39.1813 61.2711 39.1538 61.2711 41.2111C61.2711 43.2686 61.2722 43.3134 61.225 45.1368L60.8706 48.1219C60.6614 49.8856 59.8511 52.953 58.7858 54.9685C57.8843 56.6737 56.6482 58.2061 54.9524 59.7291C52.608 61.6014 51.932 61.9888 49.8863 61.9439L45.6771 61.851C44.2373 61.7673 41.4567 60.4584 39.843 58.4617C38.1442 56.3644 38.7095 57.0892 37.7648 55.6266C36.4062 53.5234 34.1802 49.3977 34.1802 45.7583V45.5161C34.2275 43.0756 34.2264 43.079 34.2264 41.0924C34.2264 39.106 34.2275 39.1055 34.1802 37.3694V33.0846C34.1802 24.5128 40.1594 17.6121 47.5872 17.6121L47.6087 17.6123ZM49.7792 26.9733L45.4563 27.2188L39.9963 27.1164L38.1521 28.7148L37.8719 31.269L37.239 33.8413L35.4624 35.7129L35.0339 38.3781L35.0949 46.651L35.5613 49.4752L36.9984 52.4864L39.3914 56.3854L41.7053 58.9669L44.0983 60.4217L45.7727 60.5527C46.3225 60.3355 47.5159 57.4979 47.5493 56.2499L48.0998 56.2364C48.309 56.968 48.3284 59.8167 49.2353 60.5504L51.7272 60.466L53.5895 59.0283L56.7768 56.3658L57.9585 54.4694L59.099 51.8759L59.8867 49.3427L60.4026 46.3476L60.3218 38.0836L59.2325 34.7047L58.0376 32.9851C57.8925 32.0151 57.9409 31.3658 57.9173 30.6427C57.9173 30.1894 57.8697 29.186 57.7212 28.7299C57.5828 28.3441 57.2218 28.312 57.2218 28.312C56.8121 28.1354 56.9192 27.9229 56.4851 27.7636C56.2387 27.6738 55.9938 27.5944 55.7484 27.5245C53.9768 27.0213 52.1577 27.0058 49.7775 26.9749L49.7792 26.9733Z" fill="#333333"/>
<path d="M52.0631 42.7594C51.5165 42.7594 51.0743 42.2627 51.0743 41.6499C51.0743 41.0371 51.5165 40.5403 52.0631 40.5403C52.6097 40.5403 53.0536 41.0371 53.0536 41.6499C53.0536 42.2627 52.6097 42.7594 52.0631 42.7594Z" fill="black"/>
<path d="M44.1085 42.6313C43.5619 42.6313 43.118 42.1345 43.118 41.5217C43.118 40.9089 43.5619 40.4121 44.1085 40.4121C44.6551 40.4121 45.0974 40.9089 45.0974 41.5217C45.0974 42.1345 44.6551 42.6313 44.1085 42.6313Z" fill="black"/>
<path d="M46.6168 49.2874H49.7794C49.8559 49.2874 49.9178 49.3494 49.9178 49.426V49.6418C49.9178 49.7183 49.8559 49.7803 49.7794 49.7803H46.6168C46.5403 49.7803 46.4783 49.7183 46.4783 49.6418V49.426C46.4783 49.3494 46.5403 49.2874 46.6168 49.2874Z" fill="black"/>
<path d="M49.4022 37.6467H54.0843C54.2462 37.6467 54.3777 37.778 54.3777 37.94V38.3966C54.3777 38.5586 54.2462 38.6899 54.0843 38.6899H49.4022C49.2403 38.6899 49.1088 38.5586 49.1088 38.3966V37.94C49.1088 37.778 49.2403 37.6467 49.4022 37.6467Z" fill="black"/>
<path d="M41.8364 37.5198H46.502C46.6684 37.5198 46.8036 37.6547 46.8036 37.8212V38.2905C46.8036 38.457 46.6684 38.5919 46.502 38.5919H41.8364C41.67 38.5919 41.5348 38.457 41.5348 38.2905V37.8212C41.5348 37.6547 41.67 37.5198 41.8364 37.5198Z" fill="black"/>
<path d="M52.899 52.063C52.8973 53.1057 52.3994 54.1052 51.5148 54.842C50.6302 55.5788 49.4311 55.9927 48.181 55.9927C46.9309 55.9927 45.7318 55.5788 44.8472 54.842C43.9626 54.1052 43.4648 53.1057 43.463 52.063H52.899Z" fill="#F2F2F2"/>
<path d="M52.5753 52.167C52.5736 53.0895 52.1044 53.9738 51.2708 54.6256C50.4371 55.2774 49.3071 55.6436 48.129 55.6436C46.9509 55.6436 45.8209 55.2774 44.9873 54.6256C44.1536 53.9738 43.6844 53.0895 43.6827 52.167H52.5753Z" fill="white"/>
<path d="M52.4956 51.5573C52.4484 51.5337 52.4966 51.4354 52.4973 51.4209C52.7031 51.1554 53.1148 51.2774 53.4169 51.5361C53.7571 51.8289 53.6897 52.2635 53.5108 52.6259C53.5108 52.6529 53.2752 52.9898 53.2043 52.8403C53.157 52.7714 53.3492 52.2583 53.3526 52.2173C53.3999 51.8786 53.4036 52.0231 53.2653 51.7159C53.0189 51.538 52.8783 51.515 52.6093 51.5572L52.4956 51.5573Z" fill="#808080"/>
<path d="M43.759 51.651C43.8063 51.6274 43.8063 51.5331 43.759 51.5186C43.5532 51.2532 43.1613 51.3356 42.8592 51.5936C42.5193 51.8861 42.5152 52.2553 42.6911 52.6177C42.6911 52.6447 42.89 52.7589 42.9136 52.7416C42.971 52.695 42.866 52.4144 42.8559 52.3741C42.7918 52.0297 42.7922 52.0334 43.0487 51.8131C43.2816 51.6146 43.3549 51.6201 43.6239 51.6623L43.759 51.651Z" fill="#808080"/>
<path d="M51.0811 16.1445V16.1448C56.7724 16.1451 61.4186 22.5671 62.4396 31.0705H33.816C34.7968 22.5664 39.5035 16.1445 45.1959 16.1445H51.0811Z" fill="#0044AA"/>
<path d="M46.8132 14.0349H49.2359C49.8524 14.0349 50.3516 14.535 50.3516 15.1519V16.6544C50.3516 17.2713 49.8524 17.7714 49.2359 17.7714H46.8132C46.1966 17.7714 45.6975 17.2713 45.6975 16.6544V15.1519C45.6975 14.535 46.1966 14.0349 46.8132 14.0349Z" fill="#0044AA"/>
<path d="M39.1713 15.9771H40.91C41.4203 15.9771 41.8346 16.3909 41.8346 16.9014V21.6084C41.8346 22.1189 41.4203 22.5328 40.91 22.5328H39.1713C38.661 22.5328 38.2484 22.1189 38.2484 21.6084V16.9014C38.2484 16.3909 38.661 15.9771 39.1713 15.9771Z" fill="#0044AA"/>
<path d="M55.0445 15.9006H57.2134C57.605 15.9006 57.9221 16.2183 57.9221 16.6102V21.7469C57.9221 22.1388 57.605 22.4565 57.2134 22.4565H55.0445C54.6529 22.4565 54.3342 22.1388 54.3342 21.7469V16.6102C54.3342 16.2183 54.6529 15.9006 55.0445 15.9006Z" fill="#0044AA"/>
<path opacity="0.61" d="M62.6404 30.9785L55.9031 27.6436H40.9618L33.9789 31.0197L62.6404 30.9785Z" fill="#002255"/>
<path opacity="0.65" d="M34.978 36.8162L37.572 38.3426V38.3447C38.2086 38.0388 39.2033 37.9822 40.3276 37.9831C40.9719 37.9837 41.6583 38.0034 42.3432 38.0034C44.1496 38.0034 45.6528 38.4009 46.4683 39.1772C46.4683 39.1772 47.1471 39.5807 47.5181 39.6703C47.7003 39.7169 47.8961 39.717 48.0817 39.6906C48.4591 39.6315 49.1793 39.3066 49.1793 39.3066C50.4056 38.4692 51.9316 38.0738 53.3654 38.0609C54.0499 38.0609 54.737 38.0406 55.381 38.0406C56.4827 38.0399 57.4607 38.0933 58.0987 38.3835L60.3005 38.0597V38.4585L58.8518 39.5633C58.8046 41.3192 57.0428 43.4263 54.402 44.1353C53.3591 44.4152 51.9307 44.243 51.1092 44.0579C50.2668 43.8678 49.6377 43.2309 49.1793 42.6421C49.0072 42.4236 48.839 41.9899 48.7179 41.5726C48.6099 41.1957 48.4218 40.9765 48.1592 40.836C47.9668 40.7316 47.7115 40.7106 47.5181 40.8089C47.2717 40.9348 47.1414 41.1391 47.0105 41.5163C46.9092 41.8131 46.6189 42.4281 46.493 42.5865C46.0367 43.1754 45.4056 43.8124 44.5631 44.0024C43.7416 44.1874 42.3136 44.3598 41.2703 44.0798C39.0916 43.4947 37.4978 41.9575 36.9919 40.4513L34.9615 37.6436L34.978 36.8162Z" fill="white"/>
<path d="M86.1784 108.907L88.8383 127.201L86.9249 156.397C86.9249 156.397 87.1315 156.355 79.68 156.348L76.4564 129.576L71.1398 113.366L86.1784 108.907Z" fill="#002255"/>
<path opacity="0.999" d="M65.8828 71.9473L62.0164 69.0676L62.5207 165.15L66.9903 164.327L65.8828 71.9473Z" fill="#999999"/>
<path d="M10.1006 118.597C10.1006 118.597 4.57116 125.885 5.66068 128.596C6.12647 129.752 7.64253 131.207 10.0173 132.168C13.2134 133.46 17.4661 134.088 18.0912 134.088C19.1804 134.088 30.3685 131.469 30.3685 131.469C29.2 129.763 29.698 132.717 29.7125 122.857H20.9959L16.275 119.372L10.1006 118.597Z" fill="#002255"/>
<path d="M258.855 140.929H249.904V158.55H258.855V140.929Z" fill="#374548"/>
<path opacity="0.95" d="M111.933 298.973V308.069L126.663 364.227L112.003 363.888V365.919L21.987 366.284V364.285L9.90253 364.26L21.987 316.479V298.969L111.933 298.973Z" fill="#0B2228"/>
<path opacity="0.4" d="M69.0139 305.379V363.968H80.4174L73.458 305.297L69.0139 305.379Z" fill="black"/>
<path opacity="0.4" d="M26.0063 303.453H28.6645V365.065H9.24252L26.0063 303.453Z" fill="black" stroke="black" stroke-width="0.201254"/>
<path opacity="0.4" d="M108.352 304.388H105.693V366.45H125.115L108.352 304.388Z" fill="black" stroke="black" stroke-width="0.201982"/>
<path d="M114.73 303.35V306.631H112.44L126.424 361.985H128.87V366.5H5.43536V361.985H7.95761L21.9425 306.631H19.7374V303.35H114.73ZM109.379 306.631H67.0047V361.985H123.364L109.379 306.631ZM62.355 306.631H25.003L11.0173 361.985H55.4114L62.355 306.631Z" fill="#4D4D4D"/>
<path d="M22.7293 275.891H24.4604C25.3227 275.891 25.7256 276.438 26.0102 277.036L27.077 279.279C27.3641 279.877 26.3891 280.424 25.5272 280.424H21.6626C20.7998 280.424 19.8278 279.877 20.1124 279.279L21.1791 277.036C21.4663 276.438 21.867 275.891 22.7293 275.891Z" fill="#373E48"/>
<path d="M28.9607 278.467H18.2984C17.8295 278.467 17.4494 278.847 17.4494 279.316V286.555C17.4494 287.024 17.8295 287.404 18.2984 287.404H28.9607C29.4296 287.404 29.8097 287.024 29.8097 286.555V279.316C29.8097 278.847 29.4296 278.467 28.9607 278.467Z" fill="#A02C2C"/>
<path d="M43.3243 268.975H95.5804C95.8247 268.975 95.919 269.127 96.0292 269.277L108.332 286.468C108.444 286.618 108.131 286.77 107.884 286.77H32.9645C32.7202 286.77 32.424 286.623 32.5162 286.468L42.8765 269.277C42.9707 269.122 43.0779 268.975 43.3248 268.975H43.3243Z" fill="#00222B"/>
<path d="M118.031 283.984H16.9751C15.4618 283.984 14.235 285.211 14.235 286.725V296.616C14.235 298.13 15.4618 299.358 16.9751 299.358H118.031C119.545 299.358 120.771 298.13 120.771 296.616V286.725C120.771 285.211 119.545 283.984 118.031 283.984Z" fill="#A02C2C"/>
<path d="M129.801 3.56828L125.873 0.654185C124.405 -0.434684 122.333 -0.126935 121.245 1.34156L107.458 19.9433C106.37 21.4118 106.678 23.485 108.145 24.5738L112.074 27.4879C113.541 28.5768 115.614 28.269 116.702 26.8006L130.488 8.19879C131.577 6.7303 131.269 4.65715 129.801 3.56828Z" fill="#0A2228" fill-opacity="0.952941"/>
<path d="M135.013 2.2713L255.893 106.889C257.088 107.924 257.426 109.611 256.485 110.882L246.568 124.265C245.627 125.535 243.879 125.754 242.577 124.857L111.236 34.3499C109.934 33.453 109.702 31.6276 110.643 30.3575L131.019 2.86166C131.96 1.59149 133.814 1.23435 135.009 2.26881L135.013 2.2713Z" fill="#C83737"/>
<path d="M153.463 29.034C150.767 28.2862 147.966 28.0187 145.22 28.247C142.475 28.4753 139.839 29.1947 137.463 30.3644C135.087 31.534 133.018 33.1308 131.373 35.0637C129.728 36.9966 128.54 39.2278 127.876 41.6297C127.848 41.7261 127.821 41.8227 127.795 41.9196C126.871 42.2815 126.151 42.9866 125.852 43.918L73.431 207.011C73.0281 208.26 73.6582 209.601 74.7986 210.45C71.5748 223.531 81.1177 237.333 96.2962 241.542C111.413 245.735 126.631 238.888 130.649 226.086C132.251 226.086 133.721 225.232 134.032 223.817L170.901 56.4114C171.222 54.957 170.47 53.4541 169.037 52.6532C170.253 47.8367 169.302 42.6652 166.389 38.249C163.477 33.8329 158.834 30.5243 153.459 29.0336L153.463 29.034Z" fill="#C83737"/>
<path d="M147.627 69.3717C137.368 69.3717 129.051 61.0105 129.051 50.6965C129.051 40.3824 137.368 32.0212 147.627 32.0212C157.886 32.0212 166.203 40.3824 166.203 50.6965C166.203 61.0105 157.886 69.3717 147.627 69.3717Z" fill="#0A2228" fill-opacity="0.952941"/>
<path d="M208.977 64.7488L190.706 88.9586C189.672 90.3289 189.944 92.2784 191.314 93.3131L218.501 113.85C219.871 114.885 221.819 114.613 222.853 113.242L241.124 89.0325C242.158 87.6622 241.886 85.7126 240.516 84.678L213.329 64.141C211.96 63.1064 210.011 63.3785 208.977 64.7488Z" fill="#0A2228" fill-opacity="0.952941"/>
<path d="M265.429 138.613H243.113C242.878 138.613 242.687 138.804 242.687 139.04V140.505C242.687 140.741 242.878 140.931 243.113 140.931H265.429C265.664 140.931 265.855 140.741 265.855 140.505V139.04C265.855 138.804 265.664 138.613 265.429 138.613Z" fill="#1C2224"/>
<path d="M262.639 132.923H246.265V138.621H262.639V132.923Z" fill="#6F8A91"/>
<path d="M254.492 135.559C245.978 135.559 239.076 128.689 239.076 120.213C239.076 111.738 245.978 104.868 254.492 104.868C263.006 104.868 269.908 111.738 269.908 120.213C269.908 128.689 263.006 135.559 254.492 135.559Z" fill="#0A2228" fill-opacity="0.952941"/>
<path d="M23.4567 277.192L23.6495 256.987C23.6495 256.987 24.6087 230.705 29.5623 218.824C33.9554 208.288 38.5769 192.6 49.9117 191.284C59.3844 190.184 61.4978 192.409 71.003 193.749C82.0456 195.305 89.6308 190.507 95.3002 179.934C109.252 153.918 117.853 95.855 128.214 88.3603C142.34 78.1425 136.556 103.37 160.963 101.966C185.298 100.566 184.574 71.272 190.338 75.5278C207.81 88.4285 220.466 96.4656 233.077 108.154C238.276 112.973 230.852 118.891 228.982 124.249C227.211 129.323 226.949 138.594 234.586 144.216C241.59 149.373 249.793 150.339 249.793 150.339" stroke="#1A1A1A" stroke-width="4.68632"/>
<path d="M249.826 146.589L248.616 146.597C248.39 146.599 248.206 146.784 248.206 147.01L248.205 153.213C248.205 153.44 248.389 153.622 248.615 153.621L249.825 153.612C250.051 153.611 250.235 153.426 250.235 153.199L250.236 146.996C250.236 146.769 250.052 146.587 249.826 146.589Z" fill="#939DAC"/>
<path d="M101.138 201.372C99.831 201.373 98.5255 201.462 97.2301 201.64H13.7204C13.7204 201.64 13.6604 201.632 13.639 201.632H1.10276C0.492018 201.632 0 202.278 0 203.082V219.497C0 220.3 0.494161 220.947 1.10276 220.947H4.5799V269.633H102.218V261.359C109.808 261.072 116.994 257.787 122.264 252.196C127.535 246.605 130.48 239.142 130.48 231.377C130.48 223.42 127.388 215.789 121.885 210.162C116.382 204.535 108.918 201.374 101.135 201.374L101.138 201.372Z" fill="#C83737"/>
<path d="M99.3187 255.723C86.3453 255.723 75.8283 245 75.8283 231.772C75.8283 218.544 86.3453 207.821 99.3187 207.821C112.292 207.821 122.809 218.544 122.809 231.772C122.809 245 112.292 255.723 99.3187 255.723Z" fill="#0A2228" fill-opacity="0.952941"/>
<path d="M202.564 77.3595L196.824 84.739C196.152 85.6028 196.313 86.8407 197.183 87.5041L221.004 105.665C221.874 106.328 223.124 106.165 223.796 105.302L229.536 97.9222C230.208 97.0585 230.047 95.8205 229.177 95.1571L205.356 76.9967C204.486 76.3333 203.236 76.4957 202.564 77.3595Z" fill="#6F7C91"/>
<path d="M127.302 93.7542L118.664 91.4363C118.084 91.2806 117.485 91.6246 117.328 92.2048L113.008 108.087C112.85 108.667 113.192 109.264 113.773 109.42L122.41 111.738C122.991 111.893 123.589 111.549 123.747 110.969L128.067 95.0866C128.225 94.5065 127.882 93.9099 127.302 93.7542Z" fill="#6F7C91"/>
<path d="M106.046 162.478L97.4815 159.903C96.906 159.73 96.2975 160.056 96.1224 160.631L91.329 176.377C91.1539 176.952 91.4785 177.558 92.0541 177.731L100.618 180.307C101.194 180.48 101.802 180.154 101.977 179.579L106.771 163.833C106.946 163.258 106.621 162.651 106.046 162.478Z" fill="#6F7C91"/>
<path opacity="0.15" d="M8.84265 201.66L15.0392 270.177L27.1344 245.049C27.1344 245.049 32.8201 219.95 32.8201 217.993C32.8201 216.036 29.8641 204.728 29.8641 204.728L30.5614 201.084L8.84265 201.66Z" fill="black"/>
<path opacity="0.2" d="M161.168 69.6228L134.398 175.782L117.21 209.468L104.213 244.456L94.1944 260.143L94.7464 269.349H102.288L102.939 261.094L118.487 256.577L127.11 244.679L130.433 226.429L133.718 223.926L158.933 106.185L166.906 74.8403L161.168 69.6228Z" fill="black"/>
<path d="M245.858 429.038H231.516V361.383H245.858V429.038Z" fill="#ACABAB"/>
<path d="M238.687 429.038H200.8V424.356L238.687 419.675V429.038Z" fill="#ACABAB"/>
<path d="M238.688 429.038H276.573V424.356L238.688 419.675V429.038Z" fill="#ACABAB"/>
<path d="M124.25 429.038H109.907V361.383H124.25V429.038Z" fill="#ACABAB"/>
<path d="M117.078 429.038H79.1931V424.356L117.078 419.675V429.038Z" fill="#ACABAB"/>
<path d="M117.077 429.038H154.962V424.356L117.077 419.675V429.038Z" fill="#ACABAB"/>
<path d="M160.206 434.202H73.9496V429.038H160.206V434.202Z" fill="#58595B"/>
<path d="M281.818 434.202H195.563V429.038H281.818V434.202Z" fill="#58595B"/>
<path d="M263.619 357.552H92.1558C79.4319 357.552 69.1172 347.233 69.1172 334.501C69.1172 321.77 79.4319 311.451 92.1558 311.451H263.619C276.344 311.451 286.659 321.77 286.659 334.501C286.659 347.233 276.344 357.552 263.619 357.552Z" fill="#343434"/>
<path d="M252.278 356.568H260.379V358.536H252.278V356.568Z" fill="#343434"/>
<path d="M240.937 356.568H249.037V358.536H240.937V356.568Z" fill="#343434"/>
<path d="M229.597 356.568H237.697V358.536H229.597V356.568Z" fill="#343434"/>
<path d="M218.254 356.568H226.357V358.536H218.254V356.568Z" fill="#343434"/>
<path d="M206.914 356.568H215.017V358.536H206.914V356.568Z" fill="#343434"/>
<path d="M195.575 356.568H203.676V358.536H195.575V356.568Z" fill="#343434"/>
<path d="M184.234 356.568H192.335V358.536H184.234V356.568Z" fill="#343434"/>
<path d="M172.893 356.568H180.993V358.536H172.893V356.568Z" fill="#343434"/>
<path d="M161.554 356.568H169.652V358.536H161.554V356.568Z" fill="#343434"/>
<path d="M150.212 356.568H158.311V358.536H150.212V356.568Z" fill="#343434"/>
<path d="M138.871 356.568H146.97V358.536H138.871V356.568Z" fill="#343434"/>
<path d="M127.53 356.568H135.631V358.536H127.53V356.568Z" fill="#343434"/>
<path d="M116.191 356.568H124.292V358.536H116.191V356.568Z" fill="#343434"/>
<path d="M104.85 356.568H112.95V358.536H104.85V356.568Z" fill="#343434"/>
<path d="M93.5084 356.568H101.609V358.536H93.5084V356.568Z" fill="#343434"/>
<path d="M82.8984 354.509C82.8984 354.509 83.0048 354.561 83.1963 354.653C83.3834 354.751 83.6597 354.878 84.0053 354.993C84.6917 355.232 85.5832 355.617 86.5345 355.817C87.0061 355.928 87.4686 356.081 87.9176 356.151C88.367 356.219 88.7873 356.283 89.1463 356.337C89.8624 356.47 90.3489 356.475 90.3489 356.475L90.188 358.438C90.188 358.438 89.6595 358.429 88.8788 358.287C88.4869 358.227 88.0282 358.158 87.5392 358.083C87.0511 358.004 86.5457 357.842 86.0321 357.719C84.9966 357.498 84.0215 357.084 83.2746 356.82C82.9005 356.695 82.5997 356.556 82.3939 356.451C82.1846 356.35 82.0677 356.294 82.0677 356.294L82.8962 354.508" fill="#343434"/>
<path d="M74.5468 347.748C74.5468 347.748 74.6177 347.846 74.7469 348.015C74.8805 348.179 75.0376 348.443 75.2906 348.706C75.8001 349.224 76.3864 350.009 77.1369 350.626C77.4976 350.95 77.8473 351.287 78.1938 351.58C78.559 351.852 78.898 352.105 79.1898 352.324C79.7603 352.775 80.1836 353.016 80.1836 353.016L79.1115 354.668C79.1115 354.668 78.6537 354.405 78.0307 353.913C77.7144 353.676 77.344 353.399 76.9477 353.104C76.5691 352.783 76.1879 352.42 75.7951 352.066C74.9818 351.389 74.3366 350.541 73.7857 349.974C73.514 349.687 73.3402 349.402 73.1942 349.223C73.0561 349.039 72.9767 348.932 72.9767 348.932L74.5468 347.748" fill="#343434"/>
<path d="M70.3798 337.85C70.3798 337.85 70.442 338.331 70.5711 339.046C70.7805 339.742 70.9364 340.707 71.291 341.611C71.4558 342.066 71.6257 342.521 71.7803 342.947C71.9495 343.369 72.1547 343.743 72.3065 344.073C72.4624 344.4 72.5959 344.673 72.6849 344.865C72.7696 345.059 72.8459 345.158 72.8459 345.158L71.1235 346.11C71.1235 346.11 71.0475 346.001 70.9495 345.791C70.8471 345.584 70.7034 345.285 70.5342 344.928C70.3694 344.57 70.1471 344.161 69.9622 343.702C69.793 343.238 69.6107 342.742 69.4294 342.245C69.0464 341.259 68.8679 340.209 68.6465 339.45C68.504 338.67 68.4378 338.147 68.4378 338.147L70.3819 337.85" fill="#343434"/>
<path d="M71.3802 327.151C71.3802 327.151 71.3362 327.264 71.265 327.464C71.1937 327.664 71.0732 327.943 70.9975 328.3C70.8371 329.009 70.5188 329.932 70.419 330.9C70.3478 331.38 70.2749 331.859 70.2081 332.309C70.1635 332.763 70.165 333.186 70.1472 333.55C70.1472 333.914 70.1015 334.215 70.1015 334.427C70.1015 334.64 70.1015 334.761 70.1015 334.761L68.1334 334.783C68.1334 334.783 68.1334 334.651 68.1334 334.42C68.1334 334.189 68.179 333.86 68.1834 333.464C68.1834 333.07 68.2285 332.608 68.2552 332.114C68.3265 331.623 68.4012 331.102 68.4814 330.578C68.5972 329.525 68.9369 328.517 69.1142 327.746C69.1988 327.359 69.3277 327.052 69.4034 326.835C69.4836 326.617 69.5274 326.494 69.5274 326.494L71.3824 327.15" fill="#343434"/>
<path d="M77.3262 318.204C77.3262 318.204 76.9551 318.516 76.4389 319.031C76.1939 319.299 75.9115 319.614 75.606 319.95C75.4546 320.118 75.2944 320.293 75.1341 320.469C74.9916 320.66 74.8483 320.854 74.7013 321.049C74.4118 321.437 74.1223 321.827 73.851 322.192C73.615 322.58 73.3935 322.943 73.2051 323.253C73.0181 323.564 72.8589 323.823 72.7506 324.006C72.6571 324.196 72.6071 324.306 72.6071 324.306L70.863 323.394C70.863 323.394 70.9216 323.276 71.0196 323.067C71.1398 322.869 71.3093 322.586 71.5132 322.248C71.7181 321.909 71.9604 321.514 72.2178 321.091C72.5118 320.694 72.8272 320.271 73.1421 319.846C73.3024 319.636 73.4577 319.423 73.614 319.216C73.7877 319.024 73.9607 318.834 74.125 318.65C74.4591 318.284 74.7699 317.943 75.0362 317.65C75.5961 317.091 75.9996 316.748 75.9996 316.748L77.324 318.204" fill="#343434"/>
<path d="M86.7864 313.123C86.7864 313.123 86.3162 313.243 85.6121 313.423C84.9382 313.692 84.0011 313.961 83.1286 314.384C82.6921 314.593 82.2557 314.804 81.8455 315C81.4358 315.198 81.0909 315.448 80.7756 315.627C80.4638 315.816 80.2049 315.973 80.0232 316.083C79.8406 316.188 79.7426 316.264 79.7426 316.264L78.6335 314.639C78.6335 314.639 78.7354 314.557 78.9358 314.441C79.1318 314.32 79.4155 314.149 79.7535 313.943C80.0964 313.746 80.4764 313.477 80.9213 313.262C81.3676 313.047 81.8431 312.817 82.3196 312.588C83.2709 312.13 84.2905 311.831 85.0271 311.544C85.7945 311.346 86.3058 311.214 86.3058 311.214L86.7842 313.123" fill="#343434"/>
<path d="M97.8271 312.435C97.8271 312.435 95.8008 312.435 93.7757 312.435C93.2693 312.435 92.7625 312.435 92.2882 312.435C91.8321 312.457 91.4073 312.475 91.0421 312.493C90.6813 312.511 90.3755 312.524 90.1635 312.538C89.9497 312.542 89.8351 312.56 89.8351 312.56L89.6285 310.601C89.6285 310.601 89.7579 310.583 89.9895 310.575C90.2211 310.566 90.5514 310.548 90.9464 310.526C91.3383 310.508 91.7982 310.49 92.2904 310.466C92.7647 310.466 93.2715 310.466 93.7778 310.466C95.803 310.466 97.8271 310.466 97.8271 310.466V312.434" fill="#343434"/>
<path d="M109.167 312.435H101.068V310.467H109.167V312.435Z" fill="#343434"/>
<path d="M120.508 312.435H112.409V310.467H120.508V312.435Z" fill="#343434"/>
<path d="M131.848 312.435H123.749V310.467H131.848V312.435Z" fill="#343434"/>
<path d="M143.189 312.435H135.088V310.467H143.189V312.435Z" fill="#343434"/>
<path d="M154.529 312.435H146.428V310.467H154.529V312.435Z" fill="#343434"/>
<path d="M165.87 312.435H157.77V310.467H165.87V312.435Z" fill="#343434"/>
<path d="M177.212 312.435H169.111V310.467H177.212V312.435Z" fill="#343434"/>
<path d="M188.553 312.435H180.452V310.467H188.553V312.435Z" fill="#343434"/>
<path d="M199.894 312.435H191.791V310.467H199.894V312.435Z" fill="#343434"/>
<path d="M211.234 312.435H203.131V310.467H211.234V312.435Z" fill="#343434"/>
<path d="M222.573 312.435H214.473V310.467H222.573V312.435Z" fill="#343434"/>
<path d="M233.916 312.435H225.815V310.467H233.916V312.435Z" fill="#343434"/>
<path d="M245.256 312.435H237.155V310.467H245.256V312.435Z" fill="#343434"/>
<path d="M256.596 312.435H248.495V310.467H256.596V312.435Z" fill="#343434"/>
<path d="M267.728 312.832C267.728 312.832 267.25 312.76 266.532 312.65C265.819 312.494 264.841 312.519 263.875 312.449C261.856 312.444 259.837 312.435 259.837 312.435V310.467C259.837 310.467 261.867 310.472 263.899 310.481C264.95 310.551 266.011 310.534 266.789 310.699C267.572 310.818 268.094 310.898 268.094 310.898L267.728 312.832" fill="#343434"/>
<path d="M277.478 317.347C277.478 317.347 277.092 317.058 276.511 316.622C275.951 316.151 275.085 315.7 274.266 315.181C273.402 314.75 272.541 314.299 271.861 314.044C271.179 313.794 270.724 313.628 270.724 313.628L271.357 311.763C271.357 311.763 271.851 311.946 272.596 312.218C273.336 312.497 274.278 312.985 275.219 313.458C276.113 314.017 277.05 314.517 277.661 315.027C278.294 315.501 278.716 315.817 278.716 315.817L277.478 317.347" fill="#343434"/>
<path d="M284.471 325.164C284.471 325.164 284.263 324.727 283.947 324.071C283.662 323.399 283.154 322.573 282.647 321.748C282.127 320.929 281.512 320.175 281.072 319.598C280.584 319.059 280.257 318.7 280.257 318.7L281.696 317.358C281.696 317.358 282.052 317.749 282.584 318.335C283.063 318.963 283.73 319.786 284.295 320.676C284.85 321.575 285.407 322.476 285.717 323.207C286.06 323.922 286.285 324.398 286.285 324.398L284.471 325.164Z" fill="#343434"/>
<path d="M285.57 336.569C285.57 336.569 285.615 336.083 285.633 335.357C285.709 334.63 285.628 333.661 285.583 332.692C285.529 331.724 285.315 330.773 285.226 330.051C285.044 329.347 284.924 328.877 284.924 328.877L286.827 328.376C286.827 328.376 286.955 328.888 287.151 329.655C287.253 330.441 287.482 331.479 287.544 332.532C287.598 333.587 287.677 334.641 287.597 335.432C287.552 336.223 287.529 336.749 287.529 336.749L285.572 336.568" fill="#343434"/>
<path d="M281.989 346.703C281.989 346.703 282.239 346.289 282.618 345.667C283.032 345.065 283.408 344.167 283.84 343.299C284.201 342.404 284.544 341.492 284.751 340.797C284.934 340.093 285.054 339.623 285.054 339.623L286.967 340.079C286.967 340.079 286.833 340.591 286.637 341.358C286.41 342.116 286.041 343.109 285.645 344.085C285.178 345.033 284.762 346.008 284.314 346.665C283.904 347.343 283.627 347.794 283.627 347.794L281.989 346.703" fill="#343434"/>
<path d="M274.044 353.948C274.044 353.948 274.155 353.898 274.333 353.783C274.516 353.673 274.774 353.514 275.083 353.326C275.386 353.129 275.771 352.936 276.134 352.664C276.499 352.39 276.885 352.1 277.273 351.81C278.047 351.224 278.729 350.529 279.27 350.045C279.758 349.506 280.085 349.147 280.085 349.147L281.553 350.455C281.553 350.455 281.197 350.847 280.666 351.431C280.08 351.961 279.334 352.716 278.493 353.354C278.07 353.67 277.647 353.986 277.249 354.283C276.853 354.578 276.441 354.792 276.108 355.006C275.769 355.212 275.486 355.382 275.29 355.503C275.094 355.627 274.975 355.682 274.975 355.682L274.044 353.948" fill="#343434"/>
<path d="M263.618 356.568C263.618 356.568 264.102 356.541 264.829 356.505C265.19 356.479 265.617 356.487 266.067 356.424C266.516 356.356 266.997 356.283 267.476 356.209C268.439 356.086 269.358 355.756 270.068 355.605C270.758 355.376 271.208 355.198 271.208 355.198L271.886 357.046C271.886 357.046 271.394 357.238 270.642 357.486C269.871 357.658 268.865 358.01 267.817 358.148C267.295 358.227 266.773 358.307 266.284 358.381C265.794 358.449 265.331 358.442 264.936 358.472C264.146 358.512 263.618 358.537 263.618 358.537V356.569" fill="#343434"/>
<path d="M262.722 356.268H93.0427C81.0274 356.268 71.2872 346.524 71.2872 334.501C71.2872 322.481 81.0274 312.735 93.0427 312.735H262.722C274.737 312.735 284.478 322.481 284.478 334.501C284.478 346.524 274.737 356.268 262.722 356.268Z" fill="#808080"/>
<path d="M262.506 343.248C257.595 341.652 254.907 336.377 256.501 331.463C258.096 326.551 263.371 323.863 268.282 325.458C273.192 327.054 275.879 332.331 274.284 337.243C272.689 342.155 267.416 344.845 262.506 343.248Z" fill="#999999"/>
<path d="M87.4882 343.248C82.5775 341.652 79.8885 336.377 81.4839 331.463C83.0783 326.551 88.3539 323.863 93.2641 325.458C98.1748 327.054 100.861 332.331 99.2662 337.243C97.6709 342.155 92.3984 344.845 87.4882 343.248Z" fill="#B3B3B3"/>
<path d="M98.789 356.268H256.98V343.029H98.789V356.268Z" fill="#666666"/>
<path d="M253.618 370.065H102.145V346.11H253.618V370.065Z" fill="#ACABAB"/>
<path d="M124.253 370.065H109.911V377.626H124.253V370.065Z" fill="#919191"/>
<path d="M245.863 370.065H231.521V377.626H245.863V370.065Z" fill="#919191"/>
<path d="M124.254 420.56L154.969 424.356V425.225H124.254V420.56Z" fill="#919191"/>
<path d="M109.911 420.56L79.1955 424.356V425.225H109.911V420.56Z" fill="#919191"/>
<path d="M245.862 420.56L276.577 424.356V425.225H245.862V420.56Z" fill="#919191"/>
<path d="M231.52 420.56L200.804 424.356V425.225H231.52V420.56Z" fill="#919191"/>
<path d="M124.253 346.165H109.911V318.831H124.253V346.165Z" fill="#ACABAB"/>
<path d="M245.863 346.165H231.521V318.831H245.863V346.165Z" fill="#ACABAB"/>
<path d="M240.43 346.165H236.955V324.3H240.43V346.165Z" fill="#606163"/>
<path d="M240.43 397.399H236.955V370.065H240.43V397.399Z" fill="#606163"/>
<path d="M118.82 346.165H115.345V324.3H118.82V346.165Z" fill="#606163"/>
<path d="M118.82 397.399H115.345V370.065H118.82V397.399Z" fill="#606163"/>
<path d="M245.668 358.088C245.668 361.943 242.544 365.068 238.692 365.068C234.839 365.068 231.715 361.943 231.715 358.088C231.715 354.234 234.839 351.109 238.692 351.109C242.544 351.109 245.668 354.234 245.668 358.088Z" fill="#666666"/>
<path d="M244.079 358.088C244.079 361.064 241.667 363.477 238.692 363.477C235.718 363.477 233.305 361.064 233.305 358.088C233.305 355.111 235.718 352.7 238.692 352.7C241.667 352.7 244.079 355.111 244.079 358.088Z" fill="#B3B3B3"/>
<path d="M236.779 361.405L234.863 358.088L236.779 354.77H240.608L242.522 358.088L240.608 361.405H236.779Z" fill="#333333"/>
<path d="M124.054 358.088C124.054 361.943 120.931 365.068 117.078 365.068C113.225 365.068 110.102 361.943 110.102 358.088C110.102 354.234 113.225 351.109 117.078 351.109C120.931 351.109 124.054 354.234 124.054 358.088Z" fill="#4D4D4D"/>
<path d="M122.464 358.088C122.464 361.064 120.052 363.477 117.077 363.477C114.103 363.477 111.693 361.064 111.693 358.088C111.693 355.111 114.103 352.7 117.077 352.7C120.052 352.7 122.464 355.111 122.464 358.088Z" fill="#B3B3B3"/>
<path d="M115.164 361.405L113.251 358.088L115.164 354.77H118.994L120.908 358.088L118.994 361.405H115.164Z" fill="#333333"/>
<g opacity="0.7">
<path opacity="0.7" d="M368.456 385.239H216.048C214.741 385.244 213.491 385.768 212.57 386.695C211.65 387.622 211.135 388.877 211.139 390.184V495.13C211.135 496.437 211.65 497.692 212.57 498.619C213.491 499.546 214.741 500.07 216.048 500.075H268.466V518.19H266.076C265.748 518.191 265.423 518.257 265.121 518.384C264.818 518.51 264.543 518.696 264.312 518.928C264.081 519.161 263.898 519.438 263.774 519.741C263.649 520.045 263.586 520.37 263.587 520.698V524.333H268.466V526.483H316.038V524.333H320.917V520.698C320.918 520.37 320.855 520.045 320.73 519.741C320.606 519.438 320.423 519.161 320.192 518.928C319.961 518.696 319.686 518.51 319.383 518.384C319.081 518.257 318.756 518.191 318.428 518.19H316.18V518.033H316.026V500.075H368.456C369.763 500.07 371.013 499.546 371.934 498.619C372.854 497.692 373.369 496.437 373.365 495.13V390.184C373.369 388.877 372.854 387.622 371.934 386.695C371.013 385.768 369.763 385.244 368.456 385.239Z" fill="url(#paint0_linear)"/>
</g>
<path d="M315.88 496.955H268.927V524.658H315.88V496.955Z" fill="#BDBDBD"/>
<g opacity="0.1">
<path opacity="0.1" d="M269.852 499.665H315.05C315.594 497.295 316.031 495.75 316.031 495.75H268.777C268.777 495.75 269.262 497.289 269.852 499.665Z" fill="black"/>
</g>
<path d="M217.189 386.143H367.618C368.254 386.143 368.885 386.268 369.473 386.511C370.061 386.755 370.594 387.112 371.044 387.562C371.494 388.013 371.852 388.547 372.095 389.135C372.339 389.724 372.464 390.354 372.464 390.991V483.706H212.343V390.991C212.343 390.354 212.47 389.724 212.714 389.135C212.957 388.547 213.313 388.013 213.763 387.562C214.213 387.112 214.748 386.755 215.336 386.511C215.924 386.268 216.552 386.143 217.189 386.143V386.143Z" fill="#535461"/>
<path d="M367.617 498.762H217.188C215.903 498.762 214.671 498.251 213.762 497.342C212.854 496.432 212.344 495.199 212.344 493.914V483.706H372.463V493.914C372.463 494.55 372.338 495.181 372.094 495.769C371.851 496.357 371.493 496.892 371.043 497.342C370.593 497.792 370.06 498.149 369.472 498.393C368.884 498.636 368.253 498.762 367.617 498.762V498.762Z" fill="#BDBDBD"/>
<path d="M292.405 493.944C293.901 493.944 295.113 492.731 295.113 491.234C295.113 489.737 293.901 488.524 292.405 488.524C290.909 488.524 289.697 489.737 289.697 491.234C289.697 492.731 290.909 493.944 292.405 493.944Z" fill="#535461"/>
<path d="M266.57 516.528H318.235C318.887 516.528 319.514 516.787 319.975 517.249C320.436 517.71 320.694 518.336 320.694 518.988V522.55H264.11V518.988C264.11 518.336 264.369 517.71 264.83 517.249C265.291 516.787 265.918 516.528 266.57 516.528Z" fill="#BDBDBD"/>
<g opacity="0.5">
<path opacity="0.5" d="M349.134 406.655H244.213C243.401 406.655 242.742 407.262 242.742 408.01V461.838C242.742 462.587 243.401 463.193 244.213 463.193H349.134C349.946 463.193 350.605 462.587 350.605 461.838V408.01C350.605 407.262 349.946 406.655 349.134 406.655Z" fill="url(#paint1_linear)"/>
</g>
<path d="M295.556 407.071H244.75C244.346 407.071 244.017 407.677 244.017 408.426V461.11C244.017 461.858 244.346 462.465 244.75 462.465H295.556C295.96 462.465 296.287 461.858 296.287 461.11V408.426C296.287 407.677 295.96 407.071 295.556 407.071Z" fill="#373E48"/>
<path d="M286.325 431.308H258.591C258.297 431.308 258.058 431.547 258.058 431.841C258.058 432.135 258.297 432.374 258.591 432.374H286.325C286.62 432.374 286.859 432.135 286.859 431.841C286.859 431.547 286.62 431.308 286.325 431.308Z" fill="#AA87DE"/>
<path d="M281.465 434.511H258.591C258.297 434.511 258.058 434.75 258.058 435.044C258.058 435.339 258.297 435.577 258.591 435.577H281.465C281.759 435.577 281.998 435.339 281.998 435.044C281.998 434.75 281.759 434.511 281.465 434.511Z" fill="#80FFE6"/>
<path d="M285.808 423.713H258.074C257.78 423.713 257.54 423.952 257.54 424.246C257.54 424.541 257.78 424.779 258.074 424.779H285.808C286.102 424.779 286.341 424.541 286.341 424.246C286.341 423.952 286.102 423.713 285.808 423.713Z" fill="#ABC837"/>
<path d="M285.808 426.914H258.074C257.78 426.914 257.54 427.153 257.54 427.447C257.54 427.741 257.78 427.98 258.074 427.98H285.808C286.102 427.98 286.341 427.741 286.341 427.447C286.341 427.153 286.102 426.914 285.808 426.914Z" fill="#55FFDD"/>
<path d="M285.808 438.655H258.074C257.78 438.655 257.54 438.894 257.54 439.188C257.54 439.482 257.78 439.721 258.074 439.721H285.808C286.102 439.721 286.341 439.482 286.341 439.188C286.341 438.894 286.102 438.655 285.808 438.655Z" fill="#D35FBC"/>
<path d="M286.054 441.856H258.018C257.754 441.856 257.54 442.07 257.54 442.334V442.443C257.54 442.707 257.754 442.922 258.018 442.922H286.054C286.318 442.922 286.534 442.707 286.534 442.443V442.334C286.534 442.07 286.318 441.856 286.054 441.856Z" fill="#E0E0E0"/>
<g opacity="0.1">
<path opacity="0.1" d="M316.029 516.377H269.077V517.281H316.029V516.377Z" fill="black"/>
</g>
<path d="M376.001 522.43H212.658V532.346H376.001V522.43Z" fill="#E0E0E0"/>
<path d="M373.203 532.747H215.255V536H373.203V532.747Z" fill="#E0E0E0"/>
<path opacity="0.1" d="M374.221 532.345H213.976V533.697H374.221V532.345Z" fill="black"/>
<path d="M286.148 417.96H258.412C258.118 417.96 257.88 418.199 257.88 418.493C257.88 418.788 258.118 419.026 258.412 419.026H286.148C286.442 419.026 286.68 418.788 286.68 418.493C286.68 418.199 286.442 417.96 286.148 417.96Z" fill="#C83737"/>
<path d="M281.287 421.165H258.412C258.118 421.165 257.88 421.403 257.88 421.698C257.88 421.992 258.118 422.23 258.412 422.23H281.287C281.581 422.23 281.819 421.992 281.819 421.698C281.819 421.403 281.581 421.165 281.287 421.165Z" fill="#8080FF"/>
<path d="M285.898 445.306H258.163C257.869 445.306 257.631 445.545 257.631 445.839C257.631 446.133 257.869 446.372 258.163 446.372H285.898C286.193 446.372 286.431 446.133 286.431 445.839C286.431 445.545 286.193 445.306 285.898 445.306Z" fill="#5FD3BC"/>
<path d="M281.038 448.51H258.163C257.869 448.51 257.631 448.749 257.631 449.043C257.631 449.338 257.869 449.576 258.163 449.576H281.038C281.332 449.576 281.57 449.338 281.57 449.043C281.57 448.749 281.332 448.51 281.038 448.51Z" fill="#8080FF"/>
<path d="M347.875 407.102H298.513C298.121 407.102 297.802 407.705 297.802 408.45V460.849C297.802 461.593 298.121 462.196 298.513 462.196H347.875C348.268 462.196 348.586 461.593 348.586 460.849V408.45C348.586 407.705 348.268 407.102 347.875 407.102Z" fill="#373E48"/>
<path d="M336.832 429.475H309.097C308.803 429.475 308.565 429.713 308.565 430.008C308.565 430.302 308.803 430.541 309.097 430.541H336.832C337.127 430.541 337.365 430.302 337.365 430.008C337.365 429.713 337.127 429.475 336.832 429.475Z" fill="#AA87DE"/>
<path d="M331.972 432.679H309.097C308.803 432.679 308.565 432.917 308.565 433.212C308.565 433.506 308.803 433.745 309.097 433.745H331.972C332.266 433.745 332.504 433.506 332.504 433.212C332.504 432.917 332.266 432.679 331.972 432.679Z" fill="#80FFE6"/>
<path d="M336.315 421.88H308.58C308.286 421.88 308.047 422.119 308.047 422.413C308.047 422.708 308.286 422.946 308.58 422.946H336.315C336.609 422.946 336.848 422.708 336.848 422.413C336.848 422.119 336.609 421.88 336.315 421.88Z" fill="#ABC837"/>
<path d="M336.315 425.081H308.58C308.286 425.081 308.047 425.32 308.047 425.614C308.047 425.909 308.286 426.147 308.58 426.147H336.315C336.609 426.147 336.848 425.909 336.848 425.614C336.848 425.32 336.609 425.081 336.315 425.081Z" fill="#55FFDD"/>
<path d="M336.315 436.822H308.58C308.286 436.822 308.047 437.061 308.047 437.355C308.047 437.649 308.286 437.888 308.58 437.888H336.315C336.609 437.888 336.848 437.649 336.848 437.355C336.848 437.061 336.609 436.822 336.315 436.822Z" fill="#D35FBC"/>
<path d="M336.562 440.023H308.526C308.262 440.023 308.047 440.237 308.047 440.502V440.61C308.047 440.875 308.262 441.089 308.526 441.089H336.562C336.826 441.089 337.04 440.875 337.04 440.61V440.502C337.04 440.237 336.826 440.023 336.562 440.023Z" fill="#E0E0E0"/>
<path d="M336.655 416.127H308.92C308.626 416.127 308.387 416.366 308.387 416.66C308.387 416.955 308.626 417.193 308.92 417.193H336.655C336.949 417.193 337.188 416.955 337.188 416.66C337.188 416.366 336.949 416.127 336.655 416.127Z" fill="#C83737"/>
<path d="M331.794 419.332H308.92C308.626 419.332 308.387 419.57 308.387 419.865C308.387 420.159 308.626 420.398 308.92 420.398H331.794C332.089 420.398 332.327 420.159 332.327 419.865C332.327 419.57 332.089 419.332 331.794 419.332Z" fill="#8080FF"/>
<path d="M336.406 443.473H308.671C308.377 443.473 308.138 443.712 308.138 444.006C308.138 444.301 308.377 444.539 308.671 444.539H336.406C336.7 444.539 336.939 444.301 336.939 444.006C336.939 443.712 336.7 443.473 336.406 443.473Z" fill="#5FD3BC"/>
<path d="M331.545 446.677H308.671C308.377 446.677 308.138 446.916 308.138 447.21C308.138 447.505 308.377 447.743 308.671 447.743H331.545C331.84 447.743 332.078 447.505 332.078 447.21C332.078 446.916 331.84 446.677 331.545 446.677Z" fill="#8080FF"/>
<path opacity="0.15" d="M365.576 394.885H223.239C222.137 394.885 221.243 395.753 221.243 396.824V473.845C221.243 474.915 222.137 475.783 223.239 475.783H365.576C366.678 475.783 367.571 474.915 367.571 473.845V396.824C367.571 395.753 366.678 394.885 365.576 394.885Z" fill="black"/>
<path d="M254.388 159.208C258.3 159.208 261.472 159.019 261.472 158.786C261.472 158.553 258.3 158.364 254.388 158.364C250.475 158.364 247.304 158.553 247.304 158.786C247.304 159.019 250.475 159.208 254.388 159.208Z" fill="#6F8A91"/>
</g>
<defs>
<linearGradient id="paint0_linear" x1="292.252" y1="526.48" x2="292.252" y2="385.239" gradientUnits="userSpaceOnUse">
<stop stop-color="#808080" stop-opacity="0.25"/>
<stop offset="0.54" stop-color="#808080" stop-opacity="0.12"/>
<stop offset="1" stop-color="#808080" stop-opacity="0.1"/>
</linearGradient>
<linearGradient id="paint1_linear" x1="57138.4" y1="15043.3" x2="57138.4" y2="4427.66" gradientUnits="userSpaceOnUse">
<stop stop-color="#808080" stop-opacity="0.25"/>
<stop offset="0.54" stop-color="#808080" stop-opacity="0.12"/>
<stop offset="1" stop-color="#808080" stop-opacity="0.1"/>
</linearGradient>
<clipPath id="clip0">
<rect width="376" height="536" fill="white"/>
</clipPath>
</defs>
</svg>
