<svg width="402" height="550" viewBox="0 0 402 550" fill="none" xmlns="http://www.w3.org/2000/svg">
<g clip-path="url(#clip0)">
<path d="M96.1513 256.933H205.58C211.825 256.933 216.886 261.286 216.886 266.656V341.569C216.886 346.939 211.825 351.293 205.58 351.293H96.1513C89.9063 351.293 84.8446 346.939 84.8446 341.569V266.656C84.8446 261.286 89.9063 256.933 96.1513 256.933Z" fill="#B3B3B3"/>
<path d="M196.349 283.863C191.367 283.863 187.329 279.795 187.329 274.778C187.329 269.761 191.367 265.694 196.349 265.694C201.331 265.694 205.37 269.761 205.37 274.778C205.37 279.795 201.331 283.863 196.349 283.863Z" fill="#C83737"/>
<path d="M178.974 279.175C176.479 279.175 174.457 277.172 174.457 274.701C174.457 272.23 176.479 270.227 178.974 270.227C181.468 270.227 183.49 272.23 183.49 274.701C183.49 277.172 181.468 279.175 178.974 279.175Z" fill="#37C871"/>
<path d="M103.943 269.214H167.931C168.643 269.214 169.221 269.71 169.221 270.323V276.579C169.221 277.191 168.643 277.688 167.931 277.688H103.943C103.231 277.688 102.655 277.191 102.655 276.579V270.323C102.655 269.71 103.231 269.214 103.943 269.214Z" fill="#999999"/>
<path d="M111.04 290.832H195.652C201.076 290.832 205.474 294.614 205.474 299.278V332.576C205.474 337.24 201.076 341.022 195.652 341.022H111.04C105.615 341.022 101.218 337.24 101.218 332.576V299.278C101.218 294.614 105.615 290.832 111.04 290.832Z" fill="#999999"/>
<path d="M30.9887 349.68L29.0513 362.49C29.0513 362.49 17.9051 387.084 33.4122 387.084C48.9201 387.084 44.5573 377.349 44.5573 377.349L43.1037 349.68H30.9887Z" fill="#1A1A1A"/>
<path d="M96.893 349.68L98.8326 362.49C98.8326 362.49 109.979 387.084 94.4717 387.084C78.9642 387.084 83.3244 377.349 83.3244 377.349L84.778 349.68H96.893Z" fill="#1A1A1A"/>
<path d="M20.3251 202.117L24.2022 298.955L27.3755 348.643L27.7625 352.942C28.4647 360.731 46.4246 356.095 46.5079 351.051C46.1611 345.023 46.0087 340.97 46.0087 340.97L44.0712 291.782L58.6097 231.322L77.0251 296.393L80.9022 343.02C80.9022 343.02 79.9257 357.703 85.2564 359.24C90.5872 360.777 99.2573 360.881 98.7723 356.27C98.2877 351.658 97.378 344.044 97.378 344.044L99.8015 208.777L92.5312 196.993L20.3251 202.117Z" fill="#002255"/>
<path d="M47.4638 57.1145C47.4638 57.1145 42.6194 75.56 41.6493 75.56C40.6805 75.56 50.857 89.9065 50.857 89.9065L65.8792 98.6169L71.2099 75.0475C71.2099 75.0475 66.3636 62.2382 67.3329 55.5774L47.4638 57.1145Z" fill="#DEAA87"/>
<path d="M57.6414 84.7827L43.3141 71.6282L34.8651 76.0723L16.4496 88.3694C16.4496 88.3694 21.2956 199.042 18.873 203.141C18.873 203.141 24.203 215.951 55.7018 208.265C87.2009 200.579 95.4399 199.555 95.4399 199.555L88.6556 131.921L96.8936 89.3941L69.222 68.9346L60.5486 84.7827H57.6414Z" fill="#002255"/>
<path d="M2.29078 129.149C2.29078 129.149 -2.93366 151.904 2.39524 154.466C7.72639 157.028 12.0868 156.003 12.0868 156.003L20.3258 134.996L2.29078 129.149Z" fill="#162D50"/>
<path d="M105.131 123.723L109.494 145.243V188.795C109.494 188.795 103.193 216.463 98.3466 209.29C93.5005 202.116 93.6009 199.845 93.6009 199.845L99.8002 189.82L96.893 148.83L89.1674 129.276L105.131 123.723Z" fill="#DEAA87"/>
<path d="M20.3243 89.3941L16.4473 88.3694C16.4473 88.3694 9.17877 98.1045 6.75572 109.377C4.33268 120.649 0.939778 131.921 2.87867 131.921C4.81665 131.921 22.2617 139.094 22.2617 139.094L20.3243 89.3941Z" fill="#002255"/>
<path d="M85.7477 88.3694L96.8929 89.3941C96.8929 89.3941 109.494 125.773 108.04 126.798C106.586 127.822 89.1406 133.971 86.7175 132.434C84.2945 130.896 85.7477 88.3694 85.7477 88.3694Z" fill="#162D50"/>
<path d="M41.7199 72.3418L53.903 86.4566L47.8972 207.096C17.3956 214.207 18.606 202.169 18.606 202.169C21.0295 198.07 16.1826 87.3966 16.1826 87.3966L34.5991 75.0999L41.7199 72.3418Z" fill="#0044AA"/>
<path d="M70.8565 70.1521L96.9777 88.885L88.7398 131.413L95.5241 199.045C95.5241 199.045 93.2617 197.612 68.0922 203.61L62.4316 86.8246L70.8565 70.1521Z" fill="#0044AA"/>
<path opacity="0.999" d="M33.2869 76.0378L27.5098 79.5049L27.2525 209.654H34.3821L33.2869 76.0378Z" fill="#999999"/>
<path d="M69.9672 126.091C73.3489 126.114 76.2679 130.369 76.5116 135.632L77.3665 154.086C77.6103 159.349 75.0839 163.567 71.7021 163.544L37.8804 163.31C34.4986 163.286 31.5801 159.031 31.3364 153.768L30.6678 139.336L27.9032 139.317C27.7793 140.144 27.5959 140.818 27.3685 141.282C27.1411 141.746 26.8762 141.988 26.596 141.986C26.3655 141.984 26.1297 141.818 25.9019 141.496C25.6741 141.175 25.4589 140.705 25.2686 140.113C25.0782 139.521 24.9165 138.819 24.7925 138.046C24.6685 137.274 24.5848 136.446 24.5461 135.611C24.468 133.923 24.5779 132.306 24.8518 131.116C25.1257 129.925 25.5411 129.258 26.0066 129.261C26.329 129.263 26.6602 129.587 26.9636 130.198C27.2671 130.809 27.5311 131.682 27.7268 132.722L30.5889 132.742C31.1212 128.743 33.3375 125.838 36.1455 125.857L69.9672 126.091Z" fill="#4D4D4D"/>
<path d="M24.6356 144.024C22.9364 143.907 21.6639 140.425 21.7934 136.245C21.9229 132.066 23.4054 128.771 25.1046 128.887C26.8038 129.004 28.0763 132.486 27.9468 136.666C27.8172 140.845 26.3348 144.14 24.6356 144.024Z" fill="#C83737"/>
<path d="M6.75803 139.607C6.75803 139.607 0.942236 150.879 2.39606 154.466C3.84989 158.052 15.9645 160.102 17.4183 160.102C18.8726 160.102 36.3187 156.003 36.3187 156.003C36.3187 156.003 62.9717 142.681 55.2179 136.02C47.4637 129.359 32.9276 145.243 32.9276 145.243H21.2953L14.9959 140.632L6.75803 139.607Z" fill="#DEAA87"/>
<path d="M60.6105 6.75034C68.4827 6.7507 74.7316 16.7791 74.8212 29.2073V32.0833C74.8437 32.0813 74.8647 32.0802 74.8872 32.0803C75.3713 32.0804 75.8357 32.5479 76.1781 33.3802C76.5204 34.2124 76.7125 35.3411 76.7125 36.5179C76.7125 37.6948 76.5204 38.8235 76.1781 39.6557C75.8357 40.4879 75.3713 40.9555 74.8872 40.9556C74.9547 53.3615 67.8922 63.5132 60.0299 63.5132H54.3716C46.779 63.5132 39.6883 51.7577 39.1888 39.7719C39.1038 39.8016 39.0174 39.8165 38.9315 39.8168C38.4474 39.8167 37.9829 39.3493 37.6406 38.5171C37.2983 37.6849 37.1062 36.5562 37.1062 35.3793C37.1062 34.2024 37.2983 33.0737 37.6406 32.2415C37.9829 31.4093 38.4474 30.9417 38.9315 30.9416C39.0068 30.9408 39.0811 30.9515 39.1558 30.9732V29.2064C39.1558 16.7775 45.4935 6.74951 53.3666 6.74951H60.5951L60.6105 6.75034Z" fill="#DEAA87"/>
<path opacity="0.6" d="M38.7386 35.6838C38.5208 35.6631 38.4036 34.9271 38.4764 34.04C38.5492 33.153 38.7845 32.4507 39.0022 32.4714C39.22 32.4922 39.3373 33.2282 39.2645 34.1152C39.1917 35.0023 38.9564 35.7046 38.7386 35.6838Z" fill="black"/>
<path opacity="0.6" d="M75.333 37.1621C75.5507 37.1413 75.668 36.4054 75.5952 35.5183C75.5224 34.6312 75.2871 33.9289 75.0693 33.9497C74.8515 33.9705 74.7343 34.7064 74.8071 35.5935C74.8799 36.4806 75.1152 37.1828 75.333 37.1621Z" fill="black"/>
<path d="M56.8244 4.77103C66.736 4.77103 74.2234 13.9917 74.8089 25.4058L75.0552 30.3136C74.9291 33.5364 75.0552 33.4996 75.0552 36.2434C75.0552 38.9873 75.0567 39.0471 74.9936 41.4789L74.5208 45.4598C74.2416 47.812 73.1603 51.9028 71.7389 54.5908C70.5359 56.8649 68.8865 58.9086 66.6237 60.9396C63.4954 63.4367 62.5934 63.9534 59.8636 63.8934L54.2471 63.7696C52.3257 63.6579 48.6154 61.9123 46.4622 59.2495C44.1954 56.4524 44.9497 57.4191 43.6891 55.4685C41.8763 52.6635 38.906 47.1613 38.906 42.3076V41.9846C38.969 38.7299 38.9676 38.7344 38.9676 36.0851C38.9676 33.4359 38.969 33.4353 38.906 31.1199V25.4055C38.906 13.9739 46.8843 4.77075 56.7959 4.77075L56.8244 4.77103ZM59.7207 17.2553L53.9524 17.5827L46.6667 17.4462L44.2059 19.5778L43.832 22.9842L42.9876 26.4147L40.6169 28.9108L40.0451 32.4652L40.1265 43.4982L40.7488 47.2646L42.6665 51.2805L45.8596 56.4804L48.9472 59.9232L52.1403 61.8634L54.3746 62.038C55.1083 61.7485 56.7007 57.964 56.7453 56.2997L57.4798 56.2817C57.759 57.2574 57.7848 61.0565 58.995 62.035L62.3201 61.9224L64.8051 60.0051L69.0582 56.4543L70.635 53.9252L72.1567 50.4664L73.2079 47.0879L73.8963 43.0936L73.7885 32.0724L72.3349 27.5661L70.7405 25.2729C70.5468 23.9792 70.6115 23.1133 70.58 22.149C70.58 21.5444 70.5164 20.2062 70.3183 19.5979C70.1336 19.0834 69.6519 19.0406 69.6519 19.0406C69.1052 18.805 69.2481 18.5217 68.6689 18.3093C68.3402 18.1895 68.0134 18.0836 67.6859 17.9904C65.3219 17.3193 62.8946 17.2986 59.7185 17.2573L59.7207 17.2553Z" fill="#333333"/>
<path d="M62.7683 38.3084C62.039 38.3084 61.4489 37.6459 61.4489 36.8286C61.4489 36.0114 62.039 35.3489 62.7683 35.3489C63.4977 35.3489 64.09 36.0114 64.09 36.8286C64.09 37.6459 63.4977 38.3084 62.7683 38.3084Z" fill="black"/>
<path d="M52.1539 38.1373C51.4245 38.1373 50.8322 37.4748 50.8322 36.6575C50.8322 35.8403 51.4245 35.1777 52.1539 35.1777C52.8832 35.1777 53.4733 35.8403 53.4733 36.6575C53.4733 37.4748 52.8832 38.1373 52.1539 38.1373Z" fill="black"/>
<path d="M55.5 47.0139H59.7201C59.8222 47.0139 59.9048 47.0967 59.9048 47.1988V47.4866C59.9048 47.5886 59.8222 47.6713 59.7201 47.6713H55.5C55.3979 47.6713 55.3153 47.5886 55.3153 47.4866V47.1988C55.3153 47.0967 55.3979 47.0139 55.5 47.0139Z" fill="black"/>
<path d="M59.2169 31.4897H65.4646C65.6807 31.4897 65.8561 31.6649 65.8561 31.8809V32.4899C65.8561 32.7059 65.6807 32.881 65.4646 32.881H59.2169C59.0009 32.881 58.8255 32.7059 58.8255 32.4899V31.8809C58.8255 31.6649 59.0009 31.4897 59.2169 31.4897Z" fill="black"/>
<path d="M49.1229 31.3203H55.3486C55.5706 31.3203 55.751 31.5003 55.751 31.7223V32.3482C55.751 32.5702 55.5706 32.7502 55.3486 32.7502H49.1229C48.9009 32.7502 48.7204 32.5702 48.7204 32.3482V31.7223C48.7204 31.5003 48.9009 31.3203 49.1229 31.3203Z" fill="black"/>
<path d="M63.8824 50.7158C63.88 52.1064 63.2157 53.4394 62.0353 54.4221C60.8549 55.4047 59.255 55.9566 57.5868 55.9566C55.9187 55.9566 54.3187 55.4047 53.1383 54.4221C51.9579 53.4394 51.2936 52.1064 51.2912 50.7158H63.8824Z" fill="#F2F2F2"/>
<path d="M63.4492 50.855C63.447 52.0853 62.8209 53.2646 61.7085 54.1339C60.5961 55.0032 59.0883 55.4915 57.5162 55.4915C55.9442 55.4915 54.4364 55.0032 53.324 54.1339C52.2116 53.2646 51.5855 52.0853 51.5833 50.855H63.4492Z" fill="white"/>
<path d="M63.3435 50.0413C63.2804 50.0098 63.3448 49.8787 63.3457 49.8594C63.6204 49.5054 64.1697 49.6681 64.5728 50.013C65.0268 50.4035 64.9368 50.9832 64.6981 51.4664C64.6981 51.5025 64.3837 51.9517 64.2891 51.7524C64.226 51.6606 64.4825 50.9762 64.487 50.9215C64.5501 50.4698 64.5551 50.6625 64.3705 50.2529C64.0417 50.0155 63.8541 49.9849 63.4952 50.0412L63.3435 50.0413Z" fill="#808080"/>
<path d="M51.6889 50.1664C51.7519 50.1349 51.7519 50.0092 51.6889 49.9898C51.4141 49.6358 50.8912 49.7458 50.4881 50.0898C50.0346 50.4798 50.0292 50.9723 50.2638 51.4555C50.2638 51.4916 50.5292 51.6438 50.5607 51.6209C50.6373 51.5587 50.4972 51.1845 50.4837 51.1306C50.3982 50.6715 50.3987 50.6763 50.741 50.3826C51.0518 50.1178 51.1496 50.1251 51.5085 50.1814L51.6889 50.1664Z" fill="#808080"/>
<path d="M61.457 2.81372V2.81413C69.0513 2.81449 75.251 11.3791 76.6134 22.7196H38.419C39.7278 11.3782 46.0083 2.81372 53.604 2.81372H61.457Z" fill="#0044AA"/>
<path d="M55.7623 0H58.995C59.8177 0 60.4838 0.666988 60.4838 1.48967V3.49348C60.4838 4.31616 59.8177 4.98314 58.995 4.98314H55.7623C54.9395 4.98314 54.2735 4.31616 54.2735 3.49348V1.48967C54.2735 0.666988 54.9395 0 55.7623 0Z" fill="#0044AA"/>
<path d="M45.5661 2.59009H47.8861C48.5671 2.59009 49.1198 3.14201 49.1198 3.82289V10.1003C49.1198 10.7811 48.5671 11.3331 47.8861 11.3331H45.5661C44.8851 11.3331 44.3346 10.7811 44.3346 10.1003V3.82289C44.3346 3.14201 44.8851 2.59009 45.5661 2.59009Z" fill="#0044AA"/>
<path d="M66.7447 2.48828H69.6387C70.1613 2.48828 70.5844 2.91196 70.5844 3.43453V10.2851C70.5844 10.8077 70.1613 11.2314 69.6387 11.2314H66.7447C66.2221 11.2314 65.7969 10.8077 65.7969 10.2851V3.43453C65.7969 2.91196 66.2221 2.48828 66.7447 2.48828Z" fill="#0044AA"/>
<path opacity="0.61" d="M76.8816 22.5965L67.8916 18.1489H47.9544L38.6367 22.6515L76.8816 22.5965Z" fill="#002255"/>
<path opacity="0.65" d="M39.9692 30.3823L43.4306 32.418V32.4209C44.28 32.0129 45.6073 31.9374 47.1076 31.9386C47.9673 31.9394 48.8833 31.9657 49.7971 31.9657C52.2075 31.9657 54.2134 32.4958 55.3015 33.5311C55.3015 33.5311 56.2074 34.0692 56.7023 34.1887C56.9455 34.2509 57.2067 34.2509 57.4544 34.2158C57.958 34.137 58.919 33.7037 58.919 33.7037C60.5553 32.5868 62.5916 32.0596 64.5048 32.0424C65.4182 32.0424 66.335 32.0153 67.1944 32.0153C68.6644 32.0144 69.9695 32.0856 70.8207 32.4726L73.7587 32.0408V32.5726L71.8257 34.0459C71.7627 36.3878 69.4119 39.1979 65.8881 40.1434C64.4964 40.5168 62.5904 40.287 61.4942 40.0402C60.3701 39.7867 59.5307 38.9373 58.919 38.152C58.6894 37.8606 58.465 37.2822 58.3033 36.7257C58.1592 36.223 57.9082 35.9307 57.5578 35.7433C57.3011 35.6041 56.9604 35.5761 56.7023 35.7071C56.3736 35.8751 56.1997 36.1476 56.025 36.6506C55.8899 37.0465 55.5025 37.8666 55.3345 38.0779C54.7256 38.8632 53.8835 39.7128 52.7593 39.9661C51.6631 40.2129 49.7576 40.4428 48.3655 40.0693C45.4582 39.2891 43.3316 37.2391 42.6565 35.2302L39.9472 31.4858L39.9692 30.3823Z" fill="white"/>
<path d="M108.289 126.526L111.838 150.923L109.285 189.859C109.285 189.859 109.56 189.803 99.6174 189.795L95.3159 154.09L88.2216 132.473L108.289 126.526Z" fill="#002255"/>
<path opacity="0.999" d="M81.2055 77.2343L76.0464 73.3938L76.7193 201.533L82.6833 200.435L81.2055 77.2343Z" fill="#999999"/>
<path d="M6.77564 139.448C6.77564 139.448 -0.602627 149.167 0.851202 152.783C1.47273 154.324 3.49571 156.265 6.66459 157.546C10.9292 159.27 16.604 160.108 17.4381 160.108C18.8915 160.108 33.8205 156.615 33.8205 156.615C32.2613 154.34 32.9259 158.279 32.9452 145.13H21.3141L15.0147 140.481L6.77564 139.448Z" fill="#002255"/>
<path d="M292.439 180.707H284.068V197.178H292.439V180.707Z" fill="#374548"/>
<path opacity="0.95" d="M155.028 328.438V336.942L168.804 389.435L155.094 389.119V391.017L70.9054 391.358V389.489L59.6033 389.465L70.9054 344.802V328.435L155.028 328.438Z" fill="#0B2228"/>
<path opacity="0.4" d="M114.888 334.427V389.193H125.553L119.044 334.35L114.888 334.427Z" fill="black"/>
<path opacity="0.4" d="M74.6645 332.626H77.1505V390.218H58.986L74.6645 332.626Z" fill="black" stroke="black" stroke-width="0.201008"/>
<path opacity="0.4" d="M151.679 333.501H149.192V391.513H167.357L151.679 333.501Z" fill="black" stroke="black" stroke-width="0.201735"/>
<path d="M157.645 332.53V335.597H155.502L168.581 387.339H170.869V391.56H55.4253V387.339H57.7842L70.8637 335.597H68.8014V332.53H157.645ZM152.64 335.597H113.009V387.339H165.719L152.64 335.597ZM108.66 335.597H73.7261L60.6458 387.339H102.166L108.66 335.597Z" fill="#4D4D4D"/>
<path d="M71.5997 306.863H73.2187C74.0252 306.863 74.4019 307.375 74.6681 307.933L75.6658 310.03C75.9344 310.589 75.0224 311.1 74.2163 311.1H70.602C69.7951 311.1 68.886 310.588 69.1521 310.03L70.1498 307.933C70.4184 307.374 70.7932 306.863 71.5997 306.863Z" fill="#373E48"/>
<path d="M77.4276 309.271H67.4556C67.0171 309.271 66.6616 309.626 66.6616 310.064V316.831C66.6616 317.269 67.0171 317.625 67.4556 317.625H77.4276C77.8661 317.625 78.2216 317.269 78.2216 316.831V310.064C78.2216 309.626 77.8661 309.271 77.4276 309.271Z" fill="#A02C2C"/>
<path d="M90.8614 300.398H139.734C139.963 300.398 140.051 300.54 140.154 300.681L151.661 316.75C151.765 316.89 151.472 317.032 151.241 317.032H81.1722C80.9437 317.032 80.6667 316.895 80.7529 316.75L90.4425 300.681C90.5307 300.536 90.6309 300.398 90.8618 300.398H90.8614Z" fill="#00222B"/>
<path d="M160.732 314.428H66.218C64.8026 314.428 63.6553 315.575 63.6553 316.99V326.236C63.6553 327.651 64.8026 328.798 66.218 328.798H160.732C162.147 328.798 163.295 327.651 163.295 326.236V316.99C163.295 315.575 162.147 314.428 160.732 314.428Z" fill="#A02C2C"/>
<path d="M171.744 52.3039L168.068 49.5832C166.694 48.5666 164.754 48.8545 163.735 50.2263L150.826 67.6029C149.807 68.9747 150.094 70.9109 151.468 71.9275L155.144 74.6482C156.518 75.6648 158.458 75.3769 159.477 74.0051L172.386 56.6285C173.405 55.2567 173.118 53.3205 171.744 52.3039Z" fill="#0A2228" fill-opacity="0.952941"/>
<path d="M176.614 51.097L289.668 148.889C290.786 149.856 291.103 151.433 290.222 152.621L280.947 165.13C280.067 166.318 278.432 166.523 277.215 165.684L154.376 81.0825C153.159 80.2441 152.941 78.5377 153.822 77.3505L172.879 51.6488C173.759 50.4615 175.493 50.1277 176.611 51.0946L176.614 51.097Z" fill="#C83737"/>
<path d="M193.87 76.1132C191.348 75.4142 188.728 75.1642 186.161 75.3776C183.593 75.5909 181.128 76.2635 178.906 77.3568C176.684 78.4501 174.748 79.9427 173.21 81.7495C171.671 83.5563 170.56 85.6418 169.94 87.887C169.913 87.9771 169.888 88.0675 169.863 88.158C168.999 88.4963 168.326 89.1554 168.046 90.026L119.019 242.477C118.642 243.645 119.231 244.898 120.298 245.692C117.283 257.919 126.208 270.82 140.404 274.755C154.542 278.674 168.775 272.274 172.533 260.308C174.031 260.308 175.405 259.509 175.697 258.187L210.178 101.704C210.479 100.345 209.775 98.9399 208.436 98.1913C209.572 93.6891 208.683 88.855 205.959 84.727C203.235 80.599 198.893 77.5063 193.866 76.1128L193.87 76.1132Z" fill="#C83737"/>
<path d="M188.412 113.819C178.817 113.819 171.039 106.003 171.039 96.3624C171.039 86.7214 178.817 78.9058 188.412 78.9058C198.006 78.9058 205.785 86.7214 205.785 96.3624C205.785 106.003 198.006 113.819 188.412 113.819Z" fill="#0A2228" fill-opacity="0.952941"/>
<path d="M245.79 109.498L228.702 132.128C227.735 133.409 227.989 135.231 229.27 136.198L254.697 155.395C255.978 156.362 257.801 156.108 258.768 154.827L275.856 132.197C276.823 130.916 276.568 129.094 275.287 128.127L249.86 108.93C248.58 107.962 246.757 108.217 245.79 109.498Z" fill="#0A2228" fill-opacity="0.952941"/>
<path d="M298.587 178.542H277.716C277.496 178.542 277.317 178.721 277.317 178.941V180.311C277.317 180.531 277.496 180.709 277.716 180.709H298.587C298.807 180.709 298.986 180.531 298.986 180.311V178.941C298.986 178.721 298.807 178.542 298.587 178.542Z" fill="#1C2224"/>
<path d="M295.978 173.224H280.664V178.55H295.978V173.224Z" fill="#6F8A91"/>
<path d="M288.358 175.688C280.395 175.688 273.94 169.265 273.94 161.343C273.94 153.421 280.395 146.999 288.358 146.999C296.321 146.999 302.776 153.421 302.776 161.343C302.776 169.265 296.321 175.688 288.358 175.688Z" fill="#0A2228" fill-opacity="0.952941"/>
<path d="M72.2799 308.079L72.4603 289.192C72.4603 289.192 73.3574 264.625 77.9903 253.52C82.0989 243.671 86.4212 229.007 97.0223 227.776C105.882 226.748 107.858 228.829 116.748 230.081C127.076 231.535 134.17 227.051 139.472 217.167C152.521 192.849 160.565 138.574 170.255 131.569C183.466 122.018 178.057 145.599 200.884 144.287C223.644 142.978 222.967 115.595 228.358 119.574C244.699 131.632 256.535 139.145 268.33 150.071C273.192 154.575 266.248 160.107 264.499 165.116C262.844 169.858 262.599 178.525 269.741 183.78C276.291 188.6 283.963 189.503 283.963 189.503" stroke="#1A1A1A" stroke-width="4.68059"/>
<path d="M283.994 185.998L282.863 186.005C282.651 186.007 282.479 186.18 282.479 186.392L282.479 192.19C282.479 192.402 282.65 192.572 282.862 192.571L283.993 192.563C284.205 192.562 284.377 192.389 284.377 192.177L284.377 186.378C284.378 186.167 284.206 185.996 283.994 185.998Z" fill="#939DAC"/>
<path d="M144.932 237.207C143.71 237.207 142.489 237.291 141.277 237.457H63.174C63.174 237.457 63.1179 237.449 63.0978 237.449H51.3732C50.802 237.449 50.3418 238.054 50.3418 238.805V254.149C50.3418 254.9 50.804 255.504 51.3732 255.504H54.6252V301.014H145.943V293.279C153.041 293.011 159.762 289.941 164.691 284.714C169.62 279.488 172.374 272.512 172.374 265.253C172.374 257.816 169.483 250.682 164.336 245.423C159.189 240.164 152.208 237.209 144.929 237.209L144.932 237.207Z" fill="#C83737"/>
<path d="M143.231 288.011C131.097 288.011 121.261 277.987 121.261 265.623C121.261 253.258 131.097 243.234 143.231 243.234C155.364 243.234 165.2 253.258 165.2 265.623C165.2 277.987 155.364 288.011 143.231 288.011Z" fill="#0A2228" fill-opacity="0.952941"/>
<path d="M239.792 121.286L234.424 128.184C233.796 128.991 233.946 130.148 234.76 130.768L257.038 147.744C257.852 148.364 259.021 148.212 259.649 147.405L265.018 140.507C265.646 139.699 265.496 138.542 264.682 137.922L242.404 120.946C241.59 120.326 240.421 120.478 239.792 121.286Z" fill="#6F7C91"/>
<path d="M169.402 136.611L161.324 134.444C160.781 134.298 160.221 134.62 160.074 135.162L156.033 150.008C155.886 150.551 156.206 151.108 156.749 151.254L164.827 153.421C165.37 153.566 165.93 153.245 166.078 152.702L170.118 137.856C170.265 137.314 169.945 136.756 169.402 136.611Z" fill="#6F7C91"/>
<path d="M149.522 200.851L141.512 198.443C140.974 198.281 140.405 198.586 140.241 199.124L135.758 213.842C135.595 214.38 135.898 214.947 136.436 215.108L144.446 217.516C144.984 217.678 145.553 217.373 145.717 216.835L150.2 202.117C150.364 201.579 150.06 201.012 149.522 200.851Z" fill="#6F7C91"/>
<path opacity="0.15" d="M58.612 237.476L64.4074 301.522L75.7196 278.033C75.7196 278.033 81.0371 254.572 81.0371 252.742C81.0371 250.913 78.2725 240.343 78.2725 240.343L78.9247 236.937L58.612 237.476Z" fill="black"/>
<path opacity="0.2" d="M201.076 114.054L176.039 213.286L159.964 244.774L147.808 277.479L138.438 292.143L138.954 300.748H146.008L146.617 293.032L161.158 288.809L169.223 277.688L172.331 260.629L175.403 258.289L198.985 148.23L206.442 118.931L201.076 114.054Z" fill="black"/>
<path d="M280.283 450.016H266.869V386.776H280.283V450.016Z" fill="#ACABAB"/>
<path d="M273.578 450.017H238.143V445.641L273.578 441.265V450.017Z" fill="#ACABAB"/>
<path d="M273.577 450.017H309.01V445.641L273.577 441.265V450.017Z" fill="#ACABAB"/>
<path d="M166.549 450.016H153.136V386.776H166.549V450.016Z" fill="#ACABAB"/>
<path d="M159.84 450.017H124.407V445.641L159.84 441.265V450.017Z" fill="#ACABAB"/>
<path d="M159.84 450.017H195.272V445.641L159.84 441.265V450.017Z" fill="#ACABAB"/>
<path d="M200.175 454.844H119.503V450.017H200.175V454.844Z" fill="#58595B"/>
<path d="M313.915 454.844H233.244V450.017H313.915V454.844Z" fill="#58595B"/>
<path d="M296.894 383.196H136.531C124.631 383.196 114.984 373.549 114.984 361.649C114.984 349.749 124.631 340.102 136.531 340.102H296.894C308.795 340.102 318.443 349.749 318.443 361.649C318.443 373.549 308.795 383.196 296.894 383.196Z" fill="#343434"/>
<path d="M286.286 382.276H293.863V384.116H286.286V382.276Z" fill="#343434"/>
<path d="M275.681 382.276H283.257V384.116H275.681V382.276Z" fill="#343434"/>
<path d="M265.073 382.276H272.649V384.116H265.073V382.276Z" fill="#343434"/>
<path d="M254.467 382.276H262.045V384.116H254.467V382.276Z" fill="#343434"/>
<path d="M243.86 382.276H251.438V384.116H243.86V382.276Z" fill="#343434"/>
<path d="M233.256 382.276H240.832V384.116H233.256V382.276Z" fill="#343434"/>
<path d="M222.648 382.276H230.224V384.116H222.648V382.276Z" fill="#343434"/>
<path d="M212.041 382.276H219.618V384.116H212.041V382.276Z" fill="#343434"/>
<path d="M201.437 382.276H209.011V384.116H201.437V382.276Z" fill="#343434"/>
<path d="M190.832 382.276H198.406V384.116H190.832V382.276Z" fill="#343434"/>
<path d="M180.223 382.276H187.797V384.116H180.223V382.276Z" fill="#343434"/>
<path d="M169.615 382.276H177.191V384.116H169.615V382.276Z" fill="#343434"/>
<path d="M159.011 382.276H166.587V384.116H159.011V382.276Z" fill="#343434"/>
<path d="M148.403 382.276H155.979V384.116H148.403V382.276Z" fill="#343434"/>
<path d="M137.796 382.276H145.373V384.116H137.796V382.276Z" fill="#343434"/>
<path d="M127.871 380.351C127.871 380.351 127.971 380.399 128.15 380.486C128.325 380.577 128.583 380.696 128.907 380.803C129.549 381.027 130.382 381.387 131.272 381.574C131.713 381.678 132.146 381.821 132.566 381.886C132.986 381.95 133.379 382.01 133.715 382.06C134.385 382.185 134.84 382.189 134.84 382.189L134.689 384.024C134.689 384.024 134.195 384.016 133.465 383.883C133.098 383.827 132.669 383.762 132.212 383.692C131.755 383.618 131.283 383.467 130.802 383.352C129.834 383.145 128.922 382.758 128.223 382.512C127.873 382.394 127.592 382.265 127.4 382.166C127.204 382.072 127.094 382.019 127.094 382.019L127.869 380.35" fill="#343434"/>
<path d="M120.062 374.031C120.062 374.031 120.129 374.123 120.25 374.281C120.374 374.434 120.521 374.681 120.758 374.926C121.235 375.411 121.783 376.145 122.485 376.722C122.822 377.025 123.149 377.339 123.473 377.614C123.815 377.868 124.132 378.105 124.405 378.309C124.938 378.731 125.334 378.955 125.334 378.955L124.332 380.5C124.332 380.5 123.903 380.254 123.321 379.794C123.025 379.572 122.679 379.314 122.308 379.038C121.954 378.738 121.597 378.399 121.23 378.068C120.469 377.435 119.866 376.643 119.351 376.112C119.096 375.844 118.934 375.577 118.797 375.41C118.668 375.238 118.594 375.138 118.594 375.138L120.062 374.031" fill="#343434"/>
<path d="M116.167 364.779C116.167 364.779 116.225 365.228 116.346 365.897C116.541 366.548 116.687 367.45 117.019 368.295C117.173 368.719 117.332 369.146 117.476 369.544C117.635 369.937 117.827 370.287 117.969 370.596C118.114 370.902 118.239 371.157 118.323 371.336C118.402 371.517 118.473 371.61 118.473 371.61L116.862 372.5C116.862 372.5 116.791 372.399 116.7 372.202C116.604 372.008 116.469 371.729 116.311 371.395C116.157 371.06 115.949 370.678 115.776 370.249C115.618 369.816 115.447 369.351 115.278 368.887C114.92 367.966 114.753 366.984 114.546 366.275C114.412 365.546 114.35 365.056 114.35 365.056L116.169 364.779" fill="#343434"/>
<path d="M117.101 354.778C117.101 354.778 117.06 354.884 116.993 355.071C116.926 355.257 116.814 355.519 116.743 355.852C116.593 356.515 116.295 357.377 116.202 358.283C116.135 358.731 116.067 359.179 116.005 359.599C115.963 360.024 115.964 360.419 115.948 360.76C115.948 361.099 115.905 361.381 115.905 361.58C115.905 361.778 115.905 361.891 115.905 361.891L114.064 361.912C114.064 361.912 114.064 361.789 114.064 361.573C114.064 361.357 114.107 361.05 114.111 360.679C114.111 360.311 114.153 359.879 114.178 359.417C114.245 358.959 114.315 358.471 114.39 357.982C114.498 356.997 114.816 356.055 114.982 355.334C115.061 354.972 115.181 354.686 115.252 354.483C115.327 354.279 115.368 354.164 115.368 354.164L117.103 354.777" fill="#343434"/>
<path d="M122.663 346.414C122.663 346.414 122.316 346.707 121.833 347.187C121.604 347.438 121.34 347.732 121.054 348.047C120.912 348.204 120.763 348.367 120.613 348.532C120.479 348.711 120.345 348.892 120.208 349.074C119.937 349.437 119.666 349.801 119.413 350.142C119.192 350.505 118.985 350.845 118.809 351.134C118.634 351.425 118.485 351.667 118.383 351.838C118.296 352.016 118.249 352.119 118.249 352.119L116.618 351.266C116.618 351.266 116.673 351.156 116.764 350.961C116.877 350.776 117.035 350.511 117.226 350.195C117.418 349.878 117.644 349.509 117.885 349.114C118.16 348.742 118.455 348.347 118.75 347.95C118.899 347.753 119.045 347.555 119.191 347.361C119.353 347.182 119.515 347.004 119.669 346.832C119.981 346.489 120.272 346.17 120.521 345.897C121.045 345.374 121.422 345.054 121.422 345.054L122.661 346.414" fill="#343434"/>
<path d="M131.509 341.666C131.509 341.666 131.07 341.777 130.411 341.947C129.781 342.198 128.904 342.449 128.088 342.844C127.68 343.04 127.272 343.237 126.888 343.42C126.505 343.605 126.183 343.839 125.888 344.007C125.596 344.183 125.354 344.33 125.184 344.433C125.013 344.531 124.922 344.602 124.922 344.602L123.884 343.082C123.884 343.082 123.98 343.006 124.167 342.898C124.35 342.784 124.616 342.624 124.932 342.432C125.252 342.248 125.608 341.997 126.024 341.796C126.441 341.594 126.886 341.38 127.332 341.165C128.221 340.738 129.175 340.458 129.864 340.189C130.582 340.004 131.06 339.881 131.06 339.881L131.507 341.666" fill="#343434"/>
<path d="M141.836 341.022C141.836 341.022 139.94 341.022 138.046 341.022C137.573 341.022 137.099 341.022 136.655 341.022C136.229 341.043 135.831 341.06 135.49 341.077C135.152 341.093 134.866 341.106 134.668 341.118C134.468 341.122 134.361 341.139 134.361 341.139L134.168 339.308C134.168 339.308 134.289 339.292 134.505 339.283C134.722 339.275 135.031 339.258 135.4 339.238C135.767 339.221 136.197 339.205 136.657 339.182C137.101 339.182 137.575 339.182 138.048 339.182C139.942 339.182 141.836 339.182 141.836 339.182V341.022" fill="#343434"/>
<path d="M152.442 341.022H144.867V339.182H152.442V341.022Z" fill="#343434"/>
<path d="M163.047 341.022H155.473V339.182H163.047V341.022Z" fill="#343434"/>
<path d="M173.656 341.022H166.082V339.182H173.656V341.022Z" fill="#343434"/>
<path d="M184.261 341.022H176.685V339.182H184.261V341.022Z" fill="#343434"/>
<path d="M194.868 341.022H187.292V339.182H194.868V341.022Z" fill="#343434"/>
<path d="M205.473 341.022H197.897V339.182H205.473V341.022Z" fill="#343434"/>
<path d="M216.082 341.022H208.506V339.182H216.082V341.022Z" fill="#343434"/>
<path d="M226.689 341.022H219.112V339.182H226.689V341.022Z" fill="#343434"/>
<path d="M237.294 341.022H229.716V339.182H237.294V341.022Z" fill="#343434"/>
<path d="M247.901 341.022H240.322V339.182H247.901V341.022Z" fill="#343434"/>
<path d="M258.506 341.022H250.93V339.182H258.506V341.022Z" fill="#343434"/>
<path d="M269.113 341.022H261.536V339.182H269.113V341.022Z" fill="#343434"/>
<path d="M279.719 341.022H272.143V339.182H279.719V341.022Z" fill="#343434"/>
<path d="M290.328 341.022H282.752V339.182H290.328V341.022Z" fill="#343434"/>
<path d="M300.739 341.394C300.739 341.394 300.292 341.326 299.621 341.223C298.954 341.078 298.039 341.101 297.135 341.035C295.247 341.031 293.359 341.023 293.359 341.023V339.183C293.359 339.183 295.258 339.187 297.158 339.195C298.141 339.262 299.133 339.245 299.861 339.399C300.593 339.511 301.081 339.586 301.081 339.586L300.739 341.393" fill="#343434"/>
<path d="M309.857 345.614C309.857 345.614 309.496 345.343 308.952 344.936C308.429 344.496 307.619 344.074 306.853 343.589C306.045 343.186 305.24 342.765 304.604 342.527C303.966 342.293 303.54 342.137 303.54 342.137L304.132 340.395C304.132 340.395 304.595 340.565 305.291 340.819C305.983 341.081 306.864 341.536 307.744 341.978C308.58 342.502 309.456 342.969 310.028 343.445C310.62 343.889 311.014 344.184 311.014 344.184L309.857 345.614" fill="#343434"/>
<path d="M316.398 352.921C316.398 352.921 316.203 352.512 315.908 351.9C315.642 351.271 315.166 350.499 314.692 349.728C314.205 348.962 313.631 348.257 313.219 347.718C312.762 347.214 312.457 346.879 312.457 346.879L313.803 345.624C313.803 345.624 314.136 345.99 314.633 346.538C315.081 347.124 315.705 347.894 316.234 348.726C316.752 349.566 317.273 350.408 317.564 351.092C317.884 351.76 318.095 352.205 318.095 352.205L316.398 352.921Z" fill="#343434"/>
<path d="M317.424 363.581C317.424 363.581 317.467 363.127 317.483 362.448C317.554 361.769 317.479 360.863 317.436 359.958C317.386 359.053 317.186 358.164 317.103 357.489C316.932 356.831 316.82 356.392 316.82 356.392L318.6 355.923C318.6 355.923 318.72 356.402 318.903 357.119C318.999 357.854 319.213 358.823 319.271 359.808C319.321 360.794 319.395 361.78 319.32 362.519C319.278 363.258 319.257 363.75 319.257 363.75L317.426 363.581" fill="#343434"/>
<path d="M314.076 373.054C314.076 373.054 314.309 372.668 314.663 372.086C315.051 371.523 315.402 370.684 315.807 369.873C316.144 369.036 316.465 368.183 316.659 367.534C316.83 366.876 316.941 366.436 316.941 366.436L318.731 366.862C318.731 366.862 318.605 367.341 318.422 368.058C318.21 368.767 317.865 369.695 317.495 370.608C317.058 371.494 316.669 372.405 316.25 373.019C315.867 373.652 315.607 374.074 315.607 374.074L314.076 373.054" fill="#343434"/>
<path d="M306.644 379.827C306.644 379.827 306.748 379.779 306.915 379.672C307.086 379.57 307.327 379.421 307.617 379.245C307.9 379.061 308.26 378.88 308.599 378.626C308.941 378.371 309.302 378.099 309.665 377.828C310.388 377.28 311.026 376.631 311.532 376.178C311.989 375.674 312.295 375.339 312.295 375.339L313.668 376.562C313.668 376.562 313.335 376.928 312.838 377.474C312.29 377.969 311.592 378.675 310.806 379.271C310.41 379.567 310.014 379.862 309.642 380.14C309.272 380.416 308.886 380.616 308.575 380.816C308.258 381.008 307.994 381.167 307.81 381.28C307.627 381.396 307.515 381.447 307.515 381.447L306.644 379.827" fill="#343434"/>
<path d="M296.893 382.276C296.893 382.276 297.345 382.251 298.026 382.217C298.363 382.192 298.763 382.201 299.183 382.141C299.603 382.078 300.053 382.009 300.501 381.94C301.402 381.826 302.261 381.517 302.925 381.376C303.571 381.161 303.991 380.995 303.991 380.995L304.626 382.723C304.626 382.723 304.165 382.902 303.462 383.135C302.741 383.295 301.8 383.624 300.82 383.753C300.331 383.826 299.843 383.901 299.386 383.971C298.928 384.034 298.494 384.028 298.125 384.056C297.386 384.093 296.893 384.116 296.893 384.116V382.277" fill="#343434"/>
<path d="M296.056 381.995H137.361C126.124 381.995 117.014 372.887 117.014 361.649C117.014 350.413 126.124 341.302 137.361 341.302H296.056C307.293 341.302 316.403 350.413 316.403 361.649C316.403 372.887 307.293 381.995 296.056 381.995Z" fill="#808080"/>
<path d="M295.854 369.824C291.261 368.333 288.747 363.402 290.238 358.809C291.73 354.217 296.664 351.704 301.256 353.196C305.848 354.687 308.361 359.62 306.869 364.212C305.378 368.803 300.446 371.317 295.854 369.824Z" fill="#999999"/>
<path d="M132.166 369.824C127.573 368.333 125.059 363.402 126.551 358.809C128.042 354.217 132.976 351.704 137.568 353.196C142.161 354.687 144.673 359.62 143.182 364.212C141.69 368.803 136.759 371.317 132.166 369.824Z" fill="#B3B3B3"/>
<path d="M142.734 381.995H290.684V369.62H142.734V381.995Z" fill="#666666"/>
<path d="M287.542 394.892H145.875V372.5H287.542V394.892Z" fill="#ACABAB"/>
<path d="M166.551 394.892H153.138V401.96H166.551V394.892Z" fill="#919191"/>
<path d="M280.288 394.892H266.874V401.96H280.288V394.892Z" fill="#919191"/>
<path d="M166.552 442.092L195.279 445.641V446.452H166.552V442.092Z" fill="#919191"/>
<path d="M153.138 442.092L124.412 445.641V446.452H153.138V442.092Z" fill="#919191"/>
<path d="M280.286 442.092L309.012 445.641V446.452H280.286V442.092Z" fill="#919191"/>
<path d="M266.874 442.092L238.148 445.641V446.452H266.874V442.092Z" fill="#919191"/>
<path d="M166.551 372.552H153.138V347.001H166.551V372.552Z" fill="#ACABAB"/>
<path d="M280.288 372.552H266.874V347.001H280.288V372.552Z" fill="#ACABAB"/>
<path d="M275.206 372.552H271.956V352.113H275.206V372.552Z" fill="#606163"/>
<path d="M275.206 420.443H271.956V394.892H275.206V420.443Z" fill="#606163"/>
<path d="M161.469 372.552H158.219V352.113H161.469V372.552Z" fill="#606163"/>
<path d="M161.469 420.443H158.219V394.892H161.469V420.443Z" fill="#606163"/>
<path d="M280.106 383.697C280.106 387.3 277.185 390.221 273.582 390.221C269.979 390.221 267.057 387.3 267.057 383.697C267.057 380.094 269.979 377.173 273.582 377.173C277.185 377.173 280.106 380.094 280.106 383.697Z" fill="#666666"/>
<path d="M278.618 383.697C278.618 386.478 276.362 388.734 273.58 388.734C270.799 388.734 268.542 386.478 268.542 383.697C268.542 380.914 270.799 378.66 273.58 378.66C276.362 378.66 278.618 380.914 278.618 383.697Z" fill="#B3B3B3"/>
<path d="M271.792 386.797L270 383.697L271.792 380.595H275.374L277.163 383.697L275.374 386.797H271.792Z" fill="#333333"/>
<path d="M166.364 383.697C166.364 387.3 163.442 390.221 159.839 390.221C156.236 390.221 153.314 387.3 153.314 383.697C153.314 380.094 156.236 377.173 159.839 377.173C163.442 377.173 166.364 380.094 166.364 383.697Z" fill="#4D4D4D"/>
<path d="M164.878 383.697C164.878 386.478 162.622 388.734 159.84 388.734C157.058 388.734 154.804 386.478 154.804 383.697C154.804 380.914 157.058 378.66 159.84 378.66C162.622 378.66 164.878 380.914 164.878 383.697Z" fill="#B3B3B3"/>
<path d="M158.049 386.797L156.259 383.697L158.049 380.595H161.631L163.421 383.697L161.631 386.797H158.049Z" fill="#333333"/>
<g opacity="0.7">
<path opacity="0.7" d="M394.944 409.076H252.402C251.18 409.081 250.011 409.57 249.15 410.437C248.289 411.304 247.807 412.477 247.811 413.698V511.797C247.807 513.019 248.289 514.192 249.15 515.058C250.011 515.925 251.18 516.414 252.402 516.419H301.427V533.352H299.192C298.885 533.353 298.581 533.415 298.298 533.533C298.015 533.652 297.758 533.825 297.542 534.042C297.326 534.26 297.155 534.518 297.038 534.802C296.922 535.086 296.863 535.39 296.864 535.697V539.094H301.427V541.104H345.919V539.094H350.482V535.697C350.483 535.39 350.424 535.086 350.308 534.802C350.191 534.518 350.02 534.26 349.804 534.042C349.588 533.825 349.331 533.652 349.048 533.533C348.765 533.415 348.461 533.353 348.154 533.352H346.052V533.206H345.908V516.419H394.944C396.166 516.414 397.335 515.925 398.196 515.058C399.057 514.192 399.539 513.019 399.535 511.797V413.698C399.539 412.477 399.057 411.304 398.196 410.437C397.335 409.57 396.166 409.081 394.944 409.076Z" fill="url(#paint0_linear)"/>
</g>
<path d="M345.772 513.503H301.859V539.398H345.772V513.503Z" fill="#BDBDBD"/>
<g opacity="0.1">
<path opacity="0.1" d="M302.723 516.036H344.994C345.504 513.821 345.912 512.377 345.912 512.377H301.718C301.718 512.377 302.171 513.815 302.723 516.036Z" fill="black"/>
</g>
<path d="M253.47 409.921H394.16C394.755 409.921 395.345 410.038 395.895 410.265C396.445 410.493 396.943 410.827 397.364 411.248C397.785 411.669 398.12 412.168 398.348 412.718C398.575 413.268 398.692 413.857 398.692 414.452V501.118H248.937V414.452C248.937 413.857 249.056 413.268 249.284 412.718C249.512 412.168 249.845 411.669 250.266 411.248C250.687 410.827 251.187 410.493 251.736 410.265C252.286 410.038 252.874 409.921 253.47 409.921V409.921Z" fill="#535461"/>
<path d="M394.16 515.191H253.47C252.268 515.191 251.116 514.714 250.266 513.864C249.416 513.014 248.94 511.862 248.94 510.66V501.118H398.693V510.66C398.693 511.255 398.576 511.844 398.348 512.394C398.12 512.944 397.785 513.443 397.364 513.864C396.943 514.285 396.445 514.619 395.896 514.846C395.346 515.074 394.756 515.192 394.16 515.191V515.191Z" fill="#BDBDBD"/>
<path d="M323.815 510.688C325.214 510.688 326.348 509.554 326.348 508.155C326.348 506.756 325.214 505.622 323.815 505.622C322.416 505.622 321.283 506.756 321.283 508.155C321.283 509.554 322.416 510.688 323.815 510.688Z" fill="#535461"/>
<path d="M299.654 531.798H347.975C348.585 531.798 349.171 532.04 349.602 532.472C350.033 532.903 350.275 533.488 350.275 534.098V537.428H297.354V534.098C297.354 533.488 297.596 532.903 298.027 532.472C298.459 532.04 299.044 531.798 299.654 531.798Z" fill="#BDBDBD"/>
<g opacity="0.5">
<path opacity="0.5" d="M376.872 429.095H278.744C277.984 429.095 277.369 429.662 277.369 430.361V480.677C277.369 481.377 277.984 481.944 278.744 481.944H376.872C377.632 481.944 378.248 481.377 378.248 480.677V430.361C378.248 429.662 377.632 429.095 376.872 429.095Z" fill="url(#paint1_linear)"/>
</g>
<path d="M326.763 429.483H279.245C278.868 429.483 278.56 430.051 278.56 430.75V479.996C278.56 480.696 278.868 481.263 279.245 481.263H326.763C327.141 481.263 327.446 480.696 327.446 479.996V430.75C327.446 430.051 327.141 429.483 326.763 429.483Z" fill="#373E48"/>
<path d="M318.129 452.139H292.19C291.915 452.139 291.691 452.362 291.691 452.637C291.691 452.913 291.915 453.136 292.19 453.136H318.129C318.404 453.136 318.628 452.913 318.628 452.637C318.628 452.362 318.404 452.139 318.129 452.139Z" fill="#AA87DE"/>
<path d="M313.583 455.134H292.19C291.915 455.134 291.691 455.357 291.691 455.632C291.691 455.907 291.915 456.13 292.19 456.13H313.583C313.858 456.13 314.082 455.907 314.082 455.632C314.082 455.357 313.858 455.134 313.583 455.134Z" fill="#80FFE6"/>
<path d="M317.646 445.04H291.708C291.433 445.04 291.209 445.263 291.209 445.538C291.209 445.813 291.433 446.036 291.708 446.036H317.646C317.921 446.036 318.145 445.813 318.145 445.538C318.145 445.263 317.921 445.04 317.646 445.04Z" fill="#ABC837"/>
<path d="M317.646 448.032H291.708C291.433 448.032 291.209 448.255 291.209 448.53C291.209 448.805 291.433 449.028 291.708 449.028H317.646C317.921 449.028 318.145 448.805 318.145 448.53C318.145 448.255 317.921 448.032 317.646 448.032Z" fill="#55FFDD"/>
<path d="M317.646 459.007H291.708C291.433 459.007 291.209 459.23 291.209 459.505C291.209 459.78 291.433 460.003 291.708 460.003H317.646C317.921 460.003 318.145 459.78 318.145 459.505C318.145 459.23 317.921 459.007 317.646 459.007Z" fill="#D35FBC"/>
<path d="M317.877 461.999H291.656C291.408 461.999 291.209 462.199 291.209 462.446V462.547C291.209 462.795 291.408 462.995 291.656 462.995H317.877C318.124 462.995 318.326 462.795 318.326 462.547V462.446C318.326 462.199 318.124 461.999 317.877 461.999Z" fill="#E0E0E0"/>
<g opacity="0.1">
<path opacity="0.1" d="M345.911 531.657H301.998V532.502H345.911V531.657Z" fill="black"/>
</g>
<path d="M402 537.315H249.231V546.584H402V537.315Z" fill="#E0E0E0"/>
<path d="M399.383 546.959H251.659V550H399.383V546.959Z" fill="#E0E0E0"/>
<path opacity="0.1" d="M400.337 546.584H250.466V547.847H400.337V546.584Z" fill="black"/>
<path d="M317.964 439.662H292.025C291.75 439.662 291.527 439.885 291.527 440.161C291.527 440.436 291.75 440.659 292.025 440.659H317.964C318.24 440.659 318.463 440.436 318.463 440.161C318.463 439.885 318.24 439.662 317.964 439.662Z" fill="#C83737"/>
<path d="M313.418 442.657H292.025C291.75 442.657 291.527 442.881 291.527 443.156C291.527 443.431 291.75 443.654 292.025 443.654H313.418C313.693 443.654 313.917 443.431 313.917 443.156C313.917 442.881 313.693 442.657 313.418 442.657Z" fill="#8080FF"/>
<path d="M317.731 465.224H291.792C291.517 465.224 291.294 465.447 291.294 465.722C291.294 465.997 291.517 466.22 291.792 466.22H317.731C318.007 466.22 318.23 465.997 318.23 465.722C318.23 465.447 318.007 465.224 317.731 465.224Z" fill="#5FD3BC"/>
<path d="M313.185 468.219H291.792C291.517 468.219 291.294 468.442 291.294 468.717C291.294 468.992 291.517 469.215 291.792 469.215H313.185C313.46 469.215 313.684 468.992 313.684 468.717C313.684 468.442 313.46 468.219 313.185 468.219Z" fill="#8080FF"/>
<path d="M375.696 429.512H329.529C329.162 429.512 328.865 430.076 328.865 430.772V479.752C328.865 480.448 329.162 481.012 329.529 481.012H375.696C376.063 481.012 376.36 480.448 376.36 479.752V430.772C376.36 430.076 376.063 429.512 375.696 429.512Z" fill="#373E48"/>
<path d="M365.368 450.426H339.428C339.153 450.426 338.93 450.649 338.93 450.924C338.93 451.199 339.153 451.422 339.428 451.422H365.368C365.643 451.422 365.866 451.199 365.866 450.924C365.866 450.649 365.643 450.426 365.368 450.426Z" fill="#AA87DE"/>
<path d="M360.822 453.42H339.428C339.153 453.42 338.93 453.643 338.93 453.919C338.93 454.194 339.153 454.417 339.428 454.417H360.822C361.097 454.417 361.32 454.194 361.32 453.919C361.32 453.643 361.097 453.42 360.822 453.42Z" fill="#80FFE6"/>
<path d="M364.884 443.327H338.945C338.669 443.327 338.446 443.55 338.446 443.825C338.446 444.1 338.669 444.323 338.945 444.323H364.884C365.159 444.323 365.382 444.1 365.382 443.825C365.382 443.55 365.159 443.327 364.884 443.327Z" fill="#ABC837"/>
<path d="M364.884 446.319H338.945C338.669 446.319 338.446 446.542 338.446 446.817C338.446 447.092 338.669 447.315 338.945 447.315H364.884C365.159 447.315 365.382 447.092 365.382 446.817C365.382 446.542 365.159 446.319 364.884 446.319Z" fill="#55FFDD"/>
<path d="M364.884 457.293H338.945C338.669 457.293 338.446 457.516 338.446 457.791C338.446 458.067 338.669 458.29 338.945 458.29H364.884C365.159 458.29 365.382 458.067 365.382 457.791C365.382 457.516 365.159 457.293 364.884 457.293Z" fill="#D35FBC"/>
<path d="M365.115 460.285H338.894C338.647 460.285 338.446 460.486 338.446 460.733V460.834C338.446 461.081 338.647 461.282 338.894 461.282H365.115C365.362 461.282 365.563 461.081 365.563 460.834V460.733C365.563 460.486 365.362 460.285 365.115 460.285Z" fill="#E0E0E0"/>
<path d="M365.202 437.949H339.263C338.988 437.949 338.764 438.172 338.764 438.447C338.764 438.723 338.988 438.946 339.263 438.946H365.202C365.477 438.946 365.701 438.723 365.701 438.447C365.701 438.172 365.477 437.949 365.202 437.949Z" fill="#C83737"/>
<path d="M360.656 440.944H339.263C338.988 440.944 338.764 441.167 338.764 441.443C338.764 441.718 338.988 441.941 339.263 441.941H360.656C360.931 441.941 361.154 441.718 361.154 441.443C361.154 441.167 360.931 440.944 360.656 440.944Z" fill="#8080FF"/>
<path d="M364.969 463.511H339.03C338.755 463.511 338.532 463.734 338.532 464.009C338.532 464.284 338.755 464.507 339.03 464.507H364.969C365.244 464.507 365.468 464.284 365.468 464.009C365.468 463.734 365.244 463.511 364.969 463.511Z" fill="#5FD3BC"/>
<path d="M360.423 466.506H339.03C338.755 466.506 338.532 466.729 338.532 467.004C338.532 467.279 338.755 467.502 339.03 467.502H360.423C360.698 467.502 360.921 467.279 360.921 467.004C360.921 466.729 360.698 466.506 360.423 466.506Z" fill="#8080FF"/>
<path opacity="0.15" d="M392.25 418.093H259.128C258.097 418.093 257.262 418.904 257.262 419.905V491.9C257.262 492.901 258.097 493.713 259.128 493.713H392.25C393.281 493.713 394.117 492.901 394.117 491.9V419.905C394.117 418.904 393.281 418.093 392.25 418.093Z" fill="black"/>
<path d="M288.261 197.793C291.92 197.793 294.886 197.617 294.886 197.399C294.886 197.181 291.92 197.005 288.261 197.005C284.602 197.005 281.635 197.181 281.635 197.399C281.635 197.617 284.602 197.793 288.261 197.793Z" fill="#6F8A91"/>
</g>
<defs>
<linearGradient id="paint0_linear" x1="323.673" y1="541.101" x2="323.673" y2="409.076" gradientUnits="userSpaceOnUse">
<stop stop-color="#808080" stop-opacity="0.25"/>
<stop offset="0.54" stop-color="#808080" stop-opacity="0.12"/>
<stop offset="1" stop-color="#808080" stop-opacity="0.1"/>
</linearGradient>
<linearGradient id="paint1_linear" x1="53489.7" y1="14110.7" x2="53489.7" y2="4187.74" gradientUnits="userSpaceOnUse">
<stop stop-color="#808080" stop-opacity="0.25"/>
<stop offset="0.54" stop-color="#808080" stop-opacity="0.12"/>
<stop offset="1" stop-color="#808080" stop-opacity="0.1"/>
</linearGradient>
<clipPath id="clip0">
<rect width="402" height="550" fill="white"/>
</clipPath>
</defs>
</svg>
