<svg width="291" height="345" viewBox="0 0 291 345" fill="none" xmlns="http://www.w3.org/2000/svg">
<path fill-rule="evenodd" clip-rule="evenodd" d="M78.2976 47.3832H60.717C58.0962 47.3832 55.53 44.8289 55.53 42.1661V24.7754C55.53 22.2214 58.0962 19.6671 60.717 19.6671H78.2973C80.9727 19.6671 83.484 22.2214 83.484 24.7754V42.1661C83.484 44.8289 80.9729 47.3832 78.2976 47.3832V47.3832ZM69.5619 22.8191L57.3867 37.0032L63.3926 44.0679L69.5619 37.1663L75.6769 44.0679L81.7919 37.0032L69.5619 22.8191Z" fill="#3165AA"/>
<path fill-rule="evenodd" clip-rule="evenodd" d="M66.4501 58.687C65.1944 58.687 64.1569 57.6543 64.1569 56.459V52.7094C64.1569 51.4592 65.1944 50.4808 66.4501 50.4808H72.6742V52.0569H65.9039V57.1106H72.6739V58.6867H66.4501V58.687ZM57.878 58.687C56.6223 58.687 55.6394 57.6543 55.6394 56.459V50.4268H57.3318V57.1109H63.1741V58.687H57.878ZM81.246 58.687H76.1136C74.9125 58.687 73.875 57.6543 73.875 56.459V52.7094C73.875 51.4592 74.9125 50.4808 76.1136 50.4808H81.246C82.5014 50.4808 83.4843 51.4592 83.4843 52.7094V56.459C83.4843 57.6545 82.5017 58.687 81.246 58.687ZM75.6223 57.1109H81.7916V52.0571H75.6223V57.1109ZM53.2372 58.687H55.0387L50.5619 51.2418C50.2342 50.7527 49.8523 50.5353 49.3065 50.5353C48.7603 50.5353 48.3781 50.7527 48.0505 51.2418L43.5734 58.687H45.3749L46.3032 57.1654H52.3637L53.2372 58.687ZM47.177 55.6979L49.2516 52.2197L49.3065 52.1652L49.4156 52.2197L51.4359 55.6979H47.177ZM93.5848 58.687H95.3867L90.9098 51.2418C90.5822 50.7527 90.2 50.5353 89.6541 50.5353C89.108 50.5353 88.7255 50.7527 88.3982 51.2418L83.9213 58.687H85.7231L86.6512 57.1654H92.7116L93.5848 58.687ZM87.5244 55.6979L89.599 52.2197L89.6538 52.1652L89.763 52.2197L91.7833 55.6979H87.5244Z" fill="#3165AA" stroke="#3165AA" stroke-width="0.261096" stroke-miterlimit="2.613"/>
<path fill-rule="evenodd" clip-rule="evenodd" d="M69.5619 37.112L63.72 30.5361H75.4587L69.5619 37.112Z" fill="#3165AA"/>
<path d="M223.203 28.5193C201.877 28.5193 184.779 34.9118 184.779 42.9266C184.779 50.8932 202.018 57.3373 223.203 57.3373C244.391 57.3373 261.627 50.8726 261.627 42.9266C261.627 34.9806 244.391 28.5193 223.203 28.5193" fill="#003478"/>
<path d="M238.339 45.9786C238.349 46.0473 238.435 46.1092 238.518 46.1401C238.552 46.1504 238.566 46.171 238.531 46.2432C238.291 46.7518 238.074 47.0474 237.775 47.4942C237.5 47.9066 237.188 48.2263 236.813 48.5356C236.242 49.0064 235.455 49.5151 234.802 49.1748C234.514 49.0236 234.39 48.6181 234.393 48.2916C234.407 47.367 234.82 46.4219 235.576 45.4905C236.5 44.3564 237.521 43.7652 238.188 44.0848C238.882 44.4182 238.662 45.219 238.353 45.848C238.331 45.8881 238.326 45.9349 238.339 45.9786V45.9786ZM245.776 38.7955C245.824 38.7062 245.776 38.6409 245.663 38.6409H243.721C243.577 38.6409 243.501 38.6615 243.436 38.7955C243.212 39.2217 240.497 43.2875 239.992 44.078C239.909 44.1983 239.803 44.1811 239.793 44.0436C239.741 43.5762 239.336 43.0366 238.696 42.7788C238.236 42.5929 237.734 42.5336 237.242 42.607C236.349 42.7307 235.555 43.2016 234.854 43.7309C233.802 44.5316 232.895 45.5696 231.719 46.3394C231.077 46.7553 230.2 47.1196 229.613 46.5766C229.083 46.0851 229.142 44.9887 229.956 44.1433C230.042 44.0539 230.145 44.1295 230.128 44.2086C230.084 44.3924 230.09 44.5847 230.144 44.7657C230.198 44.9468 230.3 45.1103 230.438 45.2396C230.792 45.5558 231.297 45.5936 231.733 45.3771C231.977 45.2498 232.187 45.065 232.344 44.8387C232.501 44.6124 232.6 44.3513 232.634 44.078C232.663 43.8768 232.65 43.6719 232.596 43.476C232.542 43.2801 232.448 43.0974 232.32 42.9393C232.192 42.7813 232.034 42.6513 231.853 42.5574C231.673 42.4636 231.475 42.4079 231.273 42.3939C230.599 42.3458 229.949 42.5795 229.317 43.1019C229.019 43.3427 228.759 43.6278 228.547 43.9474C228.479 44.0436 228.379 44.0505 228.382 43.913C228.413 42.8063 227.956 42.1843 227.042 42.1636C226.334 42.1465 225.574 42.5314 224.983 43.0022C224.337 43.5212 223.77 44.212 223.162 44.8581C223.09 44.9406 223.024 44.9372 223 44.7825C223.004 44.0956 222.817 43.4212 222.461 42.8338C222.398 42.7425 222.303 42.6776 222.195 42.6516C222.088 42.6256 221.974 42.6403 221.876 42.6929C221.777 42.7445 221.436 42.8991 221.189 43.1019C221.065 43.205 221.017 43.3494 221.072 43.5384C221.399 44.6313 221.326 45.8754 220.883 46.9271C220.474 47.8894 219.684 48.759 218.752 49.0511C218.14 49.247 217.501 49.1508 217.106 48.6043C216.566 47.8551 216.783 46.5525 217.591 45.4665C218.305 44.511 219.336 43.9061 220.364 43.5143C220.484 43.4697 220.512 43.3906 220.478 43.2875L220.295 42.7857C220.199 42.5314 219.935 42.4936 219.615 42.528C218.866 42.6139 218.192 42.8716 217.525 43.2256C215.783 44.1605 214.906 45.9682 214.525 46.9374C214.395 47.3001 214.211 47.6409 213.978 47.9479C213.703 48.2916 213.36 48.6077 212.727 49.1611C212.693 49.1925 212.669 49.2341 212.66 49.2798C212.651 49.3255 212.656 49.373 212.676 49.4154C212.805 49.6511 212.969 49.8664 213.16 50.0547C213.264 50.1062 213.384 50.034 213.432 49.9997C213.872 49.7007 214.401 49.2264 214.659 48.9033C214.748 48.7933 214.845 48.8415 214.893 49.0064C215.009 49.4356 215.229 49.8297 215.534 50.1539C215.838 50.4781 216.218 50.7225 216.639 50.8658C218.237 51.4053 219.897 50.6252 221.148 49.2642C221.942 48.405 222.23 47.8448 222.536 47.4701C223.052 46.8275 224.072 45.3943 225.286 44.4766C225.732 44.1364 226.258 43.8786 226.523 44.0505C226.736 44.188 226.805 44.5076 226.465 45.1297C225.227 47.3911 223.406 50.0444 223.069 50.6905C223.007 50.8005 223.062 50.8898 223.179 50.8898H225.055C225.155 50.8829 225.2 50.8383 225.248 50.7695C226.196 49.2814 227.09 47.8654 228.049 46.4047C228.104 46.3154 228.152 46.3841 228.152 46.4219C228.176 46.7587 228.255 47.2227 228.461 47.5286C228.61 47.7783 228.821 47.9846 229.075 48.1269C229.328 48.2693 229.614 48.3426 229.905 48.3397C230.308 48.3452 230.707 48.2606 231.073 48.0922C231.472 47.9444 231.795 47.752 232.036 47.5767C232.18 47.477 232.208 47.6454 232.201 47.6695C231.981 48.8483 232.252 50.2471 233.428 50.8314C234.83 51.5188 236.373 50.5496 237.263 49.6697C237.349 49.5838 237.442 49.5941 237.452 49.7763C237.473 50.1131 237.624 50.5083 237.899 50.7902C238.641 51.5359 240.143 51.2369 241.649 50.0718C242.618 49.3261 243.628 48.2709 244.542 47.154C244.577 47.1127 244.604 47.044 244.535 46.9718C244.398 46.8275 244.195 46.6625 244.058 46.5319C243.996 46.4769 243.903 46.4941 243.852 46.5319C242.913 47.4255 242.068 48.4393 240.851 49.2814C240.439 49.5666 239.786 49.7969 239.49 49.4017C239.373 49.247 239.387 49.0339 239.501 48.7487C239.855 47.8654 245.481 39.2973 245.776 38.7921" fill="white"/>
<path d="M219.299 39.83C219.323 39.9572 219.374 39.9813 219.433 39.9675C219.753 39.8802 220.032 39.6801 220.216 39.4039C220.388 39.1564 220.467 38.799 220.299 38.6546C220.148 38.5275 219.904 38.5618 219.721 38.7234C219.567 38.8599 219.447 39.0319 219.374 39.2246C219.3 39.4174 219.274 39.6251 219.299 39.83V39.83ZM204.957 50.8589C202.86 50.8726 201.011 49.577 200.798 47.3292C200.675 46.1604 201.012 44.9896 201.736 44.0642C202.362 43.2497 203.42 42.5761 204.314 42.4111C204.603 42.3561 204.995 42.3905 205.156 42.583C205.41 42.8785 205.338 43.2016 205.084 43.3322C204.4 43.6793 203.579 44.2773 203.173 45.0919C202.986 45.438 202.897 45.8288 202.915 46.222C202.934 46.6151 203.06 46.9956 203.28 47.3224C204.122 48.594 206.472 48.6284 208.655 46.6006C209.198 46.1023 209.679 45.6246 210.17 45.0609C211.133 43.9611 211.452 43.559 212.731 41.7856C212.745 41.765 212.752 41.7375 212.745 41.7272C212.734 41.7031 212.717 41.6997 212.679 41.6928C211.827 41.7203 211.081 41.9746 210.359 42.5142C210.153 42.6654 209.851 42.6448 209.72 42.4455C209.576 42.2186 209.679 41.9231 209.92 41.7581C211.081 40.947 212.353 40.8027 213.652 40.5827C213.652 40.5827 213.741 40.5827 213.817 40.4899C214.35 39.8025 214.752 39.1873 215.319 38.4965C215.893 37.7954 216.632 37.1493 217.195 36.6647C217.986 35.9876 218.491 35.7608 219.003 35.479C219.141 35.4102 218.986 35.3243 218.945 35.3243C216.075 34.7847 213.095 34.0871 210.246 35.1422C208.273 35.8777 207.407 37.4449 207.823 38.4897C208.119 39.232 209.095 39.3489 210.009 38.9021C210.765 38.5343 211.47 37.9329 211.968 37.163C212.243 36.7334 212.831 37.0428 212.514 37.7885C211.679 39.7476 210.088 41.301 208.15 41.3663C206.496 41.4213 205.431 40.2047 205.434 38.7062C205.441 35.7505 208.734 33.8052 212.188 33.5131C216.353 33.1694 220.299 34.2795 224.433 34.7813C227.602 35.1628 230.64 35.1731 233.826 34.4376C234.204 34.3586 234.466 34.5991 234.445 34.9772C234.411 35.5271 233.984 36.0564 232.936 36.6269C231.744 37.2833 230.496 37.4827 229.19 37.493C226.042 37.5205 223.107 36.2901 220.065 35.6302C220.069 35.7642 220.106 35.9223 219.996 36.0083C218.312 37.2455 216.79 38.5068 215.769 40.2768C215.735 40.3181 215.755 40.3593 215.814 40.3524C216.7 40.3078 217.494 40.2837 218.323 40.215C218.464 40.2047 218.47 40.1703 218.46 40.0637C218.415 39.7369 218.45 39.4042 218.562 39.0937C218.673 38.7832 218.857 38.5041 219.099 38.28C219.649 37.7885 220.337 37.7301 220.794 38.0876C221.309 38.4897 221.265 39.2183 220.983 39.7613C220.856 40.0004 220.682 40.2115 220.472 40.3821C220.262 40.5527 220.019 40.6794 219.759 40.7546C219.759 40.7546 219.663 40.7752 219.677 40.8611C219.694 40.9986 220.319 41.3457 220.371 41.4385C220.423 41.5278 220.395 41.6619 220.302 41.765C220.266 41.8097 220.219 41.8459 220.167 41.8708C220.115 41.8957 220.058 41.9089 220 41.9093C219.893 41.9093 219.828 41.8715 219.691 41.7959C219.363 41.6208 219.071 41.3853 218.831 41.1017C218.749 41.002 218.708 40.9986 218.512 41.0123C217.618 41.0639 216.223 41.1979 215.281 41.3148C215.051 41.3423 215.016 41.3869 214.972 41.466C213.466 43.9474 211.858 46.6247 210.091 48.4187C208.201 50.3399 206.627 50.8451 204.957 50.8589Z" fill="white"/>
<path d="M223.203 30.877C203.582 30.877 187.68 36.2969 187.68 42.9335C187.68 49.5666 203.582 54.9899 223.203 54.9899C242.824 54.9899 258.726 49.5666 258.726 42.9335C258.726 36.3003 242.821 30.877 223.203 30.877V30.877ZM223.203 56.0829C202.867 56.0829 186.384 50.1955 186.384 42.9335C186.384 35.668 202.867 29.7841 223.203 29.7841C243.535 29.7841 260.019 35.668 260.019 42.9335C260.019 50.1955 243.535 56.0829 223.203 56.0829" fill="white"/>
<path fill-rule="evenodd" clip-rule="evenodd" d="M126.255 8.05054H161.565V40.7432H126.255V8.05054Z" fill="white"/>
<path fill-rule="evenodd" clip-rule="evenodd" d="M121.819 45.0572H165.061V2.57129H121.819V45.0572ZM143.941 12.3035H147.458L149.543 23.5486L151.526 12.324H155.104V28.8235H152.917V17.2512L150.565 28.8643H148.603L146.211 17.1082L146.231 28.9871H143.92L143.941 12.3035ZM131.878 20.0522V16.4539C131.878 15.6566 131.632 11.7106 136.11 11.6697C140.588 11.6289 140.567 14.9615 140.567 14.9615V17.4356H138.155C138.155 17.4356 138.543 14.1233 136.294 14.0414C134.434 13.98 134.577 16.1267 134.577 16.1267V24.9594C134.577 24.9594 134.433 27.0448 136.294 27.0448C138.4 27.0448 138.155 24.8778 138.155 24.8778V21.7291H136.56V20.0323H140.567V29.4167H138.707V28.4353L138.564 28.8235C138.236 29.3753 137.132 29.4164 136.11 29.4164C131.632 29.3753 131.878 25.4296 131.878 24.6323L131.878 20.0522ZM131.96 35.5092V31.6451H155.35V35.5092H131.96Z" fill="#2360A5"/>
<path d="M110.298 76.7144H118.678L121.769 88.4826H121.978C122.126 87.5024 122.275 86.4618 122.543 85.5127L125.067 76.7144H133.36L137.044 99.1221H129.17L128.069 86.8488H127.921C127.773 87.5913 127.624 88.3635 127.386 89.0769L124.147 99.1224H119.393L116.48 89.6411C116.242 88.6903 116.033 87.799 115.974 86.8485H115.706C115.648 87.7403 115.588 88.6609 115.499 89.5511L114.547 99.1219H106.672L110.298 76.7144Z" fill="#ACACAC"/>
<path d="M149.097 91.0094L148.146 87.0565C147.909 86.1046 147.759 85.1244 147.61 84.1736H147.314L145.827 91.0094H149.097ZM143.717 99.1222H135.099L142.885 76.7144H151.89L159.885 99.1222H151.266L150.524 96.3276H144.371L143.717 99.1222ZM182.022 85.9271C181.961 89.5827 181.961 92.6431 179.316 95.495C176.938 98.0819 173.285 99.4786 169.807 99.4786C162.973 99.4786 157.446 95.2585 157.446 88.0666C157.446 80.7567 162.824 76.3577 169.867 76.3577C173.76 76.3577 179.11 78.2898 180.862 82.1232L173.255 84.9175C172.631 83.7881 171.472 83.1934 170.164 83.1934C167.253 83.1934 165.647 85.6897 165.647 88.3934C165.647 90.8589 167.192 93.178 169.837 93.178C171.116 93.178 172.75 92.5833 173.135 91.2168H169.451V85.9271H182.022ZM182.63 76.7144H190.447L197.757 89.1371H197.994C197.668 87.2645 197.311 85.3327 197.311 83.4311V76.7144H205.096V99.1222H197.311L190.149 87.3543H189.912C190.178 88.8983 190.417 90.3552 190.417 91.8422V99.1222H182.63V76.7144H182.63Z" fill="#ACACAC"/>
<path d="M218.278 91.0093L217.326 87.0565C217.089 86.1045 216.94 85.1244 216.791 84.1736H216.494L215.008 91.0093H218.278ZM212.899 99.1221H204.281L212.066 76.7144H221.071L229.065 99.1221H220.447L219.704 96.3276H213.553L212.899 99.1221Z" fill="#ACACAC"/>
<path d="M94.2519 99.1442L102.695 99.1453L94.564 76.7751L88.383 76.7739L87.2471 79.8871L94.2519 99.1442Z" fill="black"/>
<path d="M88.5255 67.2559C86.2601 67.2559 84.424 69.0914 84.424 71.3583C84.424 73.6223 86.2601 75.4593 88.5255 75.4593C90.7909 75.4593 92.6265 73.6223 92.6265 71.358C92.6265 69.0914 90.7909 67.2559 88.5255 67.2559" fill="#E22E2F"/>
<path d="M70.3895 99.1442L82.9762 99.1431L76.6812 81.8636L70.3895 99.1442ZM84.404 99.1442L92.8473 99.1453L84.7141 76.7751L78.534 76.7739L77.3994 79.8871L84.404 99.1442Z" fill="black"/>
<g clip-path="url(#clip0)">
<path d="M98.0925 215.482C98.0925 215.482 99.0918 220.779 98.3923 221.178C97.8273 221.534 97.2926 221.935 96.7935 222.378L98.5922 224.876L102.889 225.775L106.986 221.978V218.18C106.986 218.18 105.787 216.282 105.987 215.083C106.187 213.884 98.0925 215.482 98.0925 215.482V215.482Z" fill="#DEAA87"/>
<path d="M91.1974 224.576L90.5978 224.876C90.5978 224.876 89.2987 225.375 88.6991 229.672C88.0995 233.969 86.7005 244.262 87.1002 244.562C87.4999 244.862 87.3001 246.86 87.3001 246.86L90.2981 231.171L91.1974 224.576Z" fill="#2F2E41"/>
<path d="M98.1923 326.904L96.0939 325.805L96.5936 320.909H100.191L102.289 325.505L98.1923 326.904Z" fill="#FBBEBE"/>
<path d="M98.2925 324.806C98.2925 324.806 94.9949 322.807 94.3953 323.507C93.7957 324.206 88.9991 329.303 88.9991 329.303C88.9991 329.303 81.6042 333.3 87.3002 333.9C92.9962 334.499 102.29 330.402 102.29 330.402C102.29 330.402 102.789 325.006 102.39 324.906C101.99 324.806 100.291 325.805 99.4916 325.506C99.0501 325.353 98.6428 325.115 98.2925 324.806Z" fill="black"/>
<path d="M105.587 329.902L100.191 328.703L101.39 324.506L105.587 325.805V329.902Z" fill="#FBBEBE"/>
<path d="M100.091 327.204C100.091 327.204 105.587 326.305 106.087 329.003C106.587 331.701 107.886 335.698 106.587 336.698C105.288 337.697 98.5923 338.996 98.4924 337.297C98.3925 335.598 99.1918 332.301 99.1918 332.301C99.1918 332.301 99.6915 329.702 99.3917 329.003C99.0919 328.303 100.091 327.204 100.091 327.204V327.204Z" fill="black"/>
<path d="M89.1135 259.726C89.1135 259.726 84.6021 288.331 88.2995 302.322C91.9969 316.312 94.5951 324.606 94.5951 324.606C94.5951 324.606 101.559 326.355 101.559 325.156C101.559 323.957 98.4923 302.621 97.8928 300.923C97.2932 299.224 96.294 298.624 97.1933 297.225C98.0927 295.826 99.5916 286.832 99.5916 286.832C99.5916 286.832 102.889 301.722 103.089 302.122C103.289 302.521 100.506 327.253 100.506 327.253C100.506 327.253 107.145 330.192 107.543 326.605C107.643 325.705 112.483 293.828 112.483 293.428C112.483 293.028 114.281 262.449 111.383 260.951C108.485 259.452 89.1135 259.726 89.1135 259.726V259.726Z" fill="#162D50"/>
<path d="M100.491 224.176V223.477L98.4923 220.179C98.4923 220.179 96.4936 220.379 96.1938 221.278C95.894 222.178 92.4964 229.373 92.4964 229.373L88.8989 261.65C88.8989 261.65 98.792 264.048 100.291 262.349C101.79 260.651 107.486 223.676 107.486 223.676L108.285 219.18C108.285 219.18 106.913 217.181 106.6 217.481C106.287 217.781 101.09 223.577 101.09 223.577L100.99 224.476L100.491 224.176Z" fill="#162D50"/>
<path d="M98.4424 219.53C98.4424 219.53 96.5937 219.08 95.9941 220.179C95.3945 221.278 95.3945 221.678 94.7949 222.078C94.1953 222.478 90.6977 224.276 90.4979 224.976C90.298 225.675 86.0011 247.76 86.0011 247.76C86.0011 247.76 83.9026 254.355 84.9019 258.852C85.9012 263.349 85.2016 264.248 87.3001 264.648C89.3987 265.048 89.6984 265.048 89.6984 264.448C89.6984 263.849 92.3965 243.563 94.2952 242.164C96.1939 240.765 95.6943 225.475 95.6943 225.475C95.6943 225.475 98.3924 222.178 98.3924 221.678C98.3924 221.178 98.8421 219.492 98.4424 219.53V219.53Z" fill="#0044AA"/>
<path d="M104.088 223.177C104.367 223.223 108.185 218.28 108.485 218.48C108.785 218.68 110.284 221.278 110.484 221.278C110.684 221.278 119.178 223.377 119.877 227.274C120.577 231.171 114.981 243.563 114.981 243.563C114.981 243.563 112.582 250.658 113.082 253.756C113.421 256.115 113.354 258.514 112.882 260.851C112.682 261.65 111.983 262.549 112.183 262.949C112.383 263.349 107.786 262.449 105.887 263.549C103.988 264.648 95.4944 265.447 95.9941 264.248C96.4937 263.049 96.7935 258.352 98.1925 253.356C99.5915 248.359 103.189 236.568 102.589 235.768C101.99 234.969 103.489 223.077 104.088 223.177Z" fill="#0044AA"/>
<path d="M118.678 226.075L119.977 227.274C119.977 227.274 121.476 229.872 121.276 231.071C121.076 232.271 125.473 250.358 123.675 250.958C121.876 251.557 117.579 254.555 117.079 255.354C116.58 256.154 115.38 257.553 114.581 257.953C113.782 258.352 112.982 259.052 112.482 258.652C111.983 258.252 110.884 250.058 111.683 249.758C112.482 249.459 113.282 248.559 114.081 248.559C114.881 248.559 115.38 247.76 115.38 247.06C115.38 246.361 114.781 242.164 114.781 242.164L113.482 232.271L118.678 226.075Z" fill="#162D50"/>
<path d="M102.798 200.332C105.394 200.332 107.455 203.64 107.485 207.739L107.491 208.688C107.499 208.688 107.506 208.688 107.514 208.688C107.593 208.688 107.671 208.726 107.744 208.799C107.817 208.873 107.884 208.981 107.94 209.117C107.996 209.253 108.04 209.414 108.07 209.591C108.101 209.769 108.116 209.959 108.116 210.152C108.116 210.344 108.101 210.534 108.07 210.712C108.04 210.889 107.996 211.051 107.94 211.187C107.884 211.323 107.817 211.43 107.744 211.504C107.671 211.578 107.593 211.615 107.514 211.615C107.537 215.707 105.206 219.056 102.613 219.056H100.747C98.2426 219.056 95.9042 215.178 95.7394 211.225C95.7113 211.235 95.683 211.24 95.6546 211.24C95.5755 211.24 95.4972 211.202 95.4241 211.128C95.351 211.055 95.2847 210.947 95.2288 210.811C95.1729 210.675 95.1285 210.514 95.0982 210.336C95.068 210.159 95.0524 209.968 95.0524 209.776C95.0524 209.584 95.068 209.393 95.0982 209.216C95.1285 209.038 95.1729 208.877 95.2288 208.741C95.2847 208.605 95.3511 208.497 95.4241 208.424C95.4972 208.35 95.5755 208.312 95.6546 208.312C95.6792 208.312 95.7038 208.316 95.7282 208.323L95.7279 207.74C95.7236 203.641 97.8185 200.333 100.415 200.333H102.799L102.798 200.332Z" fill="#DEAA87"/>
<path opacity="0.6" d="M95.5835 209.876C95.5117 209.869 95.4729 209.626 95.4969 209.333C95.5209 209.041 95.5986 208.809 95.6705 208.816C95.7423 208.823 95.7811 209.066 95.7571 209.358C95.733 209.651 95.6553 209.882 95.5835 209.876Z" fill="black"/>
<path opacity="0.6" d="M107.653 210.363C107.725 210.356 107.764 210.113 107.74 209.821C107.716 209.528 107.638 209.297 107.566 209.304C107.495 209.31 107.456 209.553 107.48 209.846C107.504 210.138 107.581 210.37 107.653 210.363Z" fill="black"/>
<path d="M101.549 199.679C104.818 199.679 107.286 202.721 107.48 206.485L107.563 208.104C107.521 209.167 107.568 209.155 107.568 210.06C107.567 210.965 107.568 210.985 107.551 211.787L107.394 213.1C107.302 213.876 106.945 215.225 106.477 216.112C106.08 216.862 105.536 217.536 104.789 218.206C103.758 219.03 103.46 219.2 102.56 219.18L100.708 219.139C100.074 219.103 98.8503 218.527 98.1399 217.649C97.3923 216.726 97.641 217.045 97.2252 216.401C96.6273 215.476 95.6473 213.661 95.6473 212.06V211.954C95.6678 210.88 95.6604 210.882 95.6604 210.008C95.6604 209.134 95.6604 209.134 95.6473 208.37V206.485C95.6473 202.715 98.2792 199.679 101.548 199.679L101.549 199.679ZM102.504 203.797L100.601 203.905L98.198 203.86L97.3862 204.563L97.2637 205.687L96.9852 206.818L96.2035 207.642L96.014 208.814L96.0401 212.453L96.2445 213.695L96.8776 215.02L97.9306 216.735L98.9486 217.871L100.002 218.511L100.739 218.568C100.981 218.473 101.506 217.225 101.521 216.676L101.763 216.669C101.857 216.99 101.863 218.244 102.263 218.566L103.359 218.529L104.179 217.897L105.582 216.726L106.102 215.892L106.604 214.751L106.95 213.636L107.178 212.319L107.143 208.684L106.664 207.197L106.138 206.441C106.074 206.014 106.095 205.728 106.085 205.41C106.079 205.211 106.071 204.77 106 204.569C105.939 204.399 105.78 204.385 105.78 204.385C105.599 204.307 105.647 204.214 105.455 204.144C105.347 204.104 105.24 204.069 105.131 204.039C104.352 203.817 103.551 203.811 102.503 203.797L102.504 203.797Z" fill="#333333"/>
<path d="M103.509 210.741C103.268 210.741 103.073 210.523 103.073 210.253C103.073 209.984 103.268 209.765 103.509 209.765C103.749 209.765 103.944 209.984 103.944 210.253C103.944 210.523 103.749 210.741 103.509 210.741Z" fill="black"/>
<path d="M100.009 210.685C99.768 210.685 99.573 210.466 99.573 210.197C99.573 209.927 99.768 209.709 100.009 209.709C100.249 209.709 100.444 209.927 100.444 210.197C100.444 210.466 100.249 210.685 100.009 210.685Z" fill="black"/>
<path d="M101.112 213.613H102.504C102.537 213.613 102.564 213.64 102.564 213.674V213.769C102.564 213.802 102.537 213.83 102.504 213.83H101.112C101.078 213.83 101.051 213.802 101.051 213.769V213.674C101.051 213.64 101.078 213.613 101.112 213.613Z" fill="black"/>
<path d="M102.338 208.492H104.399C104.47 208.492 104.528 208.55 104.528 208.621V208.822C104.528 208.893 104.47 208.951 104.399 208.951H102.338C102.267 208.951 102.209 208.893 102.209 208.822V208.621C102.209 208.55 102.267 208.492 102.338 208.492Z" fill="black"/>
<path d="M99.0079 208.436H101.062C101.135 208.436 101.194 208.496 101.194 208.569V208.775C101.194 208.849 101.135 208.908 101.062 208.908H99.0079C98.9347 208.908 98.8753 208.849 98.8753 208.775V208.569C98.8753 208.496 98.9347 208.436 99.0079 208.436Z" fill="black"/>
<path d="M103.877 214.834C103.876 215.292 103.657 215.732 103.267 216.056C102.878 216.38 102.35 216.562 101.8 216.562C101.25 216.562 100.722 216.38 100.333 216.056C99.9438 215.732 99.7247 215.292 99.7239 214.834H103.877Z" fill="#F2F2F2"/>
<path d="M103.733 214.88C103.732 215.286 103.526 215.675 103.159 215.961C102.792 216.248 102.294 216.409 101.776 216.409C101.257 216.409 100.76 216.248 100.393 215.961C100.026 215.675 99.8199 215.286 99.8192 214.88H103.733Z" fill="white"/>
<path d="M103.7 214.611C103.682 214.601 103.695 214.558 103.7 214.551C103.79 214.434 103.972 214.488 104.105 214.602C104.256 214.731 104.226 214.922 104.147 215.081C104.142 215.093 104.043 215.241 104.011 215.176C103.996 215.145 104.074 214.92 104.076 214.902C104.088 214.753 104.098 214.816 104.038 214.681C103.928 214.603 103.867 214.593 103.749 214.611L103.7 214.611Z" fill="#808080"/>
<path d="M99.8546 214.653C99.8725 214.643 99.8694 214.601 99.8642 214.594C99.774 214.477 99.6011 214.514 99.4682 214.627C99.3178 214.756 99.3157 214.918 99.3944 215.078C99.3996 215.09 99.4819 215.14 99.4917 215.132C99.5174 215.112 99.4709 214.988 99.4678 214.971C99.4391 214.819 99.4395 214.821 99.5525 214.724C99.6546 214.637 99.6878 214.639 99.806 214.658L99.8546 214.653Z" fill="#808080"/>
<path d="M103.076 199.034L103.076 199.034C105.581 199.034 107.626 201.859 108.075 205.6H95.4781C95.9096 201.859 97.9812 199.034 100.486 199.034H103.076Z" fill="#0044AA"/>
<path d="M101.198 198.105H102.264C102.536 198.105 102.756 198.325 102.756 198.597V199.258C102.756 199.529 102.536 199.749 102.264 199.749H101.198C100.927 199.749 100.707 199.529 100.707 199.258V198.597C100.707 198.325 100.927 198.105 101.198 198.105Z" fill="#0044AA"/>
<path d="M97.8355 198.96H98.6009C98.8255 198.96 99.0076 199.142 99.0076 199.367V201.437C99.0076 201.662 98.8255 201.844 98.6009 201.844H97.8355C97.611 201.844 97.4289 201.662 97.4289 201.437V199.367C97.4289 199.142 97.611 198.96 97.8355 198.96Z" fill="#0044AA"/>
<path d="M104.821 198.926H105.775C105.948 198.926 106.088 199.066 106.088 199.238V201.498C106.088 201.67 105.948 201.81 105.775 201.81H104.821C104.649 201.81 104.509 201.67 104.509 201.498V199.238C104.509 199.066 104.649 198.926 104.821 198.926Z" fill="#0044AA"/>
<path opacity="0.61" d="M108.164 205.559L105.199 204.092H98.6233L95.5498 205.577L108.164 205.559Z" fill="#002255"/>
<path opacity="0.65" d="M95.99 208.127L97.1314 208.798H97.1358C97.4161 208.664 97.8532 208.639 98.3479 208.639C98.6315 208.64 98.9336 208.648 99.2349 208.648C100.03 208.648 100.692 208.823 101.051 209.164C101.051 209.164 101.35 209.342 101.513 209.381C101.594 209.401 101.679 209.402 101.761 209.389C101.928 209.363 102.244 209.22 102.244 209.22C102.783 208.852 103.455 208.678 104.086 208.672C104.388 208.672 104.69 208.664 104.973 208.663C105.458 208.663 105.889 208.686 106.169 208.814L107.139 208.672L107.146 208.847L106.508 209.333C106.496 210.106 105.712 211.033 104.55 211.344C104.091 211.468 103.462 211.392 103.101 211.311C102.73 211.227 102.453 210.947 102.251 210.688C102.176 210.592 102.101 210.401 102.049 210.217C102.002 210.052 101.917 209.955 101.803 209.893C101.718 209.847 101.607 209.838 101.521 209.882C101.413 209.937 101.356 210.027 101.297 210.193C101.251 210.324 101.124 210.594 101.07 210.664C100.869 210.923 100.591 211.203 100.221 211.287C99.8591 211.368 99.2307 211.444 98.7717 211.321C97.8125 211.063 97.1107 210.387 96.8881 209.724L95.9944 208.489L95.99 208.127Z" fill="white"/>
<path opacity="0.999" d="M109.621 220.217L110.517 221.277L111.902 221.567L109.599 233.921L107.089 263.11L105.249 263.859L104.154 264.142L106.911 234.374L109.621 220.217Z" fill="#B3B3B3"/>
<path opacity="0.999" d="M92.9822 223.111L93.6977 222.722L95.194 221.63L91.9338 234.825L87.9222 264.745L87.2694 264.668L86.5015 264.422L90.2414 234.809L92.9822 223.111Z" fill="#B3B3B3"/>
<path opacity="0.5" d="M221.036 344.663C221.036 344.663 222.174 342.374 224.006 342.31L235.907 341.542C235.907 341.542 235.714 343.315 233.595 343.991L221.036 344.663Z" fill="#F2F2F2"/>
<path d="M24.2613 246.444H26.9443C27.6731 246.444 28.2598 247.031 28.2598 247.76V250.148C28.2598 250.876 27.6731 251.463 26.9443 251.463H24.2613C23.5326 251.463 22.9459 250.876 22.9459 250.148V247.76C22.9459 247.031 23.5326 246.444 24.2613 246.444Z" fill="#666666"/>
<path d="M26.4055 243.961H33.8006V253.092H26.4055V243.961Z" fill="#373E48"/>
<path d="M136.652 180.306L136.945 180.615C137.447 181.145 137.436 181.987 136.92 182.503L135.058 184.363C134.542 184.879 133.723 184.867 133.221 184.337L132.927 184.028C132.425 183.498 132.436 182.656 132.952 182.14L134.814 180.28C135.33 179.764 136.15 179.776 136.652 180.306Z" fill="#808080"/>
<path d="M132.097 174.043L136.645 178.844C137.373 179.612 137.357 180.833 136.609 181.581L133.91 184.278C133.162 185.026 131.973 185.009 131.245 184.24L126.697 179.44C125.969 178.671 125.986 177.45 126.734 176.703L129.432 174.006C130.181 173.258 131.369 173.275 132.097 174.043Z" fill="#333333"/>
<path opacity="0.95" d="M66.0589 255.96V259.766L72.0615 283.261L66.0869 283.12V283.969L29.401 284.122V283.286L24.4751 283.276L29.401 263.285V255.959L66.0589 255.96Z" fill="#0B2228"/>
<path opacity="0.4" d="M48.5674 258.64V283.153H53.2142L50.3777 258.605L48.5674 258.64Z" fill="black"/>
<path opacity="0.4" d="M31.0391 257.834H32.1221V283.612H24.2075L31.0391 257.834Z" fill="black" stroke="black" stroke-width="0.120195"/>
<path opacity="0.4" d="M64.5997 258.226H63.5167V284.192H71.4313L64.5997 258.226Z" fill="black" stroke="black" stroke-width="0.12063"/>
<path d="M67.1991 257.791V259.164H66.2656L71.9648 282.323H72.9622V284.212H22.6554V282.323H23.6834L29.3835 259.164H28.4842V257.791H67.1991ZM65.0179 259.164H47.7485V282.323H70.718L65.0179 259.164ZM45.8536 259.164H30.6303L24.9302 282.323H43.0233L45.8536 259.164Z" fill="#4D4D4D"/>
<path d="M73.8229 222.086H22.4971L34.0989 256.231L61.1724 256.133L73.8229 222.086Z" fill="#FF7F2A"/>
<path d="M39.2478 201.079H13.304C10.8929 201.079 8.95245 205.496 8.95245 210.983V217.543C8.95245 223.03 10.8929 227.447 13.304 227.447H39.2478C41.6589 227.447 43.5994 223.03 43.5994 217.543V210.983C43.5994 205.496 41.6589 201.079 39.2478 201.079Z" fill="#373E48"/>
<path d="M20.0657 151.112L32.8323 145.694C32.8323 145.694 63.5135 168.947 75.644 181.043C83.7578 189.134 76.0491 214.602 76.0491 214.602L66.146 238.978L20.0657 151.112Z" fill="#FF7F2A"/>
<path d="M49.7268 219.271C49.7268 221.434 50.1249 223.576 50.8989 225.574C51.6728 227.573 52.8068 229.389 54.2368 230.918C55.6668 232.448 57.3645 233.661 59.2329 234.489C61.1013 235.316 63.1042 235.742 65.1265 235.742C69.2108 235.742 73.1282 234.007 76.0162 230.918C78.9042 227.829 80.5262 223.64 80.5262 219.271C80.5262 214.903 78.9042 210.713 76.0162 207.625C73.1282 204.536 69.2108 202.8 65.1265 202.8C63.1042 202.8 61.1013 203.226 59.2329 204.054C57.3645 204.882 55.6668 206.095 54.2368 207.624C52.8068 209.154 51.6728 210.97 50.8989 212.968C50.1249 214.966 49.7268 217.108 49.7268 219.271" fill="#373E48"/>
<path d="M124.921 164.746L129.015 169.061L121.835 176.249L117.741 171.934L124.921 164.746Z" fill="#FF7F2A"/>
<path d="M130.659 167.248L132.848 169.555L122.164 180.25L119.975 177.943L130.659 167.248Z" fill="#FF7F2A"/>
<path d="M131.8 170.355L133.989 172.662L125.18 181.48L122.991 179.173L131.8 170.355Z" fill="#1C2224"/>
<path d="M26.9021 126.613C23.8553 125.838 20.795 127.733 20.0398 130.862L17.6093 140.937C16.8545 144.066 18.6999 147.209 21.7466 147.985L36.9087 151.843C39.2457 152.438 41.5895 151.46 42.8959 149.561L47.7417 150.794L51.049 137.087L46.3644 135.895C46.2759 133.367 44.5799 131.111 42.0641 130.471L26.9021 126.613Z" fill="#FF7F2A"/>
<path d="M117.742 150.993C115.941 150.511 114.046 150.534 112.254 151.062C110.461 151.589 108.837 152.601 107.549 153.993L49.3764 138.411L46.8486 148.368L104.928 163.925C105.363 165.829 106.293 167.573 107.618 168.97C108.942 170.368 110.611 171.366 112.445 171.857C113.772 172.212 115.154 172.295 116.512 172.099C117.871 171.903 119.18 171.433 120.364 170.715C121.549 169.998 122.585 169.047 123.414 167.918C124.243 166.788 124.849 165.501 125.197 164.131C125.545 162.761 125.628 161.335 125.442 159.933C125.255 158.531 124.803 157.182 124.111 155.962C123.419 154.742 122.499 153.675 121.407 152.823C120.314 151.97 119.069 151.349 117.742 150.993V150.993Z" fill="#FF7F2A"/>
<path d="M108.212 157.198C107.134 159.128 106.839 161.416 107.394 163.558C107.949 165.699 109.308 167.52 111.172 168.618C112.095 169.162 113.113 169.513 114.17 169.65C115.227 169.787 116.301 169.707 117.332 169.416C118.362 169.124 119.328 168.627 120.174 167.953C121.021 167.278 121.732 166.438 122.266 165.482C122.8 164.527 123.147 163.473 123.287 162.382C123.428 161.291 123.359 160.183 123.084 159.122C122.809 158.062 122.334 157.069 121.686 156.201C121.038 155.332 120.229 154.606 119.307 154.062C117.443 152.963 115.227 152.677 113.146 153.265C111.066 153.853 109.291 155.268 108.212 157.198" fill="#373E48"/>
<path d="M15.0649 149.23C15.0649 152.482 16.3481 155.6 18.6324 157.9C20.9168 160.199 24.015 161.491 27.2455 161.491C28.8452 161.491 30.4289 161.174 31.9068 160.558C33.3847 159.942 34.7275 159.039 35.8587 157.9C36.9898 156.761 37.8868 155.41 38.4989 153.922C39.1111 152.434 39.4261 150.84 39.4261 149.23C39.4261 147.62 39.1111 146.025 38.4989 144.538C37.8868 143.05 36.9898 141.698 35.8587 140.56C34.7275 139.421 33.3847 138.518 31.9068 137.902C30.4289 137.286 28.8452 136.968 27.2455 136.969C24.015 136.969 20.9168 138.26 18.6324 140.56C16.3481 142.859 15.0649 145.978 15.0649 149.23Z" fill="#373E48"/>
<path opacity="0.1" d="M20.0127 130.443L34.7571 131.895L42.5321 134.396L46.2031 134.623C46.2031 134.623 45.7169 133.184 45.2678 132.589C44.7088 131.847 43.155 130.774 43.155 130.774L26.3789 126.437C26.3789 126.437 24.4112 126.436 23.5163 126.788C22.6188 127.14 21.1713 128.482 21.1713 128.482L20.0127 130.443Z" fill="#1A1A1A"/>
<path opacity="0.5" d="M167.782 273.64C167.782 273.64 168.996 271.2 170.949 271.132L183.634 270.331C183.634 270.331 183.428 272.221 181.169 272.942L167.782 273.64Z" fill="#ECECEC"/>
<path opacity="0.25" d="M23.058 247.172L23.9215 246.498L26.3814 246.442L26.4203 243.982L29.9044 243.942L24.1944 227.483L15.6854 226.01L43.7757 215.032L43.2163 222.043L50.1126 222.172C50.1126 222.172 47.4717 225.02 44.9585 226.643C44.0448 227.232 42.0916 228.568 38.2876 228.67C34.1326 228.783 26.6488 227.754 27.003 230.016C28.0481 236.687 30.6105 245.749 30.6105 245.749L27.8209 248.089L26.3281 248.117L23.0056 248.713L23.058 247.172Z" fill="#1A1A1A"/>
<path d="M23.1366 248.76C23.1366 248.76 12.699 249.317 9.25097 243.548C6.62542 239.155 5.18385 233.032 7.20837 228.331C9.94007 221.989 24.022 216.227 24.022 216.227L47.1159 207.996C52.9129 205.684 59.1932 202.656 56.7523 196.419C48.4724 182.51 36.301 174.585 38.1303 167.068C39.1111 163.945 45.7164 163.619 48.0656 159.933C52.5685 152.865 51.2006 146.042 56.4906 146.107C81.3328 150.535 96.3892 154.317 101.384 160.606C105.768 166.127 103.383 176.765 111.202 182.886C114.849 185.742 119.952 186.378 123.798 185.323C126.674 184.533 129.366 182.076 129.366 182.076" stroke="#373E48" stroke-width="2.69614"/>
<path opacity="0.25" d="M38.6403 153.762C38.6403 153.762 64.7477 173.201 71.9439 187.158C74.6381 192.383 73.8101 202.171 73.9535 205.57C73.9812 206.217 75.4811 207.85 75.4811 207.85L74.7836 212.127L76.8859 220.763L74.7589 227.819L65.4773 232.981L66.8227 235.575C66.8227 235.575 65.8676 236.06 66.0737 237.85C66.2933 239.762 64.45 241.397 63.1604 243.448C59.1861 249.767 57.3327 256.181 57.3327 256.181L61.2276 256.216L68.9207 235.21L72.0146 233.991C72.0146 233.991 74.8861 232.214 76.0211 230.992C77.2883 229.627 78.2895 227.993 79.0289 226.283C79.7935 224.517 80.2715 222.658 80.4483 220.685C80.5924 219.086 80.5307 217.344 80.1824 215.777C79.8274 214.184 78.5514 211.161 78.5514 211.161L77.394 209.402C77.394 209.402 78.375 204.311 78.7237 201.743C78.9768 199.88 79.2039 198.007 79.276 196.128C79.3561 194.038 79.3469 191.936 79.141 189.855C79.0289 188.71 78.5393 186.456 78.5393 186.456C78.5393 186.456 77.7537 183.615 76.7724 182.449C73.1519 178.146 64.8465 171.109 64.8465 171.109L40.4369 151.511L39.1854 151.885L38.6403 153.762Z" fill="#333333"/>
<path opacity="0.5" d="M39.0782 151.943L40.7504 151.434C40.7504 151.434 41.5646 150.943 41.9341 150.646C42.6807 150.046 42.9428 149.552 42.9428 149.552L47.6513 150.764L48.1644 148.849L39.226 147.384L36.3312 153.129L26.8412 158.381L22.3755 160.391L25.4648 161.365L26.3145 163.019C26.3145 163.019 31.3439 162.581 33.4524 161.345C34.8521 160.525 36.7672 159.215 37.7318 157.578C38.3934 156.454 38.5689 153.756 38.5689 153.756L39.0782 151.943Z" fill="#333333"/>
<path opacity="0.25" d="M117.746 171.964L120.159 170.984L125.281 172.572L122.295 176.454L122.373 180.158L120.123 177.985L121.783 176.177L117.746 171.964Z" fill="#1A1A1A"/>
<path opacity="0.997" d="M126.454 181.686L127.043 181.127C127.491 180.702 128.193 180.721 128.618 181.169L130.099 182.729C130.524 183.176 130.505 183.879 130.058 184.304L129.468 184.863C129.021 185.288 128.318 185.27 127.893 184.822L126.413 183.262C125.988 182.814 126.006 182.111 126.454 181.686H126.454Z" fill="#666666"/>
<path opacity="0.997" d="M58.3987 148.063L59.2514 144.577C59.4614 143.719 60.3215 143.197 61.1798 143.407L93.3747 151.282C94.2331 151.492 94.7551 152.352 94.5452 153.21L93.6925 156.696C93.4825 157.555 92.6224 158.077 91.764 157.867L59.5692 149.992C58.7108 149.782 58.1887 148.922 58.3987 148.063Z" fill="#666666"/>
<path opacity="0.997" d="M36.4713 171.925L38.3322 170.606C39.0533 170.095 40.045 170.264 40.5559 170.986L42.958 174.376C43.4689 175.097 43.2997 176.089 42.5787 176.6L40.7177 177.918C39.9967 178.429 39.0049 178.26 38.494 177.539L36.0919 174.149C35.581 173.428 35.7502 172.436 36.4713 171.925Z" fill="#666666"/>
<path opacity="0.997" d="M49.7241 189.302L51.585 187.984C52.3061 187.473 53.2979 187.642 53.8087 188.363L56.2108 191.753C56.7217 192.474 56.5525 193.466 55.8315 193.977L53.9705 195.296C53.2495 195.807 52.2577 195.637 51.7468 194.916L49.3447 191.526C48.8338 190.805 49.003 189.813 49.7241 189.302V189.302Z" fill="#666666"/>
<path opacity="0.3" d="M58.4993 148.059L59.352 144.573C59.562 143.714 60.422 143.192 61.2804 143.402L93.4753 151.277C94.3337 151.487 94.8557 152.347 94.6458 153.205L93.7931 156.692C93.5831 157.55 92.723 158.072 91.8646 157.862L59.6697 149.987C58.8113 149.777 58.2893 148.917 58.4993 148.059Z" fill="#4D4D4D"/>
<path d="M225.896 215.957H272.27L261.787 246.807L237.326 246.718L225.896 215.957Z" fill="#FFCC00"/>
<path d="M272.344 235.183H269.6C268.855 235.183 268.255 235.783 268.255 236.528V238.97C268.255 239.715 268.855 240.315 269.6 240.315H272.344C273.09 240.315 273.69 239.715 273.69 238.97V236.528C273.69 235.783 273.09 235.183 272.344 235.183Z" fill="#666666"/>
<path d="M270.151 232.643H262.588V241.981H270.151V232.643Z" fill="#373E48"/>
<path d="M153.16 231.485L153.102 231.933C153.018 232.578 153.47 233.169 154.115 233.257L156.441 233.575C157.086 233.663 157.672 233.214 157.756 232.569L157.814 232.121C157.898 231.476 157.446 230.885 156.801 230.797L154.475 230.479C153.83 230.391 153.244 230.84 153.16 231.485H153.16Z" fill="#808080"/>
<path d="M153.177 224.409L152.388 230.496C152.267 231.432 152.922 232.288 153.857 232.416L157.23 232.876C158.165 233.004 159.015 232.354 159.136 231.418L159.925 225.331C160.046 224.395 159.391 223.538 158.455 223.411L155.083 222.95C154.148 222.822 153.298 223.473 153.177 224.409Z" fill="#333333"/>
<path opacity="0.95" d="M232.912 246.562V250L227.489 271.229L232.886 271.101V271.868L266.033 272.006V271.251L270.482 271.244L266.033 253.182V246.563L232.912 246.562Z" fill="#0B2228"/>
<path opacity="0.4" d="M248.716 248.983V271.131H244.517L247.08 248.952L248.716 248.983Z" fill="black"/>
<path opacity="0.4" d="M264.553 248.255H263.574V271.546H270.725L264.553 248.255Z" fill="black" stroke="black" stroke-width="0.108597"/>
<path opacity="0.4" d="M234.231 248.609H235.21V272.069H228.058L234.231 248.609Z" fill="black" stroke="black" stroke-width="0.10899"/>
<path d="M231.882 248.216V249.457H232.725L227.576 270.381H226.675V272.088H272.128V270.381H271.198L266.049 249.457H266.861V248.216H231.882ZM233.852 249.457H249.456V270.381H228.703L233.852 249.457ZM251.168 249.457H264.922L270.072 270.381H253.725L251.168 249.457Z" fill="#4D4D4D"/>
<path d="M257.136 196.977H280.576C282.754 196.977 284.508 200.967 284.508 205.925V211.852C284.508 216.809 282.754 220.8 280.576 220.8H257.136C254.958 220.8 253.204 216.809 253.204 211.852V205.925C253.204 200.967 254.958 196.977 257.136 196.977Z" fill="#373E48"/>
<path d="M226.464 147.212L215.216 152.765C215.216 152.765 211.944 187.989 212.551 203.666C212.957 214.152 234.289 224.185 234.289 224.185L256.228 232.043L226.464 147.212Z" fill="#FFCC00"/>
<path d="M252.179 212.564C252.179 216.511 250.713 220.296 248.104 223.087C245.494 225.878 241.955 227.446 238.265 227.446C234.575 227.446 231.036 225.878 228.427 223.087C225.817 220.296 224.351 216.511 224.351 212.564C224.351 208.617 225.817 204.832 228.427 202.041C231.036 199.25 234.575 197.683 238.265 197.683C241.955 197.683 245.494 199.25 248.104 202.041C250.713 204.832 252.179 208.617 252.179 212.564" fill="#373E48"/>
<path d="M153.491 213.74L152.788 219.134L161.767 220.369L162.47 214.974L153.491 213.74Z" fill="#FFCC00"/>
<path d="M150.646 218.73L150.27 221.615L163.63 223.452L164.006 220.567L150.646 218.73Z" fill="#1C2224"/>
<path d="M151.449 221.615L151.073 224.5L162.088 226.014L162.464 223.129L151.449 221.615Z" fill="#1C2224"/>
<path d="M152.023 198.81C153.329 197.722 154.896 197.013 156.562 196.759C158.228 196.504 159.932 196.712 161.498 197.362L203.669 162.2L209.374 169.419L167.271 204.524C167.606 206.257 167.477 208.048 166.897 209.706C166.317 211.364 165.307 212.826 163.977 213.935C163.016 214.737 161.909 215.336 160.72 215.697C159.531 216.057 158.283 216.174 157.048 216.038C155.813 215.903 154.614 215.519 153.521 214.909C152.428 214.298 151.461 213.473 150.676 212.48C149.891 211.487 149.303 210.345 148.946 209.121C148.589 207.896 148.47 206.613 148.595 205.344C148.72 204.074 149.087 202.844 149.675 201.723C150.263 200.602 151.061 199.612 152.023 198.81V198.81Z" fill="#FFCC00"/>
<path d="M162.12 200.253C163.71 201.426 164.786 203.194 165.109 205.169C165.432 207.144 164.978 209.163 163.845 210.783C162.712 212.402 160.994 213.489 159.069 213.805C157.144 214.12 155.169 213.639 153.578 212.465C152.791 211.884 152.122 211.151 151.609 210.308C151.096 209.464 150.75 208.527 150.59 207.549C150.429 206.571 150.459 205.572 150.676 204.609C150.892 203.646 151.293 202.737 151.854 201.935C152.986 200.316 154.704 199.229 156.63 198.913C158.555 198.598 160.53 199.079 162.12 200.253" fill="#373E48"/>
<path d="M217.857 143.864C220.081 142.056 223.288 142.439 225.048 144.722L230.716 152.075C232.476 154.359 232.103 157.653 229.88 159.46L218.815 168.458C217.109 169.845 214.826 169.941 213.06 168.881L209.523 171.757L201.812 161.753L205.23 158.974C204.381 156.861 204.955 154.354 206.792 152.861L217.857 143.864Z" fill="#FFCC00"/>
<path d="M233.486 159.235C233.486 160.69 233.201 162.131 232.648 163.475C232.095 164.819 231.284 166.04 230.262 167.069C229.24 168.098 228.027 168.914 226.692 169.47C225.356 170.027 223.925 170.314 222.48 170.314C219.561 170.314 216.762 169.146 214.698 167.069C212.634 164.991 211.475 162.174 211.475 159.235C211.475 156.297 212.634 153.48 214.698 151.402C216.762 149.324 219.561 148.157 222.48 148.157C223.925 148.157 225.356 148.444 226.692 149C228.027 149.557 229.24 150.373 230.262 151.402C231.284 152.431 232.095 153.652 232.648 154.996C233.201 156.34 233.486 157.781 233.486 159.235" fill="#373E48"/>
<path opacity="0.2" d="M237.636 246.533L243.872 246.563L236.692 227.129L241.924 220.133L224.284 210.299C224.284 210.299 218.056 205.496 216.786 201.987C213.135 191.906 216.555 168.419 216.555 168.419L214.1 166.373L212.626 191.32L212.588 206.186L215.786 210.752L219.041 214.138L225.789 219.411L228.508 223.409L237.636 246.533Z" fill="#1A1A1A"/>
<path opacity="0.25" d="M256.661 220.772L267.428 223.842L265.473 233.526L268.555 237.145L270.155 239.959L273.598 239.689L273.56 236.664L272.749 235.319L269.871 235.096V232.783L266.736 232.564L270.553 220.905L266.53 218.667L256.825 196.894L254.46 199.062L253.077 207.363L253.326 215.025L254.791 219.513L256.661 220.772Z" fill="#1A1A1A"/>
<path opacity="0.2" d="M155.227 219.212L158.411 215.754L162.525 214.968L161.685 220.207L164.029 220.71L163.471 223.451L155.227 219.212Z" fill="#1A1A1A"/>
<path opacity="0.2" d="M169.729 198.637L169.329 202.751L168.508 203.558L168.025 201.838L168.24 199.741L169.729 198.637Z" fill="#1A1A1A"/>
<path opacity="0.1" d="M227.859 147.64L223.113 143.332L221.064 142.699L219.17 143.093L216.35 145.065L207.953 151.904L205.809 153.777L204.807 156.935L209.362 155.088L214.253 148.871L222.079 145.963L227.859 147.64Z" fill="#1A1A1A"/>
<path d="M154.069 233.438L148.358 240.878L159.482 242.345L155.888 233.666L154.069 233.438Z" fill="#D40000"/>
<path d="M159.95 229.025C159.95 229.025 162.786 231.529 169.149 229.69C174.573 227.699 176.594 225.653 173.578 217.152C170.089 208.874 164.345 202.008 168.261 198.326C176.491 190.586 190.091 174.03 200.716 171.852C204.348 171.107 205.339 173.979 215.099 175.908C223.577 177.583 226.312 169.777 230.264 171.912C233.917 178.163 235.413 188.122 239.513 193.994C242.397 198.694 261.233 190.844 266.533 194.545C277.205 201.998 276.299 210.116 281.569 218.915C283.891 222.793 286.072 226.249 286.421 230.755C286.794 235.573 279.938 237.759 279.938 237.759L273.618 237.828" stroke="#373E48" stroke-width="2.75734"/>
<path d="M171.55 197.927L169.174 195.129C168.589 194.44 168.672 193.415 169.361 192.83L195.198 170.887C195.886 170.302 196.912 170.386 197.497 171.075L199.873 173.872C200.458 174.561 200.374 175.587 199.685 176.172L173.849 198.114C173.16 198.699 172.135 198.615 171.55 197.927L171.55 197.927Z" fill="#666666"/>
<path opacity="0.997" d="M235.725 187.713L237.549 187.184C238.256 186.979 238.99 187.383 239.195 188.09L240.159 191.413C240.363 192.12 239.959 192.854 239.253 193.059L237.428 193.588C236.722 193.793 235.988 193.388 235.783 192.682L234.819 189.358C234.614 188.651 235.018 187.917 235.725 187.713V187.713Z" fill="#666666"/>
<path opacity="0.997" d="M231.386 175.634L233.21 175.105C233.917 174.9 234.651 175.305 234.856 176.011L235.819 179.335C236.024 180.041 235.62 180.775 234.913 180.98L233.089 181.509C232.382 181.714 231.648 181.31 231.443 180.603L230.48 177.28C230.275 176.573 230.679 175.839 231.386 175.634V175.634Z" fill="#666666"/>
<path opacity="0.997" d="M160.255 227.685L160.933 227.745C161.448 227.791 161.826 228.242 161.781 228.758L161.621 230.552C161.576 231.067 161.124 231.445 160.609 231.4L159.931 231.339C159.416 231.294 159.038 230.842 159.083 230.327L159.243 228.532C159.289 228.017 159.74 227.639 160.255 227.685L160.255 227.685Z" fill="#666666"/>
<path opacity="0.1" d="M168.52 328.065L168.411 328.083C168.411 328.083 171.821 326.541 168.52 328.065Z" fill="black"/>
<path opacity="0.1" d="M199.946 340.141L200.013 340.646C199.951 340.487 199.928 340.314 199.946 340.141V340.141Z" fill="black"/>
<path d="M79.6304 271.13C79.6304 271.13 118.916 246.701 144.385 246.519C144.385 246.519 155.106 247.453 170.797 247.952C180.918 248.274 192.956 246.933 206.024 250.002C239.349 257.827 251.632 268.196 260.889 265.059L222.038 266.474L79.6304 271.13Z" fill="#121C3F"/>
<path d="M256.511 277.157L256.407 309.656L31.7286 311.393L37.9913 284.685L76.2331 273.447L256.511 277.157Z" fill="#121C3F"/>
<path d="M268.287 292.905L268.257 301.414C268.257 301.414 261.57 306.678 260.95 310.764C260.95 310.764 251.39 313.451 248.663 313.472C248.415 313.475 248.145 313.477 247.862 313.509C248.292 312.274 248.629 311.005 248.87 309.714C249.551 306.091 249.478 302.359 248.658 298.787C247.838 295.215 246.291 291.891 244.128 289.056C241.965 286.221 239.24 283.945 236.15 282.392C233.059 280.838 229.68 280.046 226.255 280.072C222.831 280.099 219.446 280.943 216.346 282.545C213.245 284.146 210.505 286.465 208.324 289.333C206.143 292.202 204.574 295.549 203.731 299.134C202.888 302.719 202.792 306.452 203.449 310.065C203.765 311.807 204.254 313.505 204.907 315.131L191.955 315.231C191.955 315.231 191.834 315.276 191.641 315.368C190.945 315.712 189.305 316.618 189.065 318.025L81.7315 318.855L79.5324 318.852C80.0025 318.003 80.4249 317.125 80.7974 316.223C81.4924 314.551 82.0103 312.802 82.3411 311.009C82.9909 307.585 82.9689 304.059 82.2764 300.66C81.5838 297.261 80.2362 294.063 78.3203 291.274C76.4044 288.484 73.9628 286.164 71.1529 284.463C68.343 282.762 65.2271 281.718 62.0062 281.398C58.7852 281.079 55.5306 281.49 52.4522 282.607C49.3738 283.724 46.5399 285.52 44.1332 287.881C41.7265 290.242 39.8005 293.115 38.4791 296.314C37.1578 299.513 36.4706 302.968 36.4617 306.456C36.4564 308.1 36.6006 309.739 36.8923 311.35C37.3898 314.077 38.3096 316.69 39.6133 319.08C38.0814 318.689 34.7388 317.57 34.7388 317.57C34.7388 317.57 20.4952 316.049 16.8679 312.632L17.419 312.218L19.7557 310.484L18.7079 306.092C18.5803 305.908 18.4753 305.706 18.3955 305.492C18.1151 304.76 17.8712 303.398 18.8759 301.678C20.3987 299.053 19.6713 289.751 19.6713 289.751C19.6713 289.751 40.3381 274.243 80.9787 270.497C80.9787 270.497 81.947 271.302 83.9507 271.455C85.3076 271.563 87.1402 271.37 89.4715 270.431C89.4715 270.431 92.7998 272.037 107.09 263.11C107.09 263.11 131.406 244.957 163.239 246.349C163.239 246.349 195.992 243.97 223.849 255.357C235.855 260.259 244.992 262.852 251.507 264.21C257.523 265.466 261.302 265.677 263.033 265.684L263.071 265.684C263.637 265.679 263.973 265.676 264.092 265.676L264.144 265.676C264.144 265.676 264.144 269.565 264.309 274.156V274.179C264.373 275.776 264.463 277.458 264.588 279.091V279.193C264.938 283.742 265.553 287.874 266.641 288.684L268.287 292.905Z" fill="#CCCCCC"/>
<path d="M22.9518 289.353C22.9518 289.353 32.1102 281.606 43.4759 283.153C43.4759 283.153 33.1009 292.053 28.4398 291.518L27.6472 290.789L22.9336 291.11C22.9336 291.11 22.2335 289.931 22.9595 289.353H22.9518Z" fill="#121C3F"/>
<path opacity="0.2" d="M31.7758 302.566L31.7464 307.098C31.7464 307.098 31.4183 311.429 27.7891 311.619L17.4187 312.251L19.7522 310.517L18.7045 306.126C18.5763 305.943 18.4712 305.742 18.3921 305.529C19.3378 304.587 21.5642 302.993 26.0834 302.62L31.7758 302.566Z" fill="white"/>
<path d="M159.98 250.843L152.555 271.688L126.024 271.924L119.193 271.976L113.251 272.022L108.114 272.062L102.295 272.107C102.295 272.107 105.848 269.277 111.569 265.663C113.458 264.463 115.602 263.181 117.928 261.89C120.068 260.696 122.372 259.487 124.791 258.338C126.679 257.43 128.668 256.555 130.7 255.737C139.915 252.041 150.266 249.527 159.98 250.843V250.843Z" fill="#121C3F"/>
<path d="M201.617 264.906C201.617 264.906 190.526 266.762 179.943 268.154C175.897 268.686 171.928 269.15 168.678 269.415L168.226 269.453C166.969 269.551 165.803 269.617 164.813 269.645C163.242 269.688 162.067 269.622 161.48 269.424L164.601 249.516C164.601 249.516 168.371 249.531 173.947 249.782L175.166 249.844C176.325 249.906 177.547 249.978 178.823 250.062C180.644 250.184 182.564 250.331 184.543 250.512C194.097 251.383 204.92 252.995 211.765 255.995C226.333 262.387 201.617 264.907 201.617 264.907V264.906Z" fill="#121C3F"/>
<path d="M252.674 274.513L252.648 279.82C252.648 279.82 244.689 280.003 246.4 278.278C247.508 277.132 248.515 275.878 249.407 274.531L252.674 274.513Z" fill="#121C3F"/>
<path d="M264.582 279.186L258.117 279.781L258.143 273.401C258.143 273.401 261.152 268.846 264.13 273.846L264.302 274.139L264.582 279.186Z" fill="#121C3F"/>
<path opacity="0.5" d="M191.646 315.355C190.95 315.699 189.31 316.605 189.071 318.011L81.7334 318.841L79.5339 318.839C80.0042 317.99 80.4267 317.112 80.7993 316.209L191.646 315.355Z" fill="#666666"/>
<path opacity="0.1" d="M138.917 288.247C138.584 288.755 138.279 289.284 138.004 289.831C135.948 294.04 131.219 287.26 132.87 284.892L134.008 283.743C133.576 289.154 137.666 288.547 138.917 288.247Z" fill="black"/>
<path opacity="0.1" d="M146.738 297.731L146.629 297.731C146.629 297.731 150.246 296.654 146.738 297.731Z" fill="black"/>
<path opacity="0.1" d="M176.547 317.1V317.675C176.505 317.486 176.505 317.289 176.547 317.1V317.1Z" fill="black"/>
<path d="M9.2207 330.945L281.66 330.042L281.681 337.04L9.24138 337.943L9.2207 330.945Z" fill="#535D6C"/>
<path d="M60.2309 307.175L67.781 307.111L73.1601 326.785L56.0707 326.839L60.2309 307.175Z" fill="#373E48"/>
<path d="M229.096 307.818L236.646 307.754L242.026 327.429L224.936 327.483L229.096 307.818Z" fill="#373E48"/>
<path d="M143.125 318.023L154.563 317.965L162.656 328.747L136.765 328.829L143.125 318.023Z" fill="#373E48"/>
<path d="M14.3059 322.189L288.237 321.282L288.257 328.28L14.3266 329.187L14.3059 322.189Z" fill="#535D6C"/>
<path d="M222.109 307.846L230.871 307.768L237.119 332.423L217.286 332.486L222.109 307.846Z" fill="#535D6C"/>
<path d="M54.8335 307.158L63.5951 307.081L69.844 331.736L50.0107 331.799L54.8335 307.158Z" fill="#535D6C"/>
<path opacity="0.15" d="M16.0038 320.944L289.935 320.037L289.955 327.035L16.0244 327.942L16.0038 320.944Z" fill="#1C1F24"/>
<path d="M133.994 317.849L147.649 317.771L157.322 334.585L126.413 334.682L133.994 317.849Z" fill="#535D6C"/>
<path opacity="0.2" d="M55.8028 307.391L64.5644 307.313L70.8132 331.968L50.98 332.031L55.8028 307.391Z" fill="#1C1F24"/>
<path opacity="0.2" d="M11.7383 330.819L282.585 329.917L282.605 336.915L11.759 337.817L11.7383 330.819Z" fill="#1C1F24"/>
<path opacity="0.2" d="M135.014 316.468L148.669 316.391L158.342 333.204L127.433 333.302L135.014 316.468Z" fill="#1C1F24"/>
<path opacity="0.2" d="M223.066 307.31L231.828 307.233L238.077 331.888L218.244 331.951L223.066 307.31Z" fill="#1C1F24"/>
<path d="M153.721 246.852C153.745 247.491 154.228 246.922 154.14 247.309C154.083 247.56 153.595 247.514 153.443 247.736C153.354 247.864 153.349 248.046 153.223 248.2C153.062 248.397 152.902 248.704 152.982 248.879C153.129 249.204 153.644 248.689 153.987 248.787C154.333 248.885 153.945 249.498 154.392 249.587C154.744 249.658 154.662 249.046 155.325 248.864C155.535 248.807 155.753 249.193 156.009 249.167C156.485 249.119 156.676 248.607 157.033 248.64C157.554 248.687 157.93 249.611 158.434 250.08C159.021 250.625 159.725 250.238 160.068 250.711C160.294 251.023 160.026 251.5 160.128 251.866C160.267 252.362 159.277 255.106 159.277 255.106L160.026 259.733C160.026 259.733 161.589 261.233 162.063 261.118C163.089 260.871 163.884 252.757 164.377 251.008L164.598 249.512L168.711 249.576L175.629 249.865L185.075 250.55L197.847 252.188L205.21 253.78L211.163 255.799L214.489 257.404L215.684 258.38C215.684 258.38 216.076 258.816 216.179 259.084C216.305 259.415 216.384 259.796 216.305 260.141C216.229 260.474 215.986 260.756 215.751 261.004C215.531 261.234 214.975 261.559 214.975 261.559L213.864 262.171L212.379 262.783L211.439 263.025L218.263 279.493L261.936 270.561L264.221 270.62L264.271 265.702L262.484 265.671L257.119 265.29L243.002 262.134L215.953 252.486L205.894 249.765L194.525 247.745L189.155 247.093L185.338 246.753L180.621 246.328L169.085 246.158L154.477 246.439C154.477 246.439 153.714 246.652 153.722 246.852L153.721 246.852Z" fill="#D40000"/>
</g>
<defs>
<clipPath id="clip0">
<rect width="291" height="218.226" fill="white" transform="translate(0 126.437)"/>
</clipPath>
</defs>
</svg>
