<svg width="395" height="442" viewBox="0 0 395 442" fill="none" xmlns="http://www.w3.org/2000/svg">
<path fill-rule="evenodd" clip-rule="evenodd" d="M112.07 60.854H89.4127C86.0351 60.854 82.7278 57.5735 82.7278 54.1536V31.8189C82.7278 28.5388 86.0351 25.2583 89.4127 25.2583H112.07C115.518 25.2583 118.755 28.5388 118.755 31.8189V54.1536C118.755 57.5735 115.518 60.854 112.07 60.854V60.854ZM100.812 29.3063L85.1206 47.523L92.861 56.5961L100.812 47.7325L108.693 56.5961L116.574 47.523L100.812 29.3063Z" fill="#3165AA"/>
<path fill-rule="evenodd" clip-rule="evenodd" d="M96.8014 75.3715C95.1831 75.3715 93.8461 74.0452 93.8461 72.5101V67.6945C93.8461 66.0889 95.1831 64.8323 96.8014 64.8323H104.823V66.8565H96.0976V73.347H104.823V75.3712H96.8014V75.3715ZM85.7538 75.3715C84.1355 75.3715 82.8688 74.0452 82.8688 72.5101V64.7629H85.0499V73.3473H92.5793V75.3715H85.7538ZM115.87 75.3715H109.256C107.708 75.3715 106.371 74.0452 106.371 72.5101V67.6945C106.371 66.0889 107.708 64.8323 109.256 64.8323H115.87C117.488 64.8323 118.755 66.0889 118.755 67.6945V72.5101C118.755 74.0456 117.489 75.3715 115.87 75.3715ZM108.623 73.3473H116.573V66.8568H108.623V73.3473ZM79.7728 75.3715H82.0946L76.3248 65.8097C75.9026 65.1816 75.4104 64.9024 74.7069 64.9024C74.003 64.9024 73.5105 65.1816 73.0882 65.8097L67.3181 75.3715H69.6399L70.8364 73.4174H78.647L79.7728 75.3715ZM71.9625 71.5327L74.6362 67.0656L74.7069 66.9956L74.8475 67.0656L77.4513 71.5327H71.9625ZM131.773 75.3715H134.095L128.325 65.8097C127.903 65.1816 127.41 64.9024 126.707 64.9024C126.003 64.9024 125.51 65.1816 125.088 65.8097L119.318 75.3715H121.64L122.836 73.4174H130.647L131.773 75.3715ZM123.962 71.5327L126.636 67.0656L126.706 66.9956L126.847 67.0656L129.451 71.5327H123.962Z" fill="#3165AA" stroke="#3165AA" stroke-width="0.261096" stroke-miterlimit="2.613"/>
<path fill-rule="evenodd" clip-rule="evenodd" d="M100.812 47.6629L93.2828 39.2175H108.412L100.812 47.6629Z" fill="#3165AA"/>
<path d="M298.823 36.6272C271.339 36.6272 249.303 44.8371 249.303 55.1304C249.303 65.362 271.521 73.6381 298.823 73.6381C326.131 73.6381 348.344 65.3355 348.344 55.1304C348.344 44.9254 326.131 36.6272 298.823 36.6272" fill="#003478"/>
<path d="M318.33 59.05C318.344 59.1383 318.455 59.2177 318.561 59.2574C318.605 59.2707 318.623 59.2972 318.579 59.3899C318.268 60.0431 317.989 60.4227 317.604 60.9965C317.25 61.5262 316.847 61.9367 316.364 62.334C315.629 62.9387 314.614 63.5919 313.773 63.155C313.401 62.9607 313.241 62.4399 313.246 62.0206C313.263 60.8332 313.795 59.6194 314.769 58.4232C315.961 56.9666 317.276 56.2074 318.136 56.6179C319.03 57.0461 318.747 58.0745 318.348 58.8823C318.321 58.9338 318.314 58.9939 318.33 59.05V59.05ZM327.916 49.8248C327.978 49.7101 327.916 49.6262 327.77 49.6262H325.267C325.081 49.6262 324.983 49.6527 324.899 49.8248C324.611 50.3722 321.112 55.5939 320.461 56.6091C320.355 56.7636 320.217 56.7415 320.204 56.5649C320.138 55.9646 319.615 55.2717 318.791 54.9406C318.198 54.7018 317.551 54.6256 316.918 54.7199C315.766 54.8788 314.743 55.4835 313.839 56.1633C312.484 57.1917 311.314 58.5247 309.799 59.5135C308.971 60.0475 307.842 60.5154 307.084 59.818C306.402 59.1868 306.477 57.7788 307.527 56.6929C307.638 56.5782 307.771 56.6753 307.749 56.7768C307.692 57.013 307.699 57.2598 307.769 57.4924C307.839 57.7249 307.97 57.9349 308.147 58.101C308.604 58.5071 309.255 58.5556 309.817 58.2776C310.132 58.1141 310.402 57.8768 310.604 57.5861C310.806 57.2954 310.935 56.9601 310.978 56.6091C311.015 56.3507 310.998 56.0876 310.929 55.8359C310.859 55.5843 310.738 55.3497 310.574 55.1467C310.409 54.9437 310.204 54.7768 309.972 54.6563C309.74 54.5357 309.485 54.4642 309.224 54.4462C308.356 54.3845 307.518 54.6846 306.703 55.3555C306.319 55.6647 305.984 56.0309 305.711 56.4413C305.623 56.5649 305.494 56.5738 305.499 56.3972C305.538 54.9759 304.949 54.177 303.771 54.1505C302.859 54.1284 301.88 54.6228 301.118 55.2275C300.285 55.894 299.554 56.7812 298.77 57.611C298.677 57.717 298.593 57.7126 298.562 57.5139C298.567 56.6317 298.326 55.7655 297.867 55.0112C297.786 54.8939 297.664 54.8106 297.525 54.7772C297.386 54.7438 297.24 54.7627 297.114 54.8303C296.985 54.8965 296.547 55.0951 296.228 55.3555C296.068 55.4879 296.006 55.6733 296.077 55.9161C296.498 57.3197 296.405 58.9176 295.834 60.2682C295.307 61.5041 294.288 62.6209 293.087 62.9961C292.299 63.2476 291.475 63.1241 290.966 62.4222C290.27 61.46 290.549 59.7871 291.59 58.3923C292.512 57.1652 293.84 56.3884 295.165 55.8852C295.32 55.8278 295.355 55.7263 295.311 55.5939L295.076 54.9494C294.952 54.6228 294.611 54.5743 294.199 54.6184C293.234 54.7287 292.365 55.0598 291.506 55.5144C289.26 56.715 288.131 59.0367 287.639 60.2815C287.472 60.7473 287.235 61.1849 286.935 61.5792C286.581 62.0206 286.138 62.4267 285.323 63.1373C285.278 63.1777 285.248 63.2311 285.236 63.2898C285.224 63.3485 285.231 63.4095 285.256 63.4639C285.423 63.7666 285.633 64.0432 285.881 64.2849C286.014 64.3511 286.169 64.2584 286.231 64.2143C286.798 63.8303 287.48 63.2212 287.812 62.8063C287.927 62.665 288.051 62.7268 288.113 62.9387C288.263 63.4899 288.547 63.996 288.939 64.4123C289.332 64.8287 289.821 65.1427 290.363 65.3266C292.423 66.0196 294.562 65.0176 296.175 63.2697C297.198 62.1662 297.57 61.4468 297.964 60.9656C298.629 60.1402 299.944 58.2996 301.508 57.1211C302.083 56.6841 302.761 56.3531 303.102 56.5738C303.377 56.7503 303.465 57.1608 303.027 57.9597C301.432 60.8641 299.085 64.2717 298.651 65.1015C298.571 65.2428 298.642 65.3575 298.792 65.3575H301.211C301.339 65.3487 301.397 65.2913 301.459 65.203C302.681 63.2918 303.833 61.4732 305.069 59.5973C305.14 59.4826 305.202 59.5708 305.202 59.6194C305.233 60.052 305.335 60.6478 305.6 61.0407C305.792 61.3614 306.064 61.6264 306.391 61.8092C306.717 61.992 307.086 62.0862 307.461 62.0824C307.98 62.0894 308.495 61.9809 308.967 61.7646C309.481 61.5748 309.897 61.3276 310.207 61.1025C310.393 60.9745 310.428 61.1908 310.42 61.2217C310.136 62.7356 310.486 64.5321 312.001 65.2825C313.808 66.1653 315.797 64.9205 316.944 63.7906C317.055 63.6802 317.174 63.6935 317.188 63.9274C317.214 64.36 317.409 64.8676 317.764 65.2295C318.72 66.1873 320.656 65.8033 322.596 64.307C323.845 63.3492 325.147 61.9941 326.326 60.5596C326.37 60.5066 326.405 60.4183 326.317 60.3256C326.14 60.1402 325.878 59.9284 325.701 59.7606C325.621 59.69 325.502 59.7121 325.435 59.7606C324.226 60.9083 323.136 62.2104 321.568 63.2918C321.037 63.6581 320.195 63.9539 319.814 63.4463C319.664 63.2477 319.681 62.974 319.828 62.6076C320.284 61.4732 327.535 50.4693 327.916 49.8204" fill="white"/>
<path d="M293.792 51.1534C293.823 51.3167 293.889 51.3476 293.964 51.33C294.378 51.2179 294.736 50.9608 294.974 50.6061C295.196 50.2883 295.298 49.8292 295.081 49.6438C294.886 49.4805 294.571 49.5247 294.337 49.7321C294.137 49.9074 293.983 50.1283 293.888 50.3759C293.794 50.6234 293.76 50.8902 293.792 51.1534V51.1534ZM275.308 65.3177C272.606 65.3354 270.223 63.6713 269.948 60.7846C269.79 59.2835 270.224 57.7799 271.157 56.5914C271.964 55.5453 273.328 54.6801 274.48 54.4683C274.852 54.3977 275.357 54.4418 275.565 54.689C275.893 55.0686 275.8 55.4835 275.472 55.6512C274.59 56.097 273.532 56.865 273.009 57.9112C272.768 58.3557 272.653 58.8576 272.677 59.3625C272.701 59.8675 272.863 60.3562 273.146 60.7758C274.231 62.409 277.261 62.4531 280.074 59.8489C280.774 59.2089 281.394 58.5953 282.027 57.8714C283.267 56.459 283.679 55.9425 285.327 53.6649C285.345 53.6385 285.354 53.6031 285.345 53.5899C285.332 53.559 285.309 53.5546 285.261 53.5458C284.162 53.5811 283.201 53.9077 282.271 54.6007C282.005 54.7949 281.615 54.7684 281.447 54.5124C281.261 54.2211 281.394 53.8415 281.704 53.6296C283.201 52.5879 284.84 52.4025 286.514 52.1201C286.514 52.1201 286.629 52.1201 286.727 52.0009C287.413 51.1181 287.932 50.328 288.662 49.4408C289.402 48.5403 290.354 47.7105 291.081 47.0882C292.1 46.2186 292.751 45.9273 293.411 45.5654C293.588 45.4771 293.389 45.3667 293.335 45.3667C289.637 44.6737 285.797 43.7777 282.125 45.1328C279.582 46.0774 278.466 48.0901 279.002 49.432C279.383 50.3854 280.641 50.5355 281.819 49.9616C282.794 49.4893 283.702 48.7169 284.344 47.7282C284.698 47.1764 285.456 47.5737 285.048 48.5315C283.972 51.0475 281.921 53.0426 279.423 53.1264C277.292 53.1971 275.919 51.6345 275.924 49.71C275.932 45.9141 280.176 43.4158 284.627 43.0406C289.996 42.5992 295.081 44.0249 300.409 44.6693C304.493 45.1593 308.409 45.1725 312.515 44.2279C313.002 44.1264 313.339 44.4354 313.312 44.9209C313.268 45.6271 312.719 46.3069 311.368 47.0396C309.831 47.8827 308.223 48.1387 306.539 48.1519C302.482 48.1872 298.699 46.607 294.779 45.7596C294.784 45.9317 294.833 46.1348 294.691 46.2451C292.52 47.8341 290.558 49.454 289.243 51.7272C289.198 51.7802 289.225 51.8332 289.3 51.8243C290.443 51.7669 291.466 51.736 292.534 51.6478C292.715 51.6345 292.724 51.5904 292.711 51.4536C292.653 51.0338 292.698 50.6065 292.842 50.2077C292.985 49.8089 293.223 49.4505 293.535 49.1627C294.243 48.5315 295.129 48.4565 295.718 48.9155C296.383 49.432 296.325 50.3677 295.962 51.0651C295.798 51.3722 295.574 51.6433 295.304 51.8624C295.033 52.0816 294.72 52.2442 294.385 52.3408C294.385 52.3408 294.261 52.3672 294.279 52.4776C294.301 52.6541 295.107 53.1 295.174 53.2191C295.24 53.3339 295.205 53.506 295.085 53.6385C295.038 53.6959 294.978 53.7423 294.911 53.7744C294.844 53.8064 294.77 53.8233 294.695 53.8238C294.558 53.8238 294.474 53.7753 294.297 53.6782C293.874 53.4533 293.499 53.1508 293.189 52.7866C293.083 52.6586 293.03 52.6541 292.777 52.6718C291.626 52.738 289.827 52.9102 288.614 53.0602C288.317 53.0955 288.273 53.1529 288.215 53.2544C286.275 56.4413 284.202 59.8798 281.925 62.1838C279.489 64.6512 277.461 65.3001 275.308 65.3177Z" fill="white"/>
<path d="M298.823 39.6551C273.536 39.6551 253.041 46.6159 253.041 55.1392C253.041 63.6581 273.536 70.6233 298.823 70.6233C324.111 70.6233 344.606 63.6581 344.606 55.1392C344.606 46.6203 324.106 39.6551 298.823 39.6551V39.6551ZM298.823 72.027C272.615 72.027 251.371 64.4659 251.371 55.1392C251.371 45.8081 272.615 38.2515 298.823 38.2515C325.028 38.2515 346.271 45.8081 346.271 55.1392C346.271 64.4659 325.028 72.027 298.823 72.027" fill="white"/>
<path fill-rule="evenodd" clip-rule="evenodd" d="M173.878 10.3392H219.385V52.3264H173.878V10.3392Z" fill="white"/>
<path fill-rule="evenodd" clip-rule="evenodd" d="M168.16 57.8668H223.891V3.30225H168.16V57.8668ZM196.671 15.8013H201.203L203.891 30.2434L206.447 15.8277H211.059V37.0179H208.239V22.1556L205.208 37.0703H202.68L199.596 21.972L199.623 37.228H196.645L196.671 15.8013ZM181.124 25.753V21.1316C181.124 20.1077 180.808 15.0398 186.579 14.9874C192.35 14.9349 192.323 19.2149 192.323 19.2149V22.3925H189.214C189.214 22.3925 189.715 18.1385 186.816 18.0333C184.418 17.9545 184.603 20.7115 184.603 20.7115V32.0553C184.603 32.0553 184.418 34.7335 186.816 34.7335C189.53 34.7335 189.214 31.9504 189.214 31.9504V27.9065H187.159V25.7273H192.323V37.7798H189.926V36.5193L189.741 37.0179C189.319 37.7266 187.896 37.7794 186.579 37.7794C180.808 37.7266 181.124 32.6591 181.124 31.6351L181.124 25.753ZM181.23 45.6043V40.6417H211.375V45.6043H181.23Z" fill="#2360A5"/>
<path d="M153.312 98.5242H164.112L168.096 113.638H168.365C168.556 112.379 168.748 111.043 169.093 109.824L172.347 98.5242H183.035L187.783 127.302H177.634L176.215 111.54H176.025C175.834 112.493 175.642 113.485 175.336 114.401L171.161 127.303H165.033L161.28 115.126C160.973 113.905 160.704 112.76 160.627 111.539H160.282C160.207 112.685 160.131 113.867 160.015 115.01L158.788 127.302H148.64L153.312 98.5242Z" fill="#ACACAC"/>
<path d="M203.316 116.883L202.091 111.806C201.784 110.584 201.592 109.325 201.4 108.104H201.018L199.102 116.883H203.316ZM196.382 127.302H185.276L195.31 98.5241H206.916L217.22 127.302H206.111L205.156 123.713H197.225L196.382 127.302ZM245.75 110.356C245.671 115.051 245.671 118.981 242.263 122.644C239.198 125.966 234.489 127.76 230.008 127.76C221.2 127.76 214.076 122.34 214.076 113.104C214.076 103.716 221.007 98.0659 230.085 98.0659C235.102 98.0659 241.997 100.547 244.255 105.471L234.45 109.059C233.646 107.609 232.153 106.845 230.467 106.845C226.716 106.845 224.646 110.051 224.646 113.523C224.646 116.69 226.637 119.668 230.046 119.668C231.694 119.668 233.8 118.905 234.297 117.149H229.549V110.356H245.75ZM246.534 98.5241H256.608L266.029 114.478H266.334C265.914 112.074 265.454 109.593 265.454 107.15V98.5241H275.487V127.302H265.454L256.224 112.189H255.918C256.262 114.172 256.569 116.043 256.569 117.953V127.302H246.533V98.5241H246.534Z" fill="#ACACAC"/>
<path d="M292.476 116.883L291.249 111.807C290.944 110.584 290.752 109.325 290.559 108.104H290.177L288.262 116.883H292.476ZM285.544 127.302H274.437L284.47 98.5242H296.075L306.378 127.302H295.271L294.314 123.713H286.386L285.544 127.302Z" fill="#ACACAC"/>
<path d="M132.632 127.33L143.514 127.332L133.035 98.6018L125.069 98.6003L123.605 102.599L132.632 127.33Z" fill="black"/>
<path d="M125.252 86.3765C122.333 86.3765 119.966 88.7339 119.966 91.6452C119.966 94.5528 122.333 96.9121 125.252 96.9121C128.172 96.9121 130.538 94.5528 130.538 91.6448C130.538 88.7339 128.172 86.3765 125.252 86.3765" fill="#E22E2F"/>
<path d="M101.879 127.33L118.1 127.329L109.987 105.137L101.879 127.33ZM119.94 127.33L130.822 127.332L120.34 98.6018L112.375 98.6003L110.913 102.599L119.94 127.33Z" fill="black"/>
<g clip-path="url(#clip0)">
<path d="M133.15 265.005C133.15 265.005 134.506 272.261 133.557 272.809C132.79 273.296 132.064 273.845 131.387 274.452L133.828 277.875L139.661 279.107L145.222 273.904V268.701C145.222 268.701 143.595 266.1 143.866 264.457C144.137 262.814 133.15 265.005 133.15 265.005V265.005Z" fill="#DEAA87"/>
<path d="M123.79 277.464L122.977 277.875C122.977 277.875 121.213 278.559 120.399 284.447C119.585 290.334 117.686 304.437 118.229 304.848C118.772 305.258 118.5 307.997 118.5 307.997L122.57 286.501L123.79 277.464Z" fill="#2F2E41"/>
<path d="M133.285 417.668L130.437 416.162L131.115 409.453H135.998L138.847 415.751L133.285 417.668Z" fill="#FBBEBE"/>
<path d="M133.421 414.793C133.421 414.793 128.945 412.055 128.131 413.013C127.317 413.971 120.806 420.954 120.806 420.954C120.806 420.954 110.769 426.431 118.5 427.253C126.232 428.074 138.847 422.46 138.847 422.46C138.847 422.46 139.525 415.067 138.983 414.93C138.44 414.793 136.134 416.162 135.049 415.751C134.45 415.542 133.897 415.216 133.421 414.793Z" fill="black"/>
<path d="M143.323 421.776L135.998 420.133L137.626 414.382L143.323 416.162V421.776Z" fill="#FBBEBE"/>
<path d="M135.863 418.079C135.863 418.079 143.323 416.847 144.001 420.543C144.68 424.24 146.443 429.717 144.68 431.086C142.916 432.455 133.828 434.235 133.693 431.908C133.557 429.58 134.642 425.062 134.642 425.062C134.642 425.062 135.32 421.502 134.913 420.543C134.506 419.585 135.863 418.079 135.863 418.079V418.079Z" fill="black"/>
<path d="M120.962 325.624C120.962 325.624 114.838 364.818 119.857 383.986C124.876 403.155 128.402 414.519 128.402 414.519C128.402 414.519 137.855 416.916 137.855 415.273C137.855 413.63 133.693 384.397 132.879 382.069C132.065 379.742 130.709 378.92 131.929 377.003C133.15 375.087 135.185 362.764 135.185 362.764C135.185 362.764 139.661 383.165 139.932 383.712C140.203 384.26 136.426 418.146 136.426 418.146C136.426 418.146 145.437 422.173 145.978 417.257C146.114 416.025 152.683 372.348 152.683 371.801C152.683 371.253 155.124 329.356 151.191 327.302C147.257 325.249 120.962 325.624 120.962 325.624V325.624Z" fill="#162D50"/>
<path d="M136.405 276.917V275.958L133.693 271.44C133.693 271.44 130.979 271.714 130.573 272.946C130.166 274.178 125.554 284.036 125.554 284.036L120.671 328.261C120.671 328.261 134.099 331.547 136.134 329.219C138.169 326.892 145.9 276.232 145.9 276.232L146.985 270.071C146.985 270.071 145.122 267.332 144.697 267.743C144.273 268.154 137.219 276.095 137.219 276.095L137.084 277.327L136.405 276.917Z" fill="#162D50"/>
<path d="M133.625 270.55C133.625 270.55 131.115 269.934 130.301 271.44C129.488 272.946 129.488 273.494 128.674 274.041C127.86 274.589 123.112 277.053 122.841 278.012C122.57 278.97 116.737 309.229 116.737 309.229C116.737 309.229 113.889 318.266 115.245 324.427C116.601 330.588 115.652 331.821 118.5 332.368C121.349 332.916 121.756 332.916 121.756 332.094C121.756 331.273 125.418 303.479 127.995 301.562C130.573 299.645 129.895 278.696 129.895 278.696C129.895 278.696 133.557 274.178 133.557 273.494C133.557 272.809 134.167 270.498 133.625 270.55V270.55Z" fill="#0044AA"/>
<path d="M141.288 275.547C141.667 275.611 146.85 268.838 147.257 269.112C147.664 269.386 149.698 272.946 149.97 272.946C150.241 272.946 161.771 275.821 162.72 281.161C163.67 286.501 156.074 303.478 156.074 303.478C156.074 303.478 152.818 313.2 153.496 317.444C153.957 320.676 153.865 323.964 153.225 327.165C152.954 328.261 152.004 329.493 152.276 330.041C152.547 330.588 146.307 329.356 143.73 330.862C141.153 332.368 129.623 333.464 130.301 331.821C130.98 330.177 131.387 323.742 133.285 316.896C135.184 310.051 140.068 293.894 139.254 292.799C138.44 291.704 140.475 275.41 141.288 275.547Z" fill="#0044AA"/>
<path d="M161.093 279.518L162.856 281.161C162.856 281.161 164.891 284.721 164.619 286.364C164.348 288.007 170.316 312.789 167.875 313.611C165.433 314.432 159.6 318.54 158.922 319.635C158.244 320.73 156.616 322.647 155.531 323.195C154.446 323.742 153.361 324.701 152.683 324.153C152.004 323.606 150.512 312.378 151.597 311.968C152.683 311.557 153.768 310.325 154.853 310.325C155.938 310.325 156.616 309.229 156.616 308.271C156.616 307.312 155.802 301.562 155.802 301.562L154.039 288.007L161.093 279.518Z" fill="#162D50"/>
<path d="M139.537 244.247C143.061 244.247 145.859 248.779 145.899 254.396L145.908 255.695C145.918 255.695 145.928 255.695 145.938 255.695C146.046 255.695 146.152 255.747 146.251 255.848C146.35 255.949 146.44 256.096 146.516 256.283C146.592 256.469 146.652 256.69 146.693 256.933C146.735 257.177 146.756 257.437 146.756 257.701C146.756 257.964 146.735 258.225 146.693 258.468C146.652 258.712 146.592 258.933 146.516 259.119C146.44 259.305 146.35 259.453 146.251 259.554C146.152 259.655 146.046 259.706 145.938 259.706C145.97 265.313 142.806 269.901 139.286 269.901H136.753C133.353 269.901 130.179 264.588 129.956 259.171C129.918 259.185 129.879 259.192 129.841 259.192C129.733 259.192 129.627 259.14 129.528 259.039C129.429 258.938 129.338 258.791 129.263 258.604C129.187 258.418 129.126 258.197 129.085 257.954C129.044 257.71 129.023 257.45 129.023 257.186C129.023 256.923 129.044 256.662 129.085 256.419C129.126 256.175 129.187 255.954 129.263 255.768C129.338 255.582 129.429 255.434 129.528 255.333C129.627 255.232 129.733 255.181 129.841 255.181C129.874 255.181 129.907 255.186 129.941 255.196L129.94 254.397C129.934 248.78 132.778 244.248 136.302 244.248H139.539L139.537 244.247Z" fill="#DEAA87"/>
<path opacity="0.6" d="M129.745 257.323C129.647 257.313 129.595 256.981 129.627 256.58C129.66 256.179 129.765 255.862 129.863 255.871C129.96 255.88 130.012 256.213 129.98 256.614C129.947 257.015 129.842 257.332 129.745 257.323Z" fill="black"/>
<path opacity="0.6" d="M146.127 257.991C146.224 257.981 146.277 257.649 146.244 257.248C146.212 256.847 146.106 256.53 146.009 256.539C145.912 256.548 145.859 256.881 145.892 257.282C145.925 257.683 146.03 258 146.127 257.991Z" fill="black"/>
<path d="M137.841 243.352C142.278 243.352 145.63 247.519 145.892 252.678L146.005 254.896C145.947 256.352 146.011 256.335 146.011 257.575C146.011 258.816 146.011 258.842 145.988 259.942L145.775 261.741C145.65 262.804 145.167 264.652 144.53 265.867C143.992 266.895 143.253 267.819 142.24 268.736C140.84 269.865 140.435 270.098 139.214 270.071L136.7 270.015C135.839 269.965 134.178 269.176 133.214 267.973C132.199 266.708 132.537 267.145 131.972 266.264C131.161 264.996 129.831 262.51 129.831 260.316V260.17C129.858 258.699 129.848 258.701 129.848 257.504C129.849 256.307 129.848 256.306 129.831 255.26V252.677C129.831 247.511 133.403 243.352 137.841 243.352L137.841 243.352ZM139.137 248.994L136.555 249.142L133.293 249.08L132.191 250.044L132.025 251.583L131.647 253.134L130.586 254.262L130.328 255.868L130.364 260.854L130.641 262.556L131.501 264.371L132.93 266.721L134.312 268.277L135.742 269.154L136.742 269.233C137.071 269.102 137.783 267.392 137.803 266.64L138.132 266.63C138.259 267.071 138.268 268.788 138.811 269.23L140.299 269.18L141.411 268.313L143.316 266.708L144.022 265.565L144.703 264.002L145.173 262.475L145.482 260.67L145.435 255.689L144.784 253.653L144.071 252.616C143.984 252.032 144.012 251.64 143.998 251.205C143.99 250.931 143.98 250.327 143.883 250.052C143.8 249.819 143.585 249.8 143.585 249.8C143.339 249.693 143.404 249.565 143.144 249.469C142.998 249.415 142.851 249.367 142.704 249.325C141.646 249.022 140.559 249.013 139.137 248.994L139.137 248.994Z" fill="#333333"/>
<path d="M140.502 258.509C140.175 258.509 139.911 258.209 139.911 257.84C139.911 257.471 140.175 257.171 140.502 257.171C140.829 257.171 141.093 257.471 141.093 257.84C141.093 258.209 140.829 258.509 140.502 258.509Z" fill="black"/>
<path d="M135.751 258.431C135.424 258.431 135.159 258.132 135.159 257.763C135.159 257.393 135.424 257.094 135.751 257.094C136.077 257.094 136.342 257.393 136.342 257.763C136.342 258.132 136.077 258.431 135.751 258.431Z" fill="black"/>
<path d="M137.248 262.443H139.137C139.183 262.443 139.22 262.481 139.22 262.527V262.657C139.22 262.703 139.183 262.74 139.137 262.74H137.248C137.203 262.74 137.165 262.703 137.165 262.657V262.527C137.165 262.481 137.203 262.443 137.248 262.443Z" fill="black"/>
<path d="M138.912 255.427H141.71C141.806 255.427 141.885 255.506 141.885 255.604V255.879C141.885 255.977 141.806 256.056 141.71 256.056H138.912C138.816 256.056 138.737 255.977 138.737 255.879V255.604C138.737 255.506 138.816 255.427 138.912 255.427Z" fill="black"/>
<path d="M134.392 255.351H137.18C137.279 255.351 137.36 255.432 137.36 255.532V255.815C137.36 255.916 137.279 255.997 137.18 255.997H134.392C134.293 255.997 134.212 255.916 134.212 255.815V255.532C134.212 255.432 134.293 255.351 134.392 255.351Z" fill="black"/>
<path d="M141.001 264.116C141 264.745 140.703 265.347 140.174 265.791C139.646 266.235 138.93 266.485 138.183 266.485C137.436 266.485 136.72 266.235 136.191 265.791C135.663 265.347 135.365 264.745 135.364 264.116H141.001Z" fill="#F2F2F2"/>
<path d="M140.807 264.179C140.806 264.735 140.526 265.268 140.028 265.661C139.53 266.054 138.855 266.275 138.151 266.275C137.447 266.275 136.772 266.054 136.274 265.661C135.776 265.268 135.496 264.735 135.495 264.179H140.807Z" fill="white"/>
<path d="M140.761 263.811C140.737 263.798 140.755 263.738 140.761 263.729C140.884 263.569 141.131 263.643 141.311 263.798C141.516 263.975 141.475 264.237 141.368 264.455C141.361 264.471 141.227 264.675 141.184 264.585C141.163 264.543 141.27 264.234 141.272 264.209C141.289 264.005 141.302 264.092 141.22 263.907C141.071 263.8 140.988 263.786 140.828 263.811L140.761 263.811Z" fill="#808080"/>
<path d="M135.542 263.868C135.566 263.854 135.562 263.797 135.555 263.788C135.432 263.628 135.198 263.678 135.017 263.833C134.813 264.01 134.81 264.232 134.917 264.451C134.924 264.467 135.036 264.536 135.049 264.525C135.084 264.498 135.021 264.328 135.017 264.304C134.978 264.096 134.978 264.099 135.132 263.966C135.27 263.846 135.315 263.849 135.476 263.875L135.542 263.868Z" fill="#808080"/>
<path d="M139.915 242.468L139.915 242.468C143.315 242.468 146.09 246.339 146.7 251.464H129.601C130.187 246.338 132.999 242.468 136.399 242.468H139.915Z" fill="#0044AA"/>
<path d="M137.365 241.196H138.812C139.181 241.196 139.479 241.497 139.479 241.869V242.775C139.479 243.147 139.181 243.448 138.812 243.448H137.365C136.997 243.448 136.699 243.147 136.699 242.775V241.869C136.699 241.497 136.997 241.196 137.365 241.196Z" fill="#0044AA"/>
<path d="M132.801 242.367H133.84C134.145 242.367 134.392 242.616 134.392 242.924V245.761C134.392 246.069 134.145 246.318 133.84 246.318H132.801C132.496 246.318 132.249 246.069 132.249 245.761V242.924C132.249 242.616 132.496 242.367 132.801 242.367Z" fill="#0044AA"/>
<path d="M142.283 242.321H143.579C143.813 242.321 144.002 242.512 144.002 242.748V245.844C144.002 246.08 143.813 246.272 143.579 246.272H142.283C142.049 246.272 141.859 246.08 141.859 245.844V242.748C141.859 242.512 142.049 242.321 142.283 242.321Z" fill="#0044AA"/>
<path opacity="0.61" d="M146.821 251.408L142.796 249.398H133.87L129.698 251.433L146.821 251.408Z" fill="#002255"/>
<path opacity="0.65" d="M130.296 254.927L131.845 255.847H131.851C132.232 255.662 132.825 255.628 133.496 255.629C133.881 255.629 134.291 255.641 134.701 255.641C135.78 255.641 136.678 255.88 137.165 256.348C137.165 256.348 137.571 256.591 137.793 256.645C137.903 256.672 138.018 256.673 138.129 256.656C138.356 256.62 138.785 256.424 138.785 256.424C139.517 255.92 140.429 255.681 141.286 255.674C141.695 255.674 142.105 255.662 142.49 255.662C143.148 255.661 143.732 255.693 144.113 255.868L145.429 255.673L145.438 255.914L144.572 256.58C144.557 257.638 143.492 258.908 141.914 259.335C141.291 259.504 140.438 259.4 139.948 259.289C139.444 259.174 139.068 258.79 138.795 258.435C138.693 258.304 138.591 258.042 138.521 257.791C138.457 257.564 138.341 257.431 138.186 257.347C138.071 257.284 137.92 257.271 137.804 257.331C137.657 257.407 137.579 257.53 137.5 257.758C137.438 257.937 137.265 258.307 137.192 258.403C136.918 258.758 136.542 259.142 136.038 259.256C135.548 259.368 134.695 259.471 134.072 259.303C132.77 258.95 131.817 258.023 131.515 257.116L130.302 255.423L130.296 254.927Z" fill="white"/>
<path opacity="0.999" d="M148.798 271.492L150.014 272.944L151.895 273.342L148.768 290.268L145.362 330.26L142.863 331.287L141.377 331.675L145.12 290.888L148.798 271.492Z" fill="#B3B3B3"/>
<path opacity="0.999" d="M126.213 275.458L127.184 274.924L129.215 273.428L124.79 291.507L119.345 332.502L118.459 332.396L117.416 332.059L122.493 291.484L126.213 275.458Z" fill="#B3B3B3"/>
<path opacity="0.5" d="M300.032 442C300.032 442 301.576 438.864 304.063 438.775L320.217 437.723C320.217 437.723 319.955 440.153 317.079 441.079L300.032 442Z" fill="#F2F2F2"/>
<path d="M32.9322 307.427H36.5741C37.5632 307.427 38.3596 308.231 38.3596 309.229V312.501C38.3596 313.5 37.5632 314.303 36.5741 314.303H32.9322C31.943 314.303 31.1466 313.5 31.1466 312.501V309.229C31.1466 308.231 31.943 307.427 32.9322 307.427Z" fill="#666666"/>
<path d="M35.8428 304.024H45.8808V316.535H35.8428V304.024Z" fill="#373E48"/>
<path d="M185.49 216.808L185.888 217.232C186.569 217.958 186.554 219.112 185.854 219.819L183.327 222.367C182.626 223.074 181.514 223.058 180.832 222.331L180.434 221.907C179.753 221.181 179.768 220.028 180.468 219.321L182.995 216.772C183.695 216.066 184.808 216.082 185.49 216.808Z" fill="#808080"/>
<path d="M179.308 208.228L185.48 214.805C186.469 215.858 186.447 217.531 185.431 218.555L181.768 222.25C180.752 223.275 179.139 223.252 178.151 222.198L171.978 215.621C170.989 214.568 171.012 212.896 172.027 211.871L175.69 208.176C176.706 207.152 178.319 207.174 179.308 208.228Z" fill="#333333"/>
<path opacity="0.95" d="M89.6678 320.464V325.679L97.8156 357.871L89.7057 357.677V358.841L39.9087 359.05V357.905L33.2224 357.892L39.9087 330.501V320.464L89.6678 320.464Z" fill="#0B2228"/>
<path opacity="0.4" d="M65.9249 324.137V357.723H72.2324L68.3822 324.089L65.9249 324.137Z" fill="black"/>
<path opacity="0.4" d="M42.1322 323.032H43.6022V358.351H32.8591L42.1322 323.032Z" fill="black" stroke="black" stroke-width="0.120195"/>
<path opacity="0.4" d="M87.687 323.569H86.217V359.146H96.9602L87.687 323.569Z" fill="black" stroke="black" stroke-width="0.12063"/>
<path d="M91.2154 322.973V324.854H89.9482L97.6842 356.586H99.0381V359.174H30.7522V356.586H32.1477L39.8849 324.854H38.6642V322.973H91.2154ZM88.2546 324.854H64.8133V356.586H95.9919L88.2546 324.854ZM62.2412 324.854H41.5772L33.84 356.586H58.3994L62.2412 324.854Z" fill="#4D4D4D"/>
<path d="M100.206 274.052H30.5374L46.2855 320.836L83.0348 320.701L100.206 274.052Z" fill="#FF7F2A"/>
<path d="M53.2747 245.27H18.0589C14.7862 245.27 12.1522 251.322 12.1522 258.84V267.828C12.1522 275.346 14.7862 281.398 18.0589 281.398H53.2747C56.5475 281.398 59.1815 275.346 59.1815 267.828V258.84C59.1815 251.322 56.5475 245.27 53.2747 245.27Z" fill="#373E48"/>
<path d="M27.2371 176.809L44.5664 169.385C44.5664 169.385 86.2126 201.246 102.679 217.818C113.692 228.905 103.228 263.799 103.228 263.799L89.786 297.197L27.2371 176.809Z" fill="#FF7F2A"/>
<path d="M67.4987 270.196C67.4987 273.16 68.0391 276.094 69.0897 278.832C70.1402 281.57 71.6794 284.058 73.6205 286.154C75.5616 288.249 77.866 289.912 80.4022 291.046C82.9384 292.18 85.657 292.764 88.4021 292.764C93.9461 292.764 99.2636 290.386 103.184 286.154C107.104 281.921 109.306 276.181 109.306 270.196C109.306 264.211 107.104 258.471 103.184 254.239C99.2636 250.006 93.9461 247.629 88.4021 247.629C85.657 247.629 82.9384 248.212 80.4022 249.346C77.866 250.481 75.5616 252.143 73.6205 254.238C71.6794 256.334 70.1402 258.822 69.0897 261.56C68.0391 264.298 67.4987 267.233 67.4987 270.196" fill="#373E48"/>
<path d="M169.567 195.49L175.124 201.401L165.377 211.249L159.82 205.338L169.567 195.49Z" fill="#FF7F2A"/>
<path d="M177.355 198.917L180.326 202.078L165.824 216.731L162.853 213.57L177.355 198.917Z" fill="#FF7F2A"/>
<path d="M178.904 203.174L181.875 206.335L169.918 218.417L166.947 215.256L178.904 203.174Z" fill="#1C2224"/>
<path d="M36.5167 143.241C32.3811 142.179 28.2271 144.776 27.202 149.063L23.9028 162.867C22.8783 167.154 25.3832 171.461 29.5188 172.523L50.0996 177.81C53.2718 178.624 56.4534 177.285 58.2266 174.683L64.8042 176.372L69.2936 157.592L62.9347 155.959C62.8146 152.495 60.5125 149.405 57.0976 148.527L36.5167 143.241Z" fill="#FF7F2A"/>
<path d="M159.822 176.646C157.377 175.985 154.805 176.017 152.372 176.74C149.939 177.462 147.734 178.849 145.986 180.756L67.0231 159.406L63.592 173.049L142.428 194.364C143.019 196.972 144.281 199.362 146.079 201.277C147.877 203.191 150.142 204.559 152.632 205.232C154.433 205.719 156.308 205.831 158.153 205.563C159.997 205.295 161.774 204.65 163.381 203.668C164.989 202.685 166.396 201.382 167.521 199.834C168.647 198.286 169.468 196.524 169.941 194.647C170.413 192.77 170.526 190.815 170.273 188.895C170.02 186.974 169.407 185.125 168.467 183.454C167.527 181.782 166.28 180.321 164.796 179.152C163.313 177.984 161.623 177.132 159.822 176.646V176.646Z" fill="#FF7F2A"/>
<path d="M146.886 185.147C145.422 187.792 145.023 190.926 145.776 193.861C146.529 196.795 148.374 199.289 150.903 200.795C152.156 201.54 153.538 202.021 154.973 202.208C156.408 202.395 157.866 202.286 159.265 201.887C160.663 201.488 161.974 200.807 163.123 199.882C164.273 198.958 165.237 197.808 165.962 196.498C166.687 195.188 167.159 193.745 167.349 192.25C167.54 190.755 167.446 189.237 167.073 187.784C166.7 186.331 166.055 184.971 165.175 183.781C164.295 182.591 163.198 181.595 161.946 180.85C159.416 179.345 156.408 178.952 153.584 179.758C150.76 180.564 148.351 182.502 146.886 185.147" fill="#373E48"/>
<path d="M20.4491 174.229C20.4491 178.685 22.1909 182.958 25.2916 186.109C28.3923 189.259 32.5979 191.029 36.983 191.029C39.1543 191.029 41.304 190.595 43.3101 189.75C45.3161 188.906 47.1389 187.669 48.6743 186.109C50.2097 184.549 51.4273 182.697 52.2582 180.658C53.0891 178.62 53.5168 176.436 53.5168 174.229C53.5168 172.023 53.0891 169.839 52.2582 167.8C51.4273 165.762 50.2097 163.91 48.6743 162.35C47.1389 160.79 45.3161 159.553 43.3101 158.708C41.304 157.864 39.1543 157.43 36.983 157.43C32.5979 157.43 28.3923 159.2 25.2916 162.35C22.1909 165.501 20.4491 169.774 20.4491 174.229Z" fill="#373E48"/>
<path opacity="0.1" d="M27.1651 148.489L47.179 150.478L57.7327 153.906L62.7157 154.216C62.7157 154.216 62.0557 152.245 61.4461 151.429C60.6873 150.413 58.5783 148.943 58.5783 148.943L35.8065 143C35.8065 143 33.1355 143 31.9208 143.481C30.7026 143.963 28.7377 145.802 28.7377 145.802L27.1651 148.489Z" fill="#1A1A1A"/>
<path opacity="0.5" d="M227.746 344.689C227.746 344.689 229.393 341.346 232.044 341.252L249.263 340.155C249.263 340.155 248.983 342.745 245.917 343.732L227.746 344.689Z" fill="#ECECEC"/>
<path opacity="0.25" d="M31.2988 308.424L32.4708 307.5L35.8099 307.424L35.8627 304.054L40.5921 303.998L32.8413 281.448L21.2913 279.429L59.4208 264.388L58.6615 273.994L68.0224 274.171C68.0224 274.171 64.4377 278.073 61.0263 280.296C59.786 281.104 57.1348 282.934 51.9713 283.074C46.3313 283.228 36.1729 281.819 36.6537 284.917C38.0722 294.058 41.5504 306.475 41.5504 306.475L37.7639 309.681L35.7375 309.718L31.2277 310.535L31.2988 308.424Z" fill="#1A1A1A"/>
<path d="M31.4056 310.6C31.4056 310.6 17.2376 311.363 12.5573 303.459C8.99344 297.44 7.03666 289.05 9.78472 282.61C13.4927 273.92 32.6074 266.025 32.6074 266.025L63.9547 254.747C71.8235 251.58 80.3484 247.431 77.0352 238.885C65.796 219.829 49.2747 208.97 51.7579 198.67C53.0892 194.392 62.0551 193.945 65.2438 188.894C71.3561 179.21 69.4993 169.861 76.6799 169.951C110.4 176.018 130.838 181.2 137.617 189.817C143.569 197.382 140.332 211.957 150.944 220.344C155.895 224.256 162.822 225.128 168.042 223.682C171.947 222.6 175.601 219.234 175.601 219.234" stroke="#373E48" stroke-width="2.69614"/>
<path opacity="0.25" d="M52.4501 180.439C52.4501 180.439 87.888 207.074 97.656 226.196C101.313 233.356 100.189 246.767 100.384 251.424C100.422 252.31 102.457 254.547 102.457 254.547L101.511 260.407L104.364 272.24L101.477 281.908L88.8783 288.98L90.7047 292.535C90.7047 292.535 89.4081 293.198 89.6879 295.651C89.986 298.271 87.4839 300.512 85.7334 303.321C80.3388 311.98 77.823 320.768 77.823 320.768L83.1098 320.816L93.5524 292.034L97.752 290.364C97.752 290.364 101.65 287.93 103.19 286.255C104.911 284.385 106.269 282.145 107.273 279.803C108.311 277.383 108.96 274.836 109.2 272.133C109.395 269.942 109.312 267.555 108.839 265.409C108.357 263.226 106.625 259.084 106.625 259.084L105.054 256.674C105.054 256.674 106.386 249.698 106.859 246.18C107.202 243.627 107.511 241.061 107.609 238.486C107.717 235.623 107.705 232.743 107.425 229.892C107.273 228.323 106.609 225.234 106.609 225.234C106.609 225.234 105.542 221.341 104.21 219.744C99.2957 213.849 88.0221 204.207 88.0221 204.207L54.8888 177.355L53.1901 177.867L52.4501 180.439Z" fill="#333333"/>
<path opacity="0.5" d="M53.0445 177.947L55.3143 177.249C55.3143 177.249 56.4195 176.576 56.9211 176.17C57.9344 175.348 58.2903 174.671 58.2903 174.671L64.6814 176.332L65.378 173.708L53.2451 171.701L49.3157 179.572L36.434 186.767L30.3724 189.521L34.5657 190.856L35.7191 193.123C35.7191 193.123 42.546 192.522 45.408 190.829C47.308 189.706 49.9076 187.911 51.2169 185.667C52.115 184.128 52.3532 180.432 52.3532 180.432L53.0445 177.947Z" fill="#333333"/>
<path opacity="0.25" d="M159.828 205.378L163.102 204.036L170.055 206.212L166.002 211.531L166.108 216.605L163.054 213.628L165.306 211.151L159.828 205.378Z" fill="#1A1A1A"/>
<path opacity="0.997" d="M171.647 218.7L172.447 217.934C173.055 217.351 174.009 217.377 174.585 217.99L176.595 220.127C177.172 220.741 177.147 221.704 176.539 222.286L175.739 223.052C175.131 223.635 174.177 223.609 173.6 222.996L171.591 220.858C171.014 220.245 171.039 219.282 171.647 218.7H171.647Z" fill="#666666"/>
<path opacity="0.997" d="M79.2699 172.631L80.4273 167.855C80.7124 166.679 81.8798 165.963 83.045 166.251L126.746 177.041C127.911 177.328 128.62 178.507 128.335 179.683L127.177 184.459C126.892 185.636 125.725 186.351 124.56 186.063L80.8587 175.273C79.6935 174.986 78.9849 173.807 79.2699 172.631Z" fill="#666666"/>
<path opacity="0.997" d="M49.5059 205.325L52.0319 203.518C53.0107 202.818 54.3569 203.05 55.0504 204.038L58.311 208.683C59.0044 209.671 58.7748 211.03 57.796 211.73L55.27 213.537C54.2912 214.237 52.945 214.005 52.2515 213.017L48.9909 208.372C48.2975 207.384 48.5271 206.025 49.5059 205.325Z" fill="#666666"/>
<path opacity="0.997" d="M67.4951 229.134L70.0211 227.328C70.9998 226.628 72.3461 226.86 73.0395 227.848L76.3001 232.493C76.9936 233.481 76.7639 234.84 75.7852 235.54L73.2591 237.346C72.2804 238.046 70.9342 237.815 70.2407 236.826L66.9801 232.181C66.2866 231.193 66.5163 229.834 67.4951 229.134V229.134Z" fill="#666666"/>
<path opacity="0.3" d="M79.4064 172.625L80.5639 167.849C80.8489 166.673 82.0163 165.957 83.1815 166.245L126.882 177.035C128.048 177.322 128.756 178.501 128.471 179.677L127.314 184.453C127.029 185.629 125.861 186.345 124.696 186.057L80.9952 175.267C79.83 174.98 79.1214 173.801 79.4064 172.625Z" fill="#4D4D4D"/>
<path d="M306.629 265.655H369.576L355.348 307.924L322.144 307.802L306.629 265.655Z" fill="#FFCC00"/>
<path d="M369.677 291.997H365.953C364.941 291.997 364.127 292.819 364.127 293.84V297.186C364.127 298.207 364.941 299.029 365.953 299.029H369.677C370.689 299.029 371.503 298.207 371.503 297.186V293.84C371.503 292.819 370.689 291.997 369.677 291.997Z" fill="#666666"/>
<path d="M366.7 288.517H356.435V301.312H366.7V288.517Z" fill="#373E48"/>
<path d="M207.898 286.931L207.819 287.544C207.705 288.428 208.319 289.238 209.194 289.358L212.351 289.794C213.227 289.914 214.023 289.3 214.136 288.415L214.215 287.802C214.329 286.918 213.715 286.108 212.84 285.988L209.683 285.552C208.807 285.432 208.011 286.046 207.898 286.931H207.898Z" fill="#808080"/>
<path d="M207.92 277.236L206.85 285.575C206.686 286.858 207.575 288.031 208.844 288.206L213.422 288.837C214.691 289.012 215.845 288.121 216.01 286.838L217.08 278.499C217.244 277.216 216.355 276.043 215.086 275.868L210.508 275.237C209.239 275.062 208.085 275.953 207.92 277.236Z" fill="#333333"/>
<path opacity="0.95" d="M316.152 307.588V312.299L308.79 341.385L316.117 341.21V342.262L361.11 342.45V341.415L367.15 341.406L361.11 316.658V307.589L316.152 307.588Z" fill="#0B2228"/>
<path opacity="0.4" d="M337.604 310.906V341.251H331.905L335.384 310.863L337.604 310.906Z" fill="black"/>
<path opacity="0.4" d="M359.101 309.908H357.772V341.819H367.48L359.101 309.908Z" fill="black" stroke="black" stroke-width="0.108597"/>
<path opacity="0.4" d="M317.942 310.393H319.271V342.537H309.563L317.942 310.393Z" fill="black" stroke="black" stroke-width="0.10899"/>
<path d="M314.754 309.855V311.554H315.899L308.909 340.224H307.686V342.563H369.383V340.224H368.122L361.132 311.554H362.234V309.855H314.754ZM317.428 311.554H338.608V340.224H310.439L317.428 311.554ZM340.933 311.554H359.602L366.593 340.224H344.404L340.933 311.554Z" fill="#4D4D4D"/>
<path d="M349.034 239.649H380.85C383.807 239.649 386.188 245.117 386.188 251.91V260.03C386.188 266.823 383.807 272.291 380.85 272.291H349.034C346.077 272.291 343.696 266.823 343.696 260.03V251.91C343.696 245.117 346.077 239.649 349.034 239.649Z" fill="#373E48"/>
<path d="M307.4 171.465L292.132 179.074C292.132 179.074 287.69 227.335 288.514 248.814C289.066 263.182 318.021 276.929 318.021 276.929L347.801 287.695L307.4 171.465Z" fill="#FFCC00"/>
<path d="M342.305 261.007C342.305 266.415 340.315 271.601 336.773 275.425C333.231 279.248 328.428 281.397 323.419 281.397C318.41 281.397 313.606 279.248 310.064 275.425C306.522 271.601 304.532 266.415 304.532 261.007C304.532 255.599 306.522 250.413 310.064 246.589C313.606 242.765 318.41 240.617 323.419 240.617C328.428 240.617 333.231 242.765 336.773 246.589C340.315 250.413 342.305 255.599 342.305 261.007" fill="#373E48"/>
<path d="M208.347 262.617L207.392 270.009L219.58 271.7L220.535 264.309L208.347 262.617Z" fill="#FFCC00"/>
<path d="M204.485 269.455L203.974 273.407L222.109 275.924L222.62 271.972L204.485 269.455Z" fill="#1C2224"/>
<path d="M205.575 273.407L205.064 277.36L220.017 279.435L220.527 275.482L205.575 273.407Z" fill="#1C2224"/>
<path d="M206.354 242.162C208.127 240.67 210.254 239.7 212.516 239.351C214.777 239.002 217.091 239.288 219.216 240.178L276.458 192.001L284.202 201.891L227.052 249.991C227.507 252.365 227.331 254.82 226.544 257.091C225.756 259.363 224.386 261.366 222.581 262.885C221.276 263.984 219.773 264.804 218.159 265.299C216.545 265.793 214.852 265.952 213.175 265.767C211.499 265.582 209.872 265.056 208.388 264.219C206.904 263.383 205.592 262.252 204.526 260.891C203.461 259.53 202.663 257.966 202.178 256.289C201.693 254.611 201.531 252.853 201.701 251.113C201.87 249.374 202.369 247.689 203.167 246.153C203.966 244.617 205.049 243.261 206.354 242.162V242.162Z" fill="#FFCC00"/>
<path d="M220.06 244.138C222.219 245.745 223.678 248.169 224.117 250.874C224.556 253.58 223.939 256.347 222.402 258.566C220.864 260.785 218.532 262.274 215.918 262.706C213.305 263.139 210.624 262.479 208.466 260.871C207.397 260.075 206.488 259.07 205.792 257.915C205.096 256.759 204.626 255.474 204.409 254.135C204.191 252.795 204.231 251.426 204.525 250.106C204.82 248.787 205.363 247.542 206.124 246.443C207.662 244.224 209.994 242.735 212.607 242.303C215.221 241.87 217.902 242.53 220.06 244.138" fill="#373E48"/>
<path d="M295.717 166.877C298.736 164.4 303.089 164.925 305.478 168.054L313.171 178.128C315.56 181.257 315.055 185.77 312.037 188.247L297.017 200.576C294.701 202.476 291.602 202.608 289.205 201.155L284.404 205.095L273.937 191.389L278.577 187.581C277.425 184.686 278.204 181.251 280.697 179.205L295.717 166.877Z" fill="#FFCC00"/>
<path d="M316.931 187.939C316.931 189.932 316.544 191.906 315.794 193.747C315.043 195.589 313.943 197.262 312.555 198.672C311.168 200.081 309.521 201.199 307.709 201.962C305.896 202.725 303.954 203.117 301.992 203.117C298.03 203.117 294.23 201.518 291.429 198.672C288.627 195.825 287.053 191.964 287.053 187.939C287.053 183.913 288.627 180.052 291.429 177.206C294.23 174.359 298.03 172.76 301.992 172.76C303.954 172.76 305.896 173.153 307.709 173.915C309.521 174.678 311.168 175.796 312.555 177.206C313.943 178.615 315.043 180.288 315.794 182.13C316.544 183.972 316.931 185.945 316.931 187.939" fill="#373E48"/>
<path opacity="0.2" d="M322.565 307.549L331.029 307.59L321.283 280.963L328.384 271.377L304.441 257.903C304.441 257.903 295.987 251.322 294.263 246.514C289.308 232.702 293.95 200.522 293.95 200.522L290.617 197.719L288.617 231.899L288.565 252.267L292.905 258.524L297.324 263.163L306.483 270.388L310.174 275.866L322.565 307.549Z" fill="#1A1A1A"/>
<path opacity="0.25" d="M348.389 272.253L363.004 276.459L360.35 289.727L364.533 294.685L366.705 298.541L371.379 298.171L371.328 294.026L370.227 292.184L366.32 291.878V288.71L362.064 288.409L367.246 272.434L361.785 269.369L348.611 239.536L345.401 242.506L343.524 253.88L343.862 264.378L345.851 270.528L348.389 272.253Z" fill="#1A1A1A"/>
<path opacity="0.2" d="M210.704 270.115L215.025 265.378L220.61 264.301L219.469 271.479L222.651 272.167L221.893 275.922L210.704 270.115Z" fill="#1A1A1A"/>
<path opacity="0.2" d="M230.389 241.925L229.845 247.561L228.73 248.667L228.076 246.311L228.367 243.437L230.389 241.925Z" fill="#1A1A1A"/>
<path opacity="0.1" d="M309.293 172.052L302.851 166.149L300.07 165.282L297.499 165.821L293.671 168.524L282.273 177.894L279.363 180.461L278.003 184.787L284.185 182.257L290.825 173.738L301.448 169.754L309.293 172.052Z" fill="#1A1A1A"/>
<path d="M209.132 289.606L201.38 299.801L216.479 301.81L211.601 289.92L209.132 289.606Z" fill="#D40000"/>
<path d="M217.115 283.56C217.115 283.56 220.965 286.992 229.601 284.471C236.963 281.743 239.706 278.94 235.613 267.293C230.877 255.951 223.081 246.543 228.395 241.498C239.567 230.893 258.027 208.209 272.45 205.225C277.38 204.205 278.725 208.14 291.973 210.783C303.481 213.078 307.193 202.383 312.558 205.307C317.516 213.872 319.547 227.518 325.112 235.563C329.027 242.003 354.595 231.247 361.789 236.318C376.275 246.529 375.045 257.653 382.199 269.709C385.351 275.021 388.312 279.757 388.785 285.931C389.291 292.532 379.985 295.528 379.985 295.528L371.407 295.622" stroke="#373E48" stroke-width="2.75734"/>
<path d="M232.86 240.951L229.635 237.118C228.841 236.174 228.954 234.769 229.889 233.967L264.959 203.904C265.894 203.102 267.286 203.217 268.08 204.16L271.305 207.993C272.099 208.937 271.986 210.342 271.051 211.144L235.981 241.208C235.046 242.009 233.654 241.895 232.86 240.951L232.86 240.951Z" fill="#666666"/>
<path opacity="0.997" d="M319.971 226.956L322.447 226.232C323.406 225.951 324.402 226.505 324.681 227.473L325.989 232.027C326.267 232.995 325.718 234.001 324.759 234.281L322.283 235.006C321.323 235.287 320.327 234.733 320.049 233.765L318.741 229.211C318.463 228.243 319.011 227.237 319.971 226.956V226.956Z" fill="#666666"/>
<path opacity="0.997" d="M314.081 210.408L316.557 209.683C317.516 209.402 318.513 209.956 318.791 210.924L320.099 215.478C320.377 216.446 319.828 217.452 318.869 217.733L316.393 218.457C315.433 218.738 314.437 218.184 314.159 217.216L312.851 212.662C312.573 211.694 313.121 210.688 314.081 210.408V210.408Z" fill="#666666"/>
<path opacity="0.997" d="M217.529 281.724L218.449 281.806C219.148 281.869 219.661 282.488 219.599 283.194L219.383 285.653C219.321 286.359 218.708 286.876 218.008 286.814L217.089 286.731C216.389 286.669 215.876 286.05 215.938 285.344L216.154 282.885C216.216 282.179 216.83 281.661 217.529 281.724L217.529 281.724Z" fill="#666666"/>
<path opacity="0.1" d="M228.747 419.259L228.599 419.283C228.599 419.283 233.228 417.17 228.747 419.259Z" fill="black"/>
<path opacity="0.1" d="M271.404 435.804L271.496 436.496C271.411 436.278 271.379 436.041 271.404 435.804V435.804Z" fill="black"/>
<path d="M108.089 341.25C108.089 341.25 161.416 307.779 195.987 307.529C195.987 307.529 210.54 308.809 231.838 309.493C245.577 309.934 261.917 308.097 279.655 312.301C324.889 323.023 341.562 337.229 354.128 332.932L301.392 334.871L108.089 341.25Z" fill="#121C3F"/>
<path d="M348.185 349.507L348.043 394.035L43.0682 396.415L51.5691 359.821L103.478 344.424L348.185 349.507Z" fill="#121C3F"/>
<path d="M364.169 371.085L364.129 382.743C364.129 382.743 355.052 389.955 354.211 395.554C354.211 395.554 341.234 399.235 337.532 399.264C337.196 399.267 336.829 399.271 336.445 399.315C337.029 397.623 337.486 395.884 337.814 394.115C338.737 389.151 338.639 384.038 337.526 379.143C336.413 374.249 334.313 369.696 331.377 365.811C328.441 361.927 324.742 358.808 320.547 356.679C316.352 354.551 311.765 353.466 307.117 353.502C302.468 353.538 297.874 354.695 293.665 356.889C289.456 359.083 285.738 362.26 282.777 366.19C279.816 370.121 277.687 374.707 276.542 379.619C275.398 384.531 275.268 389.646 276.16 394.596C276.589 396.982 277.252 399.309 278.138 401.536L260.558 401.674C260.558 401.674 260.394 401.735 260.131 401.862C259.187 402.333 256.961 403.575 256.635 405.502L110.941 406.639L107.956 406.635C108.594 405.472 109.168 404.269 109.673 403.033C110.617 400.742 111.32 398.346 111.769 395.889C112.651 391.197 112.621 386.367 111.681 381.71C110.741 377.052 108.912 372.671 106.311 368.849C103.711 365.027 100.396 361.848 96.5822 359.517C92.768 357.187 88.5386 355.757 84.1665 355.319C79.7944 354.881 75.3766 355.445 71.1981 356.975C67.0195 358.505 63.1728 360.966 59.906 364.201C56.6391 367.436 54.0247 371.371 52.2311 375.755C50.4376 380.138 49.5048 384.872 49.4928 389.651C49.4856 391.904 49.6813 394.15 50.0772 396.357C50.7525 400.093 52.0011 403.673 53.7707 406.947C51.6913 406.411 47.1541 404.879 47.1541 404.879C47.1541 404.879 27.82 402.795 22.8963 398.113L23.6444 397.546L26.8162 395.17L25.394 389.153C25.2207 388.9 25.0782 388.624 24.9699 388.331C24.5893 387.327 24.2582 385.461 25.622 383.104C27.689 379.508 26.7016 366.763 26.7016 366.763C26.7016 366.763 54.7545 345.515 109.92 340.382C109.92 340.382 111.234 341.485 113.954 341.695C115.796 341.843 118.283 341.578 121.448 340.292C121.448 340.292 125.965 342.492 145.362 330.261C145.362 330.261 178.37 305.388 221.579 307.296C221.579 307.296 266.037 304.037 303.85 319.638C320.146 326.355 332.55 329.908 341.393 331.768C349.559 333.49 354.689 333.779 357.038 333.788L357.09 333.788C357.858 333.781 358.314 333.777 358.476 333.777L358.547 333.777C358.547 333.777 358.547 339.105 358.77 345.396V345.428C358.857 347.616 358.979 349.919 359.149 352.158V352.297C359.624 358.53 360.459 364.191 361.936 365.301L364.169 371.085Z" fill="#CCCCCC"/>
<path d="M31.1545 366.218C31.1545 366.218 43.5861 355.603 59.0137 357.723C59.0137 357.723 44.9308 369.917 38.604 369.183L37.5281 368.185L31.1299 368.624C31.1299 368.624 30.1796 367.009 31.1651 366.218H31.1545Z" fill="#121C3F"/>
<path opacity="0.2" d="M43.1322 384.321L43.0923 390.53C43.0923 390.53 42.6468 396.465 37.7206 396.726L23.644 397.591L26.8115 395.216L25.3893 389.198C25.2153 388.948 25.0727 388.673 24.9653 388.381C26.2489 387.091 29.2711 384.906 35.4054 384.395L43.1322 384.321Z" fill="white"/>
<path d="M217.155 313.454L207.076 342.015L171.063 342.337L161.791 342.409L153.726 342.472L146.753 342.527L138.854 342.589C138.854 342.589 143.677 338.711 151.442 333.758C154.007 332.115 156.916 330.358 160.074 328.59C162.979 326.954 166.106 325.297 169.391 323.723C171.953 322.478 174.653 321.279 177.411 320.159C189.919 315.095 203.969 311.651 217.155 313.454V313.454Z" fill="#121C3F"/>
<path d="M273.672 332.722C273.672 332.722 258.618 335.265 244.252 337.172C238.761 337.901 233.373 338.537 228.962 338.9L228.348 338.952C226.641 339.086 225.059 339.177 223.715 339.215C221.583 339.274 219.988 339.183 219.191 338.912L223.427 311.635C223.427 311.635 228.545 311.657 236.114 312L237.769 312.085C239.342 312.17 241 312.268 242.732 312.384C245.205 312.55 247.81 312.753 250.496 313.001C263.466 314.193 278.156 316.402 287.448 320.512C307.222 329.271 273.672 332.723 273.672 332.723V332.722Z" fill="#121C3F"/>
<path d="M342.976 345.885L342.941 353.156C342.941 353.156 332.137 353.407 334.461 351.043C335.965 349.473 337.331 347.754 338.542 345.91L342.976 345.885Z" fill="#121C3F"/>
<path d="M359.141 352.288L350.366 353.103L350.401 344.361C350.401 344.361 354.485 338.12 358.528 344.97L358.76 345.372L359.141 352.288Z" fill="#121C3F"/>
<path opacity="0.5" d="M260.138 401.844C259.194 402.315 256.968 403.556 256.642 405.483L110.944 406.62L107.959 406.617C108.597 405.454 109.17 404.251 109.676 403.014L260.138 401.844Z" fill="#666666"/>
<path opacity="0.1" d="M188.565 364.702C188.112 365.398 187.698 366.123 187.325 366.872C184.535 372.64 178.116 363.35 180.357 360.105L181.901 358.531C181.315 365.945 186.866 365.114 188.565 364.702Z" fill="black"/>
<path opacity="0.1" d="M199.181 377.696L199.033 377.697C199.033 377.697 203.943 376.221 199.181 377.696Z" fill="black"/>
<path opacity="0.1" d="M239.643 404.234V405.023C239.586 404.764 239.586 404.494 239.643 404.234V404.234Z" fill="black"/>
<path d="M12.5161 423.205L382.322 421.968L382.35 431.556L12.5442 432.793L12.5161 423.205Z" fill="#535D6C"/>
<path d="M81.7568 390.636L92.0052 390.548L99.3067 417.505L76.1097 417.579L81.7568 390.636Z" fill="#373E48"/>
<path d="M310.973 391.517L321.221 391.43L328.523 418.386L305.326 418.46L310.973 391.517Z" fill="#373E48"/>
<path d="M194.276 405.5L209.802 405.42L220.787 420.193L185.643 420.305L194.276 405.5Z" fill="#373E48"/>
<path d="M19.4187 411.207L391.249 409.964L391.277 419.552L19.4468 420.795L19.4187 411.207Z" fill="#535D6C"/>
<path d="M301.488 391.555L313.381 391.449L321.863 425.23L294.941 425.316L301.488 391.555Z" fill="#535D6C"/>
<path d="M74.4304 390.613L86.3233 390.507L94.8054 424.288L67.884 424.374L74.4304 390.613Z" fill="#535D6C"/>
<path opacity="0.15" d="M21.7234 409.502L393.554 408.259L393.582 417.847L21.7515 419.09L21.7234 409.502Z" fill="#1C1F24"/>
<path d="M181.882 405.26L200.417 405.154L213.547 428.191L171.592 428.325L181.882 405.26Z" fill="#535D6C"/>
<path opacity="0.2" d="M75.746 390.932L87.6389 390.826L96.121 424.607L69.1996 424.693L75.746 390.932Z" fill="#1C1F24"/>
<path opacity="0.2" d="M15.9335 423.032L383.577 421.795L383.605 431.383L15.9615 432.62L15.9335 423.032Z" fill="#1C1F24"/>
<path opacity="0.2" d="M183.266 403.369L201.801 403.263L214.932 426.3L172.976 426.434L183.266 403.369Z" fill="#1C1F24"/>
<path opacity="0.2" d="M302.788 390.822L314.681 390.715L323.163 424.496L296.241 424.582L302.788 390.822Z" fill="#1C1F24"/>
<path d="M208.659 307.985C208.692 308.861 209.347 308.082 209.227 308.612C209.15 308.956 208.489 308.892 208.281 309.196C208.162 309.372 208.155 309.621 207.983 309.832C207.765 310.102 207.548 310.523 207.656 310.763C207.856 311.208 208.555 310.503 209.02 310.636C209.491 310.771 208.964 311.611 209.57 311.733C210.048 311.83 209.936 310.992 210.837 310.743C211.122 310.664 211.417 311.193 211.765 311.158C212.41 311.091 212.67 310.39 213.155 310.435C213.863 310.5 214.373 311.766 215.056 312.408C215.853 313.156 216.809 312.625 217.274 313.273C217.582 313.701 217.218 314.354 217.356 314.856C217.544 315.535 216.2 319.294 216.2 319.294L217.217 325.634C217.217 325.634 219.34 327.689 219.983 327.532C221.375 327.194 222.454 316.077 223.124 313.679L223.424 311.63L229.007 311.717L238.396 312.114L251.218 313.052L268.555 315.296L278.549 317.477L286.631 320.245L291.145 322.443L292.767 323.78C292.767 323.78 293.3 324.378 293.439 324.745C293.61 325.199 293.718 325.72 293.61 326.194C293.507 326.65 293.177 327.036 292.857 327.375C292.56 327.691 291.805 328.136 291.805 328.136L290.296 328.975L288.282 329.813L287.004 330.145L296.267 352.709L355.549 340.47L358.651 340.55L358.719 333.813L356.293 333.771L349.011 333.248L329.849 328.925L293.132 315.705L279.479 311.977L264.046 309.209L256.757 308.316L251.576 307.849L245.174 307.267L229.515 307.035L209.685 307.42C209.685 307.42 208.65 307.712 208.661 307.985L208.659 307.985Z" fill="#D40000"/>
</g>
<defs>
<clipPath id="clip0">
<rect width="395" height="299" fill="white" transform="translate(0 143)"/>
</clipPath>
</defs>
</svg>
