<svg width="764" height="521" viewBox="0 0 764 521" fill="none" xmlns="http://www.w3.org/2000/svg">
<g opacity="0.95" clip-path="url(#clip0)">
<path d="M92.8336 275.435H88.6382C87.502 275.435 86.5811 276.356 86.5811 277.492V281.227C86.5811 282.363 87.502 283.284 88.6382 283.284H92.8336C93.9697 283.284 94.8907 282.363 94.8907 281.227V277.492C94.8907 276.356 93.9697 275.435 92.8336 275.435Z" fill="#666666"/>
<path d="M538.775 235.761H542.971C544.107 235.761 545.028 236.682 545.028 237.818V241.553C545.028 242.689 544.107 243.61 542.971 243.61H538.775C537.639 243.61 536.718 242.689 536.718 241.553V237.818C536.718 236.682 537.639 235.761 538.775 235.761Z" fill="#666666"/>
<path d="M528.052 231.877H539.617V246.158H528.052V231.877Z" fill="#373E48"/>
<path d="M631.375 253.244H543.916C542.779 253.244 541.858 254.165 541.858 255.301V325.588C541.858 326.724 542.779 327.645 543.916 327.645H631.375C632.511 327.645 633.432 326.724 633.432 325.588V255.301C633.432 254.165 632.511 253.244 631.375 253.244Z" fill="#999999"/>
<path d="M619.902 285.066H554.166C553.029 285.066 552.108 285.987 552.108 287.123V315.922C552.108 317.058 553.029 317.979 554.166 317.979H619.902C621.038 317.979 621.959 317.058 621.959 315.922V287.123C621.959 285.987 621.038 285.066 619.902 285.066Z" fill="#808080"/>
<path d="M556.13 273.71C559.178 273.71 561.647 271.19 561.647 268.082C561.647 264.975 559.178 262.455 556.13 262.455C553.083 262.455 550.612 264.975 550.612 268.082C550.612 271.19 553.083 273.71 556.13 273.71Z" fill="#C83737"/>
<path d="M620.279 262.274H581.5C580.364 262.274 579.443 263.195 579.443 264.331V270.822C579.443 271.958 580.364 272.879 581.5 272.879H620.279C621.415 272.879 622.336 271.958 622.336 270.822V264.331C622.336 263.195 621.415 262.274 620.279 262.274Z" fill="#808080"/>
<path d="M567.851 272.401C569.878 272.401 571.52 270.726 571.52 268.659C571.52 266.592 569.878 264.917 567.851 264.917C565.825 264.917 564.182 266.592 564.182 268.659C564.182 270.726 565.825 272.401 567.851 272.401Z" fill="#37C871"/>
<path d="M618.623 263.497H582.325C581.451 263.497 580.743 264.205 580.743 265.079V270.072C580.743 270.945 581.451 271.654 582.325 271.654H618.623C619.497 271.654 620.205 270.945 620.205 270.072V265.079C620.205 264.205 619.497 263.497 618.623 263.497Z" fill="#333333"/>
<path d="M89.5163 290.408H2.05711C0.920997 290.408 0 291.329 0 292.465V362.752C0 363.889 0.920997 364.81 2.05711 364.81H89.5163C90.6524 364.81 91.5734 363.889 91.5734 362.752V292.465C91.5734 291.329 90.6524 290.408 89.5163 290.408Z" fill="#999999"/>
<path d="M103.556 271.551H91.9912V285.832H103.556V271.551Z" fill="#373E48"/>
<path d="M78.0439 322.23H12.3071C11.171 322.23 10.25 323.151 10.25 324.287V353.086C10.25 354.222 11.171 355.143 12.3071 355.143H78.0439C79.18 355.143 80.101 354.222 80.101 353.086V324.287C80.101 323.151 79.18 322.23 78.0439 322.23Z" fill="#808080"/>
<path d="M360.631 230.792L360.719 230.108C360.847 229.123 361.747 228.435 362.73 228.569L366.286 229.055C367.27 229.189 367.963 230.096 367.836 231.08L367.747 231.764C367.62 232.748 366.719 233.437 365.736 233.303L362.18 232.817C361.197 232.682 360.503 231.776 360.631 230.792Z" fill="#808080"/>
<path d="M359.539 228.595L360.745 219.287C360.93 217.86 362.235 216.861 363.66 217.056L368.817 217.76C370.242 217.955 371.249 219.27 371.064 220.696L369.858 230.004C369.674 231.431 368.368 232.43 366.942 232.235L361.786 231.531C360.36 231.336 359.355 230.021 359.539 228.595Z" fill="#333333"/>
<path opacity="0.95" d="M482.673 253.162V258.42L474.38 290.881L482.633 290.686V291.86L533.319 292.071V290.915L540.123 290.902L533.319 263.282V253.161L482.673 253.162Z" fill="#0B2228"/>
<path opacity="0.4" d="M506.838 256.865V290.732H500.418L504.337 256.817L506.838 256.865Z" fill="black"/>
<path opacity="0.4" d="M531.056 255.751H529.559V291.366H540.495L531.056 255.751Z" fill="black" stroke="black" stroke-width="0.148855"/>
<path opacity="0.4" d="M484.69 256.292H486.186V292.167H475.25L484.69 256.292Z" fill="black" stroke="black" stroke-width="0.149394"/>
<path d="M481.097 255.692V257.588H482.387L474.513 289.586H473.135V292.196H542.639V289.586H541.218L533.344 257.588H534.586V255.692H481.097ZM484.11 257.588H507.97V289.586H476.235L484.11 257.588ZM510.588 257.588H531.62L539.496 289.586H514.499L510.588 257.588Z" fill="#4D4D4D"/>
<path d="M471.944 206.362H542.856L526.827 253.537L489.423 253.401L471.944 206.362Z" fill="#FFCC00"/>
<path d="M555.557 177.339H519.714C516.393 177.339 513.702 183.465 513.702 191.022V200.085C513.702 207.642 516.393 213.768 519.714 213.768H555.557C558.877 213.768 561.57 207.642 561.57 200.085V191.022C561.57 183.465 558.877 177.339 555.557 177.339Z" fill="#373E48"/>
<path d="M472.813 101.241L455.613 109.733C455.613 109.733 450.609 163.595 451.537 187.567C452.159 203.602 484.778 218.944 484.778 218.944L518.326 230.961L472.813 101.241Z" fill="#FFCC00"/>
<path d="M490.858 223.931C502.608 223.931 512.134 213.743 512.134 201.175C512.134 188.607 502.608 178.418 490.858 178.418C479.107 178.418 469.582 188.607 469.582 201.175C469.582 213.743 479.107 223.931 490.858 223.931Z" fill="#373E48"/>
<path d="M360.15 211.222L361.225 202.972L374.956 204.86L373.881 213.11L360.15 211.222Z" fill="#FFCC00"/>
<path d="M356.3 215.014L356.875 210.603L377.305 213.412L376.73 217.824L356.3 215.014Z" fill="#1C2224"/>
<path d="M357.529 219.426L358.104 215.014L374.948 217.33L374.373 221.742L357.529 219.426Z" fill="#1C2224"/>
<path d="M358.981 180.143C360.978 178.478 363.374 177.395 365.922 177.005C368.47 176.616 371.076 176.935 373.471 177.928L437.956 124.161L446.68 135.199L382.298 188.88C382.811 191.53 382.613 194.269 381.726 196.805C380.838 199.34 379.295 201.575 377.261 203.271C375.79 204.497 374.098 205.413 372.28 205.964C370.461 206.516 368.554 206.694 366.666 206.487C364.777 206.28 362.944 205.693 361.272 204.76C359.601 203.826 358.122 202.564 356.922 201.045C355.721 199.527 354.823 197.781 354.277 195.909C353.73 194.037 353.547 192.074 353.738 190.133C353.93 188.192 354.492 186.311 355.391 184.597C356.291 182.883 357.51 181.369 358.981 180.143V180.143Z" fill="#FFCC00"/>
<path d="M377.059 198.45C380.666 193.294 379.485 186.084 374.421 182.348C369.358 178.612 362.329 179.764 358.722 184.921C355.115 190.078 356.296 197.287 361.359 201.023C366.423 204.759 373.452 203.607 377.059 198.45Z" fill="#373E48"/>
<path d="M459.652 96.1211C463.052 93.3563 467.956 93.9424 470.647 97.4343L479.314 108.677C482.006 112.169 481.435 117.207 478.036 119.971L461.115 133.73C458.507 135.851 455.016 135.998 452.315 134.377L446.906 138.774L435.116 123.477L440.342 119.227C439.045 115.996 439.921 112.163 442.73 109.88L459.652 96.1211Z" fill="#FFCC00"/>
<path d="M466.721 136.567C476.015 136.567 483.55 128.983 483.55 119.627C483.55 110.271 476.015 102.687 466.721 102.687C457.426 102.687 449.892 110.271 449.892 119.627C449.892 128.983 457.426 136.567 466.721 136.567Z" fill="#373E48"/>
<path d="M264.862 172.487L264.403 172.004C263.62 171.177 262.333 171.159 261.529 171.963L258.618 174.872C257.813 175.676 257.795 176.998 258.578 177.824L259.037 178.308C259.82 179.135 261.107 179.153 261.911 178.349L264.822 175.44C265.627 174.636 265.645 173.314 264.862 172.487Z" fill="#808080"/>
<path d="M264.39 169.717L257.278 162.21C256.143 161.012 254.277 160.986 253.111 162.151L248.89 166.369C247.723 167.535 247.698 169.451 248.833 170.65L255.945 178.157C257.08 179.355 258.945 179.381 260.112 178.215L264.333 173.998C265.499 172.832 265.525 170.915 264.39 169.717Z" fill="#333333"/>
<path opacity="0.95" d="M154.005 290.316V296.268L163.392 333.012L154.049 332.79V334.119L96.6773 334.358V333.05L88.9739 333.035L96.6773 301.772V290.315L154.005 290.316Z" fill="#0B2228"/>
<path opacity="0.4" d="M126.649 294.507V332.843H133.916L129.48 294.454L126.649 294.507Z" fill="black"/>
<path opacity="0.4" d="M99.2379 293.247H100.931V333.56H88.5542L99.2379 293.247Z" fill="black" stroke="black" stroke-width="0.168493"/>
<path opacity="0.4" d="M151.722 293.859H150.028V334.467H162.406L151.722 293.859Z" fill="black" stroke="black" stroke-width="0.169102"/>
<path d="M155.788 293.18V295.326H154.328L163.24 331.545H164.8V334.499H86.1274V331.545H87.7351L96.6493 295.326H95.2429V293.18H155.788ZM152.377 295.326H125.37V331.545H161.291L152.377 295.326ZM122.406 295.326H98.599L89.6849 331.545H117.98L122.406 295.326Z" fill="#4D4D4D"/>
<path d="M166.148 237.342H85.8816L104.025 290.741L146.364 290.586L166.148 237.342Z" fill="#FF7F2A"/>
<path d="M71.5048 204.49H112.076C115.835 204.49 118.881 211.424 118.881 219.978V230.237C118.881 238.791 115.835 245.726 112.076 245.726H71.5048C67.7459 245.726 64.6981 238.791 64.6981 230.237V219.978C64.6981 211.424 67.7459 204.49 71.5048 204.49Z" fill="#373E48"/>
<path d="M82.0784 126.349L102.044 117.876C102.044 117.876 150.025 154.241 168.995 173.156C181.684 185.81 169.629 225.638 169.629 225.638L154.142 263.758L82.0784 126.349Z" fill="#FF7F2A"/>
<path d="M152.548 258.699C139.247 258.699 128.465 247.166 128.465 232.94C128.465 218.714 139.247 207.182 152.548 207.182C165.848 207.182 176.631 218.714 176.631 232.94C176.631 247.166 165.848 258.699 152.548 258.699Z" fill="#373E48"/>
<path d="M252.459 154.417L246.057 147.671L234.827 158.912L241.23 165.658L252.459 154.417Z" fill="#FF7F2A"/>
<path d="M258.453 155.191L255.03 151.583L238.322 168.308L241.745 171.916L258.453 155.191Z" fill="#FF7F2A"/>
<path d="M260.239 160.05L256.815 156.442L243.039 170.232L246.463 173.84L260.239 160.05Z" fill="#1C2224"/>
<path d="M92.7676 88.0352C88.0029 86.8227 83.217 89.7867 82.0361 94.6803L78.235 110.436C77.0547 115.329 79.9405 120.245 84.7052 121.458L108.417 127.491C112.071 128.421 115.737 126.893 117.78 123.923L125.358 125.851L130.53 104.415L123.204 102.551C123.066 98.597 120.413 95.0701 116.479 94.069L92.7676 88.0352Z" fill="#FF7F2A"/>
<path d="M234.83 126.163C232.013 125.408 229.05 125.445 226.247 126.27C223.444 127.095 220.904 128.678 218.89 130.854L127.916 106.486L123.963 122.058L214.791 146.387C215.471 149.364 216.926 152.091 218.997 154.276C221.068 156.462 223.678 158.022 226.547 158.791C228.622 159.347 230.782 159.475 232.907 159.169C235.033 158.862 237.08 158.127 238.931 157.005C240.783 155.883 242.404 154.397 243.701 152.63C244.998 150.863 245.944 148.851 246.488 146.709C247.032 144.566 247.163 142.336 246.871 140.143C246.58 137.951 245.873 135.841 244.791 133.933C243.708 132.025 242.27 130.357 240.562 129.024C238.853 127.691 236.905 126.718 234.83 126.163V126.163Z" fill="#FF7F2A"/>
<path d="M224.554 153.727C218.485 150.149 216.413 142.152 219.926 135.865C223.439 129.579 231.207 127.384 237.277 130.961C243.346 134.539 245.417 142.536 241.904 148.822C238.391 155.108 230.624 157.305 224.554 153.727Z" fill="#373E48"/>
<path d="M93.3037 142.58C82.7831 142.58 74.255 133.995 74.255 123.405C74.255 112.815 82.7831 104.23 93.3037 104.23C103.824 104.23 112.353 112.815 112.353 123.405C112.353 133.995 103.824 142.58 93.3037 142.58Z" fill="#373E48"/>
<path opacity="0.2" d="M489.898 253.118L499.433 253.164L488.454 223.447L496.454 212.749L469.481 197.711C469.481 197.711 459.957 190.366 458.015 185C452.433 169.585 457.663 133.671 457.663 133.671L453.908 130.542L451.654 168.689L451.596 191.421L456.486 198.404L461.464 203.581L471.781 211.645L475.94 217.759L489.898 253.118Z" fill="#1A1A1A"/>
<path opacity="0.1" d="M81.9941 94.0248L105.052 96.2954L117.211 100.207L122.952 100.562C122.952 100.562 122.192 98.3124 121.49 97.3805C120.615 96.2211 118.186 94.5427 118.186 94.5427L91.95 87.7599C91.95 87.7599 88.8727 87.7594 87.4733 88.3085C86.0697 88.8591 83.806 90.9576 83.806 90.9576L81.9941 94.0248Z" fill="#1A1A1A"/>
<path opacity="0.25" d="M518.99 213.726L535.454 218.42L532.464 233.228L537.177 238.762L539.624 243.065L544.889 242.652L544.831 238.026L543.591 235.97L539.19 235.629V232.093L534.395 231.757L540.233 213.929L534.081 210.507L519.241 177.212L515.624 180.527L513.51 193.221L513.89 204.937L516.131 211.801L518.99 213.726Z" fill="#1A1A1A"/>
<path opacity="0.2" d="M363.882 211.34L368.75 206.053L375.042 204.851L373.757 212.862L377.341 213.63L376.488 217.821L363.882 211.34Z" fill="#1A1A1A"/>
<path opacity="0.2" d="M386.058 179.878L385.446 186.168L384.19 187.402L383.452 184.773L383.78 181.566L386.058 179.878Z" fill="#1A1A1A"/>
<path opacity="0.1" d="M474.947 101.896L467.69 95.3076L464.556 94.3407L461.66 94.9426L457.348 97.9584L444.508 108.416L441.229 111.281L439.698 116.109L446.662 113.286L454.141 103.778L466.109 99.3309L474.947 101.896Z" fill="#1A1A1A"/>
<path d="M213.757 520.875C241.222 520.875 263.488 511.96 263.488 500.964C263.488 489.968 241.222 481.053 213.757 481.053C186.293 481.053 164.027 489.968 164.027 500.964C164.027 511.96 186.293 520.875 213.757 520.875Z" fill="#CCCCCC"/>
<path opacity="0.1" d="M377.986 420.464L377.76 420.503C377.76 420.503 384.813 417.313 377.986 420.464Z" fill="black"/>
<path opacity="0.1" d="M442.986 445.44L443.125 446.485C442.996 446.156 442.948 445.799 442.986 445.44V445.44Z" fill="black"/>
<path d="M194.131 302.703C194.131 302.703 275.388 252.176 328.066 251.798C328.066 251.798 350.241 253.731 382.695 254.763C403.63 255.429 428.528 252.655 455.557 259.002C524.483 275.188 549.889 296.633 569.037 290.146L488.679 293.072L194.131 302.703Z" fill="#121C3F"/>
<path d="M108.007 330.738L187.104 307.494L559.98 315.168L559.765 382.387L95.0539 385.979L108.007 330.738Z" fill="#121C3F"/>
<path d="M584.338 347.741L584.277 365.34C584.277 365.34 570.445 376.228 569.164 384.68C569.164 384.68 549.39 390.237 543.75 390.281C543.236 390.285 542.678 390.289 542.092 390.357C542.982 387.802 543.68 385.177 544.178 382.507C545.586 375.013 545.436 367.294 543.74 359.906C542.044 352.518 538.844 345.644 534.371 339.78C529.897 333.916 524.261 329.208 517.868 325.995C511.476 322.782 504.486 321.143 497.403 321.198C490.32 321.253 483.32 322.999 476.907 326.311C470.494 329.624 464.826 334.419 460.315 340.353C455.803 346.286 452.559 353.21 450.815 360.624C449.072 368.039 448.873 375.761 450.233 383.233C450.886 386.836 451.897 390.348 453.247 393.711L426.459 393.918C426.459 393.918 426.208 394.011 425.808 394.203C424.369 394.914 420.978 396.788 420.481 399.697L198.478 401.414L193.93 401.406C194.902 399.65 195.775 397.834 196.546 395.968C197.983 392.51 199.055 388.892 199.739 385.183C201.083 378.101 201.037 370.809 199.605 363.779C198.172 356.748 195.385 350.134 191.423 344.364C187.46 338.594 182.41 333.795 176.598 330.277C170.786 326.759 164.342 324.6 157.68 323.939C151.018 323.278 144.286 324.129 137.918 326.439C131.551 328.748 125.69 332.464 120.712 337.347C115.734 342.23 111.75 348.172 109.018 354.789C106.285 361.406 104.863 368.552 104.845 375.767C104.834 379.168 105.132 382.558 105.735 385.889C106.764 391.529 108.666 396.934 111.363 401.876C108.194 401.068 101.281 398.755 101.281 398.755C101.281 398.755 71.8208 395.609 64.3184 388.54L65.4583 387.685L70.2905 384.098L68.1242 375.014C67.8602 374.633 67.6428 374.216 67.4778 373.773C66.8979 372.259 66.393 369.442 68.471 365.883C71.6206 360.455 70.1167 341.216 70.1167 341.216C70.1167 341.216 112.863 309.139 196.921 301.391C196.921 301.391 198.924 303.055 203.068 303.373C205.875 303.596 209.665 303.196 214.487 301.255C214.487 301.255 221.371 304.576 250.928 286.111C250.928 286.111 301.223 248.565 367.064 251.444C367.064 251.444 434.809 246.524 492.427 270.076C517.258 280.216 536.157 285.579 549.633 288.387C562.075 290.986 569.892 291.423 573.472 291.437L573.551 291.436C574.721 291.427 575.416 291.422 575.663 291.42L575.771 291.419C575.771 291.419 575.77 299.462 576.11 308.959V309.008C576.243 312.311 576.429 315.789 576.689 319.168V319.378C577.412 328.788 578.685 337.333 580.935 339.009L584.338 347.741Z" fill="#CCCCCC"/>
<path d="M76.9007 340.394C76.9007 340.394 95.8433 324.371 119.351 327.57C119.351 327.57 97.8926 345.979 88.252 344.87L86.6124 343.364L76.8632 344.027C76.8632 344.027 75.4157 341.588 76.9173 340.394L76.9007 340.394Z" fill="#121C3F"/>
<path opacity="0.2" d="M95.1522 367.722L95.0919 377.096C95.0919 377.096 94.4127 386.054 86.9063 386.448L65.4573 387.755L70.2834 384.169L68.1162 375.085C67.851 374.707 67.6344 374.292 67.4707 373.851C69.4267 371.904 74.0318 368.606 83.379 367.834L95.1522 367.722Z" fill="white"/>
<path opacity="0.5" d="M313.085 317.966C313.085 317.966 314.982 314.15 318.037 314.042L337.874 312.79C337.874 312.79 337.552 315.747 334.02 316.873L313.085 317.966Z" fill="#ECECEC"/>
<path opacity="0.5" d="M427.874 310.659C427.874 310.659 429.77 306.843 432.825 306.736L452.662 305.455C452.662 305.455 452.34 308.412 448.808 309.538L427.874 310.659Z" fill="#F2F2F2"/>
<path d="M360.322 260.743L344.965 303.857L290.089 304.344L275.96 304.454L263.671 304.549L253.045 304.631L241.01 304.724C241.01 304.724 248.36 298.871 260.191 291.394C264.099 288.914 268.532 286.261 273.344 283.592C277.77 281.122 282.535 278.621 287.54 276.244C291.445 274.366 295.559 272.556 299.762 270.864C318.821 263.22 340.23 258.021 360.322 260.743V260.743Z" fill="#121C3F"/>
<path d="M446.442 289.83C446.442 289.83 423.502 293.668 401.613 296.547C393.245 297.647 385.034 298.607 378.313 299.156L377.377 299.233C374.777 299.435 372.365 299.573 370.318 299.631C367.068 299.719 364.639 299.584 363.425 299.173L369.88 257.996C369.88 257.996 377.679 258.027 389.211 258.547L391.732 258.674C394.13 258.803 396.657 258.951 399.295 259.127C403.063 259.378 407.033 259.683 411.126 260.058C430.888 261.858 453.273 265.192 467.432 271.397C497.563 284.618 446.442 289.83 446.442 289.83V289.83Z" fill="#121C3F"/>
<path d="M552.044 309.699L551.991 320.676C551.991 320.676 535.528 321.055 539.069 317.486C541.36 315.116 543.442 312.522 545.286 309.737L552.044 309.699Z" fill="#121C3F"/>
<path d="M576.676 319.365L563.305 320.596L563.358 307.4C563.358 307.4 569.581 297.978 575.741 308.319L576.095 308.925L576.676 319.365Z" fill="#121C3F"/>
<path opacity="0.2" d="M229.186 392.767L328.63 389.653L345.23 303.918L241.375 304.336L229.186 392.767Z" stroke="white" stroke-width="0.712518" stroke-miterlimit="10"/>
<path opacity="0.5" d="M425.819 394.175C424.38 394.886 420.988 396.76 420.492 399.669L198.482 401.386L193.933 401.378C194.905 399.623 195.779 397.806 196.55 395.94L425.819 394.175Z" fill="#666666"/>
<path opacity="0.1" d="M316.758 338.105C316.068 339.156 315.437 340.251 314.869 341.382C310.617 350.088 300.836 336.065 304.251 331.167L306.604 328.79C305.71 339.983 314.17 338.727 316.758 338.105Z" fill="black"/>
<path opacity="0.1" d="M332.934 357.721L332.708 357.723C332.708 357.723 340.189 355.495 332.934 357.721Z" fill="black"/>
<path opacity="0.1" d="M394.588 397.783V398.973C394.502 398.583 394.502 398.176 394.588 397.783V397.783Z" fill="black"/>
<path d="M611.997 424.553L21.3613 426.42L21.4047 440.894L612.04 439.027L611.997 424.553Z" fill="#535D6C"/>
<path d="M154.007 377.255L169.623 377.123L180.749 417.816L145.402 417.928L154.007 377.255Z" fill="#373E48"/>
<path d="M503.278 378.586L518.894 378.454L530.021 419.147L494.674 419.258L503.278 378.586Z" fill="#373E48"/>
<path d="M325.461 399.693L349.118 399.573L365.857 421.874L312.306 422.043L325.461 399.693Z" fill="#373E48"/>
<path d="M625.602 406.433L59.0183 408.31L59.0597 422.784L625.643 420.907L625.602 406.433Z" fill="#535D6C"/>
<path d="M488.826 378.643L506.948 378.482L519.873 429.477L478.85 429.607L488.826 378.643Z" fill="#535D6C"/>
<path d="M142.844 377.22L160.965 377.06L173.89 428.055L132.868 428.185L142.844 377.22Z" fill="#535D6C"/>
<path opacity="0.15" d="M629.113 403.859L62.5305 405.735L62.5719 420.209L629.154 418.333L629.113 403.859Z" fill="#1C1F24"/>
<path d="M306.574 399.332L334.817 399.173L354.825 433.949L290.895 434.151L306.574 399.332Z" fill="#535D6C"/>
<path opacity="0.2" d="M144.849 377.702L162.971 377.542L175.895 428.537L134.873 428.667L144.849 377.702Z" fill="#1C1F24"/>
<path opacity="0.2" d="M613.908 424.294L23.2732 426.161L23.3166 440.635L613.951 438.768L613.908 424.294Z" fill="#1C1F24"/>
<path opacity="0.2" d="M308.683 396.477L336.925 396.317L356.934 431.093L293.004 431.295L308.683 396.477Z" fill="#1C1F24"/>
<path opacity="0.2" d="M490.807 377.536L508.93 377.375L521.854 428.37L480.832 428.5L490.807 377.536Z" fill="#1C1F24"/>
<path d="M347.377 252.486C347.427 253.808 348.425 252.633 348.243 253.433C348.124 253.952 347.117 253.856 346.801 254.315C346.619 254.58 346.608 254.956 346.346 255.275C346.013 255.683 345.684 256.318 345.849 256.68C346.153 257.351 347.218 256.287 347.927 256.489C348.644 256.692 347.841 257.96 348.765 258.145C349.492 258.291 349.323 257.026 350.694 256.65C351.13 256.53 351.58 257.33 352.11 257.276C353.093 257.176 353.488 256.117 354.229 256.185C355.306 256.284 356.083 258.194 357.125 259.163C358.339 260.292 359.795 259.491 360.504 260.469C360.972 261.115 360.419 262.1 360.63 262.859C360.916 263.883 358.868 269.559 358.868 269.559L360.417 279.129C360.417 279.129 363.651 282.231 364.632 281.995C366.753 281.484 368.397 264.701 369.418 261.082L369.875 257.988L378.382 258.121L392.689 258.72L412.227 260.135L438.644 263.523L453.873 266.816L466.187 270.994L473.065 274.313L475.538 276.33C475.538 276.33 476.35 277.232 476.562 277.787C476.823 278.473 476.986 279.259 476.823 279.974C476.665 280.663 476.162 281.246 475.675 281.758C475.222 282.234 474.071 282.906 474.071 282.906L471.772 284.172L468.703 285.438L466.757 285.939L480.872 320.001L571.203 301.525L575.929 301.647L576.033 291.476L572.337 291.412L561.241 290.623L532.042 284.096L476.094 264.141L455.29 258.513L431.773 254.333L420.667 252.986L412.771 252.282L403.017 251.403L379.156 251.052L348.94 251.633C348.94 251.633 347.364 252.074 347.379 252.486L347.377 252.486Z" fill="#D40000"/>
<path d="M362.11 233.093L353.378 244.471L370.387 246.714L364.892 233.443L362.11 233.093Z" fill="#D40000"/>
<path opacity="0.25" d="M86.7555 276.573L88.106 275.519L91.9529 275.432L92.014 271.585L97.463 271.522L88.5331 245.783L75.2261 243.478L119.156 226.311L118.28 237.275L129.066 237.477C129.066 237.477 124.935 241.931 121.005 244.468C119.576 245.391 116.522 247.479 110.573 247.64C104.075 247.815 92.3712 246.206 92.9251 249.743C94.5595 260.176 98.5671 274.349 98.5671 274.349L94.2039 278.008L91.8699 278.051L86.6734 278.983L86.7555 276.573Z" fill="#1A1A1A"/>
<path d="M86.8802 279.057C86.8802 279.057 70.557 279.927 65.1648 270.906C61.0588 264.036 58.8043 254.459 61.9704 247.109C66.2424 237.19 88.2647 228.18 88.2647 228.18L124.38 215.307C133.446 211.692 143.267 206.957 139.45 197.202C126.501 175.451 107.467 163.057 110.328 151.301C111.862 146.418 122.191 145.908 125.865 140.143C132.907 129.09 130.768 118.419 139.041 118.521C177.891 125.446 201.436 131.361 209.247 141.196C216.104 149.83 212.374 166.467 224.601 176.039C230.305 180.505 238.285 181.5 244.3 179.849C248.798 178.614 253.008 174.772 253.008 174.772" stroke="#373E48" stroke-width="3.77953"/>
<path d="M208.74 235.869C208.74 235.869 211.019 247.946 209.424 248.858C208.135 249.667 206.916 250.582 205.778 251.592L209.88 257.289L219.678 259.34L229.021 250.681V242.022C229.021 242.022 226.286 237.692 226.742 234.958C227.198 232.223 208.74 235.869 208.74 235.869V235.869Z" fill="#DEAA87"/>
<path d="M193.017 256.605L191.65 257.289C191.65 257.289 188.687 258.428 187.32 268.227C185.953 278.025 182.762 301.496 183.674 302.18C184.585 302.863 184.13 307.421 184.13 307.421L190.966 271.645L193.017 256.605Z" fill="#2F2E41"/>
<path d="M204.182 487.44L205.322 476.274H213.525L218.31 486.756L208.967 489.946L204.182 487.44Z" fill="#FBBEBE"/>
<path d="M209.196 485.161C209.196 485.161 201.676 480.603 200.309 482.199C198.941 483.794 188.004 495.415 188.004 495.415C188.004 495.415 171.141 504.53 184.13 505.897C197.118 507.265 218.31 497.922 218.31 497.922C218.31 497.922 219.45 485.617 218.538 485.389C217.627 485.161 213.753 487.44 211.93 486.756C210.923 486.408 209.994 485.866 209.196 485.161Z" fill="black"/>
<path d="M213.525 494.048L216.259 484.477L225.83 487.44V496.782L213.525 494.048Z" fill="#FBBEBE"/>
<path d="M213.298 490.63C213.298 490.63 225.831 488.579 226.97 494.731C228.109 500.884 231.072 509.999 228.109 512.278C225.147 514.556 209.88 517.519 209.652 513.645C209.424 509.771 211.247 502.251 211.247 502.251C211.247 502.251 212.386 496.326 211.703 494.731C211.019 493.136 213.298 490.63 213.298 490.63V490.63Z" fill="black"/>
<path d="M188.265 336.758C188.265 336.758 177.977 401.988 186.409 433.89C194.84 465.792 200.764 484.705 200.764 484.705C200.764 484.705 216.644 488.694 216.644 485.959C216.644 483.225 209.651 434.573 208.284 430.699C206.917 426.826 204.638 425.458 206.689 422.268C208.74 419.078 212.158 398.57 212.158 398.57C212.158 398.57 219.678 432.522 220.133 433.434C220.589 434.345 214.244 490.742 214.244 490.742C214.244 490.742 229.382 497.444 230.29 489.263C230.518 487.212 241.553 414.521 241.553 413.609C241.553 412.698 245.655 342.969 239.047 339.551C232.439 336.133 188.265 336.758 188.265 336.758V336.758Z" fill="#162D50"/>
<path d="M214.209 255.694V254.099L209.651 246.579C209.651 246.579 205.094 247.035 204.41 249.086C203.727 251.136 195.979 267.543 195.979 267.543L187.776 341.146C187.776 341.146 210.335 346.615 213.753 342.741C217.171 338.867 230.16 254.554 230.16 254.554L231.983 244.3C231.983 244.3 228.853 239.743 228.139 240.426C227.425 241.11 215.576 254.327 215.576 254.327L215.348 256.377L214.209 255.694Z" fill="#162D50"/>
<path d="M209.538 245.098C209.538 245.098 205.322 244.072 203.955 246.579C202.588 249.086 202.588 249.997 201.22 250.909C199.853 251.82 191.877 255.922 191.422 257.517C190.966 259.112 181.168 309.472 181.168 309.472C181.168 309.472 176.382 324.511 178.661 334.765C180.94 345.02 179.345 347.07 184.13 347.982C188.915 348.894 189.599 348.894 189.599 347.526C189.599 346.159 195.751 299.901 200.081 296.711C204.41 293.521 203.271 258.656 203.271 258.656C203.271 258.656 209.424 251.136 209.424 249.997C209.424 248.858 210.449 245.012 209.538 245.098V245.098Z" fill="#0044AA"/>
<path d="M222.412 253.415C223.048 253.521 231.755 242.249 232.439 242.705C233.122 243.161 236.54 249.086 236.996 249.086C237.452 249.086 256.821 253.871 258.416 262.758C260.011 271.645 247.25 299.901 247.25 299.901C247.25 299.901 241.781 316.08 242.921 323.144C243.694 328.523 243.54 333.995 242.465 339.323C242.009 341.146 240.414 343.197 240.87 344.108C241.326 345.02 230.844 342.969 226.514 345.475C222.184 347.982 202.815 349.805 203.955 347.07C205.094 344.336 205.778 333.626 208.968 322.232C212.158 310.839 220.362 283.95 218.994 282.127C217.627 280.304 221.045 253.187 222.412 253.415Z" fill="#0044AA"/>
<path d="M255.682 260.023L258.644 262.758C258.644 262.758 262.062 268.683 261.606 271.417C261.151 274.151 271.177 315.396 267.075 316.764C262.974 318.131 253.175 324.967 252.036 326.79C250.896 328.613 248.162 331.803 246.339 332.715C244.516 333.626 242.693 335.221 241.554 334.31C240.414 333.398 237.908 314.713 239.731 314.029C241.554 313.345 243.376 311.295 245.2 311.295C247.022 311.295 248.162 309.472 248.162 307.877C248.162 306.281 246.795 296.711 246.795 296.711L243.832 274.151L255.682 260.023Z" fill="#162D50"/>
<path d="M219.469 201.322C225.39 201.322 230.09 208.865 230.157 218.213L230.172 220.376C230.189 220.375 230.206 220.375 230.223 220.376C230.404 220.376 230.582 220.462 230.749 220.63C230.916 220.797 231.067 221.043 231.194 221.353C231.322 221.663 231.423 222.031 231.492 222.436C231.561 222.841 231.597 223.275 231.597 223.714C231.597 224.152 231.561 224.586 231.492 224.991C231.423 225.396 231.322 225.764 231.194 226.074C231.067 226.384 230.916 226.63 230.749 226.797C230.582 226.965 230.404 227.051 230.223 227.051C230.276 236.382 224.962 244.018 219.048 244.018H214.793C209.082 244.018 203.75 235.176 203.374 226.161C203.31 226.183 203.245 226.195 203.18 226.195C203 226.195 202.821 226.108 202.655 225.941C202.488 225.773 202.337 225.527 202.209 225.217C202.082 224.907 201.981 224.539 201.912 224.134C201.843 223.729 201.807 223.295 201.807 222.857C201.807 222.419 201.843 221.984 201.912 221.579C201.981 221.174 202.082 220.806 202.209 220.497C202.337 220.187 202.488 219.941 202.655 219.773C202.821 219.605 203 219.519 203.18 219.519C203.237 219.519 203.293 219.527 203.348 219.544L203.348 218.215C203.338 208.867 208.115 201.324 214.036 201.324H219.473L219.469 201.322Z" fill="#DEAA87"/>
<path opacity="0.6" d="M203.018 223.084C202.854 223.068 202.766 222.515 202.821 221.847C202.875 221.18 203.053 220.652 203.216 220.668C203.38 220.683 203.469 221.237 203.414 221.904C203.359 222.571 203.182 223.099 203.018 223.084Z" fill="black"/>
<path opacity="0.6" d="M230.541 224.196C230.705 224.18 230.794 223.627 230.739 222.959C230.684 222.292 230.507 221.764 230.343 221.78C230.179 221.795 230.091 222.349 230.146 223.016C230.2 223.683 230.378 224.211 230.541 224.196Z" fill="black"/>
<path d="M216.62 199.833C224.075 199.833 229.705 206.768 230.145 215.353L230.335 219.045C230.239 221.469 230.346 221.441 230.346 223.505C230.345 225.569 230.346 225.613 230.307 227.443L229.95 230.437C229.739 232.206 228.927 235.283 227.858 237.305C226.953 239.015 225.712 240.552 224.011 242.08C221.658 243.958 220.979 244.347 218.926 244.302L214.703 244.208C213.258 244.124 210.467 242.811 208.848 240.809C207.143 238.705 207.71 239.432 206.762 237.965C205.398 235.855 203.164 231.717 203.164 228.066V227.823C203.21 225.375 203.194 225.378 203.194 223.386C203.194 221.393 203.194 221.393 203.164 219.651V215.353C203.164 206.755 209.165 199.832 216.62 199.832L216.62 199.833ZM218.798 209.223L214.46 209.469L208.98 209.367L207.129 210.97L206.85 213.532L206.214 216.112L204.432 217.99L204 220.663L204.059 228.962L204.526 231.794L205.969 234.815L208.37 238.726L210.692 241.316L213.094 242.775L214.775 242.906C215.326 242.689 216.523 239.842 216.557 238.59L217.11 238.574C217.323 239.308 217.337 242.166 218.25 242.902L220.75 242.817L222.619 241.375L225.818 238.705L227.004 236.802L228.148 234.201L228.939 231.66L229.456 228.655L229.377 220.366L228.285 216.976L227.086 215.251C226.94 214.278 226.988 213.627 226.965 212.902C226.951 212.447 226.934 211.441 226.77 210.983C226.632 210.596 226.27 210.564 226.27 210.564C225.857 210.387 225.965 210.174 225.529 210.014C225.283 209.924 225.037 209.844 224.791 209.774C223.013 209.269 221.186 209.254 218.797 209.223L218.798 209.223Z" fill="#333333"/>
<path d="M221.091 225.058C220.543 225.058 220.098 224.56 220.098 223.945C220.098 223.33 220.543 222.832 221.091 222.832C221.64 222.832 222.084 223.33 222.084 223.945C222.084 224.56 221.64 225.058 221.091 225.058Z" fill="black"/>
<path d="M213.109 224.929C212.56 224.929 212.116 224.431 212.116 223.816C212.116 223.202 212.56 222.703 213.109 222.703C213.657 222.703 214.102 223.202 214.102 223.816C214.102 224.431 213.657 224.929 213.109 224.929Z" fill="black"/>
<path d="M215.625 231.606H218.798C218.875 231.606 218.937 231.668 218.937 231.745V231.961C218.937 232.038 218.875 232.1 218.798 232.1H215.625C215.548 232.1 215.486 232.038 215.486 231.961V231.745C215.486 231.668 215.548 231.606 215.625 231.606Z" fill="black"/>
<path d="M218.42 219.929H223.119C223.282 219.929 223.414 220.061 223.414 220.224V220.682C223.414 220.844 223.282 220.976 223.119 220.976H218.42C218.258 220.976 218.126 220.844 218.126 220.682V220.224C218.126 220.061 218.258 219.929 218.42 219.929Z" fill="black"/>
<path d="M210.827 219.802H215.51C215.677 219.802 215.813 219.937 215.813 220.104V220.575C215.813 220.742 215.677 220.877 215.51 220.877H210.827C210.66 220.877 210.525 220.742 210.525 220.575V220.104C210.525 219.937 210.66 219.802 210.827 219.802Z" fill="black"/>
<path d="M221.929 234.39C221.927 235.436 221.428 236.439 220.54 237.178C219.652 237.917 218.449 238.332 217.194 238.332C215.94 238.332 214.736 237.917 213.849 237.178C212.961 236.439 212.461 235.436 212.459 234.39H221.929Z" fill="#F2F2F2"/>
<path d="M221.602 234.495C221.601 235.42 221.13 236.307 220.293 236.961C219.456 237.615 218.322 237.982 217.14 237.982C215.958 237.982 214.824 237.615 213.987 236.961C213.151 236.307 212.68 235.42 212.678 234.495H221.602Z" fill="white"/>
<path d="M221.526 233.883C221.485 233.86 221.515 233.76 221.527 233.746C221.732 233.479 222.148 233.602 222.451 233.861C222.793 234.155 222.725 234.591 222.546 234.954C222.534 234.981 222.309 235.319 222.236 235.17C222.202 235.1 222.38 234.586 222.384 234.545C222.412 234.205 222.434 234.349 222.296 234.042C222.047 233.863 221.908 233.84 221.638 233.883L221.526 233.883Z" fill="#808080"/>
<path d="M212.758 233.977C212.799 233.954 212.792 233.859 212.78 233.844C212.574 233.578 212.18 233.66 211.877 233.92C211.534 234.213 211.529 234.583 211.708 234.947C211.72 234.974 211.908 235.088 211.93 235.071C211.989 235.026 211.883 234.743 211.876 234.703C211.81 234.357 211.811 234.361 212.069 234.14C212.302 233.941 212.378 233.946 212.647 233.988L212.758 233.977Z" fill="#808080"/>
<path d="M220.104 198.361L220.105 198.361C225.817 198.361 230.479 204.803 231.504 213.333H202.778C203.762 204.802 208.486 198.361 214.198 198.361H220.104Z" fill="#0044AA"/>
<path d="M215.822 196.244H218.252C218.871 196.244 219.373 196.746 219.373 197.365V198.872C219.373 199.491 218.871 199.992 218.252 199.992H215.822C215.203 199.992 214.701 199.491 214.701 198.872V197.365C214.701 196.746 215.203 196.244 215.822 196.244Z" fill="#0044AA"/>
<path d="M208.154 198.193H209.899C210.411 198.193 210.826 198.608 210.826 199.12V203.841C210.826 204.354 210.411 204.769 209.899 204.769H208.154C207.641 204.769 207.226 204.354 207.226 203.841V199.12C207.226 198.608 207.641 198.193 208.154 198.193Z" fill="#0044AA"/>
<path d="M224.083 198.116H226.259C226.652 198.116 226.971 198.435 226.971 198.828V203.981C226.971 204.374 226.652 204.692 226.259 204.692H224.083C223.69 204.692 223.371 204.374 223.371 203.981V198.828C223.371 198.435 223.69 198.116 224.083 198.116Z" fill="#0044AA"/>
<path opacity="0.61" d="M231.707 213.24L224.944 209.895H209.95L202.942 213.282L231.707 213.24Z" fill="#002255"/>
<path opacity="0.65" d="M203.945 219.096L206.548 220.628H206.558C207.197 220.321 208.194 220.264 209.322 220.265C209.969 220.265 210.658 220.285 211.345 220.285C213.158 220.285 214.667 220.683 215.485 221.462C215.485 221.462 216.167 221.867 216.54 221.957C216.724 222.001 216.919 222.003 217.105 221.974C217.486 221.915 218.206 221.589 218.206 221.589C219.436 220.749 220.969 220.352 222.408 220.34C223.095 220.34 223.784 220.321 224.431 220.32C225.536 220.319 226.517 220.372 227.158 220.664L229.368 220.339L229.384 220.739L227.929 221.847C227.903 223.609 226.114 225.722 223.464 226.433C222.417 226.714 220.984 226.541 220.16 226.356C219.314 226.166 218.682 225.527 218.223 224.936C218.052 224.717 217.881 224.282 217.762 223.863C217.655 223.485 217.461 223.265 217.201 223.124C217.008 223.019 216.753 222.998 216.558 223.098C216.311 223.224 216.181 223.429 216.048 223.808C215.943 224.106 215.653 224.723 215.53 224.881C215.07 225.472 214.438 226.111 213.592 226.302C212.768 226.487 211.335 226.66 210.288 226.379C208.101 225.792 206.501 224.25 205.993 222.739L203.955 219.923L203.945 219.096Z" fill="white"/>
<path opacity="0.999" d="M235.028 246.666L237.071 249.083L240.23 249.744L234.977 277.915L229.255 344.474L225.058 346.183L222.561 346.829L228.849 278.947L235.028 246.666Z" fill="#B3B3B3"/>
<path opacity="0.999" d="M197.087 253.266L198.719 252.378L202.131 249.889L194.696 279.976L185.549 348.204L184.06 348.028L182.309 347.467L190.837 279.939L197.087 253.266Z" fill="#B3B3B3"/>
<path opacity="0.25" d="M111.125 130.492C111.125 130.492 151.953 160.893 163.207 182.719C167.42 190.891 166.126 206.198 166.35 211.514C166.393 212.525 168.739 215.078 168.739 215.078L167.648 221.768L170.936 235.273L167.61 246.308L153.094 254.38L155.199 258.437C155.199 258.437 153.705 259.195 154.027 261.995C154.371 264.984 151.488 267.542 149.471 270.749C143.256 280.631 140.358 290.662 140.358 290.662L146.449 290.717L158.48 257.865L163.318 255.96C163.318 255.96 167.809 253.181 169.584 251.27C171.565 249.135 173.131 246.579 174.287 243.906C175.483 241.143 176.231 238.236 176.507 235.151C176.732 232.651 176.636 229.926 176.091 227.476C175.536 224.985 173.541 220.257 173.541 220.257L171.731 217.506C171.731 217.506 173.264 209.544 173.81 205.529C174.205 202.614 174.561 199.686 174.674 196.746C174.799 193.478 174.785 190.192 174.463 186.937C174.288 185.146 173.521 181.621 173.521 181.621C173.521 181.621 172.293 177.178 170.759 175.355C165.097 168.626 152.108 157.621 152.108 157.621L113.935 126.972L111.978 127.557L111.125 130.492Z" fill="#333333"/>
<path opacity="0.5" d="M111.81 127.648L114.425 126.851C114.425 126.851 115.698 126.083 116.276 125.619C117.444 124.682 117.854 123.909 117.854 123.909L125.217 125.805L126.019 122.809L112.041 120.518L107.514 129.502L92.6732 137.715L85.6895 140.859L90.5208 142.383L91.8494 144.97C91.8494 144.97 99.7146 144.284 103.012 142.352C105.201 141.069 108.196 139.021 109.705 136.46C110.74 134.703 111.013 130.484 111.013 130.484L111.81 127.648Z" fill="#333333"/>
<path opacity="0.25" d="M234.836 158.958L238.609 157.426L246.62 159.909L241.951 165.98L242.072 171.772L238.553 168.375L241.149 165.547L234.836 158.958Z" fill="#1A1A1A"/>
<path d="M14.2729 310.874C17.3201 310.874 19.7909 308.354 19.7909 305.247C19.7909 302.139 17.3201 299.619 14.2729 299.619C11.2257 299.619 8.75586 302.139 8.75586 305.247C8.75586 308.354 11.2257 310.874 14.2729 310.874Z" fill="#C83737"/>
<path d="M78.4206 299.438H39.6421C38.506 299.438 37.585 300.359 37.585 301.495V307.986C37.585 309.122 38.506 310.043 39.6421 310.043H78.4206C79.5567 310.043 80.4777 309.122 80.4777 307.986V301.495C80.4777 300.359 79.5567 299.438 78.4206 299.438Z" fill="#808080"/>
<path d="M25.9929 309.565C28.0193 309.565 29.6616 307.89 29.6616 305.823C29.6616 303.756 28.0193 302.081 25.9929 302.081C23.9664 302.081 22.3232 303.756 22.3232 305.823C22.3232 307.89 23.9664 309.565 25.9929 309.565Z" fill="#37C871"/>
<path d="M76.7645 300.661H40.4667C39.5929 300.661 38.8848 301.369 38.8848 302.243V307.236C38.8848 308.109 39.5929 308.818 40.4667 308.818H76.7645C77.6383 308.818 78.3464 308.109 78.3464 307.236V302.243C78.3464 301.369 77.6383 300.661 76.7645 300.661Z" fill="#333333"/>
<path opacity="0.997" d="M249.374 173.288L248.453 174.163C247.754 174.825 247.726 175.928 248.388 176.627L250.703 179.066C251.366 179.764 252.469 179.793 253.167 179.13L254.088 178.256C254.787 177.594 254.815 176.49 254.152 175.792L251.838 173.353C251.175 172.655 250.072 172.626 249.374 173.288Z" fill="#666666"/>
<path opacity="0.997" d="M143.359 116.129L142.025 121.58C141.698 122.919 142.518 124.269 143.856 124.596L194.204 136.911C195.542 137.239 196.893 136.419 197.22 135.081L198.553 129.629C198.881 128.291 198.061 126.941 196.723 126.613L146.375 114.298C145.037 113.971 143.686 114.79 143.359 116.129Z" fill="#666666"/>
<path opacity="0.997" d="M110.643 156.835L107.733 158.897C106.609 159.693 106.343 161.251 107.14 162.375L110.896 167.676C111.692 168.801 113.25 169.066 114.374 168.27L117.284 166.208C118.408 165.411 118.674 163.854 117.877 162.73L114.121 157.428C113.324 156.304 111.767 156.038 110.643 156.835Z" fill="#666666"/>
<path opacity="0.997" d="M131.369 184.011L128.458 186.073C127.334 186.869 127.069 188.426 127.865 189.55L131.622 194.852C132.418 195.977 133.975 196.242 135.099 195.445L138.009 193.384C139.134 192.587 139.399 191.03 138.603 189.906L134.846 184.604C134.05 183.48 132.493 183.214 131.369 184.011Z" fill="#666666"/>
<path opacity="0.3" d="M143.516 116.121L142.183 121.573C141.855 122.911 142.675 124.262 144.013 124.589L194.361 136.904C195.699 137.232 197.05 136.412 197.377 135.074L198.711 129.622C199.038 128.284 198.218 126.934 196.88 126.606L146.532 114.291C145.194 113.964 143.843 114.783 143.516 116.121Z" fill="#4D4D4D"/>
<path d="M371.104 226.346C371.104 226.346 375.441 230.175 385.17 227.362C393.464 224.318 396.553 221.189 391.942 208.191C386.607 195.532 377.824 185.032 383.811 179.402C396.397 167.567 417.192 142.25 433.44 138.919C438.994 137.781 440.51 142.173 455.435 145.122C468.399 147.684 472.58 135.747 478.624 139.011C484.209 148.57 486.497 163.799 492.767 172.778C497.177 179.965 525.98 167.961 534.084 173.621C550.404 185.017 549.018 197.432 557.077 210.886C560.628 216.815 563.963 222.101 564.497 228.991C565.066 236.359 554.583 239.702 554.583 239.702L544.919 239.807" stroke="#373E48" stroke-width="3.77953"/>
<path d="M385.208 174.513L388.841 178.791C389.733 179.841 391.307 179.969 392.358 179.078L431.865 145.525C432.915 144.633 433.043 143.059 432.152 142.009L428.518 137.731C427.626 136.681 426.052 136.553 425.002 137.445L385.495 170.997C384.445 171.889 384.316 173.463 385.208 174.513Z" fill="#666666"/>
<path opacity="0.997" d="M489.764 162.364L486.974 163.173C485.897 163.485 485.277 164.612 485.589 165.689L487.063 170.771C487.375 171.849 488.501 172.469 489.579 172.157L492.368 171.348C493.446 171.035 494.066 169.909 493.754 168.831L492.281 163.749C491.968 162.672 490.841 162.051 489.764 162.364Z" fill="#666666"/>
<path opacity="0.997" d="M483.13 143.894L480.34 144.703C479.263 145.015 478.642 146.142 478.954 147.22L480.428 152.302C480.74 153.379 481.867 153.999 482.945 153.687L485.734 152.878C486.812 152.566 487.432 151.439 487.119 150.362L485.646 145.28C485.333 144.202 484.207 143.582 483.13 143.894Z" fill="#666666"/>
<path opacity="0.997" d="M372.607 224.388L371.571 224.296C370.786 224.226 370.092 224.806 370.022 225.592L369.779 228.336C369.709 229.122 370.289 229.815 371.075 229.885L372.111 229.977C372.897 230.046 373.589 229.466 373.659 228.681L373.903 225.936C373.972 225.151 373.393 224.458 372.607 224.388Z" fill="#666666"/>
</g>
<path fill-rule="evenodd" clip-rule="evenodd" d="M494.151 71.7017H574.617V0H494.151V71.7017ZM535.316 16.4246H541.86L545.74 35.4026L549.431 16.4593H556.089V44.3048H552.018V24.7747L547.643 44.3737H543.991L539.54 24.5333L539.578 44.5809H535.278L535.316 16.4246ZM512.869 29.5018V23.4291C512.869 22.0835 512.412 15.424 520.745 15.3551C529.077 15.2862 529.039 20.9104 529.039 20.9104V25.086H524.549C524.549 25.086 525.272 19.4959 521.088 19.3577C517.625 19.254 517.891 22.877 517.891 22.877V37.7835C517.891 37.7835 517.625 41.3028 521.088 41.3028C525.006 41.3028 524.549 37.6458 524.549 37.6458V32.3318H521.582V29.4681H529.039V45.306H525.577V43.6496L525.31 44.3048C524.701 45.236 522.647 45.3054 520.744 45.3054C512.412 45.236 512.869 38.577 512.869 37.2314L512.869 29.5018ZM513.022 55.5879V49.0666H556.546V55.5879H513.022Z" fill="#2360A5"/>
<path d="M285.979 13.7074H298.123L302.602 30.7621H302.905C303.12 29.3416 303.336 27.8336 303.724 26.4581L307.383 13.7074H319.401L324.74 46.1812H313.328L311.732 28.3944H311.519C311.304 29.4705 311.088 30.5895 310.743 31.6235L306.049 46.1816H299.159L294.938 32.4411C294.593 31.0631 294.291 29.7715 294.204 28.394H293.816C293.732 29.6864 293.646 31.0206 293.516 32.3106L292.136 46.1808H280.724L285.979 13.7074Z" fill="#ACACAC"/>
<path d="M342.206 34.424L340.829 28.6954C340.485 27.3158 340.268 25.8954 340.052 24.5174H339.623L337.469 34.424H342.206ZM334.41 46.1812H321.921L333.204 13.7074H346.255L357.841 46.1812H345.35L344.275 42.1313H335.358L334.41 46.1812ZM389.923 27.0586C389.834 32.3564 389.834 36.7917 386.002 40.9247C382.555 44.6736 377.26 46.6978 372.221 46.6978C362.316 46.6978 354.306 40.5819 354.306 30.1593C354.306 19.5656 362.1 13.1904 372.308 13.1904C377.949 13.1904 385.703 15.9905 388.242 21.546L377.216 25.5956C376.313 23.9587 374.634 23.097 372.737 23.097C368.519 23.097 366.191 26.7146 366.191 30.6329C366.191 34.206 368.431 37.5668 372.263 37.5668C374.117 37.5668 376.485 36.705 377.044 34.7246H371.705V27.0586H389.923ZM390.804 13.7074H402.133L412.726 31.7106H413.069C412.597 28.9969 412.079 26.1972 412.079 23.4413V13.7074H423.362V46.1812H412.079L401.701 29.1269H401.357C401.743 31.3646 402.088 33.4759 402.088 35.6309V46.1812H390.804V13.7074H390.804Z" fill="#ACACAC"/>
<path d="M442.466 34.4239L441.086 28.6954C440.742 27.3158 440.527 25.8954 440.31 24.5174H439.88L437.727 34.4239H442.466ZM434.67 46.1812H422.181L433.463 13.7074H446.513L458.098 46.1812H445.609L444.532 42.1312H435.618L434.67 46.1812Z" fill="#ACACAC"/>
<path d="M262.724 46.2131L274.961 46.2148L263.177 13.7953L254.219 13.7937L252.573 18.3054L262.724 46.2131Z" fill="black"/>
<path d="M254.426 0C251.143 0 248.482 2.66017 248.482 5.94531C248.482 9.22635 251.143 11.8886 254.426 11.8886C257.709 11.8886 260.369 9.22635 260.369 5.9449C260.369 2.66017 257.709 0 254.426 0" fill="#E22E2F"/>
<path d="M228.143 46.2131L246.383 46.2115L237.261 21.1697L228.143 46.2131ZM248.453 46.2131L260.689 46.2148L248.902 13.7953L239.946 13.7937L238.301 18.3054L248.453 46.2131Z" fill="black"/>
<path fill-rule="evenodd" clip-rule="evenodd" d="M728.655 236.348H693.322C688.055 236.348 682.898 231.23 682.898 225.894V191.046C682.898 185.929 688.055 180.81 693.322 180.81H728.654C734.031 180.81 739.078 185.929 739.078 191.046V225.894C739.078 231.23 734.032 236.348 728.655 236.348V236.348ZM711.098 187.126L686.629 215.549L698.7 229.705L711.098 215.875L723.388 229.705L735.678 215.549L711.098 187.126Z" fill="#3165AA"/>
<path fill-rule="evenodd" clip-rule="evenodd" d="M704.845 258.999C702.321 258.999 700.236 256.93 700.236 254.535V247.021C700.236 244.516 702.321 242.555 704.845 242.555H717.354V245.714H703.747V255.84H717.353V258.999H704.845V258.999ZM687.617 258.999C685.093 258.999 683.118 256.93 683.118 254.535V242.447H686.519V255.841H698.261V258.999H687.617ZM734.581 258.999H724.266C721.852 258.999 719.767 256.93 719.767 254.535V247.021C719.767 244.516 721.852 242.555 724.266 242.555H734.581C737.104 242.555 739.079 244.516 739.079 247.021V254.535C739.079 256.93 737.104 258.999 734.581 258.999V258.999ZM723.279 255.841H735.677V245.714H723.279V255.841ZM678.29 258.999H681.911L672.914 244.08C672.255 243.1 671.488 242.665 670.39 242.665C669.293 242.665 668.525 243.1 667.866 244.08L658.868 258.999H662.489L664.355 255.95H676.535L678.29 258.999ZM666.111 253.01L670.28 246.04L670.39 245.931L670.61 246.04L674.67 253.01H666.111ZM759.379 258.999H763L754.003 244.08C753.344 243.1 752.576 242.665 751.479 242.665C750.381 242.665 749.613 243.1 748.955 244.08L739.957 258.999H743.579L745.444 255.95H757.624L759.379 258.999ZM747.199 253.01L751.368 246.04L751.478 245.931L751.698 246.04L755.758 253.01H747.199Z" fill="#3165AA" stroke="#3165AA" stroke-width="0.386816" stroke-miterlimit="2.613"/>
<path fill-rule="evenodd" clip-rule="evenodd" d="M711.099 215.767L699.358 202.59H722.95L711.099 215.767Z" fill="#3165AA"/>
<path d="M659.342 76.6787C621.25 76.6787 590.71 88.0969 590.71 102.413C590.71 116.643 621.502 128.153 659.342 128.153C697.188 128.153 727.974 116.606 727.974 102.413C727.974 88.2197 697.188 76.6787 659.342 76.6787" fill="#003478"/>
<path d="M686.377 107.864C686.396 107.987 686.549 108.097 686.697 108.152C686.758 108.171 686.783 108.208 686.721 108.337C686.292 109.245 685.905 109.773 685.371 110.571C684.88 111.308 684.321 111.879 683.652 112.431C682.633 113.272 681.227 114.181 680.061 113.573C679.545 113.303 679.324 112.579 679.33 111.995C679.355 110.344 680.091 108.656 681.442 106.992C683.093 104.966 684.916 103.911 686.107 104.481C687.347 105.077 686.955 106.507 686.402 107.631C686.364 107.702 686.355 107.786 686.377 107.864V107.864ZM699.662 95.0338C699.748 94.8742 699.662 94.7576 699.459 94.7576H695.991C695.733 94.7576 695.598 94.7944 695.481 95.0338C695.082 95.795 690.233 103.057 689.33 104.469C689.183 104.684 688.993 104.653 688.974 104.408C688.882 103.573 688.158 102.609 687.016 102.149C686.193 101.817 685.297 101.711 684.419 101.842C682.823 102.063 681.405 102.904 680.153 103.849C678.274 105.28 676.654 107.133 674.554 108.509C673.406 109.251 671.841 109.902 670.791 108.932C669.846 108.054 669.95 106.096 671.405 104.586C671.558 104.426 671.743 104.561 671.712 104.702C671.633 105.031 671.643 105.374 671.74 105.698C671.837 106.021 672.018 106.313 672.264 106.544C672.897 107.109 673.799 107.176 674.579 106.79C675.015 106.562 675.389 106.232 675.669 105.828C675.95 105.424 676.127 104.957 676.187 104.469C676.239 104.11 676.215 103.744 676.119 103.394C676.023 103.044 675.855 102.718 675.627 102.435C675.399 102.153 675.115 101.921 674.793 101.753C674.471 101.586 674.118 101.486 673.756 101.461C672.553 101.375 671.393 101.793 670.263 102.726C669.73 103.156 669.266 103.665 668.888 104.236C668.765 104.408 668.587 104.42 668.593 104.175C668.649 102.198 667.832 101.087 666.199 101.05C664.935 101.019 663.578 101.707 662.522 102.548C661.368 103.475 660.355 104.709 659.268 105.863C659.14 106.01 659.023 106.004 658.98 105.728C658.986 104.501 658.652 103.296 658.016 102.247C657.904 102.084 657.735 101.968 657.542 101.921C657.35 101.875 657.147 101.901 656.972 101.995C656.794 102.087 656.187 102.364 655.745 102.726C655.524 102.91 655.438 103.168 655.536 103.505C656.119 105.458 655.99 107.68 655.198 109.558C654.468 111.277 653.056 112.83 651.392 113.352C650.3 113.702 649.158 113.53 648.452 112.554C647.488 111.216 647.875 108.889 649.317 106.949C650.594 105.243 652.436 104.162 654.271 103.462C654.486 103.383 654.535 103.241 654.474 103.057L654.149 102.161C653.977 101.707 653.504 101.639 652.933 101.701C651.595 101.854 650.392 102.314 649.201 102.947C646.088 104.617 644.523 107.846 643.842 109.577C643.61 110.225 643.281 110.833 642.865 111.382C642.374 111.995 641.76 112.56 640.631 113.549C640.569 113.605 640.527 113.679 640.511 113.761C640.494 113.842 640.504 113.927 640.539 114.003C640.77 114.424 641.062 114.808 641.404 115.145C641.589 115.237 641.803 115.108 641.889 115.046C642.675 114.512 643.621 113.665 644.081 113.088C644.241 112.892 644.412 112.978 644.498 113.272C644.706 114.039 645.1 114.743 645.643 115.322C646.187 115.901 646.865 116.338 647.617 116.593C650.471 117.557 653.437 116.164 655.671 113.733C657.089 112.198 657.605 111.197 658.151 110.528C659.072 109.38 660.895 106.82 663.062 105.181C663.86 104.574 664.8 104.113 665.272 104.42C665.653 104.666 665.776 105.237 665.168 106.348C662.958 110.387 659.704 115.126 659.103 116.28C658.992 116.477 659.09 116.636 659.299 116.636H662.651C662.829 116.624 662.909 116.544 662.995 116.422C664.689 113.763 666.285 111.234 667.998 108.625C668.096 108.466 668.182 108.588 668.182 108.656C668.225 109.257 668.366 110.086 668.734 110.633C669 111.079 669.378 111.447 669.83 111.701C670.283 111.956 670.794 112.087 671.313 112.081C672.033 112.091 672.746 111.94 673.4 111.639C674.112 111.375 674.689 111.032 675.119 110.719C675.377 110.541 675.426 110.841 675.414 110.884C675.021 112.99 675.506 115.488 677.605 116.532C680.11 117.76 682.866 116.029 684.456 114.457C684.61 114.304 684.775 114.322 684.794 114.647C684.831 115.249 685.101 115.955 685.592 116.458C686.918 117.79 689.6 117.256 692.289 115.175C694.02 113.843 695.825 111.959 697.458 109.963C697.519 109.89 697.569 109.767 697.446 109.638C697.2 109.38 696.838 109.086 696.593 108.852C696.482 108.754 696.316 108.785 696.224 108.852C694.548 110.448 693.038 112.259 690.865 113.763C690.128 114.273 688.962 114.684 688.434 113.978C688.225 113.702 688.25 113.321 688.452 112.812C689.085 111.234 699.134 95.9301 699.662 95.0277" fill="white"/>
<path d="M652.368 96.8817C652.411 97.1088 652.503 97.1518 652.608 97.1272C653.18 96.9714 653.677 96.6138 654.007 96.1205C654.314 95.6785 654.456 95.04 654.155 94.7822C653.885 94.5551 653.449 94.6165 653.123 94.905C652.847 95.1488 652.634 95.456 652.502 95.8003C652.371 96.1446 652.325 96.5157 652.368 96.8817V96.8817ZM626.751 116.581C623.006 116.606 619.704 114.291 619.323 110.277C619.104 108.189 619.705 106.098 620.999 104.445C622.116 102.99 624.007 101.787 625.603 101.492C626.119 101.394 626.819 101.455 627.107 101.799C627.561 102.327 627.432 102.904 626.978 103.137C625.757 103.757 624.289 104.825 623.565 106.28C623.23 106.899 623.071 107.597 623.105 108.299C623.138 109.001 623.363 109.681 623.755 110.264C625.259 112.536 629.458 112.597 633.356 108.975C634.326 108.085 635.186 107.232 636.064 106.225C637.782 104.261 638.353 103.542 640.637 100.375C640.662 100.338 640.674 100.289 640.662 100.27C640.643 100.227 640.612 100.221 640.545 100.209C639.023 100.258 637.69 100.712 636.401 101.676C636.033 101.946 635.493 101.909 635.259 101.553C635.002 101.148 635.186 100.62 635.615 100.326C637.69 98.8768 639.962 98.619 642.282 98.2261C642.282 98.2261 642.442 98.2261 642.577 98.0603C643.528 96.8326 644.247 95.7337 645.26 94.4998C646.285 93.2475 647.605 92.0934 648.611 91.2278C650.023 90.0185 650.926 89.6133 651.84 89.1099C652.086 88.9872 651.81 88.8337 651.736 88.8337C646.61 87.8699 641.288 86.6237 636.199 88.5083C632.675 89.822 631.128 92.6213 631.871 94.4875C632.399 95.8135 634.142 96.0223 635.775 95.2242C637.126 94.5674 638.384 93.4931 639.274 92.118C639.765 91.3506 640.815 91.9031 640.25 93.2352C638.759 96.7344 635.916 99.5091 632.454 99.6257C629.501 99.724 627.598 97.5508 627.604 94.8743C627.617 89.5949 633.498 86.1203 639.667 85.5985C647.107 84.9846 654.155 86.9675 661.54 87.8637C667.2 88.5452 672.626 88.5636 678.317 87.2499C678.992 87.1087 679.459 87.5384 679.422 88.2137C679.361 89.1959 678.6 90.1413 676.727 91.1603C674.597 92.3328 672.369 92.6889 670.036 92.7073C664.413 92.7564 659.17 90.5587 653.737 89.38C653.743 89.6195 653.811 89.9018 653.615 90.0553C650.606 92.2653 647.887 94.5182 646.064 97.6797C646.002 97.7534 646.039 97.8271 646.144 97.8148C647.727 97.735 649.145 97.692 650.625 97.5692C650.877 97.5508 650.889 97.4894 650.87 97.2991C650.791 96.7154 650.853 96.121 651.052 95.5664C651.25 95.0118 651.58 94.5133 652.012 94.1131C652.994 93.2352 654.222 93.1309 655.039 93.7693C655.96 94.4875 655.88 95.789 655.376 96.7589C655.149 97.1859 654.839 97.563 654.464 97.8678C654.088 98.1725 653.655 98.3988 653.191 98.533C653.191 98.533 653.019 98.5699 653.044 98.7233C653.074 98.9689 654.192 99.5889 654.284 99.7547C654.376 99.9143 654.327 100.154 654.161 100.338C654.095 100.418 654.013 100.482 653.919 100.527C653.826 100.571 653.724 100.595 653.621 100.596C653.43 100.596 653.314 100.528 653.068 100.393C652.483 100.08 651.962 99.6596 651.533 99.1531C651.386 98.975 651.312 98.9689 650.963 98.9934C649.366 99.0855 646.874 99.3249 645.192 99.5337C644.781 99.5828 644.719 99.6626 644.64 99.8038C641.951 104.236 639.078 109.018 635.922 112.223C632.546 115.654 629.734 116.557 626.751 116.581Z" fill="white"/>
<path d="M659.342 80.8899C624.295 80.8899 595.891 90.5708 595.891 102.425C595.891 114.273 624.295 123.96 659.342 123.96C694.389 123.96 722.793 114.273 722.793 102.425C722.793 90.577 694.382 80.8899 659.342 80.8899V80.8899ZM659.342 125.912C623.018 125.912 593.577 115.396 593.577 102.425C593.577 89.4474 623.018 78.9377 659.342 78.9377C695.659 78.9377 725.101 89.4474 725.101 102.425C725.101 115.396 695.659 125.912 659.342 125.912" fill="white"/>
<defs>
<clipPath id="clip0">
<rect width="633.432" height="439.463" fill="white" transform="translate(0 81.4119)"/>
</clipPath>
</defs>
</svg>
