<svg width="739" height="495" viewBox="0 0 739 495" fill="none" xmlns="http://www.w3.org/2000/svg">
<g opacity="0.95" clip-path="url(#clip0)">
<path d="M312.954 124.219H305.061V139.751H312.954V124.219Z" fill="#374548"/>
<path d="M113.841 227.387H10.661C4.77262 227.387 0 231.492 0 236.556V307.196C0 312.259 4.77262 316.365 10.661 316.365H113.841C119.729 316.365 124.502 312.259 124.502 307.196V236.556C124.502 231.492 119.729 227.387 113.841 227.387Z" fill="#B3B3B3"/>
<path d="M19.3649 252.781C24.0626 252.781 27.8703 248.945 27.8703 244.214C27.8703 239.483 24.0626 235.648 19.3649 235.648C14.6671 235.648 10.8594 239.483 10.8594 244.214C10.8594 248.945 14.6671 252.781 19.3649 252.781Z" fill="#C83737"/>
<path d="M35.7488 248.361C38.101 248.361 40.0074 246.472 40.0074 244.142C40.0074 241.812 38.101 239.923 35.7488 239.923C33.3966 239.923 31.4902 241.812 31.4902 244.142C31.4902 246.472 33.3966 248.361 35.7488 248.361Z" fill="#37C871"/>
<path d="M106.493 238.968H46.1601C45.4884 238.968 44.9434 239.436 44.9434 240.013V245.912C44.9434 246.49 45.4884 246.958 46.1601 246.958H106.493C107.165 246.958 107.708 246.49 107.708 245.912V240.013C107.708 239.436 107.165 238.968 106.493 238.968Z" fill="#999999"/>
<path d="M99.805 259.353H20.0252C14.9102 259.353 10.7637 262.918 10.7637 267.317V298.715C10.7637 303.114 14.9102 306.68 20.0252 306.68H99.805C104.92 306.68 109.067 303.114 109.067 298.715V267.317C109.067 262.918 104.92 259.353 99.805 259.353Z" fill="#999999"/>
<path d="M309.037 140.483C313.112 140.483 316.416 140.286 316.416 140.044C316.416 139.801 313.112 139.604 309.037 139.604C304.963 139.604 301.659 139.801 301.659 140.044C301.659 140.286 304.963 140.483 309.037 140.483Z" fill="#6F8A91"/>
<path opacity="0.95" d="M183.39 263.524V271.542L196.379 321.042L183.451 320.743V322.533L104.07 322.855V321.093L93.4141 321.07L104.07 278.955V263.521L183.39 263.524Z" fill="#0B2228"/>
<path opacity="0.4" d="M145.541 269.171V320.814H155.597L149.461 269.099L145.541 269.171Z" fill="black"/>
<path opacity="0.4" d="M107.615 267.474H109.959V321.78H92.8311L107.615 267.474Z" fill="black" stroke="black" stroke-width="0.217762"/>
<path opacity="0.4" d="M180.23 268.298H177.887V323.001H195.013L180.23 268.298Z" fill="black" stroke="black" stroke-width="0.21855"/>
<path d="M185.855 267.382V270.274H183.836L196.168 319.065H198.325V323.045H89.4736V319.065H91.6974L104.031 270.274H102.086V267.382H185.855ZM181.136 270.274H143.769V319.065H193.47L181.136 270.274ZM139.669 270.274H106.729L94.3955 319.065H133.545L139.669 270.274Z" fill="#4D4D4D"/>
<path d="M104.725 243.18H106.252C107.012 243.18 107.368 243.662 107.619 244.189L108.558 246.166C108.812 246.693 107.953 247.175 107.193 247.175H103.784C103.023 247.175 102.166 246.692 102.417 246.166L103.358 244.189C103.611 243.662 103.965 243.18 104.725 243.18Z" fill="#373E48"/>
<path d="M110.221 245.45H100.819C100.405 245.45 100.069 245.785 100.069 246.198V252.579C100.069 252.992 100.405 253.327 100.819 253.327H110.221C110.635 253.327 110.969 252.992 110.969 252.579V246.198C110.969 245.785 110.635 245.45 110.221 245.45Z" fill="#A02C2C"/>
<path d="M122.887 237.083H168.97C169.186 237.083 169.268 237.217 169.365 237.35L180.215 252.502C180.313 252.635 180.038 252.769 179.82 252.769H113.752C113.537 252.769 113.276 252.639 113.357 252.502L122.492 237.35C122.575 237.213 122.669 237.083 122.887 237.083Z" fill="#00222B"/>
<path d="M188.768 250.313H99.6501C98.3156 250.313 97.2344 251.395 97.2344 252.729V261.447C97.2344 262.782 98.3156 263.864 99.6501 263.864H188.768C190.102 263.864 191.184 262.782 191.184 261.447V252.729C191.184 251.395 190.102 250.313 188.768 250.313Z" fill="#A02C2C"/>
<path d="M199.147 3.1455L195.683 0.576689C194.388 -0.383076 192.561 -0.111816 191.601 1.18256L179.443 17.5788C178.484 18.8732 178.755 20.7005 180.049 21.6603L183.514 24.2291C184.808 25.1889 186.635 24.9176 187.595 23.6232L199.753 7.22702C200.713 5.93264 200.441 4.10527 199.147 3.1455Z" fill="#0A2228" fill-opacity="0.952941"/>
<path d="M203.742 2.00214L310.342 94.216C311.396 95.1277 311.693 96.6152 310.863 97.7352L302.117 109.531C301.288 110.651 299.747 110.844 298.599 110.054L182.774 30.2773C181.626 29.4868 181.422 27.8777 182.252 26.7582L200.221 2.52245C201.051 1.40288 202.686 1.08814 203.74 1.99995L203.742 2.00214Z" fill="#C83737"/>
<path d="M220.014 25.5914C217.636 24.9323 215.166 24.6966 212.745 24.8978C210.324 25.099 207.999 25.7332 205.904 26.7641C203.808 27.7951 201.984 29.2026 200.533 30.9063C199.083 32.61 198.035 34.5766 197.45 36.6937C197.425 36.7786 197.401 36.8638 197.378 36.9492C196.563 37.2682 195.929 37.8897 195.665 38.7107L149.438 182.466C149.083 183.567 149.637 184.749 150.643 185.497C147.8 197.028 156.216 209.193 169.601 212.903C182.932 216.599 196.352 210.564 199.895 199.28C201.307 199.28 202.604 198.527 202.879 197.28L235.391 49.7228C235.674 48.4408 235.011 47.1161 233.748 46.4102C234.82 42.1648 233.982 37.6065 231.414 33.714C228.845 29.8214 224.751 26.9051 220.011 25.5911L220.014 25.5914Z" fill="#C83737"/>
<path d="M214.867 61.1465C205.82 61.1465 198.486 53.7767 198.486 44.6855C198.486 35.5944 205.82 28.2246 214.867 28.2246C223.914 28.2246 231.247 35.5944 231.247 44.6855C231.247 53.7767 223.914 61.1465 214.867 61.1465Z" fill="#0A2228" fill-opacity="0.952941"/>
<path d="M268.969 57.0722L252.857 78.411C251.945 79.6188 252.185 81.3376 253.393 82.2495L277.368 100.351C278.575 101.263 280.294 101.023 281.206 99.8153L297.318 78.4765C298.23 77.2687 297.99 75.55 296.782 74.638L272.807 56.5365C271.6 55.6245 269.881 55.8644 268.969 57.0722Z" fill="#0A2228" fill-opacity="0.952941"/>
<path d="M318.75 122.178H299.072C298.864 122.178 298.695 122.347 298.695 122.554V123.846C298.695 124.053 298.864 124.222 299.072 124.222H318.75C318.958 124.222 319.127 124.053 319.127 123.846V122.554C319.127 122.347 318.958 122.178 318.75 122.178Z" fill="#1C2224"/>
<path d="M316.29 117.163H301.851V122.185H316.29V117.163Z" fill="#6F8A91"/>
<path d="M309.106 119.486C301.597 119.486 295.51 113.43 295.51 105.96C295.51 98.4899 301.597 92.4341 309.106 92.4341C316.614 92.4341 322.701 98.4899 322.701 105.96C322.701 113.43 316.614 119.486 309.106 119.486Z" fill="#0A2228" fill-opacity="0.952941"/>
<path d="M554.804 227.295L608.387 255.759L577.081 314.693L523.498 286.23L554.804 227.295Z" fill="#F7DF1E"/>
<path d="M544.099 284.889L549.651 284.338C549.623 286.302 549.647 287.989 551.374 288.906C553.029 289.785 554.451 289.627 555.921 286.859L565.925 268.026L570.96 270.701L560.915 289.61C557.868 295.345 553.427 296.334 548.964 293.964C544.937 291.824 543.818 288.287 544.102 284.888L544.099 284.889ZM562.222 293.752L567.707 293.318C567.756 295.831 568.403 297.995 570.886 299.314C572.973 300.422 574.912 299.982 575.753 298.399C576.762 296.5 575.751 295.102 574.042 292.772L573.1 291.511C570.371 287.882 569.093 284.464 571.489 279.953C573.696 275.799 578.254 274.162 582.75 276.55C585.951 278.251 587.595 280.698 587.554 284.782L582.163 285.471C582.204 283.31 581.626 282.142 580.186 281.377C578.712 280.594 577.231 281.125 576.516 282.471C575.633 284.133 576.21 285.3 577.823 287.473L578.766 288.735C581.971 293.021 583.293 296.362 580.834 300.992C578.186 305.977 573.174 306.815 568.387 304.273C563.704 301.785 562.001 297.721 562.231 293.749" fill="black"/>
<path d="M424.297 219.297L422.007 219.455L420.799 219.54V216.504L422.385 216.206L423.365 216.02C423.365 216.02 426.403 206.676 429.317 208.374C432.231 210.073 424.297 219.297 424.297 219.297V219.297Z" fill="#714B4F"/>
<path opacity="0.1" d="M422.007 219.455L420.799 219.539V216.504L422.385 216.206C421.831 216.967 421.851 218.315 422.007 219.455V219.455Z" fill="black"/>
<path d="M460.898 169.892L455.757 229.788L432.649 236.455L409.607 229.788L404.473 169.892H460.898Z" fill="#E44D26"/>
<path d="M432.684 231.36L451.354 225.978L455.741 174.79H432.684V231.36Z" fill="#F16529"/>
<path d="M422.691 189.485H432.683V182.138H414.973L415.144 184.11L416.881 204.356H432.687V197.008H423.34L422.691 189.485ZM424.296 208.03H417.212L418.201 219.567L432.652 223.757H432.696V216.09H432.652L424.785 213.879L424.296 208.03Z" fill="#EBEBEB"/>
<path d="M432.658 204.356H441.355L440.534 213.886L432.658 216.097V223.757L447.14 219.581L447.243 218.339L448.904 198.995L449.075 197.023H432.656V204.37L432.658 204.356ZM432.658 189.468V189.486H449.722L449.864 187.833L450.202 184.107L450.373 182.135H432.663V189.465L432.658 189.468Z" fill="white"/>
<path d="M310.355 210.415L287.828 203.677L282.807 142.951H337.969L332.945 203.669L310.355 210.415Z" fill="#264DE4"/>
<path d="M328.641 199.805L332.935 147.919H310.391V205.25L328.641 199.805Z" fill="#2965F1"/>
<path d="M294.328 170.432L294.948 177.878H310.401V170.432H294.328ZM293.083 155.357L293.712 162.804H310.399V155.357H293.07H293.083ZM310.399 189.775H310.356L302.661 187.534L302.171 181.593H295.225L296.192 193.287L310.338 197.532H310.382L310.399 189.775Z" fill="#EBEBEB"/>
<path d="M326.416 170.432L327.663 155.357H310.354V162.804H320.086L319.457 170.42H310.354V177.867H318.856L318.043 187.534L310.354 189.781V197.529L324.51 193.296L324.617 192.036L326.247 172.427L326.414 170.426L326.416 170.432Z" fill="white"/>
<path d="M452.544 363.433H437.607V293.008H452.544V363.433Z" fill="#ACABAB"/>
<path d="M445.077 363.433H405.619V358.56L445.077 353.688V363.433Z" fill="#ACABAB"/>
<path d="M445.078 363.433H484.534V358.56L445.078 353.688V363.433Z" fill="#ACABAB"/>
<path d="M325.897 363.433H310.961V293.008H325.897V363.433Z" fill="#ACABAB"/>
<path d="M318.426 363.433H278.971V358.56L318.426 353.688V363.433Z" fill="#ACABAB"/>
<path d="M318.428 363.433H357.883V358.56L318.428 353.688V363.433Z" fill="#ACABAB"/>
<path d="M363.342 368.809H273.51V363.433H363.342V368.809Z" fill="#58595B"/>
<path d="M489.996 368.809H400.166V363.433H489.996V368.809Z" fill="#58595B"/>
<path d="M471.04 289.02H292.47C279.219 289.02 268.477 278.278 268.477 265.025C268.477 251.773 279.219 241.031 292.47 241.031H471.04C484.292 241.031 495.036 251.773 495.036 265.025C495.036 278.278 484.292 289.02 471.04 289.02Z" fill="#343434"/>
<path d="M459.23 287.996H467.667V290.045H459.23V287.996Z" fill="#343434"/>
<path d="M447.42 287.996H455.856V290.045H447.42V287.996Z" fill="#343434"/>
<path d="M435.609 287.996H444.046V290.045H435.609V287.996Z" fill="#343434"/>
<path d="M423.799 287.996H432.238V290.045H423.799V287.996Z" fill="#343434"/>
<path d="M411.986 287.996H420.425V290.045H411.986V287.996Z" fill="#343434"/>
<path d="M400.178 287.996H408.614V290.045H400.178V287.996Z" fill="#343434"/>
<path d="M388.367 287.996H396.804V290.045H388.367V287.996Z" fill="#343434"/>
<path d="M376.557 287.996H384.993V290.045H376.557V287.996Z" fill="#343434"/>
<path d="M364.746 287.996H373.18V290.045H364.746V287.996Z" fill="#343434"/>
<path d="M352.936 287.996H361.37V290.045H352.936V287.996Z" fill="#343434"/>
<path d="M341.125 287.996H349.559V290.045H341.125V287.996Z" fill="#343434"/>
<path d="M329.312 287.996H337.749V290.045H329.312V287.996Z" fill="#343434"/>
<path d="M317.502 287.996H325.938V290.045H317.502V287.996Z" fill="#343434"/>
<path d="M305.691 287.996H314.128V290.045H305.691V287.996Z" fill="#343434"/>
<path d="M293.881 287.996H302.317V290.045H293.881V287.996Z" fill="#343434"/>
<path d="M282.832 285.853C282.832 285.853 282.943 285.906 283.142 286.003C283.337 286.104 283.625 286.237 283.985 286.356C284.7 286.605 285.628 287.006 286.619 287.214C287.11 287.33 287.592 287.489 288.059 287.562C288.527 287.633 288.965 287.699 289.339 287.755C290.085 287.894 290.591 287.899 290.591 287.899L290.424 289.943C290.424 289.943 289.873 289.933 289.06 289.785C288.652 289.723 288.174 289.651 287.665 289.572C287.157 289.491 286.63 289.322 286.096 289.194C285.017 288.964 284.002 288.533 283.224 288.258C282.834 288.128 282.521 287.983 282.307 287.874C282.089 287.769 281.967 287.71 281.967 287.71L282.83 285.851" fill="#343434"/>
<path d="M274.133 278.815C274.133 278.815 274.207 278.916 274.342 279.093C274.481 279.263 274.644 279.538 274.908 279.811C275.438 280.351 276.049 281.168 276.831 281.811C277.206 282.148 277.57 282.498 277.931 282.804C278.312 283.087 278.665 283.351 278.969 283.578C279.563 284.048 280.004 284.298 280.004 284.298L278.887 286.018C278.887 286.018 278.41 285.745 277.761 285.232C277.432 284.985 277.046 284.697 276.634 284.39C276.239 284.056 275.842 283.678 275.433 283.31C274.586 282.604 273.914 281.722 273.341 281.132C273.058 280.833 272.877 280.536 272.725 280.35C272.581 280.158 272.498 280.047 272.498 280.047L274.133 278.815Z" fill="#343434"/>
<path d="M269.794 268.511C269.794 268.511 269.859 269.011 269.993 269.756C270.211 270.481 270.374 271.486 270.743 272.426C270.915 272.899 271.092 273.374 271.253 273.817C271.429 274.256 271.642 274.645 271.801 274.989C271.963 275.329 272.102 275.614 272.195 275.814C272.283 276.015 272.362 276.118 272.362 276.118L270.569 277.11C270.569 277.11 270.489 276.996 270.387 276.777C270.281 276.561 270.131 276.251 269.955 275.879C269.783 275.506 269.552 275.081 269.359 274.603C269.183 274.12 268.993 273.603 268.804 273.086C268.405 272.06 268.219 270.967 267.989 270.177C267.84 269.365 267.771 268.82 267.771 268.82L269.796 268.511" fill="#343434"/>
<path d="M270.836 257.374C270.836 257.374 270.791 257.492 270.716 257.7C270.642 257.908 270.517 258.199 270.438 258.57C270.271 259.308 269.939 260.269 269.835 261.277C269.761 261.776 269.685 262.275 269.616 262.743C269.569 263.216 269.571 263.656 269.552 264.036C269.552 264.414 269.505 264.728 269.505 264.949C269.505 265.169 269.505 265.296 269.505 265.296L267.455 265.319C267.455 265.319 267.455 265.182 267.455 264.941C267.455 264.7 267.503 264.358 267.507 263.946C267.507 263.535 267.554 263.054 267.582 262.54C267.656 262.03 267.734 261.487 267.817 260.942C267.938 259.845 268.292 258.797 268.477 257.993C268.565 257.591 268.699 257.272 268.778 257.046C268.861 256.818 268.907 256.69 268.907 256.69L270.839 257.373" fill="#343434"/>
<path d="M277.028 248.06C277.028 248.06 276.641 248.386 276.104 248.921C275.849 249.201 275.555 249.528 275.236 249.878C275.079 250.053 274.912 250.235 274.745 250.418C274.597 250.618 274.447 250.819 274.294 251.022C273.993 251.426 273.691 251.832 273.409 252.212C273.163 252.616 272.932 252.994 272.736 253.316C272.541 253.64 272.375 253.91 272.263 254.1C272.165 254.298 272.113 254.412 272.113 254.412L270.297 253.463C270.297 253.463 270.358 253.34 270.46 253.123C270.585 252.917 270.762 252.622 270.974 252.27C271.187 251.917 271.44 251.506 271.708 251.066C272.014 250.652 272.342 250.212 272.67 249.77C272.837 249.551 272.999 249.33 273.162 249.114C273.343 248.914 273.523 248.716 273.694 248.525C274.042 248.144 274.366 247.788 274.643 247.484C275.226 246.902 275.646 246.545 275.646 246.545L277.026 248.06" fill="#343434"/>
<path d="M286.879 242.772C286.879 242.772 286.39 242.896 285.656 243.084C284.955 243.364 283.979 243.644 283.07 244.084C282.616 244.302 282.161 244.521 281.734 244.726C281.307 244.932 280.948 245.192 280.62 245.378C280.295 245.575 280.025 245.738 279.836 245.853C279.646 245.962 279.544 246.041 279.544 246.041L278.389 244.349C278.389 244.349 278.495 244.264 278.703 244.143C278.908 244.017 279.203 243.839 279.555 243.625C279.912 243.42 280.308 243.14 280.771 242.916C281.236 242.692 281.731 242.453 282.228 242.214C283.218 241.738 284.28 241.427 285.047 241.128C285.846 240.921 286.379 240.784 286.379 240.784L286.877 242.772" fill="#343434"/>
<path d="M298.378 242.055C298.378 242.055 296.268 242.055 294.159 242.055C293.631 242.055 293.104 242.055 292.61 242.055C292.135 242.078 291.692 242.097 291.312 242.116C290.936 242.134 290.618 242.148 290.397 242.162C290.174 242.167 290.055 242.185 290.055 242.185L289.84 240.146C289.84 240.146 289.975 240.128 290.216 240.119C290.457 240.109 290.801 240.091 291.212 240.068C291.621 240.049 292.099 240.031 292.612 240.006C293.106 240.006 293.634 240.006 294.161 240.006C296.27 240.006 298.378 240.006 298.378 240.006V242.055" fill="#343434"/>
<path d="M310.188 242.055H301.754V240.006H310.188V242.055Z" fill="#343434"/>
<path d="M321.999 242.055H313.564V240.006H321.999V242.055Z" fill="#343434"/>
<path d="M333.809 242.055H325.375V240.006H333.809V242.055Z" fill="#343434"/>
<path d="M345.62 242.055H337.184V240.006H345.62V242.055Z" fill="#343434"/>
<path d="M357.433 242.055H348.996V240.006H357.433V242.055Z" fill="#343434"/>
<path d="M369.243 242.055H360.807V240.006H369.243V242.055Z" fill="#343434"/>
<path d="M381.054 242.055H372.617V240.006H381.054V242.055Z" fill="#343434"/>
<path d="M392.864 242.055H384.428V240.006H392.864V242.055Z" fill="#343434"/>
<path d="M404.677 242.055H396.238V240.006H404.677V242.055Z" fill="#343434"/>
<path d="M416.488 242.055H408.049V240.006H416.488V242.055Z" fill="#343434"/>
<path d="M428.296 242.055H419.859V240.006H428.296V242.055Z" fill="#343434"/>
<path d="M440.106 242.055H431.67V240.006H440.106V242.055Z" fill="#343434"/>
<path d="M451.919 242.055H443.482V240.006H451.919V242.055Z" fill="#343434"/>
<path d="M463.729 242.055H455.293V240.006H463.729V242.055Z" fill="#343434"/>
<path d="M475.323 242.469C475.323 242.469 474.825 242.394 474.077 242.279C473.334 242.118 472.315 242.144 471.309 242.07C469.206 242.065 467.104 242.056 467.104 242.056V240.007C467.104 240.007 469.218 240.012 471.334 240.021C472.429 240.095 473.534 240.077 474.344 240.248C475.159 240.373 475.703 240.456 475.703 240.456L475.323 242.469" fill="#343434"/>
<path d="M485.476 247.168C485.476 247.168 485.074 246.867 484.468 246.414C483.886 245.923 482.983 245.454 482.131 244.914C481.231 244.465 480.334 243.996 479.626 243.73C478.916 243.47 478.441 243.297 478.441 243.297L479.1 241.356C479.1 241.356 479.616 241.546 480.391 241.829C481.162 242.12 482.143 242.628 483.123 243.12C484.054 243.703 485.03 244.223 485.666 244.753C486.326 245.247 486.765 245.576 486.765 245.576L485.476 247.168" fill="#343434"/>
<path d="M492.758 255.306C492.758 255.306 492.541 254.851 492.213 254.169C491.916 253.468 491.386 252.609 490.858 251.75C490.316 250.898 489.677 250.112 489.218 249.512C488.71 248.95 488.369 248.577 488.369 248.577L489.868 247.18C489.868 247.18 490.239 247.587 490.793 248.198C491.292 248.851 491.986 249.708 492.575 250.634C493.152 251.57 493.732 252.508 494.056 253.269C494.413 254.013 494.647 254.509 494.647 254.509L492.758 255.306Z" fill="#343434"/>
<path d="M493.903 267.177C493.903 267.177 493.95 266.672 493.969 265.916C494.048 265.16 493.964 264.15 493.917 263.142C493.861 262.134 493.638 261.144 493.545 260.393C493.355 259.66 493.23 259.171 493.23 259.171L495.212 258.649C495.212 258.649 495.346 259.182 495.55 259.981C495.656 260.799 495.895 261.879 495.96 262.975C496.015 264.073 496.097 265.171 496.014 265.994C495.968 266.817 495.944 267.365 495.944 267.365L493.905 267.177" fill="#343434"/>
<path d="M490.174 277.726C490.174 277.726 490.434 277.296 490.828 276.648C491.26 276.021 491.651 275.087 492.101 274.184C492.477 273.251 492.834 272.302 493.05 271.579C493.24 270.846 493.365 270.356 493.365 270.356L495.358 270.831C495.358 270.831 495.218 271.364 495.014 272.163C494.777 272.952 494.393 273.986 493.981 275.002C493.495 275.989 493.061 277.003 492.595 277.687C492.168 278.392 491.879 278.862 491.879 278.862L490.174 277.726Z" fill="#343434"/>
<path d="M481.898 285.268C481.898 285.268 482.014 285.216 482.2 285.097C482.39 284.982 482.658 284.817 482.981 284.621C483.296 284.416 483.697 284.215 484.075 283.932C484.455 283.647 484.858 283.344 485.262 283.043C486.067 282.433 486.778 281.709 487.341 281.205C487.85 280.644 488.19 280.271 488.19 280.271L489.719 281.633C489.719 281.633 489.348 282.04 488.795 282.649C488.184 283.2 487.408 283.986 486.532 284.65C486.092 284.979 485.651 285.308 485.237 285.617C484.824 285.925 484.395 286.147 484.048 286.37C483.695 286.584 483.401 286.761 483.196 286.887C482.992 287.016 482.868 287.073 482.868 287.073L481.898 285.268" fill="#343434"/>
<path d="M471.043 287.996C471.043 287.996 471.547 287.968 472.304 287.93C472.68 287.903 473.125 287.912 473.593 287.846C474.061 287.775 474.562 287.699 475.061 287.622C476.064 287.494 477.021 287.15 477.76 286.993C478.479 286.754 478.947 286.569 478.947 286.569L479.654 288.494C479.654 288.494 479.141 288.693 478.358 288.952C477.555 289.13 476.508 289.497 475.416 289.641C474.872 289.722 474.328 289.806 473.82 289.883C473.309 289.953 472.826 289.947 472.415 289.978C471.593 290.02 471.043 290.045 471.043 290.045V287.997" fill="#343434"/>
<path d="M470.108 287.683H293.396C280.882 287.683 270.738 277.54 270.738 265.025C270.738 252.513 280.882 242.367 293.396 242.367H470.108C482.621 242.367 492.766 252.513 492.766 265.025C492.766 277.54 482.621 287.683 470.108 287.683Z" fill="#808080"/>
<path d="M469.882 274.13C464.768 272.469 461.968 266.978 463.629 261.863C465.29 256.749 470.784 253.951 475.898 255.612C481.011 257.273 483.81 262.766 482.149 267.879C480.488 272.993 474.996 275.793 469.882 274.13Z" fill="#999999"/>
<path d="M287.609 274.13C282.495 272.469 279.694 266.978 281.356 261.863C283.016 256.749 288.511 253.951 293.624 255.612C298.739 257.273 301.536 262.766 299.875 267.879C298.214 272.993 292.723 275.793 287.609 274.13Z" fill="#B3B3B3"/>
<path d="M299.381 287.683H464.129V273.902H299.381V287.683Z" fill="#666666"/>
<path d="M460.629 302.046H302.877V277.11H460.629V302.046Z" fill="#ACABAB"/>
<path d="M325.901 302.045H310.965V309.916H325.901V302.045Z" fill="#919191"/>
<path d="M452.55 302.045H437.613V309.916H452.55V302.045Z" fill="#919191"/>
<path d="M325.9 354.609L357.889 358.56V359.464H325.9V354.609Z" fill="#919191"/>
<path d="M310.965 354.609L278.977 358.56V359.464H310.965V354.609Z" fill="#919191"/>
<path d="M452.549 354.609L484.537 358.56V359.464H452.549V354.609Z" fill="#919191"/>
<path d="M437.611 354.609L405.623 358.56V359.464H437.611V354.609Z" fill="#919191"/>
<path d="M325.901 277.167H310.965V248.713H325.901V277.167Z" fill="#ACABAB"/>
<path d="M452.55 277.167H437.613V248.713H452.55V277.167Z" fill="#ACABAB"/>
<path d="M446.893 277.167H443.273V254.406H446.893V277.167Z" fill="#606163"/>
<path d="M446.893 330.499H443.273V302.045H446.893V330.499Z" fill="#606163"/>
<path d="M320.242 277.167H316.623V254.406H320.242V277.167Z" fill="#606163"/>
<path d="M320.242 330.499H316.623V302.045H320.242V330.499Z" fill="#606163"/>
<path d="M452.348 289.578C452.348 293.59 449.095 296.843 445.082 296.843C441.07 296.843 437.816 293.59 437.816 289.578C437.816 285.566 441.07 282.313 445.082 282.313C449.095 282.313 452.348 285.566 452.348 289.578Z" fill="#666666"/>
<path d="M450.691 289.578C450.691 292.676 448.179 295.188 445.081 295.188C441.983 295.188 439.471 292.676 439.471 289.578C439.471 286.479 441.983 283.969 445.081 283.969C448.179 283.969 450.691 286.479 450.691 289.578Z" fill="#B3B3B3"/>
<path d="M443.089 293.031L441.094 289.578L443.089 286.124H447.077L449.07 289.578L447.077 293.031H443.089Z" fill="#333333"/>
<path d="M325.693 289.578C325.693 293.59 322.44 296.843 318.428 296.843C314.415 296.843 311.162 293.59 311.162 289.578C311.162 285.566 314.415 282.313 318.428 282.313C322.44 282.313 325.693 285.566 325.693 289.578Z" fill="#4D4D4D"/>
<path d="M324.036 289.578C324.036 292.676 321.524 295.188 318.426 295.188C315.329 295.188 312.818 292.676 312.818 289.578C312.818 286.479 315.329 283.969 318.426 283.969C321.524 283.969 324.036 286.479 324.036 289.578Z" fill="#B3B3B3"/>
<path d="M316.434 293.031L314.441 289.578L316.434 286.124H320.423L322.416 289.578L320.423 293.031H316.434Z" fill="#333333"/>
<path d="M105.367 244.326L105.537 226.516C105.537 226.516 106.382 203.351 110.75 192.879C114.624 183.592 118.7 169.764 128.696 168.604C137.049 167.634 138.912 169.596 147.294 170.777C157.032 172.148 163.723 167.919 168.722 158.6C181.025 135.669 188.611 84.4897 197.748 77.8837C210.204 68.8774 205.104 91.1137 226.628 89.8761C248.088 88.6422 247.448 62.8215 252.531 66.5728C267.939 77.9438 279.1 85.0279 290.221 95.3306C294.806 99.5782 288.258 104.794 286.609 109.518C285.048 113.989 284.817 122.161 291.551 127.117C297.728 131.662 304.962 132.513 304.962 132.513" stroke="#1A1A1A" stroke-width="5.07073"/>
<path d="M304.99 129.208L303.923 129.216C303.724 129.217 303.562 129.38 303.561 129.58L303.561 135.047C303.561 135.247 303.723 135.408 303.922 135.406L304.989 135.399C305.189 135.398 305.351 135.235 305.351 135.035L305.352 129.567C305.352 129.367 305.19 129.207 304.99 129.208Z" fill="#939DAC"/>
<path d="M173.87 177.496C172.717 177.497 171.566 177.575 170.424 177.733H96.7806C96.7806 177.733 96.7275 177.725 96.7086 177.725H85.6542C85.1156 177.725 84.6816 178.295 84.6816 179.003V193.472C84.6816 194.18 85.1175 194.75 85.6542 194.75H88.7195V237.664H174.824V230.37C181.517 230.117 187.854 227.222 192.502 222.294C197.149 217.366 199.745 210.788 199.745 203.943C199.745 196.93 197.019 190.203 192.166 185.244C187.313 180.284 180.731 177.498 173.868 177.498L173.87 177.496Z" fill="#C83737"/>
<path d="M172.266 225.403C160.825 225.403 151.551 215.951 151.551 204.291C151.551 192.632 160.825 183.18 172.266 183.18C183.707 183.18 192.981 192.632 192.981 204.291C192.981 215.951 183.707 225.403 172.266 225.403Z" fill="#0A2228" fill-opacity="0.952941"/>
<path d="M263.312 68.1874L258.251 74.6918C257.658 75.4531 257.8 76.5443 258.567 77.129L279.573 93.136C280.34 93.7207 281.443 93.5776 282.035 92.8162L287.097 86.3119C287.689 85.5505 287.548 84.4594 286.78 83.8747L265.774 67.8676C265.007 67.2829 263.905 67.4261 263.312 68.1874Z" fill="#6F7C91"/>
<path d="M196.942 82.6382L189.325 80.5953C188.813 80.458 188.286 80.7613 188.146 81.2727L184.337 95.272C184.198 95.7834 184.5 96.3091 185.012 96.4464L192.628 98.4893C193.14 98.6265 193.668 98.3235 193.807 97.8121L197.617 83.8128C197.756 83.3014 197.454 82.7755 196.942 82.6382Z" fill="#6F7C91"/>
<path d="M178.197 143.214L170.646 140.944C170.138 140.791 169.601 141.079 169.447 141.585L165.22 155.464C165.065 155.971 165.352 156.506 165.859 156.659L173.411 158.929C173.919 159.081 174.455 158.794 174.61 158.287L178.837 144.408C178.991 143.901 178.705 143.366 178.197 143.214Z" fill="#6F7C91"/>
<g opacity="0.7">
<path opacity="0.7" d="M656.975 319.677H480.829C479.319 319.683 477.873 320.288 476.81 321.359C475.746 322.43 475.151 323.879 475.155 325.389V446.623C475.151 448.132 475.746 449.582 476.81 450.653C477.873 451.724 479.319 452.329 480.829 452.335H541.411V473.261H538.649C538.27 473.263 537.895 473.339 537.545 473.485C537.195 473.632 536.878 473.845 536.61 474.114C536.343 474.383 536.132 474.702 535.988 475.053C535.844 475.404 535.771 475.78 535.772 476.159V480.358H541.411V482.841H596.393V480.358H602.031V476.159C602.033 475.78 601.959 475.404 601.815 475.053C601.672 474.702 601.46 474.383 601.193 474.114C600.926 473.845 600.608 473.632 600.259 473.485C599.909 473.339 599.534 473.263 599.154 473.261H596.556V473.08H596.379V452.335H656.975C658.484 452.329 659.93 451.724 660.994 450.653C662.058 449.582 662.653 448.132 662.648 446.623V325.389C662.653 323.879 662.058 322.43 660.994 321.359C659.93 320.288 658.484 319.683 656.975 319.677Z" fill="url(#paint0_linear)"/>
</g>
<path d="M596.21 448.731H541.944V480.733H596.21V448.731Z" fill="#BDBDBD"/>
<g opacity="0.1">
<path opacity="0.1" d="M543.012 451.861H595.249C595.879 449.124 596.383 447.339 596.383 447.339H541.771C541.771 447.339 542.331 449.117 543.012 451.861Z" fill="black"/>
</g>
<path d="M482.148 320.721H656.007C656.742 320.721 657.471 320.865 658.151 321.147C658.83 321.428 659.446 321.841 659.966 322.361C660.486 322.881 660.9 323.498 661.181 324.178C661.463 324.857 661.607 325.586 661.607 326.321V433.425H476.548V326.321C476.548 325.586 476.695 324.857 476.976 324.178C477.258 323.498 477.669 322.881 478.189 322.361C478.709 321.841 479.327 321.428 480.007 321.147C480.686 320.865 481.413 320.721 482.148 320.721Z" fill="#535461"/>
<path d="M656.006 450.818H482.148C480.663 450.818 479.239 450.228 478.189 449.177C477.139 448.127 476.55 446.703 476.55 445.217V433.425H661.607V445.217C661.607 445.953 661.462 446.681 661.181 447.361C660.899 448.04 660.485 448.658 659.965 449.178C659.445 449.698 658.83 450.11 658.15 450.391C657.471 450.673 656.742 450.818 656.006 450.818Z" fill="#BDBDBD"/>
<path d="M569.08 445.252C570.809 445.252 572.209 443.851 572.209 442.121C572.209 440.392 570.809 438.991 569.08 438.991C567.351 438.991 565.95 440.392 565.95 442.121C565.95 443.851 567.351 445.252 569.08 445.252Z" fill="#535461"/>
<path d="M539.22 471.341H598.933C599.686 471.341 600.41 471.641 600.943 472.174C601.476 472.706 601.775 473.429 601.775 474.183V478.298H536.378V474.183C536.378 473.429 536.677 472.706 537.21 472.174C537.743 471.641 538.467 471.341 539.22 471.341Z" fill="#BDBDBD"/>
<g opacity="0.5">
<path opacity="0.5" d="M634.642 344.417H513.381C512.442 344.417 511.681 345.117 511.681 345.982V408.164C511.681 409.029 512.442 409.729 513.381 409.729H634.642C635.581 409.729 636.342 409.029 636.342 408.164V345.982C636.342 345.117 635.581 344.417 634.642 344.417Z" fill="url(#paint1_linear)"/>
</g>
<path d="M572.721 344.896H514.002C513.535 344.896 513.155 345.597 513.155 346.462V407.322C513.155 408.187 513.535 408.888 514.002 408.888H572.721C573.188 408.888 573.566 408.187 573.566 407.322V346.462C573.566 345.597 573.188 344.896 572.721 344.896Z" fill="#373E48"/>
<path d="M562.052 372.895H529.998C529.658 372.895 529.382 373.171 529.382 373.511C529.382 373.851 529.658 374.127 529.998 374.127H562.052C562.392 374.127 562.668 373.851 562.668 373.511C562.668 373.171 562.392 372.895 562.052 372.895Z" fill="#AA87DE"/>
<path d="M556.434 376.596H529.998C529.658 376.596 529.382 376.872 529.382 377.212C529.382 377.552 529.658 377.828 529.998 377.828H556.434C556.774 377.828 557.05 377.552 557.05 377.212C557.05 376.872 556.774 376.596 556.434 376.596Z" fill="#80FFE6"/>
<path d="M561.456 364.122H529.403C529.063 364.122 528.786 364.398 528.786 364.738C528.786 365.078 529.063 365.353 529.403 365.353H561.456C561.796 365.353 562.073 365.078 562.073 364.738C562.073 364.398 561.796 364.122 561.456 364.122Z" fill="#ABC837"/>
<path d="M561.456 367.82H529.403C529.063 367.82 528.786 368.096 528.786 368.436C528.786 368.776 529.063 369.051 529.403 369.051H561.456C561.796 369.051 562.073 368.776 562.073 368.436C562.073 368.096 561.796 367.82 561.456 367.82Z" fill="#55FFDD"/>
<path d="M561.456 381.383H529.403C529.063 381.383 528.786 381.658 528.786 381.998C528.786 382.338 529.063 382.614 529.403 382.614H561.456C561.796 382.614 562.073 382.338 562.073 381.998C562.073 381.658 561.796 381.383 561.456 381.383Z" fill="#D35FBC"/>
<path d="M561.741 385.08H529.338C529.033 385.08 528.786 385.328 528.786 385.633V385.758C528.786 386.064 529.033 386.311 529.338 386.311H561.741C562.046 386.311 562.296 386.064 562.296 385.758V385.633C562.296 385.328 562.046 385.08 561.741 385.08Z" fill="#E0E0E0"/>
<g opacity="0.1">
<path opacity="0.1" d="M596.383 471.167H542.118V472.211H596.383V471.167Z" fill="black"/>
</g>
<g opacity="0.7">
<path opacity="0.7" d="M726.488 446.884H701.303L701.651 444.053C708.768 437.663 713.371 420.639 713.371 420.639C713.268 420.653 713.167 420.674 713.068 420.701C708.894 421.543 705.923 423.258 703.846 425.321L704.73 417.786C717.879 414.955 723.093 397.562 723.093 397.562C714.703 399.423 709.471 402.304 706.222 405.038L707.516 393.969C716.407 397.02 725.604 380.813 725.604 380.813L725.257 380.74L725.431 380.629L725.166 380.723C715.339 378.604 710.087 384.222 708.382 386.556L708.511 385.471C708.251 386.167 707.998 386.848 707.753 387.516V387.544C707.057 389.429 706.42 391.292 705.843 393.131C705.34 394.701 704.869 396.254 704.431 397.792V397.771C704.431 397.771 704.024 387.871 693.585 385.266C693.585 385.266 694.68 406.857 702.952 403.323C702.187 406.453 701.561 409.466 701.018 412.391C700.673 414.295 700.371 416.15 700.114 417.957L700.065 418.013L700.114 417.971L700.093 418.113C699.861 419.753 699.664 421.351 699.502 422.907C699.662 419.908 699.115 411.247 688.909 403.107C688.909 403.107 675.343 426.949 698.475 431.631C698.528 431.676 698.58 431.721 698.628 431.763L698.594 431.655L698.802 431.701L698.896 430.476C698.617 435.587 698.644 440.709 698.976 445.816C699.001 446.164 699.025 446.512 699.049 446.843H673.576C663.857 466.945 678.975 477.962 678.975 477.962H720.717C736.927 457.529 726.488 446.884 726.488 446.884Z" fill="url(#paint2_linear)"/>
</g>
<path opacity="0.6" d="M699.882 454.516C699.882 454.516 693.274 425.644 707.884 388.424" stroke="#535461" stroke-width="1.04356" stroke-miterlimit="10"/>
<path d="M674.144 445.82H725.277C725.277 445.82 735.367 458.691 719.714 477.823H679.361C679.361 477.823 664.752 464.604 674.144 445.82Z" fill="#CCCCCC"/>
<path d="M707.151 390.337C707.151 390.337 712.233 381.293 724.408 384.076C724.408 384.076 714.345 401.211 705.276 395.6L707.151 390.337Z" fill="#4DB6AC"/>
<path d="M703.929 399.935C703.929 399.935 703.539 390.685 693.448 388.25C693.448 388.25 694.492 408.426 702.493 405.121L703.929 399.935Z" fill="#4DB6AC"/>
<path d="M700.63 413.595C700.63 413.595 702.492 403.904 721.972 399.729C721.972 399.729 715.759 419.773 699.733 418.969L700.63 413.595Z" fill="#4DB6AC"/>
<path d="M699.055 424.472C699.055 424.472 701.103 414.339 688.928 404.947C688.928 404.947 675.71 427.443 698.488 431.673L699.055 424.472Z" fill="#4DB6AC"/>
<path d="M698.688 438.4C698.688 438.4 697.274 424.079 712.58 421.296C712.58 421.296 706.992 441.294 698.668 444.86L698.688 438.4Z" fill="#4DB6AC"/>
<path opacity="0.3" d="M705.45 395.729C705.45 395.729 718.67 385.641 724.235 383.902" stroke="#535461" stroke-width="0.347853" stroke-miterlimit="10"/>
<path opacity="0.3" d="M699.71 418.861C699.71 418.861 715.712 401.816 721.974 399.729" stroke="#535461" stroke-width="0.347853" stroke-miterlimit="10"/>
<path opacity="0.3" d="M693.448 388.25C693.448 388.25 703.189 401.469 702.493 404.947" stroke="#535461" stroke-width="0.347853" stroke-miterlimit="10"/>
<path opacity="0.3" d="M688.927 404.947C688.927 404.947 694.144 428.601 698.318 431.732" stroke="#535461" stroke-width="0.347853" stroke-miterlimit="10"/>
<path opacity="0.3" d="M698.667 444.95C698.667 444.95 707.014 421.992 712.579 421.296" stroke="#535461" stroke-width="0.347853" stroke-miterlimit="10"/>
<g opacity="0.1">
<path opacity="0.1" d="M725.276 445.82H674.142C674.027 446.053 673.916 446.286 673.794 446.516H723.537C723.537 446.516 733.378 459.077 718.528 477.822H719.711C735.364 458.69 725.276 445.82 725.276 445.82Z" fill="black"/>
</g>
<path d="M738.037 478.159H400.118V489.614H738.037V478.159Z" fill="#E0E0E0"/>
<path d="M723.716 489.614H414.437V494.299H723.716V489.614Z" fill="#E0E0E0"/>
<path opacity="0.1" d="M723.716 489.614H414.437V491.175H723.716V489.614Z" fill="black"/>
<path opacity="0.15" d="M92.4785 177.75L97.943 238.143L108.61 215.994C108.61 215.994 113.624 193.871 113.624 192.146C113.624 190.421 111.016 180.454 111.016 180.454L111.633 177.242L92.4785 177.75Z" fill="black"/>
<path d="M41.8732 338.672L40.1927 349.784C40.1927 349.784 30.5246 371.118 43.9753 371.118C57.4268 371.118 53.6425 362.673 53.6425 362.673L52.3817 338.672H41.8732Z" fill="#1A1A1A"/>
<path d="M99.0385 338.672L100.721 349.784C100.721 349.784 110.389 371.118 96.9384 371.118C83.4873 371.118 87.2692 362.673 87.2692 362.673L88.5301 338.672H99.0385Z" fill="#1A1A1A"/>
<path d="M32.626 210.668L35.9889 294.671L38.7414 337.773L39.0771 341.502C39.6862 348.258 55.2644 344.237 55.3367 339.862C55.0359 334.632 54.9037 331.117 54.9037 331.117L53.2231 288.449L65.8336 236.002L81.807 292.449L85.1699 332.894C85.1699 332.894 84.323 345.632 88.9468 346.965C93.5706 348.298 101.091 348.389 100.67 344.388C100.25 340.388 99.4609 333.783 99.4609 333.783L101.563 216.446L95.2568 206.224L32.626 210.668Z" fill="#002255"/>
<path d="M56.1643 84.8861C56.1643 84.8861 51.9623 100.887 51.1209 100.887C50.2806 100.887 59.1076 113.332 59.1076 113.332L72.1377 120.887L76.7614 100.442C76.7614 100.442 72.5578 89.3307 73.3985 83.5527L56.1643 84.8861Z" fill="#DEAA87"/>
<path d="M64.993 108.887L52.5657 97.4757L45.2371 101.331L29.2637 111.998C29.2637 111.998 33.4671 208.001 31.3657 211.557C31.3657 211.557 35.9889 222.668 63.3106 216.001C90.6327 209.335 97.7791 208.446 97.7791 208.446L91.8945 149.777L99.04 112.887L75.0379 95.1392L67.5147 108.887H64.993Z" fill="#002255"/>
<path d="M16.9816 147.372C16.9816 147.372 12.45 167.111 17.0722 169.333C21.6964 171.556 25.4786 170.667 25.4786 170.667L32.625 152.444L16.9816 147.372Z" fill="#162D50"/>
<path d="M106.184 142.666L109.969 161.333V199.112C109.969 199.112 104.503 223.113 100.3 216.89C96.0963 210.668 96.1834 208.697 96.1834 208.697L101.561 200.001L99.0389 164.444L92.3379 147.482L106.184 142.666Z" fill="#DEAA87"/>
<path d="M32.6257 112.887L29.2627 111.998C29.2627 111.998 22.9581 120.443 20.8564 130.221C18.7547 139.999 15.8117 149.777 17.4935 149.777C19.1745 149.777 34.3062 156 34.3062 156L32.6257 112.887Z" fill="#002255"/>
<path d="M89.371 111.998L99.0382 112.887C99.0382 112.887 109.968 144.444 108.707 145.333C107.446 146.221 92.3139 151.555 90.2122 150.222C88.1105 148.888 89.371 111.998 89.371 111.998Z" fill="#162D50"/>
<path d="M51.1821 98.0947L61.7496 110.339L56.5402 214.988C30.0835 221.156 31.1333 210.713 31.1333 210.713C33.2354 207.158 29.0312 111.154 29.0312 111.154L45.0056 100.487L51.1821 98.0947Z" fill="#0044AA"/>
<path d="M76.457 96.1953L99.1143 112.445L91.9688 149.336L97.8535 208.004C97.8535 208.004 95.8911 206.76 74.0593 211.963L69.1494 110.658L76.457 96.1953Z" fill="#0044AA"/>
<path opacity="0.999" d="M43.867 101.301L38.856 104.308L38.6328 217.206H44.8169L43.867 101.301Z" fill="#999999"/>
<path d="M75.6844 144.72C78.6178 144.74 81.1497 148.431 81.3612 152.997L82.103 169.004C82.3145 173.569 80.1232 177.228 77.1898 177.208L47.8531 177.005C44.9197 176.984 42.3882 173.293 42.1766 168.728L41.5965 156.209L39.1985 156.192C39.091 156.91 38.932 157.494 38.7348 157.897C38.5375 158.3 38.3078 158.509 38.0647 158.507C37.8648 158.506 37.6602 158.362 37.4626 158.083C37.2651 157.804 37.0784 157.396 36.9133 156.883C36.7482 156.369 36.6078 155.76 36.5003 155.09C36.3928 154.42 36.3201 153.702 36.2866 152.977C36.2187 151.514 36.3141 150.111 36.5516 149.078C36.7892 148.045 37.1495 147.466 37.5532 147.469C37.8329 147.471 38.1202 147.752 38.3834 148.282C38.6466 148.812 38.8757 149.57 39.0454 150.472L41.528 150.489C41.9896 147.02 43.912 144.5 46.3476 144.517L75.6844 144.72Z" fill="#4D4D4D"/>
<path d="M36.3646 160.275C34.8906 160.174 33.7868 157.154 33.8991 153.528C34.0114 149.902 35.2972 147.045 36.7711 147.146C38.2451 147.246 39.3489 150.267 39.2366 153.893C39.1244 157.518 37.8385 160.376 36.3646 160.275Z" fill="#C83737"/>
<path d="M20.857 156.444C20.857 156.444 15.8124 166.222 17.0735 169.333C18.3345 172.444 28.8426 174.222 30.1036 174.222C31.365 174.222 46.4976 170.667 46.4976 170.667C46.4976 170.667 69.6162 159.111 62.8906 153.333C56.1647 147.555 43.5562 161.333 43.5562 161.333H33.4665L28.0025 157.333L20.857 156.444Z" fill="#DEAA87"/>
<path d="M67.5709 41.1975C74.3992 41.1978 79.8195 49.8969 79.8972 60.6778V63.1726C79.9167 63.1709 79.9349 63.1699 79.9544 63.17C80.3744 63.17 80.7772 63.5756 81.0741 64.2975C81.371 65.0194 81.5376 65.9985 81.5376 67.0194C81.5376 68.0403 81.371 69.0194 81.0741 69.7413C80.7772 70.4632 80.3744 70.8688 79.9544 70.8689C80.013 81.6303 73.887 90.4365 67.0674 90.4365H62.1594C55.5737 90.4365 49.4232 80.2391 48.99 69.842C48.9162 69.8678 48.8413 69.8808 48.7668 69.881C48.3469 69.881 47.944 69.4755 47.6471 68.7536C47.3502 68.0317 47.1836 67.0526 47.1836 66.0317C47.1836 65.0108 47.3502 64.0317 47.6471 63.3098C47.944 62.5879 48.3469 62.1823 48.7668 62.1822C48.8321 62.1816 48.8966 62.1908 48.9614 62.2097V60.677C48.9614 49.8956 54.4586 41.1968 61.2876 41.1968H67.5576L67.5709 41.1975Z" fill="#DEAA87"/>
<path opacity="0.6" d="M48.5946 66.2957C48.4057 66.2777 48.304 65.6393 48.3671 64.8698C48.4303 64.1003 48.6343 63.4911 48.8232 63.5091C49.0121 63.5272 49.1138 64.1655 49.0507 64.9351C48.9875 65.7046 48.7835 66.3138 48.5946 66.2957Z" fill="black"/>
<path opacity="0.6" d="M80.339 67.5782C80.5279 67.5601 80.6296 66.9218 80.5665 66.1523C80.5033 65.3828 80.2993 64.7736 80.1104 64.7916C79.9215 64.8096 79.8197 65.448 79.8829 66.2175C79.946 66.987 80.1501 67.5962 80.339 67.5782Z" fill="black"/>
<path d="M64.2835 39.4805C72.8807 39.4805 79.3752 47.4789 79.883 57.3801L80.0967 61.6374C79.9873 64.433 80.0967 64.4011 80.0967 66.7812C80.0967 69.1614 80.098 69.2132 80.0433 71.3227L79.6332 74.776C79.3909 76.8164 78.4531 80.3649 77.2202 82.6966C76.1767 84.6693 74.746 86.4421 72.7833 88.2039C70.0698 90.37 69.2874 90.8182 66.9197 90.7662L62.0479 90.6588C60.3814 90.5619 57.1631 89.0477 55.2954 86.7378C53.3292 84.3115 53.9835 85.15 52.89 83.458C51.3176 81.0248 48.7412 76.2519 48.7412 72.0416V71.7614C48.7959 68.9381 48.7946 68.942 48.7946 66.6438C48.7946 64.3458 48.7959 64.3453 48.7412 62.3368V57.3798C48.7412 47.4635 55.6616 39.4802 64.2587 39.4802L64.2835 39.4805ZM66.7957 50.3099L61.7923 50.5939L55.4728 50.4755L53.3383 52.3246L53.014 55.2794L52.2815 58.2553L50.2252 60.4205L49.7293 63.5037L49.7999 73.0744L50.3397 76.3416L52.003 79.8251L54.7727 84.3358L57.4508 87.3222L60.2205 89.0052L62.1586 89.1567C62.7949 88.9055 64.1762 85.6227 64.2148 84.179L64.8519 84.1634C65.0942 85.0097 65.1165 88.3053 66.1662 89.1541L69.0504 89.0565L71.2058 87.3932L74.8949 84.3131L76.2626 82.1193L77.5826 79.1189L78.4944 76.1882L79.0914 72.7234L78.998 63.163L77.7371 59.2541L76.3542 57.2648C76.1862 56.1426 76.2423 55.3915 76.2149 54.5549C76.2149 54.0305 76.1598 52.8697 75.9879 52.342C75.8278 51.8958 75.41 51.8586 75.41 51.8586C74.9357 51.6543 75.0597 51.4085 74.5573 51.2242C74.2721 51.1203 73.9887 51.0285 73.7046 50.9476C71.6541 50.3655 69.5487 50.3475 66.7938 50.3117L66.7957 50.3099Z" fill="#333333"/>
<path d="M69.4395 68.5724C68.8069 68.5724 68.295 67.9977 68.295 67.2888C68.295 66.5798 68.8069 66.0051 69.4395 66.0051C70.0722 66.0051 70.5859 66.5798 70.5859 67.2888C70.5859 67.9977 70.0722 68.5724 69.4395 68.5724Z" fill="black"/>
<path d="M60.2344 68.4242C59.6018 68.4242 59.088 67.8495 59.088 67.1406C59.088 66.4316 59.6018 65.8569 60.2344 65.8569C60.8671 65.8569 61.3789 66.4316 61.3789 67.1406C61.3789 67.8495 60.8671 68.4242 60.2344 68.4242Z" fill="black"/>
<path d="M63.1353 76.124H66.7958C66.8844 76.124 66.9561 76.1958 66.9561 76.2844V76.534C66.9561 76.6226 66.8844 76.6942 66.7958 76.6942H63.1353C63.0468 76.6942 62.9751 76.6226 62.9751 76.534V76.2844C62.9751 76.1958 63.0468 76.124 63.1353 76.124Z" fill="black"/>
<path d="M66.3584 62.6577H71.7777C71.965 62.6577 72.1172 62.8096 72.1172 62.997V63.5253C72.1172 63.7127 71.965 63.8646 71.7777 63.8646H66.3584C66.1711 63.8646 66.0189 63.7127 66.0189 63.5253V62.997C66.0189 62.8096 66.1711 62.6577 66.3584 62.6577Z" fill="black"/>
<path d="M57.6024 62.5107H63.0025C63.1951 62.5107 63.3516 62.6669 63.3516 62.8595V63.4024C63.3516 63.595 63.1951 63.7511 63.0025 63.7511H57.6024C57.4098 63.7511 57.2533 63.595 57.2533 63.4024V62.8595C57.2533 62.6669 57.4098 62.5107 57.6024 62.5107Z" fill="black"/>
<path d="M70.4062 79.3354C70.4042 80.5417 69.8279 81.6981 68.8041 82.5504C67.7802 83.4028 66.3924 83.8816 64.9455 83.8815C63.4986 83.8815 62.1108 83.4028 61.0869 82.5504C60.0631 81.6981 59.4868 80.5417 59.4848 79.3354H70.4062Z" fill="#F2F2F2"/>
<path d="M70.0305 79.4563C70.0286 80.5235 69.4855 81.5465 68.5207 82.3006C67.5558 83.0547 66.2479 83.4782 64.8843 83.4782C63.5207 83.4782 62.2129 83.0547 61.248 82.3006C60.2831 81.5465 59.7401 80.5235 59.7381 79.4563H70.0305Z" fill="white"/>
<path d="M69.94 78.7502C69.8853 78.7229 69.9411 78.6092 69.9419 78.5924C70.1802 78.2853 70.6567 78.4264 71.0063 78.7257C71.4001 79.0644 71.3221 79.5672 71.115 79.9864C71.115 80.0177 70.8423 80.4074 70.7602 80.2345C70.7055 80.1548 70.928 79.5611 70.9319 79.5137C70.9866 79.1219 70.991 79.2891 70.8308 78.9337C70.5456 78.7278 70.383 78.7013 70.0716 78.7501L69.94 78.7502Z" fill="#808080"/>
<path d="M59.828 78.8588C59.8826 78.8314 59.8826 78.7224 59.828 78.7056C59.5897 78.3985 59.1361 78.4939 58.7865 78.7924C58.3931 79.1307 58.3884 79.5578 58.5919 79.977C58.5919 80.0083 58.8221 80.1404 58.8494 80.1205C58.9158 80.0666 58.7944 79.7419 58.7826 79.6952C58.7084 79.2969 58.7089 79.3011 59.0058 79.0463C59.2754 78.8166 59.3602 78.8229 59.6715 78.8718L59.828 78.8588Z" fill="#808080"/>
<path d="M68.3033 37.7827V37.7831C74.8905 37.7834 80.268 45.2127 81.4497 55.0501H48.3203C49.4556 45.212 54.9032 37.7827 61.4916 37.7827H68.3033Z" fill="#0044AA"/>
<path d="M63.3626 35.3418H66.1666C66.8803 35.3418 67.458 35.9204 67.458 36.634V38.3722C67.458 39.0858 66.8803 39.6644 66.1666 39.6644H63.3626C62.649 39.6644 62.0712 39.0858 62.0712 38.3722V36.634C62.0712 35.9204 62.649 35.3418 63.3626 35.3418Z" fill="#0044AA"/>
<path d="M54.5181 37.5889H56.5305C57.1211 37.5889 57.6006 38.0676 57.6006 38.6583V44.1036C57.6006 44.6942 57.1211 45.173 56.5305 45.173H54.5181C53.9274 45.173 53.4499 44.6942 53.4499 44.1036V38.6583C53.4499 38.0676 53.9274 37.5889 54.5181 37.5889Z" fill="#0044AA"/>
<path d="M72.8892 37.5005H75.3995C75.8528 37.5005 76.2197 37.868 76.2197 38.3213V44.2639C76.2197 44.7172 75.8528 45.0847 75.3995 45.0847H72.8892C72.4359 45.0847 72.0671 44.7172 72.0671 44.2639V38.3213C72.0671 37.868 72.4359 37.5005 72.8892 37.5005Z" fill="#0044AA"/>
<path opacity="0.61" d="M81.6811 54.9432L73.8833 51.0852H56.5899L48.5078 54.9909L81.6811 54.9432Z" fill="#002255"/>
<path opacity="0.65" d="M49.6646 61.6968L52.667 63.4626V63.4651C53.4038 63.1112 54.555 63.0458 55.8563 63.0468C56.6021 63.0474 57.3966 63.0703 58.1892 63.0703C60.28 63.0703 62.0198 63.5301 62.9637 64.4282C62.9637 64.4282 63.7494 64.8949 64.1787 64.9987C64.3897 65.0526 64.6162 65.0526 64.8311 65.0221C65.2679 64.9538 66.1015 64.5779 66.1015 64.5779C67.5208 63.6091 69.287 63.1517 70.9465 63.1368C71.7388 63.1368 72.534 63.1133 73.2794 63.1133C74.5545 63.1125 75.6865 63.1742 76.4249 63.51L78.9733 63.1354V63.5968L77.2966 64.8748C77.2419 66.9062 75.2029 69.3438 72.1464 70.164C70.9392 70.4879 69.286 70.2886 68.3352 70.0745C67.3601 69.8546 66.632 69.1178 66.1015 68.4366C65.9023 68.1838 65.7076 67.682 65.5674 67.1993C65.4424 66.7633 65.2247 66.5097 64.9208 66.3471C64.6981 66.2264 64.4026 66.2021 64.1787 66.3158C63.8936 66.4615 63.7428 66.6979 63.5912 67.1342C63.474 67.4776 63.138 68.189 62.9923 68.3723C62.4641 69.0535 61.7337 69.7905 60.7586 70.0103C59.8077 70.2243 58.1549 70.4237 56.9474 70.0998C54.4257 69.4229 52.5811 67.6447 51.9955 65.9021L49.6455 62.654L49.6646 61.6968Z" fill="white"/>
<path d="M108.924 145.097L112.003 166.26L109.789 200.035C109.789 200.035 110.028 199.987 101.403 199.979L97.6721 169.007L91.5186 150.255L108.924 145.097Z" fill="#002255"/>
<path opacity="0.999" d="M85.434 102.339L80.959 99.0073L81.5427 210.161L86.7158 209.209L85.434 102.339Z" fill="#999999"/>
<path d="M20.8717 156.306C20.8717 156.306 14.4719 164.737 15.7329 167.873C16.272 169.211 18.0268 170.894 20.7754 172.005C24.4745 173.5 29.3967 174.227 30.1202 174.227C31.3809 174.227 44.3301 171.197 44.3301 171.197C42.9777 169.224 43.5542 172.641 43.571 161.235H33.4822L28.0182 157.202L20.8717 156.306Z" fill="#002255"/>
<path opacity="0.2" d="M226.809 61.3677L203.199 154.94L188.044 184.632L176.582 215.471L167.746 229.299L168.233 237.413H174.884L175.458 230.137L189.17 226.155L196.774 215.668L199.704 199.582L202.6 197.376L224.836 93.5946L231.867 65.9666L226.809 61.3677Z" fill="black"/>
<path opacity="0.15" d="M72.2758 380.856C108.239 380.856 137.391 373.36 137.391 364.113C137.391 354.866 108.239 347.37 72.2758 347.37C36.3131 347.37 7.16016 354.866 7.16016 364.113C7.16016 373.36 36.3131 380.856 72.2758 380.856Z" fill="black"/>
<path d="M561.848 357.477H529.794C529.454 357.477 529.178 357.752 529.178 358.092C529.178 358.432 529.454 358.708 529.794 358.708H561.848C562.188 358.708 562.465 358.432 562.465 358.092C562.465 357.752 562.188 357.477 561.848 357.477Z" fill="#C83737"/>
<path d="M556.231 361.178H529.794C529.454 361.178 529.178 361.454 529.178 361.794C529.178 362.134 529.454 362.409 529.794 362.409H556.231C556.571 362.409 556.845 362.134 556.845 361.794C556.845 361.454 556.571 361.178 556.231 361.178Z" fill="#8080FF"/>
<path d="M561.561 389.066H529.507C529.167 389.066 528.891 389.342 528.891 389.682C528.891 390.022 529.167 390.298 529.507 390.298H561.561C561.901 390.298 562.177 390.022 562.177 389.682C562.177 389.342 561.901 389.066 561.561 389.066Z" fill="#5FD3BC"/>
<path d="M555.943 392.768H529.507C529.167 392.768 528.891 393.043 528.891 393.383C528.891 393.723 529.167 393.999 529.507 393.999H555.943C556.283 393.999 556.56 393.723 556.56 393.383C556.56 393.043 556.283 392.768 555.943 392.768Z" fill="#8080FF"/>
<path d="M633.189 344.933H576.14C575.686 344.933 575.318 345.63 575.318 346.49V407.021C575.318 407.881 575.686 408.578 576.14 408.578H633.189C633.642 408.578 634.012 407.881 634.012 407.021V346.49C634.012 345.63 633.642 344.933 633.189 344.933Z" fill="#373E48"/>
<path d="M620.427 370.778H588.373C588.033 370.778 587.757 371.054 587.757 371.394C587.757 371.734 588.033 372.01 588.373 372.01H620.427C620.767 372.01 621.044 371.734 621.044 371.394C621.044 371.054 620.767 370.778 620.427 370.778Z" fill="#AA87DE"/>
<path d="M614.81 374.479H588.373C588.033 374.479 587.757 374.755 587.757 375.095C587.757 375.435 588.033 375.711 588.373 375.711H614.81C615.15 375.711 615.424 375.435 615.424 375.095C615.424 374.755 615.15 374.479 614.81 374.479Z" fill="#80FFE6"/>
<path d="M619.83 362.005H587.776C587.436 362.005 587.159 362.281 587.159 362.621C587.159 362.961 587.436 363.236 587.776 363.236H619.83C620.17 363.236 620.446 362.961 620.446 362.621C620.446 362.281 620.17 362.005 619.83 362.005Z" fill="#ABC837"/>
<path d="M619.83 365.703H587.776C587.436 365.703 587.159 365.978 587.159 366.318C587.159 366.658 587.436 366.934 587.776 366.934H619.83C620.17 366.934 620.446 366.658 620.446 366.318C620.446 365.978 620.17 365.703 619.83 365.703Z" fill="#55FFDD"/>
<path d="M619.83 379.266H587.776C587.436 379.266 587.159 379.541 587.159 379.881C587.159 380.221 587.436 380.497 587.776 380.497H619.83C620.17 380.497 620.446 380.221 620.446 379.881C620.446 379.541 620.17 379.266 619.83 379.266Z" fill="#D35FBC"/>
<path d="M620.114 382.963H587.713C587.407 382.963 587.159 383.211 587.159 383.516V383.642C587.159 383.947 587.407 384.195 587.713 384.195H620.114C620.419 384.195 620.667 383.947 620.667 383.642V383.516C620.667 383.211 620.419 382.963 620.114 382.963Z" fill="#E0E0E0"/>
<path d="M620.223 355.359H588.169C587.829 355.359 587.553 355.635 587.553 355.975C587.553 356.315 587.829 356.591 588.169 356.591H620.223C620.563 356.591 620.84 356.315 620.84 355.975C620.84 355.635 620.563 355.359 620.223 355.359Z" fill="#C83737"/>
<path d="M614.606 359.061H588.169C587.829 359.061 587.553 359.336 587.553 359.676C587.553 360.017 587.829 360.292 588.169 360.292H614.606C614.946 360.292 615.22 360.017 615.22 359.676C615.22 359.336 614.946 359.061 614.606 359.061Z" fill="#8080FF"/>
<path d="M619.935 386.949H587.881C587.541 386.949 587.265 387.225 587.265 387.565C587.265 387.905 587.541 388.181 587.881 388.181H619.935C620.275 388.181 620.551 387.905 620.551 387.565C620.551 387.225 620.275 386.949 619.935 386.949Z" fill="#5FD3BC"/>
<path d="M614.317 390.65H587.881C587.541 390.65 587.265 390.926 587.265 391.266C587.265 391.606 587.541 391.882 587.881 391.882H614.317C614.657 391.882 614.934 391.606 614.934 391.266C614.934 390.926 614.657 390.65 614.317 390.65Z" fill="#8080FF"/>
<path opacity="0.15" d="M653.648 330.82H489.143C487.869 330.82 486.836 331.823 486.836 333.06V422.034C486.836 423.271 487.869 424.273 489.143 424.273H653.648C654.922 424.273 655.953 423.271 655.953 422.034V333.06C655.953 331.823 654.922 330.82 653.648 330.82Z" fill="black"/>
</g>
<defs>
<linearGradient id="paint0_linear" x1="568.902" y1="482.838" x2="568.902" y2="319.677" gradientUnits="userSpaceOnUse">
<stop stop-color="#808080" stop-opacity="0.25"/>
<stop offset="0.54" stop-color="#808080" stop-opacity="0.12"/>
<stop offset="1" stop-color="#808080" stop-opacity="0.1"/>
</linearGradient>
<linearGradient id="paint1_linear" x1="66268.7" y1="17252.6" x2="66268.7" y2="4989.47" gradientUnits="userSpaceOnUse">
<stop stop-color="#808080" stop-opacity="0.25"/>
<stop offset="0.54" stop-color="#808080" stop-opacity="0.12"/>
<stop offset="1" stop-color="#808080" stop-opacity="0.1"/>
</linearGradient>
<linearGradient id="paint2_linear" x1="8521.51" y1="50699.6" x2="18692.4" y2="50699.6" gradientUnits="userSpaceOnUse">
<stop stop-color="#808080" stop-opacity="0.25"/>
<stop offset="0.54" stop-color="#808080" stop-opacity="0.12"/>
<stop offset="1" stop-color="#808080" stop-opacity="0.1"/>
</linearGradient>
<clipPath id="clip0">
<rect width="738.037" height="494.299" fill="white"/>
</clipPath>
</defs>
</svg>
