<svg width="626" height="587" viewBox="0 0 626 587" fill="none" xmlns="http://www.w3.org/2000/svg">
<g clip-path="url(#clip0)">
<path opacity="0.09" d="M25.6871 585.14L193.099 490.589L435.573 544.452L625.115 586.554L25.6871 585.14Z" fill="#1C2224"/>
<path d="M333.489 516.62C333.489 516.62 333.22 516.77 332.76 517C333.008 516.874 333.251 516.747 333.489 516.62Z" fill="url(#paint0_linear)"/>
<path d="M275.585 353.968C288.421 360.659 304.735 432.335 304.735 432.335C303.399 449.708 305.003 476.459 310.351 490.901C313.593 500.075 314.957 509.807 314.362 519.511C316.231 521.086 318.929 521.846 321.737 521.398C329.374 520.163 338.43 513.091 338.43 513.091C338.43 513.091 335.488 434.996 333.347 432.064C331.209 429.119 333.347 412.275 333.347 412.275L329.874 384.995C329.874 384.995 330.407 338.726 325.324 330.705C320.94 323.783 319.929 311.608 319.732 308.405C319.705 307.903 319.691 307.618 319.691 307.618L311.954 298.348C303.744 310.355 301.614 303.163 294.095 314.824C290.786 319.955 287.041 320.115 284.023 326.027C281.482 331.002 275.585 353.968 275.585 353.968Z" fill="#0B1728"/>
<path opacity="0.1" d="M304.739 432.322C303.403 449.708 305.007 476.446 310.355 490.887C313.598 500.058 314.962 509.788 314.366 519.498C316.235 521.086 318.835 521.357 321.642 520.896C320.029 509.617 313.155 461.028 308.751 422.631C303.736 378.914 280.27 348.824 280.27 348.824L275.589 353.968C288.425 360.659 304.739 432.322 304.739 432.322Z" fill="black"/>
<path d="M311.183 539.694C314.797 547.487 319.46 549.016 322.2 549.392C322.2 549.392 339.547 551.969 342.708 539.907C344.693 538.152 342.542 528.553 340.1 521.457C338.152 515.795 338.43 513.092 338.43 513.092C338.43 513.092 338.063 488.431 337.064 493.498C337.064 493.498 314.846 499.423 311.373 493.003C311.373 493.003 314.655 516.684 314.362 519.511C314.362 519.511 310.407 547.463 311.18 539.721L311.183 539.694Z" fill="black"/>
<path d="M347.536 168.552L341.788 183.669L340.948 214.523L361.848 217.898C361.848 217.898 399.026 208.615 387.085 196.387C385.63 194.96 384.492 193.241 383.734 191.351C382.295 187.524 382.827 178.826 384.689 175.851L387.152 170.999L371.552 161.661C370.348 166.194 371.552 161.661 371.552 161.661C366.817 169.635 355.089 168.558 351.533 168.893C350.193 169.044 348.833 168.929 347.536 168.552Z" fill="#DEAA87"/>
<path opacity="0.1" d="M347.536 168.553L341.788 183.669L340.948 214.523L361.848 217.898C361.848 217.898 399.026 208.616 387.085 196.387C385.629 194.96 384.488 193.245 383.734 191.351C381.864 199.932 362.206 207.821 362.206 207.821C359.856 208.839 357.769 205.95 357.769 205.95C351.666 200.663 351.516 173.4 351.533 168.893C350.191 169.044 348.833 168.929 347.536 168.553Z" fill="black"/>
<path d="M357.949 200.231C357.949 200.231 364.892 194.398 367.391 193.189C373.783 190.098 381.56 194.224 383.448 190.473L398.174 211.199C398.174 211.199 409.695 216.837 402.721 237.423C401.529 240.838 399.124 248.669 397.792 252.091C396.66 254.688 396.638 255.102 393.783 263.076C389.404 275.302 377.117 297.822 365.668 293.704C354.218 289.585 351.351 286.218 351.351 286.218C351.351 286.218 326.875 327.881 329.711 336.237C332.545 344.592 312.666 330.45 312.666 330.45C312.666 330.45 309.114 326.316 299.118 321.879C298.141 321.446 299.592 282.827 298.42 282.09C299.428 280.276 298.777 237.341 298.777 237.341C307.025 227.262 301.491 232.714 301.491 232.714L299.887 186.42C299.887 186.42 305.992 166.339 325.267 166.974C344.541 167.609 351.118 168.916 351.118 168.916C351.118 168.916 352.638 186.235 359.291 192.012L357.949 200.231Z" fill="#162D50"/>
<path d="M314.897 261.831C314.897 261.831 343.339 271.386 348.879 267.71C354.419 264.033 368.006 256.554 368.006 256.554L367.62 251.411L349.694 253.23C349.694 253.23 328.22 255.579 320.819 252.467C313.426 249.345 314.897 261.831 314.897 261.831L314.897 261.831Z" fill="#DEAA87"/>
<path d="M312.685 223.657L304.228 237.029L306.375 238.387C316.99 245.098 325.721 254.4 331.746 265.418L334.362 270.195L335.058 271.491L351.825 260.285L349.023 250.397C349.023 250.397 348.907 250.324 348.692 250.188C347.009 249.346 339.808 245.584 337.523 242.776C335.362 240.094 333.816 234.963 324.384 231.914C319.744 230.406 313.502 232.719 310.505 228.874L312.685 223.657Z" fill="#DEAA87"/>
<path d="M349.791 168.647C349.791 168.647 324.58 165.732 325.227 166.965L327.279 172.02L301.451 232.705L299.428 280.276L351.19 195.207C347.004 187.946 349.795 168.65 349.795 168.65L349.791 168.647Z" fill="#2C5AA0"/>
<path d="M385.728 193.642C382.18 194.711 379.371 196.517 369.569 198.687L298.732 321.504C307.94 326.234 312.635 331.318 312.635 331.318C312.635 331.318 332.722 345.909 329.915 337.508C327.079 329.152 351.205 285.604 351.205 285.604L351.056 283.845C351.056 283.845 341.721 268.447 354.685 269.275C357.216 269.449 349.825 254.852 349.825 254.852C351.157 251.43 367.035 253.816 368.219 250.412C375.193 229.826 397.853 210.49 397.853 210.49L385.728 193.642Z" fill="#2C5AA0"/>
<path opacity="0.999" d="M338.933 167.549L345.748 168.087C345.748 168.087 340.839 197.61 339.213 200.049L298.54 266.548L298.395 250.876L338.607 186.353L338.933 167.549Z" fill="#B3B3B3"/>
<path opacity="0.999" d="M392.165 202.627L388.221 196.788L375.187 206.076L329.526 276.52L302.579 325.021L308.931 329.038L335.423 282.405L381.447 210.907L392.165 202.627Z" fill="#B3B3B3"/>
<path d="M358.73 166.427L350.065 167.752L351.19 195.207L359.855 193.881L358.73 166.427Z" fill="#162D50"/>
<path d="M363.032 193.522L364.468 203.101L386.277 194.608L384.448 186.588L363.032 193.522Z" fill="#162D50"/>
<path d="M339.939 244.096C339.939 244.096 332.132 261.239 324.12 265.017C324.12 265.017 340.831 279.707 352.724 286.278L367.545 263.236L339.939 244.096Z" fill="#162D50"/>
<path d="M388.068 116.21C396.896 117.201 402.641 129.233 401.176 143.185L400.839 146.413C400.864 146.415 400.889 146.418 400.913 146.422C401.182 146.452 401.434 146.61 401.655 146.888C401.875 147.166 402.06 147.559 402.198 148.043C402.336 148.526 402.426 149.092 402.461 149.708C402.495 150.324 402.476 150.978 402.402 151.632C402.253 152.95 401.895 154.19 401.406 155.078C400.918 155.967 400.339 156.431 399.796 156.37C398.308 170.294 389.111 180.787 380.295 179.797L373.95 179.085C365.435 178.129 358.965 164.05 359.912 150.553C359.815 150.559 359.718 150.548 359.624 150.521C359.355 150.491 359.103 150.333 358.883 150.054C358.662 149.776 358.478 149.384 358.34 148.9C358.201 148.416 358.112 147.85 358.077 147.234C358.042 146.618 358.062 145.965 358.136 145.311C358.209 144.657 358.334 144.015 358.505 143.422C358.676 142.829 358.888 142.297 359.13 141.856C359.372 141.415 359.639 141.073 359.916 140.851C360.193 140.629 360.474 140.53 360.743 140.56C360.827 140.557 360.91 140.567 360.992 140.588L361.215 138.599C362.77 124.657 371.151 114.21 379.98 115.202L388.086 116.112L388.068 116.21Z" fill="#DEAA87"/>
<path opacity="0.6" d="M359.898 145.915C359.656 145.864 359.617 145.024 359.811 144.038C360.004 143.053 360.356 142.295 360.598 142.345C360.84 142.396 360.879 143.236 360.685 144.222C360.492 145.208 360.14 145.966 359.898 145.915Z" fill="black"/>
<path opacity="0.6" d="M400.75 152.157C400.997 152.161 401.221 151.35 401.251 150.346C401.281 149.342 401.106 148.525 400.859 148.521C400.612 148.517 400.388 149.328 400.358 150.331C400.327 151.335 400.503 152.153 400.75 152.157Z" fill="black"/>
<path d="M384.069 113.521C395.183 114.768 402.417 126.055 401.637 138.919L401.301 144.463C400.753 148.055 400.911 148.036 400.566 151.113C400.22 154.19 400.213 154.252 399.845 156.976L398.812 161.378C398.201 163.987 396.476 168.436 394.542 171.273C392.908 173.667 390.801 175.746 388.008 177.747C384.185 180.146 383.108 180.614 380.055 180.208L373.773 179.365C371.634 178.988 367.693 176.568 365.613 173.306C363.422 169.894 364.146 171.064 362.979 168.718C361.299 165.351 358.661 158.797 359.271 153.36L359.31 153.001C359.795 149.351 359.769 149.361 360.104 146.383C360.437 143.417 360.437 143.417 360.678 140.816L361.398 134.402C362.837 121.586 372.943 112.271 384.058 113.519L384.069 113.521ZM385.744 127.887L379.235 127.519L371.082 126.454L368.054 128.529L367.208 132.313L365.828 136.051L362.858 138.545L361.766 142.465L360.464 154.845L360.685 159.15L362.331 163.89L365.257 170.125L368.284 174.382L371.623 176.959L374.107 177.426C374.966 177.197 377.225 173.158 377.485 171.298L378.31 171.39C378.505 172.513 378.047 176.779 379.286 178.032L383.027 178.327L386.054 176.489L391.271 173.045L393.36 170.402L395.501 166.713L397.103 163.063L398.379 158.664L399.643 146.291L398.582 141.054L397.083 138.283C397.028 136.812 397.209 135.844 397.296 134.765C397.346 134.083 397.492 132.572 397.327 131.865C397.185 131.261 396.651 131.151 396.651 131.151C396.066 130.823 396.263 130.52 395.639 130.212C395.287 130.035 394.934 129.882 394.578 129.73C392.012 128.678 389.291 128.348 385.733 127.911L385.744 127.887Z" fill="#333333"/>
<path d="M386.51 151.91C385.692 151.818 385.112 151.001 385.215 150.084C385.318 149.168 386.064 148.499 386.882 148.591C387.7 148.683 388.28 149.5 388.177 150.417C388.074 151.333 387.328 152.002 386.51 151.91Z" fill="black"/>
<path d="M374.629 150.381C373.811 150.289 373.232 149.471 373.335 148.555C373.438 147.638 374.184 146.97 375.002 147.062C375.82 147.153 376.399 147.971 376.297 148.887C376.194 149.804 375.447 150.472 374.629 150.381Z" fill="black"/>
<path d="M377.266 160.728L381.997 161.259C382.111 161.272 382.194 161.375 382.181 161.49L382.145 161.813C382.132 161.927 382.029 162.009 381.914 161.997L377.183 161.465C377.068 161.452 376.986 161.349 376.999 161.235L377.035 160.912C377.048 160.798 377.151 160.715 377.266 160.728Z" fill="black"/>
<path d="M383.391 143.779L390.397 144.565C390.64 144.592 390.814 144.811 390.787 145.053L390.71 145.736C390.683 145.978 390.465 146.153 390.222 146.125L383.216 145.339C382.973 145.312 382.799 145.093 382.826 144.851L382.903 144.168C382.93 143.926 383.149 143.751 383.391 143.779Z" fill="black"/>
<path d="M372.085 142.353L379.068 143.137C379.317 143.165 379.496 143.389 379.468 143.638L379.389 144.34C379.361 144.589 379.137 144.768 378.888 144.74L371.905 143.957C371.656 143.929 371.477 143.704 371.505 143.455L371.584 142.753C371.612 142.504 371.836 142.325 372.085 142.353Z" fill="black"/>
<path d="M386.2 165.937C386.023 167.496 385.11 168.907 383.663 169.86C382.215 170.814 380.351 171.231 378.481 171.021C376.61 170.811 374.886 169.991 373.686 168.74C372.486 167.49 371.909 165.911 372.081 164.351L386.2 165.937Z" fill="#F2F2F2"/>
<path d="M385.695 166.038C385.538 167.418 384.687 168.661 383.331 169.496C381.974 170.331 380.221 170.689 378.458 170.491C376.696 170.293 375.066 169.556 373.928 168.441C372.79 167.326 372.237 165.924 372.389 164.544L385.695 166.038Z" fill="white"/>
<path d="M385.683 165.11C385.622 165.103 385.693 164.923 385.706 164.9C386.057 164.539 386.655 164.793 387.064 165.227C387.525 165.73 387.351 166.361 387.024 166.875C387.013 166.873 386.609 167.379 386.525 167.144C386.49 167.015 386.838 166.303 386.849 166.242C386.943 165.739 386.957 165.954 386.804 165.474C386.462 165.16 386.258 165.112 385.85 165.129L385.683 165.11Z" fill="#808080"/>
<path d="M372.595 163.778C372.657 163.785 372.665 163.611 372.655 163.585C372.393 163.155 371.79 163.212 371.295 163.557C370.733 163.945 370.665 164.488 370.872 165.061C370.883 165.063 371.146 165.305 371.182 165.284C371.269 165.294 371.162 164.794 371.157 164.73C371.116 164.2 371.115 164.213 371.539 163.922C371.919 163.665 372.032 163.677 372.425 163.797L372.595 163.778Z" fill="#808080"/>
<path d="M389.51 111.904C398.027 112.86 403.9 123.243 403.999 136.143L361.168 131.335C364.065 118.771 372.186 109.959 380.703 110.915L389.51 111.904Z" fill="#2C5AA0"/>
<path d="M383.479 108.045L387.104 108.452C388.026 108.556 388.69 109.387 388.587 110.31L388.334 112.557C388.231 113.48 387.399 114.144 386.476 114.04L382.852 113.633C381.929 113.53 381.266 112.698 381.369 111.775L381.621 109.528C381.725 108.605 382.557 107.942 383.479 108.045Z" fill="#2C5AA0"/>
<path d="M371.72 109.658L374.322 109.95C375.085 110.036 375.635 110.724 375.549 111.488L374.759 118.528C374.673 119.291 373.985 119.841 373.221 119.755L370.619 119.463C369.855 119.377 369.306 118.689 369.392 117.925L370.182 110.885C370.268 110.122 370.956 109.572 371.72 109.658Z" fill="#2C5AA0"/>
<path d="M395.484 112.208L398.729 112.573C399.315 112.639 399.736 113.167 399.671 113.753L398.808 121.436C398.742 122.022 398.214 122.443 397.628 122.378L394.383 122.013C393.797 121.948 393.375 121.419 393.441 120.833L394.303 113.15C394.369 112.564 394.898 112.143 395.484 112.208Z" fill="#2C5AA0"/>
<path opacity="0.61" d="M404.319 136.029L394.795 129.917L372.439 127.407L361.424 131.276L404.319 136.029Z" fill="#162D50"/>
<path opacity="0.65" d="M361.945 140.12L365.57 142.842L365.581 142.843C366.585 142.493 368.08 142.573 369.762 142.762C370.728 142.87 371.755 142.985 372.779 143.1C375.482 143.404 377.666 144.25 378.755 145.548C378.755 145.548 379.706 146.256 380.247 146.454C380.507 146.608 380.796 146.641 381.088 146.548C381.67 146.489 382.794 146.164 382.794 146.164C384.768 145.122 387.12 144.785 389.268 145.002C390.293 145.117 391.32 145.232 392.284 145.34C393.932 145.525 395.382 145.813 396.293 146.303L399.643 146.191L399.6 146.787L397.245 148.2C396.913 150.828 393.89 153.68 389.821 154.286C388.213 154.531 386.105 154.032 384.909 153.61C383.68 153.184 382.844 152.127 382.258 151.172C382.041 150.81 381.858 150.139 381.751 149.489C381.654 148.915 381.401 148.548 381.038 148.295C380.768 148.102 380.391 148.034 380.079 148.187C379.691 148.331 379.462 148.618 379.199 149.164C378.995 149.58 378.458 150.458 378.247 150.672C377.464 151.472 376.414 152.318 375.121 152.461C373.861 152.607 371.695 152.627 370.181 152.031C367.02 150.788 364.891 148.221 364.386 145.887L361.82 141.344L361.945 140.12Z" fill="white"/>
<path opacity="0.09" d="M0 521.895L86.2336 470.632L308.765 522.678L0 521.895Z" fill="#1C2224"/>
<path d="M214.742 276.906H67.4089C60.4882 276.906 54.8778 282.517 54.8778 289.438V484.47C54.8778 491.39 60.4882 497.001 67.4089 497.001H214.742C221.663 497.001 227.273 491.39 227.273 484.47V289.438C227.273 282.517 221.663 276.906 214.742 276.906Z" fill="#B3B3B3" fill-opacity="0.792157"/>
<path d="M180.714 81.9683C172.357 84.8078 167.907 93.794 170.721 102.138L179.794 129.032C182.608 137.376 191.605 141.836 199.951 139.019L241.505 124.974C247.907 122.83 252.015 117.043 252.31 110.646L265.592 106.196L253.253 69.6314L240.42 73.9722C236.486 68.3041 229.156 65.6496 222.254 67.9995L180.714 81.9683Z" fill="#BCD35F"/>
<path d="M200.973 125.539L239.298 119.621C239.298 119.621 307.958 201.759 333.228 241.925C350.127 268.796 312.635 331.319 312.635 331.319L269.863 389.468L200.973 125.539Z" fill="#BCD35F"/>
<path opacity="0.95" d="M179.36 471.714V482.114L162.506 546.356L179.278 545.954V548.282L282.269 548.695V546.411H296.096L282.269 491.775V471.714L179.36 471.714Z" fill="#0B2228"/>
<path opacity="0.4" d="M228.463 479.047V546.062H215.417L223.381 478.938L228.463 479.047Z" fill="black"/>
<path opacity="0.4" d="M277.674 476.827H274.629V547.291H296.853L277.674 476.827Z" fill="black" stroke="black" stroke-width="0.282533"/>
<path opacity="0.4" d="M183.454 477.915H186.5V548.88H164.276L183.454 477.915Z" fill="black" stroke="black" stroke-width="0.283558"/>
<path d="M176.158 476.729V480.472H178.779L162.776 543.767H159.979V548.923H301.206V543.767H298.322L282.32 480.472H284.844V476.729H176.158ZM182.276 480.472H230.762V543.767H166.278L182.276 480.472ZM236.085 480.472H278.819L294.821 543.767H244.027L236.085 480.472Z" fill="#4D4D4D"/>
<path d="M183.349 422.755H170.697C168.794 422.755 167.252 424.895 167.252 427.535V438.143C167.252 440.783 168.794 442.923 170.697 442.923H183.349C185.251 442.923 186.794 440.783 186.794 438.143V427.535C186.794 424.895 185.251 422.755 183.349 422.755Z" fill="#4D4D4D"/>
<path d="M158.51 378.904H302.603L270.03 472.225L194.024 471.976L158.51 378.904Z" fill="#BCD35F"/>
<path d="M275.75 404.881C299.627 404.881 318.983 384.725 318.983 359.86C318.983 334.995 299.627 314.839 275.75 314.839C251.873 314.839 232.517 334.995 232.517 359.86C232.517 384.725 251.873 404.881 275.75 404.881Z" fill="#373E48"/>
<path d="M431.276 1.35383C426.296 2.92374 421.828 5.80274 418.334 9.69309C414.84 13.5834 412.447 18.3439 411.402 23.482L250.444 74.2659L258.911 101.105L419.608 50.4514C423.416 54.1983 428.163 56.837 433.342 58.0847C438.521 59.3323 443.936 59.1419 449.007 57.5338C452.678 56.3758 456.084 54.5022 459.03 52.0199C461.977 49.5376 464.405 46.4952 466.178 43.0664C467.95 39.6376 469.032 35.8897 469.361 32.0366C469.69 28.1835 469.26 24.3007 468.096 20.6099C465.738 13.1616 460.536 6.94923 453.631 3.33835C446.727 -0.272538 438.686 -0.986341 431.276 1.35383Z" fill="#BCD35F"/>
<path d="M475.137 54.731L465.35 41.4889L442.713 58.2195L452.5 71.4616L475.137 54.731Z" fill="#BCD35F"/>
<path d="M125.455 406.946H84.7454C77.8247 406.946 72.2144 412.557 72.2144 419.477V456.383C72.2144 463.303 77.8247 468.914 84.7454 468.914H125.455C132.376 468.914 137.986 463.303 137.986 456.383V419.477C137.986 412.557 132.376 406.946 125.455 406.946Z" fill="#808080" fill-opacity="0.792157"/>
<path d="M453.598 77.3991C453.598 77.3991 440.282 89.0398 426.152 78.1607C406.651 59.9925 402.662 44.2394 376.382 53.9763C311.955 77.8452 223.551 98.2109 174.814 124.19C159.029 132.295 165.794 153.76 174.377 161.865C189.183 175.855 211.262 163.247 224.546 169.894C234.261 174.757 235.93 188.867 235.93 188.867L252.218 244.22C254.328 256.002 260.684 275.182 255.493 288.912C250.369 302.696 239.038 316.218 225.16 323.138C201.724 334.843 133.531 368.732 131.354 412.814C130.679 426.457 135.879 433.419 149.757 433.093C164.581 432.756 171.419 433.583 171.419 433.583" stroke="#373E48" stroke-width="6.44111"/>
<path d="M450.036 49.8888C461.3 44.3284 465.886 30.6116 460.279 19.2514C454.671 7.89121 440.994 3.18958 429.729 8.75C418.464 14.3104 413.878 28.0273 419.486 39.3875C425.094 50.7477 438.771 55.4493 450.036 49.8888Z" fill="#373E48"/>
<path d="M487.206 56.7886L481.972 49.7074L448.289 74.6016L453.523 81.6827L487.206 56.7886Z" fill="#BCD35F"/>
<path d="M487.947 66.4289L482.713 59.3477L454.943 79.8727L460.176 86.9538L487.947 66.4289Z" fill="#1C2224"/>
<path d="M210.937 317.125H138.105C131.358 317.125 125.887 329.246 125.887 344.197V362.128C125.887 377.079 131.358 389.199 138.105 389.199H210.937C217.684 389.199 223.154 377.079 223.154 362.128V344.197C223.154 329.246 217.684 317.125 210.937 317.125Z" fill="#373E48"/>
<path d="M223.647 150.838C242.533 150.838 257.843 135.833 257.843 117.323C257.843 98.8131 242.533 83.808 223.647 83.808C204.761 83.808 189.451 98.8131 189.451 117.323C189.451 135.833 204.761 150.838 223.647 150.838Z" fill="#373E48"/>
<path d="M237.417 178.984L231.189 180.77C229.579 181.232 228.759 183.304 229.356 185.399L233.412 199.622C234.009 201.717 235.798 203.042 237.407 202.58L243.636 200.795C245.245 200.333 246.065 198.261 245.468 196.165L241.412 181.943C240.815 179.847 239.026 178.523 237.417 178.984Z" fill="#6F917C"/>
<path d="M382.257 55.8855L380.529 49.6411C380.082 48.0275 378.017 47.188 375.917 47.7659L361.657 51.6891C359.556 52.2671 358.215 54.0437 358.662 55.6573L360.389 61.9016C360.836 63.5152 362.901 64.3548 365.002 63.7768L379.261 59.8536C381.362 59.2757 382.703 57.4991 382.257 55.8855Z" fill="#6F917C"/>
<path d="M283.374 87.921L281.646 81.6767C281.2 80.0631 279.135 79.2235 277.034 79.8015L262.774 83.7247C260.674 84.3026 259.333 86.0793 259.779 87.6928L261.507 93.9372C261.953 95.5508 264.018 96.3903 266.119 95.8124L280.379 91.8892C282.479 91.3112 283.82 89.5346 283.374 87.921Z" fill="#6F917C"/>
<path d="M257.58 248.217L251.186 249.265C249.534 249.536 248.478 251.499 248.827 253.65L251.199 268.248C251.548 270.399 253.171 271.922 254.823 271.651L261.217 270.603C262.869 270.332 263.925 268.369 263.576 266.219L261.204 251.62C260.855 249.47 259.232 247.946 257.58 248.217Z" fill="#6F917C"/>
<path d="M170.222 425.679H160.916C159.517 425.679 158.383 427.382 158.383 429.484V437.928C158.383 440.029 159.517 441.733 160.916 441.733H170.222C171.621 441.733 172.755 440.029 172.755 437.928V429.484C172.755 427.382 171.621 425.679 170.222 425.679Z" fill="#4D4D4D"/>
<path opacity="0.15" d="M251.468 134.33L279.179 168.61L308.759 207.002L329.14 235.397C329.14 235.397 334.894 243.208 335.941 247.44C338.101 256.133 338.584 260.854 335.57 275.508C332.492 290.446 325.466 308.712 310.961 333.571C310.18 334.909 312.186 335.485 312.723 336.443C313.554 337.911 314.296 340.055 315.371 342.285C317.827 347.409 318.963 355.111 318.815 360.986C318.657 367.285 318.397 366.828 318.095 367.753C317.885 368.417 318.226 369.243 316.177 375.466C314.795 379.676 310.916 387.564 304.979 392.873C302.501 395.103 300.161 396.931 298.016 398.28C296.882 399.009 295.096 400.129 295.096 400.129C287.866 422.856 281.28 440.523 281.28 440.523L269.948 472.019L223.923 472.432C223.923 472.432 245.336 461.607 255.283 452.784C261.321 447.432 271.795 439.61 277.491 429.525C284.166 417.721 287.062 412.532 286.669 406.472C286.426 402.697 280.241 405.602 280.66 404.34C300.557 343.895 326.25 265.228 326.819 260.136C327.066 257.96 327.17 256.405 325.957 251.803C319.767 228.195 251.468 134.33 251.468 134.33Z" fill="black"/>
<path opacity="0.18" d="M445.156 61.4611L447.612 60.3188C447.612 60.3188 448.839 63.2562 456.551 67.9342C458.738 69.2615 454.924 79.9775 454.924 79.9775L455.261 80.3582L453.298 81.816L448.216 74.7228L452.433 71.3938L445.156 61.4611Z" fill="black"/>
<path opacity="0.26" d="M162.203 389.043C162.203 389.043 192.71 376.054 203.506 365.066C211.94 356.471 212.97 314.619 213.438 317.132L222.294 331.079L222.907 367.633L220.644 378.806L235.463 378.937C235.463 378.937 227.244 382.918 221.726 387.15C216.643 391.067 202.433 395.277 197.368 394.526L163.552 392.253L162.203 389.043Z" fill="black"/>
<path opacity="0.19" d="M228.866 140.444C234.882 137.55 241.571 133.938 244.501 127.944C249.329 118.054 245.033 96.4376 247.327 97.5146L262.166 99.5817L265.118 106.098L253.274 109.449C253.274 109.449 255.315 124.386 252.871 130.914C251.978 133.264 246.32 141.009 246.32 141.009V141.14C246.32 141.14 242.764 146.427 239.119 148.636C233.109 152.248 227.169 153.586 225.199 153.575C225.199 153.575 221.603 153.858 217.863 153.455C215.192 153.194 212.445 152.346 210.903 151.954C208.458 151.323 205.666 150.3 203.647 149.093C201.626 147.863 199.316 144.883 199.316 144.883C199.316 144.883 220.513 144.415 228.851 140.4L228.866 140.444Z" fill="black"/>
<path opacity="0.26" d="M143.023 432.332C143.023 432.332 128.254 433.789 132.549 413.413C135.032 401.62 139.705 387.738 142.254 387.52L144.341 388.956C144.341 388.956 140.979 394.298 139.751 397.203C137.659 402.164 135.456 407.288 135.094 412.662C134.816 416.818 135.259 421.246 137.067 424.988C139.397 429.818 146.317 430.95 151.756 430.656C153.663 430.526 158.283 430.395 158.283 430.395L158.572 427.566L159.524 426.196L160.558 425.652H167.429C167.429 425.652 168.237 424.085 168.994 423.356C169.986 422.399 175.202 422.932 175.202 422.932L179.945 435.661C179.945 435.661 174.725 434.322 171.447 433.789C163.536 432.419 146.751 433.354 146.751 433.354L143.023 432.332Z" fill="black"/>
<path d="M483.818 69.3594L490.38 87.6581L505.52 108.785L498.799 113.757C497.468 110.798 483.308 92.0751 483.308 92.0751L466.045 81.9684L483.818 69.3594Z" fill="#373E48"/>
<path d="M84.6128 320.271C92.4139 320.271 98.738 313.901 98.738 306.042C98.738 298.184 92.4139 291.813 84.6128 291.813C76.8117 291.813 70.4876 298.184 70.4876 306.042C70.4876 313.901 76.8117 320.271 84.6128 320.271Z" fill="#D40000" fill-opacity="0.792157"/>
<path d="M113.94 309.759C117.52 309.759 120.422 306.847 120.422 303.254C120.422 299.662 117.52 296.75 113.94 296.75C110.36 296.75 107.458 299.662 107.458 303.254C107.458 306.847 110.36 309.759 113.94 309.759Z" fill="#37C871" fill-opacity="0.792157"/>
<path d="M208.899 291.899H132.26V304.359H208.899V291.899Z" fill="#999999" fill-opacity="0.792157"/>
</g>
<defs>
<linearGradient id="paint0_linear" x1="333.125" y1="517.004" x2="333.125" y2="516.62" gradientUnits="userSpaceOnUse">
<stop stop-color="#808080" stop-opacity="0.25"/>
<stop offset="0.53514" stop-color="#808080" stop-opacity="0.12"/>
<stop offset="1" stop-color="#808080" stop-opacity="0.1"/>
</linearGradient>
<clipPath id="clip0">
<rect width="625.115" height="586.554" fill="white"/>
</clipPath>
</defs>
</svg>
