<svg width="414" height="484" viewBox="0 0 414 484" fill="none" xmlns="http://www.w3.org/2000/svg">
<g clip-path="url(#clip0)">
<path d="M31.3509 364.584L24.9554 388.455L18.1536 441.565L14.7399 483.197L0.218262 483.203L0.356004 456.781L0.457328 343.939L31.3509 364.584Z" fill="#0B1728"/>
<path d="M55.9602 174.941L49.4143 192.155L48.4579 227.29L72.2582 231.133C72.2582 231.133 114.595 220.563 100.996 206.637C99.34 205.012 98.0435 203.055 97.1808 200.903C95.5418 196.545 96.1478 186.639 98.2688 183.252L101.073 177.727L83.3081 167.093C81.937 172.255 83.3081 167.093 83.3081 167.093C77.9167 176.174 64.5608 174.947 60.5112 175.328C58.9854 175.5 57.4366 175.369 55.9602 174.941Z" fill="#DEAA87"/>
<path opacity="0.1" d="M55.9602 174.941L49.4143 192.154L48.4579 227.29L72.2582 231.133C72.2582 231.133 114.595 220.563 100.996 206.637C99.339 205.012 98.0394 203.059 97.1808 200.903C95.0509 210.675 72.6657 219.658 72.6657 219.658C69.9899 220.818 67.6126 217.527 67.6126 217.527C60.6635 211.507 60.4925 180.461 60.5112 175.328C58.9835 175.501 57.4367 175.369 55.9602 174.941Z" fill="black"/>
<path d="M67.8182 211.014C67.8182 211.014 75.7248 204.372 78.5705 202.995C85.8488 199.476 94.7054 204.175 96.855 199.903L113.624 223.505C113.624 223.505 126.744 229.925 118.802 253.368C117.445 257.257 114.706 266.175 113.189 270.071C111.9 273.028 111.876 273.5 108.624 282.581C103.638 296.503 89.6459 322.148 76.6084 317.458C63.5696 312.768 60.3048 308.934 60.3048 308.934C60.3048 308.934 32.4321 356.378 35.6613 365.893C38.8893 375.407 16.2516 359.303 16.2516 359.303C16.2516 359.303 12.2069 354.595 0.823466 349.543C-0.28936 349.05 1.36359 305.072 0.028971 304.233C1.1762 302.167 0.435168 253.274 0.435168 253.274C9.82813 241.796 3.52579 248.005 3.52579 248.005L1.69914 195.288C1.69914 195.288 8.6516 172.421 30.6004 173.144C52.5493 173.866 60.0395 175.355 60.0395 175.355C60.0395 175.355 61.7698 195.077 69.3456 201.656L67.8182 211.014Z" fill="#162D50"/>
<path d="M18.7917 281.162C18.7917 281.162 51.1802 292.044 57.4889 287.857C63.7976 283.67 79.271 275.153 79.271 275.153L78.8304 269.297L58.4173 271.368C58.4173 271.368 33.9639 274.043 25.5354 270.5C17.1165 266.944 18.7916 281.162 18.7916 281.162L18.7917 281.162Z" fill="#DEAA87"/>
<path d="M16.2725 237.692L6.64223 252.919L9.08794 254.466C21.1749 262.108 31.1175 272.701 37.979 285.247L40.9574 290.687L41.751 292.163L60.844 279.402L57.6532 268.142C57.6532 268.142 57.5217 268.058 57.2761 267.904C55.3596 266.945 47.1592 262.661 44.5572 259.463C42.0972 256.409 40.336 250.566 29.5951 247.094C24.3112 245.377 17.2029 248.011 13.79 243.632L16.2725 237.692Z" fill="#DEAA87"/>
<path d="M58.5276 175.048C58.5276 175.048 29.8186 171.728 30.5549 173.133L32.8925 178.889L3.48026 247.995L1.17626 302.167L60.1214 205.294C55.3542 197.026 58.5329 175.052 58.5329 175.052L58.5276 175.048Z" fill="#2C5AA0"/>
<path d="M99.4512 203.512C95.4106 204.729 92.2127 206.786 81.0506 209.257L0.384415 349.116C10.8697 354.502 16.2157 360.292 16.2157 360.292C16.2157 360.292 39.0899 376.907 35.8933 367.34C32.6641 357.825 60.1385 308.234 60.1385 308.234L59.9684 306.231C59.9684 306.231 49.3386 288.696 64.1012 289.639C66.9831 289.838 58.5668 273.215 58.5668 273.215C60.0834 269.319 78.1645 272.036 79.5131 268.159C87.4552 244.717 113.259 222.697 113.259 222.697L99.4512 203.512Z" fill="#2C5AA0"/>
<path opacity="0.999" d="M46.1628 173.798L53.9236 174.411C53.9236 174.411 48.3334 208.031 46.4822 210.807L0.16552 286.534L1.71174e-05 268.688L45.792 195.212L46.1628 173.798Z" fill="#B3B3B3"/>
<path opacity="0.999" d="M106.781 213.744L102.29 207.095L87.4474 217.671L35.4505 297.89L4.76452 353.121L11.9977 357.695L42.1665 304.592L94.5763 223.172L106.781 213.744Z" fill="#B3B3B3"/>
<path d="M68.7069 172.52L58.8405 174.03L60.1214 205.294L69.9879 203.784L68.7069 172.52Z" fill="#162D50"/>
<path d="M73.6062 203.376L75.2416 214.283L100.077 204.612L97.9942 195.479L73.6062 203.376Z" fill="#162D50"/>
<path d="M47.3083 260.967C47.3083 260.967 38.4182 280.489 29.2948 284.791C29.2948 284.791 48.3245 301.519 61.8682 309.002L78.7451 282.763L47.3083 260.967Z" fill="#162D50"/>
<path d="M52.8034 30.4564C86.3719 12.4144 65.8082 25.9808 84.9219 19.8678C84.9219 19.8678 88.9525 14.0404 97.8882 14.6891C111.921 15.7078 106.561 43.8193 106.561 43.8193C86.8883 67.548 0.528931 330.186 0.528931 330.186L1.51366 119.265C1.51366 119.265 35.6354 48.1281 52.8034 30.4564Z" fill="#BCD35F"/>
<path d="M221.486 70.2404L100.611 31.4366L90.1562 62.7128L209.742 103.731L221.486 70.2404Z" fill="#BCD35F"/>
<path d="M93.3704 10.7316C93.3704 10.7316 87.9739 7.8699 78.4646 4.82148C72.4241 2.88508 63.2145 4.79296 57.0238 6.31111C44.0377 9.49602 43.4784 16.0268 34.968 22.8187C32.6291 24.6854 19.9213 31.9549 18.2436 45.923C16.9564 56.6413 18.0017 62.435 27.9661 76.9804C36.8436 89.9392 49.5035 112.164 39.4345 132.365C36.0763 139.103 2.60681 205.623 2.60681 205.623" stroke="#373E48" stroke-width="4.96674"/>
<path d="M30.5677 144.456L35.3961 146.784C36.6476 147.388 37.0211 149.184 36.2334 150.811L30.9032 161.825C30.1155 163.453 28.4738 164.277 27.2223 163.674L22.394 161.346C21.1424 160.742 20.769 158.946 21.5567 157.319L26.8868 146.305C27.6745 144.677 29.3162 143.853 30.5677 144.456Z" fill="#6F917C"/>
<path opacity="0.15" d="M93.7696 68.0073L84.4453 90.8199L64.539 143.214L36.5126 223.525L21.1009 268.753C21.1009 268.753 2.09087 328.646 0.528925 330.186L0 268.688C4.35811 264.329 17.877 237.95 26.5962 221.128C32.1052 210.5 40.1242 185.962 51.3649 133.827C55.8757 112.906 51.4852 88.8693 53.2531 86.8438C56.1728 81.9881 73.0219 74.2403 67.7289 86.1L93.7696 68.0073Z" fill="black"/>
<path d="M57.811 0.952532C49.644 -1.87698 40.8024 2.39414 37.961 10.5359L28.8056 36.7777C25.9646 44.9197 30.2374 53.7765 38.3821 56.6156L56.9339 78.7279C63.1713 80.9205 91.8381 70.9298 95.9118 66.1624L108.854 70.7082L121.299 35.0265L108.769 30.6665C109.136 23.9203 105.066 17.4614 98.3179 15.1287L57.811 0.952532Z" fill="#BCD35F"/>
<path d="M81.9678 76.1777C79.6468 79.1618 76.7608 81.6596 73.4745 83.5284C70.1883 85.3972 66.5661 86.6003 62.8148 87.0693C59.0636 87.5382 55.2567 87.2636 51.6115 86.2613C47.9664 85.259 44.5543 83.5486 41.5702 81.2276C35.5435 76.5402 31.6257 69.6507 30.6787 62.0747C29.7316 54.4987 31.8329 46.8567 36.5203 40.83C41.2077 34.8033 48.0972 30.8855 55.6733 29.9385C63.2493 28.9915 70.8912 31.0928 76.9179 35.7802C82.9446 40.4676 86.8624 47.3571 87.8094 54.9331C88.7565 62.5091 86.6552 70.151 81.9678 76.1777Z" fill="#373E48"/>
<path d="M217.948 141.54L218.439 157.92L246.441 157.082L245.95 140.702L217.948 141.54Z" fill="#BCD35F"/>
<path d="M211.675 157.954L211.937 166.564L253.602 165.337L253.34 156.728L211.675 157.954Z" fill="#BCD35F"/>
<path d="M215.352 166.193L215.614 174.953L249.967 173.924L249.705 165.165L215.352 166.193Z" fill="#1C2224"/>
<path d="M222.534 174.367L228.658 192.72L229.813 218.562L238.129 218.316C237.35 215.183 236.908 191.824 236.908 191.824L244.195 173.297L222.534 174.367Z" fill="#373E48"/>
<path d="M218.572 110.491L222.499 152.26L242.769 154.587L243.319 107.236L218.572 110.491Z" fill="#BCD35F"/>
<path d="M206.126 97.4456C206.941 100.488 208.349 103.341 210.267 105.84C212.185 108.339 214.577 110.436 217.305 112.011C220.034 113.585 223.046 114.607 226.169 115.018C229.293 115.429 232.467 115.22 235.51 114.404C238.552 113.588 241.405 112.181 243.904 110.263C246.403 108.345 248.5 105.953 250.075 103.225C251.649 100.496 252.671 97.4839 253.082 94.3605C253.493 91.237 253.284 88.0632 252.468 85.0203C250.821 78.8748 246.799 73.6357 241.288 70.4553C235.778 67.2749 229.23 66.4139 223.084 68.0616C220.041 68.8774 217.189 70.2846 214.69 72.2029C212.191 74.1211 210.094 76.5127 208.519 79.2413C206.945 81.9699 205.923 84.9819 205.512 88.1054C205.101 91.2289 205.31 94.4027 206.126 97.4456Z" fill="#BCD35F"/>
<path d="M243.517 105.574C241.741 107.372 239.628 108.803 237.299 109.784C234.971 110.766 232.472 111.279 229.945 111.294C227.418 111.31 224.912 110.827 222.572 109.875C220.231 108.922 218.101 107.518 216.303 105.742C214.505 103.966 213.075 101.853 212.093 99.5248C211.112 97.1961 210.599 94.6969 210.583 92.1699C210.568 89.6429 211.05 87.1376 212.003 84.797C212.956 82.4565 214.36 80.3264 216.136 78.5286C219.722 74.8977 224.604 72.8402 229.708 72.8088C234.811 72.7774 239.718 74.7746 243.349 78.3611C246.98 81.9476 249.037 86.8296 249.069 91.9331C249.1 97.0366 247.103 101.944 243.517 105.574Z" fill="#373E48"/>
<path opacity="0.15" d="M111.33 39.8008L107.703 35.07C107.703 35.07 106.502 25.9735 102.09 22.5591C89.3969 12.7383 67.2658 4.20936 51.2231 4.63601C46.393 4.76449 37.7755 10.0472 37.7755 10.0472L44.1925 1.61578L52.4783 3.05176e-05C52.4783 3.05176e-05 54.8972 0.239009 62.8334 2.62409C64.3848 2.25436 93.0088 13.4155 93.0088 13.4155L100.799 17.8044L105.286 22.0586L112.849 32.0084L121.299 35.0265L120.133 37.8884C120.133 37.8884 116.05 35.5619 111.33 39.8008Z" fill="black"/>
<path d="M93.3704 10.7316L98.0258 13.2479C102.852 15.8566 107.421 19.8397 108.658 23.6746C110.678 29.9434 109.928 36.1927 111.433 43.4896C112.531 48.8141 112.272 48.9716 113.306 50.8648C116.645 56.9835 122.231 59.2829 126.693 61.4787C135.217 65.6743 148.931 70.5081 160.295 74.4356C166.56 76.601 181.002 80.2324 192.345 85.3228C196.532 87.2013 199.764 97.3936 202.606 106.371C203.526 109.28 206.05 112.466 208.568 114.697C212.944 118.574 224.865 119.316 228.989 121.106C232.126 122.468 231.836 131.777 232.198 139.074C232.277 140.647 229.533 148.218 225.495 150.434C220.317 153.275 209.784 153.882 209.784 153.882C209.784 153.882 202.008 154.962 199.221 157.767C195.436 161.577 196.879 167.522 199.376 169.115C204.333 172.276 215.733 171.185 215.733 171.185" stroke="#373E48" stroke-width="4.96674"/>
<path d="M119.613 61.5826L121.459 56.5504C121.937 55.246 123.689 54.6993 125.385 55.3246L136.866 59.5561C138.563 60.1814 139.543 61.735 139.065 63.0394L137.218 68.0716C136.74 69.3759 134.988 69.9226 133.292 69.2973L121.811 65.0658C120.114 64.4405 119.134 62.887 119.613 61.5826Z" fill="#6F917C"/>
<path d="M174.882 81.4617L176.728 76.4295C177.207 75.1251 178.958 74.5784 180.654 75.2037L192.135 79.4352C193.832 80.0606 194.812 81.6141 194.334 82.9185L192.487 87.9507C192.009 89.2551 190.258 89.8018 188.561 89.1764L177.08 84.9449C175.384 84.3196 174.403 82.7661 174.882 81.4617Z" fill="#6F917C"/>
<path d="M229.088 125.281L233.662 125.051C235.05 124.981 236.238 126.379 236.326 128.185L236.569 133.166C236.658 134.972 235.612 136.482 234.224 136.552L229.65 136.782C228.262 136.852 227.074 135.454 226.986 133.648L226.742 128.667C226.654 126.861 227.7 125.351 229.088 125.281H229.088Z" fill="#536C5D"/>
<path d="M212.359 167.193L215.362 167.042C216.273 166.996 217.053 167.914 217.111 169.1L217.271 172.37C217.329 173.556 216.642 174.547 215.731 174.593L212.728 174.744C211.817 174.79 211.037 173.872 210.979 172.687L210.819 169.416C210.761 168.231 211.448 167.239 212.359 167.193V167.193Z" fill="#536C5D"/>
<path opacity="0.15" d="M218.784 112.797L215.877 111.098L212.448 108.499L208.516 103.348L164.968 87.8931L109.367 69.3036L108.854 70.7082L95.9118 66.1623L81.9677 76.1777L77.7861 80.8239L71.0106 84.7323L62.525 87.1049L53.6124 86.7547C53.6124 86.7547 91.5266 51.7319 81.6006 40.5167L92.1544 53.8621L102.732 54.5743C105.59 60.7726 127.004 69.3238 147.627 76.2738C158.972 80.0969 174.645 85.9873 182.793 87.8983C184.345 87.5285 216.212 97.2034 216.212 97.2034C223.225 108.379 242.523 107.126 239.996 108.253L233.566 111.123C233.566 111.123 227.76 114.62 226.215 117.463C224.297 120.992 224.574 129.402 224.574 129.402L222.262 149.196L219.545 165.955L211.937 166.564L211.675 157.954L218.439 157.92L217.948 141.54L221.664 141.563L218.784 112.797Z" fill="black"/>
<path d="M102.117 115.335C112.169 116.463 118.711 130.166 117.043 146.053L116.659 149.729C116.688 149.731 116.716 149.734 116.744 149.739C117.05 149.773 117.337 149.954 117.588 150.27C117.839 150.587 118.05 151.034 118.207 151.585C118.364 152.136 118.466 152.78 118.506 153.482C118.546 154.183 118.523 154.927 118.439 155.672C118.27 157.174 117.862 158.585 117.305 159.597C116.749 160.609 116.09 161.138 115.472 161.068C113.777 176.924 103.304 188.873 93.2645 187.746L86.0394 186.935C76.3429 185.846 68.9754 169.813 70.0538 154.444C69.9425 154.451 69.8328 154.438 69.7257 154.407C69.4193 154.373 69.1324 154.193 68.8813 153.876C68.6303 153.559 68.42 153.112 68.2626 152.561C68.1051 152.01 68.0036 151.366 67.9638 150.664C67.9239 149.963 67.9466 149.219 68.0305 148.474C68.1138 147.729 68.2567 146.998 68.4511 146.323C68.6454 145.648 68.8874 145.042 69.1631 144.54C69.4388 144.037 69.7429 143.648 70.0579 143.395C70.3729 143.142 70.6927 143.03 70.999 143.064C71.0953 143.061 71.1902 143.072 71.2833 143.096L71.5375 140.831C73.3075 124.955 82.8523 113.058 92.9062 114.187L102.137 115.223L102.117 115.335Z" fill="#DEAA87"/>
<path opacity="0.6" d="M70.0373 149.162C69.7622 149.104 69.7177 148.147 69.9378 147.025C70.158 145.902 70.5594 145.039 70.8346 145.097C71.1097 145.155 71.1542 146.112 70.9341 147.234C70.7139 148.356 70.3125 149.22 70.0373 149.162Z" fill="black"/>
<path opacity="0.6" d="M116.558 156.27C116.839 156.275 117.095 155.352 117.129 154.208C117.163 153.065 116.963 152.134 116.682 152.13C116.401 152.125 116.145 153.048 116.111 154.191C116.077 155.335 116.277 156.265 116.558 156.27Z" fill="black"/>
<path d="M97.5625 112.272C110.219 113.693 118.456 126.546 117.568 141.195L117.186 147.508C116.561 151.599 116.742 151.577 116.348 155.081C115.955 158.585 115.947 158.656 115.528 161.758L114.351 166.77C113.655 169.742 111.691 174.808 109.489 178.038C107.628 180.765 105.229 183.132 102.047 185.411C97.695 188.143 96.4681 188.675 92.9915 188.214L85.8371 187.254C83.4015 186.824 78.9141 184.068 76.5451 180.354C74.05 176.468 74.8751 177.801 73.5462 175.129C71.6325 171.295 68.6283 163.832 69.3234 157.64L69.3683 157.231C69.9202 153.075 69.8907 153.086 70.2715 149.695C70.6506 146.317 70.6506 146.317 70.9259 143.355L71.7457 136.051C73.3842 121.457 84.8923 110.85 97.5498 112.271L97.5625 112.272ZM99.4695 128.632L92.0578 128.214L82.7729 127L79.3254 129.364L78.3613 133.673L76.7906 137.929L73.4078 140.77L72.1642 145.233L70.6814 159.331L70.9334 164.233L72.8084 169.631L76.1397 176.731L79.5871 181.579L83.389 184.514L86.2179 185.045C87.1962 184.784 89.769 180.185 90.0652 178.067L91.0039 178.172C91.2263 179.451 90.7052 184.309 92.1157 185.735L96.3759 186.071L99.823 183.979L105.764 180.057L108.143 177.046L110.581 172.845L112.405 168.689L113.859 163.68L115.298 149.591L114.089 143.626L112.383 140.471C112.32 138.796 112.526 137.694 112.624 136.465C112.682 135.688 112.847 133.968 112.66 133.163C112.499 132.475 111.89 132.35 111.89 132.35C111.224 131.976 111.448 131.63 110.738 131.28C110.337 131.078 109.935 130.905 109.53 130.731C106.607 129.533 103.509 129.157 99.4578 128.66L99.4695 128.632Z" fill="#333333"/>
<path d="M100.342 155.989C99.4103 155.884 98.7502 154.953 98.8674 153.91C98.9846 152.866 99.8346 152.105 100.766 152.209C101.697 152.314 102.357 153.245 102.24 154.288C102.123 155.332 101.273 156.093 100.342 155.989Z" fill="black"/>
<path d="M86.8127 154.247C85.8813 154.143 85.2213 153.212 85.3384 152.168C85.4556 151.124 86.3056 150.363 87.237 150.468C88.1684 150.572 88.8285 151.503 88.7113 152.547C88.5941 153.59 87.7441 154.352 86.8127 154.247Z" fill="black"/>
<path d="M89.8149 166.031L95.2028 166.635C95.3332 166.65 95.427 166.768 95.4124 166.898L95.3711 167.265C95.3565 167.396 95.2389 167.49 95.1086 167.475L89.7206 166.87C89.5903 166.855 89.4965 166.738 89.5111 166.608L89.5524 166.24C89.567 166.11 89.6845 166.016 89.8149 166.031Z" fill="black"/>
<path d="M96.79 146.729L104.769 147.625C105.045 147.656 105.243 147.905 105.212 148.181L105.125 148.958C105.094 149.234 104.845 149.433 104.569 149.402L96.5905 148.506C96.3147 148.475 96.1161 148.226 96.1471 147.95L96.2344 147.173C96.2654 146.897 96.5141 146.698 96.79 146.729Z" fill="black"/>
<path d="M83.9158 145.106L91.867 145.998C92.1505 146.03 92.3546 146.286 92.3227 146.569L92.233 147.369C92.2012 147.652 91.9455 147.856 91.662 147.824L83.7108 146.932C83.4273 146.9 83.2233 146.644 83.2551 146.361L83.3448 145.561C83.3767 145.278 83.6323 145.074 83.9158 145.106Z" fill="black"/>
<path d="M99.9895 171.962C99.7871 173.737 98.7477 175.345 97.0994 176.43C95.4512 177.516 93.329 177.991 91.1988 177.752C89.0686 177.513 87.1046 176.579 85.7381 175.155C84.3717 173.731 83.7145 171.933 83.9108 170.157L99.9895 171.962Z" fill="#F2F2F2"/>
<path d="M99.4142 172.078C99.235 173.648 98.2665 175.065 96.7213 176.015C95.1762 176.966 93.1807 177.374 91.1732 177.148C89.1657 176.923 87.3103 176.083 86.0144 174.813C84.7186 173.544 84.0881 171.948 84.2617 170.376L99.4142 172.078Z" fill="white"/>
<path d="M99.4008 171.02C99.3305 171.012 99.4117 170.808 99.4265 170.781C99.8257 170.37 100.507 170.66 100.973 171.154C101.498 171.726 101.3 172.445 100.927 173.03C100.915 173.029 100.455 173.604 100.36 173.337C100.319 173.19 100.715 172.379 100.729 172.31C100.835 171.737 100.851 171.981 100.677 171.434C100.287 171.077 100.055 171.023 99.59 171.042L99.4008 171.02Z" fill="#808080"/>
<path d="M84.4967 169.504C84.5671 169.512 84.5754 169.313 84.564 169.283C84.2659 168.794 83.5799 168.859 83.0157 169.252C82.3762 169.693 82.2982 170.312 82.5339 170.965C82.5462 170.966 82.8462 171.242 82.8872 171.218C82.9857 171.23 82.8645 170.66 82.8582 170.588C82.8119 169.984 82.8107 169.999 83.2936 169.668C83.7269 169.375 83.855 169.389 84.3029 169.525L84.4967 169.504Z" fill="#808080"/>
<path d="M103.759 110.431C113.457 111.52 120.145 123.344 120.257 138.035L71.4838 132.559C74.7829 118.251 84.0309 108.217 93.7288 109.305L103.759 110.431Z" fill="#2C5AA0"/>
<path d="M96.891 106.037L101.018 106.501C102.069 106.619 102.825 107.566 102.707 108.616L102.42 111.176C102.302 112.226 101.354 112.982 100.304 112.864L96.1766 112.401C95.126 112.283 94.3698 111.336 94.4878 110.285L94.7751 107.726C94.893 106.675 95.8404 105.919 96.891 106.037Z" fill="#2C5AA0"/>
<path d="M83.4994 107.874L86.4626 108.207C87.3322 108.304 87.9579 109.088 87.8603 109.958L86.9604 117.974C86.8627 118.844 86.0787 119.47 85.2092 119.372L82.2459 119.039C81.3764 118.942 80.7506 118.158 80.8483 117.288L81.7482 109.272C81.8459 108.402 82.6299 107.776 83.4994 107.874Z" fill="#2C5AA0"/>
<path d="M110.561 110.778L114.256 111.193C114.924 111.268 115.404 111.87 115.329 112.537L114.347 121.286C114.272 121.953 113.67 122.434 113.003 122.359L109.307 121.944C108.64 121.869 108.16 121.267 108.235 120.6L109.217 111.851C109.292 111.184 109.893 110.703 110.561 110.778Z" fill="#2C5AA0"/>
<path opacity="0.61" d="M120.622 137.904L109.777 130.944L84.3183 128.086L71.7748 132.492L120.622 137.904Z" fill="#162D50"/>
<path opacity="0.65" d="M72.3686 142.563L76.4967 145.662L76.509 145.664C77.6524 145.265 79.3551 145.356 81.2705 145.571C82.3696 145.695 83.5391 145.826 84.7057 145.957C87.7836 146.302 90.2705 147.266 91.511 148.744C91.511 148.744 92.5934 149.55 93.2093 149.776C93.5059 149.952 93.8353 149.989 94.1677 149.883C94.8309 149.815 96.1107 149.446 96.1107 149.446C98.3587 148.259 101.037 147.876 103.483 148.122C104.65 148.253 105.819 148.384 106.917 148.507C108.794 148.718 110.445 149.046 111.482 149.604L115.297 149.477L115.249 150.155L112.567 151.764C112.189 154.757 108.746 158.004 104.112 158.695C102.281 158.974 99.8809 158.405 98.5183 157.925C97.1192 157.44 96.1671 156.236 95.4996 155.149C95.2524 154.736 95.0446 153.972 94.9225 153.232C94.8122 152.578 94.524 152.161 94.1104 151.872C93.8029 151.652 93.3741 151.576 93.0183 151.749C92.5766 151.913 92.3161 152.24 92.0169 152.862C91.784 153.335 91.1732 154.335 90.9321 154.579C90.0403 155.491 88.8449 156.454 87.3731 156.616C85.9378 156.783 83.4714 156.805 81.7477 156.127C78.1473 154.711 75.7237 151.788 75.1485 149.13L72.2265 143.957L72.3686 142.563Z" fill="white"/>
</g>
<line x1="94" y1="358.5" x2="414" y2="358.5" stroke="#383E45" stroke-width="3"/>
<path d="M136.292 312L129.524 303.504V312H124.484V285.36H129.524V300.516L136.22 292.056H142.772L133.988 302.064L142.844 312H136.292ZM150.547 295.152C151.195 294.096 152.035 293.268 153.067 292.668C154.123 292.068 155.323 291.768 156.667 291.768V297.06H155.335C153.751 297.06 152.551 297.432 151.735 298.176C150.943 298.92 150.547 300.216 150.547 302.064V312H145.507V292.056H150.547V295.152ZM162.618 289.68C161.73 289.68 160.986 289.404 160.386 288.852C159.81 288.276 159.522 287.568 159.522 286.728C159.522 285.888 159.81 285.192 160.386 284.64C160.986 284.064 161.73 283.776 162.618 283.776C163.506 283.776 164.238 284.064 164.814 284.64C165.414 285.192 165.714 285.888 165.714 286.728C165.714 287.568 165.414 288.276 164.814 288.852C164.238 289.404 163.506 289.68 162.618 289.68ZM165.102 292.056V312H160.062V292.056H165.102ZM177.714 312.324C176.082 312.324 174.618 312.036 173.322 311.46C172.026 310.86 170.994 310.056 170.226 309.048C169.482 308.04 169.074 306.924 169.002 305.7H174.078C174.174 306.468 174.546 307.104 175.194 307.608C175.866 308.112 176.694 308.364 177.678 308.364C178.638 308.364 179.382 308.172 179.91 307.788C180.462 307.404 180.738 306.912 180.738 306.312C180.738 305.664 180.402 305.184 179.73 304.872C179.082 304.536 178.038 304.176 176.598 303.792C175.11 303.432 173.886 303.06 172.926 302.676C171.99 302.292 171.174 301.704 170.478 300.912C169.806 300.12 169.47 299.052 169.47 297.708C169.47 296.604 169.782 295.596 170.406 294.684C171.054 293.772 171.966 293.052 173.142 292.524C174.342 291.996 175.746 291.732 177.354 291.732C179.73 291.732 181.626 292.332 183.042 293.532C184.458 294.708 185.238 296.304 185.382 298.32H180.558C180.486 297.528 180.15 296.904 179.55 296.448C178.974 295.968 178.194 295.728 177.21 295.728C176.298 295.728 175.59 295.896 175.086 296.232C174.606 296.568 174.366 297.036 174.366 297.636C174.366 298.308 174.702 298.824 175.374 299.184C176.046 299.52 177.09 299.868 178.506 300.228C179.946 300.588 181.134 300.96 182.07 301.344C183.006 301.728 183.81 302.328 184.482 303.144C185.178 303.936 185.538 304.992 185.562 306.312C185.562 307.464 185.238 308.496 184.59 309.408C183.966 310.32 183.054 311.04 181.854 311.568C180.678 312.072 179.298 312.324 177.714 312.324ZM195.567 296.196V305.844C195.567 306.516 195.723 307.008 196.035 307.32C196.371 307.608 196.923 307.752 197.691 307.752H200.031V312H196.863C192.615 312 190.491 309.936 190.491 305.808V296.196H188.115V292.056H190.491V287.124H195.567V292.056H200.031V296.196H195.567ZM206.212 289.68C205.324 289.68 204.58 289.404 203.98 288.852C203.404 288.276 203.116 287.568 203.116 286.728C203.116 285.888 203.404 285.192 203.98 284.64C204.58 284.064 205.324 283.776 206.212 283.776C207.1 283.776 207.832 284.064 208.408 284.64C209.008 285.192 209.308 285.888 209.308 286.728C209.308 287.568 209.008 288.276 208.408 288.852C207.832 289.404 207.1 289.68 206.212 289.68ZM208.696 292.056V312H203.656V292.056H208.696ZM212.379 301.956C212.379 299.94 212.775 298.152 213.567 296.592C214.383 295.032 215.475 293.832 216.843 292.992C218.235 292.152 219.783 291.732 221.487 291.732C222.975 291.732 224.271 292.032 225.375 292.632C226.503 293.232 227.403 293.988 228.075 294.9V292.056H233.151V312H228.075V309.084C227.427 310.02 226.527 310.8 225.375 311.424C224.247 312.024 222.939 312.324 221.451 312.324C219.771 312.324 218.235 311.892 216.843 311.028C215.475 310.164 214.383 308.952 213.567 307.392C212.775 305.808 212.379 303.996 212.379 301.956ZM228.075 302.028C228.075 300.804 227.835 299.76 227.355 298.896C226.875 298.008 226.227 297.336 225.411 296.88C224.595 296.4 223.719 296.16 222.783 296.16C221.847 296.16 220.983 296.388 220.191 296.844C219.399 297.3 218.751 297.972 218.247 298.86C217.767 299.724 217.527 300.756 217.527 301.956C217.527 303.156 217.767 304.212 218.247 305.124C218.751 306.012 219.399 306.696 220.191 307.176C221.007 307.656 221.871 307.896 222.783 307.896C223.719 307.896 224.595 307.668 225.411 307.212C226.227 306.732 226.875 306.06 227.355 305.196C227.835 304.308 228.075 303.252 228.075 302.028ZM249.126 291.768C251.502 291.768 253.422 292.524 254.886 294.036C256.35 295.524 257.082 297.612 257.082 300.3V312H252.042V300.984C252.042 299.4 251.646 298.188 250.854 297.348C250.062 296.484 248.982 296.052 247.614 296.052C246.222 296.052 245.118 296.484 244.302 297.348C243.51 298.188 243.114 299.4 243.114 300.984V312H238.074V292.056H243.114V294.54C243.786 293.676 244.638 293.004 245.67 292.524C246.726 292.02 247.878 291.768 249.126 291.768Z" fill="#383E45"/>
<path d="M188.524 326.94V333.24H196.984V337.236H188.524V343.896H198.064V348H183.484V322.836H198.064V326.94H188.524ZM227.412 327.768C229.86 327.768 231.828 328.524 233.316 330.036C234.828 331.524 235.584 333.612 235.584 336.3V348H230.544V336.984C230.544 335.424 230.148 334.236 229.356 333.42C228.564 332.58 227.484 332.16 226.116 332.16C224.748 332.16 223.656 332.58 222.84 333.42C222.048 334.236 221.652 335.424 221.652 336.984V348H216.612V336.984C216.612 335.424 216.216 334.236 215.424 333.42C214.632 332.58 213.552 332.16 212.184 332.16C210.792 332.16 209.688 332.58 208.872 333.42C208.08 334.236 207.684 335.424 207.684 336.984V348H202.644V328.056H207.684V330.468C208.332 329.628 209.16 328.968 210.168 328.488C211.2 328.008 212.328 327.768 213.552 327.768C215.112 327.768 216.504 328.104 217.728 328.776C218.952 329.424 219.9 330.36 220.572 331.584C221.22 330.432 222.156 329.508 223.38 328.812C224.628 328.116 225.972 327.768 227.412 327.768ZM265.135 327.768C267.583 327.768 269.551 328.524 271.039 330.036C272.551 331.524 273.307 333.612 273.307 336.3V348H268.267V336.984C268.267 335.424 267.871 334.236 267.079 333.42C266.287 332.58 265.207 332.16 263.839 332.16C262.471 332.16 261.379 332.58 260.563 333.42C259.771 334.236 259.375 335.424 259.375 336.984V348H254.335V336.984C254.335 335.424 253.939 334.236 253.147 333.42C252.355 332.58 251.275 332.16 249.907 332.16C248.515 332.16 247.411 332.58 246.595 333.42C245.803 334.236 245.407 335.424 245.407 336.984V348H240.367V328.056H245.407V330.468C246.055 329.628 246.883 328.968 247.891 328.488C248.923 328.008 250.051 327.768 251.275 327.768C252.835 327.768 254.227 328.104 255.451 328.776C256.675 329.424 257.623 330.36 258.295 331.584C258.943 330.432 259.879 329.508 261.103 328.812C262.351 328.116 263.695 327.768 265.135 327.768ZM276.793 337.956C276.793 335.94 277.189 334.152 277.981 332.592C278.797 331.032 279.889 329.832 281.257 328.992C282.649 328.152 284.197 327.732 285.901 327.732C287.389 327.732 288.685 328.032 289.789 328.632C290.917 329.232 291.817 329.988 292.489 330.9V328.056H297.565V348H292.489V345.084C291.841 346.02 290.941 346.8 289.789 347.424C288.661 348.024 287.353 348.324 285.865 348.324C284.185 348.324 282.649 347.892 281.257 347.028C279.889 346.164 278.797 344.952 277.981 343.392C277.189 341.808 276.793 339.996 276.793 337.956ZM292.489 338.028C292.489 336.804 292.249 335.76 291.769 334.896C291.289 334.008 290.641 333.336 289.825 332.88C289.009 332.4 288.133 332.16 287.197 332.16C286.261 332.16 285.397 332.388 284.605 332.844C283.813 333.3 283.165 333.972 282.661 334.86C282.181 335.724 281.941 336.756 281.941 337.956C281.941 339.156 282.181 340.212 282.661 341.124C283.165 342.012 283.813 342.696 284.605 343.176C285.421 343.656 286.285 343.896 287.197 343.896C288.133 343.896 289.009 343.668 289.825 343.212C290.641 342.732 291.289 342.06 291.769 341.196C292.249 340.308 292.489 339.252 292.489 338.028ZM313.54 327.768C315.916 327.768 317.836 328.524 319.3 330.036C320.764 331.524 321.496 333.612 321.496 336.3V348H316.456V336.984C316.456 335.4 316.06 334.188 315.268 333.348C314.476 332.484 313.396 332.052 312.028 332.052C310.636 332.052 309.532 332.484 308.716 333.348C307.924 334.188 307.528 335.4 307.528 336.984V348H302.488V328.056H307.528V330.54C308.2 329.676 309.052 329.004 310.084 328.524C311.14 328.02 312.292 327.768 313.54 327.768ZM345.117 328.056V348H340.041V345.48C339.393 346.344 338.541 347.028 337.485 347.532C336.453 348.012 335.325 348.252 334.101 348.252C332.541 348.252 331.161 347.928 329.961 347.28C328.761 346.608 327.813 345.636 327.117 344.364C326.445 343.068 326.109 341.532 326.109 339.756V328.056H331.149V339.036C331.149 340.62 331.545 341.844 332.337 342.708C333.129 343.548 334.209 343.968 335.577 343.968C336.969 343.968 338.061 343.548 338.853 342.708C339.645 341.844 340.041 340.62 340.041 339.036V328.056H345.117ZM368.629 337.596C368.629 338.316 368.581 338.964 368.485 339.54H353.905C354.025 340.98 354.529 342.108 355.417 342.924C356.305 343.74 357.397 344.148 358.693 344.148C360.565 344.148 361.897 343.344 362.689 341.736H368.125C367.549 343.656 366.445 345.24 364.813 346.488C363.181 347.712 361.177 348.324 358.801 348.324C356.881 348.324 355.153 347.904 353.617 347.064C352.105 346.2 350.917 344.988 350.053 343.428C349.213 341.868 348.793 340.068 348.793 338.028C348.793 335.964 349.213 334.152 350.053 332.592C350.893 331.032 352.069 329.832 353.581 328.992C355.093 328.152 356.833 327.732 358.801 327.732C360.697 327.732 362.389 328.14 363.877 328.956C365.389 329.772 366.553 330.936 367.369 332.448C368.209 333.936 368.629 335.652 368.629 337.596ZM363.409 336.156C363.385 334.86 362.917 333.828 362.005 333.06C361.093 332.268 359.977 331.872 358.657 331.872C357.409 331.872 356.353 332.256 355.489 333.024C354.649 333.768 354.133 334.812 353.941 336.156H363.409ZM377.348 321.36V348H372.308V321.36H377.348Z" fill="#383E45"/>
<path d="M184.9 252.826V271H183.08V252.826H184.9ZM195.324 263.876C195.324 262.42 195.61 261.146 196.182 260.054C196.772 258.945 197.578 258.095 198.6 257.506C199.64 256.899 200.81 256.596 202.11 256.596C203.462 256.596 204.624 256.908 205.594 257.532C206.582 258.156 207.293 258.953 207.726 259.924V256.804H209.546V271H207.726V267.854C207.276 268.825 206.556 269.631 205.568 270.272C204.598 270.896 203.436 271.208 202.084 271.208C200.802 271.208 199.64 270.905 198.6 270.298C197.578 269.691 196.772 268.833 196.182 267.724C195.61 266.615 195.324 265.332 195.324 263.876ZM207.726 263.902C207.726 262.758 207.492 261.753 207.024 260.886C206.556 260.019 205.915 259.352 205.1 258.884C204.303 258.416 203.419 258.182 202.448 258.182C201.443 258.182 200.542 258.407 199.744 258.858C198.947 259.309 198.314 259.967 197.846 260.834C197.396 261.683 197.17 262.697 197.17 263.876C197.17 265.037 197.396 266.06 197.846 266.944C198.314 267.811 198.947 268.478 199.744 268.946C200.542 269.397 201.443 269.622 202.448 269.622C203.419 269.622 204.303 269.388 205.1 268.92C205.915 268.452 206.556 267.785 207.024 266.918C207.492 266.051 207.726 265.046 207.726 263.902ZM230.601 256.544C232.265 256.544 233.617 257.073 234.657 258.13C235.714 259.17 236.243 260.687 236.243 262.68V271H234.449V262.888C234.449 261.345 234.076 260.167 233.331 259.352C232.586 258.537 231.572 258.13 230.289 258.13C228.954 258.13 227.888 258.572 227.091 259.456C226.294 260.34 225.895 261.623 225.895 263.304V271H224.101V262.888C224.101 261.345 223.728 260.167 222.983 259.352C222.238 258.537 221.215 258.13 219.915 258.13C218.58 258.13 217.514 258.572 216.717 259.456C215.92 260.34 215.521 261.623 215.521 263.304V271H213.701V256.804H215.521V259.248C215.972 258.364 216.613 257.697 217.445 257.246C218.277 256.778 219.204 256.544 220.227 256.544C221.458 256.544 222.532 256.839 223.451 257.428C224.387 258.017 225.063 258.884 225.479 260.028C225.86 258.901 226.51 258.043 227.429 257.454C228.365 256.847 229.422 256.544 230.601 256.544Z" fill="#3E3E3E"/>
<path d="M114 373.02V387H112.6V373.02H114ZM122.29 375.88C123.597 375.88 124.664 376.287 125.49 377.1C126.317 377.9 126.73 379.067 126.73 380.6V387H125.35V380.76C125.35 379.573 125.05 378.667 124.45 378.04C123.864 377.413 123.057 377.1 122.03 377.1C120.977 377.1 120.137 377.433 119.51 378.1C118.884 378.767 118.57 379.747 118.57 381.04V387H117.17V376.08H118.57V377.94C118.917 377.273 119.417 376.767 120.07 376.42C120.724 376.06 121.464 375.88 122.29 375.88ZM129.187 381.52C129.187 380.4 129.413 379.42 129.867 378.58C130.32 377.727 130.94 377.073 131.727 376.62C132.527 376.153 133.427 375.92 134.427 375.92C135.387 375.92 136.253 376.153 137.027 376.62C137.8 377.087 138.367 377.693 138.727 378.44V372.2H140.127V387H138.727V384.56C138.393 385.32 137.847 385.947 137.087 386.44C136.327 386.92 135.433 387.16 134.407 387.16C133.407 387.16 132.507 386.927 131.707 386.46C130.92 385.993 130.3 385.333 129.847 384.48C129.407 383.627 129.187 382.64 129.187 381.52ZM138.727 381.54C138.727 380.66 138.547 379.887 138.187 379.22C137.827 378.553 137.333 378.04 136.707 377.68C136.093 377.32 135.413 377.14 134.667 377.14C133.893 377.14 133.2 377.313 132.587 377.66C131.973 378.007 131.487 378.513 131.127 379.18C130.78 379.833 130.607 380.613 130.607 381.52C130.607 382.413 130.78 383.2 131.127 383.88C131.487 384.547 131.973 385.06 132.587 385.42C133.2 385.767 133.893 385.94 134.667 385.94C135.413 385.94 136.093 385.76 136.707 385.4C137.333 385.04 137.827 384.527 138.187 383.86C138.547 383.193 138.727 382.42 138.727 381.54ZM152.783 376.08V387H151.383V385.08C151.063 385.76 150.569 386.28 149.903 386.64C149.236 387 148.489 387.18 147.663 387.18C146.356 387.18 145.289 386.78 144.463 385.98C143.636 385.167 143.223 383.993 143.223 382.46V376.08H144.603V382.3C144.603 383.487 144.896 384.393 145.483 385.02C146.083 385.647 146.896 385.96 147.923 385.96C148.976 385.96 149.816 385.627 150.443 384.96C151.069 384.293 151.383 383.313 151.383 382.02V376.08H152.783ZM159.739 387.16C158.486 387.16 157.459 386.873 156.659 386.3C155.872 385.713 155.432 384.92 155.339 383.92H156.779C156.846 384.533 157.132 385.033 157.639 385.42C158.159 385.793 158.852 385.98 159.719 385.98C160.479 385.98 161.072 385.8 161.499 385.44C161.939 385.08 162.159 384.633 162.159 384.1C162.159 383.727 162.039 383.42 161.799 383.18C161.559 382.94 161.252 382.753 160.879 382.62C160.519 382.473 160.026 382.32 159.399 382.16C158.586 381.947 157.926 381.733 157.419 381.52C156.912 381.307 156.479 380.993 156.119 380.58C155.772 380.153 155.599 379.587 155.599 378.88C155.599 378.347 155.759 377.853 156.079 377.4C156.399 376.947 156.852 376.587 157.439 376.32C158.026 376.053 158.692 375.92 159.439 375.92C160.612 375.92 161.559 376.22 162.279 376.82C162.999 377.407 163.386 378.22 163.439 379.26H162.039C161.999 378.62 161.746 378.107 161.279 377.72C160.826 377.32 160.199 377.12 159.399 377.12C158.692 377.12 158.119 377.287 157.679 377.62C157.239 377.953 157.019 378.367 157.019 378.86C157.019 379.287 157.146 379.64 157.399 379.92C157.666 380.187 157.992 380.4 158.379 380.56C158.766 380.707 159.286 380.873 159.939 381.06C160.726 381.273 161.352 381.48 161.819 381.68C162.286 381.88 162.686 382.173 163.019 382.56C163.352 382.947 163.526 383.46 163.539 384.1C163.539 384.687 163.379 385.213 163.059 385.68C162.739 386.133 162.292 386.493 161.719 386.76C161.146 387.027 160.486 387.16 159.739 387.16ZM167.994 377.26V384.04C167.994 384.707 168.121 385.167 168.374 385.42C168.628 385.673 169.074 385.8 169.714 385.8H170.994V387H169.494C168.508 387 167.774 386.773 167.294 386.32C166.814 385.853 166.574 385.093 166.574 384.04V377.26H165.054V376.08H166.574V373.34H167.994V376.08H170.994V377.26H167.994ZM174.703 378.02C175.01 377.34 175.476 376.813 176.103 376.44C176.743 376.067 177.523 375.88 178.443 375.88V377.34H178.063C177.05 377.34 176.236 377.613 175.623 378.16C175.01 378.707 174.703 379.62 174.703 380.9V387H173.303V376.08H174.703V378.02ZM181.249 374.02C180.969 374.02 180.729 373.92 180.529 373.72C180.329 373.52 180.229 373.273 180.229 372.98C180.229 372.687 180.329 372.447 180.529 372.26C180.729 372.06 180.969 371.96 181.249 371.96C181.529 371.96 181.769 372.06 181.969 372.26C182.169 372.447 182.269 372.687 182.269 372.98C182.269 373.273 182.169 373.52 181.969 373.72C181.769 373.92 181.529 374.02 181.249 374.02ZM181.949 376.08V387H180.549V376.08H181.949ZM184.48 381.52C184.48 380.4 184.7 379.42 185.14 378.58C185.593 377.727 186.213 377.073 187 376.62C187.8 376.153 188.7 375.92 189.7 375.92C190.74 375.92 191.633 376.16 192.38 376.64C193.14 377.12 193.686 377.733 194.02 378.48V376.08H195.42V387H194.02V384.58C193.673 385.327 193.12 385.947 192.36 386.44C191.613 386.92 190.72 387.16 189.68 387.16C188.693 387.16 187.8 386.927 187 386.46C186.213 385.993 185.593 385.333 185.14 384.48C184.7 383.627 184.48 382.64 184.48 381.52ZM194.02 381.54C194.02 380.66 193.84 379.887 193.48 379.22C193.12 378.553 192.626 378.04 192 377.68C191.386 377.32 190.706 377.14 189.96 377.14C189.186 377.14 188.493 377.313 187.88 377.66C187.266 378.007 186.78 378.513 186.42 379.18C186.073 379.833 185.9 380.613 185.9 381.52C185.9 382.413 186.073 383.2 186.42 383.88C186.78 384.547 187.266 385.06 187.88 385.42C188.493 385.767 189.186 385.94 189.96 385.94C190.706 385.94 191.386 385.76 192 385.4C192.626 385.04 193.12 384.527 193.48 383.86C193.84 383.193 194.02 382.42 194.02 381.54ZM200.016 372.2V387H198.616V372.2H200.016ZM216.114 387L212.654 381.16H210.074V387H208.674V373.02H212.874C214.434 373.02 215.614 373.393 216.414 374.14C217.228 374.887 217.634 375.867 217.634 377.08C217.634 378.093 217.341 378.96 216.754 379.68C216.181 380.387 215.328 380.847 214.194 381.06L217.794 387H216.114ZM210.074 380.02H212.894C213.988 380.02 214.808 379.753 215.354 379.22C215.914 378.687 216.194 377.973 216.194 377.08C216.194 376.16 215.928 375.453 215.394 374.96C214.861 374.453 214.021 374.2 212.874 374.2H210.074V380.02ZM225.193 387.16C224.166 387.16 223.239 386.933 222.413 386.48C221.599 386.013 220.953 385.36 220.473 384.52C220.006 383.667 219.773 382.673 219.773 381.54C219.773 380.407 220.013 379.42 220.493 378.58C220.973 377.727 221.626 377.073 222.453 376.62C223.279 376.153 224.206 375.92 225.233 375.92C226.259 375.92 227.186 376.153 228.013 376.62C228.853 377.073 229.506 377.727 229.973 378.58C230.453 379.42 230.693 380.407 230.693 381.54C230.693 382.66 230.453 383.647 229.973 384.5C229.493 385.353 228.833 386.013 227.993 386.48C227.153 386.933 226.219 387.16 225.193 387.16ZM225.193 385.94C225.913 385.94 226.579 385.78 227.193 385.46C227.806 385.127 228.299 384.633 228.673 383.98C229.059 383.313 229.253 382.5 229.253 381.54C229.253 380.58 229.066 379.773 228.693 379.12C228.319 378.453 227.826 377.96 227.213 377.64C226.599 377.307 225.933 377.14 225.213 377.14C224.493 377.14 223.826 377.307 223.213 377.64C222.599 377.96 222.106 378.453 221.733 379.12C221.373 379.773 221.193 380.58 221.193 381.54C221.193 382.5 221.373 383.313 221.733 383.98C222.106 384.633 222.593 385.127 223.193 385.46C223.806 385.78 224.473 385.94 225.193 385.94ZM234.625 378.5C234.985 377.74 235.538 377.12 236.285 376.64C237.045 376.16 237.938 375.92 238.965 375.92C239.965 375.92 240.858 376.153 241.645 376.62C242.431 377.073 243.045 377.727 243.485 378.58C243.938 379.42 244.165 380.4 244.165 381.52C244.165 382.64 243.938 383.627 243.485 384.48C243.045 385.333 242.425 385.993 241.625 386.46C240.838 386.927 239.951 387.16 238.965 387.16C237.925 387.16 237.025 386.927 236.265 386.46C235.518 385.98 234.971 385.36 234.625 384.6V387H233.245V372.2H234.625V378.5ZM242.745 381.52C242.745 380.613 242.565 379.833 242.205 379.18C241.858 378.513 241.378 378.007 240.765 377.66C240.151 377.313 239.458 377.14 238.685 377.14C237.938 377.14 237.251 377.32 236.625 377.68C236.011 378.04 235.525 378.553 235.165 379.22C234.805 379.887 234.625 380.66 234.625 381.54C234.625 382.42 234.805 383.193 235.165 383.86C235.525 384.527 236.011 385.04 236.625 385.4C237.251 385.76 237.938 385.94 238.685 385.94C239.458 385.94 240.151 385.767 240.765 385.42C241.378 385.06 241.858 384.547 242.205 383.88C242.565 383.2 242.745 382.413 242.745 381.52ZM251.521 387.16C250.494 387.16 249.567 386.933 248.741 386.48C247.927 386.013 247.281 385.36 246.801 384.52C246.334 383.667 246.101 382.673 246.101 381.54C246.101 380.407 246.341 379.42 246.821 378.58C247.301 377.727 247.954 377.073 248.781 376.62C249.607 376.153 250.534 375.92 251.561 375.92C252.587 375.92 253.514 376.153 254.341 376.62C255.181 377.073 255.834 377.727 256.301 378.58C256.781 379.42 257.021 380.407 257.021 381.54C257.021 382.66 256.781 383.647 256.301 384.5C255.821 385.353 255.161 386.013 254.321 386.48C253.481 386.933 252.547 387.16 251.521 387.16ZM251.521 385.94C252.241 385.94 252.907 385.78 253.521 385.46C254.134 385.127 254.627 384.633 255.001 383.98C255.387 383.313 255.581 382.5 255.581 381.54C255.581 380.58 255.394 379.773 255.021 379.12C254.647 378.453 254.154 377.96 253.541 377.64C252.927 377.307 252.261 377.14 251.541 377.14C250.821 377.14 250.154 377.307 249.541 377.64C248.927 377.96 248.434 378.453 248.061 379.12C247.701 379.773 247.521 380.58 247.521 381.54C247.521 382.5 247.701 383.313 248.061 383.98C248.434 384.633 248.921 385.127 249.521 385.46C250.134 385.78 250.801 385.94 251.521 385.94ZM261.393 377.26V384.04C261.393 384.707 261.519 385.167 261.773 385.42C262.026 385.673 262.473 385.8 263.113 385.8H264.393V387H262.893C261.906 387 261.173 386.773 260.693 386.32C260.213 385.853 259.973 385.093 259.973 384.04V377.26H258.453V376.08H259.973V373.34H261.393V376.08H264.393V377.26H261.393ZM267.402 374.02C267.122 374.02 266.882 373.92 266.682 373.72C266.482 373.52 266.382 373.273 266.382 372.98C266.382 372.687 266.482 372.447 266.682 372.26C266.882 372.06 267.122 371.96 267.402 371.96C267.682 371.96 267.922 372.06 268.122 372.26C268.322 372.447 268.422 372.687 268.422 372.98C268.422 373.273 268.322 373.52 268.122 373.72C267.922 373.92 267.682 374.02 267.402 374.02ZM268.102 376.08V387H266.702V376.08H268.102ZM270.632 381.54C270.632 380.407 270.859 379.42 271.312 378.58C271.765 377.727 272.392 377.073 273.192 376.62C273.992 376.153 274.905 375.92 275.932 375.92C277.279 375.92 278.385 376.253 279.252 376.92C280.132 377.587 280.699 378.493 280.952 379.64H279.452C279.265 378.853 278.859 378.24 278.232 377.8C277.619 377.347 276.852 377.12 275.932 377.12C275.199 377.12 274.539 377.287 273.952 377.62C273.365 377.953 272.899 378.453 272.552 379.12C272.219 379.773 272.052 380.58 272.052 381.54C272.052 382.5 272.219 383.313 272.552 383.98C272.899 384.647 273.365 385.147 273.952 385.48C274.539 385.813 275.199 385.98 275.932 385.98C276.852 385.98 277.619 385.76 278.232 385.32C278.859 384.867 279.265 384.24 279.452 383.44H280.952C280.699 384.56 280.132 385.46 279.252 386.14C278.372 386.82 277.265 387.16 275.932 387.16C274.905 387.16 273.992 386.933 273.192 386.48C272.392 386.013 271.765 385.36 271.312 384.52C270.859 383.667 270.632 382.673 270.632 381.54ZM287.298 387.16C286.044 387.16 285.018 386.873 284.218 386.3C283.431 385.713 282.991 384.92 282.898 383.92H284.338C284.404 384.533 284.691 385.033 285.198 385.42C285.718 385.793 286.411 385.98 287.278 385.98C288.038 385.98 288.631 385.8 289.058 385.44C289.498 385.08 289.718 384.633 289.718 384.1C289.718 383.727 289.598 383.42 289.358 383.18C289.118 382.94 288.811 382.753 288.438 382.62C288.078 382.473 287.584 382.32 286.958 382.16C286.144 381.947 285.484 381.733 284.978 381.52C284.471 381.307 284.038 380.993 283.678 380.58C283.331 380.153 283.158 379.587 283.158 378.88C283.158 378.347 283.318 377.853 283.638 377.4C283.958 376.947 284.411 376.587 284.998 376.32C285.584 376.053 286.251 375.92 286.998 375.92C288.171 375.92 289.118 376.22 289.838 376.82C290.558 377.407 290.944 378.22 290.998 379.26H289.598C289.558 378.62 289.304 378.107 288.838 377.72C288.384 377.32 287.758 377.12 286.958 377.12C286.251 377.12 285.678 377.287 285.238 377.62C284.798 377.953 284.577 378.367 284.577 378.86C284.577 379.287 284.704 379.64 284.958 379.92C285.224 380.187 285.551 380.4 285.938 380.56C286.324 380.707 286.844 380.873 287.498 381.06C288.284 381.273 288.911 381.48 289.378 381.68C289.844 381.88 290.244 382.173 290.578 382.56C290.911 382.947 291.084 383.46 291.098 384.1C291.098 384.687 290.938 385.213 290.618 385.68C290.298 386.133 289.851 386.493 289.278 386.76C288.704 387.027 288.044 387.16 287.298 387.16ZM300.621 374.16V379.38H305.921V380.54H300.621V385.84H306.521V387H299.221V373H306.521V374.16H300.621ZM314.4 375.88C315.706 375.88 316.773 376.287 317.6 377.1C318.426 377.9 318.84 379.067 318.84 380.6V387H317.46V380.76C317.46 379.573 317.16 378.667 316.56 378.04C315.973 377.413 315.166 377.1 314.14 377.1C313.086 377.1 312.246 377.433 311.62 378.1C310.993 378.767 310.68 379.747 310.68 381.04V387H309.28V376.08H310.68V377.94C311.026 377.273 311.526 376.767 312.18 376.42C312.833 376.06 313.573 375.88 314.4 375.88ZM326.516 375.92C327.543 375.92 328.436 376.16 329.196 376.64C329.956 377.12 330.503 377.727 330.836 378.46V376.08H332.236V387.28C332.236 388.28 332.016 389.167 331.576 389.94C331.149 390.713 330.549 391.307 329.776 391.72C329.003 392.147 328.123 392.36 327.136 392.36C325.736 392.36 324.569 392.027 323.636 391.36C322.716 390.693 322.143 389.787 321.916 388.64H323.296C323.536 389.4 323.989 390.007 324.656 390.46C325.336 390.913 326.163 391.14 327.136 391.14C327.843 391.14 328.476 390.987 329.036 390.68C329.596 390.387 330.036 389.947 330.356 389.36C330.676 388.773 330.836 388.08 330.836 387.28V384.58C330.489 385.327 329.936 385.947 329.176 386.44C328.429 386.92 327.543 387.16 326.516 387.16C325.516 387.16 324.616 386.927 323.816 386.46C323.029 385.993 322.409 385.333 321.956 384.48C321.516 383.627 321.296 382.64 321.296 381.52C321.296 380.4 321.516 379.42 321.956 378.58C322.409 377.727 323.029 377.073 323.816 376.62C324.616 376.153 325.516 375.92 326.516 375.92ZM330.836 381.54C330.836 380.66 330.656 379.887 330.296 379.22C329.936 378.553 329.443 378.04 328.816 377.68C328.203 377.32 327.523 377.14 326.776 377.14C326.003 377.14 325.309 377.313 324.696 377.66C324.083 378.007 323.596 378.513 323.236 379.18C322.889 379.833 322.716 380.613 322.716 381.52C322.716 382.413 322.889 383.2 323.236 383.88C323.596 384.547 324.083 385.06 324.696 385.42C325.309 385.767 326.003 385.94 326.776 385.94C327.523 385.94 328.203 385.76 328.816 385.4C329.443 385.04 329.936 384.527 330.296 383.86C330.656 383.193 330.836 382.42 330.836 381.54ZM345.312 380.98C345.312 381.46 345.299 381.827 345.272 382.08H336.212C336.252 382.907 336.452 383.613 336.812 384.2C337.172 384.787 337.645 385.233 338.232 385.54C338.819 385.833 339.459 385.98 340.152 385.98C341.059 385.98 341.819 385.76 342.432 385.32C343.059 384.88 343.472 384.287 343.672 383.54H345.152C344.885 384.607 344.312 385.48 343.432 386.16C342.565 386.827 341.472 387.16 340.152 387.16C339.125 387.16 338.205 386.933 337.392 386.48C336.579 386.013 335.939 385.36 335.472 384.52C335.019 383.667 334.792 382.673 334.792 381.54C334.792 380.407 335.019 379.413 335.472 378.56C335.925 377.707 336.559 377.053 337.372 376.6C338.185 376.147 339.112 375.92 340.152 375.92C341.192 375.92 342.099 376.147 342.872 376.6C343.659 377.053 344.259 377.667 344.672 378.44C345.099 379.2 345.312 380.047 345.312 380.98ZM343.892 380.94C343.905 380.127 343.739 379.433 343.392 378.86C343.059 378.287 342.599 377.853 342.012 377.56C341.425 377.267 340.785 377.12 340.092 377.12C339.052 377.12 338.165 377.453 337.432 378.12C336.699 378.787 336.292 379.727 336.212 380.94H343.892ZM357.753 380.98C357.753 381.46 357.74 381.827 357.713 382.08H348.653C348.693 382.907 348.893 383.613 349.253 384.2C349.613 384.787 350.087 385.233 350.673 385.54C351.26 385.833 351.9 385.98 352.593 385.98C353.5 385.98 354.26 385.76 354.873 385.32C355.5 384.88 355.913 384.287 356.113 383.54H357.593C357.327 384.607 356.753 385.48 355.873 386.16C355.007 386.827 353.913 387.16 352.593 387.16C351.567 387.16 350.647 386.933 349.833 386.48C349.02 386.013 348.38 385.36 347.913 384.52C347.46 383.667 347.233 382.673 347.233 381.54C347.233 380.407 347.46 379.413 347.913 378.56C348.367 377.707 349 377.053 349.813 376.6C350.627 376.147 351.553 375.92 352.593 375.92C353.633 375.92 354.54 376.147 355.313 376.6C356.1 377.053 356.7 377.667 357.113 378.44C357.54 379.2 357.753 380.047 357.753 380.98ZM356.333 380.94C356.347 380.127 356.18 379.433 355.833 378.86C355.5 378.287 355.04 377.853 354.453 377.56C353.867 377.267 353.227 377.12 352.533 377.12C351.493 377.12 350.607 377.453 349.873 378.12C349.14 378.787 348.733 379.727 348.653 380.94H356.333ZM365.435 375.88C366.742 375.88 367.808 376.287 368.635 377.1C369.462 377.9 369.875 379.067 369.875 380.6V387H368.495V380.76C368.495 379.573 368.195 378.667 367.595 378.04C367.008 377.413 366.202 377.1 365.175 377.1C364.122 377.1 363.282 377.433 362.655 378.1C362.028 378.767 361.715 379.747 361.715 381.04V387H360.315V376.08H361.715V377.94C362.062 377.273 362.562 376.767 363.215 376.42C363.868 376.06 364.608 375.88 365.435 375.88ZM373.671 374.02C373.391 374.02 373.151 373.92 372.951 373.72C372.751 373.52 372.651 373.273 372.651 372.98C372.651 372.687 372.751 372.447 372.951 372.26C373.151 372.06 373.391 371.96 373.671 371.96C373.951 371.96 374.191 372.06 374.391 372.26C374.591 372.447 374.691 372.687 374.691 372.98C374.691 373.273 374.591 373.52 374.391 373.72C374.191 373.92 373.951 374.02 373.671 374.02ZM374.371 376.08V387H372.971V376.08H374.371ZM387.421 380.98C387.421 381.46 387.408 381.827 387.381 382.08H378.321C378.361 382.907 378.561 383.613 378.921 384.2C379.281 384.787 379.755 385.233 380.341 385.54C380.928 385.833 381.568 385.98 382.261 385.98C383.168 385.98 383.928 385.76 384.541 385.32C385.168 384.88 385.581 384.287 385.781 383.54H387.261C386.995 384.607 386.421 385.48 385.541 386.16C384.675 386.827 383.581 387.16 382.261 387.16C381.235 387.16 380.315 386.933 379.501 386.48C378.688 386.013 378.048 385.36 377.581 384.52C377.128 383.667 376.901 382.673 376.901 381.54C376.901 380.407 377.128 379.413 377.581 378.56C378.035 377.707 378.668 377.053 379.481 376.6C380.295 376.147 381.221 375.92 382.261 375.92C383.301 375.92 384.208 376.147 384.981 376.6C385.768 377.053 386.368 377.667 386.781 378.44C387.208 379.2 387.421 380.047 387.421 380.98ZM386.001 380.94C386.015 380.127 385.848 379.433 385.501 378.86C385.168 378.287 384.708 377.853 384.121 377.56C383.535 377.267 382.895 377.12 382.201 377.12C381.161 377.12 380.275 377.453 379.541 378.12C378.808 378.787 378.401 379.727 378.321 380.94H386.001ZM391.383 378.02C391.689 377.34 392.156 376.813 392.783 376.44C393.423 376.067 394.203 375.88 395.123 375.88V377.34H394.743C393.729 377.34 392.916 377.613 392.303 378.16C391.689 378.707 391.383 379.62 391.383 380.9V387H389.983V376.08H391.383V378.02Z" fill="#383E45"/>
<defs>
<clipPath id="clip0">
<rect width="253.602" height="483.203" fill="white"/>
</clipPath>
</defs>
</svg>
