<svg width="254" height="484" viewBox="0 0 254 484" fill="none" xmlns="http://www.w3.org/2000/svg">
<g clip-path="url(#clip0)">
<path d="M31.351 364.584L24.9555 388.455L18.1537 441.565L14.74 483.197L0.218384 483.203L0.356126 456.781L0.45745 343.939L31.351 364.584Z" fill="#0B1728"/>
<path d="M55.9602 174.941L49.4143 192.155L48.458 227.29L72.2583 231.133C72.2583 231.133 114.595 220.563 100.996 206.637C99.34 205.012 98.0435 203.055 97.1809 200.903C95.5418 196.545 96.1478 186.639 98.2688 183.252L101.073 177.727L83.3081 167.093C81.9371 172.255 83.3081 167.093 83.3081 167.093C77.9167 176.174 64.5608 174.947 60.5112 175.328C58.9854 175.5 57.4366 175.369 55.9602 174.941Z" fill="#DEAA87"/>
<path opacity="0.1" d="M55.9603 174.941L49.4144 192.154L48.4581 227.29L72.2584 231.133C72.2584 231.133 114.595 220.563 100.996 206.637C99.3391 205.012 98.0396 203.059 97.181 200.903C95.0511 210.675 72.6658 219.658 72.6658 219.658C69.99 220.818 67.6127 217.527 67.6127 217.527C60.6636 211.507 60.4926 180.461 60.5113 175.328C58.9836 175.501 57.4368 175.369 55.9603 174.941Z" fill="black"/>
<path d="M67.8183 211.014C67.8183 211.014 75.7248 204.372 78.5705 202.995C85.8489 199.476 94.7054 204.175 96.8551 199.903L113.624 223.505C113.624 223.505 126.744 229.925 118.802 253.368C117.445 257.257 114.706 266.175 113.189 270.071C111.9 273.028 111.876 273.5 108.624 282.581C103.638 296.503 89.646 322.148 76.6085 317.458C63.5697 312.768 60.3049 308.934 60.3049 308.934C60.3049 308.934 32.4322 356.378 35.6614 365.893C38.8893 375.407 16.2517 359.303 16.2517 359.303C16.2517 359.303 12.207 354.595 0.823527 349.543C-0.289299 349.05 1.36365 305.072 0.029032 304.233C1.17627 302.167 0.435229 253.274 0.435229 253.274C9.82819 241.796 3.52585 248.005 3.52585 248.005L1.6992 195.288C1.6992 195.288 8.65166 172.421 30.6005 173.144C52.5493 173.866 60.0395 175.355 60.0395 175.355C60.0395 175.355 61.7698 195.077 69.3457 201.656L67.8183 211.014Z" fill="#162D50"/>
<path d="M18.7918 281.162C18.7918 281.162 51.1803 292.044 57.489 287.857C63.7977 283.67 79.271 275.153 79.271 275.153L78.8305 269.297L58.4174 271.368C58.4174 271.368 33.9639 274.043 25.5355 270.5C17.1165 266.944 18.7916 281.162 18.7916 281.162L18.7918 281.162Z" fill="#DEAA87"/>
<path d="M16.2726 237.692L6.64232 252.919L9.08803 254.466C21.175 262.108 31.1176 272.701 37.9791 285.247L40.9575 290.687L41.7511 292.163L60.8441 279.402L57.6533 268.142C57.6533 268.142 57.5218 268.058 57.2762 267.904C55.3597 266.945 47.1593 262.661 44.5573 259.463C42.0973 256.409 40.3361 250.566 29.5951 247.094C24.3113 245.377 17.203 248.011 13.7901 243.632L16.2726 237.692Z" fill="#DEAA87"/>
<path d="M58.5277 175.048C58.5277 175.048 29.8187 171.728 30.555 173.133L32.8926 178.889L3.48035 247.995L1.17636 302.167L60.1215 205.294C55.3542 197.026 58.5329 175.052 58.5329 175.052L58.5277 175.048Z" fill="#2C5AA0"/>
<path d="M99.4512 203.512C95.4107 204.729 92.2127 206.786 81.0506 209.257L0.384446 349.116C10.8697 354.502 16.2158 360.292 16.2158 360.292C16.2158 360.292 39.09 376.907 35.8934 367.34C32.6641 357.825 60.1386 308.234 60.1386 308.234L59.9685 306.231C59.9685 306.231 49.3386 288.696 64.1013 289.639C66.9831 289.838 58.5668 273.215 58.5668 273.215C60.0834 269.319 78.1645 272.036 79.5132 268.159C87.4553 244.717 113.259 222.697 113.259 222.697L99.4512 203.512Z" fill="#2C5AA0"/>
<path opacity="0.999" d="M46.1629 173.798L53.9236 174.411C53.9236 174.411 48.3334 208.031 46.4823 210.807L0.16555 286.534L4.7635e-05 268.688L45.792 195.212L46.1629 173.798Z" fill="#B3B3B3"/>
<path opacity="0.999" d="M106.782 213.744L102.29 207.095L87.4475 217.671L35.4507 297.89L4.76464 353.121L11.9978 357.695L42.1667 304.592L94.5765 223.172L106.782 213.744Z" fill="#B3B3B3"/>
<path d="M68.707 172.52L58.8406 174.03L60.1215 205.294L69.988 203.784L68.707 172.52Z" fill="#162D50"/>
<path d="M73.6064 203.376L75.2418 214.283L100.077 204.612L97.9943 195.479L73.6064 203.376Z" fill="#162D50"/>
<path d="M47.3084 260.967C47.3084 260.967 38.4183 280.489 29.2949 284.791C29.2949 284.791 48.3247 301.519 61.8683 309.002L78.7453 282.763L47.3084 260.967Z" fill="#162D50"/>
<path d="M52.8035 30.4564C86.372 12.4144 65.8084 25.9808 84.922 19.8678C84.922 19.8678 88.9527 14.0404 97.8884 14.6891C111.921 15.7078 106.561 43.8193 106.561 43.8193C86.8884 67.548 0.529053 330.186 0.529053 330.186L1.51379 119.265C1.51379 119.265 35.6355 48.1281 52.8035 30.4564Z" fill="#BCD35F"/>
<path d="M221.487 70.2404L100.611 31.4366L90.1564 62.7128L209.742 103.731L221.487 70.2404Z" fill="#BCD35F"/>
<path d="M93.3705 10.7316C93.3705 10.7316 87.974 7.8699 78.4647 4.82148C72.4243 2.88508 63.2147 4.79296 57.0239 6.31111C44.0378 9.49602 43.4785 16.0268 34.9681 22.8187C32.6292 24.6854 19.9214 31.9549 18.2438 45.923C16.9565 56.6413 18.0018 62.435 27.9662 76.9804C36.8437 89.9392 49.5036 112.164 39.4347 132.365C36.0764 139.103 2.60693 205.623 2.60693 205.623" stroke="#373E48" stroke-width="4.96674"/>
<path d="M30.5678 144.456L35.3961 146.784C36.6477 147.388 37.0211 149.184 36.2334 150.811L30.9033 161.825C30.1156 163.453 28.4739 164.277 27.2223 163.674L22.394 161.346C21.1425 160.742 20.769 158.946 21.5567 157.319L26.8869 146.305C27.6746 144.677 29.3163 143.853 30.5678 144.456Z" fill="#6F917C"/>
<path opacity="0.15" d="M93.7697 68.0073L84.4454 90.8199L64.5391 143.214L36.5128 223.525L21.101 268.753C21.101 268.753 2.09099 328.646 0.529047 330.186L0.00012207 268.688C4.35823 264.329 17.8771 237.95 26.5963 221.128C32.1053 210.5 40.1243 185.962 51.365 133.827C55.8759 112.906 51.4853 88.8693 53.2532 86.8438C56.173 81.9881 73.022 74.2403 67.729 86.1L93.7697 68.0073Z" fill="black"/>
<path d="M57.8111 0.952532C49.6441 -1.87698 40.8025 2.39414 37.9612 10.5359L28.8057 36.7777C25.9647 44.9197 30.2375 53.7765 38.3822 56.6156L56.934 78.7279C63.1714 80.9205 91.8382 70.9298 95.9119 66.1624L108.854 70.7082L121.299 35.0265L108.769 30.6665C109.136 23.9203 105.066 17.4614 98.318 15.1287L57.8111 0.952532Z" fill="#BCD35F"/>
<path d="M81.9679 76.1777C79.6469 79.1618 76.7609 81.6596 73.4747 83.5284C70.1884 85.3972 66.5663 86.6003 62.815 87.0693C59.0637 87.5382 55.2568 87.2636 51.6117 86.2613C47.9665 85.259 44.5545 83.5486 41.5703 81.2276C35.5436 76.5402 31.6259 69.6507 30.6788 62.0747C29.7318 54.4987 31.8331 46.8567 36.5205 40.83C41.2079 34.8033 48.0974 30.8855 55.6734 29.9385C63.2494 28.9915 70.8913 31.0928 76.918 35.7802C82.9447 40.4676 86.8625 47.3571 87.8096 54.9331C88.7566 62.5091 86.6553 70.151 81.9679 76.1777Z" fill="#373E48"/>
<path d="M217.948 141.54L218.439 157.92L246.441 157.082L245.95 140.702L217.948 141.54Z" fill="#BCD35F"/>
<path d="M211.675 157.954L211.937 166.564L253.603 165.337L253.34 156.728L211.675 157.954Z" fill="#BCD35F"/>
<path d="M215.352 166.193L215.615 174.953L249.967 173.924L249.705 165.165L215.352 166.193Z" fill="#1C2224"/>
<path d="M222.534 174.367L228.658 192.72L229.813 218.562L238.129 218.316C237.35 215.183 236.908 191.824 236.908 191.824L244.195 173.297L222.534 174.367Z" fill="#373E48"/>
<path d="M218.572 110.491L222.499 152.26L242.769 154.587L243.319 107.236L218.572 110.491Z" fill="#BCD35F"/>
<path d="M206.126 97.4456C206.942 100.488 208.349 103.341 210.267 105.84C212.185 108.339 214.577 110.436 217.305 112.011C220.034 113.585 223.046 114.607 226.169 115.018C229.293 115.429 232.467 115.22 235.51 114.404C238.553 113.588 241.405 112.181 243.904 110.263C246.403 108.345 248.5 105.953 250.075 103.225C251.649 100.496 252.671 97.4839 253.082 94.3605C253.493 91.237 253.284 88.0632 252.468 85.0203C250.821 78.8748 246.799 73.6357 241.289 70.4553C235.778 67.2749 229.23 66.4139 223.084 68.0616C220.041 68.8774 217.189 70.2846 214.69 72.2029C212.191 74.1211 210.094 76.5127 208.519 79.2413C206.945 81.9699 205.923 84.9819 205.512 88.1054C205.101 91.2289 205.31 94.4027 206.126 97.4456Z" fill="#BCD35F"/>
<path d="M243.517 105.574C241.741 107.372 239.628 108.803 237.3 109.784C234.971 110.766 232.472 111.279 229.945 111.294C227.418 111.31 224.912 110.827 222.572 109.875C220.231 108.922 218.101 107.518 216.303 105.742C214.505 103.966 213.075 101.853 212.094 99.5248C211.112 97.1961 210.599 94.6969 210.584 92.1699C210.568 89.6429 211.05 87.1376 212.003 84.797C212.956 82.4565 214.36 80.3264 216.136 78.5286C219.722 74.8977 224.604 72.8402 229.708 72.8088C234.811 72.7774 239.718 74.7746 243.349 78.3611C246.98 81.9476 249.038 86.8296 249.069 91.9331C249.1 97.0366 247.103 101.944 243.517 105.574Z" fill="#373E48"/>
<path opacity="0.15" d="M111.33 39.8008L107.703 35.07C107.703 35.07 106.502 25.9735 102.09 22.5591C89.397 12.7383 67.2659 4.20936 51.2232 4.63601C46.3931 4.76449 37.7756 10.0472 37.7756 10.0472L44.1926 1.61578L52.4784 3.05176e-05C52.4784 3.05176e-05 54.8973 0.239009 62.8335 2.62409C64.3849 2.25436 93.0089 13.4155 93.0089 13.4155L100.799 17.8044L105.286 22.0586L112.849 32.0084L121.299 35.0265L120.133 37.8884C120.133 37.8884 116.05 35.5619 111.33 39.8008Z" fill="black"/>
<path d="M93.3705 10.7316L98.0259 13.2479C102.852 15.8566 107.421 19.8397 108.658 23.6746C110.678 29.9434 109.928 36.1927 111.433 43.4896C112.531 48.8141 112.272 48.9716 113.306 50.8648C116.645 56.9835 122.232 59.2829 126.693 61.4787C135.217 65.6743 148.931 70.5081 160.295 74.4356C166.561 76.601 181.002 80.2324 192.345 85.3228C196.532 87.2013 199.764 97.3936 202.606 106.371C203.526 109.28 206.051 112.466 208.568 114.697C212.944 118.574 224.865 119.316 228.989 121.106C232.126 122.468 231.836 131.777 232.199 139.074C232.277 140.647 229.533 148.218 225.495 150.434C220.318 153.275 209.784 153.882 209.784 153.882C209.784 153.882 202.008 154.962 199.221 157.767C195.436 161.577 196.879 167.522 199.377 169.115C204.333 172.276 215.733 171.185 215.733 171.185" stroke="#373E48" stroke-width="4.96674"/>
<path d="M119.613 61.5826L121.459 56.5504C121.938 55.246 123.689 54.6993 125.385 55.3246L136.866 59.5561C138.563 60.1814 139.543 61.735 139.065 63.0394L137.218 68.0716C136.74 69.3759 134.989 69.9226 133.292 69.2973L121.811 65.0658C120.115 64.4405 119.134 62.887 119.613 61.5826Z" fill="#6F917C"/>
<path d="M174.882 81.4617L176.728 76.4295C177.207 75.1251 178.958 74.5784 180.655 75.2037L192.135 79.4352C193.832 80.0606 194.813 81.6141 194.334 82.9185L192.488 87.9507C192.009 89.2551 190.258 89.8018 188.561 89.1764L177.08 84.9449C175.384 84.3196 174.403 82.7661 174.882 81.4617Z" fill="#6F917C"/>
<path d="M229.088 125.281L233.662 125.051C235.05 124.981 236.238 126.379 236.326 128.185L236.57 133.166C236.658 134.972 235.612 136.482 234.224 136.552L229.65 136.782C228.262 136.852 227.074 135.454 226.986 133.648L226.742 128.667C226.654 126.861 227.7 125.351 229.088 125.281H229.088Z" fill="#536C5D"/>
<path d="M212.359 167.193L215.362 167.042C216.273 166.996 217.053 167.914 217.111 169.1L217.271 172.37C217.329 173.556 216.642 174.547 215.731 174.593L212.728 174.744C211.817 174.79 211.037 173.872 210.979 172.687L210.819 169.416C210.761 168.231 211.448 167.239 212.359 167.193V167.193Z" fill="#536C5D"/>
<path opacity="0.15" d="M218.784 112.797L215.877 111.098L212.448 108.499L208.516 103.348L164.968 87.8931L109.367 69.3036L108.854 70.7082L95.9119 66.1623L81.9679 76.1777L77.7862 80.8239L71.0108 84.7323L62.5252 87.1049L53.6125 86.7547C53.6125 86.7547 91.5268 51.7319 81.6008 40.5167L92.1546 53.8621L102.732 54.5743C105.59 60.7726 127.005 69.3238 147.628 76.2738C158.972 80.0969 174.645 85.9873 182.793 87.8983C184.345 87.5285 216.212 97.2034 216.212 97.2034C223.225 108.379 242.523 107.126 239.997 108.253L233.566 111.123C233.566 111.123 227.76 114.62 226.215 117.463C224.297 120.992 224.575 129.402 224.575 129.402L222.262 149.196L219.545 165.955L211.937 166.564L211.675 157.954L218.439 157.92L217.948 141.54L221.664 141.563L218.784 112.797Z" fill="black"/>
<path d="M102.117 115.335C112.169 116.463 118.711 130.166 117.043 146.053L116.659 149.729C116.688 149.731 116.716 149.734 116.744 149.739C117.05 149.773 117.337 149.954 117.588 150.27C117.839 150.587 118.05 151.034 118.207 151.585C118.364 152.136 118.466 152.78 118.506 153.482C118.546 154.183 118.523 154.927 118.439 155.672C118.27 157.174 117.862 158.585 117.305 159.597C116.749 160.609 116.09 161.138 115.472 161.068C113.777 176.924 103.304 188.873 93.2645 187.746L86.0394 186.935C76.3429 185.846 68.9754 169.813 70.0538 154.444C69.9425 154.451 69.8328 154.438 69.7257 154.407C69.4193 154.373 69.1324 154.193 68.8813 153.876C68.6303 153.559 68.42 153.112 68.2626 152.561C68.1051 152.01 68.0036 151.366 67.9638 150.664C67.9239 149.963 67.9466 149.219 68.0305 148.474C68.1138 147.729 68.2567 146.998 68.4511 146.323C68.6454 145.648 68.8874 145.042 69.1631 144.54C69.4388 144.037 69.7429 143.648 70.0579 143.395C70.3729 143.142 70.6927 143.03 70.999 143.064C71.0953 143.061 71.1902 143.072 71.2833 143.096L71.5375 140.831C73.3075 124.955 82.8523 113.058 92.9062 114.187L102.137 115.223L102.117 115.335Z" fill="#DEAA87"/>
<path opacity="0.6" d="M70.0374 149.162C69.7623 149.104 69.7177 148.147 69.9379 147.025C70.158 145.902 70.5595 145.039 70.8346 145.097C71.1097 145.155 71.1543 146.112 70.9341 147.234C70.714 148.357 70.3125 149.22 70.0374 149.162Z" fill="black"/>
<path opacity="0.6" d="M116.558 156.27C116.839 156.275 117.095 155.352 117.129 154.208C117.163 153.065 116.963 152.134 116.682 152.13C116.401 152.125 116.145 153.048 116.111 154.191C116.077 155.335 116.277 156.265 116.558 156.27Z" fill="black"/>
<path d="M97.5625 112.272C110.219 113.693 118.456 126.546 117.568 141.195L117.186 147.508C116.561 151.599 116.742 151.577 116.348 155.081C115.955 158.585 115.947 158.656 115.528 161.758L114.351 166.77C113.655 169.742 111.691 174.808 109.489 178.038C107.628 180.765 105.229 183.132 102.047 185.411C97.695 188.143 96.4681 188.675 92.9915 188.214L85.8372 187.254C83.4016 186.824 78.9142 184.068 76.5452 180.354C74.05 176.468 74.8752 177.801 73.5463 175.129C71.6325 171.295 68.6283 163.832 69.3235 157.64L69.3684 157.232C69.9202 153.075 69.8908 153.086 70.2715 149.695C70.6507 146.317 70.6507 146.317 70.9259 143.355L71.7458 136.051C73.3843 121.457 84.8924 110.85 97.5499 112.271L97.5625 112.272ZM99.4695 128.632L92.0578 128.214L82.7729 127L79.3254 129.364L78.3614 133.673L76.7906 137.929L73.4079 140.77L72.1643 145.233L70.6814 159.331L70.9335 164.233L72.8085 169.631L76.1398 176.731L79.5872 181.579L83.389 184.514L86.2179 185.045C87.1963 184.784 89.769 180.185 90.0653 178.067L91.004 178.172C91.2263 179.451 90.7053 184.309 92.1157 185.735L96.376 186.071L99.823 183.979L105.764 180.057L108.143 177.046L110.581 172.845L112.405 168.69L113.859 163.68L115.298 149.591L114.089 143.626L112.383 140.471C112.32 138.796 112.526 137.694 112.624 136.465C112.682 135.688 112.847 133.968 112.66 133.163C112.499 132.475 111.89 132.35 111.89 132.35C111.224 131.976 111.448 131.63 110.738 131.28C110.337 131.078 109.935 130.905 109.53 130.731C106.608 129.533 103.509 129.157 99.4578 128.66L99.4695 128.632Z" fill="#333333"/>
<path d="M100.342 155.989C99.4104 155.884 98.7503 154.953 98.8675 153.91C98.9846 152.866 99.8347 152.105 100.766 152.209C101.697 152.314 102.358 153.245 102.24 154.288C102.123 155.332 101.273 156.093 100.342 155.989Z" fill="black"/>
<path d="M86.8127 154.247C85.8813 154.143 85.2213 153.212 85.3384 152.168C85.4556 151.124 86.3056 150.363 87.237 150.468C88.1684 150.572 88.8285 151.503 88.7113 152.547C88.5941 153.59 87.7441 154.352 86.8127 154.247Z" fill="black"/>
<path d="M89.815 166.031L95.2029 166.635C95.3333 166.65 95.4271 166.768 95.4125 166.898L95.3712 167.265C95.3566 167.396 95.239 167.49 95.1087 167.475L89.7207 166.87C89.5904 166.855 89.4966 166.738 89.5112 166.608L89.5525 166.24C89.5671 166.11 89.6846 166.016 89.815 166.031Z" fill="black"/>
<path d="M96.79 146.729L104.769 147.625C105.045 147.656 105.243 147.905 105.212 148.181L105.125 148.958C105.094 149.234 104.845 149.433 104.569 149.402L96.5906 148.506C96.3147 148.475 96.1162 148.226 96.1471 147.95L96.2344 147.173C96.2654 146.897 96.5142 146.698 96.79 146.729Z" fill="black"/>
<path d="M83.9158 145.106L91.867 145.998C92.1505 146.03 92.3546 146.286 92.3227 146.569L92.233 147.369C92.2012 147.652 91.9455 147.856 91.662 147.824L83.7108 146.932C83.4273 146.9 83.2233 146.644 83.2551 146.361L83.3448 145.561C83.3767 145.278 83.6323 145.074 83.9158 145.106Z" fill="black"/>
<path d="M99.9895 171.962C99.7871 173.737 98.7476 175.345 97.0994 176.43C95.4512 177.516 93.3289 177.991 91.1988 177.752C89.0686 177.513 87.1046 176.579 85.7381 175.155C84.3716 173.731 83.7144 171.933 83.9108 170.157L99.9895 171.962Z" fill="#F2F2F2"/>
<path d="M99.4142 172.078C99.2349 173.648 98.2664 175.065 96.7212 176.015C95.1761 176.966 93.1807 177.374 91.1732 177.148C89.1657 176.923 87.3103 176.083 86.0144 174.813C84.7185 173.544 84.0881 171.948 84.2616 170.376L99.4142 172.078Z" fill="white"/>
<path d="M99.4008 171.02C99.3304 171.012 99.4116 170.808 99.4264 170.781C99.8257 170.37 100.507 170.66 100.973 171.154C101.498 171.726 101.3 172.445 100.927 173.03C100.915 173.029 100.455 173.604 100.36 173.337C100.319 173.19 100.715 172.379 100.729 172.31C100.835 171.737 100.851 171.981 100.677 171.434C100.287 171.077 100.055 171.023 99.59 171.042L99.4008 171.02Z" fill="#808080"/>
<path d="M84.4968 169.504C84.5671 169.512 84.5755 169.313 84.5641 169.283C84.2659 168.794 83.58 168.859 83.0158 169.252C82.3762 169.693 82.2982 170.312 82.5339 170.965C82.5462 170.967 82.8462 171.242 82.8872 171.219C82.9858 171.23 82.8646 170.66 82.8582 170.588C82.812 169.985 82.8107 169.999 83.2937 169.668C83.7269 169.375 83.8551 169.389 84.303 169.525L84.4968 169.504Z" fill="#808080"/>
<path d="M103.759 110.432C113.457 111.52 120.145 123.344 120.257 138.035L71.4838 132.559C74.783 118.251 84.031 108.217 93.7288 109.306L103.759 110.432Z" fill="#2C5AA0"/>
<path d="M96.8911 106.037L101.018 106.501C102.069 106.619 102.825 107.566 102.707 108.616L102.42 111.176C102.302 112.226 101.354 112.982 100.304 112.864L96.1766 112.401C95.126 112.283 94.3699 111.336 94.4878 110.285L94.7751 107.726C94.8931 106.675 95.8404 105.919 96.8911 106.037Z" fill="#2C5AA0"/>
<path d="M83.4994 107.874L86.4627 108.207C87.3322 108.304 87.958 109.088 87.8604 109.958L86.9604 117.974C86.8628 118.844 86.0787 119.47 85.2092 119.372L82.246 119.039C81.3764 118.942 80.7507 118.158 80.8483 117.288L81.7483 109.272C81.8459 108.402 82.6299 107.776 83.4994 107.874Z" fill="#2C5AA0"/>
<path d="M110.561 110.778L114.256 111.193C114.924 111.268 115.404 111.87 115.329 112.537L114.347 121.286C114.272 121.953 113.67 122.434 113.003 122.359L109.307 121.944C108.64 121.869 108.16 121.267 108.235 120.6L109.217 111.851C109.292 111.184 109.893 110.703 110.561 110.778Z" fill="#2C5AA0"/>
<path opacity="0.61" d="M120.622 137.904L109.777 130.944L84.3183 128.086L71.7748 132.492L120.622 137.904Z" fill="#162D50"/>
<path opacity="0.65" d="M72.3686 142.563L76.4968 145.662L76.509 145.664C77.6525 145.265 79.3552 145.356 81.2705 145.571C82.3696 145.695 83.5391 145.826 84.7058 145.957C87.7836 146.302 90.2705 147.266 91.5111 148.744C91.5111 148.744 92.5934 149.55 93.2094 149.776C93.506 149.952 93.8353 149.989 94.1677 149.883C94.8309 149.815 96.1107 149.446 96.1107 149.446C98.3588 148.259 101.037 147.876 103.483 148.122C104.65 148.253 105.819 148.384 106.917 148.507C108.794 148.718 110.445 149.046 111.482 149.604L115.297 149.477L115.249 150.155L112.567 151.764C112.189 154.757 108.746 158.004 104.112 158.695C102.281 158.974 99.8809 158.405 98.5184 157.925C97.1192 157.44 96.1671 156.236 95.4996 155.149C95.2524 154.736 95.0446 153.972 94.9225 153.232C94.8122 152.578 94.5241 152.161 94.1104 151.872C93.8029 151.652 93.3741 151.576 93.0184 151.749C92.5767 151.913 92.3162 152.24 92.0169 152.862C91.784 153.335 91.1733 154.335 90.9322 154.579C90.0403 155.491 88.8449 156.454 87.3731 156.616C85.9379 156.783 83.4714 156.805 81.7477 156.127C78.1473 154.711 75.7237 151.788 75.1485 149.13L72.2265 143.957L72.3686 142.563Z" fill="white"/>
</g>
<defs>
<clipPath id="clip0">
<rect width="253.602" height="483.203" fill="white"/>
</clipPath>
</defs>
</svg>
