<svg width="687" height="587" viewBox="0 0 687 587" fill="none" xmlns="http://www.w3.org/2000/svg">
<g clip-path="url(#clip0)">
<path opacity="0.09" d="M25.6871 585.14L193.099 490.589L435.573 544.452L625.115 586.554L25.6871 585.14Z" fill="#1C2224"/>
<path d="M333.489 516.62C333.489 516.62 333.22 516.77 332.76 517C333.008 516.874 333.251 516.747 333.489 516.62Z" fill="url(#paint0_linear)"/>
<path d="M275.585 353.968C288.421 360.659 304.735 432.335 304.735 432.335C303.399 449.708 305.003 476.459 310.351 490.901C313.593 500.075 314.957 509.807 314.362 519.511C316.231 521.086 318.929 521.846 321.737 521.398C329.374 520.163 338.43 513.091 338.43 513.091C338.43 513.091 335.488 434.996 333.347 432.064C331.209 429.119 333.347 412.275 333.347 412.275L329.874 384.995C329.874 384.995 330.407 338.726 325.324 330.705C320.94 323.783 319.929 311.608 319.732 308.405C319.705 307.903 319.691 307.618 319.691 307.618L311.954 298.348C303.744 310.355 301.614 303.163 294.095 314.824C290.786 319.955 287.041 320.115 284.023 326.027C281.482 331.002 275.585 353.968 275.585 353.968Z" fill="#0B1728"/>
<path opacity="0.1" d="M304.739 432.322C303.403 449.708 305.007 476.446 310.355 490.887C313.598 500.058 314.962 509.788 314.366 519.498C316.235 521.086 318.835 521.357 321.642 520.896C320.029 509.617 313.155 461.028 308.751 422.631C303.736 378.914 280.27 348.824 280.27 348.824L275.589 353.968C288.425 360.659 304.739 432.322 304.739 432.322Z" fill="black"/>
<path d="M311.183 539.694C314.797 547.487 319.46 549.016 322.2 549.392C322.2 549.392 339.547 551.969 342.708 539.907C344.693 538.152 342.542 528.553 340.1 521.457C338.152 515.795 338.43 513.092 338.43 513.092C338.43 513.092 338.063 488.431 337.064 493.498C337.064 493.498 314.846 499.423 311.373 493.003C311.373 493.003 314.655 516.684 314.362 519.511C314.362 519.511 310.407 547.463 311.18 539.721L311.183 539.694Z" fill="black"/>
<path d="M347.536 168.552L341.788 183.669L340.948 214.523L361.848 217.898C361.848 217.898 399.026 208.615 387.085 196.387C385.63 194.96 384.492 193.241 383.734 191.351C382.295 187.524 382.827 178.826 384.689 175.851L387.152 170.999L371.552 161.661C370.348 166.194 371.552 161.661 371.552 161.661C366.817 169.635 355.089 168.558 351.533 168.893C350.193 169.044 348.833 168.929 347.536 168.552Z" fill="#DEAA87"/>
<path opacity="0.1" d="M347.536 168.553L341.788 183.669L340.948 214.523L361.848 217.898C361.848 217.898 399.026 208.616 387.085 196.387C385.629 194.96 384.488 193.245 383.734 191.351C381.864 199.932 362.206 207.821 362.206 207.821C359.856 208.839 357.769 205.95 357.769 205.95C351.666 200.663 351.516 173.4 351.533 168.893C350.191 169.044 348.833 168.929 347.536 168.553Z" fill="black"/>
<path d="M357.949 200.231C357.949 200.231 364.892 194.398 367.391 193.189C373.783 190.098 381.56 194.224 383.448 190.473L398.174 211.199C398.174 211.199 409.695 216.837 402.721 237.423C401.529 240.838 399.124 248.669 397.792 252.091C396.66 254.688 396.638 255.102 393.783 263.076C389.404 275.302 377.117 297.822 365.668 293.704C354.218 289.585 351.351 286.218 351.351 286.218C351.351 286.218 326.875 327.881 329.711 336.237C332.545 344.592 312.666 330.45 312.666 330.45C312.666 330.45 309.114 326.316 299.118 321.879C298.141 321.446 299.592 282.827 298.42 282.09C299.428 280.276 298.777 237.341 298.777 237.341C307.025 227.262 301.491 232.714 301.491 232.714L299.887 186.42C299.887 186.42 305.992 166.339 325.267 166.974C344.541 167.609 351.118 168.916 351.118 168.916C351.118 168.916 352.638 186.235 359.291 192.012L357.949 200.231Z" fill="#162D50"/>
<path d="M314.897 261.831C314.897 261.831 343.339 271.386 348.879 267.71C354.419 264.033 368.006 256.554 368.006 256.554L367.62 251.411L349.694 253.23C349.694 253.23 328.22 255.579 320.819 252.467C313.426 249.345 314.897 261.831 314.897 261.831L314.897 261.831Z" fill="#DEAA87"/>
<path d="M312.685 223.657L304.228 237.029L306.375 238.387C316.99 245.098 325.721 254.4 331.746 265.418L334.362 270.195L335.058 271.491L351.825 260.285L349.023 250.397C349.023 250.397 348.907 250.324 348.692 250.188C347.009 249.346 339.808 245.584 337.523 242.776C335.362 240.094 333.816 234.963 324.384 231.914C319.744 230.406 313.502 232.719 310.505 228.874L312.685 223.657Z" fill="#DEAA87"/>
<path d="M349.791 168.647C349.791 168.647 324.58 165.732 325.227 166.965L327.279 172.02L301.451 232.705L299.428 280.276L351.19 195.207C347.004 187.946 349.795 168.65 349.795 168.65L349.791 168.647Z" fill="#2C5AA0"/>
<path d="M385.728 193.642C382.18 194.711 379.371 196.517 369.569 198.687L298.732 321.504C307.94 326.234 312.635 331.318 312.635 331.318C312.635 331.318 332.722 345.909 329.915 337.508C327.079 329.152 351.205 285.604 351.205 285.604L351.056 283.845C351.056 283.845 341.721 268.447 354.685 269.275C357.216 269.449 349.825 254.852 349.825 254.852C351.157 251.43 367.035 253.816 368.219 250.412C375.193 229.826 397.853 210.49 397.853 210.49L385.728 193.642Z" fill="#2C5AA0"/>
<path opacity="0.999" d="M338.933 167.549L345.748 168.087C345.748 168.087 340.839 197.61 339.213 200.049L298.54 266.548L298.395 250.876L338.607 186.353L338.933 167.549Z" fill="#B3B3B3"/>
<path opacity="0.999" d="M392.165 202.627L388.221 196.788L375.187 206.076L329.526 276.52L302.579 325.021L308.931 329.038L335.423 282.405L381.447 210.907L392.165 202.627Z" fill="#B3B3B3"/>
<path d="M358.73 166.427L350.065 167.752L351.19 195.207L359.855 193.881L358.73 166.427Z" fill="#162D50"/>
<path d="M363.032 193.522L364.468 203.101L386.277 194.608L384.448 186.588L363.032 193.522Z" fill="#162D50"/>
<path d="M339.939 244.096C339.939 244.096 332.132 261.239 324.12 265.017C324.12 265.017 340.831 279.707 352.724 286.278L367.545 263.236L339.939 244.096Z" fill="#162D50"/>
<path d="M388.068 116.21C396.896 117.201 402.641 129.233 401.176 143.185L400.839 146.413C400.864 146.415 400.889 146.418 400.913 146.422C401.182 146.452 401.434 146.61 401.655 146.888C401.875 147.166 402.06 147.559 402.198 148.043C402.336 148.526 402.426 149.092 402.461 149.708C402.495 150.324 402.476 150.978 402.402 151.632C402.253 152.95 401.895 154.19 401.406 155.078C400.918 155.967 400.339 156.431 399.796 156.37C398.308 170.294 389.111 180.787 380.295 179.797L373.95 179.085C365.435 178.129 358.965 164.05 359.912 150.553C359.815 150.559 359.718 150.548 359.624 150.521C359.355 150.491 359.103 150.333 358.883 150.054C358.662 149.776 358.478 149.384 358.34 148.9C358.201 148.416 358.112 147.85 358.077 147.234C358.042 146.618 358.062 145.965 358.136 145.311C358.209 144.657 358.334 144.015 358.505 143.422C358.676 142.829 358.888 142.297 359.13 141.856C359.372 141.415 359.639 141.073 359.916 140.851C360.193 140.629 360.474 140.53 360.743 140.56C360.827 140.557 360.91 140.567 360.992 140.588L361.215 138.599C362.77 124.657 371.151 114.21 379.98 115.202L388.086 116.112L388.068 116.21Z" fill="#DEAA87"/>
<path opacity="0.6" d="M359.898 145.915C359.656 145.864 359.617 145.024 359.811 144.038C360.004 143.053 360.356 142.295 360.598 142.345C360.84 142.396 360.879 143.236 360.685 144.222C360.492 145.208 360.14 145.966 359.898 145.915Z" fill="black"/>
<path opacity="0.6" d="M400.75 152.157C400.997 152.161 401.221 151.35 401.251 150.346C401.281 149.342 401.106 148.525 400.859 148.521C400.612 148.517 400.388 149.328 400.358 150.331C400.327 151.335 400.503 152.153 400.75 152.157Z" fill="black"/>
<path d="M384.069 113.521C395.183 114.768 402.417 126.055 401.637 138.919L401.301 144.463C400.753 148.055 400.911 148.036 400.566 151.113C400.22 154.19 400.213 154.252 399.845 156.976L398.812 161.378C398.201 163.987 396.476 168.436 394.542 171.273C392.908 173.667 390.801 175.746 388.008 177.747C384.185 180.146 383.108 180.614 380.055 180.208L373.773 179.365C371.634 178.988 367.693 176.568 365.613 173.306C363.422 169.894 364.146 171.064 362.979 168.718C361.299 165.351 358.661 158.797 359.271 153.36L359.31 153.001C359.795 149.351 359.769 149.361 360.104 146.383C360.437 143.417 360.437 143.417 360.678 140.816L361.398 134.402C362.837 121.586 372.943 112.271 384.058 113.519L384.069 113.521ZM385.744 127.887L379.235 127.519L371.082 126.454L368.054 128.529L367.208 132.313L365.828 136.051L362.858 138.545L361.766 142.465L360.464 154.845L360.685 159.15L362.331 163.89L365.257 170.125L368.284 174.382L371.623 176.959L374.107 177.426C374.966 177.197 377.225 173.158 377.485 171.298L378.31 171.39C378.505 172.513 378.047 176.779 379.286 178.032L383.027 178.327L386.054 176.489L391.271 173.045L393.36 170.402L395.501 166.713L397.103 163.063L398.379 158.664L399.643 146.291L398.582 141.054L397.083 138.283C397.028 136.812 397.209 135.844 397.296 134.765C397.346 134.083 397.492 132.572 397.327 131.865C397.185 131.261 396.651 131.151 396.651 131.151C396.066 130.823 396.263 130.52 395.639 130.212C395.287 130.035 394.934 129.882 394.578 129.73C392.012 128.678 389.291 128.348 385.733 127.911L385.744 127.887Z" fill="#333333"/>
<path d="M386.51 151.91C385.692 151.818 385.112 151.001 385.215 150.084C385.318 149.168 386.064 148.499 386.882 148.591C387.7 148.683 388.28 149.5 388.177 150.417C388.074 151.333 387.328 152.002 386.51 151.91Z" fill="black"/>
<path d="M374.629 150.381C373.811 150.289 373.232 149.471 373.335 148.555C373.438 147.638 374.184 146.97 375.002 147.062C375.82 147.153 376.399 147.971 376.297 148.887C376.194 149.804 375.447 150.472 374.629 150.381Z" fill="black"/>
<path d="M377.266 160.728L381.997 161.259C382.111 161.272 382.194 161.375 382.181 161.49L382.145 161.813C382.132 161.927 382.029 162.009 381.914 161.997L377.183 161.465C377.068 161.452 376.986 161.349 376.999 161.235L377.035 160.912C377.048 160.798 377.151 160.715 377.266 160.728Z" fill="black"/>
<path d="M383.391 143.779L390.397 144.565C390.64 144.592 390.814 144.811 390.787 145.053L390.71 145.736C390.683 145.978 390.465 146.153 390.222 146.125L383.216 145.339C382.973 145.312 382.799 145.093 382.826 144.851L382.903 144.168C382.93 143.926 383.149 143.751 383.391 143.779Z" fill="black"/>
<path d="M372.085 142.353L379.068 143.137C379.317 143.165 379.496 143.389 379.468 143.638L379.389 144.34C379.361 144.589 379.137 144.768 378.888 144.74L371.905 143.957C371.656 143.929 371.477 143.704 371.505 143.455L371.584 142.753C371.612 142.504 371.836 142.325 372.085 142.353Z" fill="black"/>
<path d="M386.2 165.937C386.023 167.496 385.11 168.907 383.663 169.86C382.215 170.814 380.351 171.231 378.481 171.021C376.61 170.811 374.886 169.991 373.686 168.74C372.486 167.49 371.909 165.911 372.081 164.351L386.2 165.937Z" fill="#F2F2F2"/>
<path d="M385.695 166.038C385.538 167.418 384.687 168.661 383.331 169.496C381.974 170.331 380.221 170.689 378.458 170.491C376.696 170.293 375.066 169.556 373.928 168.441C372.79 167.326 372.237 165.924 372.389 164.544L385.695 166.038Z" fill="white"/>
<path d="M385.683 165.11C385.622 165.103 385.693 164.923 385.706 164.9C386.057 164.539 386.655 164.793 387.064 165.227C387.525 165.73 387.351 166.361 387.024 166.875C387.013 166.873 386.609 167.379 386.525 167.144C386.49 167.015 386.838 166.303 386.849 166.242C386.943 165.739 386.957 165.954 386.804 165.474C386.462 165.16 386.258 165.112 385.85 165.129L385.683 165.11Z" fill="#808080"/>
<path d="M372.595 163.778C372.657 163.785 372.665 163.611 372.655 163.585C372.393 163.155 371.79 163.212 371.295 163.557C370.733 163.945 370.665 164.488 370.872 165.061C370.883 165.063 371.146 165.305 371.182 165.284C371.269 165.294 371.162 164.794 371.157 164.73C371.116 164.2 371.115 164.213 371.539 163.922C371.919 163.665 372.032 163.677 372.425 163.797L372.595 163.778Z" fill="#808080"/>
<path d="M389.51 111.904C398.027 112.86 403.9 123.243 403.999 136.143L361.168 131.335C364.065 118.771 372.186 109.959 380.703 110.915L389.51 111.904Z" fill="#2C5AA0"/>
<path d="M383.479 108.045L387.104 108.452C388.026 108.556 388.69 109.387 388.587 110.31L388.334 112.557C388.231 113.48 387.399 114.144 386.476 114.04L382.852 113.633C381.929 113.53 381.266 112.698 381.369 111.775L381.621 109.528C381.725 108.605 382.557 107.942 383.479 108.045Z" fill="#2C5AA0"/>
<path d="M371.72 109.658L374.322 109.95C375.085 110.036 375.635 110.724 375.549 111.488L374.759 118.528C374.673 119.291 373.985 119.841 373.221 119.755L370.619 119.463C369.855 119.377 369.306 118.689 369.392 117.925L370.182 110.885C370.268 110.122 370.956 109.572 371.72 109.658Z" fill="#2C5AA0"/>
<path d="M395.484 112.208L398.729 112.573C399.315 112.639 399.736 113.167 399.671 113.753L398.808 121.436C398.742 122.022 398.214 122.443 397.628 122.378L394.383 122.013C393.797 121.948 393.375 121.419 393.441 120.833L394.303 113.15C394.369 112.564 394.898 112.143 395.484 112.208Z" fill="#2C5AA0"/>
<path opacity="0.61" d="M404.319 136.029L394.795 129.917L372.439 127.407L361.424 131.276L404.319 136.029Z" fill="#162D50"/>
<path opacity="0.65" d="M361.945 140.12L365.57 142.842L365.581 142.843C366.585 142.493 368.08 142.573 369.762 142.762C370.728 142.87 371.755 142.985 372.779 143.1C375.482 143.404 377.666 144.25 378.755 145.548C378.755 145.548 379.706 146.256 380.247 146.454C380.507 146.608 380.796 146.641 381.088 146.548C381.67 146.489 382.794 146.164 382.794 146.164C384.768 145.122 387.12 144.785 389.268 145.002C390.293 145.117 391.32 145.232 392.284 145.34C393.932 145.525 395.382 145.813 396.293 146.303L399.643 146.191L399.6 146.787L397.245 148.2C396.913 150.828 393.89 153.68 389.821 154.286C388.213 154.531 386.105 154.032 384.909 153.61C383.68 153.184 382.844 152.127 382.258 151.172C382.041 150.81 381.858 150.139 381.751 149.489C381.654 148.915 381.401 148.548 381.038 148.295C380.768 148.102 380.391 148.034 380.079 148.187C379.691 148.331 379.462 148.618 379.199 149.164C378.995 149.58 378.458 150.458 378.247 150.672C377.464 151.472 376.414 152.318 375.121 152.461C373.861 152.607 371.695 152.627 370.181 152.031C367.02 150.788 364.891 148.221 364.386 145.887L361.82 141.344L361.945 140.12Z" fill="white"/>
<path opacity="0.09" d="M0 521.895L86.2336 470.632L308.765 522.678L0 521.895Z" fill="#1C2224"/>
<path d="M214.742 276.906H67.4089C60.4882 276.906 54.8778 282.517 54.8778 289.438V484.47C54.8778 491.39 60.4882 497.001 67.4089 497.001H214.742C221.663 497.001 227.273 491.39 227.273 484.47V289.438C227.273 282.517 221.663 276.906 214.742 276.906Z" fill="#B3B3B3" fill-opacity="0.792157"/>
<path d="M180.714 81.9683C172.357 84.8078 167.907 93.794 170.721 102.138L179.794 129.032C182.608 137.376 191.605 141.836 199.951 139.019L241.505 124.974C247.907 122.83 252.015 117.043 252.31 110.646L265.592 106.196L253.253 69.6314L240.42 73.9722C236.486 68.3041 229.156 65.6496 222.254 67.9995L180.714 81.9683Z" fill="#BCD35F"/>
<path d="M200.973 125.539L239.298 119.621C239.298 119.621 307.958 201.759 333.228 241.925C350.127 268.796 312.635 331.319 312.635 331.319L269.863 389.468L200.973 125.539Z" fill="#BCD35F"/>
<path opacity="0.95" d="M179.36 471.714V482.114L162.506 546.356L179.278 545.954V548.282L282.269 548.695V546.411H296.096L282.269 491.775V471.714L179.36 471.714Z" fill="#0B2228"/>
<path opacity="0.4" d="M228.463 479.047V546.062H215.417L223.381 478.938L228.463 479.047Z" fill="black"/>
<path opacity="0.4" d="M277.674 476.827H274.629V547.291H296.853L277.674 476.827Z" fill="black" stroke="black" stroke-width="0.282533"/>
<path opacity="0.4" d="M183.454 477.915H186.5V548.88H164.276L183.454 477.915Z" fill="black" stroke="black" stroke-width="0.283558"/>
<path d="M176.158 476.729V480.472H178.779L162.776 543.767H159.979V548.923H301.206V543.767H298.322L282.32 480.472H284.844V476.729H176.158ZM182.276 480.472H230.762V543.767H166.278L182.276 480.472ZM236.085 480.472H278.819L294.821 543.767H244.027L236.085 480.472Z" fill="#4D4D4D"/>
<path d="M183.349 422.755H170.697C168.794 422.755 167.252 424.895 167.252 427.535V438.143C167.252 440.783 168.794 442.923 170.697 442.923H183.349C185.251 442.923 186.794 440.783 186.794 438.143V427.535C186.794 424.895 185.251 422.755 183.349 422.755Z" fill="#4D4D4D"/>
<path d="M158.51 378.904H302.603L270.03 472.225L194.024 471.976L158.51 378.904Z" fill="#BCD35F"/>
<path d="M275.75 404.881C299.627 404.881 318.983 384.725 318.983 359.86C318.983 334.995 299.627 314.839 275.75 314.839C251.873 314.839 232.517 334.995 232.517 359.86C232.517 384.725 251.873 404.881 275.75 404.881Z" fill="#373E48"/>
<path d="M431.276 1.35383C426.296 2.92374 421.828 5.80274 418.334 9.69309C414.84 13.5834 412.447 18.3439 411.402 23.482L250.444 74.2659L258.911 101.105L419.608 50.4514C423.416 54.1983 428.163 56.837 433.342 58.0847C438.521 59.3323 443.936 59.1419 449.007 57.5338C452.678 56.3758 456.084 54.5022 459.03 52.0199C461.977 49.5376 464.405 46.4952 466.178 43.0664C467.95 39.6376 469.032 35.8897 469.361 32.0366C469.69 28.1835 469.26 24.3007 468.096 20.6099C465.738 13.1616 460.536 6.94923 453.631 3.33835C446.727 -0.272538 438.686 -0.986341 431.276 1.35383Z" fill="#BCD35F"/>
<path d="M475.137 54.731L465.35 41.4889L442.713 58.2195L452.5 71.4616L475.137 54.731Z" fill="#BCD35F"/>
<path d="M125.455 406.946H84.7454C77.8247 406.946 72.2144 412.557 72.2144 419.477V456.383C72.2144 463.303 77.8247 468.914 84.7454 468.914H125.455C132.376 468.914 137.986 463.303 137.986 456.383V419.477C137.986 412.557 132.376 406.946 125.455 406.946Z" fill="#808080" fill-opacity="0.792157"/>
<path d="M453.598 77.3991C453.598 77.3991 440.282 89.0398 426.152 78.1607C406.651 59.9925 402.662 44.2394 376.382 53.9763C311.955 77.8452 223.551 98.2109 174.814 124.19C159.029 132.295 165.794 153.76 174.377 161.865C189.183 175.855 211.262 163.247 224.546 169.894C234.261 174.757 235.93 188.867 235.93 188.867L252.218 244.22C254.328 256.002 260.684 275.182 255.493 288.912C250.369 302.696 239.038 316.218 225.16 323.138C201.724 334.843 133.531 368.732 131.354 412.814C130.679 426.457 135.879 433.419 149.757 433.093C164.581 432.756 171.419 433.583 171.419 433.583" stroke="#373E48" stroke-width="6.44111"/>
<path d="M450.036 49.8888C461.3 44.3284 465.886 30.6116 460.279 19.2514C454.671 7.89121 440.994 3.18958 429.729 8.75C418.464 14.3104 413.878 28.0273 419.486 39.3875C425.094 50.7477 438.771 55.4493 450.036 49.8888Z" fill="#373E48"/>
<path d="M487.206 56.7886L481.972 49.7074L448.289 74.6016L453.523 81.6827L487.206 56.7886Z" fill="#BCD35F"/>
<path d="M487.947 66.4289L482.713 59.3477L454.943 79.8727L460.176 86.9538L487.947 66.4289Z" fill="#1C2224"/>
<path d="M210.937 317.125H138.105C131.358 317.125 125.887 329.246 125.887 344.197V362.128C125.887 377.079 131.358 389.199 138.105 389.199H210.937C217.684 389.199 223.154 377.079 223.154 362.128V344.197C223.154 329.246 217.684 317.125 210.937 317.125Z" fill="#373E48"/>
<path d="M223.647 150.838C242.533 150.838 257.843 135.833 257.843 117.323C257.843 98.8131 242.533 83.808 223.647 83.808C204.761 83.808 189.451 98.8131 189.451 117.323C189.451 135.833 204.761 150.838 223.647 150.838Z" fill="#373E48"/>
<path d="M237.417 178.984L231.189 180.77C229.579 181.232 228.759 183.304 229.356 185.399L233.412 199.622C234.009 201.717 235.798 203.042 237.407 202.58L243.636 200.795C245.245 200.333 246.065 198.261 245.468 196.165L241.412 181.943C240.815 179.847 239.026 178.523 237.417 178.984Z" fill="#6F917C"/>
<path d="M382.257 55.8855L380.529 49.6411C380.082 48.0275 378.017 47.188 375.917 47.7659L361.657 51.6891C359.556 52.2671 358.215 54.0437 358.662 55.6573L360.389 61.9016C360.836 63.5152 362.901 64.3548 365.002 63.7768L379.261 59.8536C381.362 59.2757 382.703 57.4991 382.257 55.8855Z" fill="#6F917C"/>
<path d="M283.374 87.921L281.646 81.6767C281.2 80.0631 279.135 79.2235 277.034 79.8015L262.774 83.7247C260.674 84.3026 259.333 86.0793 259.779 87.6928L261.507 93.9372C261.953 95.5508 264.018 96.3903 266.119 95.8124L280.379 91.8892C282.479 91.3112 283.82 89.5346 283.374 87.921Z" fill="#6F917C"/>
<path d="M257.58 248.217L251.186 249.265C249.534 249.536 248.478 251.499 248.827 253.65L251.199 268.248C251.548 270.399 253.171 271.922 254.823 271.651L261.217 270.603C262.869 270.332 263.925 268.369 263.576 266.219L261.204 251.62C260.855 249.47 259.232 247.946 257.58 248.217Z" fill="#6F917C"/>
<path d="M170.222 425.679H160.916C159.517 425.679 158.383 427.382 158.383 429.484V437.928C158.383 440.029 159.517 441.733 160.916 441.733H170.222C171.621 441.733 172.755 440.029 172.755 437.928V429.484C172.755 427.382 171.621 425.679 170.222 425.679Z" fill="#4D4D4D"/>
<path opacity="0.15" d="M251.468 134.33L279.179 168.61L308.759 207.002L329.14 235.397C329.14 235.397 334.894 243.208 335.941 247.44C338.101 256.133 338.584 260.854 335.57 275.508C332.492 290.446 325.466 308.712 310.961 333.571C310.18 334.909 312.186 335.485 312.723 336.443C313.554 337.911 314.296 340.055 315.371 342.285C317.827 347.409 318.963 355.111 318.815 360.986C318.657 367.285 318.397 366.828 318.095 367.753C317.885 368.417 318.226 369.243 316.177 375.466C314.795 379.676 310.916 387.564 304.979 392.873C302.501 395.103 300.161 396.931 298.016 398.28C296.882 399.009 295.096 400.129 295.096 400.129C287.866 422.856 281.28 440.523 281.28 440.523L269.948 472.019L223.923 472.432C223.923 472.432 245.336 461.607 255.283 452.784C261.321 447.432 271.795 439.61 277.491 429.525C284.166 417.721 287.062 412.532 286.669 406.472C286.426 402.697 280.241 405.602 280.66 404.34C300.557 343.895 326.25 265.228 326.819 260.136C327.066 257.96 327.17 256.405 325.957 251.803C319.767 228.195 251.468 134.33 251.468 134.33Z" fill="black"/>
<path opacity="0.18" d="M445.156 61.4611L447.612 60.3188C447.612 60.3188 448.839 63.2562 456.551 67.9342C458.738 69.2615 454.924 79.9775 454.924 79.9775L455.261 80.3582L453.298 81.816L448.216 74.7228L452.433 71.3938L445.156 61.4611Z" fill="black"/>
<path opacity="0.26" d="M162.203 389.043C162.203 389.043 192.71 376.054 203.506 365.066C211.94 356.471 212.97 314.619 213.438 317.132L222.294 331.079L222.907 367.633L220.644 378.806L235.463 378.937C235.463 378.937 227.244 382.918 221.726 387.15C216.643 391.067 202.433 395.277 197.368 394.526L163.552 392.253L162.203 389.043Z" fill="black"/>
<path opacity="0.19" d="M228.866 140.444C234.882 137.55 241.571 133.938 244.501 127.944C249.329 118.054 245.033 96.4376 247.327 97.5146L262.166 99.5817L265.118 106.098L253.274 109.449C253.274 109.449 255.315 124.386 252.871 130.914C251.978 133.264 246.32 141.009 246.32 141.009V141.14C246.32 141.14 242.764 146.427 239.119 148.636C233.109 152.248 227.169 153.586 225.199 153.575C225.199 153.575 221.603 153.858 217.863 153.455C215.192 153.194 212.445 152.346 210.903 151.954C208.458 151.323 205.666 150.3 203.647 149.093C201.626 147.863 199.316 144.883 199.316 144.883C199.316 144.883 220.513 144.415 228.851 140.4L228.866 140.444Z" fill="black"/>
<path opacity="0.26" d="M143.023 432.332C143.023 432.332 128.254 433.789 132.549 413.413C135.032 401.62 139.705 387.738 142.254 387.52L144.341 388.956C144.341 388.956 140.979 394.298 139.751 397.203C137.659 402.164 135.456 407.288 135.094 412.662C134.816 416.818 135.259 421.246 137.067 424.988C139.397 429.818 146.317 430.95 151.756 430.656C153.663 430.526 158.283 430.395 158.283 430.395L158.572 427.566L159.524 426.196L160.558 425.652H167.429C167.429 425.652 168.237 424.085 168.994 423.356C169.986 422.399 175.202 422.932 175.202 422.932L179.945 435.661C179.945 435.661 174.725 434.322 171.447 433.789C163.536 432.419 146.751 433.354 146.751 433.354L143.023 432.332Z" fill="black"/>
<path d="M483.818 69.3594L490.38 87.6581L505.52 108.785L498.799 113.757C497.468 110.798 483.308 92.0751 483.308 92.0751L466.045 81.9684L483.818 69.3594Z" fill="#373E48"/>
<path d="M84.6128 320.271C92.4139 320.271 98.738 313.901 98.738 306.042C98.738 298.184 92.4139 291.813 84.6128 291.813C76.8117 291.813 70.4876 298.184 70.4876 306.042C70.4876 313.901 76.8117 320.271 84.6128 320.271Z" fill="#D40000" fill-opacity="0.792157"/>
<path d="M113.94 309.759C117.52 309.759 120.422 306.847 120.422 303.254C120.422 299.662 117.52 296.75 113.94 296.75C110.36 296.75 107.458 299.662 107.458 303.254C107.458 306.847 110.36 309.759 113.94 309.759Z" fill="#37C871" fill-opacity="0.792157"/>
<path d="M208.899 291.899H132.26V304.359H208.899V291.899Z" fill="#999999" fill-opacity="0.792157"/>
</g>
<line x1="367" y1="369.5" x2="687" y2="369.5" stroke="#383E45" stroke-width="3"/>
<path d="M409.292 323L402.524 314.504V323H397.484V296.36H402.524V311.516L409.22 303.056H415.772L406.988 313.064L415.844 323H409.292ZM423.547 306.152C424.195 305.096 425.035 304.268 426.067 303.668C427.123 303.068 428.323 302.768 429.667 302.768V308.06H428.335C426.751 308.06 425.551 308.432 424.735 309.176C423.943 309.92 423.547 311.216 423.547 313.064V323H418.507V303.056H423.547V306.152ZM435.618 300.68C434.73 300.68 433.986 300.404 433.386 299.852C432.81 299.276 432.522 298.568 432.522 297.728C432.522 296.888 432.81 296.192 433.386 295.64C433.986 295.064 434.73 294.776 435.618 294.776C436.506 294.776 437.238 295.064 437.814 295.64C438.414 296.192 438.714 296.888 438.714 297.728C438.714 298.568 438.414 299.276 437.814 299.852C437.238 300.404 436.506 300.68 435.618 300.68ZM438.102 303.056V323H433.062V303.056H438.102ZM450.714 323.324C449.082 323.324 447.618 323.036 446.322 322.46C445.026 321.86 443.994 321.056 443.226 320.048C442.482 319.04 442.074 317.924 442.002 316.7H447.078C447.174 317.468 447.546 318.104 448.194 318.608C448.866 319.112 449.694 319.364 450.678 319.364C451.638 319.364 452.382 319.172 452.91 318.788C453.462 318.404 453.738 317.912 453.738 317.312C453.738 316.664 453.402 316.184 452.73 315.872C452.082 315.536 451.038 315.176 449.598 314.792C448.11 314.432 446.886 314.06 445.926 313.676C444.99 313.292 444.174 312.704 443.478 311.912C442.806 311.12 442.47 310.052 442.47 308.708C442.47 307.604 442.782 306.596 443.406 305.684C444.054 304.772 444.966 304.052 446.142 303.524C447.342 302.996 448.746 302.732 450.354 302.732C452.73 302.732 454.626 303.332 456.042 304.532C457.458 305.708 458.238 307.304 458.382 309.32H453.558C453.486 308.528 453.15 307.904 452.55 307.448C451.974 306.968 451.194 306.728 450.21 306.728C449.298 306.728 448.59 306.896 448.086 307.232C447.606 307.568 447.366 308.036 447.366 308.636C447.366 309.308 447.702 309.824 448.374 310.184C449.046 310.52 450.09 310.868 451.506 311.228C452.946 311.588 454.134 311.96 455.07 312.344C456.006 312.728 456.81 313.328 457.482 314.144C458.178 314.936 458.538 315.992 458.562 317.312C458.562 318.464 458.238 319.496 457.59 320.408C456.966 321.32 456.054 322.04 454.854 322.568C453.678 323.072 452.298 323.324 450.714 323.324ZM468.567 307.196V316.844C468.567 317.516 468.723 318.008 469.035 318.32C469.371 318.608 469.923 318.752 470.691 318.752H473.031V323H469.863C465.615 323 463.491 320.936 463.491 316.808V307.196H461.115V303.056H463.491V298.124H468.567V303.056H473.031V307.196H468.567ZM479.212 300.68C478.324 300.68 477.58 300.404 476.98 299.852C476.404 299.276 476.116 298.568 476.116 297.728C476.116 296.888 476.404 296.192 476.98 295.64C477.58 295.064 478.324 294.776 479.212 294.776C480.1 294.776 480.832 295.064 481.408 295.64C482.008 296.192 482.308 296.888 482.308 297.728C482.308 298.568 482.008 299.276 481.408 299.852C480.832 300.404 480.1 300.68 479.212 300.68ZM481.696 303.056V323H476.656V303.056H481.696ZM485.379 312.956C485.379 310.94 485.775 309.152 486.567 307.592C487.383 306.032 488.475 304.832 489.843 303.992C491.235 303.152 492.783 302.732 494.487 302.732C495.975 302.732 497.271 303.032 498.375 303.632C499.503 304.232 500.403 304.988 501.075 305.9V303.056H506.151V323H501.075V320.084C500.427 321.02 499.527 321.8 498.375 322.424C497.247 323.024 495.939 323.324 494.451 323.324C492.771 323.324 491.235 322.892 489.843 322.028C488.475 321.164 487.383 319.952 486.567 318.392C485.775 316.808 485.379 314.996 485.379 312.956ZM501.075 313.028C501.075 311.804 500.835 310.76 500.355 309.896C499.875 309.008 499.227 308.336 498.411 307.88C497.595 307.4 496.719 307.16 495.783 307.16C494.847 307.16 493.983 307.388 493.191 307.844C492.399 308.3 491.751 308.972 491.247 309.86C490.767 310.724 490.527 311.756 490.527 312.956C490.527 314.156 490.767 315.212 491.247 316.124C491.751 317.012 492.399 317.696 493.191 318.176C494.007 318.656 494.871 318.896 495.783 318.896C496.719 318.896 497.595 318.668 498.411 318.212C499.227 317.732 499.875 317.06 500.355 316.196C500.835 315.308 501.075 314.252 501.075 313.028ZM522.126 302.768C524.502 302.768 526.422 303.524 527.886 305.036C529.35 306.524 530.082 308.612 530.082 311.3V323H525.042V311.984C525.042 310.4 524.646 309.188 523.854 308.348C523.062 307.484 521.982 307.052 520.614 307.052C519.222 307.052 518.118 307.484 517.302 308.348C516.51 309.188 516.114 310.4 516.114 311.984V323H511.074V303.056H516.114V305.54C516.786 304.676 517.638 304.004 518.67 303.524C519.726 303.02 520.878 302.768 522.126 302.768Z" fill="#383E45"/>
<path d="M461.524 337.94V344.24H469.984V348.236H461.524V354.896H471.064V359H456.484V333.836H471.064V337.94H461.524ZM500.412 338.768C502.86 338.768 504.828 339.524 506.316 341.036C507.828 342.524 508.584 344.612 508.584 347.3V359H503.544V347.984C503.544 346.424 503.148 345.236 502.356 344.42C501.564 343.58 500.484 343.16 499.116 343.16C497.748 343.16 496.656 343.58 495.84 344.42C495.048 345.236 494.652 346.424 494.652 347.984V359H489.612V347.984C489.612 346.424 489.216 345.236 488.424 344.42C487.632 343.58 486.552 343.16 485.184 343.16C483.792 343.16 482.688 343.58 481.872 344.42C481.08 345.236 480.684 346.424 480.684 347.984V359H475.644V339.056H480.684V341.468C481.332 340.628 482.16 339.968 483.168 339.488C484.2 339.008 485.328 338.768 486.552 338.768C488.112 338.768 489.504 339.104 490.728 339.776C491.952 340.424 492.9 341.36 493.572 342.584C494.22 341.432 495.156 340.508 496.38 339.812C497.628 339.116 498.972 338.768 500.412 338.768ZM538.135 338.768C540.583 338.768 542.551 339.524 544.039 341.036C545.551 342.524 546.307 344.612 546.307 347.3V359H541.267V347.984C541.267 346.424 540.871 345.236 540.079 344.42C539.287 343.58 538.207 343.16 536.839 343.16C535.471 343.16 534.379 343.58 533.563 344.42C532.771 345.236 532.375 346.424 532.375 347.984V359H527.335V347.984C527.335 346.424 526.939 345.236 526.147 344.42C525.355 343.58 524.275 343.16 522.907 343.16C521.515 343.16 520.411 343.58 519.595 344.42C518.803 345.236 518.407 346.424 518.407 347.984V359H513.367V339.056H518.407V341.468C519.055 340.628 519.883 339.968 520.891 339.488C521.923 339.008 523.051 338.768 524.275 338.768C525.835 338.768 527.227 339.104 528.451 339.776C529.675 340.424 530.623 341.36 531.295 342.584C531.943 341.432 532.879 340.508 534.103 339.812C535.351 339.116 536.695 338.768 538.135 338.768ZM549.793 348.956C549.793 346.94 550.189 345.152 550.981 343.592C551.797 342.032 552.889 340.832 554.257 339.992C555.649 339.152 557.197 338.732 558.901 338.732C560.389 338.732 561.685 339.032 562.789 339.632C563.917 340.232 564.817 340.988 565.489 341.9V339.056H570.565V359H565.489V356.084C564.841 357.02 563.941 357.8 562.789 358.424C561.661 359.024 560.353 359.324 558.865 359.324C557.185 359.324 555.649 358.892 554.257 358.028C552.889 357.164 551.797 355.952 550.981 354.392C550.189 352.808 549.793 350.996 549.793 348.956ZM565.489 349.028C565.489 347.804 565.249 346.76 564.769 345.896C564.289 345.008 563.641 344.336 562.825 343.88C562.009 343.4 561.133 343.16 560.197 343.16C559.261 343.16 558.397 343.388 557.605 343.844C556.813 344.3 556.165 344.972 555.661 345.86C555.181 346.724 554.941 347.756 554.941 348.956C554.941 350.156 555.181 351.212 555.661 352.124C556.165 353.012 556.813 353.696 557.605 354.176C558.421 354.656 559.285 354.896 560.197 354.896C561.133 354.896 562.009 354.668 562.825 354.212C563.641 353.732 564.289 353.06 564.769 352.196C565.249 351.308 565.489 350.252 565.489 349.028ZM586.54 338.768C588.916 338.768 590.836 339.524 592.3 341.036C593.764 342.524 594.496 344.612 594.496 347.3V359H589.456V347.984C589.456 346.4 589.06 345.188 588.268 344.348C587.476 343.484 586.396 343.052 585.028 343.052C583.636 343.052 582.532 343.484 581.716 344.348C580.924 345.188 580.528 346.4 580.528 347.984V359H575.488V339.056H580.528V341.54C581.2 340.676 582.052 340.004 583.084 339.524C584.14 339.02 585.292 338.768 586.54 338.768ZM618.117 339.056V359H613.041V356.48C612.393 357.344 611.541 358.028 610.485 358.532C609.453 359.012 608.325 359.252 607.101 359.252C605.541 359.252 604.161 358.928 602.961 358.28C601.761 357.608 600.813 356.636 600.117 355.364C599.445 354.068 599.109 352.532 599.109 350.756V339.056H604.149V350.036C604.149 351.62 604.545 352.844 605.337 353.708C606.129 354.548 607.209 354.968 608.577 354.968C609.969 354.968 611.061 354.548 611.853 353.708C612.645 352.844 613.041 351.62 613.041 350.036V339.056H618.117ZM641.629 348.596C641.629 349.316 641.581 349.964 641.485 350.54H626.905C627.025 351.98 627.529 353.108 628.417 353.924C629.305 354.74 630.397 355.148 631.693 355.148C633.565 355.148 634.897 354.344 635.689 352.736H641.125C640.549 354.656 639.445 356.24 637.813 357.488C636.181 358.712 634.177 359.324 631.801 359.324C629.881 359.324 628.153 358.904 626.617 358.064C625.105 357.2 623.917 355.988 623.053 354.428C622.213 352.868 621.793 351.068 621.793 349.028C621.793 346.964 622.213 345.152 623.053 343.592C623.893 342.032 625.069 340.832 626.581 339.992C628.093 339.152 629.833 338.732 631.801 338.732C633.697 338.732 635.389 339.14 636.877 339.956C638.389 340.772 639.553 341.936 640.369 343.448C641.209 344.936 641.629 346.652 641.629 348.596ZM636.409 347.156C636.385 345.86 635.917 344.828 635.005 344.06C634.093 343.268 632.977 342.872 631.657 342.872C630.409 342.872 629.353 343.256 628.489 344.024C627.649 344.768 627.133 345.812 626.941 347.156H636.409ZM650.348 332.36V359H645.308V332.36H650.348Z" fill="#383E45"/>
<path d="M457.9 263.826V282H456.08V263.826H457.9ZM468.324 274.876C468.324 273.42 468.61 272.146 469.182 271.054C469.772 269.945 470.578 269.095 471.6 268.506C472.64 267.899 473.81 267.596 475.11 267.596C476.462 267.596 477.624 267.908 478.594 268.532C479.582 269.156 480.293 269.953 480.726 270.924V267.804H482.546V282H480.726V278.854C480.276 279.825 479.556 280.631 478.568 281.272C477.598 281.896 476.436 282.208 475.084 282.208C473.802 282.208 472.64 281.905 471.6 281.298C470.578 280.691 469.772 279.833 469.182 278.724C468.61 277.615 468.324 276.332 468.324 274.876ZM480.726 274.902C480.726 273.758 480.492 272.753 480.024 271.886C479.556 271.019 478.915 270.352 478.1 269.884C477.303 269.416 476.419 269.182 475.448 269.182C474.443 269.182 473.542 269.407 472.744 269.858C471.947 270.309 471.314 270.967 470.846 271.834C470.396 272.683 470.17 273.697 470.17 274.876C470.17 276.037 470.396 277.06 470.846 277.944C471.314 278.811 471.947 279.478 472.744 279.946C473.542 280.397 474.443 280.622 475.448 280.622C476.419 280.622 477.303 280.388 478.1 279.92C478.915 279.452 479.556 278.785 480.024 277.918C480.492 277.051 480.726 276.046 480.726 274.902ZM503.601 267.544C505.265 267.544 506.617 268.073 507.657 269.13C508.714 270.17 509.243 271.687 509.243 273.68V282H507.449V273.888C507.449 272.345 507.076 271.167 506.331 270.352C505.586 269.537 504.572 269.13 503.289 269.13C501.954 269.13 500.888 269.572 500.091 270.456C499.294 271.34 498.895 272.623 498.895 274.304V282H497.101V273.888C497.101 272.345 496.728 271.167 495.983 270.352C495.238 269.537 494.215 269.13 492.915 269.13C491.58 269.13 490.514 269.572 489.717 270.456C488.92 271.34 488.521 272.623 488.521 274.304V282H486.701V267.804H488.521V270.248C488.972 269.364 489.613 268.697 490.445 268.246C491.277 267.778 492.204 267.544 493.227 267.544C494.458 267.544 495.532 267.839 496.451 268.428C497.387 269.017 498.063 269.884 498.479 271.028C498.86 269.901 499.51 269.043 500.429 268.454C501.365 267.847 502.422 267.544 503.601 267.544Z" fill="#3E3E3E"/>
<path d="M387 384.02V398H385.6V384.02H387ZM395.29 386.88C396.597 386.88 397.664 387.287 398.49 388.1C399.317 388.9 399.73 390.067 399.73 391.6V398H398.35V391.76C398.35 390.573 398.05 389.667 397.45 389.04C396.864 388.413 396.057 388.1 395.03 388.1C393.977 388.1 393.137 388.433 392.51 389.1C391.884 389.767 391.57 390.747 391.57 392.04V398H390.17V387.08H391.57V388.94C391.917 388.273 392.417 387.767 393.07 387.42C393.724 387.06 394.464 386.88 395.29 386.88ZM402.187 392.52C402.187 391.4 402.413 390.42 402.867 389.58C403.32 388.727 403.94 388.073 404.727 387.62C405.527 387.153 406.427 386.92 407.427 386.92C408.387 386.92 409.253 387.153 410.027 387.62C410.8 388.087 411.367 388.693 411.727 389.44V383.2H413.127V398H411.727V395.56C411.393 396.32 410.847 396.947 410.087 397.44C409.327 397.92 408.433 398.16 407.407 398.16C406.407 398.16 405.507 397.927 404.707 397.46C403.92 396.993 403.3 396.333 402.847 395.48C402.407 394.627 402.187 393.64 402.187 392.52ZM411.727 392.54C411.727 391.66 411.547 390.887 411.187 390.22C410.827 389.553 410.333 389.04 409.707 388.68C409.093 388.32 408.413 388.14 407.667 388.14C406.893 388.14 406.2 388.313 405.587 388.66C404.973 389.007 404.487 389.513 404.127 390.18C403.78 390.833 403.607 391.613 403.607 392.52C403.607 393.413 403.78 394.2 404.127 394.88C404.487 395.547 404.973 396.06 405.587 396.42C406.2 396.767 406.893 396.94 407.667 396.94C408.413 396.94 409.093 396.76 409.707 396.4C410.333 396.04 410.827 395.527 411.187 394.86C411.547 394.193 411.727 393.42 411.727 392.54ZM425.783 387.08V398H424.383V396.08C424.063 396.76 423.569 397.28 422.903 397.64C422.236 398 421.489 398.18 420.663 398.18C419.356 398.18 418.289 397.78 417.463 396.98C416.636 396.167 416.223 394.993 416.223 393.46V387.08H417.603V393.3C417.603 394.487 417.896 395.393 418.483 396.02C419.083 396.647 419.896 396.96 420.923 396.96C421.976 396.96 422.816 396.627 423.443 395.96C424.069 395.293 424.383 394.313 424.383 393.02V387.08H425.783ZM432.739 398.16C431.486 398.16 430.459 397.873 429.659 397.3C428.872 396.713 428.432 395.92 428.339 394.92H429.779C429.846 395.533 430.132 396.033 430.639 396.42C431.159 396.793 431.852 396.98 432.719 396.98C433.479 396.98 434.072 396.8 434.499 396.44C434.939 396.08 435.159 395.633 435.159 395.1C435.159 394.727 435.039 394.42 434.799 394.18C434.559 393.94 434.252 393.753 433.879 393.62C433.519 393.473 433.026 393.32 432.399 393.16C431.586 392.947 430.926 392.733 430.419 392.52C429.912 392.307 429.479 391.993 429.119 391.58C428.772 391.153 428.599 390.587 428.599 389.88C428.599 389.347 428.759 388.853 429.079 388.4C429.399 387.947 429.852 387.587 430.439 387.32C431.026 387.053 431.692 386.92 432.439 386.92C433.612 386.92 434.559 387.22 435.279 387.82C435.999 388.407 436.386 389.22 436.439 390.26H435.039C434.999 389.62 434.746 389.107 434.279 388.72C433.826 388.32 433.199 388.12 432.399 388.12C431.692 388.12 431.119 388.287 430.679 388.62C430.239 388.953 430.019 389.367 430.019 389.86C430.019 390.287 430.146 390.64 430.399 390.92C430.666 391.187 430.992 391.4 431.379 391.56C431.766 391.707 432.286 391.873 432.939 392.06C433.726 392.273 434.352 392.48 434.819 392.68C435.286 392.88 435.686 393.173 436.019 393.56C436.352 393.947 436.526 394.46 436.539 395.1C436.539 395.687 436.379 396.213 436.059 396.68C435.739 397.133 435.292 397.493 434.719 397.76C434.146 398.027 433.486 398.16 432.739 398.16ZM440.994 388.26V395.04C440.994 395.707 441.121 396.167 441.374 396.42C441.628 396.673 442.074 396.8 442.714 396.8H443.994V398H442.494C441.508 398 440.774 397.773 440.294 397.32C439.814 396.853 439.574 396.093 439.574 395.04V388.26H438.054V387.08H439.574V384.34H440.994V387.08H443.994V388.26H440.994ZM447.703 389.02C448.01 388.34 448.476 387.813 449.103 387.44C449.743 387.067 450.523 386.88 451.443 386.88V388.34H451.063C450.05 388.34 449.236 388.613 448.623 389.16C448.01 389.707 447.703 390.62 447.703 391.9V398H446.303V387.08H447.703V389.02ZM454.249 385.02C453.969 385.02 453.729 384.92 453.529 384.72C453.329 384.52 453.229 384.273 453.229 383.98C453.229 383.687 453.329 383.447 453.529 383.26C453.729 383.06 453.969 382.96 454.249 382.96C454.529 382.96 454.769 383.06 454.969 383.26C455.169 383.447 455.269 383.687 455.269 383.98C455.269 384.273 455.169 384.52 454.969 384.72C454.769 384.92 454.529 385.02 454.249 385.02ZM454.949 387.08V398H453.549V387.08H454.949ZM457.48 392.52C457.48 391.4 457.7 390.42 458.14 389.58C458.593 388.727 459.213 388.073 460 387.62C460.8 387.153 461.7 386.92 462.7 386.92C463.74 386.92 464.633 387.16 465.38 387.64C466.14 388.12 466.686 388.733 467.02 389.48V387.08H468.42V398H467.02V395.58C466.673 396.327 466.12 396.947 465.36 397.44C464.613 397.92 463.72 398.16 462.68 398.16C461.693 398.16 460.8 397.927 460 397.46C459.213 396.993 458.593 396.333 458.14 395.48C457.7 394.627 457.48 393.64 457.48 392.52ZM467.02 392.54C467.02 391.66 466.84 390.887 466.48 390.22C466.12 389.553 465.626 389.04 465 388.68C464.386 388.32 463.706 388.14 462.96 388.14C462.186 388.14 461.493 388.313 460.88 388.66C460.266 389.007 459.78 389.513 459.42 390.18C459.073 390.833 458.9 391.613 458.9 392.52C458.9 393.413 459.073 394.2 459.42 394.88C459.78 395.547 460.266 396.06 460.88 396.42C461.493 396.767 462.186 396.94 462.96 396.94C463.706 396.94 464.386 396.76 465 396.4C465.626 396.04 466.12 395.527 466.48 394.86C466.84 394.193 467.02 393.42 467.02 392.54ZM473.016 383.2V398H471.616V383.2H473.016ZM489.114 398L485.654 392.16H483.074V398H481.674V384.02H485.874C487.434 384.02 488.614 384.393 489.414 385.14C490.228 385.887 490.634 386.867 490.634 388.08C490.634 389.093 490.341 389.96 489.754 390.68C489.181 391.387 488.328 391.847 487.194 392.06L490.794 398H489.114ZM483.074 391.02H485.894C486.988 391.02 487.808 390.753 488.354 390.22C488.914 389.687 489.194 388.973 489.194 388.08C489.194 387.16 488.928 386.453 488.394 385.96C487.861 385.453 487.021 385.2 485.874 385.2H483.074V391.02ZM498.193 398.16C497.166 398.16 496.239 397.933 495.413 397.48C494.599 397.013 493.953 396.36 493.473 395.52C493.006 394.667 492.773 393.673 492.773 392.54C492.773 391.407 493.013 390.42 493.493 389.58C493.973 388.727 494.626 388.073 495.453 387.62C496.279 387.153 497.206 386.92 498.233 386.92C499.259 386.92 500.186 387.153 501.013 387.62C501.853 388.073 502.506 388.727 502.973 389.58C503.453 390.42 503.693 391.407 503.693 392.54C503.693 393.66 503.453 394.647 502.973 395.5C502.493 396.353 501.833 397.013 500.993 397.48C500.153 397.933 499.219 398.16 498.193 398.16ZM498.193 396.94C498.913 396.94 499.579 396.78 500.193 396.46C500.806 396.127 501.299 395.633 501.673 394.98C502.059 394.313 502.253 393.5 502.253 392.54C502.253 391.58 502.066 390.773 501.693 390.12C501.319 389.453 500.826 388.96 500.213 388.64C499.599 388.307 498.933 388.14 498.213 388.14C497.493 388.14 496.826 388.307 496.213 388.64C495.599 388.96 495.106 389.453 494.733 390.12C494.373 390.773 494.193 391.58 494.193 392.54C494.193 393.5 494.373 394.313 494.733 394.98C495.106 395.633 495.593 396.127 496.193 396.46C496.806 396.78 497.473 396.94 498.193 396.94ZM507.625 389.5C507.985 388.74 508.538 388.12 509.285 387.64C510.045 387.16 510.938 386.92 511.965 386.92C512.965 386.92 513.858 387.153 514.645 387.62C515.431 388.073 516.045 388.727 516.485 389.58C516.938 390.42 517.165 391.4 517.165 392.52C517.165 393.64 516.938 394.627 516.485 395.48C516.045 396.333 515.425 396.993 514.625 397.46C513.838 397.927 512.951 398.16 511.965 398.16C510.925 398.16 510.025 397.927 509.265 397.46C508.518 396.98 507.971 396.36 507.625 395.6V398H506.245V383.2H507.625V389.5ZM515.745 392.52C515.745 391.613 515.565 390.833 515.205 390.18C514.858 389.513 514.378 389.007 513.765 388.66C513.151 388.313 512.458 388.14 511.685 388.14C510.938 388.14 510.251 388.32 509.625 388.68C509.011 389.04 508.525 389.553 508.165 390.22C507.805 390.887 507.625 391.66 507.625 392.54C507.625 393.42 507.805 394.193 508.165 394.86C508.525 395.527 509.011 396.04 509.625 396.4C510.251 396.76 510.938 396.94 511.685 396.94C512.458 396.94 513.151 396.767 513.765 396.42C514.378 396.06 514.858 395.547 515.205 394.88C515.565 394.2 515.745 393.413 515.745 392.52ZM524.521 398.16C523.494 398.16 522.567 397.933 521.741 397.48C520.927 397.013 520.281 396.36 519.801 395.52C519.334 394.667 519.101 393.673 519.101 392.54C519.101 391.407 519.341 390.42 519.821 389.58C520.301 388.727 520.954 388.073 521.781 387.62C522.607 387.153 523.534 386.92 524.561 386.92C525.587 386.92 526.514 387.153 527.341 387.62C528.181 388.073 528.834 388.727 529.301 389.58C529.781 390.42 530.021 391.407 530.021 392.54C530.021 393.66 529.781 394.647 529.301 395.5C528.821 396.353 528.161 397.013 527.321 397.48C526.481 397.933 525.547 398.16 524.521 398.16ZM524.521 396.94C525.241 396.94 525.907 396.78 526.521 396.46C527.134 396.127 527.627 395.633 528.001 394.98C528.387 394.313 528.581 393.5 528.581 392.54C528.581 391.58 528.394 390.773 528.021 390.12C527.647 389.453 527.154 388.96 526.541 388.64C525.927 388.307 525.261 388.14 524.541 388.14C523.821 388.14 523.154 388.307 522.541 388.64C521.927 388.96 521.434 389.453 521.061 390.12C520.701 390.773 520.521 391.58 520.521 392.54C520.521 393.5 520.701 394.313 521.061 394.98C521.434 395.633 521.921 396.127 522.521 396.46C523.134 396.78 523.801 396.94 524.521 396.94ZM534.393 388.26V395.04C534.393 395.707 534.519 396.167 534.773 396.42C535.026 396.673 535.473 396.8 536.113 396.8H537.393V398H535.893C534.906 398 534.173 397.773 533.693 397.32C533.213 396.853 532.973 396.093 532.973 395.04V388.26H531.453V387.08H532.973V384.34H534.393V387.08H537.393V388.26H534.393ZM540.402 385.02C540.122 385.02 539.882 384.92 539.682 384.72C539.482 384.52 539.382 384.273 539.382 383.98C539.382 383.687 539.482 383.447 539.682 383.26C539.882 383.06 540.122 382.96 540.402 382.96C540.682 382.96 540.922 383.06 541.122 383.26C541.322 383.447 541.422 383.687 541.422 383.98C541.422 384.273 541.322 384.52 541.122 384.72C540.922 384.92 540.682 385.02 540.402 385.02ZM541.102 387.08V398H539.702V387.08H541.102ZM543.632 392.54C543.632 391.407 543.859 390.42 544.312 389.58C544.765 388.727 545.392 388.073 546.192 387.62C546.992 387.153 547.905 386.92 548.932 386.92C550.279 386.92 551.385 387.253 552.252 387.92C553.132 388.587 553.699 389.493 553.952 390.64H552.452C552.265 389.853 551.859 389.24 551.232 388.8C550.619 388.347 549.852 388.12 548.932 388.12C548.199 388.12 547.539 388.287 546.952 388.62C546.365 388.953 545.899 389.453 545.552 390.12C545.219 390.773 545.052 391.58 545.052 392.54C545.052 393.5 545.219 394.313 545.552 394.98C545.899 395.647 546.365 396.147 546.952 396.48C547.539 396.813 548.199 396.98 548.932 396.98C549.852 396.98 550.619 396.76 551.232 396.32C551.859 395.867 552.265 395.24 552.452 394.44H553.952C553.699 395.56 553.132 396.46 552.252 397.14C551.372 397.82 550.265 398.16 548.932 398.16C547.905 398.16 546.992 397.933 546.192 397.48C545.392 397.013 544.765 396.36 544.312 395.52C543.859 394.667 543.632 393.673 543.632 392.54ZM560.298 398.16C559.044 398.16 558.018 397.873 557.218 397.3C556.431 396.713 555.991 395.92 555.898 394.92H557.338C557.404 395.533 557.691 396.033 558.198 396.42C558.718 396.793 559.411 396.98 560.278 396.98C561.038 396.98 561.631 396.8 562.058 396.44C562.498 396.08 562.718 395.633 562.718 395.1C562.718 394.727 562.598 394.42 562.358 394.18C562.118 393.94 561.811 393.753 561.438 393.62C561.078 393.473 560.584 393.32 559.958 393.16C559.144 392.947 558.484 392.733 557.978 392.52C557.471 392.307 557.038 391.993 556.678 391.58C556.331 391.153 556.158 390.587 556.158 389.88C556.158 389.347 556.318 388.853 556.638 388.4C556.958 387.947 557.411 387.587 557.998 387.32C558.584 387.053 559.251 386.92 559.998 386.92C561.171 386.92 562.118 387.22 562.838 387.82C563.558 388.407 563.944 389.22 563.998 390.26H562.598C562.558 389.62 562.304 389.107 561.838 388.72C561.384 388.32 560.758 388.12 559.958 388.12C559.251 388.12 558.678 388.287 558.238 388.62C557.798 388.953 557.577 389.367 557.577 389.86C557.577 390.287 557.704 390.64 557.958 390.92C558.224 391.187 558.551 391.4 558.938 391.56C559.324 391.707 559.844 391.873 560.498 392.06C561.284 392.273 561.911 392.48 562.378 392.68C562.844 392.88 563.244 393.173 563.578 393.56C563.911 393.947 564.084 394.46 564.098 395.1C564.098 395.687 563.938 396.213 563.618 396.68C563.298 397.133 562.851 397.493 562.278 397.76C561.704 398.027 561.044 398.16 560.298 398.16ZM573.621 385.16V390.38H578.921V391.54H573.621V396.84H579.521V398H572.221V384H579.521V385.16H573.621ZM587.4 386.88C588.706 386.88 589.773 387.287 590.6 388.1C591.426 388.9 591.84 390.067 591.84 391.6V398H590.46V391.76C590.46 390.573 590.16 389.667 589.56 389.04C588.973 388.413 588.166 388.1 587.14 388.1C586.086 388.1 585.246 388.433 584.62 389.1C583.993 389.767 583.68 390.747 583.68 392.04V398H582.28V387.08H583.68V388.94C584.026 388.273 584.526 387.767 585.18 387.42C585.833 387.06 586.573 386.88 587.4 386.88ZM599.516 386.92C600.543 386.92 601.436 387.16 602.196 387.64C602.956 388.12 603.503 388.727 603.836 389.46V387.08H605.236V398.28C605.236 399.28 605.016 400.167 604.576 400.94C604.149 401.713 603.549 402.307 602.776 402.72C602.003 403.147 601.123 403.36 600.136 403.36C598.736 403.36 597.569 403.027 596.636 402.36C595.716 401.693 595.143 400.787 594.916 399.64H596.296C596.536 400.4 596.989 401.007 597.656 401.46C598.336 401.913 599.163 402.14 600.136 402.14C600.843 402.14 601.476 401.987 602.036 401.68C602.596 401.387 603.036 400.947 603.356 400.36C603.676 399.773 603.836 399.08 603.836 398.28V395.58C603.489 396.327 602.936 396.947 602.176 397.44C601.429 397.92 600.543 398.16 599.516 398.16C598.516 398.16 597.616 397.927 596.816 397.46C596.029 396.993 595.409 396.333 594.956 395.48C594.516 394.627 594.296 393.64 594.296 392.52C594.296 391.4 594.516 390.42 594.956 389.58C595.409 388.727 596.029 388.073 596.816 387.62C597.616 387.153 598.516 386.92 599.516 386.92ZM603.836 392.54C603.836 391.66 603.656 390.887 603.296 390.22C602.936 389.553 602.443 389.04 601.816 388.68C601.203 388.32 600.523 388.14 599.776 388.14C599.003 388.14 598.309 388.313 597.696 388.66C597.083 389.007 596.596 389.513 596.236 390.18C595.889 390.833 595.716 391.613 595.716 392.52C595.716 393.413 595.889 394.2 596.236 394.88C596.596 395.547 597.083 396.06 597.696 396.42C598.309 396.767 599.003 396.94 599.776 396.94C600.523 396.94 601.203 396.76 601.816 396.4C602.443 396.04 602.936 395.527 603.296 394.86C603.656 394.193 603.836 393.42 603.836 392.54ZM618.312 391.98C618.312 392.46 618.299 392.827 618.272 393.08H609.212C609.252 393.907 609.452 394.613 609.812 395.2C610.172 395.787 610.645 396.233 611.232 396.54C611.819 396.833 612.459 396.98 613.152 396.98C614.059 396.98 614.819 396.76 615.432 396.32C616.059 395.88 616.472 395.287 616.672 394.54H618.152C617.885 395.607 617.312 396.48 616.432 397.16C615.565 397.827 614.472 398.16 613.152 398.16C612.125 398.16 611.205 397.933 610.392 397.48C609.579 397.013 608.939 396.36 608.472 395.52C608.019 394.667 607.792 393.673 607.792 392.54C607.792 391.407 608.019 390.413 608.472 389.56C608.925 388.707 609.559 388.053 610.372 387.6C611.185 387.147 612.112 386.92 613.152 386.92C614.192 386.92 615.099 387.147 615.872 387.6C616.659 388.053 617.259 388.667 617.672 389.44C618.099 390.2 618.312 391.047 618.312 391.98ZM616.892 391.94C616.905 391.127 616.739 390.433 616.392 389.86C616.059 389.287 615.599 388.853 615.012 388.56C614.425 388.267 613.785 388.12 613.092 388.12C612.052 388.12 611.165 388.453 610.432 389.12C609.699 389.787 609.292 390.727 609.212 391.94H616.892ZM630.753 391.98C630.753 392.46 630.74 392.827 630.713 393.08H621.653C621.693 393.907 621.893 394.613 622.253 395.2C622.613 395.787 623.087 396.233 623.673 396.54C624.26 396.833 624.9 396.98 625.593 396.98C626.5 396.98 627.26 396.76 627.873 396.32C628.5 395.88 628.913 395.287 629.113 394.54H630.593C630.327 395.607 629.753 396.48 628.873 397.16C628.007 397.827 626.913 398.16 625.593 398.16C624.567 398.16 623.647 397.933 622.833 397.48C622.02 397.013 621.38 396.36 620.913 395.52C620.46 394.667 620.233 393.673 620.233 392.54C620.233 391.407 620.46 390.413 620.913 389.56C621.367 388.707 622 388.053 622.813 387.6C623.627 387.147 624.553 386.92 625.593 386.92C626.633 386.92 627.54 387.147 628.313 387.6C629.1 388.053 629.7 388.667 630.113 389.44C630.54 390.2 630.753 391.047 630.753 391.98ZM629.333 391.94C629.347 391.127 629.18 390.433 628.833 389.86C628.5 389.287 628.04 388.853 627.453 388.56C626.867 388.267 626.227 388.12 625.533 388.12C624.493 388.12 623.607 388.453 622.873 389.12C622.14 389.787 621.733 390.727 621.653 391.94H629.333ZM638.435 386.88C639.742 386.88 640.808 387.287 641.635 388.1C642.462 388.9 642.875 390.067 642.875 391.6V398H641.495V391.76C641.495 390.573 641.195 389.667 640.595 389.04C640.008 388.413 639.202 388.1 638.175 388.1C637.122 388.1 636.282 388.433 635.655 389.1C635.028 389.767 634.715 390.747 634.715 392.04V398H633.315V387.08H634.715V388.94C635.062 388.273 635.562 387.767 636.215 387.42C636.868 387.06 637.608 386.88 638.435 386.88ZM646.671 385.02C646.391 385.02 646.151 384.92 645.951 384.72C645.751 384.52 645.651 384.273 645.651 383.98C645.651 383.687 645.751 383.447 645.951 383.26C646.151 383.06 646.391 382.96 646.671 382.96C646.951 382.96 647.191 383.06 647.391 383.26C647.591 383.447 647.691 383.687 647.691 383.98C647.691 384.273 647.591 384.52 647.391 384.72C647.191 384.92 646.951 385.02 646.671 385.02ZM647.371 387.08V398H645.971V387.08H647.371ZM660.421 391.98C660.421 392.46 660.408 392.827 660.381 393.08H651.321C651.361 393.907 651.561 394.613 651.921 395.2C652.281 395.787 652.755 396.233 653.341 396.54C653.928 396.833 654.568 396.98 655.261 396.98C656.168 396.98 656.928 396.76 657.541 396.32C658.168 395.88 658.581 395.287 658.781 394.54H660.261C659.995 395.607 659.421 396.48 658.541 397.16C657.675 397.827 656.581 398.16 655.261 398.16C654.235 398.16 653.315 397.933 652.501 397.48C651.688 397.013 651.048 396.36 650.581 395.52C650.128 394.667 649.901 393.673 649.901 392.54C649.901 391.407 650.128 390.413 650.581 389.56C651.035 388.707 651.668 388.053 652.481 387.6C653.295 387.147 654.221 386.92 655.261 386.92C656.301 386.92 657.208 387.147 657.981 387.6C658.768 388.053 659.368 388.667 659.781 389.44C660.208 390.2 660.421 391.047 660.421 391.98ZM659.001 391.94C659.015 391.127 658.848 390.433 658.501 389.86C658.168 389.287 657.708 388.853 657.121 388.56C656.535 388.267 655.895 388.12 655.201 388.12C654.161 388.12 653.275 388.453 652.541 389.12C651.808 389.787 651.401 390.727 651.321 391.94H659.001ZM664.383 389.02C664.689 388.34 665.156 387.813 665.783 387.44C666.423 387.067 667.203 386.88 668.123 386.88V388.34H667.743C666.729 388.34 665.916 388.613 665.303 389.16C664.689 389.707 664.383 390.62 664.383 391.9V398H662.983V387.08H664.383V389.02Z" fill="#383E45"/>
<defs>
<linearGradient id="paint0_linear" x1="333.125" y1="517.004" x2="333.125" y2="516.62" gradientUnits="userSpaceOnUse">
<stop stop-color="#808080" stop-opacity="0.25"/>
<stop offset="0.53514" stop-color="#808080" stop-opacity="0.12"/>
<stop offset="1" stop-color="#808080" stop-opacity="0.1"/>
</linearGradient>
<clipPath id="clip0">
<rect width="625.115" height="586.554" fill="white"/>
</clipPath>
</defs>
</svg>
