<svg width="566" height="274" viewBox="0 0 566 274" fill="none" xmlns="http://www.w3.org/2000/svg">
<path fill-rule="evenodd" clip-rule="evenodd" d="M281 75.7426H366V0H281V75.7426ZM324.485 17.3503H331.397L335.496 37.3978L339.395 17.3869H346.429V46.8017H342.128V26.1709L337.506 46.8744H333.649L328.946 25.9159L328.987 47.0933H324.444L324.485 17.3503ZM300.773 31.1644V24.7495C300.773 23.3281 300.29 16.2932 309.092 16.2205C317.894 16.1476 317.853 22.0888 317.853 22.0888V26.4997H313.111C313.111 26.4997 313.875 20.5947 309.454 20.4486C305.797 20.3391 306.078 24.1663 306.078 24.1663V39.9129C306.078 39.9129 305.796 43.6305 309.454 43.6305C313.594 43.6305 313.111 39.7673 313.111 39.7673V34.1539H309.977V31.1289H317.853V47.8592H314.196V46.1095L313.915 46.8017C313.272 47.7854 311.101 47.8587 309.092 47.8587C300.29 47.7854 300.772 40.7511 300.772 39.3297L300.773 31.1644ZM300.934 58.7206V51.8319H346.911V58.7206H300.934Z" fill="#2360A5"/>
<path d="M61.0958 14.48H73.9244L78.6563 32.4958H78.976C79.2032 30.9953 79.4314 29.4023 79.841 27.9493L83.7057 14.48H96.4017L102.041 48.7839H89.9861L88.3006 29.9947H88.0751C87.8482 31.1314 87.6197 32.3135 87.2559 33.4058L82.2972 48.7843H75.0184L70.56 34.2694C70.1957 32.8138 69.876 31.4494 69.7844 29.9942H69.3748C69.2854 31.3595 69.1947 32.7689 69.0577 34.1316L67.6004 48.7835H55.5452L61.0958 14.48Z" fill="#ACACAC"/>
<path d="M120.492 36.364L119.037 30.3126C118.673 28.8553 118.445 27.3548 118.216 25.8992H117.763L115.487 36.364H120.492ZM112.256 48.7839H99.064L110.982 14.48H124.769L137.008 48.7839H123.813L122.678 44.5057H113.257L112.256 48.7839ZM170.898 28.5836C170.804 34.18 170.804 38.8652 166.755 43.2311C163.115 47.1913 157.522 49.3296 152.198 49.3296C141.736 49.3296 133.274 42.869 133.274 31.859C133.274 20.6683 141.507 13.9338 152.29 13.9338C158.25 13.9338 166.44 16.8917 169.122 22.7603L157.475 27.0381C156.52 25.309 154.747 24.3987 152.744 24.3987C148.288 24.3987 145.829 28.2202 145.829 32.3593C145.829 36.1337 148.195 39.6839 152.243 39.6839C154.201 39.6839 156.703 38.7736 157.293 36.6816H151.653V28.5836H170.898ZM171.829 14.48H183.796L194.986 33.4978H195.348C194.85 30.6311 194.303 27.6736 194.303 24.7625V14.48H206.221V48.7839H194.303L183.339 30.7685H182.976C183.384 33.1322 183.749 35.3625 183.749 37.639V48.7839H171.828V14.48H171.829Z" fill="#ACACAC"/>
<path d="M226.402 36.364L224.944 30.3127C224.581 28.8553 224.354 27.3548 224.125 25.8992H223.671L221.396 36.364H226.402ZM218.167 48.7839H204.973L216.891 14.48H230.677L242.915 48.7839H229.722L228.584 44.5057H219.168L218.167 48.7839Z" fill="#ACACAC"/>
<path d="M36.5307 48.8175L49.4566 48.8192L37.0086 14.5728L27.5462 14.571L25.8071 19.3371L36.5307 48.8175Z" fill="black"/>
<path d="M27.7644 0C24.2963 0 21.4854 2.81009 21.4854 6.28036C21.4854 9.74631 24.2963 12.5586 27.7644 12.5586C31.2325 12.5586 34.0426 9.74631 34.0426 6.27993C34.0426 2.81009 31.2325 0 27.7644 0Z" fill="#E22E2F"/>
<path d="M0 48.8175L19.2688 48.8158L9.63184 22.3627L0 48.8175ZM21.4546 48.8175L34.3804 48.8192L21.9294 14.5728L12.4683 14.571L10.7314 19.3371L21.4546 48.8175Z" fill="black"/>
<path fill-rule="evenodd" clip-rule="evenodd" d="M528.72 249.668H491.396C485.832 249.668 480.384 244.261 480.384 238.625V201.813C480.384 196.407 485.832 191 491.396 191H528.719C534.399 191 539.73 196.407 539.73 201.813V238.625C539.73 244.261 534.399 249.668 528.72 249.668ZM510.173 197.672L484.325 227.696L497.076 242.65L510.173 228.041L523.156 242.65L536.138 227.696L510.173 197.672Z" fill="#3165AA"/>
<path fill-rule="evenodd" clip-rule="evenodd" d="M503.567 273.595C500.902 273.595 498.699 271.409 498.699 268.879V260.942C498.699 258.296 500.902 256.225 503.567 256.225H516.781V259.561H502.408V270.259H516.781V273.595H503.567V273.595ZM485.369 273.595C482.703 273.595 480.616 271.409 480.616 268.879V256.111H484.209V270.259H496.612V273.595H485.369ZM534.979 273.595H524.083C521.533 273.595 519.331 271.409 519.331 268.879V260.942C519.331 258.296 521.533 256.225 524.083 256.225H534.979C537.644 256.225 539.731 258.296 539.731 260.942V268.879C539.731 271.41 537.645 273.595 534.979 273.595ZM523.04 270.259H536.138V259.562H523.04V270.259ZM475.516 273.595H479.341L469.837 257.836C469.141 256.801 468.33 256.34 467.171 256.34C466.012 256.34 465.201 256.801 464.505 257.836L455 273.595H458.825L460.796 270.375H473.662L475.516 273.595ZM462.651 267.268L467.055 259.906L467.171 259.79L467.403 259.906L471.692 267.268H462.651ZM561.175 273.595H565L555.496 257.836C554.8 256.801 553.989 256.34 552.83 256.34C551.67 256.34 550.858 256.801 550.163 257.836L540.659 273.595H544.484L546.455 270.375H559.321L561.175 273.595ZM548.308 267.268L552.713 259.906L552.829 259.79L553.061 259.906L557.35 267.268H548.308Z" fill="#3165AA" stroke="#3165AA" stroke-width="0.386816" stroke-miterlimit="2.613"/>
<path fill-rule="evenodd" clip-rule="evenodd" d="M510.174 227.926L497.771 214.007H522.693L510.174 227.926Z" fill="#3165AA"/>
<path d="M455.5 81C415.262 81 383 93.0617 383 108.184C383 123.216 415.528 135.375 455.5 135.375C495.479 135.375 528 123.177 528 108.184C528 93.1914 495.479 81 455.5 81Z" fill="#003478"/>
<path d="M484.059 113.943C484.079 114.073 484.241 114.189 484.396 114.248C484.461 114.267 484.487 114.306 484.422 114.442C483.968 115.402 483.56 115.96 482.996 116.803C482.477 117.581 481.887 118.184 481.18 118.767C480.104 119.656 478.619 120.616 477.386 119.974C476.842 119.688 476.608 118.923 476.615 118.307C476.641 116.563 477.419 114.779 478.845 113.022C480.59 110.882 482.516 109.767 483.774 110.37C485.084 110.999 484.669 112.51 484.085 113.696C484.045 113.772 484.036 113.86 484.059 113.943ZM498.092 100.39C498.183 100.221 498.092 100.098 497.878 100.098H494.214C493.942 100.098 493.799 100.137 493.676 100.39C493.255 101.194 488.132 108.865 487.178 110.357C487.023 110.584 486.822 110.551 486.802 110.292C486.705 109.41 485.94 108.392 484.734 107.905C483.865 107.555 482.918 107.443 481.991 107.581C480.305 107.815 478.807 108.703 477.484 109.702C475.499 111.213 473.787 113.171 471.57 114.624C470.357 115.408 468.703 116.096 467.594 115.071C466.596 114.144 466.706 112.075 468.243 110.48C468.405 110.311 468.6 110.454 468.567 110.603C468.484 110.95 468.495 111.313 468.597 111.654C468.7 111.996 468.891 112.305 469.151 112.549C469.819 113.145 470.772 113.217 471.595 112.808C472.056 112.568 472.452 112.219 472.748 111.792C473.044 111.365 473.231 110.872 473.295 110.357C473.349 109.977 473.324 109.591 473.223 109.221C473.121 108.851 472.944 108.506 472.703 108.208C472.462 107.91 472.162 107.665 471.822 107.488C471.482 107.311 471.109 107.206 470.727 107.179C469.456 107.088 468.23 107.529 467.037 108.515C466.474 108.969 465.984 109.507 465.584 110.11C465.454 110.292 465.266 110.305 465.273 110.045C465.331 107.957 464.469 106.784 462.744 106.745C461.408 106.712 459.975 107.439 458.859 108.327C457.64 109.306 456.57 110.61 455.422 111.829C455.286 111.984 455.163 111.978 455.118 111.686C455.124 110.39 454.772 109.117 454.1 108.009C453.981 107.837 453.803 107.714 453.599 107.665C453.396 107.616 453.181 107.644 452.997 107.743C452.809 107.841 452.167 108.132 451.7 108.515C451.467 108.71 451.376 108.982 451.48 109.339C452.096 111.401 451.96 113.748 451.123 115.733C450.351 117.548 448.86 119.189 447.102 119.74C445.948 120.11 444.742 119.928 443.996 118.897C442.978 117.484 443.387 115.026 444.911 112.977C446.259 111.174 448.205 110.032 450.144 109.293C450.371 109.209 450.423 109.06 450.358 108.865L450.014 107.918C449.833 107.439 449.333 107.367 448.73 107.432C447.316 107.594 446.045 108.081 444.787 108.748C441.5 110.512 439.846 113.923 439.126 115.752C438.882 116.436 438.534 117.079 438.095 117.659C437.576 118.307 436.928 118.904 435.735 119.948C435.67 120.007 435.625 120.086 435.608 120.172C435.59 120.258 435.601 120.348 435.637 120.428C435.881 120.872 436.189 121.279 436.552 121.634C436.746 121.731 436.973 121.595 437.064 121.53C437.894 120.966 438.893 120.071 439.379 119.461C439.548 119.254 439.729 119.345 439.82 119.656C440.04 120.466 440.455 121.209 441.03 121.821C441.604 122.433 442.32 122.894 443.114 123.164C446.13 124.182 449.262 122.71 451.622 120.142C453.12 118.521 453.665 117.464 454.242 116.757C455.215 115.545 457.141 112.84 459.43 111.109C460.273 110.467 461.265 109.981 461.765 110.305C462.167 110.564 462.296 111.167 461.654 112.341C459.32 116.608 455.883 121.614 455.247 122.833C455.131 123.041 455.234 123.21 455.455 123.21H458.996C459.184 123.197 459.268 123.112 459.359 122.983C461.148 120.175 462.835 117.503 464.644 114.747C464.748 114.578 464.838 114.708 464.838 114.779C464.884 115.415 465.033 116.29 465.422 116.867C465.702 117.339 466.101 117.728 466.579 117.996C467.057 118.265 467.597 118.403 468.146 118.398C468.906 118.408 469.659 118.249 470.35 117.931C471.103 117.652 471.712 117.289 472.166 116.958C472.439 116.77 472.49 117.088 472.477 117.133C472.062 119.358 472.575 121.997 474.792 123.099C477.438 124.396 480.35 122.568 482.03 120.907C482.192 120.745 482.367 120.765 482.386 121.109C482.425 121.744 482.71 122.49 483.229 123.022C484.63 124.429 487.464 123.865 490.304 121.666C492.133 120.259 494.039 118.268 495.764 116.161C495.829 116.083 495.881 115.953 495.751 115.817C495.492 115.545 495.109 115.233 494.85 114.987C494.733 114.883 494.558 114.916 494.461 114.987C492.691 116.673 491.095 118.586 488.8 120.175C488.021 120.713 486.789 121.147 486.232 120.402C486.011 120.11 486.037 119.708 486.251 119.17C486.919 117.503 497.535 101.336 498.092 100.383" fill="white"/>
<path d="M448.134 102.341C448.179 102.581 448.276 102.627 448.386 102.601C448.991 102.436 449.516 102.059 449.865 101.537C450.189 101.07 450.338 100.396 450.021 100.124C449.735 99.8837 449.275 99.9486 448.931 100.253C448.639 100.511 448.414 100.835 448.275 101.199C448.136 101.563 448.088 101.955 448.134 102.341ZM421.072 123.151C417.117 123.177 413.628 120.732 413.226 116.491C412.994 114.286 413.629 112.077 414.996 110.331C416.176 108.794 418.174 107.523 419.86 107.212C420.405 107.108 421.144 107.173 421.449 107.536C421.928 108.093 421.792 108.703 421.312 108.949C420.022 109.604 418.472 110.733 417.707 112.27C417.353 112.923 417.185 113.66 417.221 114.402C417.256 115.144 417.494 115.862 417.908 116.478C419.497 118.878 423.932 118.943 428.05 115.117C429.075 114.176 429.983 113.275 430.91 112.211C432.726 110.136 433.329 109.377 435.741 106.031C435.767 105.992 435.78 105.941 435.767 105.921C435.748 105.876 435.715 105.869 435.644 105.856C434.036 105.908 432.628 106.388 431.267 107.406C430.877 107.691 430.307 107.653 430.06 107.276C429.788 106.848 429.983 106.291 430.437 105.979C432.628 104.449 435.028 104.177 437.479 103.762C437.479 103.762 437.648 103.762 437.79 103.587C438.795 102.29 439.554 101.129 440.624 99.8254C441.707 98.5025 443.101 97.2833 444.165 96.369C445.656 95.0915 446.61 94.6635 447.576 94.1317C447.835 94.002 447.543 93.8399 447.466 93.8399C442.051 92.8218 436.428 91.5054 431.053 93.4962C427.33 94.884 425.696 97.841 426.481 99.8124C427.039 101.213 428.88 101.434 430.605 100.591C432.032 99.8967 433.361 98.7619 434.301 97.3093C434.82 96.4987 435.929 97.0823 435.333 98.4895C433.757 102.186 430.754 105.117 427.097 105.24C423.978 105.344 421.967 103.048 421.974 100.221C421.987 94.644 428.199 90.9736 434.716 90.4224C442.576 89.774 450.021 91.8685 457.822 92.8153C463.801 93.5351 469.533 93.5546 475.545 92.1668C476.258 92.0177 476.751 92.4716 476.712 93.185C476.647 94.2225 475.843 95.2212 473.865 96.2977C471.615 97.5362 469.261 97.9124 466.797 97.9318C460.857 97.9837 455.319 95.6621 449.58 94.4171C449.586 94.67 449.657 94.9683 449.45 95.1304C446.272 97.4649 443.4 99.8448 441.474 103.185C441.409 103.262 441.448 103.34 441.558 103.327C443.231 103.243 444.729 103.197 446.292 103.068C446.558 103.048 446.571 102.983 446.551 102.782C446.467 102.166 446.533 101.538 446.743 100.952C446.953 100.366 447.301 99.8396 447.757 99.4168C448.795 98.4895 450.092 98.3793 450.954 99.0537C451.927 99.8124 451.843 101.187 451.311 102.212C451.071 102.663 450.744 103.061 450.347 103.383C449.95 103.705 449.493 103.944 449.003 104.086C449.003 104.086 448.821 104.125 448.847 104.287C448.879 104.546 450.06 105.201 450.157 105.376C450.254 105.545 450.202 105.798 450.027 105.992C449.958 106.077 449.871 106.145 449.772 106.192C449.673 106.239 449.566 106.264 449.456 106.265C449.255 106.265 449.132 106.193 448.873 106.051C448.255 105.72 447.704 105.276 447.252 104.741C447.096 104.553 447.018 104.546 446.649 104.572C444.962 104.67 442.33 104.922 440.553 105.143C440.118 105.195 440.053 105.279 439.969 105.428C437.129 110.11 434.094 115.162 430.761 118.547C427.194 122.172 424.224 123.125 421.072 123.151Z" fill="white"/>
<path d="M455.5 85.4485C418.478 85.4485 388.473 95.675 388.473 108.197C388.473 120.713 418.478 130.946 455.5 130.946C492.522 130.946 522.527 120.713 522.527 108.197C522.527 95.6815 492.515 85.4485 455.5 85.4485ZM455.5 133.008C417.13 133.008 386.029 121.9 386.029 108.197C386.029 94.4883 417.13 83.3864 455.5 83.3864C493.864 83.3864 524.965 94.4883 524.965 108.197C524.965 121.9 493.864 133.008 455.5 133.008Z" fill="white"/>
</svg>
