<svg width="269" height="129" viewBox="0 0 269 129" fill="none" xmlns="http://www.w3.org/2000/svg">
<path fill-rule="evenodd" clip-rule="evenodd" d="M51.27 55.8388H30.552C27.4636 55.8388 24.4395 52.8287 24.4395 49.6906V29.1965C24.4395 26.1867 27.4636 23.1766 30.552 23.1766H51.2697C54.4224 23.1766 57.382 26.1867 57.382 29.1965V49.6906C57.382 52.8287 54.4228 55.8388 51.27 55.8388ZM40.9753 26.8911L26.6274 43.6064L33.7051 51.9318L40.9753 43.7987L48.1816 51.9318L55.3878 43.6064L40.9753 26.8911Z" fill="#3165AA"/>
<path fill-rule="evenodd" clip-rule="evenodd" d="M37.3083 69.1599C35.8285 69.1599 34.6059 67.9428 34.6059 66.5342V62.1155C34.6059 60.6422 35.8285 59.4892 37.3083 59.4892H44.6431V61.3466H36.6647V67.3022H44.6428V69.1595H37.3083V69.1599ZM27.2065 69.1599C25.7267 69.1599 24.5684 67.9428 24.5684 66.5342V59.4255H26.5629V67.3025H33.4476V69.1599H27.2065ZM54.7446 69.1599H48.6963C47.2808 69.1599 46.0583 67.9428 46.0583 66.5342V62.1155C46.0583 60.6422 47.2808 59.4892 48.6963 59.4892H54.7446C56.224 59.4892 57.3823 60.6422 57.3823 62.1155V66.5342C57.3823 67.9431 56.2244 69.1599 54.7446 69.1599ZM48.1173 67.3025H55.3876V61.3469H48.1173V67.3025ZM21.7375 69.1599H23.8605L18.5847 60.386C18.1987 59.8097 17.7486 59.5535 17.1053 59.5535C16.4617 59.5535 16.0113 59.8097 15.6252 60.386L10.3491 69.1599H12.4722L13.5662 67.3668H20.7081L21.7375 69.1599ZM14.5958 65.6373L17.0407 61.5385L17.1053 61.4742L17.2339 61.5385L19.6148 65.6373H14.5958ZM69.2854 69.1599H71.4087L66.133 60.386C65.7469 59.8097 65.2965 59.5535 64.6532 59.5535C64.0096 59.5535 63.5589 59.8097 63.1731 60.386L57.8973 69.1599H60.0207L61.1144 67.3668H68.2563L69.2854 69.1599ZM62.1434 65.6373L64.5883 61.5385L64.6529 61.4742L64.7815 61.5385L67.1623 65.6373H62.1434Z" fill="#3165AA" stroke="#3165AA" stroke-width="0.261096" stroke-miterlimit="2.613"/>
<path fill-rule="evenodd" clip-rule="evenodd" d="M40.9754 43.7347L34.0909 35.9854H47.9245L40.9754 43.7347Z" fill="#3165AA"/>
<path d="M222.034 33.6086C196.903 33.6086 176.753 41.142 176.753 50.587C176.753 59.9753 197.069 67.5694 222.034 67.5694C247.004 67.5694 267.315 59.951 267.315 50.587C267.315 41.223 247.004 33.6086 222.034 33.6086Z" fill="#003478"/>
<path d="M239.871 54.1835C239.884 54.2645 239.985 54.3374 240.082 54.3739C240.123 54.386 240.139 54.4103 240.098 54.4954C239.815 55.0948 239.56 55.4431 239.207 55.9696C238.883 56.4557 238.515 56.8323 238.073 57.1968C237.401 57.7517 236.473 58.3511 235.704 57.9502C235.364 57.772 235.218 57.294 235.222 56.9093C235.238 55.8198 235.724 54.706 236.615 53.6084C237.705 52.2718 238.907 51.5752 239.693 51.9519C240.511 52.3447 240.252 53.2884 239.888 54.0296C239.862 54.0769 239.857 54.132 239.871 54.1835ZM248.636 45.7186C248.693 45.6133 248.636 45.5364 248.502 45.5364H246.214C246.044 45.5364 245.955 45.5607 245.878 45.7186C245.615 46.2209 242.415 51.0122 241.82 51.9438C241.722 52.0855 241.597 52.0653 241.585 51.9033C241.524 51.3524 241.046 50.7166 240.293 50.4128C239.75 50.1937 239.158 50.1237 238.579 50.2103C237.526 50.3561 236.591 50.911 235.765 51.5347C234.525 52.4784 233.456 53.7015 232.071 54.6088C231.313 55.0988 230.281 55.5282 229.588 54.8882C228.964 54.3091 229.033 53.0171 229.993 52.0207C230.094 51.9154 230.216 52.0045 230.196 52.0977C230.144 52.3143 230.15 52.5409 230.214 52.7542C230.278 52.9676 230.398 53.1603 230.56 53.3127C230.977 53.6853 231.573 53.7299 232.087 53.4747C232.375 53.3247 232.622 53.107 232.807 52.8403C232.991 52.5735 233.109 52.2659 233.148 51.9438C233.182 51.7067 233.167 51.4652 233.103 51.2343C233.04 51.0035 232.929 50.7882 232.779 50.6019C232.628 50.4157 232.441 50.2625 232.228 50.1519C232.016 50.0413 231.783 49.9757 231.544 49.9592C230.75 49.9025 229.985 50.1779 229.24 50.7935C228.888 51.0772 228.582 51.4133 228.332 51.7898C228.251 51.9033 228.134 51.9114 228.138 51.7493C228.174 50.4452 227.636 49.7121 226.558 49.6878C225.724 49.6676 224.829 50.1212 224.132 50.6761C223.371 51.2876 222.703 52.1017 221.986 52.8631C221.901 52.9604 221.824 52.9563 221.795 52.774C221.799 51.9645 221.579 51.1697 221.16 50.4776C221.085 50.37 220.974 50.2935 220.847 50.2629C220.72 50.2322 220.586 50.2495 220.471 50.3115C220.354 50.3723 219.953 50.5545 219.661 50.7935C219.515 50.915 219.459 51.0851 219.523 51.3079C219.908 52.5958 219.823 54.062 219.301 55.3014C218.819 56.4354 217.887 57.4601 216.789 57.8044C216.069 58.0352 215.315 57.9218 214.849 57.2778C214.214 56.3949 214.469 54.8599 215.42 53.58C216.263 52.4541 217.478 51.7412 218.689 51.2795C218.831 51.2269 218.863 51.1337 218.823 51.0122L218.608 50.4209C218.495 50.1212 218.183 50.0766 217.806 50.1171C216.923 50.2184 216.129 50.5221 215.344 50.9393C213.29 52.041 212.257 54.1714 211.808 55.3135C211.655 55.7409 211.438 56.1425 211.164 56.5043C210.84 56.9093 210.435 57.2819 209.689 57.934C209.649 57.971 209.621 58.02 209.61 58.0739C209.599 58.1278 209.606 58.1837 209.629 58.2337C209.781 58.5114 209.974 58.7652 210.2 58.987C210.321 59.0478 210.463 58.9627 210.52 58.9222C211.038 58.5698 211.662 58.0109 211.966 57.6302C212.071 57.5006 212.184 57.5573 212.241 57.7517C212.378 58.2575 212.638 58.7219 212.997 59.1039C213.355 59.486 213.802 59.7741 214.299 59.9429C216.182 60.5787 218.138 59.6593 219.612 58.0555C220.548 57.0429 220.888 56.3827 221.249 55.9413C221.856 55.1839 223.059 53.495 224.489 52.4136C225.015 52.0126 225.635 51.7088 225.947 51.9114C226.198 52.0734 226.279 52.45 225.878 53.1831C224.42 55.8481 222.273 58.9749 221.876 59.7363C221.804 59.8659 221.868 59.9712 222.006 59.9712H224.217C224.335 59.9631 224.388 59.9105 224.444 59.8294C225.562 58.0757 226.615 56.407 227.745 54.6857C227.81 54.5804 227.867 54.6614 227.867 54.706C227.895 55.1029 227.988 55.6497 228.231 56.0101C228.406 56.3044 228.656 56.5475 228.954 56.7153C229.253 56.883 229.59 56.9695 229.932 56.966C230.407 56.9725 230.878 56.8728 231.309 56.6744C231.779 56.5002 232.16 56.2734 232.443 56.0668C232.613 55.9494 232.646 56.1478 232.638 56.1762C232.379 57.5654 232.699 59.2138 234.084 59.9024C235.736 60.7124 237.555 59.5702 238.604 58.5334C238.705 58.4321 238.814 58.4443 238.826 58.6589C238.851 59.0559 239.029 59.5216 239.353 59.8537C240.228 60.7326 241.998 60.3803 243.772 59.0073C244.914 58.1284 246.105 56.885 247.182 55.5687C247.222 55.5201 247.255 55.4391 247.174 55.354C247.012 55.1839 246.773 54.9895 246.611 54.8356C246.538 54.7708 246.429 54.791 246.368 54.8356C245.262 55.8886 244.266 57.0834 242.832 58.0757C242.346 58.4119 241.577 58.6832 241.228 58.2175C241.091 58.0352 241.107 57.7841 241.24 57.4479C241.658 56.407 248.288 46.31 248.636 45.7146" fill="white"/>
<path d="M217.433 46.9379C217.462 47.0878 217.523 47.1161 217.591 47.0999C217.969 46.9971 218.297 46.7612 218.515 46.4357C218.717 46.1441 218.81 45.7228 218.612 45.5527C218.434 45.4029 218.146 45.4434 217.932 45.6337C217.749 45.7946 217.609 45.9973 217.522 46.2244C217.435 46.4516 217.405 46.6964 217.433 46.9379ZM200.532 59.9349C198.061 59.9511 195.882 58.4242 195.631 55.7754C195.487 54.3979 195.883 53.0183 196.737 51.9277C197.474 50.9678 198.722 50.174 199.775 49.9796C200.115 49.9148 200.577 49.9553 200.767 50.1821C201.067 50.5304 200.982 50.9111 200.682 51.065C199.876 51.4741 198.908 52.1788 198.43 53.1387C198.209 53.5467 198.104 54.0072 198.126 54.4705C198.149 54.9338 198.297 55.3822 198.556 55.7673C199.548 57.2658 202.318 57.3063 204.89 54.9167C205.53 54.3295 206.097 53.7665 206.676 53.1023C207.81 51.8062 208.187 51.3323 209.694 49.2424C209.71 49.2181 209.718 49.1857 209.71 49.1736C209.698 49.1452 209.677 49.1412 209.633 49.1331C208.628 49.1655 207.749 49.4652 206.899 50.1011C206.656 50.2793 206.299 50.255 206.146 50.0201C205.975 49.7528 206.097 49.4045 206.381 49.21C207.749 48.2542 209.248 48.0841 210.779 47.8249C210.779 47.8249 210.884 47.8249 210.973 47.7155C211.601 46.9055 212.075 46.1805 212.743 45.3664C213.42 44.5402 214.29 43.7788 214.955 43.2077C215.886 42.4098 216.482 42.1425 217.085 41.8104C217.247 41.7294 217.065 41.6281 217.016 41.6281C213.634 40.9922 210.123 40.1701 206.765 41.4135C204.44 42.2802 203.42 44.1271 203.91 45.3583C204.258 46.2332 205.408 46.3709 206.486 45.8443C207.377 45.411 208.207 44.7022 208.794 43.795C209.118 43.2887 209.811 43.6532 209.438 44.5321C208.454 46.8407 206.579 48.6714 204.295 48.7483C202.347 48.8131 201.091 47.3794 201.095 45.6135C201.103 42.1303 204.983 39.8379 209.054 39.4937C213.962 39.0887 218.612 40.3969 223.484 40.9882C227.219 41.4378 230.799 41.4499 234.554 40.5832C234.999 40.49 235.307 40.7735 235.283 41.219C235.242 41.8671 234.74 42.4908 233.505 43.1631C232.099 43.9367 230.629 44.1716 229.09 44.1838C225.38 44.2162 221.921 42.7662 218.337 41.9886C218.341 42.1465 218.385 42.3328 218.256 42.4341C216.271 43.8922 214.477 45.3786 213.274 47.4644C213.233 47.513 213.258 47.5616 213.327 47.5535C214.371 47.5009 215.307 47.4725 216.283 47.3915C216.449 47.3794 216.457 47.3389 216.445 47.2133C216.393 46.8282 216.434 46.436 216.565 46.0701C216.696 45.7042 216.913 45.3753 217.199 45.1113C217.847 44.5321 218.657 44.4632 219.195 44.8845C219.803 45.3583 219.75 46.217 219.418 46.8569C219.268 47.1386 219.064 47.3874 218.816 47.5885C218.568 47.7896 218.283 47.9388 217.976 48.0274C217.976 48.0274 217.863 48.0517 217.879 48.1529C217.899 48.315 218.636 48.724 218.697 48.8334C218.758 48.9387 218.725 49.0966 218.616 49.2181C218.573 49.2709 218.518 49.3134 218.457 49.3428C218.395 49.3722 218.328 49.3877 218.26 49.3883C218.134 49.3883 218.057 49.3437 217.895 49.2546C217.509 49.0483 217.165 48.7707 216.883 48.4365C216.785 48.319 216.737 48.315 216.506 48.3312C215.453 48.3919 213.809 48.5499 212.699 48.6876C212.427 48.72 212.387 48.7726 212.334 48.8658C210.56 51.79 208.665 54.9451 206.583 57.0593C204.355 59.3233 202.5 59.9187 200.532 59.9349Z" fill="white"/>
<path d="M222.034 36.3871C198.912 36.3871 180.172 42.7742 180.172 50.5951C180.172 58.4119 198.912 64.8031 222.034 64.8031C245.157 64.8031 263.897 58.4119 263.897 50.5951C263.897 42.7783 245.153 36.3871 222.034 36.3871ZM222.034 66.0911C198.07 66.0911 178.645 59.1531 178.645 50.5951C178.645 42.033 198.07 35.0991 222.034 35.0991C245.995 35.0991 265.42 42.033 265.42 50.5951C265.42 59.1531 245.995 66.0911 222.034 66.0911Z" fill="white"/>
<path fill-rule="evenodd" clip-rule="evenodd" d="M107.786 9.48706H149.397V48.0139H107.786V9.48706Z" fill="white"/>
<path fill-rule="evenodd" clip-rule="evenodd" d="M102.558 53.0978H153.517V3.03003H102.558V53.0978ZM128.628 14.499H132.772L135.229 27.7509L137.567 14.5232H141.783V33.9671H139.205V20.3296L136.434 34.0152H134.122L131.303 20.1611L131.327 34.1599H128.603L128.628 14.499ZM114.412 23.6305V19.3901C114.412 18.4505 114.123 13.8002 119.4 13.7521C124.677 13.704 124.652 17.6313 124.652 17.6313V20.547H121.809C121.809 20.547 122.267 16.6436 119.617 16.547C117.424 16.4747 117.592 19.0045 117.592 19.0045V29.4134C117.592 29.4134 117.424 31.8709 119.617 31.8709C122.098 31.8709 121.809 29.3172 121.809 29.3172V25.6066H119.93V23.607H124.652V34.6662H122.46V33.5096L122.291 33.9671C121.905 34.6174 120.604 34.6658 119.399 34.6658C114.123 34.6174 114.412 29.9675 114.412 29.0279L114.412 23.6305ZM114.509 41.8458V37.2922H142.072V41.8458H114.509Z" fill="#2360A5"/>
<path d="M88.9813 90.4043H98.8565L102.499 104.273H102.745C102.92 103.118 103.096 101.891 103.411 100.773L106.386 90.4043H116.159L120.5 116.811H111.22L109.923 102.347H109.749C109.575 103.222 109.399 104.132 109.119 104.973L105.302 116.811H99.6986L96.2666 105.638C95.9863 104.517 95.7401 103.467 95.6696 102.347H95.3543C95.2855 103.398 95.2156 104.483 95.1102 105.532L93.9884 116.811H84.7085L88.9813 90.4043Z" fill="#ACACAC"/>
<path d="M134.704 107.25L133.583 102.592C133.303 101.47 133.127 100.315 132.951 99.1946H132.603L130.851 107.25H134.704ZM128.364 116.811H118.208L127.383 90.4043H137.996L147.417 116.811H137.26L136.386 113.518H129.134L128.364 116.811ZM173.505 101.261C173.433 105.569 173.433 109.176 170.316 112.536C167.514 115.585 163.208 117.231 159.11 117.231C151.056 117.231 144.543 112.258 144.543 103.782C144.543 95.168 150.88 89.9839 159.181 89.9839C163.769 89.9839 170.073 92.2608 172.138 96.7783L163.173 100.071C162.438 98.7403 161.072 98.0395 159.53 98.0395C156.1 98.0395 154.207 100.981 154.207 104.167C154.207 107.073 156.029 109.806 159.145 109.806C160.652 109.806 162.578 109.105 163.032 107.495H158.691V101.261H173.505ZM174.221 90.4043H183.434L192.048 105.044H192.327C191.943 102.837 191.522 100.561 191.522 98.3196V90.4043H200.696V116.811H191.522L183.082 102.943H182.803C183.117 104.762 183.397 106.479 183.397 108.232V116.811H174.221V90.4043H174.221Z" fill="#ACACAC"/>
<path d="M216.231 107.25L215.109 102.592C214.829 101.47 214.654 100.315 214.478 99.1946H214.129L212.377 107.25H216.231ZM209.892 116.811H199.736L208.91 90.4043H219.522L228.942 116.811H218.786L217.911 113.518H210.662L209.892 116.811Z" fill="#ACACAC"/>
<path d="M70.0715 116.837L80.0216 116.838L70.4394 90.4757L63.1553 90.4744L61.8167 94.1432L70.0715 116.837Z" fill="black"/>
<path d="M63.3233 79.2578C60.6536 79.2578 58.4897 81.421 58.4897 84.0923C58.4897 86.7604 60.6536 88.9252 63.3233 88.9252C65.993 88.9252 68.1561 86.7604 68.1561 84.092C68.1561 81.421 65.993 79.2578 63.3233 79.2578Z" fill="#E22E2F"/>
<path d="M41.9508 116.837L56.7836 116.835L49.3652 96.4723L41.9508 116.837ZM58.4662 116.837L68.4162 116.838L58.8317 90.4757L51.5487 90.4744L50.2117 94.1432L58.4662 116.837Z" fill="black"/>
</svg>
