<svg width="441" height="128" viewBox="0 0 441 128" fill="none" xmlns="http://www.w3.org/2000/svg">
<g clip-path="url(#clip0)">
<path fill-rule="evenodd" clip-rule="evenodd" d="M41.1518 52.8089H20.4338C17.3454 52.8089 14.3212 49.7988 14.3212 46.6607V26.1666C14.3212 23.1568 17.3454 20.1467 20.4338 20.1467H41.1515C44.3042 20.1467 47.2637 23.1568 47.2637 26.1666V46.6607C47.2637 49.7988 44.3045 52.8089 41.1518 52.8089ZM30.8571 23.8611L16.5092 40.5765L23.5869 48.9019L30.8571 40.7688L38.0634 48.9019L45.2696 40.5765L30.8571 23.8611Z" fill="#3165AA"/>
<path fill-rule="evenodd" clip-rule="evenodd" d="M27.19 66.1301C25.7102 66.1301 24.4876 64.913 24.4876 63.5044V59.0857C24.4876 57.6125 25.7102 56.4594 27.19 56.4594H34.5248V58.3168H26.5464V64.2724H34.5245V66.1297H27.19V66.1301ZM17.0882 66.1301C15.6084 66.1301 14.4501 64.913 14.4501 63.5044V56.3958H16.4446V64.2727H23.3294V66.1301H17.0882ZM44.6263 66.1301H38.578C37.1626 66.1301 35.94 64.913 35.94 63.5044V59.0857C35.94 57.6125 37.1626 56.4594 38.578 56.4594H44.6263C46.1058 56.4594 47.264 57.6125 47.264 59.0857V63.5044C47.264 64.9134 46.1061 66.1301 44.6263 66.1301ZM37.9991 64.2727H45.2693V58.3171H37.9991V64.2727ZM11.6192 66.1301H13.7422L8.46646 57.3563C8.08037 56.7799 7.6303 56.5237 6.98702 56.5237C6.34342 56.5237 5.89303 56.7799 5.50694 57.3563L0.230835 66.1301H2.35387L3.44787 64.337H10.5898L11.6192 66.1301ZM4.47756 62.6076L6.9224 58.5087L6.98702 58.4444L7.11561 58.5087L9.49649 62.6076H4.47756ZM59.1671 66.1301H61.2905L56.0147 57.3563C55.6286 56.7799 55.1782 56.5237 54.5349 56.5237C53.8913 56.5237 53.4406 56.7799 53.0548 57.3563L47.7791 66.1301H49.9024L50.9961 64.337H58.138L59.1671 66.1301ZM52.0251 62.6076L54.47 58.5087L54.5346 58.4444L54.6632 58.5087L57.0441 62.6076H52.0251Z" fill="#3165AA" stroke="#3165AA" stroke-width="0.261096" stroke-miterlimit="2.613"/>
<path fill-rule="evenodd" clip-rule="evenodd" d="M30.8571 40.7049L23.9726 32.9556H37.8062L30.8571 40.7049Z" fill="#3165AA"/>
<path d="M211.916 30.5786C186.785 30.5786 166.635 38.1119 166.635 47.557C166.635 56.9453 186.951 64.5393 211.916 64.5393C236.886 64.5393 257.197 56.921 257.197 47.557C257.197 38.1929 236.886 30.5786 211.916 30.5786Z" fill="#003478"/>
<path d="M229.753 51.1535C229.765 51.2345 229.867 51.3074 229.964 51.3438C230.004 51.356 230.02 51.3803 229.98 51.4653C229.696 52.0648 229.441 52.4131 229.089 52.9396C228.765 53.4256 228.396 53.8023 227.955 54.1668C227.283 54.7217 226.355 55.3211 225.586 54.9201C225.245 54.7419 225.1 54.264 225.104 53.8792C225.12 52.7897 225.606 51.6759 226.497 50.5784C227.586 49.2418 228.789 48.5452 229.575 48.9218C230.393 49.3147 230.134 50.2584 229.769 50.9996C229.744 51.0468 229.738 51.102 229.753 51.1535ZM238.518 42.6886C238.574 42.5833 238.518 42.5063 238.384 42.5063H236.096C235.926 42.5063 235.837 42.5306 235.76 42.6886C235.496 43.1908 232.297 47.9822 231.701 48.9137C231.604 49.0555 231.479 49.0352 231.466 48.8732C231.406 48.3224 230.928 47.6865 230.174 47.3828C229.632 47.1636 229.04 47.0937 228.461 47.1803C227.408 47.3261 226.473 47.8809 225.646 48.5047C224.407 49.4484 223.338 50.6715 221.953 51.5787C221.195 52.0688 220.162 52.4981 219.47 51.8582C218.846 51.279 218.915 49.987 219.875 48.9907C219.976 48.8854 220.098 48.9745 220.077 49.0676C220.026 49.2843 220.032 49.5108 220.096 49.7242C220.16 49.9376 220.279 50.1303 220.442 50.2827C220.859 50.6553 221.454 50.6999 221.969 50.4447C222.257 50.2947 222.503 50.0769 222.688 49.8102C222.873 49.5435 222.99 49.2358 223.03 48.9137C223.064 48.6767 223.049 48.4352 222.985 48.2043C222.921 47.9734 222.811 47.7581 222.66 47.5719C222.51 47.3856 222.323 47.2324 222.11 47.1218C221.898 47.0113 221.665 46.9457 221.426 46.9291C220.632 46.8724 219.867 47.1479 219.121 47.7635C218.77 48.0472 218.464 48.3832 218.214 48.7598C218.133 48.8732 218.016 48.8813 218.02 48.7193C218.056 47.4152 217.518 46.6821 216.44 46.6578C215.606 46.6375 214.711 47.0911 214.014 47.646C213.253 48.2576 212.584 49.0717 211.868 49.8331C211.783 49.9303 211.706 49.9263 211.677 49.744C211.681 48.9345 211.461 48.1397 211.041 47.4476C210.967 47.3399 210.856 47.2635 210.729 47.2328C210.602 47.2022 210.468 47.2195 210.353 47.2815C210.235 47.3423 209.834 47.5245 209.543 47.7635C209.397 47.885 209.34 48.0551 209.405 48.2778C209.79 49.5658 209.705 51.032 209.182 52.2713C208.7 53.4054 207.769 54.4301 206.671 54.7743C205.95 55.0052 205.197 54.8918 204.731 54.2478C204.095 53.3649 204.35 51.8299 205.302 50.55C206.145 49.424 207.36 48.7112 208.571 48.2495C208.713 48.1968 208.745 48.1037 208.704 47.9822L208.49 47.3909C208.376 47.0911 208.064 47.0466 207.688 47.0871C206.805 47.1884 206.011 47.4921 205.225 47.9093C203.172 49.0109 202.139 51.1413 201.69 52.2835C201.537 52.7109 201.32 53.1124 201.046 53.4742C200.722 53.8792 200.316 54.2519 199.571 54.9039C199.531 54.941 199.503 54.99 199.492 55.0439C199.481 55.0978 199.488 55.1537 199.511 55.2036C199.663 55.4814 199.855 55.7352 200.082 55.957C200.203 56.0177 200.345 55.9327 200.402 55.8922C200.92 55.5398 201.544 54.9809 201.847 54.6002C201.953 54.4706 202.066 54.5273 202.123 54.7217C202.26 55.2275 202.52 55.6918 202.878 56.0739C203.237 56.4559 203.684 56.744 204.18 56.9128C206.064 57.5487 208.02 56.6293 209.494 55.0254C210.43 54.0129 210.77 53.3527 211.13 52.9113C211.738 52.1539 212.941 50.4649 214.371 49.3835C214.897 48.9826 215.517 48.6788 215.829 48.8813C216.08 49.0433 216.161 49.42 215.76 50.1531C214.302 52.8181 212.155 55.9448 211.758 56.7063C211.685 56.8359 211.75 56.9412 211.888 56.9412H214.099C214.217 56.9331 214.269 56.8804 214.326 56.7994C215.444 55.0457 216.497 53.377 217.627 51.6557C217.692 51.5504 217.748 51.6314 217.748 51.6759C217.777 52.0729 217.87 52.6196 218.113 52.9801C218.288 53.2744 218.537 53.5175 218.836 53.6853C219.134 53.853 219.472 53.9394 219.814 53.9359C220.289 53.9424 220.76 53.8428 221.191 53.6443C221.661 53.4702 222.042 53.2434 222.325 53.0368C222.495 52.9194 222.528 53.1178 222.52 53.1462C222.26 54.5354 222.58 56.1838 223.965 56.8723C225.618 57.6824 227.436 56.5402 228.485 55.5034C228.587 55.4021 228.696 55.4143 228.708 55.6289C228.733 56.0258 228.911 56.4916 229.235 56.8237C230.11 57.7026 231.88 57.3502 233.654 55.9772C234.796 55.0983 235.986 53.8549 237.064 52.5386C237.104 52.49 237.137 52.409 237.056 52.324C236.894 52.1539 236.655 51.9595 236.493 51.8056C236.42 51.7408 236.31 51.761 236.25 51.8056C235.144 52.8586 234.148 54.0534 232.714 55.0457C232.228 55.3819 231.458 55.6532 231.11 55.1875C230.972 55.0052 230.988 54.7541 231.122 54.4179C231.539 53.377 238.169 43.2799 238.518 42.6846" fill="white"/>
<path d="M207.315 43.9079C207.344 44.0577 207.404 44.0861 207.473 44.0699C207.851 43.967 208.179 43.7311 208.397 43.4056C208.599 43.114 208.692 42.6928 208.494 42.5227C208.316 42.3728 208.028 42.4134 207.813 42.6037C207.631 42.7646 207.49 42.9673 207.404 43.1944C207.317 43.4216 207.287 43.6664 207.315 43.9079ZM190.414 56.9049C187.943 56.9211 185.764 55.3942 185.513 52.7454C185.369 51.3679 185.765 49.9882 186.619 48.8977C187.356 47.9378 188.603 47.144 189.656 46.9495C189.997 46.8847 190.458 46.9252 190.649 47.1521C190.948 47.5004 190.863 47.8811 190.564 48.035C189.758 48.4441 188.79 49.1488 188.312 50.1087C188.091 50.5166 187.986 50.9772 188.008 51.4405C188.03 51.9038 188.179 52.3522 188.437 52.7373C189.43 54.2358 192.2 54.2763 194.772 51.8867C195.412 51.2994 195.979 50.7365 196.558 50.0722C197.692 48.7762 198.069 48.3023 199.575 46.2124C199.592 46.1881 199.6 46.1557 199.592 46.1436C199.579 46.1152 199.559 46.1112 199.515 46.1031C198.51 46.1355 197.631 46.4352 196.781 47.0711C196.538 47.2493 196.181 47.225 196.027 46.9901C195.857 46.7227 195.979 46.3744 196.262 46.18C197.631 45.2242 199.13 45.0541 200.661 44.7949C200.661 44.7949 200.766 44.7949 200.855 44.6855C201.483 43.8755 201.957 43.1505 202.625 42.3364C203.301 41.5102 204.172 40.7487 204.837 40.1777C205.768 39.3798 206.363 39.1125 206.967 38.7803C207.129 38.6993 206.947 38.5981 206.898 38.5981C203.516 37.9622 200.005 37.14 196.647 38.3834C194.322 39.2502 193.302 41.097 193.792 42.3283C194.14 43.2031 195.29 43.3408 196.368 42.8143C197.259 42.3809 198.089 41.6722 198.676 40.7649C199 40.2587 199.693 40.6232 199.32 41.5021C198.336 43.8107 196.461 45.6413 194.176 45.7183C192.228 45.7831 190.973 44.3493 190.977 42.5835C190.985 39.1003 194.865 36.8079 198.935 36.4636C203.844 36.0586 208.494 37.3668 213.366 37.9582C217.1 38.4077 220.681 38.4199 224.435 37.5531C224.881 37.46 225.189 37.7435 225.164 38.189C225.124 38.837 224.622 39.4608 223.386 40.1331C221.981 40.9067 220.511 41.1416 218.972 41.1537C215.262 41.1861 211.803 39.7362 208.218 38.9586C208.222 39.1165 208.267 39.3028 208.137 39.4041C206.153 40.8621 204.359 42.3485 203.156 44.4344C203.115 44.483 203.139 44.5316 203.208 44.5235C204.253 44.4708 205.189 44.4425 206.165 44.3615C206.331 44.3493 206.339 44.3088 206.327 44.1833C206.274 43.7982 206.315 43.406 206.446 43.0401C206.578 42.6742 206.795 42.3453 207.08 42.0812C207.728 41.5021 208.538 41.4332 209.077 41.8544C209.685 42.3283 209.632 43.1869 209.3 43.8269C209.15 44.1086 208.945 44.3574 208.698 44.5585C208.45 44.7595 208.164 44.9088 207.858 44.9974C207.858 44.9974 207.745 45.0217 207.761 45.1229C207.781 45.2849 208.518 45.694 208.579 45.8033C208.64 45.9087 208.607 46.0666 208.498 46.1881C208.455 46.2408 208.4 46.2834 208.339 46.3128C208.277 46.3422 208.21 46.3577 208.141 46.3582C208.016 46.3582 207.939 46.3137 207.777 46.2246C207.391 46.0182 207.047 45.7406 206.764 45.4064C206.667 45.289 206.619 45.2849 206.388 45.3011C205.335 45.3619 203.69 45.5198 202.581 45.6575C202.309 45.6899 202.269 45.7426 202.216 45.8358C200.442 48.76 198.547 51.9151 196.465 54.0293C194.237 56.2933 192.382 56.8887 190.414 56.9049Z" fill="white"/>
<path d="M211.916 33.357C188.794 33.357 170.054 39.7442 170.054 47.5651C170.054 55.3819 188.794 61.7731 211.916 61.7731C235.039 61.7731 253.779 55.3819 253.779 47.5651C253.779 39.7482 235.035 33.357 211.916 33.357ZM211.916 63.061C187.951 63.061 168.527 56.1231 168.527 47.5651C168.527 39.003 187.951 32.0691 211.916 32.0691C235.877 32.0691 255.302 39.003 255.302 47.5651C255.302 56.1231 235.877 63.061 211.916 63.061Z" fill="white"/>
<path fill-rule="evenodd" clip-rule="evenodd" d="M97.6678 6.45703H139.279V44.9839H97.6678V6.45703Z" fill="white"/>
<path fill-rule="evenodd" clip-rule="evenodd" d="M92.4396 50.0678H143.399V0H92.4396V50.0678ZM118.509 11.4689H122.654L125.111 24.7209L127.449 11.4932H131.665V30.9371H129.087V17.2996L126.316 30.9852H124.003L121.184 17.1311L121.209 31.1298H118.485L118.509 11.4689ZM104.294 20.6005V16.36C104.294 15.4204 104.004 10.7702 109.281 10.7221C114.558 10.674 114.534 14.6013 114.534 14.6013V17.517H111.691C111.691 17.517 112.149 13.6136 109.498 13.517C107.306 13.4447 107.474 15.9745 107.474 15.9745V26.3834C107.474 26.3834 107.305 28.8409 109.498 28.8409C111.98 28.8409 111.691 26.2872 111.691 26.2872V22.5766H109.812V20.577H114.534V31.6361H112.341V30.4796L112.173 30.9371C111.787 31.5873 110.486 31.6358 109.281 31.6358C104.004 31.5873 104.293 26.9375 104.293 25.9979L104.294 20.6005ZM104.39 38.8158V34.2622H131.954V38.8158H104.39Z" fill="#2360A5"/>
<path d="M300.588 100.513H310.463L314.105 114.382H314.351C314.526 113.227 314.702 112 315.017 110.882L317.992 100.513H327.765L332.107 126.92H322.827L321.529 112.456H321.356C321.181 113.331 321.005 114.241 320.725 115.082L316.908 126.92H311.305L307.873 115.747C307.593 114.627 307.346 113.576 307.276 112.456H306.961C306.892 113.507 306.822 114.592 306.717 115.641L305.595 126.92H296.315L300.588 100.513Z" fill="#ACACAC"/>
<path d="M346.31 117.359L345.19 112.701C344.91 111.579 344.734 110.424 344.558 109.304H344.209L342.457 117.359H346.31ZM339.97 126.92H329.815L338.989 100.513H349.602L359.023 126.92H348.866L347.992 123.627H340.741L339.97 126.92ZM385.111 111.37C385.039 115.678 385.039 119.285 381.923 122.646C379.12 125.694 374.814 127.34 370.717 127.34C362.663 127.34 356.149 122.367 356.149 113.891C356.149 105.277 362.486 100.093 370.787 100.093C375.375 100.093 381.68 102.37 383.744 106.887L374.779 110.18C374.044 108.849 372.679 108.149 371.137 108.149C367.707 108.149 365.814 111.09 365.814 114.277C365.814 117.182 367.635 119.915 370.751 119.915C372.259 119.915 374.184 119.214 374.639 117.604H370.297V111.37H385.111ZM385.828 100.513H395.04L403.654 115.153H403.933C403.549 112.946 403.128 110.67 403.128 108.429V100.513H412.303V126.92H403.128L394.689 113.052H394.409C394.723 114.872 395.004 116.588 395.004 118.341V126.92H385.827V100.513H385.828Z" fill="#ACACAC"/>
<path d="M427.837 117.359L426.715 112.701C426.436 111.579 426.261 110.424 426.084 109.304H425.735L423.984 117.359H427.837ZM421.498 126.92H411.342L420.516 100.513H431.128L440.549 126.92H430.393L429.517 123.627H422.269L421.498 126.92Z" fill="#ACACAC"/>
<path d="M281.678 126.946L291.628 126.947L282.046 100.585L274.762 100.583L273.423 104.252L281.678 126.946Z" fill="black"/>
<path d="M274.93 89.3669C272.26 89.3669 270.096 91.5301 270.096 94.2015C270.096 96.8695 272.26 99.0343 274.93 99.0343C277.599 99.0343 279.762 96.8695 279.762 94.2011C279.762 91.5301 277.599 89.3669 274.93 89.3669Z" fill="#E22E2F"/>
<path d="M253.557 126.946L268.39 126.945L260.972 106.581L253.557 126.946ZM270.073 126.946L280.023 126.947L270.438 100.585L263.155 100.583L261.818 104.252L270.073 126.946Z" fill="black"/>
</g>
<defs>
<clipPath id="clip0">
<rect width="440.549" height="127.34" fill="white"/>
</clipPath>
</defs>
</svg>
