<svg width="70" height="70" viewBox="0 0 70 70" fill="none" xmlns="http://www.w3.org/2000/svg">
<circle cx="35" cy="35" r="35" fill="#C4C4C4"/>
<path d="M56.8534 29.397C56.8534 23.6444 52.1751 18.9644 46.4247 18.9644C46.1748 18.9644 45.9225 18.9738 45.6691 18.9927C43.1945 15.2723 39.0022 13 34.5 13C29.9978 13 25.8056 15.2727 23.331 18.9927C23.0775 18.9738 22.8253 18.9644 22.5754 18.9644C16.8248 18.9644 12.1465 23.6444 12.1465 29.397C12.1465 34.645 16.041 38.9982 21.0906 39.7215V54.1392C21.0906 56.2682 22.8224 58 24.9512 58H44.0488C46.1777 58 47.9094 56.268 47.9094 54.1392V39.7215C52.9591 38.9982 56.8534 34.6448 56.8534 29.397ZM44.0488 55.0302H24.9513C24.4686 55.0302 24.0604 54.6221 24.0604 54.1391V39.7229C25.5153 39.5168 26.8965 39.0074 28.1424 38.2153C30.0535 39.2489 32.2269 39.8291 34.5 39.8291C36.773 39.8291 38.9463 39.2489 40.8574 38.2155C42.1036 39.0074 43.485 39.5168 44.9397 39.7229V54.1391C44.9397 54.6221 44.5316 55.0302 44.0488 55.0302ZM46.4247 36.8592C45.4251 36.8592 44.4589 36.6639 43.561 36.2886C45.3681 34.632 46.7342 32.4786 47.4201 30.0039C47.6391 29.2136 47.176 28.3953 46.3857 28.1762C45.5953 27.9573 44.7772 28.4205 44.558 29.2106C43.3101 33.7141 39.1741 36.8592 34.5 36.8592C29.8259 36.8592 25.69 33.7141 24.4419 29.2106C24.223 28.4203 23.4051 27.9573 22.6142 28.1762C21.8239 28.3952 21.3609 29.2136 21.5798 30.0039C22.2656 32.4786 23.6318 34.6321 25.4389 36.2886C24.541 36.6639 23.5748 36.8592 22.5754 36.8592C18.4624 36.8592 15.1163 33.5117 15.1163 29.397C15.1163 25.2821 18.4625 21.9342 22.5754 21.9342C22.9912 21.9342 23.4192 21.9715 23.8477 22.0448C24.4662 22.1503 25.0856 21.8559 25.3931 21.3083C27.2424 18.0155 30.7319 15.9698 34.4998 15.9698C38.2677 15.9698 41.7572 18.0156 43.6068 21.3085C43.9142 21.8561 44.5333 22.1505 45.1522 22.0448C45.5807 21.9715 46.0088 21.9342 46.4244 21.9342C50.5372 21.9342 53.8833 25.2821 53.8833 29.397C53.8838 33.5117 50.5375 36.8592 46.4247 36.8592Z" fill="#383E45"/>
</svg>
