<svg width="70" height="70" viewBox="0 0 70 70" fill="none" xmlns="http://www.w3.org/2000/svg">
<circle cx="35" cy="35" r="35" fill="#C4C4C4"/>
<path d="M50.0015 55.9929L46.0743 44.2115C48.4919 41.7554 49.9862 38.3882 49.9862 34.6779C49.9862 33.8359 49.3036 33.1533 48.4616 33.1533H28.111L42.1339 19.1304C42.7293 18.5351 42.7293 17.5697 42.1339 16.9744C37.2534 12.0936 29.5575 11.7098 24.2289 15.8144L23.6777 15.2632C23.0822 14.6679 22.1171 14.6679 21.5216 15.2632C20.9263 15.8585 20.9263 16.8239 21.5216 17.4192L22.0331 17.9308C20.0177 20.3626 18.9198 23.3915 18.9198 26.5898C18.9198 30.2071 20.3234 33.608 22.8716 36.1727C23.2177 39.3229 24.6434 42.1529 26.7706 44.2827L22.8672 55.9927C22.601 56.7915 23.0328 57.6548 23.8315 57.9212C23.9913 57.9745 24.1539 57.9998 24.3137 57.9998C24.9521 57.9998 25.5469 57.5957 25.76 56.9569L29.316 46.2888C31.3777 47.5491 33.7992 48.2762 36.3874 48.2762C39.0083 48.2762 41.4578 47.5301 43.5363 46.2404L47.1084 56.9569C47.3215 57.5957 47.9163 57.9998 48.5546 57.9998C48.7143 57.9998 48.8769 57.9745 49.0369 57.9212C49.8359 57.655 50.2677 56.7916 50.0015 55.9929ZM25.0589 19.1304C27.1157 17.0736 29.8168 16.0456 32.5184 16.0456C34.7387 16.0456 36.9599 16.7406 38.8222 18.1301L24.0577 32.8947C22.7019 31.0833 21.969 28.893 21.969 26.59C21.9689 23.7721 23.0662 21.1229 25.0589 19.1304ZM25.9481 36.2024H46.8272C46.0863 41.2995 41.6869 45.2273 36.3877 45.2273C31.0884 45.2273 26.689 41.2995 25.9481 36.2024Z" fill="#383E45"/>
<path d="M46.0395 30.1765C46.0395 30.7659 46.5172 31.2436 47.1066 31.2436C47.696 31.2436 48.1738 30.7659 48.1738 30.1765C48.1738 28.9183 47.7225 28.2201 47.393 27.7106C47.1194 27.2871 46.9541 27.0317 46.9541 26.4033C46.9541 25.775 47.1194 25.5194 47.393 25.0961C47.7225 24.5864 48.1738 23.8883 48.1738 22.6301C48.1738 22.0408 47.696 21.563 47.1066 21.563C46.5172 21.563 46.0395 22.0408 46.0395 22.6301C46.0395 23.2586 45.8742 23.5141 45.6006 23.9374C45.271 24.4471 44.8198 25.1451 44.8198 26.4033C44.8198 27.6615 45.271 28.3597 45.6006 28.8692C45.8744 29.2926 46.0395 29.5482 46.0395 30.1765Z" fill="#383E45"/>
<path d="M41.0086 22.63C41.0086 23.2585 40.8433 23.5139 40.5697 23.9373C40.2402 24.447 39.7889 25.145 39.7889 26.4032C39.7889 27.6614 40.2402 28.3595 40.5697 28.8691C40.8433 29.2926 41.0086 29.548 41.0086 30.1764C41.0086 30.7658 41.4864 31.2435 42.0758 31.2435C42.6652 31.2435 43.1429 30.7658 43.1429 30.1764C43.1429 28.9182 42.6917 28.22 42.3621 27.7104C42.0885 27.287 41.9232 27.0315 41.9232 26.4032C41.9232 25.7748 42.0885 25.5192 42.3621 25.0959C42.6917 24.5862 43.1429 23.8882 43.1429 22.63C43.1429 22.0406 42.6652 21.5629 42.0758 21.5629C41.4864 21.5629 41.0086 22.0406 41.0086 22.63Z" fill="#383E45"/>
</svg>
