<svg width="194" height="461" viewBox="0 0 194 461" fill="none" xmlns="http://www.w3.org/2000/svg">
<g clip-path="url(#clip0)">
<path d="M124.392 399.033C124.392 399.033 120.631 414.668 121.705 421.182C122.78 427.697 119.556 451.8 134.601 449.845C149.645 447.891 144.81 427.045 144.81 427.045L139.974 400.336L124.392 399.033Z" fill="#1A1A1A"/>
<path d="M60.8067 388.151C60.8067 388.151 59.804 386.328 56.7959 391.19C53.7872 396.053 44.2614 405.171 44.2614 405.171C44.2614 405.171 18.1897 427.662 37.7435 428.878C57.2971 430.093 60.8067 417.936 60.8067 417.936C60.8067 417.936 77.3521 414.289 77.8531 410.034C78.3546 405.779 75.8478 388.759 75.8478 388.759L60.8067 388.151Z" fill="#1A1A1A"/>
<path d="M64.5657 139.083L61.8789 161.231C61.8789 161.231 50.0579 189.895 57.5805 219.209L67.2519 212.043C67.2519 212.043 74.7745 176.866 74.7745 174.26C74.7745 171.654 77.9985 141.037 77.9985 141.037L64.5657 139.083Z" fill="#DEAA87"/>
<path d="M69.9385 210.089L57.0432 220.512L63.4911 258.946C63.4911 258.946 65.103 311.061 64.5656 313.015C64.0281 314.969 54.3564 394.444 54.3564 394.444C54.3564 394.444 65.6402 400.959 75.8494 397.05C75.8494 397.05 86.0581 338.421 86.0581 321.484L97.8789 262.203L116.148 329.952C116.148 329.952 117.223 375.553 119.372 390.536C121.521 405.519 121.521 407.473 121.521 407.473C121.521 407.473 138.715 413.336 143.014 407.473C143.014 407.473 140.864 330.604 139.252 322.787L135.491 229.632L69.9385 210.089Z" fill="#2F2E41"/>
<path d="M90.894 55.048C90.894 55.048 96.267 77.8481 91.9685 86.3166C87.67 94.7852 120.984 87.6194 123.133 79.8023C123.133 79.8023 112.387 65.4707 113.999 51.7906L90.894 55.048Z" fill="#DEAA87"/>
<path d="M99.4908 85.6654C99.4908 85.6654 114.2 86.8707 121.353 77.1479L147.849 90.8766L136.566 166.443C136.566 166.443 159.133 230.283 138.715 236.146C118.297 242.009 59.1922 236.146 61.8787 214.649C64.5652 193.151 75.3118 167.094 75.3118 167.094C75.3118 167.094 77.9983 138.431 72.0878 125.403C66.1774 112.374 69.9384 97.391 69.9384 97.391L93.5898 78.3919C93.5898 78.3919 94.6548 85.6654 99.4908 85.6654Z" fill="#D0CDE1"/>
<path d="M76.3866 98.0424H69.9385C69.9385 98.0424 62.4162 99.9967 64.0281 124.751L60.2671 142.34C60.2671 142.34 79.0733 148.203 81.7598 144.946C84.4461 141.688 76.3866 98.0424 76.3866 98.0424Z" fill="#D0CDE1"/>
<path d="M154.297 137.128L152.148 159.928C152.148 159.928 154.834 189.895 145.7 213.346L142.476 225.072C142.476 225.072 139.252 258.946 130.656 258.946C122.058 258.946 130.656 220.512 130.656 220.512L134.954 182.077C134.954 182.077 138.178 167.094 136.029 160.58C133.879 154.066 133.342 140.385 133.342 140.385L154.297 137.128Z" fill="#DEAA87"/>
<path d="M140.327 91.528H147.85C147.85 91.528 160.208 141.688 158.058 142.34C155.909 142.991 130.656 144.945 130.656 144.945L140.327 91.528Z" fill="#D0CDE1"/>
<path d="M100.419 6.73102C91.6716 6.7314 84.7287 17.8751 84.6296 31.6854L84.6067 34.8811C84.5814 34.8799 84.5562 34.8799 84.5309 34.8811C84.2645 34.8809 84.0006 35.0084 83.7545 35.2562C83.5083 35.5039 83.2846 35.8671 83.0962 36.325C82.9078 36.7829 82.7585 37.3265 82.6566 37.9248C82.5546 38.5231 82.5022 39.1644 82.5022 39.812C82.5022 40.4597 82.5546 41.101 82.6566 41.6994C82.7585 42.2977 82.9078 42.8414 83.0962 43.2993C83.2846 43.7572 83.5083 44.1203 83.7545 44.3681C84.0006 44.6159 84.2645 44.7433 84.5309 44.7432C84.4531 58.5286 92.3044 69.8091 101.041 69.8091H107.327C115.764 69.8091 123.642 56.7463 124.197 43.4278C124.292 43.4606 124.388 43.4771 124.483 43.4772C124.75 43.4773 125.013 43.3499 125.259 43.1022C125.506 42.8544 125.729 42.4913 125.918 42.0333C126.106 41.5754 126.256 41.0318 126.358 40.4334C126.459 39.8351 126.512 39.1937 126.512 38.5461C126.512 37.8984 126.459 37.2571 126.358 36.6588C126.256 36.0604 126.106 35.5168 125.918 35.059C125.729 34.6011 125.506 34.2379 125.259 33.9901C125.013 33.7424 124.75 33.6149 124.483 33.615C124.4 33.615 124.317 33.6274 124.235 33.6521V31.6889C124.25 17.878 117.192 6.73473 108.444 6.73473H100.412L100.419 6.73102Z" fill="#DEAA87"/>
<path opacity="0.6" d="M124.722 38.8825C124.964 38.8594 125.095 38.0415 125.014 37.0558C124.933 36.0701 124.671 35.2897 124.429 35.3128C124.187 35.3359 124.057 36.1537 124.138 37.1394C124.219 38.1251 124.48 38.9056 124.722 38.8825Z" fill="black"/>
<path opacity="0.6" d="M84.0621 40.525C83.8201 40.5019 83.6896 39.6842 83.7704 38.6984C83.8513 37.7127 84.1131 36.9323 84.3551 36.9554C84.597 36.9785 84.7276 37.7963 84.6467 38.782C84.5658 39.7678 84.3041 40.5481 84.0621 40.525Z" fill="black"/>
<path d="M104.628 4.5317C93.6146 4.5317 85.2975 14.7776 84.6468 27.461L84.3671 32.9146C84.5091 36.4958 84.3508 36.4549 84.3508 39.5039C84.351 42.5527 84.3509 42.6191 84.4078 45.3214L84.9354 49.7451C85.2469 52.3588 86.4462 56.9042 88.026 59.8914C89.3625 62.4183 91.1958 64.6892 93.7096 66.9462C97.1854 69.721 98.1885 70.295 101.221 70.2284L107.46 70.0907C109.595 69.9662 113.718 68.0269 116.111 65.0679C118.63 61.9597 117.792 63.0341 119.193 60.8665C121.207 57.7494 124.508 51.6356 124.508 46.2421V45.8833C124.439 42.2664 124.464 42.2717 124.464 39.3277C124.464 36.3839 124.464 36.3832 124.508 33.8103V27.4604C124.508 14.7577 115.642 4.53101 104.628 4.53101L104.628 4.5317ZM101.41 18.4041L107.82 18.7681L115.915 18.6164L118.65 20.9852L119.063 24.7701L120.001 28.5822L122.635 31.3558L123.273 35.3055L123.185 47.5655L122.496 51.7506L120.363 56.213L116.816 61.9911L113.387 65.8168L109.837 67.9727L107.354 68.1668C106.539 67.8454 104.771 63.6399 104.721 61.7902L103.905 61.7675C103.59 62.8516 103.569 67.0732 102.22 68.1606L98.527 68.036L95.7661 65.9055L91.0391 61.9597L89.2867 59.1496L87.597 55.306L86.4289 51.5519L85.6641 47.1136L85.7813 34.8667L87.3952 29.8592L89.1664 27.3109C89.3815 25.8734 89.3114 24.9111 89.3455 23.8396C89.3664 23.168 89.3912 21.681 89.6327 21.0049C89.8369 20.4333 90.372 20.3855 90.372 20.3855C90.9812 20.1239 90.8216 19.8094 91.4658 19.5732C91.8298 19.4398 92.1923 19.3224 92.557 19.2189C95.1835 18.4733 97.8829 18.4502 101.411 18.4044L101.41 18.4041Z" fill="#333333"/>
<path d="M85.7878 20.617C89.5549 13.2503 89.123 12.7841 89.123 12.7841L90.6219 9.46871L92.5836 10.3455L93.9696 6.42774L95.5571 7.00612L97.9304 3.38178L97.2325 6.2648L100.214 2.92751L100.403 5.63473L103.09 2.09568L102.285 5.39449L105.742 1.88013L106.171 3.76386L108.092 2.41262L109.238 5.51026L111.961 3.84023L112.547 6.3064L113.687 4.80255L114.893 7.92105L116.542 7.22863L118.06 8.76783L119.565 11.0754L121.235 13.2598L122.355 16.2627L122.955 19.6963L123.443 21.1141L119.491 24.4132L113.348 20.4259L104.971 19.0801L97.293 20.0467L89.0707 23.0507L85.7878 20.617Z" fill="#333333"/>
<path d="M98.0237 41.7984C98.8342 41.7984 99.4911 41.0622 99.4911 40.1541C99.4911 39.2459 98.8342 38.5098 98.0237 38.5098C97.2133 38.5098 96.5564 39.2459 96.5564 40.1541C96.5564 41.0622 97.2133 41.7984 98.0237 41.7984Z" fill="black"/>
<path d="M109.816 41.6083C110.627 41.6083 111.284 40.8721 111.284 39.964C111.284 39.0559 110.627 38.3197 109.816 38.3197C109.006 38.3197 108.349 39.0559 108.349 39.964C108.349 40.8721 109.006 41.6083 109.816 41.6083Z" fill="black"/>
<path d="M106.099 51.472H101.411C101.297 51.472 101.206 51.564 101.206 51.6774V51.9972C101.206 52.1107 101.297 52.2026 101.411 52.2026H106.099C106.212 52.2026 106.304 52.1107 106.304 51.9972V51.6774C106.304 51.564 106.212 51.472 106.099 51.472Z" fill="black"/>
<path d="M101.969 34.2217H95.0266C94.7866 34.2217 94.592 34.4163 94.592 34.6564V35.333C94.592 35.5731 94.7866 35.7677 95.0266 35.7677H101.969C102.209 35.7677 102.404 35.5731 102.404 35.333V34.6564C102.404 34.4163 102.209 34.2217 101.969 34.2217Z" fill="black"/>
<path d="M113.187 34.0336H106.268C106.021 34.0336 105.822 34.2336 105.822 34.4803V35.1757C105.822 35.4224 106.021 35.6225 106.268 35.6225H113.187C113.433 35.6225 113.633 35.4224 113.633 35.1757V34.4803C113.633 34.2336 113.433 34.0336 113.187 34.0336Z" fill="black"/>
<path d="M96.7839 55.5857C96.7866 57.131 97.5247 58.6122 98.8363 59.7041C100.148 60.796 101.926 61.4092 103.779 61.4092C105.633 61.4092 107.41 60.796 108.722 59.7041C110.033 58.6122 110.772 57.131 110.774 55.5857H96.7839Z" fill="#F2F2F2"/>
<path d="M97.2668 55.7406C97.2693 57.1077 97.965 58.4181 99.201 59.3841C100.437 60.3501 102.112 60.8927 103.859 60.8927C105.606 60.8927 107.281 60.3501 108.517 59.3841C109.753 58.4181 110.449 57.1077 110.451 55.7406H97.2668Z" fill="white"/>
<path d="M97.3804 54.8361C97.4402 54.8029 97.3965 54.6549 97.3795 54.6335C97.0759 54.24 96.4623 54.4211 96.0148 54.8039C95.508 55.2378 95.6089 55.8821 95.8744 56.4192C95.8924 56.4582 96.224 56.9584 96.3319 56.737C96.3812 56.6345 96.1186 55.8745 96.1135 55.8137C96.0708 55.312 96.0395 55.5254 96.2424 55.0708C96.6114 54.8074 96.8161 54.7733 97.2145 54.8355L97.3804 54.8361Z" fill="#808080"/>
<path d="M110.334 54.9751C110.274 54.9419 110.285 54.8003 110.302 54.7789C110.606 54.3853 111.188 54.5072 111.636 54.8903C112.142 55.3241 112.149 55.8711 111.884 56.4079C111.866 56.4468 111.589 56.6169 111.556 56.5918C111.47 56.5244 111.626 56.1068 111.638 56.047C111.735 55.5371 111.733 55.5424 111.353 55.2161C111.009 54.9218 110.897 54.9296 110.498 54.9919L110.334 54.9751Z" fill="#808080"/>
<path opacity="0.2" d="M93.2112 455.413C146.593 465.39 191.44 460.643 193.378 444.811C195.316 428.979 153.612 408.056 100.23 398.08C46.8477 388.103 2.00155 392.85 0.0633685 408.682C-1.87481 424.514 39.8289 445.436 93.2112 455.413Z" fill="#1A1A1A"/>
</g>
<defs>
<clipPath id="clip0">
<rect width="193.442" height="460.63" fill="white"/>
</clipPath>
</defs>
</svg>
