<svg width="273" height="484" viewBox="0 0 273 484" fill="none" xmlns="http://www.w3.org/2000/svg">
<g clip-path="url(#clip0)">
<path d="M31.351 364.584L24.9555 388.455L18.1537 441.565L14.74 483.197L0.218384 483.203L0.356126 456.781L0.45745 343.939L31.351 364.584Z" fill="#0B1728"/>
<path d="M55.9602 174.941L49.4143 192.155L48.458 227.29L72.2583 231.133C72.2583 231.133 114.595 220.563 100.996 206.637C99.34 205.012 98.0435 203.055 97.1809 200.903C95.5418 196.545 96.1478 186.639 98.2688 183.252L101.073 177.727L83.3081 167.093C81.9371 172.255 83.3081 167.093 83.3081 167.093C77.9167 176.174 64.5608 174.947 60.5112 175.328C58.9854 175.5 57.4366 175.369 55.9602 174.941Z" fill="#DEAA87"/>
<path opacity="0.1" d="M55.9603 174.941L49.4144 192.154L48.4581 227.29L72.2584 231.133C72.2584 231.133 114.595 220.563 100.996 206.637C99.3391 205.012 98.0396 203.059 97.181 200.903C95.0511 210.675 72.6658 219.658 72.6658 219.658C69.99 220.818 67.6127 217.527 67.6127 217.527C60.6636 211.507 60.4926 180.461 60.5113 175.328C58.9836 175.501 57.4368 175.369 55.9603 174.941Z" fill="black"/>
<path d="M67.8183 211.014C67.8183 211.014 75.7248 204.372 78.5705 202.995C85.8489 199.476 94.7054 204.175 96.8551 199.903L113.624 223.505C113.624 223.505 126.744 229.925 118.802 253.368C117.445 257.257 114.706 266.175 113.189 270.071C111.9 273.028 111.876 273.5 108.624 282.581C103.638 296.503 89.646 322.148 76.6085 317.458C63.5697 312.768 60.3049 308.934 60.3049 308.934C60.3049 308.934 32.4322 356.378 35.6614 365.893C38.8893 375.407 16.2517 359.303 16.2517 359.303C16.2517 359.303 12.207 354.595 0.823527 349.543C-0.289299 349.05 1.36365 305.072 0.029032 304.233C1.17627 302.167 0.435229 253.274 0.435229 253.274C9.82819 241.796 3.52585 248.005 3.52585 248.005L1.6992 195.288C1.6992 195.288 8.65166 172.421 30.6005 173.144C52.5493 173.866 60.0395 175.355 60.0395 175.355C60.0395 175.355 61.7698 195.077 69.3457 201.656L67.8183 211.014Z" fill="#162D50"/>
<path d="M18.7918 281.162C18.7918 281.162 51.1803 292.044 57.489 287.857C63.7977 283.67 79.271 275.153 79.271 275.153L78.8305 269.297L58.4174 271.368C58.4174 271.368 33.9639 274.043 25.5355 270.5C17.1165 266.944 18.7916 281.162 18.7916 281.162L18.7918 281.162Z" fill="#DEAA87"/>
<path d="M16.2726 237.692L6.64232 252.919L9.08803 254.466C21.175 262.108 31.1176 272.701 37.9791 285.247L40.9575 290.687L41.7511 292.163L60.8441 279.402L57.6533 268.142C57.6533 268.142 57.5218 268.058 57.2762 267.904C55.3597 266.945 47.1593 262.661 44.5573 259.463C42.0973 256.409 40.3361 250.566 29.5951 247.094C24.3113 245.377 17.203 248.011 13.7901 243.632L16.2726 237.692Z" fill="#DEAA87"/>
<path d="M58.5277 175.048C58.5277 175.048 29.8187 171.728 30.555 173.133L32.8926 178.889L3.48035 247.995L1.17636 302.167L60.1215 205.294C55.3542 197.026 58.5329 175.052 58.5329 175.052L58.5277 175.048Z" fill="#2C5AA0"/>
<path d="M99.4512 203.512C95.4107 204.729 92.2127 206.786 81.0506 209.257L0.384446 349.116C10.8697 354.502 16.2158 360.292 16.2158 360.292C16.2158 360.292 39.09 376.907 35.8934 367.34C32.6641 357.825 60.1386 308.234 60.1386 308.234L59.9685 306.231C59.9685 306.231 49.3386 288.696 64.1013 289.639C66.9831 289.838 58.5668 273.215 58.5668 273.215C60.0834 269.319 78.1645 272.036 79.5132 268.159C87.4553 244.717 113.259 222.697 113.259 222.697L99.4512 203.512Z" fill="#2C5AA0"/>
<path opacity="0.999" d="M46.1629 173.798L53.9236 174.411C53.9236 174.411 48.3334 208.031 46.4823 210.807L0.16555 286.534L4.7635e-05 268.688L45.792 195.212L46.1629 173.798Z" fill="#B3B3B3"/>
<path opacity="0.999" d="M106.782 213.744L102.29 207.095L87.4475 217.671L35.4507 297.89L4.76464 353.121L11.9978 357.695L42.1667 304.592L94.5765 223.172L106.782 213.744Z" fill="#B3B3B3"/>
<path d="M68.707 172.52L58.8406 174.03L60.1215 205.294L69.988 203.784L68.707 172.52Z" fill="#162D50"/>
<path d="M73.6064 203.376L75.2418 214.283L100.077 204.612L97.9943 195.479L73.6064 203.376Z" fill="#162D50"/>
<path d="M47.3084 260.967C47.3084 260.967 38.4183 280.489 29.2949 284.791C29.2949 284.791 48.3247 301.519 61.8683 309.002L78.7453 282.763L47.3084 260.967Z" fill="#162D50"/>
<path d="M52.8035 30.4564C86.372 12.4144 65.8084 25.9808 84.922 19.8678C84.922 19.8678 88.9527 14.0404 97.8884 14.6891C111.921 15.7078 106.561 43.8193 106.561 43.8193C86.8884 67.548 0.529053 330.186 0.529053 330.186L1.51379 119.265C1.51379 119.265 35.6355 48.1281 52.8035 30.4564Z" fill="#BCD35F"/>
<path d="M221.487 70.2404L100.611 31.4366L90.1564 62.7128L209.742 103.731L221.487 70.2404Z" fill="#BCD35F"/>
<path d="M93.3705 10.7316C93.3705 10.7316 87.974 7.8699 78.4647 4.82148C72.4243 2.88508 63.2147 4.79296 57.0239 6.31111C44.0378 9.49602 43.4785 16.0268 34.9681 22.8187C32.6292 24.6854 19.9214 31.9549 18.2438 45.923C16.9565 56.6413 18.0018 62.435 27.9662 76.9804C36.8437 89.9392 49.5036 112.164 39.4347 132.365C36.0764 139.103 2.60693 205.623 2.60693 205.623" stroke="#373E48" stroke-width="4.96674"/>
<path d="M30.5678 144.456L35.3961 146.784C36.6477 147.388 37.0211 149.184 36.2334 150.811L30.9033 161.825C30.1156 163.453 28.4739 164.277 27.2223 163.674L22.394 161.346C21.1425 160.742 20.769 158.946 21.5567 157.319L26.8869 146.305C27.6746 144.677 29.3163 143.853 30.5678 144.456Z" fill="#6F917C"/>
<path opacity="0.15" d="M93.7697 68.0073L84.4454 90.8199L64.5391 143.214L36.5128 223.525L21.101 268.753C21.101 268.753 2.09099 328.646 0.529047 330.186L0.00012207 268.688C4.35823 264.329 17.8771 237.95 26.5963 221.128C32.1053 210.5 40.1243 185.962 51.365 133.827C55.8759 112.906 51.4853 88.8693 53.2532 86.8438C56.173 81.9881 73.022 74.2403 67.729 86.1L93.7697 68.0073Z" fill="black"/>
<path d="M57.8111 0.952532C49.6441 -1.87698 40.8025 2.39414 37.9612 10.5359L28.8057 36.7777C25.9647 44.9197 30.2375 53.7765 38.3822 56.6156L56.934 78.7279C63.1714 80.9205 91.8382 70.9298 95.9119 66.1624L108.854 70.7082L121.299 35.0265L108.769 30.6665C109.136 23.9203 105.066 17.4614 98.318 15.1287L57.8111 0.952532Z" fill="#BCD35F"/>
<path d="M81.9679 76.1777C79.6469 79.1618 76.7609 81.6596 73.4747 83.5284C70.1884 85.3972 66.5663 86.6003 62.815 87.0693C59.0637 87.5382 55.2568 87.2636 51.6117 86.2613C47.9665 85.259 44.5545 83.5486 41.5703 81.2276C35.5436 76.5402 31.6259 69.6507 30.6788 62.0747C29.7318 54.4987 31.8331 46.8567 36.5205 40.83C41.2079 34.8033 48.0974 30.8855 55.6734 29.9385C63.2494 28.9915 70.8913 31.0928 76.918 35.7802C82.9447 40.4676 86.8625 47.3571 87.8096 54.9331C88.7566 62.5091 86.6553 70.151 81.9679 76.1777Z" fill="#373E48"/>
<path d="M217.948 141.54L218.439 157.92L246.441 157.082L245.95 140.702L217.948 141.54Z" fill="#BCD35F"/>
<path d="M211.675 157.954L211.937 166.564L253.603 165.337L253.34 156.728L211.675 157.954Z" fill="#BCD35F"/>
<path d="M215.352 166.193L215.615 174.953L249.967 173.924L249.705 165.165L215.352 166.193Z" fill="#1C2224"/>
<path d="M222.534 174.367L228.658 192.72L229.813 218.562L238.129 218.316C237.35 215.183 236.908 191.824 236.908 191.824L244.195 173.297L222.534 174.367Z" fill="#373E48"/>
<path d="M218.572 110.491L222.499 152.26L242.769 154.587L243.319 107.236L218.572 110.491Z" fill="#BCD35F"/>
<path d="M206.126 97.4456C206.942 100.488 208.349 103.341 210.267 105.84C212.185 108.339 214.577 110.436 217.305 112.011C220.034 113.585 223.046 114.607 226.169 115.018C229.293 115.429 232.467 115.22 235.51 114.404C238.553 113.588 241.405 112.181 243.904 110.263C246.403 108.345 248.5 105.953 250.075 103.225C251.649 100.496 252.671 97.4839 253.082 94.3605C253.493 91.237 253.284 88.0632 252.468 85.0203C250.821 78.8748 246.799 73.6357 241.289 70.4553C235.778 67.2749 229.23 66.4139 223.084 68.0616C220.041 68.8774 217.189 70.2846 214.69 72.2029C212.191 74.1211 210.094 76.5127 208.519 79.2413C206.945 81.9699 205.923 84.9819 205.512 88.1054C205.101 91.2289 205.31 94.4027 206.126 97.4456Z" fill="#BCD35F"/>
<path d="M243.517 105.574C241.741 107.372 239.628 108.803 237.3 109.784C234.971 110.766 232.472 111.279 229.945 111.294C227.418 111.31 224.912 110.827 222.572 109.875C220.231 108.922 218.101 107.518 216.303 105.742C214.505 103.966 213.075 101.853 212.094 99.5248C211.112 97.1961 210.599 94.6969 210.584 92.1699C210.568 89.6429 211.05 87.1376 212.003 84.797C212.956 82.4565 214.36 80.3264 216.136 78.5286C219.722 74.8977 224.604 72.8402 229.708 72.8088C234.811 72.7774 239.718 74.7746 243.349 78.3611C246.98 81.9476 249.038 86.8296 249.069 91.9331C249.1 97.0366 247.103 101.944 243.517 105.574Z" fill="#373E48"/>
<path opacity="0.15" d="M111.33 39.8008L107.703 35.07C107.703 35.07 106.502 25.9735 102.09 22.5591C89.397 12.7383 67.2659 4.20936 51.2232 4.63601C46.3931 4.76449 37.7756 10.0472 37.7756 10.0472L44.1926 1.61578L52.4784 3.05176e-05C52.4784 3.05176e-05 54.8973 0.239009 62.8335 2.62409C64.3849 2.25436 93.0089 13.4155 93.0089 13.4155L100.799 17.8044L105.286 22.0586L112.849 32.0084L121.299 35.0265L120.133 37.8884C120.133 37.8884 116.05 35.5619 111.33 39.8008Z" fill="black"/>
<path d="M93.3705 10.7316L98.0259 13.2479C102.852 15.8566 107.421 19.8397 108.658 23.6746C110.678 29.9434 109.928 36.1927 111.433 43.4896C112.531 48.8141 112.272 48.9716 113.306 50.8648C116.645 56.9835 122.232 59.2829 126.693 61.4787C135.217 65.6743 148.931 70.5081 160.295 74.4356C166.561 76.601 181.002 80.2324 192.345 85.3228C196.532 87.2013 199.764 97.3936 202.606 106.371C203.526 109.28 206.051 112.466 208.568 114.697C212.944 118.574 224.865 119.316 228.989 121.106C232.126 122.468 231.836 131.777 232.199 139.074C232.277 140.647 229.533 148.218 225.495 150.434C220.318 153.275 209.784 153.882 209.784 153.882C209.784 153.882 202.008 154.962 199.221 157.767C195.436 161.577 196.879 167.522 199.377 169.115C204.333 172.276 215.733 171.185 215.733 171.185" stroke="#373E48" stroke-width="4.96674"/>
<path d="M119.613 61.5826L121.459 56.5504C121.938 55.246 123.689 54.6993 125.385 55.3246L136.866 59.5561C138.563 60.1814 139.543 61.735 139.065 63.0394L137.218 68.0716C136.74 69.3759 134.989 69.9226 133.292 69.2973L121.811 65.0658C120.115 64.4405 119.134 62.887 119.613 61.5826Z" fill="#6F917C"/>
<path d="M174.882 81.4617L176.728 76.4295C177.207 75.1251 178.958 74.5784 180.655 75.2037L192.135 79.4352C193.832 80.0606 194.813 81.6141 194.334 82.9185L192.488 87.9507C192.009 89.2551 190.258 89.8018 188.561 89.1764L177.08 84.9449C175.384 84.3196 174.403 82.7661 174.882 81.4617Z" fill="#6F917C"/>
<path d="M229.088 125.281L233.662 125.051C235.05 124.981 236.238 126.379 236.326 128.185L236.57 133.166C236.658 134.972 235.612 136.482 234.224 136.552L229.65 136.782C228.262 136.852 227.074 135.454 226.986 133.648L226.742 128.667C226.654 126.861 227.7 125.351 229.088 125.281H229.088Z" fill="#536C5D"/>
<path d="M212.359 167.193L215.362 167.042C216.273 166.996 217.053 167.914 217.111 169.1L217.271 172.37C217.329 173.556 216.642 174.547 215.731 174.593L212.728 174.744C211.817 174.79 211.037 173.872 210.979 172.687L210.819 169.416C210.761 168.231 211.448 167.239 212.359 167.193V167.193Z" fill="#536C5D"/>
<path opacity="0.15" d="M218.784 112.797L215.877 111.098L212.448 108.499L208.516 103.348L164.968 87.8931L109.367 69.3036L108.854 70.7082L95.9119 66.1623L81.9679 76.1777L77.7862 80.8239L71.0108 84.7323L62.5252 87.1049L53.6125 86.7547C53.6125 86.7547 91.5268 51.7319 81.6008 40.5167L92.1546 53.8621L102.732 54.5743C105.59 60.7726 127.005 69.3238 147.628 76.2738C158.972 80.0969 174.645 85.9873 182.793 87.8983C184.345 87.5285 216.212 97.2034 216.212 97.2034C223.225 108.379 242.523 107.126 239.997 108.253L233.566 111.123C233.566 111.123 227.76 114.62 226.215 117.463C224.297 120.992 224.575 129.402 224.575 129.402L222.262 149.196L219.545 165.955L211.937 166.564L211.675 157.954L218.439 157.92L217.948 141.54L221.664 141.563L218.784 112.797Z" fill="black"/>
<path d="M102.117 115.335C112.169 116.463 118.711 130.166 117.043 146.053L116.659 149.729C116.688 149.731 116.716 149.734 116.744 149.739C117.05 149.773 117.337 149.954 117.588 150.27C117.839 150.587 118.05 151.034 118.207 151.585C118.364 152.136 118.466 152.78 118.506 153.482C118.546 154.183 118.523 154.927 118.439 155.672C118.27 157.174 117.862 158.585 117.305 159.597C116.749 160.609 116.09 161.138 115.472 161.068C113.777 176.924 103.304 188.873 93.2645 187.746L86.0394 186.935C76.3429 185.846 68.9754 169.813 70.0538 154.444C69.9425 154.451 69.8328 154.438 69.7257 154.407C69.4193 154.373 69.1324 154.193 68.8813 153.876C68.6303 153.559 68.42 153.112 68.2626 152.561C68.1051 152.01 68.0036 151.366 67.9638 150.664C67.9239 149.963 67.9466 149.219 68.0305 148.474C68.1138 147.729 68.2567 146.998 68.4511 146.323C68.6454 145.648 68.8874 145.042 69.1631 144.54C69.4388 144.037 69.7429 143.648 70.0579 143.395C70.3729 143.142 70.6927 143.03 70.999 143.064C71.0953 143.061 71.1902 143.072 71.2833 143.096L71.5375 140.831C73.3075 124.955 82.8523 113.058 92.9062 114.187L102.137 115.223L102.117 115.335Z" fill="#DEAA87"/>
<path opacity="0.6" d="M70.0374 149.162C69.7623 149.104 69.7177 148.147 69.9379 147.025C70.158 145.902 70.5595 145.039 70.8346 145.097C71.1097 145.155 71.1543 146.112 70.9341 147.234C70.714 148.357 70.3125 149.22 70.0374 149.162Z" fill="black"/>
<path opacity="0.6" d="M116.558 156.27C116.839 156.275 117.095 155.352 117.129 154.208C117.163 153.065 116.963 152.134 116.682 152.13C116.401 152.125 116.145 153.048 116.111 154.191C116.077 155.335 116.277 156.265 116.558 156.27Z" fill="black"/>
<path d="M97.5625 112.272C110.219 113.693 118.456 126.546 117.568 141.195L117.186 147.508C116.561 151.599 116.742 151.577 116.348 155.081C115.955 158.585 115.947 158.656 115.528 161.758L114.351 166.77C113.655 169.742 111.691 174.808 109.489 178.038C107.628 180.765 105.229 183.132 102.047 185.411C97.695 188.143 96.4681 188.675 92.9915 188.214L85.8372 187.254C83.4016 186.824 78.9142 184.068 76.5452 180.354C74.05 176.468 74.8752 177.801 73.5463 175.129C71.6325 171.295 68.6283 163.832 69.3235 157.64L69.3684 157.232C69.9202 153.075 69.8908 153.086 70.2715 149.695C70.6507 146.317 70.6507 146.317 70.9259 143.355L71.7458 136.051C73.3843 121.457 84.8924 110.85 97.5499 112.271L97.5625 112.272ZM99.4695 128.632L92.0578 128.214L82.7729 127L79.3254 129.364L78.3614 133.673L76.7906 137.929L73.4079 140.77L72.1643 145.233L70.6814 159.331L70.9335 164.233L72.8085 169.631L76.1398 176.731L79.5872 181.579L83.389 184.514L86.2179 185.045C87.1963 184.784 89.769 180.185 90.0653 178.067L91.004 178.172C91.2263 179.451 90.7053 184.309 92.1157 185.735L96.376 186.071L99.823 183.979L105.764 180.057L108.143 177.046L110.581 172.845L112.405 168.69L113.859 163.68L115.298 149.591L114.089 143.626L112.383 140.471C112.32 138.796 112.526 137.694 112.624 136.465C112.682 135.688 112.847 133.968 112.66 133.163C112.499 132.475 111.89 132.35 111.89 132.35C111.224 131.976 111.448 131.63 110.738 131.28C110.337 131.078 109.935 130.905 109.53 130.731C106.608 129.533 103.509 129.157 99.4578 128.66L99.4695 128.632Z" fill="#333333"/>
<path d="M100.342 155.989C99.4104 155.884 98.7503 154.953 98.8675 153.91C98.9846 152.866 99.8347 152.105 100.766 152.209C101.697 152.314 102.358 153.245 102.24 154.288C102.123 155.332 101.273 156.093 100.342 155.989Z" fill="black"/>
<path d="M86.8127 154.247C85.8813 154.143 85.2213 153.212 85.3384 152.168C85.4556 151.124 86.3056 150.363 87.237 150.468C88.1684 150.572 88.8285 151.503 88.7113 152.547C88.5941 153.59 87.7441 154.352 86.8127 154.247Z" fill="black"/>
<path d="M89.815 166.031L95.2029 166.635C95.3333 166.65 95.4271 166.768 95.4125 166.898L95.3712 167.265C95.3566 167.396 95.239 167.49 95.1087 167.475L89.7207 166.87C89.5904 166.855 89.4966 166.738 89.5112 166.608L89.5525 166.24C89.5671 166.11 89.6846 166.016 89.815 166.031Z" fill="black"/>
<path d="M96.79 146.729L104.769 147.625C105.045 147.656 105.243 147.905 105.212 148.181L105.125 148.958C105.094 149.234 104.845 149.433 104.569 149.402L96.5906 148.506C96.3147 148.475 96.1162 148.226 96.1471 147.95L96.2344 147.173C96.2654 146.897 96.5142 146.698 96.79 146.729Z" fill="black"/>
<path d="M83.9158 145.106L91.867 145.998C92.1505 146.03 92.3546 146.286 92.3227 146.569L92.233 147.369C92.2012 147.652 91.9455 147.856 91.662 147.824L83.7108 146.932C83.4273 146.9 83.2233 146.644 83.2551 146.361L83.3448 145.561C83.3767 145.278 83.6323 145.074 83.9158 145.106Z" fill="black"/>
<path d="M99.9895 171.962C99.7871 173.737 98.7476 175.345 97.0994 176.43C95.4512 177.516 93.3289 177.991 91.1988 177.752C89.0686 177.513 87.1046 176.579 85.7381 175.155C84.3716 173.731 83.7144 171.933 83.9108 170.157L99.9895 171.962Z" fill="#F2F2F2"/>
<path d="M99.4142 172.078C99.2349 173.648 98.2664 175.065 96.7212 176.015C95.1761 176.966 93.1807 177.374 91.1732 177.148C89.1657 176.923 87.3103 176.083 86.0144 174.813C84.7185 173.544 84.0881 171.948 84.2616 170.376L99.4142 172.078Z" fill="white"/>
<path d="M99.4008 171.02C99.3304 171.012 99.4116 170.808 99.4264 170.781C99.8257 170.37 100.507 170.66 100.973 171.154C101.498 171.726 101.3 172.445 100.927 173.03C100.915 173.029 100.455 173.604 100.36 173.337C100.319 173.19 100.715 172.379 100.729 172.31C100.835 171.737 100.851 171.981 100.677 171.434C100.287 171.077 100.055 171.023 99.59 171.042L99.4008 171.02Z" fill="#808080"/>
<path d="M84.4968 169.504C84.5671 169.512 84.5755 169.313 84.5641 169.283C84.2659 168.794 83.58 168.859 83.0158 169.252C82.3762 169.693 82.2982 170.312 82.5339 170.965C82.5462 170.967 82.8462 171.242 82.8872 171.219C82.9858 171.23 82.8646 170.66 82.8582 170.588C82.812 169.985 82.8107 169.999 83.2937 169.668C83.7269 169.375 83.8551 169.389 84.303 169.525L84.4968 169.504Z" fill="#808080"/>
<path d="M103.759 110.432C113.457 111.52 120.145 123.344 120.257 138.035L71.4838 132.559C74.783 118.251 84.031 108.217 93.7288 109.306L103.759 110.432Z" fill="#2C5AA0"/>
<path d="M96.8911 106.037L101.018 106.501C102.069 106.619 102.825 107.566 102.707 108.616L102.42 111.176C102.302 112.226 101.354 112.982 100.304 112.864L96.1766 112.401C95.126 112.283 94.3699 111.336 94.4878 110.285L94.7751 107.726C94.8931 106.675 95.8404 105.919 96.8911 106.037Z" fill="#2C5AA0"/>
<path d="M83.4994 107.874L86.4627 108.207C87.3322 108.304 87.958 109.088 87.8604 109.958L86.9604 117.974C86.8628 118.844 86.0787 119.47 85.2092 119.372L82.246 119.039C81.3764 118.942 80.7507 118.158 80.8483 117.288L81.7483 109.272C81.8459 108.402 82.6299 107.776 83.4994 107.874Z" fill="#2C5AA0"/>
<path d="M110.561 110.778L114.256 111.193C114.924 111.268 115.404 111.87 115.329 112.537L114.347 121.286C114.272 121.953 113.67 122.434 113.003 122.359L109.307 121.944C108.64 121.869 108.16 121.267 108.235 120.6L109.217 111.851C109.292 111.184 109.893 110.703 110.561 110.778Z" fill="#2C5AA0"/>
<path opacity="0.61" d="M120.622 137.904L109.777 130.944L84.3183 128.086L71.7748 132.492L120.622 137.904Z" fill="#162D50"/>
<path opacity="0.65" d="M72.3686 142.563L76.4968 145.662L76.509 145.664C77.6525 145.265 79.3552 145.356 81.2705 145.571C82.3696 145.695 83.5391 145.826 84.7058 145.957C87.7836 146.302 90.2705 147.266 91.5111 148.744C91.5111 148.744 92.5934 149.55 93.2094 149.776C93.506 149.952 93.8353 149.989 94.1677 149.883C94.8309 149.815 96.1107 149.446 96.1107 149.446C98.3588 148.259 101.037 147.876 103.483 148.122C104.65 148.253 105.819 148.384 106.917 148.507C108.794 148.718 110.445 149.046 111.482 149.604L115.297 149.477L115.249 150.155L112.567 151.764C112.189 154.757 108.746 158.004 104.112 158.695C102.281 158.974 99.8809 158.405 98.5184 157.925C97.1192 157.44 96.1671 156.236 95.4996 155.149C95.2524 154.736 95.0446 153.972 94.9225 153.232C94.8122 152.578 94.5241 152.161 94.1104 151.872C93.8029 151.652 93.3741 151.576 93.0184 151.749C92.5767 151.913 92.3162 152.24 92.0169 152.862C91.784 153.335 91.1733 154.335 90.9322 154.579C90.0403 155.491 88.8449 156.454 87.3731 156.616C85.9379 156.783 83.4714 156.805 81.7477 156.127C78.1473 154.711 75.7237 151.788 75.1485 149.13L72.2265 143.957L72.3686 142.563Z" fill="white"/>
</g>
<line x1="43" y1="421.5" x2="273" y2="421.5" stroke="#383E45" stroke-width="3"/>
<path d="M60.376 372.2L68.504 381H63.576L57.048 373.416V381H53.4V357.32H57.048V371.08L63.448 363.368H68.504L60.376 372.2ZM74.7668 365.928C75.3001 365.032 76.0041 364.339 76.8788 363.848C77.7748 363.336 78.8308 363.08 80.0468 363.08V366.856H79.1188C77.6894 366.856 76.6014 367.219 75.8548 367.944C75.1294 368.669 74.7668 369.928 74.7668 371.72V381H71.1188V363.368H74.7668V365.928ZM85.256 361.032C84.5947 361.032 84.04 360.808 83.592 360.36C83.144 359.912 82.92 359.357 82.92 358.696C82.92 358.035 83.144 357.48 83.592 357.032C84.04 356.584 84.5947 356.36 85.256 356.36C85.896 356.36 86.44 356.584 86.888 357.032C87.336 357.48 87.56 358.035 87.56 358.696C87.56 359.357 87.336 359.912 86.888 360.36C86.44 360.808 85.896 361.032 85.256 361.032ZM87.048 363.368V381H83.4V363.368H87.048ZM98.2375 381.288C96.8508 381.288 95.6028 381.043 94.4935 380.552C93.4055 380.04 92.5415 379.357 91.9015 378.504C91.2615 377.629 90.9202 376.659 90.8775 375.592H94.6535C94.7175 376.339 95.0695 376.968 95.7095 377.48C96.3708 377.971 97.1922 378.216 98.1735 378.216C99.1975 378.216 99.9868 378.024 100.542 377.64C101.118 377.235 101.406 376.723 101.406 376.104C101.406 375.443 101.086 374.952 100.446 374.632C99.8268 374.312 98.8348 373.96 97.4695 373.576C96.1468 373.213 95.0695 372.861 94.2375 372.52C93.4055 372.179 92.6802 371.656 92.0615 370.952C91.4642 370.248 91.1655 369.32 91.1655 368.168C91.1655 367.229 91.4428 366.376 91.9975 365.608C92.5522 364.819 93.3415 364.2 94.3655 363.752C95.4108 363.304 96.6055 363.08 97.9495 363.08C99.9548 363.08 101.566 363.592 102.782 364.616C104.019 365.619 104.68 366.995 104.766 368.744H101.118C101.054 367.955 100.734 367.325 100.158 366.856C99.5815 366.387 98.8028 366.152 97.8215 366.152C96.8615 366.152 96.1255 366.333 95.6135 366.696C95.1015 367.059 94.8455 367.539 94.8455 368.136C94.8455 368.605 95.0162 369 95.3575 369.32C95.6988 369.64 96.1148 369.896 96.6055 370.088C97.0962 370.259 97.8215 370.483 98.7815 370.76C100.062 371.101 101.107 371.453 101.918 371.816C102.75 372.157 103.464 372.669 104.062 373.352C104.659 374.035 104.968 374.941 104.99 376.072C104.99 377.075 104.712 377.971 104.158 378.76C103.603 379.549 102.814 380.168 101.79 380.616C100.787 381.064 99.6028 381.288 98.2375 381.288ZM113.187 366.344V376.104C113.187 376.765 113.337 377.245 113.635 377.544C113.955 377.821 114.489 377.96 115.235 377.96H117.475V381H114.595C112.953 381 111.694 380.616 110.819 379.848C109.945 379.08 109.507 377.832 109.507 376.104V366.344H107.427V363.368H109.507V358.984H113.187V363.368H117.475V366.344H113.187ZM122.694 361.032C122.032 361.032 121.478 360.808 121.03 360.36C120.582 359.912 120.358 359.357 120.358 358.696C120.358 358.035 120.582 357.48 121.03 357.032C121.478 356.584 122.032 356.36 122.694 356.36C123.334 356.36 123.878 356.584 124.326 357.032C124.774 357.48 124.998 358.035 124.998 358.696C124.998 359.357 124.774 359.912 124.326 360.36C123.878 360.808 123.334 361.032 122.694 361.032ZM124.486 363.368V381H120.838V363.368H124.486ZM128.059 372.104C128.059 370.333 128.422 368.765 129.147 367.4C129.894 366.035 130.896 364.979 132.155 364.232C133.435 363.464 134.843 363.08 136.379 363.08C137.766 363.08 138.971 363.357 139.995 363.912C141.04 364.445 141.872 365.117 142.491 365.928V363.368H146.171V381H142.491V378.376C141.872 379.208 141.03 379.901 139.963 380.456C138.896 381.011 137.68 381.288 136.315 381.288C134.8 381.288 133.414 380.904 132.155 380.136C130.896 379.347 129.894 378.259 129.147 376.872C128.422 375.464 128.059 373.875 128.059 372.104ZM142.491 372.168C142.491 370.952 142.235 369.896 141.723 369C141.232 368.104 140.582 367.421 139.771 366.952C138.96 366.483 138.086 366.248 137.147 366.248C136.208 366.248 135.334 366.483 134.523 366.952C133.712 367.4 133.051 368.072 132.539 368.968C132.048 369.843 131.803 370.888 131.803 372.104C131.803 373.32 132.048 374.387 132.539 375.304C133.051 376.221 133.712 376.925 134.523 377.416C135.355 377.885 136.23 378.12 137.147 378.12C138.086 378.12 138.96 377.885 139.771 377.416C140.582 376.947 141.232 376.264 141.723 375.368C142.235 374.451 142.491 373.384 142.491 372.168ZM159.859 363.08C161.245 363.08 162.483 363.368 163.571 363.944C164.68 364.52 165.544 365.373 166.163 366.504C166.781 367.635 167.091 369 167.091 370.6V381H163.475V371.144C163.475 369.565 163.08 368.36 162.291 367.528C161.501 366.675 160.424 366.248 159.059 366.248C157.693 366.248 156.605 366.675 155.795 367.528C155.005 368.36 154.611 369.565 154.611 371.144V381H150.963V363.368H154.611V365.384C155.208 364.659 155.965 364.093 156.883 363.688C157.821 363.283 158.813 363.08 159.859 363.08Z" fill="#383E45"/>
<path d="M95.048 392.704V399.232H102.728V402.208H95.048V409.024H103.688V412H91.4V389.728H103.688V392.704H95.048ZM129.525 394.08C130.912 394.08 132.149 394.368 133.237 394.944C134.347 395.52 135.211 396.373 135.829 397.504C136.469 398.635 136.789 400 136.789 401.6V412H133.173V402.144C133.173 400.565 132.779 399.36 131.989 398.528C131.2 397.675 130.123 397.248 128.757 397.248C127.392 397.248 126.304 397.675 125.493 398.528C124.704 399.36 124.309 400.565 124.309 402.144V412H120.693V402.144C120.693 400.565 120.299 399.36 119.509 398.528C118.72 397.675 117.643 397.248 116.277 397.248C114.912 397.248 113.824 397.675 113.013 398.528C112.224 399.36 111.829 400.565 111.829 402.144V412H108.181V394.368H111.829V396.384C112.427 395.659 113.184 395.093 114.101 394.688C115.019 394.283 116 394.08 117.045 394.08C118.453 394.08 119.712 394.379 120.821 394.976C121.931 395.573 122.784 396.437 123.381 397.568C123.915 396.501 124.747 395.659 125.877 395.04C127.008 394.4 128.224 394.08 129.525 394.08ZM162.775 394.08C164.162 394.08 165.399 394.368 166.487 394.944C167.597 395.52 168.461 396.373 169.079 397.504C169.719 398.635 170.039 400 170.039 401.6V412H166.423V402.144C166.423 400.565 166.029 399.36 165.239 398.528C164.45 397.675 163.373 397.248 162.007 397.248C160.642 397.248 159.554 397.675 158.743 398.528C157.954 399.36 157.559 400.565 157.559 402.144V412H153.943V402.144C153.943 400.565 153.549 399.36 152.759 398.528C151.97 397.675 150.893 397.248 149.527 397.248C148.162 397.248 147.074 397.675 146.263 398.528C145.474 399.36 145.079 400.565 145.079 402.144V412H141.431V394.368H145.079V396.384C145.677 395.659 146.434 395.093 147.351 394.688C148.269 394.283 149.25 394.08 150.295 394.08C151.703 394.08 152.962 394.379 154.071 394.976C155.181 395.573 156.034 396.437 156.631 397.568C157.165 396.501 157.997 395.659 159.127 395.04C160.258 394.4 161.474 394.08 162.775 394.08ZM173.465 403.104C173.465 401.333 173.828 399.765 174.553 398.4C175.3 397.035 176.303 395.979 177.561 395.232C178.841 394.464 180.249 394.08 181.785 394.08C183.172 394.08 184.377 394.357 185.401 394.912C186.447 395.445 187.279 396.117 187.897 396.928V394.368H191.577V412H187.897V409.376C187.279 410.208 186.436 410.901 185.369 411.456C184.303 412.011 183.087 412.288 181.721 412.288C180.207 412.288 178.82 411.904 177.561 411.136C176.303 410.347 175.3 409.259 174.553 407.872C173.828 406.464 173.465 404.875 173.465 403.104ZM187.897 403.168C187.897 401.952 187.641 400.896 187.129 400C186.639 399.104 185.988 398.421 185.177 397.952C184.367 397.483 183.492 397.248 182.553 397.248C181.615 397.248 180.74 397.483 179.929 397.952C179.119 398.4 178.457 399.072 177.945 399.968C177.455 400.843 177.209 401.888 177.209 403.104C177.209 404.32 177.455 405.387 177.945 406.304C178.457 407.221 179.119 407.925 179.929 408.416C180.761 408.885 181.636 409.12 182.553 409.12C183.492 409.12 184.367 408.885 185.177 408.416C185.988 407.947 186.639 407.264 187.129 406.368C187.641 405.451 187.897 404.384 187.897 403.168ZM205.265 394.08C206.651 394.08 207.889 394.368 208.977 394.944C210.086 395.52 210.95 396.373 211.569 397.504C212.187 398.635 212.497 400 212.497 401.6V412H208.881V402.144C208.881 400.565 208.486 399.36 207.697 398.528C206.907 397.675 205.83 397.248 204.465 397.248C203.099 397.248 202.011 397.675 201.201 398.528C200.411 399.36 200.017 400.565 200.017 402.144V412H196.369V394.368H200.017V396.384C200.614 395.659 201.371 395.093 202.289 394.688C203.227 394.283 204.219 394.08 205.265 394.08ZM233.118 394.368V412H229.47V409.92C228.894 410.645 228.137 411.221 227.198 411.648C226.281 412.053 225.299 412.256 224.254 412.256C222.867 412.256 221.619 411.968 220.51 411.392C219.422 410.816 218.558 409.963 217.918 408.832C217.299 407.701 216.99 406.336 216.99 404.736V394.368H220.606V404.192C220.606 405.771 221.001 406.987 221.79 407.84C222.579 408.672 223.657 409.088 225.022 409.088C226.387 409.088 227.465 408.672 228.254 407.84C229.065 406.987 229.47 405.771 229.47 404.192V394.368H233.118ZM254.091 402.752C254.091 403.413 254.049 404.011 253.963 404.544H240.491C240.598 405.952 241.121 407.083 242.059 407.936C242.998 408.789 244.15 409.216 245.515 409.216C247.478 409.216 248.865 408.395 249.675 406.752H253.611C253.078 408.373 252.107 409.707 250.699 410.752C249.313 411.776 247.585 412.288 245.515 412.288C243.83 412.288 242.315 411.915 240.971 411.168C239.649 410.4 238.603 409.333 237.835 407.968C237.089 406.581 236.715 404.981 236.715 403.168C236.715 401.355 237.078 399.765 237.803 398.4C238.55 397.013 239.585 395.947 240.907 395.2C242.251 394.453 243.787 394.08 245.515 394.08C247.179 394.08 248.662 394.443 249.963 395.168C251.265 395.893 252.278 396.917 253.003 398.24C253.729 399.541 254.091 401.045 254.091 402.752ZM250.283 401.6C250.262 400.256 249.782 399.179 248.843 398.368C247.905 397.557 246.742 397.152 245.355 397.152C244.097 397.152 243.019 397.557 242.123 398.368C241.227 399.157 240.694 400.235 240.523 401.6H250.283ZM261.329 388.32V412H257.681V388.32H261.329Z" fill="#383E45"/>
<path d="M92 332.02V346H90.6V332.02H92ZM100.019 340.52C100.019 339.4 100.239 338.42 100.679 337.58C101.132 336.727 101.752 336.073 102.539 335.62C103.339 335.153 104.239 334.92 105.239 334.92C106.279 334.92 107.172 335.16 107.919 335.64C108.679 336.12 109.225 336.733 109.559 337.48V335.08H110.959V346H109.559V343.58C109.212 344.327 108.659 344.947 107.899 345.44C107.152 345.92 106.259 346.16 105.219 346.16C104.232 346.16 103.339 345.927 102.539 345.46C101.752 344.993 101.132 344.333 100.679 343.48C100.239 342.627 100.019 341.64 100.019 340.52ZM109.559 340.54C109.559 339.66 109.379 338.887 109.019 338.22C108.659 337.553 108.165 337.04 107.539 336.68C106.925 336.32 106.245 336.14 105.499 336.14C104.725 336.14 104.032 336.313 103.419 336.66C102.805 337.007 102.319 337.513 101.959 338.18C101.612 338.833 101.439 339.613 101.439 340.52C101.439 341.413 101.612 342.2 101.959 342.88C102.319 343.547 102.805 344.06 103.419 344.42C104.032 344.767 104.725 344.94 105.499 344.94C106.245 344.94 106.925 344.76 107.539 344.4C108.165 344.04 108.659 343.527 109.019 342.86C109.379 342.193 109.559 341.42 109.559 340.54ZM127.155 334.88C128.435 334.88 129.475 335.287 130.275 336.1C131.088 336.9 131.495 338.067 131.495 339.6V346H130.115V339.76C130.115 338.573 129.828 337.667 129.255 337.04C128.681 336.413 127.901 336.1 126.915 336.1C125.888 336.1 125.068 336.44 124.455 337.12C123.841 337.8 123.535 338.787 123.535 340.08V346H122.155V339.76C122.155 338.573 121.868 337.667 121.295 337.04C120.721 336.413 119.935 336.1 118.935 336.1C117.908 336.1 117.088 336.44 116.475 337.12C115.861 337.8 115.555 338.787 115.555 340.08V346H114.155V335.08H115.555V336.96C115.901 336.28 116.395 335.767 117.035 335.42C117.675 335.06 118.388 334.88 119.175 334.88C120.121 334.88 120.948 335.107 121.655 335.56C122.375 336.013 122.895 336.68 123.215 337.56C123.508 336.693 124.008 336.033 124.715 335.58C125.435 335.113 126.248 334.88 127.155 334.88Z" fill="#3E3E3E"/>
<path d="M45.4 430.816V442H44.28V430.816H45.4ZM52.0323 433.104C53.0776 433.104 53.9309 433.429 54.5923 434.08C55.2536 434.72 55.5843 435.653 55.5843 436.88V442H54.4803V437.008C54.4803 436.059 54.2403 435.333 53.7603 434.832C53.2909 434.331 52.6456 434.08 51.8243 434.08C50.9816 434.08 50.3096 434.347 49.8083 434.88C49.3069 435.413 49.0563 436.197 49.0563 437.232V442H47.9363V433.264H49.0563V434.752C49.3336 434.219 49.7336 433.813 50.2563 433.536C50.7789 433.248 51.3709 433.104 52.0323 433.104ZM57.5493 437.616C57.5493 436.72 57.7306 435.936 58.0933 435.264C58.4559 434.581 58.9519 434.059 59.5813 433.696C60.2213 433.323 60.9413 433.136 61.7413 433.136C62.5093 433.136 63.2026 433.323 63.8213 433.696C64.4399 434.069 64.8933 434.555 65.1813 435.152V430.16H66.3013V442H65.1813V440.048C64.9146 440.656 64.4773 441.157 63.8693 441.552C63.2613 441.936 62.5466 442.128 61.7253 442.128C60.9253 442.128 60.2053 441.941 59.5653 441.568C58.9359 441.195 58.4399 440.667 58.0773 439.984C57.7253 439.301 57.5493 438.512 57.5493 437.616ZM65.1813 437.632C65.1813 436.928 65.0373 436.309 64.7493 435.776C64.4613 435.243 64.0666 434.832 63.5653 434.544C63.0746 434.256 62.5306 434.112 61.9333 434.112C61.3146 434.112 60.7599 434.251 60.2693 434.528C59.7786 434.805 59.3893 435.211 59.1013 435.744C58.8239 436.267 58.6853 436.891 58.6853 437.616C58.6853 438.331 58.8239 438.96 59.1013 439.504C59.3893 440.037 59.7786 440.448 60.2693 440.736C60.7599 441.013 61.3146 441.152 61.9333 441.152C62.5306 441.152 63.0746 441.008 63.5653 440.72C64.0666 440.432 64.4613 440.021 64.7493 439.488C65.0373 438.955 65.1813 438.336 65.1813 437.632ZM76.4261 433.264V442H75.3061V440.464C75.0501 441.008 74.6555 441.424 74.1221 441.712C73.5888 442 72.9915 442.144 72.3301 442.144C71.2848 442.144 70.4315 441.824 69.7701 441.184C69.1088 440.533 68.7781 439.595 68.7781 438.368V433.264H69.8821V438.24C69.8821 439.189 70.1168 439.915 70.5861 440.416C71.0661 440.917 71.7168 441.168 72.5381 441.168C73.3808 441.168 74.0528 440.901 74.5541 440.368C75.0555 439.835 75.3061 439.051 75.3061 438.016V433.264H76.4261ZM81.9911 442.128C80.9885 442.128 80.1671 441.899 79.5271 441.44C78.8978 440.971 78.5458 440.336 78.4711 439.536H79.6231C79.6765 440.027 79.9058 440.427 80.3111 440.736C80.7271 441.035 81.2818 441.184 81.9751 441.184C82.5831 441.184 83.0578 441.04 83.3991 440.752C83.7511 440.464 83.9271 440.107 83.9271 439.68C83.9271 439.381 83.8311 439.136 83.6391 438.944C83.4471 438.752 83.2018 438.603 82.9031 438.496C82.6151 438.379 82.2205 438.256 81.7191 438.128C81.0685 437.957 80.5405 437.787 80.1351 437.616C79.7298 437.445 79.3831 437.195 79.0951 436.864C78.8178 436.523 78.6791 436.069 78.6791 435.504C78.6791 435.077 78.8071 434.683 79.0631 434.32C79.3191 433.957 79.6818 433.669 80.1511 433.456C80.6205 433.243 81.1538 433.136 81.7511 433.136C82.6898 433.136 83.4471 433.376 84.0231 433.856C84.5991 434.325 84.9085 434.976 84.9511 435.808H83.8311C83.7991 435.296 83.5965 434.885 83.2231 434.576C82.8605 434.256 82.3591 434.096 81.7191 434.096C81.1538 434.096 80.6951 434.229 80.3431 434.496C79.9911 434.763 79.8151 435.093 79.8151 435.488C79.8151 435.829 79.9165 436.112 80.1191 436.336C80.3325 436.549 80.5938 436.72 80.9031 436.848C81.2125 436.965 81.6285 437.099 82.1511 437.248C82.7805 437.419 83.2818 437.584 83.6551 437.744C84.0285 437.904 84.3485 438.139 84.6151 438.448C84.8818 438.757 85.0205 439.168 85.0311 439.68C85.0311 440.149 84.9031 440.571 84.6471 440.944C84.3911 441.307 84.0338 441.595 83.5751 441.808C83.1165 442.021 82.5885 442.128 81.9911 442.128ZM88.5954 434.208V439.632C88.5954 440.165 88.6967 440.533 88.8994 440.736C89.102 440.939 89.4594 441.04 89.9714 441.04H90.9954V442H89.7954C89.006 442 88.4194 441.819 88.0354 441.456C87.6514 441.083 87.4594 440.475 87.4594 439.632V434.208H86.2434V433.264H87.4594V431.072H88.5954V433.264H90.9954V434.208H88.5954ZM93.9625 434.816C94.2078 434.272 94.5812 433.851 95.0825 433.552C95.5945 433.253 96.2185 433.104 96.9545 433.104V434.272H96.6505C95.8398 434.272 95.1892 434.491 94.6985 434.928C94.2078 435.365 93.9625 436.096 93.9625 437.12V442H92.8425V433.264H93.9625V434.816ZM99.1994 431.616C98.9754 431.616 98.7834 431.536 98.6234 431.376C98.4634 431.216 98.3834 431.019 98.3834 430.784C98.3834 430.549 98.4634 430.357 98.6234 430.208C98.7834 430.048 98.9754 429.968 99.1994 429.968C99.4234 429.968 99.6154 430.048 99.7754 430.208C99.9354 430.357 100.015 430.549 100.015 430.784C100.015 431.019 99.9354 431.216 99.7754 431.376C99.6154 431.536 99.4234 431.616 99.1994 431.616ZM99.7594 433.264V442H98.6394V433.264H99.7594ZM101.784 437.616C101.784 436.72 101.96 435.936 102.312 435.264C102.674 434.581 103.17 434.059 103.8 433.696C104.44 433.323 105.16 433.136 105.96 433.136C106.792 433.136 107.506 433.328 108.104 433.712C108.712 434.096 109.149 434.587 109.416 435.184V433.264H110.536V442H109.416V440.064C109.138 440.661 108.696 441.157 108.088 441.552C107.49 441.936 106.776 442.128 105.944 442.128C105.154 442.128 104.44 441.941 103.8 441.568C103.17 441.195 102.674 440.667 102.312 439.984C101.96 439.301 101.784 438.512 101.784 437.616ZM109.416 437.632C109.416 436.928 109.272 436.309 108.984 435.776C108.696 435.243 108.301 434.832 107.8 434.544C107.309 434.256 106.765 434.112 106.168 434.112C105.549 434.112 104.994 434.251 104.504 434.528C104.013 434.805 103.624 435.211 103.336 435.744C103.058 436.267 102.92 436.891 102.92 437.616C102.92 438.331 103.058 438.96 103.336 439.504C103.624 440.037 104.013 440.448 104.504 440.736C104.994 441.013 105.549 441.152 106.168 441.152C106.765 441.152 107.309 441.008 107.8 440.72C108.301 440.432 108.696 440.021 108.984 439.488C109.272 438.955 109.416 438.336 109.416 437.632ZM114.213 430.16V442H113.093V430.16H114.213ZM127.091 442L124.323 437.328H122.259V442H121.139V430.816H124.499C125.747 430.816 126.691 431.115 127.331 431.712C127.982 432.309 128.307 433.093 128.307 434.064C128.307 434.875 128.073 435.568 127.603 436.144C127.145 436.709 126.462 437.077 125.555 437.248L128.435 442H127.091ZM122.259 436.416H124.515C125.39 436.416 126.046 436.203 126.483 435.776C126.931 435.349 127.155 434.779 127.155 434.064C127.155 433.328 126.942 432.763 126.515 432.368C126.089 431.963 125.417 431.76 124.499 431.76H122.259V436.416ZM134.354 442.128C133.533 442.128 132.791 441.947 132.13 441.584C131.479 441.211 130.962 440.688 130.578 440.016C130.205 439.333 130.018 438.539 130.018 437.632C130.018 436.725 130.21 435.936 130.594 435.264C130.978 434.581 131.501 434.059 132.162 433.696C132.823 433.323 133.565 433.136 134.386 433.136C135.207 433.136 135.949 433.323 136.61 433.696C137.282 434.059 137.805 434.581 138.178 435.264C138.562 435.936 138.754 436.725 138.754 437.632C138.754 438.528 138.562 439.317 138.178 440C137.794 440.683 137.266 441.211 136.594 441.584C135.922 441.947 135.175 442.128 134.354 442.128ZM134.354 441.152C134.93 441.152 135.463 441.024 135.954 440.768C136.445 440.501 136.839 440.107 137.138 439.584C137.447 439.051 137.602 438.4 137.602 437.632C137.602 436.864 137.453 436.219 137.154 435.696C136.855 435.163 136.461 434.768 135.97 434.512C135.479 434.245 134.946 434.112 134.37 434.112C133.794 434.112 133.261 434.245 132.77 434.512C132.279 434.768 131.885 435.163 131.586 435.696C131.298 436.219 131.154 436.864 131.154 437.632C131.154 438.4 131.298 439.051 131.586 439.584C131.885 440.107 132.274 440.501 132.754 440.768C133.245 441.024 133.778 441.152 134.354 441.152ZM141.9 435.2C142.188 434.592 142.63 434.096 143.228 433.712C143.836 433.328 144.55 433.136 145.372 433.136C146.172 433.136 146.886 433.323 147.516 433.696C148.145 434.059 148.636 434.581 148.988 435.264C149.35 435.936 149.532 436.72 149.532 437.616C149.532 438.512 149.35 439.301 148.988 439.984C148.636 440.667 148.14 441.195 147.5 441.568C146.87 441.941 146.161 442.128 145.372 442.128C144.54 442.128 143.82 441.941 143.212 441.568C142.614 441.184 142.177 440.688 141.9 440.08V442H140.796V430.16H141.9V435.2ZM148.396 437.616C148.396 436.891 148.252 436.267 147.964 435.744C147.686 435.211 147.302 434.805 146.812 434.528C146.321 434.251 145.766 434.112 145.148 434.112C144.55 434.112 144.001 434.256 143.5 434.544C143.009 434.832 142.62 435.243 142.332 435.776C142.044 436.309 141.9 436.928 141.9 437.632C141.9 438.336 142.044 438.955 142.332 439.488C142.62 440.021 143.009 440.432 143.5 440.72C144.001 441.008 144.55 441.152 145.148 441.152C145.766 441.152 146.321 441.013 146.812 440.736C147.302 440.448 147.686 440.037 147.964 439.504C148.252 438.96 148.396 438.331 148.396 437.616ZM155.417 442.128C154.595 442.128 153.854 441.947 153.193 441.584C152.542 441.211 152.025 440.688 151.641 440.016C151.267 439.333 151.081 438.539 151.081 437.632C151.081 436.725 151.273 435.936 151.657 435.264C152.041 434.581 152.563 434.059 153.225 433.696C153.886 433.323 154.627 433.136 155.449 433.136C156.27 433.136 157.011 433.323 157.673 433.696C158.345 434.059 158.867 434.581 159.241 435.264C159.625 435.936 159.817 436.725 159.817 437.632C159.817 438.528 159.625 439.317 159.241 440C158.857 440.683 158.329 441.211 157.657 441.584C156.985 441.947 156.238 442.128 155.417 442.128ZM155.417 441.152C155.993 441.152 156.526 441.024 157.017 440.768C157.507 440.501 157.902 440.107 158.201 439.584C158.51 439.051 158.665 438.4 158.665 437.632C158.665 436.864 158.515 436.219 158.217 435.696C157.918 435.163 157.523 434.768 157.033 434.512C156.542 434.245 156.009 434.112 155.433 434.112C154.857 434.112 154.323 434.245 153.833 434.512C153.342 434.768 152.947 435.163 152.649 435.696C152.361 436.219 152.217 436.864 152.217 437.632C152.217 438.4 152.361 439.051 152.649 439.584C152.947 440.107 153.337 440.501 153.817 440.768C154.307 441.024 154.841 441.152 155.417 441.152ZM163.314 434.208V439.632C163.314 440.165 163.415 440.533 163.618 440.736C163.821 440.939 164.178 441.04 164.69 441.04H165.714V442H164.514C163.725 442 163.138 441.819 162.754 441.456C162.37 441.083 162.178 440.475 162.178 439.632V434.208H160.962V433.264H162.178V431.072H163.314V433.264H165.714V434.208H163.314ZM168.121 431.616C167.897 431.616 167.705 431.536 167.545 431.376C167.385 431.216 167.305 431.019 167.305 430.784C167.305 430.549 167.385 430.357 167.545 430.208C167.705 430.048 167.897 429.968 168.121 429.968C168.345 429.968 168.537 430.048 168.697 430.208C168.857 430.357 168.937 430.549 168.937 430.784C168.937 431.019 168.857 431.216 168.697 431.376C168.537 431.536 168.345 431.616 168.121 431.616ZM168.681 433.264V442H167.561V433.264H168.681ZM170.706 437.632C170.706 436.725 170.887 435.936 171.25 435.264C171.612 434.581 172.114 434.059 172.754 433.696C173.394 433.323 174.124 433.136 174.946 433.136C176.023 433.136 176.908 433.403 177.602 433.936C178.306 434.469 178.759 435.195 178.962 436.112H177.762C177.612 435.483 177.287 434.992 176.786 434.64C176.295 434.277 175.682 434.096 174.946 434.096C174.359 434.096 173.831 434.229 173.362 434.496C172.892 434.763 172.519 435.163 172.242 435.696C171.975 436.219 171.842 436.864 171.842 437.632C171.842 438.4 171.975 439.051 172.242 439.584C172.519 440.117 172.892 440.517 173.362 440.784C173.831 441.051 174.359 441.184 174.946 441.184C175.682 441.184 176.295 441.008 176.786 440.656C177.287 440.293 177.612 439.792 177.762 439.152H178.962C178.759 440.048 178.306 440.768 177.602 441.312C176.898 441.856 176.012 442.128 174.946 442.128C174.124 442.128 173.394 441.947 172.754 441.584C172.114 441.211 171.612 440.688 171.25 440.016C170.887 439.333 170.706 438.539 170.706 437.632ZM184.038 442.128C183.035 442.128 182.214 441.899 181.574 441.44C180.945 440.971 180.593 440.336 180.518 439.536H181.67C181.723 440.027 181.953 440.427 182.358 440.736C182.774 441.035 183.329 441.184 184.022 441.184C184.63 441.184 185.105 441.04 185.446 440.752C185.798 440.464 185.974 440.107 185.974 439.68C185.974 439.381 185.878 439.136 185.686 438.944C185.494 438.752 185.249 438.603 184.95 438.496C184.662 438.379 184.267 438.256 183.766 438.128C183.115 437.957 182.587 437.787 182.182 437.616C181.777 437.445 181.43 437.195 181.142 436.864C180.865 436.523 180.726 436.069 180.726 435.504C180.726 435.077 180.854 434.683 181.11 434.32C181.366 433.957 181.729 433.669 182.198 433.456C182.667 433.243 183.201 433.136 183.798 433.136C184.737 433.136 185.494 433.376 186.07 433.856C186.646 434.325 186.955 434.976 186.998 435.808H185.878C185.846 435.296 185.643 434.885 185.27 434.576C184.907 434.256 184.406 434.096 183.766 434.096C183.201 434.096 182.742 434.229 182.39 434.496C182.038 434.763 181.862 435.093 181.862 435.488C181.862 435.829 181.963 436.112 182.166 436.336C182.379 436.549 182.641 436.72 182.95 436.848C183.259 436.965 183.675 437.099 184.198 437.248C184.827 437.419 185.329 437.584 185.702 437.744C186.075 437.904 186.395 438.139 186.662 438.448C186.929 438.757 187.067 439.168 187.078 439.68C187.078 440.149 186.95 440.571 186.694 440.944C186.438 441.307 186.081 441.595 185.622 441.808C185.163 442.021 184.635 442.128 184.038 442.128ZM194.697 431.728V435.904H198.937V436.832H194.697V441.072H199.417V442H193.577V430.8H199.417V431.728H194.697ZM205.72 433.104C206.765 433.104 207.618 433.429 208.28 434.08C208.941 434.72 209.272 435.653 209.272 436.88V442H208.168V437.008C208.168 436.059 207.928 435.333 207.448 434.832C206.978 434.331 206.333 434.08 205.512 434.08C204.669 434.08 203.997 434.347 203.496 434.88C202.994 435.413 202.744 436.197 202.744 437.232V442H201.624V433.264H202.744V434.752C203.021 434.219 203.421 433.813 203.944 433.536C204.466 433.248 205.058 433.104 205.72 433.104ZM215.413 433.136C216.234 433.136 216.949 433.328 217.557 433.712C218.165 434.096 218.602 434.581 218.869 435.168V433.264H219.989V442.224C219.989 443.024 219.813 443.733 219.461 444.352C219.119 444.971 218.639 445.445 218.021 445.776C217.402 446.117 216.698 446.288 215.909 446.288C214.789 446.288 213.855 446.021 213.109 445.488C212.373 444.955 211.914 444.229 211.733 443.312H212.837C213.029 443.92 213.391 444.405 213.925 444.768C214.469 445.131 215.13 445.312 215.909 445.312C216.474 445.312 216.981 445.189 217.429 444.944C217.877 444.709 218.229 444.357 218.485 443.888C218.741 443.419 218.869 442.864 218.869 442.224V440.064C218.591 440.661 218.149 441.157 217.541 441.552C216.943 441.936 216.234 442.128 215.413 442.128C214.613 442.128 213.893 441.941 213.253 441.568C212.623 441.195 212.127 440.667 211.765 439.984C211.413 439.301 211.237 438.512 211.237 437.616C211.237 436.72 211.413 435.936 211.765 435.264C212.127 434.581 212.623 434.059 213.253 433.696C213.893 433.323 214.613 433.136 215.413 433.136ZM218.869 437.632C218.869 436.928 218.725 436.309 218.437 435.776C218.149 435.243 217.754 434.832 217.253 434.544C216.762 434.256 216.218 434.112 215.621 434.112C215.002 434.112 214.447 434.251 213.957 434.528C213.466 434.805 213.077 435.211 212.789 435.744C212.511 436.267 212.373 436.891 212.373 437.616C212.373 438.331 212.511 438.96 212.789 439.504C213.077 440.037 213.466 440.448 213.957 440.736C214.447 441.013 215.002 441.152 215.621 441.152C216.218 441.152 216.762 441.008 217.253 440.72C217.754 440.432 218.149 440.021 218.437 439.488C218.725 438.955 218.869 438.336 218.869 437.632ZM230.45 437.184C230.45 437.568 230.439 437.861 230.418 438.064H223.17C223.202 438.725 223.362 439.291 223.65 439.76C223.938 440.229 224.316 440.587 224.786 440.832C225.255 441.067 225.767 441.184 226.322 441.184C227.047 441.184 227.655 441.008 228.146 440.656C228.647 440.304 228.978 439.829 229.138 439.232H230.322C230.108 440.085 229.65 440.784 228.946 441.328C228.252 441.861 227.378 442.128 226.322 442.128C225.5 442.128 224.764 441.947 224.114 441.584C223.463 441.211 222.951 440.688 222.578 440.016C222.215 439.333 222.034 438.539 222.034 437.632C222.034 436.725 222.215 435.931 222.578 435.248C222.94 434.565 223.447 434.043 224.098 433.68C224.748 433.317 225.49 433.136 226.322 433.136C227.154 433.136 227.879 433.317 228.498 433.68C229.127 434.043 229.607 434.533 229.938 435.152C230.279 435.76 230.45 436.437 230.45 437.184ZM229.314 437.152C229.324 436.501 229.191 435.947 228.914 435.488C228.647 435.029 228.279 434.683 227.81 434.448C227.34 434.213 226.828 434.096 226.274 434.096C225.442 434.096 224.732 434.363 224.146 434.896C223.559 435.429 223.234 436.181 223.17 437.152H229.314ZM240.403 437.184C240.403 437.568 240.392 437.861 240.371 438.064H233.123C233.155 438.725 233.315 439.291 233.603 439.76C233.891 440.229 234.269 440.587 234.739 440.832C235.208 441.067 235.72 441.184 236.275 441.184C237 441.184 237.608 441.008 238.099 440.656C238.6 440.304 238.931 439.829 239.091 439.232H240.275C240.061 440.085 239.603 440.784 238.899 441.328C238.205 441.861 237.331 442.128 236.275 442.128C235.453 442.128 234.717 441.947 234.067 441.584C233.416 441.211 232.904 440.688 232.531 440.016C232.168 439.333 231.987 438.539 231.987 437.632C231.987 436.725 232.168 435.931 232.531 435.248C232.893 434.565 233.4 434.043 234.051 433.68C234.701 433.317 235.443 433.136 236.275 433.136C237.107 433.136 237.832 433.317 238.451 433.68C239.08 434.043 239.56 434.533 239.891 435.152C240.232 435.76 240.403 436.437 240.403 437.184ZM239.267 437.152C239.277 436.501 239.144 435.947 238.867 435.488C238.6 435.029 238.232 434.683 237.763 434.448C237.293 434.213 236.781 434.096 236.227 434.096C235.395 434.096 234.685 434.363 234.099 434.896C233.512 435.429 233.187 436.181 233.123 437.152H239.267ZM246.548 433.104C247.593 433.104 248.447 433.429 249.108 434.08C249.769 434.72 250.1 435.653 250.1 436.88V442H248.996V437.008C248.996 436.059 248.756 435.333 248.276 434.832C247.807 434.331 247.161 434.08 246.34 434.08C245.497 434.08 244.825 434.347 244.324 434.88C243.823 435.413 243.572 436.197 243.572 437.232V442H242.452V433.264H243.572V434.752C243.849 434.219 244.249 433.813 244.772 433.536C245.295 433.248 245.887 433.104 246.548 433.104ZM253.137 431.616C252.913 431.616 252.721 431.536 252.561 431.376C252.401 431.216 252.321 431.019 252.321 430.784C252.321 430.549 252.401 430.357 252.561 430.208C252.721 430.048 252.913 429.968 253.137 429.968C253.361 429.968 253.553 430.048 253.713 430.208C253.873 430.357 253.953 430.549 253.953 430.784C253.953 431.019 253.873 431.216 253.713 431.376C253.553 431.536 253.361 431.616 253.137 431.616ZM253.697 433.264V442H252.577V433.264H253.697ZM264.137 437.184C264.137 437.568 264.126 437.861 264.105 438.064H256.857C256.889 438.725 257.049 439.291 257.337 439.76C257.625 440.229 258.004 440.587 258.473 440.832C258.942 441.067 259.454 441.184 260.009 441.184C260.734 441.184 261.342 441.008 261.833 440.656C262.334 440.304 262.665 439.829 262.825 439.232H264.009C263.796 440.085 263.337 440.784 262.633 441.328C261.94 441.861 261.065 442.128 260.009 442.128C259.188 442.128 258.452 441.947 257.801 441.584C257.15 441.211 256.638 440.688 256.265 440.016C255.902 439.333 255.721 438.539 255.721 437.632C255.721 436.725 255.902 435.931 256.265 435.248C256.628 434.565 257.134 434.043 257.785 433.68C258.436 433.317 259.177 433.136 260.009 433.136C260.841 433.136 261.566 433.317 262.185 433.68C262.814 434.043 263.294 434.533 263.625 435.152C263.966 435.76 264.137 436.437 264.137 437.184ZM263.001 437.152C263.012 436.501 262.878 435.947 262.601 435.488C262.334 435.029 261.966 434.683 261.497 434.448C261.028 434.213 260.516 434.096 259.961 434.096C259.129 434.096 258.42 434.363 257.833 434.896C257.246 435.429 256.921 436.181 256.857 437.152H263.001ZM267.306 434.816C267.552 434.272 267.925 433.851 268.426 433.552C268.938 433.253 269.562 433.104 270.298 433.104V434.272H269.994C269.184 434.272 268.533 434.491 268.042 434.928C267.552 435.365 267.306 436.096 267.306 437.12V442H266.186V433.264H267.306V434.816Z" fill="#383E45"/>
<defs>
<clipPath id="clip0">
<rect width="253.602" height="483.203" fill="white"/>
</clipPath>
</defs>
</svg>
