<svg width="645" height="455" viewBox="0 0 645 455" fill="none" xmlns="http://www.w3.org/2000/svg">
<g clip-path="url(#clip0)">
<path fill-rule="evenodd" clip-rule="evenodd" d="M208.024 57.6444H185.356C181.977 57.6444 178.669 54.3586 178.669 50.9332V28.5626C178.669 25.2772 181.977 21.9915 185.356 21.9915H208.023C211.473 21.9915 214.711 25.2772 214.711 28.5626V50.9332C214.711 54.3586 211.473 57.6444 208.024 57.6444V57.6444ZM196.76 26.046L181.063 44.2919L188.806 53.3796L196.76 44.5018L204.645 53.3796L212.529 44.2919L196.76 26.046Z" fill="#3165AA"/>
<path fill-rule="evenodd" clip-rule="evenodd" d="M192.748 72.1852C191.129 72.1852 189.792 70.8567 189.792 69.3192V64.4958C189.792 62.8877 191.129 61.629 192.748 61.629H200.773V63.6565H192.044V70.1574H200.773V72.1849H192.748V72.1852ZM181.696 72.1852C180.077 72.1852 178.81 70.8567 178.81 69.3192V61.5596H180.992V70.1578H188.524V72.1852H181.696ZM211.825 72.1852H205.208C203.659 72.1852 202.322 70.8567 202.322 69.3192V64.4958C202.322 62.8877 203.659 61.629 205.208 61.629H211.825C213.444 61.629 214.711 62.8877 214.711 64.4958V69.3192C214.711 70.8571 213.444 72.1852 211.825 72.1852ZM204.574 70.1578H212.529V63.6568H204.574V70.1578ZM175.712 72.1852H178.035L172.263 62.608C171.841 61.9789 171.348 61.6992 170.644 61.6992C169.94 61.6992 169.448 61.9789 169.025 62.608L163.253 72.1852H165.575L166.772 70.228H174.586L175.712 72.1852ZM167.899 68.3402L170.574 63.866L170.644 63.7958L170.785 63.866L173.39 68.3402H167.899ZM227.734 72.1852H230.057L224.285 62.608C223.863 61.9789 223.37 61.6992 222.666 61.6992C221.962 61.6992 221.469 61.9789 221.047 62.608L215.275 72.1852H217.598L218.794 70.228H226.608L227.734 72.1852ZM219.92 68.3402L222.595 63.866L222.666 63.7958L222.806 63.866L225.411 68.3402H219.92Z" fill="#3165AA" stroke="#3165AA" stroke-width="0.261096" stroke-miterlimit="2.613"/>
<path fill-rule="evenodd" clip-rule="evenodd" d="M196.76 44.4321L189.228 35.9731H204.363L196.76 44.4321Z" fill="#3165AA"/>
<path d="M394.855 33.3787C367.359 33.3787 345.314 41.6018 345.314 51.9116C345.314 62.1596 367.541 70.449 394.855 70.449C422.174 70.449 444.397 62.1331 444.397 51.9116C444.397 41.6902 422.174 33.3787 394.855 33.3787" fill="#003478"/>
<path d="M414.371 55.8376C414.384 55.926 414.495 56.0056 414.601 56.0454C414.645 56.0586 414.663 56.0852 414.619 56.178C414.309 56.8323 414.03 57.2125 413.644 57.7873C413.289 58.3178 412.886 58.729 412.403 59.1268C411.668 59.7325 410.653 60.3868 409.811 59.9492C409.439 59.7546 409.279 59.2329 409.284 58.813C409.301 57.6237 409.833 56.4079 410.808 55.2098C412 53.7509 413.316 52.9904 414.176 53.4016C415.071 53.8304 414.787 54.8605 414.388 55.6696C414.361 55.7212 414.355 55.7814 414.371 55.8376V55.8376ZM423.96 46.5976C424.022 46.4827 423.96 46.3987 423.814 46.3987H421.31C421.124 46.3987 421.026 46.4252 420.942 46.5976C420.654 47.1458 417.154 52.3759 416.502 53.3928C416.396 53.5475 416.258 53.5254 416.245 53.3486C416.179 52.7473 415.656 52.0532 414.832 51.7216C414.238 51.4824 413.591 51.4061 412.957 51.5006C411.805 51.6597 410.781 52.2654 409.877 52.9462C408.521 53.9763 407.352 55.3115 405.836 56.3018C405.007 56.8367 403.878 57.3054 403.12 56.6069C402.437 55.9746 402.513 54.5643 403.563 53.4768C403.674 53.3618 403.807 53.4591 403.784 53.5608C403.728 53.7973 403.735 54.0445 403.805 54.2775C403.875 54.5104 404.006 54.7207 404.183 54.8871C404.64 55.2938 405.291 55.3424 405.854 55.0639C406.169 54.9002 406.439 54.6625 406.641 54.3714C406.843 54.0802 406.972 53.7444 407.015 53.3928C407.052 53.134 407.035 52.8704 406.966 52.6184C406.896 52.3664 406.775 52.1314 406.611 51.9281C406.446 51.7248 406.241 51.5575 406.009 51.4368C405.776 51.3161 405.521 51.2445 405.26 51.2265C404.392 51.1646 403.554 51.4652 402.739 52.1372C402.354 52.4469 402.019 52.8137 401.746 53.2248C401.657 53.3485 401.529 53.3574 401.533 53.1806C401.573 51.757 400.984 50.9568 399.805 50.9302C398.892 50.9081 397.913 51.4033 397.151 52.009C396.318 52.6766 395.587 53.5652 394.802 54.3963C394.709 54.5024 394.625 54.498 394.594 54.2991C394.598 53.4155 394.358 52.5479 393.898 51.7923C393.817 51.6749 393.695 51.5914 393.556 51.5579C393.417 51.5245 393.271 51.5434 393.145 51.6111C393.016 51.6774 392.578 51.8763 392.259 52.1372C392.099 52.2698 392.037 52.4555 392.108 52.6987C392.529 54.1045 392.436 55.705 391.864 57.0578C391.337 58.2957 390.318 59.4142 389.117 59.79C388.328 60.042 387.504 59.9182 386.994 59.2153C386.299 58.2515 386.578 56.5759 387.619 55.1789C388.541 53.9498 389.87 53.1717 391.195 52.6677C391.35 52.6102 391.386 52.5086 391.341 52.3759L391.107 51.7305C390.983 51.4033 390.641 51.3547 390.229 51.3989C389.263 51.5094 388.395 51.841 387.535 52.2963C385.288 53.4989 384.158 55.8243 383.667 57.0711C383.499 57.5376 383.262 57.9759 382.962 58.3708C382.607 58.8129 382.164 59.2197 381.349 59.9315C381.305 59.9719 381.274 60.0254 381.262 60.0842C381.25 60.143 381.257 60.2041 381.283 60.2586C381.449 60.5618 381.66 60.8388 381.907 61.0809C382.04 61.1473 382.195 61.0544 382.257 61.0102C382.825 60.6256 383.507 60.0155 383.839 59.5999C383.955 59.4584 384.079 59.5203 384.141 59.7325C384.291 60.2846 384.575 60.7915 384.967 61.2085C385.36 61.6256 385.849 61.9401 386.392 62.1243C388.452 62.8184 390.593 61.8148 392.206 60.0641C393.229 58.9588 393.601 58.2382 393.996 57.7563C394.66 56.9296 395.977 55.086 397.541 53.9056C398.117 53.4679 398.795 53.1363 399.136 53.3574C399.411 53.5342 399.499 53.9454 399.061 54.7456C397.465 57.6546 395.117 61.0677 394.683 61.8988C394.603 62.0403 394.674 62.1553 394.824 62.1553H397.244C397.372 62.1464 397.43 62.0889 397.492 62.0005C398.715 60.0862 399.867 58.2647 401.104 56.3858C401.174 56.2709 401.236 56.3593 401.236 56.4079C401.267 56.8412 401.369 57.438 401.635 57.8315C401.827 58.1527 402.1 58.4181 402.426 58.6012C402.753 58.7843 403.122 58.8787 403.496 58.8748C404.016 58.8819 404.531 58.7732 405.003 58.5565C405.517 58.3664 405.934 58.1188 406.244 57.8934C406.43 57.7652 406.465 57.9818 406.456 58.0127C406.173 59.5292 406.523 61.3285 408.038 62.0801C409.846 62.9643 411.836 61.7176 412.984 60.5858C413.095 60.4753 413.214 60.4885 413.227 60.7228C413.254 61.1561 413.449 61.6645 413.804 62.027C414.761 62.9864 416.697 62.6018 418.638 61.103C419.888 60.1437 421.19 58.7864 422.369 57.3496C422.413 57.2965 422.449 57.2081 422.36 57.1153C422.183 56.9296 421.922 56.7174 421.744 56.5494C421.665 56.4786 421.545 56.5007 421.478 56.5494C420.269 57.6989 419.179 59.0031 417.61 60.0862C417.078 60.4532 416.236 60.7494 415.855 60.2409C415.705 60.042 415.722 59.7679 415.868 59.4009C416.325 58.2647 423.579 47.2431 423.96 46.5932" fill="white"/>
<path d="M389.822 47.9283C389.853 48.0919 389.919 48.1228 389.994 48.1051C390.408 47.9929 390.767 47.7354 391.005 47.3801C391.226 47.0618 391.328 46.602 391.111 46.4163C390.916 46.2527 390.601 46.2969 390.367 46.5047C390.167 46.6803 390.013 46.9016 389.918 47.1495C389.823 47.3975 389.79 47.6647 389.822 47.9283V47.9283ZM371.33 62.1154C368.627 62.1331 366.243 60.4664 365.968 57.575C365.81 56.0714 366.244 54.5654 367.178 53.375C367.984 52.3272 369.349 51.4607 370.501 51.2485C370.873 51.1778 371.379 51.222 371.587 51.4695C371.915 51.8498 371.822 52.2653 371.494 52.4333C370.612 52.8799 369.553 53.6491 369.03 54.6969C368.789 55.1422 368.674 55.6449 368.698 56.1506C368.722 56.6564 368.884 57.1459 369.167 57.5662C370.253 59.2019 373.284 59.2461 376.098 56.6377C376.798 55.9967 377.418 55.3822 378.052 54.6571C379.293 53.2424 379.705 52.7251 381.353 50.4439C381.371 50.4173 381.38 50.382 381.371 50.3687C381.358 50.3378 381.336 50.3333 381.287 50.3245C380.188 50.3599 379.226 50.687 378.296 51.3811C378.03 51.5756 377.64 51.5491 377.472 51.2927C377.285 51.0009 377.418 50.6207 377.729 50.4085C379.226 49.3651 380.866 49.1794 382.541 48.8965C382.541 48.8965 382.656 48.8965 382.754 48.7771C383.441 47.8929 383.959 47.1016 384.69 46.2129C385.43 45.311 386.383 44.4799 387.11 43.8565C388.129 42.9856 388.78 42.6938 389.44 42.3313C389.618 42.2428 389.418 42.1323 389.365 42.1323C385.665 41.4382 381.823 40.5407 378.15 41.898C375.606 42.8441 374.489 44.8601 375.026 46.2041C375.407 47.159 376.665 47.3093 377.844 46.7346C378.819 46.2616 379.727 45.4879 380.37 44.4976C380.724 43.9449 381.482 44.3428 381.074 45.3022C379.997 47.8222 377.946 49.8205 375.447 49.9045C373.315 49.9752 371.941 48.4102 371.946 46.4826C371.955 42.6805 376.2 40.1782 380.653 39.8024C386.024 39.3603 391.111 40.7883 396.442 41.4338C400.527 41.9245 404.445 41.9378 408.552 40.9917C409.04 40.89 409.377 41.1995 409.35 41.6858C409.306 42.3932 408.756 43.074 407.405 43.8079C405.867 44.6523 404.259 44.9087 402.575 44.922C398.516 44.9574 394.731 43.3746 390.81 42.5258C390.814 42.6982 390.863 42.9016 390.721 43.0121C388.55 44.6037 386.587 46.2262 385.271 48.503C385.226 48.5561 385.253 48.6091 385.328 48.6003C386.471 48.5428 387.495 48.5119 388.563 48.4235C388.745 48.4102 388.754 48.366 388.74 48.2289C388.683 47.8085 388.728 47.3805 388.871 46.9811C389.014 46.5816 389.252 46.2226 389.565 45.9344C390.274 45.3022 391.16 45.227 391.749 45.6868C392.414 46.2041 392.356 47.1413 391.993 47.8399C391.829 48.1474 391.605 48.419 391.334 48.6385C391.063 48.8579 390.751 49.0209 390.415 49.1176C390.415 49.1176 390.291 49.1441 390.309 49.2546C390.331 49.4314 391.138 49.878 391.204 49.9973C391.271 50.1123 391.235 50.2847 391.115 50.4173C391.068 50.4749 391.009 50.5214 390.941 50.5535C390.874 50.5855 390.8 50.6025 390.725 50.603C390.588 50.603 390.504 50.5544 390.327 50.4571C389.904 50.2319 389.528 49.9289 389.219 49.5641C389.113 49.4359 389.059 49.4314 388.807 49.4491C387.655 49.5154 385.856 49.6879 384.641 49.8382C384.344 49.8736 384.3 49.931 384.243 50.0327C382.302 53.2247 380.228 56.6687 377.95 58.9765C375.513 61.4478 373.483 62.0977 371.33 62.1154Z" fill="white"/>
<path d="M394.855 36.4115C369.557 36.4115 349.054 43.3835 349.054 51.9205C349.054 60.4531 369.557 67.4295 394.855 67.4295C420.153 67.4295 440.657 60.4531 440.657 51.9205C440.657 43.3879 420.149 36.4115 394.855 36.4115V36.4115ZM394.855 68.8354C368.636 68.8354 347.383 61.2621 347.383 51.9205C347.383 42.5744 368.636 35.0056 394.855 35.0056C421.071 35.0056 442.323 42.5744 442.323 51.9205C442.323 61.2621 421.071 68.8354 394.855 68.8354" fill="white"/>
<path fill-rule="evenodd" clip-rule="evenodd" d="M269.857 7.04834H315.383V49.103H269.857V7.04834Z" fill="white"/>
<path fill-rule="evenodd" clip-rule="evenodd" d="M264.137 54.6523H319.891V0H264.137V54.6523ZM292.66 12.5191H297.194L299.883 26.9845L302.44 12.5456H307.054V33.7699H304.233V18.8837L301.201 33.8224H298.671L295.587 18.6997L295.613 33.9803H292.634L292.66 12.5191ZM277.107 22.4868V17.8581C277.107 16.8324 276.79 11.7564 282.564 11.7039C288.337 11.6514 288.31 15.9383 288.31 15.9383V19.1209H285.2C285.2 19.1209 285.701 14.8601 282.801 14.7547C280.402 14.6758 280.586 17.4372 280.586 17.4372V28.7992C280.586 28.7992 280.402 31.4817 282.801 31.4817C285.516 31.4817 285.2 28.6942 285.2 28.6942V24.6438H283.144V22.4611H288.31V34.533H285.912V33.2705L285.727 33.7699C285.305 34.4797 283.881 34.5326 282.563 34.5326C276.79 34.4797 277.106 29.404 277.106 28.3784L277.107 22.4868ZM277.212 42.37V37.3994H307.37V42.37H277.212Z" fill="#2360A5"/>
<path d="M491.87 109.717H502.674L506.66 124.855H506.929C507.12 123.595 507.312 122.256 507.657 121.035L510.912 109.717H521.605L526.355 138.542H516.202L514.782 122.754H514.592C514.401 123.709 514.209 124.702 513.902 125.62L509.726 138.542H503.596L499.841 126.346C499.534 125.123 499.265 123.976 499.188 122.753H498.843C498.767 123.901 498.691 125.085 498.576 126.23L497.348 138.541H487.195L491.87 109.717Z" fill="#ACACAC"/>
<path d="M541.894 128.106L540.669 123.021C540.362 121.796 540.17 120.536 539.977 119.312H539.596L537.679 128.106H541.894ZM534.958 138.542H523.847L533.885 109.717H545.496L555.804 138.542H544.691L543.735 134.947H535.801L534.958 138.542ZM584.346 121.568C584.267 126.27 584.267 130.207 580.858 133.876C577.792 137.204 573.081 139 568.597 139C559.786 139 552.659 133.572 552.659 124.32C552.659 114.917 559.593 109.258 568.675 109.258C573.694 109.258 580.592 111.744 582.851 116.675L573.042 120.269C572.238 118.816 570.744 118.052 569.057 118.052C565.304 118.052 563.233 121.263 563.233 124.741C563.233 127.912 565.226 130.895 568.635 130.895C570.284 130.895 572.391 130.13 572.888 128.373H568.138V121.568H584.346ZM585.13 109.717H595.209L604.634 125.697H604.939C604.519 123.288 604.058 120.803 604.058 118.357V109.717H614.096V138.542H604.058L594.825 123.404H594.519C594.862 125.39 595.17 127.264 595.17 129.177V138.542H585.13V109.717H585.13Z" fill="#ACACAC"/>
<path d="M631.093 128.106L629.865 123.021C629.559 121.796 629.368 120.536 629.175 119.313H628.792L626.877 128.106H631.093ZM624.157 138.542H613.045L623.083 109.717H634.693L645 138.542H633.889L632.931 134.947H625L624.157 138.542Z" fill="#ACACAC"/>
<path d="M471.181 138.57L482.067 138.571L471.583 109.795L463.614 109.794L462.149 113.798L471.181 138.57Z" fill="black"/>
<path d="M463.798 97.55C460.877 97.55 458.51 99.9113 458.51 102.827C458.51 105.74 460.877 108.103 463.798 108.103C466.719 108.103 469.085 105.74 469.085 102.827C469.085 99.9113 466.719 97.55 463.798 97.55" fill="#E22E2F"/>
<path d="M440.414 138.57L456.643 138.568L448.526 116.341L440.414 138.57ZM458.484 138.57L469.37 138.571L458.884 109.795L450.915 109.794L449.453 113.798L458.484 138.57Z" fill="black"/>
</g>
<g clip-path="url(#clip1)">
<path d="M160.626 231.24C160.626 231.24 162.352 240.414 161.144 241.106C160.168 241.721 159.245 242.416 158.383 243.183L161.489 247.511L168.911 249.069L175.987 242.491V235.913C175.987 235.913 173.916 232.625 174.261 230.548C174.606 228.471 160.626 231.24 160.626 231.24V231.24Z" fill="#DEAA87"/>
<path d="M148.717 246.992L147.682 247.511C147.682 247.511 145.438 248.376 144.402 255.819C143.367 263.263 140.951 281.091 141.641 281.61C142.331 282.13 141.986 285.592 141.986 285.592L147.164 258.416L148.717 246.992Z" fill="#2F2E41"/>
<path d="M164.251 413.854L167.875 421.816L160.799 424.24L157.174 422.336L158.038 413.854H164.251Z" fill="#FBBEBE"/>
<path d="M160.972 420.604C160.972 420.604 155.276 417.143 154.24 418.354C153.205 419.566 144.92 428.394 144.92 428.394C144.92 428.394 132.148 435.317 141.986 436.356C151.824 437.395 167.875 430.298 167.875 430.298C167.875 430.298 168.738 420.951 168.048 420.778C167.357 420.604 164.423 422.335 163.043 421.816C162.28 421.551 161.577 421.14 160.972 420.604Z" fill="black"/>
<path d="M166.322 420.085L173.571 422.336V429.432L164.251 427.355L166.322 420.085Z" fill="#FBBEBE"/>
<path d="M164.078 424.759C164.078 424.759 173.571 423.201 174.434 427.874C175.297 432.548 177.541 439.472 175.297 441.202C173.053 442.933 161.49 445.184 161.317 442.241C161.144 439.298 162.525 433.586 162.525 433.586C162.525 433.586 163.388 429.086 162.87 427.874C162.352 426.663 164.078 424.759 164.078 424.759V424.759Z" fill="black"/>
<path d="M145.118 307.876C145.118 307.876 137.326 357.425 143.712 381.658C150.098 405.892 154.586 420.258 154.586 420.258C154.586 420.258 166.613 423.288 166.613 421.211C166.613 419.134 161.317 382.178 160.281 379.235C159.246 376.292 157.52 375.254 159.073 372.831C160.626 370.407 163.215 354.829 163.215 354.829C163.215 354.829 168.911 380.62 169.256 381.312C169.601 382.005 164.795 424.844 164.795 424.844C164.795 424.844 176.261 429.935 176.949 423.72C177.122 422.162 185.48 366.945 185.48 366.253C185.48 365.561 188.586 312.594 183.581 309.998C178.576 307.401 145.118 307.876 145.118 307.876V307.876Z" fill="#162D50"/>
<path d="M164.768 246.299V245.088L161.317 239.375C161.317 239.375 157.865 239.722 157.347 241.28C156.829 242.837 150.961 255.3 150.961 255.3L144.748 311.209C144.748 311.209 161.834 315.364 164.423 312.421C167.012 309.478 176.85 245.434 176.85 245.434L178.231 237.645C178.231 237.645 175.86 234.183 175.319 234.702C174.779 235.221 165.804 245.261 165.804 245.261L165.631 246.819L164.768 246.299Z" fill="#162D50"/>
<path d="M161.23 238.25C161.23 238.25 158.037 237.472 157.002 239.376C155.966 241.28 155.966 241.972 154.931 242.664C153.895 243.357 147.854 246.472 147.509 247.684C147.164 248.896 139.743 287.149 139.743 287.149C139.743 287.149 136.118 298.574 137.844 306.363C139.57 314.152 138.362 315.71 141.986 316.402C145.611 317.095 146.128 317.095 146.128 316.056C146.128 315.018 150.788 279.88 154.068 277.456C157.347 275.033 156.484 248.55 156.484 248.55C156.484 248.55 161.144 242.838 161.144 241.972C161.144 241.107 161.921 238.186 161.23 238.25V238.25Z" fill="#0044AA"/>
<path d="M170.982 244.568C171.463 244.649 178.058 236.087 178.576 236.433C179.094 236.779 181.683 241.279 182.028 241.279C182.373 241.279 197.044 244.914 198.252 251.665C199.46 258.416 189.795 279.879 189.795 279.879C189.795 279.879 185.652 292.169 186.515 297.535C187.101 301.621 186.984 305.778 186.17 309.824C185.825 311.209 184.617 312.767 184.962 313.459C185.307 314.152 177.368 312.594 174.089 314.498C170.809 316.402 156.139 317.787 157.002 315.71C157.865 313.633 158.383 305.497 160.799 296.842C163.215 288.188 169.429 267.763 168.393 266.378C167.358 264.993 169.946 244.395 170.982 244.568Z" fill="#0044AA"/>
<path d="M196.18 249.588L198.424 251.665C198.424 251.665 201.013 256.166 200.668 258.243C200.323 260.32 207.917 291.65 204.81 292.688C201.703 293.727 194.282 298.92 193.419 300.305C192.556 301.689 190.485 304.113 189.104 304.805C187.723 305.497 186.342 306.709 185.479 306.017C184.616 305.324 182.718 291.131 184.099 290.611C185.48 290.092 186.86 288.534 188.241 288.534C189.622 288.534 190.485 287.149 190.485 285.938C190.485 284.726 189.449 277.456 189.449 277.456L187.205 260.32L196.18 249.588Z" fill="#162D50"/>
<path d="M168.753 204.998C173.238 204.998 176.797 210.727 176.848 217.828L176.859 219.471C176.872 219.471 176.885 219.471 176.898 219.471C177.035 219.471 177.17 219.537 177.296 219.664C177.423 219.791 177.537 219.978 177.634 220.214C177.73 220.449 177.807 220.729 177.859 221.036C177.911 221.344 177.938 221.674 177.938 222.007C177.938 222.34 177.911 222.669 177.859 222.977C177.807 223.285 177.73 223.564 177.634 223.8C177.537 224.035 177.423 224.222 177.296 224.349C177.17 224.477 177.035 224.542 176.898 224.542C176.938 231.63 172.913 237.43 168.434 237.43H165.211C160.885 237.43 156.847 230.714 156.562 223.866C156.513 223.883 156.465 223.891 156.416 223.891C156.279 223.891 156.144 223.826 156.018 223.698C155.891 223.571 155.777 223.384 155.68 223.149C155.584 222.913 155.507 222.634 155.455 222.326C155.402 222.019 155.375 221.689 155.375 221.356C155.375 221.023 155.402 220.693 155.455 220.386C155.507 220.078 155.584 219.798 155.68 219.563C155.777 219.328 155.891 219.141 156.018 219.013C156.144 218.886 156.279 218.821 156.416 218.821C156.458 218.82 156.501 218.827 156.543 218.839L156.542 217.83C156.535 210.729 160.153 204.999 164.638 204.999H168.756L168.753 204.998Z" fill="#DEAA87"/>
<path opacity="0.6" d="M156.292 221.528C156.168 221.517 156.101 221.096 156.142 220.589C156.184 220.082 156.318 219.681 156.443 219.693C156.567 219.705 156.634 220.125 156.593 220.632C156.551 221.139 156.417 221.54 156.292 221.528Z" fill="black"/>
<path opacity="0.6" d="M177.139 222.373C177.264 222.361 177.331 221.941 177.289 221.434C177.248 220.927 177.113 220.526 176.989 220.538C176.865 220.549 176.798 220.97 176.839 221.477C176.881 221.984 177.015 222.385 177.139 222.373Z" fill="black"/>
<path d="M166.595 203.867C172.241 203.867 176.505 209.135 176.839 215.656L176.983 218.46C176.91 220.302 176.991 220.281 176.991 221.848C176.991 223.416 176.991 223.45 176.961 224.839L176.691 227.114C176.531 228.458 175.916 230.795 175.106 232.331C174.421 233.63 173.481 234.798 172.193 235.958C170.411 237.385 169.896 237.68 168.342 237.646L165.143 237.575C164.048 237.511 161.935 236.514 160.708 234.992C159.417 233.394 159.846 233.947 159.128 232.832C158.095 231.23 156.403 228.086 156.403 225.313V225.128C156.438 223.269 156.425 223.271 156.425 221.758C156.426 220.244 156.425 220.244 156.403 218.921V215.656C156.403 209.125 160.949 203.866 166.595 203.866L166.595 203.867ZM168.245 211L164.959 211.187L160.808 211.109L159.406 212.327L159.195 214.273L158.714 216.233L157.363 217.659L157.036 219.69L157.081 225.993L157.434 228.145L158.528 230.44L160.346 233.41L162.105 235.377L163.924 236.486L165.197 236.586C165.615 236.42 166.521 234.258 166.547 233.307L166.966 233.295C167.127 233.853 167.138 236.023 167.83 236.582L169.723 236.518L171.138 235.423L173.562 233.394L174.46 231.949L175.326 229.973L175.925 228.043L176.317 225.761L176.257 219.464L175.43 216.889L174.522 215.579C174.411 214.84 174.447 214.345 174.43 213.794C174.419 213.449 174.407 212.684 174.283 212.336C174.178 212.043 173.904 212.018 173.904 212.018C173.591 211.883 173.673 211.722 173.343 211.6C173.156 211.532 172.97 211.471 172.783 211.418C171.437 211.035 170.053 211.023 168.244 210.999L168.245 211Z" fill="#333333"/>
<path d="M169.981 223.028C169.566 223.028 169.229 222.649 169.229 222.182C169.229 221.715 169.566 221.337 169.981 221.337C170.397 221.337 170.734 221.715 170.734 222.182C170.734 222.649 170.397 223.028 169.981 223.028Z" fill="black"/>
<path d="M163.935 222.93C163.52 222.93 163.183 222.552 163.183 222.085C163.183 221.618 163.52 221.24 163.935 221.24C164.351 221.24 164.688 221.618 164.688 222.085C164.688 222.552 164.351 222.93 163.935 222.93Z" fill="black"/>
<path d="M165.841 228.002H168.245C168.303 228.002 168.35 228.049 168.35 228.107V228.272C168.35 228.33 168.303 228.377 168.245 228.377H165.841C165.783 228.377 165.736 228.33 165.736 228.272V228.107C165.736 228.049 165.783 228.002 165.841 228.002Z" fill="black"/>
<path d="M167.958 219.132H171.518C171.641 219.132 171.741 219.232 171.741 219.356V219.704C171.741 219.827 171.641 219.927 171.518 219.927H167.958C167.835 219.927 167.736 219.827 167.736 219.704V219.356C167.736 219.232 167.835 219.132 167.958 219.132Z" fill="black"/>
<path d="M162.207 219.036H165.754C165.881 219.036 165.983 219.138 165.983 219.265V219.623C165.983 219.75 165.881 219.853 165.754 219.853H162.207C162.081 219.853 161.978 219.75 161.978 219.623V219.265C161.978 219.138 162.081 219.036 162.207 219.036Z" fill="black"/>
<path d="M170.616 230.117C170.615 230.911 170.237 231.673 169.564 232.234C168.892 232.796 167.98 233.111 167.03 233.111C166.08 233.111 165.168 232.796 164.496 232.234C163.824 231.673 163.445 230.911 163.444 230.117H170.616Z" fill="#F2F2F2"/>
<path d="M170.368 230.197C170.367 230.899 170.01 231.573 169.377 232.07C168.743 232.567 167.884 232.846 166.989 232.846C166.093 232.846 165.234 232.567 164.601 232.07C163.967 231.573 163.61 230.899 163.609 230.197H170.368Z" fill="white"/>
<path d="M170.311 229.732C170.28 229.714 170.303 229.638 170.311 229.627C170.467 229.425 170.781 229.518 171.011 229.715C171.271 229.938 171.219 230.269 171.083 230.545C171.074 230.566 170.904 230.823 170.848 230.709C170.823 230.656 170.958 230.266 170.96 230.234C170.982 229.976 170.999 230.086 170.894 229.852C170.705 229.717 170.6 229.699 170.396 229.731L170.311 229.732Z" fill="#808080"/>
<path d="M163.67 229.803C163.701 229.786 163.695 229.713 163.686 229.702C163.53 229.5 163.232 229.562 163.002 229.759C162.743 229.982 162.739 230.264 162.875 230.54C162.884 230.56 163.026 230.647 163.043 230.634C163.087 230.6 163.007 230.385 163.002 230.354C162.952 230.092 162.953 230.095 163.148 229.927C163.324 229.776 163.382 229.78 163.586 229.812L163.67 229.803Z" fill="#808080"/>
<path d="M169.234 202.749L169.234 202.749C173.56 202.749 177.092 207.642 177.868 214.122H156.111C156.856 207.642 160.434 202.749 164.76 202.749H169.234Z" fill="#0044AA"/>
<path d="M165.99 201.141H167.831C168.3 201.141 168.68 201.522 168.68 201.992V203.137C168.68 203.607 168.3 203.988 167.831 203.988H165.99C165.522 203.988 165.142 203.607 165.142 203.137V201.992C165.142 201.522 165.522 201.141 165.99 201.141Z" fill="#0044AA"/>
<path d="M160.182 202.621H161.504C161.892 202.621 162.206 202.936 162.206 203.325V206.912C162.206 207.301 161.892 207.616 161.504 207.616H160.182C159.794 207.616 159.48 207.301 159.48 206.912V203.325C159.48 202.936 159.794 202.621 160.182 202.621Z" fill="#0044AA"/>
<path d="M172.247 202.563H173.896C174.193 202.563 174.435 202.805 174.435 203.103V207.017C174.435 207.316 174.193 207.558 173.896 207.558H172.247C171.95 207.558 171.708 207.316 171.708 207.017V203.103C171.708 202.805 171.95 202.563 172.247 202.563Z" fill="#0044AA"/>
<path opacity="0.61" d="M178.022 214.051L172.899 211.51H161.543L156.235 214.083L178.022 214.051Z" fill="#002255"/>
<path opacity="0.65" d="M156.995 218.5L158.966 219.663H158.974C159.458 219.429 160.213 219.386 161.067 219.387C161.557 219.387 162.079 219.402 162.599 219.402C163.973 219.402 165.116 219.705 165.735 220.296C165.735 220.296 166.252 220.604 166.534 220.672C166.674 220.706 166.821 220.707 166.962 220.686C167.251 220.64 167.796 220.393 167.796 220.393C168.728 219.755 169.889 219.454 170.979 219.444C171.499 219.444 172.021 219.429 172.511 219.429C173.348 219.428 174.091 219.469 174.576 219.69L176.25 219.443L176.262 219.747L175.16 220.589C175.141 221.927 173.786 223.533 171.778 224.073C170.986 224.286 169.9 224.155 169.276 224.014C168.635 223.869 168.157 223.384 167.809 222.935C167.68 222.769 167.55 222.438 167.46 222.12C167.379 221.833 167.231 221.666 167.035 221.559C166.888 221.479 166.695 221.464 166.548 221.539C166.361 221.635 166.262 221.791 166.162 222.078C166.082 222.305 165.863 222.773 165.769 222.894C165.421 223.343 164.942 223.828 164.302 223.973C163.677 224.114 162.592 224.245 161.799 224.031C160.143 223.586 158.93 222.414 158.546 221.267L157.002 219.127L156.995 218.5Z" fill="white"/>
<path opacity="0.999" d="M180.537 239.441L182.084 241.277L184.478 241.78L180.499 263.178L176.165 313.737L172.986 315.036L171.095 315.526L175.857 263.963L180.537 239.441Z" fill="#B3B3B3"/>
<path opacity="0.999" d="M151.8 244.455L153.036 243.781L155.62 241.889L149.989 264.744L143.061 316.571L141.933 316.437L140.607 316.011L147.066 264.716L151.8 244.455Z" fill="#B3B3B3"/>
<path opacity="0.5" d="M372.967 455C372.967 455 374.932 451.035 378.096 450.923L398.65 449.593C398.65 449.593 398.317 452.665 394.657 453.835L372.967 455Z" fill="#F2F2F2"/>
<path d="M33.1092 284.871H37.7432C39.0018 284.871 40.0151 285.887 40.0151 287.149V291.285C40.0151 292.548 39.0018 293.564 37.7432 293.564H33.1092C31.8506 293.564 30.8373 292.548 30.8373 291.285V287.149C30.8373 285.887 31.8506 284.871 33.1092 284.871Z" fill="#666666"/>
<path d="M36.8127 280.569H49.585V296.386H36.8127V280.569Z" fill="#373E48"/>
<path d="M227.225 170.309L227.732 170.845C228.599 171.763 228.58 173.222 227.688 174.115L224.473 177.337C223.582 178.23 222.167 178.21 221.299 177.292L220.793 176.756C219.926 175.837 219.944 174.379 220.836 173.486L224.051 170.264C224.942 169.371 226.358 169.391 227.225 170.309Z" fill="#808080"/>
<path d="M219.359 159.462L227.213 167.776C228.47 169.108 228.443 171.223 227.15 172.518L222.49 177.189C221.197 178.485 219.144 178.455 217.886 177.124L210.032 168.809C208.774 167.477 208.803 165.363 210.095 164.068L214.756 159.397C216.048 158.101 218.101 158.13 219.359 159.462Z" fill="#333333"/>
<path opacity="0.95" d="M105.3 301.352V307.945L115.667 348.643L105.348 348.398V349.87L41.9862 350.134V348.685L33.4785 348.669L41.9862 314.042V301.352L105.3 301.352Z" fill="#0B2228"/>
<path opacity="0.4" d="M75.0887 305.995V348.456H83.1144L78.2153 305.936L75.0887 305.995Z" fill="black"/>
<path opacity="0.4" d="M44.8161 304.6H46.6865V349.25H33.0169L44.8161 304.6Z" fill="black" stroke="black" stroke-width="0.163998"/>
<path opacity="0.4" d="M102.778 305.278H100.908V350.255H114.577L102.778 305.278Z" fill="black" stroke="black" stroke-width="0.164592"/>
<path d="M107.27 304.525V306.903H105.658L115.501 347.018H117.224V350.291H30.3368V347.018H32.1124L41.9572 306.903H40.404V304.525H107.27ZM103.503 306.903H73.6761V347.018H113.348L103.503 306.903ZM70.4033 306.903H44.1105L34.2657 347.018H65.5151L70.4033 306.903Z" fill="#4D4D4D"/>
<path d="M118.71 242.678H30.063L50.101 301.823L96.8607 301.652L118.71 242.678Z" fill="#FF7F2A"/>
<path d="M58.9934 206.291H14.1849C10.0207 206.291 6.66916 213.942 6.66916 223.446V234.809C6.66916 244.313 10.0207 251.964 14.1849 251.964H58.9934C63.1577 251.964 66.5092 244.313 66.5092 234.809V223.446C66.5092 213.942 63.1577 206.291 58.9934 206.291Z" fill="#373E48"/>
<path d="M25.8651 119.742L47.9149 110.356C47.9149 110.356 100.906 150.635 121.857 171.586C135.87 185.602 122.556 229.715 122.556 229.715L105.452 271.938L25.8651 119.742Z" fill="#FF7F2A"/>
<path d="M77.0932 237.803C77.0932 241.55 77.7809 245.26 79.1175 248.721C80.4542 252.183 82.4128 255.328 84.8826 257.977C87.3525 260.626 90.2846 262.728 93.5116 264.162C96.7386 265.595 100.198 266.333 103.691 266.333C110.745 266.333 117.511 263.327 122.499 257.977C127.487 252.626 130.288 245.37 130.288 237.803C130.288 230.236 127.487 222.98 122.499 217.629C117.511 212.279 110.745 209.273 103.691 209.273C100.198 209.273 96.7386 210.011 93.5116 211.445C90.2846 212.878 87.3525 214.98 84.8826 217.629C82.4128 220.278 80.4542 223.424 79.1175 226.885C77.7809 230.346 77.0932 234.056 77.0932 237.803" fill="#373E48"/>
<path d="M206.965 143.358L214.036 150.831L201.634 163.281L194.563 155.808L206.965 143.358Z" fill="#FF7F2A"/>
<path d="M216.873 147.691L220.653 151.687L202.201 170.212L198.42 166.216L216.873 147.691Z" fill="#FF7F2A"/>
<path d="M218.845 153.073L222.625 157.069L207.411 172.343L203.63 168.347L218.845 153.073Z" fill="#1C2224"/>
<path d="M37.671 77.3049C32.4088 75.9619 27.1232 79.2448 25.8189 84.665L21.6211 102.116C20.3175 107.536 23.5046 112.981 28.7668 114.324L54.9538 121.007C58.9901 122.037 63.0383 120.344 65.2946 117.054L73.6639 119.19L79.3762 95.447L71.2852 93.3826C71.1323 89.0033 68.2031 85.0968 63.858 83.988L37.671 77.3049Z" fill="#FF7F2A"/>
<path d="M194.564 119.535C191.453 118.7 188.18 118.741 185.085 119.654C181.989 120.568 179.184 122.321 176.959 124.731L76.487 97.7412L72.1212 114.988L172.432 141.935C173.183 145.233 174.79 148.254 177.078 150.674C179.365 153.095 182.247 154.823 185.416 155.674C187.707 156.29 190.093 156.432 192.44 156.093C194.787 155.754 197.048 154.939 199.093 153.697C201.138 152.454 202.929 150.807 204.361 148.851C205.793 146.894 206.838 144.665 207.439 142.292C208.04 139.919 208.184 137.448 207.862 135.02C207.54 132.592 206.76 130.255 205.564 128.142C204.369 126.029 202.781 124.181 200.894 122.704C199.006 121.227 196.856 120.151 194.564 119.535V119.535Z" fill="#FF7F2A"/>
<path d="M178.106 130.283C176.243 133.627 175.734 137.589 176.693 141.299C177.651 145.009 179.998 148.162 183.217 150.065C184.811 151.007 186.57 151.615 188.395 151.852C190.221 152.089 192.077 151.95 193.856 151.446C195.635 150.942 197.303 150.081 198.766 148.912C200.228 147.743 201.455 146.289 202.378 144.633C203.3 142.977 203.9 141.153 204.142 139.262C204.385 137.372 204.266 135.453 203.791 133.616C203.316 131.779 202.496 130.06 201.376 128.556C200.257 127.052 198.861 125.793 197.267 124.85C194.048 122.948 190.221 122.451 186.627 123.47C183.034 124.489 179.969 126.94 178.106 130.283" fill="#373E48"/>
<path d="M17.2266 116.481C17.2266 122.114 19.4428 127.516 23.3881 131.499C27.3335 135.482 32.6846 137.719 38.2642 137.719C41.027 137.719 43.7623 137.17 46.3148 136.103C48.8673 135.035 51.1866 133.471 53.1403 131.499C55.0939 129.527 56.6431 127.185 57.7004 124.609C58.7577 122.032 59.3018 119.27 59.3018 116.481C59.3018 113.692 58.7577 110.93 57.7004 108.353C56.6431 105.776 55.0939 103.435 53.1403 101.463C51.1866 99.4908 48.8673 97.9264 46.3148 96.859C43.7623 95.7917 41.027 95.2424 38.2642 95.2424C32.6846 95.2425 27.3335 97.4802 23.3881 101.463C19.4428 105.446 17.2266 110.848 17.2266 116.481Z" fill="#373E48"/>
<path opacity="0.1" d="M25.7717 83.9391L51.2373 86.454L64.6659 90.7869L71.0063 91.1794C71.0063 91.1794 70.1665 88.688 69.3909 87.6559C68.4254 86.3717 65.7418 84.5127 65.7418 84.5127L36.7671 77C36.7671 77 33.3685 76.9995 31.8229 77.6077C30.2729 78.2175 27.7727 80.5418 27.7727 80.5418L25.7717 83.9391Z" fill="#1A1A1A"/>
<path opacity="0.5" d="M280.99 331.978C280.99 331.978 283.086 327.752 286.459 327.633L308.368 326.245C308.368 326.245 308.012 329.52 304.112 330.768L280.99 331.978Z" fill="#ECECEC"/>
<path opacity="0.25" d="M31.031 286.131L32.5222 284.964L36.7708 284.867L36.838 280.606L42.8557 280.536L32.9937 252.028L18.2974 249.475L66.8133 230.46L65.8472 242.604L77.758 242.828C77.758 242.828 73.1969 247.761 68.8562 250.571C67.278 251.593 63.9046 253.906 57.3346 254.084C50.1583 254.278 37.2328 252.496 37.8444 256.414C39.6495 267.969 44.0751 283.667 44.0751 283.667L39.2571 287.72L36.6788 287.767L30.9405 288.8L31.031 286.131Z" fill="#1A1A1A"/>
<path d="M31.1668 288.883C31.1668 288.883 13.1395 289.847 7.18431 279.854C2.64963 272.245 0.159818 261.638 3.65645 253.496C8.37448 242.51 32.696 232.53 32.696 232.53L72.5823 218.272C82.5945 214.268 93.4416 209.023 89.2259 198.219C74.9252 174.128 53.9035 160.399 57.063 147.379C58.757 141.971 70.1652 141.406 74.2226 135.02C81.9998 122.777 79.6373 110.958 88.7738 111.071C131.68 118.742 157.684 125.293 166.311 136.187C173.884 145.75 169.764 164.176 183.268 174.779C189.567 179.725 198.381 180.827 205.023 178.999C209.991 177.631 214.64 173.376 214.64 173.376" stroke="#373E48" stroke-width="3.67872"/>
<path opacity="0.25" d="M57.9438 124.331C57.9438 124.331 103.035 158.003 115.464 182.178C120.117 191.229 118.687 208.183 118.935 214.071C118.983 215.191 121.573 218.019 121.573 218.019L120.368 225.428L123.999 240.387L120.326 252.61L104.295 261.55L106.619 266.044C106.619 266.044 104.969 266.883 105.325 269.984C105.705 273.295 102.521 276.129 100.293 279.68C93.4294 290.626 90.2283 301.737 90.2283 301.737L96.9553 301.797L110.242 265.411L115.586 263.3C115.586 263.3 120.545 260.222 122.506 258.105C124.694 255.741 126.424 252.91 127.701 249.949C129.021 246.889 129.847 243.669 130.152 240.252C130.401 237.483 130.294 234.465 129.693 231.751C129.08 228.992 126.876 223.755 126.876 223.755L124.877 220.708C124.877 220.708 126.571 211.889 127.174 207.442C127.611 204.214 128.003 200.97 128.127 197.715C128.266 194.095 128.25 190.455 127.894 186.85C127.701 184.866 126.855 180.961 126.855 180.961C126.855 180.961 125.498 176.04 123.803 174.021C117.55 166.568 103.206 154.379 103.206 154.379L61.0469 120.432L58.8854 121.08L57.9438 124.331Z" fill="#333333"/>
<path opacity="0.5" d="M58.7001 121.181L61.5882 120.298C61.5882 120.298 62.9945 119.448 63.6327 118.933C64.9221 117.895 65.3749 117.039 65.3749 117.039L73.507 119.139L74.3933 115.821L58.9554 113.284L53.9556 123.234L37.565 132.331L29.8522 135.813L35.1878 137.501L36.6554 140.366C36.6554 140.366 45.3418 139.607 48.9835 137.467C51.401 136.046 54.7088 133.777 56.3747 130.94C57.5174 128.994 57.8205 124.322 57.8205 124.322L58.7001 121.181Z" fill="#333333"/>
<path opacity="0.25" d="M194.571 155.86L198.737 154.163L207.585 156.913L202.428 163.638L202.562 170.053L198.676 166.29L201.542 163.158L194.571 155.86Z" fill="#1A1A1A"/>
<path opacity="0.997" d="M209.61 172.7L210.627 171.732C211.401 170.996 212.615 171.028 213.349 171.804L215.905 174.506C216.639 175.281 216.608 176.499 215.834 177.235L214.817 178.203C214.043 178.939 212.83 178.907 212.095 178.131L209.539 175.43C208.805 174.654 208.836 173.437 209.61 172.7H209.61Z" fill="#666666"/>
<path opacity="0.997" d="M92.0693 114.46L93.5421 108.422C93.9047 106.935 95.3902 106.031 96.8727 106.394L152.478 120.035C153.96 120.398 154.862 121.888 154.499 123.375L153.027 129.414C152.664 130.9 151.179 131.805 149.696 131.441L94.0908 117.801C92.6083 117.437 91.7067 115.947 92.0693 114.46Z" fill="#666666"/>
<path opacity="0.997" d="M54.1976 155.792L57.4118 153.508C58.6571 152.623 60.3701 152.916 61.2524 154.165L65.4012 160.038C66.2836 161.287 65.9914 163.005 64.746 163.89L61.5319 166.173C60.2865 167.058 58.5736 166.765 57.6912 165.516L53.5424 159.644C52.66 158.395 52.9523 156.677 54.1976 155.792Z" fill="#666666"/>
<path opacity="0.997" d="M77.087 185.892L80.3011 183.608C81.5465 182.723 83.2594 183.017 84.1418 184.265L88.2906 190.138C89.1729 191.387 88.8807 193.105 87.6353 193.99L84.4212 196.273C83.1759 197.158 81.4629 196.866 80.5806 195.616L76.4318 189.744C75.5494 188.495 75.8416 186.777 77.087 185.892V185.892Z" fill="#666666"/>
<path opacity="0.3" d="M92.243 114.452L93.7158 108.414C94.0784 106.927 95.5639 106.023 97.0464 106.387L152.652 120.027C154.134 120.391 155.036 121.88 154.673 123.367L153.2 129.406C152.838 130.893 151.352 131.797 149.87 131.433L94.2646 117.793C92.782 117.429 91.8804 115.939 92.243 114.452Z" fill="#4D4D4D"/>
<path d="M381.361 232.061H461.455L443.35 285.499L401.103 285.345L381.361 232.061Z" fill="#FFCC00"/>
<path d="M461.583 265.364H456.844C455.557 265.364 454.521 266.403 454.521 267.694V271.924C454.521 273.215 455.557 274.254 456.844 274.254H461.583C462.871 274.254 463.907 273.215 463.907 271.924V267.694C463.907 266.403 462.871 265.364 461.583 265.364Z" fill="#666666"/>
<path d="M457.796 260.964H444.734V277.14H457.796V260.964Z" fill="#373E48"/>
<path d="M255.735 258.959L255.635 259.735C255.491 260.853 256.271 261.876 257.385 262.028L261.402 262.579C262.516 262.731 263.529 261.954 263.673 260.836L263.773 260.061C263.918 258.943 263.137 257.92 262.023 257.767L258.006 257.217C256.893 257.064 255.879 257.841 255.735 258.959H255.735Z" fill="#808080"/>
<path d="M255.764 246.702L254.403 257.245C254.193 258.867 255.325 260.35 256.94 260.571L262.764 261.369C264.379 261.59 265.848 260.464 266.057 258.842L267.419 248.299C267.628 246.678 266.496 245.194 264.881 244.973L259.057 244.175C257.442 243.954 255.973 245.081 255.764 246.702Z" fill="#333333"/>
<path opacity="0.95" d="M393.478 285.074V291.03L384.111 327.801L393.434 327.579V328.909L450.682 329.148V327.839L458.368 327.827L450.682 296.541V285.076L393.478 285.074Z" fill="#0B2228"/>
<path opacity="0.4" d="M420.773 289.269V327.632H413.521L417.948 289.215L420.773 289.269Z" fill="black"/>
<path opacity="0.4" d="M448.127 288.008H446.436V328.35H458.787L448.127 288.008Z" fill="black" stroke="black" stroke-width="0.148174"/>
<path opacity="0.4" d="M395.756 288.62H397.446V329.257H385.095L395.756 288.62Z" fill="black" stroke="black" stroke-width="0.14871"/>
<path d="M391.699 287.94V290.088H393.156L384.262 326.333H382.706V329.29H461.209V326.333H459.604L450.71 290.088H452.113V287.94H391.699ZM395.102 290.088H422.051V326.333H386.208L395.102 290.088ZM425.009 290.088H448.764L457.659 326.333H429.425L425.009 290.088Z" fill="#4D4D4D"/>
<path d="M435.317 199.185H475.8C479.563 199.185 482.591 206.098 482.591 214.685V224.952C482.591 233.538 479.563 240.451 475.8 240.451H435.317C431.555 240.451 428.525 233.538 428.525 224.952V214.685C428.525 206.098 431.555 199.185 435.317 199.185Z" fill="#373E48"/>
<path d="M382.342 112.986L362.915 122.605C362.915 122.605 357.263 183.618 358.311 210.772C359.014 228.936 395.856 246.314 395.856 246.314L433.748 259.926L382.342 112.986Z" fill="#FFCC00"/>
<path d="M426.755 226.186C426.755 233.022 424.223 239.579 419.716 244.413C415.21 249.247 409.097 251.963 402.724 251.963C396.35 251.963 390.238 249.247 385.731 244.413C381.225 239.579 378.693 233.022 378.693 226.186C378.693 219.349 381.225 212.793 385.731 207.959C390.238 203.124 396.35 200.409 402.724 200.409C409.097 200.409 415.21 203.124 419.716 207.959C424.223 212.793 426.755 219.349 426.755 226.186" fill="#373E48"/>
<path d="M256.307 228.222L255.092 237.566L270.6 239.705L271.815 230.36L256.307 228.222Z" fill="#FFCC00"/>
<path d="M251.392 236.866L250.743 241.863L273.818 245.045L274.468 240.048L251.392 236.866Z" fill="#1C2224"/>
<path d="M252.779 241.863L252.13 246.859L271.155 249.483L271.805 244.486L252.779 241.863Z" fill="#1C2224"/>
<path d="M253.771 202.362C256.027 200.476 258.734 199.249 261.611 198.808C264.489 198.367 267.432 198.728 270.137 199.854L342.972 138.948L352.825 151.451L280.107 212.259C280.686 215.261 280.463 218.364 279.461 221.236C278.458 224.108 276.715 226.64 274.419 228.561C272.758 229.95 270.846 230.986 268.792 231.611C266.739 232.236 264.584 232.438 262.451 232.204C260.317 231.969 258.247 231.305 256.359 230.247C254.471 229.189 252.801 227.759 251.445 226.039C250.09 224.319 249.074 222.342 248.457 220.221C247.841 218.1 247.634 215.877 247.85 213.678C248.066 211.48 248.7 209.349 249.716 207.407C250.732 205.465 252.11 203.751 253.771 202.362V202.362Z" fill="#FFCC00"/>
<path d="M271.211 204.86C273.957 206.892 275.814 209.956 276.373 213.376C276.931 216.797 276.146 220.294 274.19 223.1C272.234 225.905 269.266 227.788 265.941 228.334C262.615 228.881 259.204 228.046 256.458 226.014C255.098 225.008 253.942 223.738 253.056 222.277C252.171 220.815 251.573 219.192 251.296 217.498C251.019 215.804 251.07 214.074 251.444 212.405C251.819 210.737 252.51 209.163 253.479 207.774C255.435 204.969 258.403 203.086 261.728 202.54C265.053 201.993 268.464 202.828 271.211 204.86" fill="#373E48"/>
<path d="M367.477 107.186C371.317 104.054 376.856 104.718 379.896 108.673L389.685 121.409C392.725 125.365 392.082 131.07 388.242 134.202L369.13 149.788C366.184 152.19 362.241 152.357 359.191 150.52L353.082 155.501L339.764 138.174L345.667 133.359C344.202 129.699 345.192 125.357 348.365 122.771L367.477 107.186Z" fill="#FFCC00"/>
<path d="M394.469 133.812C394.469 136.332 393.977 138.827 393.022 141.156C392.067 143.484 390.667 145.599 388.902 147.381C387.136 149.163 385.041 150.576 382.735 151.541C380.429 152.505 377.957 153.001 375.461 153.001C370.419 153.001 365.585 150.979 362.02 147.381C358.455 143.782 356.453 138.901 356.453 133.812C356.453 128.723 358.455 123.842 362.02 120.243C365.585 116.645 370.419 114.623 375.461 114.623C377.957 114.623 380.429 115.119 382.735 116.084C385.041 117.048 387.136 118.461 388.902 120.243C390.667 122.025 392.067 124.141 393.022 126.469C393.977 128.797 394.469 131.292 394.469 133.812" fill="#373E48"/>
<path opacity="0.2" d="M401.638 285.025L412.407 285.077L400.006 251.414L409.043 239.297L378.577 222.263C378.577 222.263 367.82 213.942 365.626 207.864C359.321 190.403 365.228 149.721 365.228 149.721L360.988 146.176L358.442 189.388L358.377 215.138L363.899 223.047L369.521 228.911L381.175 238.046L385.872 244.971L401.638 285.025Z" fill="#1A1A1A"/>
<path opacity="0.25" d="M434.496 240.404L453.092 245.721L449.715 262.494L455.038 268.763L457.802 273.637L463.749 273.17L463.684 267.93L462.283 265.6L457.312 265.213V261.208L451.896 260.828L458.49 240.633L451.542 236.757L434.779 199.042L430.694 202.797L428.306 217.176L428.735 230.448L431.267 238.222L434.496 240.404Z" fill="#1A1A1A"/>
<path opacity="0.2" d="M259.306 237.701L264.804 231.712L271.91 230.35L270.459 239.424L274.507 240.295L273.543 245.042L259.306 237.701Z" fill="#1A1A1A"/>
<path opacity="0.2" d="M284.353 202.062L283.661 209.187L282.243 210.585L281.409 207.607L281.78 203.974L284.353 202.062Z" fill="#1A1A1A"/>
<path opacity="0.1" d="M384.751 113.727L376.554 106.265L373.015 105.169L369.744 105.851L364.874 109.267L350.371 121.113L346.667 124.358L344.937 129.828L352.803 126.629L361.251 115.86L374.769 110.822L384.751 113.727Z" fill="#1A1A1A"/>
<path d="M257.306 262.341L247.442 275.229L266.654 277.77L260.448 262.738L257.306 262.341Z" fill="#D40000"/>
<path d="M267.463 254.698C267.463 254.698 272.362 259.036 283.351 255.85C292.718 252.401 296.208 248.857 291 234.133C284.974 219.795 275.054 207.901 281.816 201.523C296.031 188.116 319.52 159.438 337.871 155.666C344.145 154.376 345.856 159.351 362.713 162.692C377.356 165.594 382.079 152.073 388.905 155.769C395.213 166.598 397.797 183.849 404.879 194.02C409.86 202.161 442.392 188.563 451.546 194.974C469.979 207.883 468.414 221.946 477.516 237.187C481.527 243.903 485.294 249.89 485.896 257.695C486.54 266.04 474.699 269.828 474.699 269.828L463.784 269.946" stroke="#373E48" stroke-width="3.76223"/>
<path d="M287.497 200.831L283.394 195.985C282.383 194.792 282.528 193.015 283.717 192.002L328.34 153.995C329.53 152.982 331.301 153.126 332.312 154.32L336.415 159.165C337.425 160.359 337.281 162.135 336.091 163.148L291.469 201.155C290.279 202.169 288.508 202.024 287.497 200.831L287.497 200.831Z" fill="#666666"/>
<path opacity="0.997" d="M398.337 183.139L401.487 182.223C402.708 181.868 403.976 182.568 404.33 183.792L405.994 189.549C406.348 190.773 405.65 192.044 404.429 192.399L401.279 193.315C400.058 193.67 398.79 192.97 398.436 191.746L396.772 185.989C396.418 184.765 397.116 183.494 398.337 183.139V183.139Z" fill="#666666"/>
<path opacity="0.997" d="M390.842 162.218L393.993 161.301C395.214 160.947 396.481 161.647 396.835 162.871L398.5 168.627C398.853 169.852 398.156 171.123 396.935 171.478L393.784 172.394C392.563 172.749 391.296 172.049 390.942 170.825L389.277 165.068C388.923 163.844 389.621 162.573 390.842 162.218V162.218Z" fill="#666666"/>
<path opacity="0.997" d="M267.99 252.376L269.16 252.481C270.05 252.56 270.703 253.342 270.624 254.235L270.349 257.343C270.27 258.236 269.49 258.89 268.6 258.811L267.43 258.707C266.54 258.628 265.887 257.845 265.966 256.953L266.241 253.844C266.32 252.952 267.1 252.297 267.99 252.376L267.99 252.376Z" fill="#666666"/>
<path opacity="0.1" d="M282.264 426.25L282.076 426.282C282.076 426.282 287.965 423.61 282.264 426.25Z" fill="black"/>
<path opacity="0.1" d="M336.541 447.167L336.658 448.042C336.549 447.766 336.509 447.467 336.541 447.167V447.167Z" fill="black"/>
<path d="M128.739 327.631C128.739 327.631 196.592 285.316 240.58 285C240.58 285 259.097 286.618 286.196 287.483C303.678 288.041 324.469 285.717 347.039 291.033C404.595 304.588 425.81 322.547 441.799 317.114L374.697 319.565L128.739 327.631Z" fill="#121C3F"/>
<path d="M434.236 338.07L434.056 394.362L46.0063 397.371L56.8229 351.109L122.872 331.643L434.236 338.07Z" fill="#121C3F"/>
<path d="M454.575 365.348L454.524 380.086C454.524 380.086 442.974 389.204 441.904 396.283C441.904 396.283 425.393 400.936 420.682 400.973C420.254 400.977 419.787 400.982 419.299 401.037C420.041 398.898 420.624 396.699 421.04 394.463C422.215 388.187 422.091 381.723 420.674 375.536C419.258 369.348 416.586 363.592 412.85 358.681C409.114 353.77 404.408 349.827 399.07 347.136C393.732 344.446 387.896 343.074 381.981 343.119C376.067 343.165 370.221 344.628 364.866 347.402C359.51 350.175 354.779 354.192 351.011 359.16C347.244 364.129 344.535 369.928 343.079 376.137C341.623 382.347 341.457 388.814 342.592 395.071C343.138 398.088 343.981 401.029 345.109 403.845L322.74 404.019C322.74 404.019 322.531 404.097 322.197 404.257C320.996 404.853 318.163 406.423 317.748 408.859L132.368 410.296L128.57 410.292C129.382 408.821 130.112 407.3 130.755 405.737C131.955 402.841 132.85 399.812 133.421 396.706C134.543 390.774 134.505 384.668 133.309 378.78C132.113 372.892 129.786 367.354 126.477 362.522C123.168 357.689 118.951 353.67 114.097 350.724C109.244 347.778 103.863 345.97 98.2997 345.416C92.7367 344.863 87.1155 345.576 81.7987 347.51C76.4819 349.444 71.5874 352.556 67.4307 356.645C63.274 360.734 59.9473 365.71 57.6652 371.252C55.3831 376.794 54.1962 382.778 54.1809 388.82C54.1718 391.668 54.4208 394.507 54.9246 397.297C55.7839 402.02 57.3725 406.546 59.6242 410.685C56.9783 410.008 51.2052 408.072 51.2052 408.072C51.2052 408.072 26.6045 405.437 20.3396 399.517L21.2915 398.801L25.3273 395.797L23.5176 388.19C23.2972 387.87 23.1158 387.521 22.9781 387.15C22.4938 385.882 22.0725 383.523 23.8077 380.543C26.4378 375.997 25.1815 359.885 25.1815 359.885C25.1815 359.885 60.876 333.022 131.068 326.533C131.068 326.533 132.74 327.927 136.201 328.193C138.545 328.38 141.71 328.045 145.736 326.419C145.736 326.419 151.485 329.2 176.165 313.737C176.165 313.737 218.164 282.294 273.143 284.705C273.143 284.705 329.712 280.585 377.825 300.308C398.56 308.8 414.342 313.292 425.595 315.643C435.985 317.82 442.512 318.185 445.502 318.197L445.568 318.197C446.545 318.188 447.124 318.183 447.331 318.183L447.421 318.182C447.421 318.182 447.421 324.919 447.705 332.872V332.912C447.815 335.678 447.971 338.591 448.188 341.42V341.596C448.792 349.477 449.854 356.632 451.733 358.036L454.575 365.348Z" fill="#CCCCCC"/>
<path d="M30.8474 359.195C30.8474 359.195 46.6653 345.776 66.2954 348.456C66.2954 348.456 48.3763 363.872 40.326 362.944L38.9571 361.682L30.816 362.238C30.816 362.238 29.6069 360.195 30.8608 359.195H30.8474Z" fill="#121C3F"/>
<path opacity="0.2" d="M46.0878 382.081L46.037 389.931C46.037 389.931 45.4702 397.434 39.2021 397.764L21.291 398.858L25.3214 395.854L23.5117 388.247C23.2903 387.93 23.1089 387.583 22.9722 387.214C24.6055 385.583 28.451 382.821 36.2562 382.175L46.0878 382.081Z" fill="white"/>
<path d="M267.514 292.49L254.69 328.597L208.867 329.005L197.069 329.096L186.807 329.176L177.935 329.245L167.885 329.323C167.885 329.323 174.021 324.421 183.901 318.16C187.164 316.082 190.866 313.861 194.884 311.626C198.581 309.557 202.56 307.462 206.739 305.472C209.999 303.899 213.434 302.383 216.944 300.967C232.859 294.565 250.737 290.211 267.514 292.49V292.49Z" fill="#121C3F"/>
<path d="M339.427 316.85C339.427 316.85 320.272 320.064 301.993 322.475C295.006 323.397 288.15 324.2 282.537 324.66L281.756 324.725C279.585 324.894 277.571 325.009 275.862 325.058C273.148 325.132 271.119 325.018 270.105 324.675L275.495 290.191C275.495 290.191 282.007 290.218 291.637 290.652L293.743 290.759C295.745 290.867 297.855 290.991 300.058 291.138C303.205 291.348 306.52 291.604 309.938 291.917C326.44 293.425 345.131 296.217 356.955 301.413C382.115 312.486 339.427 316.85 339.427 316.85V316.85Z" fill="#121C3F"/>
<path d="M427.609 333.49L427.564 342.682C427.564 342.682 413.818 343 416.774 340.01C418.687 338.026 420.426 335.853 421.966 333.521L427.609 333.49Z" fill="#121C3F"/>
<path d="M448.177 341.584L437.011 342.615L437.056 331.564C437.056 331.564 442.253 323.674 447.396 332.334L447.692 332.841L448.177 341.584Z" fill="#121C3F"/>
<path opacity="0.5" d="M322.206 404.234C321.004 404.83 318.172 406.399 317.758 408.835L132.372 410.273L128.573 410.268C129.385 408.798 130.115 407.277 130.758 405.714L322.206 404.234Z" fill="#666666"/>
<path opacity="0.1" d="M231.136 357.278C230.56 358.159 230.033 359.075 229.559 360.023C226.008 367.314 217.841 355.57 220.692 351.468L222.658 349.477C221.911 358.851 228.974 357.799 231.136 357.278Z" fill="black"/>
<path opacity="0.1" d="M244.644 373.706L244.456 373.708C244.456 373.708 250.703 371.842 244.644 373.706Z" fill="black"/>
<path opacity="0.1" d="M296.127 407.256V408.253C296.055 407.926 296.055 407.585 296.127 407.256V407.256Z" fill="black"/>
<path d="M7.13187 431.239L477.672 429.675L477.708 441.796L7.16758 443.36L7.13187 431.239Z" fill="#535D6C"/>
<path d="M95.2337 390.065L108.274 389.954L117.564 424.033L88.0483 424.126L95.2337 390.065Z" fill="#373E48"/>
<path d="M386.888 391.179L399.927 391.068L409.219 425.147L379.703 425.24L386.888 391.179Z" fill="#373E48"/>
<path d="M238.403 408.856L258.158 408.755L272.136 427.431L227.418 427.573L238.403 408.856Z" fill="#373E48"/>
<path d="M15.9147 416.071L489.031 414.5L489.067 426.621L15.9504 428.193L15.9147 416.071Z" fill="#535D6C"/>
<path d="M374.819 391.227L389.952 391.093L400.744 433.799L366.489 433.908L374.819 391.227Z" fill="#535D6C"/>
<path d="M85.9115 390.036L101.044 389.901L111.837 432.608L77.5819 432.717L85.9115 390.036Z" fill="#535D6C"/>
<path opacity="0.15" d="M18.8473 413.915L491.964 412.344L492 424.465L18.883 426.037L18.8473 413.915Z" fill="#1C1F24"/>
<path d="M222.633 408.553L246.216 408.419L262.924 437.543L209.54 437.712L222.633 408.553Z" fill="#535D6C"/>
<path opacity="0.2" d="M87.5855 390.439L102.718 390.305L113.511 433.011L79.2559 433.12L87.5855 390.439Z" fill="#1C1F24"/>
<path opacity="0.2" d="M11.4801 431.021L479.27 429.457L479.305 441.579L11.5158 443.142L11.4801 431.021Z" fill="#1C1F24"/>
<path opacity="0.2" d="M224.394 406.162L247.978 406.028L264.685 435.152L211.301 435.321L224.394 406.162Z" fill="#1C1F24"/>
<path opacity="0.2" d="M376.473 390.3L391.606 390.165L402.398 432.872L368.143 432.98L376.473 390.3Z" fill="#1C1F24"/>
<path d="M256.704 285.576C256.746 286.683 257.58 285.698 257.427 286.369C257.329 286.803 256.487 286.723 256.223 287.107C256.071 287.33 256.062 287.644 255.844 287.911C255.566 288.253 255.29 288.785 255.428 289.088C255.682 289.65 256.571 288.759 257.163 288.928C257.762 289.098 257.092 290.16 257.863 290.315C258.471 290.437 258.329 289.378 259.475 289.063C259.838 288.963 260.214 289.632 260.657 289.587C261.477 289.503 261.807 288.617 262.425 288.674C263.325 288.756 263.974 290.356 264.844 291.168C265.857 292.113 267.074 291.442 267.666 292.261C268.057 292.802 267.594 293.627 267.77 294.263C268.009 295.121 266.3 299.873 266.3 299.873L267.593 307.888C267.593 307.888 270.294 310.486 271.113 310.288C272.884 309.86 274.256 295.806 275.109 292.775L275.491 290.184L282.594 290.295L294.542 290.796L310.856 291.982L332.916 294.819L345.632 297.577L355.915 301.075L361.658 303.855L363.723 305.544C363.723 305.544 364.401 306.3 364.578 306.764C364.796 307.339 364.933 307.997 364.796 308.596C364.665 309.173 364.245 309.661 363.838 310.09C363.459 310.489 362.498 311.051 362.498 311.051L360.579 312.112L358.016 313.172L356.391 313.592L368.177 342.116L443.607 326.644L447.554 326.746L447.64 318.228L444.553 318.175L435.288 317.514L410.906 312.048L364.188 295.336L346.815 290.624L327.178 287.123L317.903 285.994L311.311 285.405L303.165 284.668L283.241 284.375L258.01 284.861C258.01 284.861 256.693 285.231 256.706 285.576L256.704 285.576Z" fill="#D40000"/>
</g>
<defs>
<clipPath id="clip0">
<rect width="482" height="139" fill="white" transform="translate(163)"/>
</clipPath>
<clipPath id="clip1">
<rect width="492" height="378" fill="white" transform="translate(0 77)"/>
</clipPath>
</defs>
</svg>
