<svg width="711" height="505" viewBox="0 0 711 505" fill="none" xmlns="http://www.w3.org/2000/svg">
<g clip-path="url(#clip0)">
<path fill-rule="evenodd" clip-rule="evenodd" d="M259.518 59.7179H236.099C232.607 59.7179 229.189 56.3139 229.189 52.7653V29.59C229.189 26.1864 232.607 22.7825 236.099 22.7825H259.518C263.082 22.7825 266.427 26.1864 266.427 29.59V52.7653C266.427 56.3139 263.082 59.7179 259.518 59.7179V59.7179ZM247.881 26.9829L231.662 45.8851L239.663 55.2997L247.881 46.1025L256.027 55.2997L264.173 45.8851L247.881 26.9829Z" fill="#3165AA"/>
<path fill-rule="evenodd" clip-rule="evenodd" d="M243.736 74.7818C242.063 74.7818 240.681 73.4055 240.681 71.8126V66.8158C240.681 65.1498 242.063 63.8459 243.736 63.8459H252.027V65.9463H243.008V72.6811H252.027V74.7814H243.736V74.7818ZM232.317 74.7818C230.644 74.7818 229.335 73.4055 229.335 71.8126V63.7739H231.589V72.6814H239.372V74.7818H232.317ZM263.446 74.7818H256.609C255.009 74.7818 253.627 73.4055 253.627 71.8126V66.8158C253.627 65.1498 255.009 63.8459 256.609 63.8459H263.446C265.118 63.8459 266.428 65.1498 266.428 66.8158V71.8126C266.428 73.4059 265.119 74.7818 263.446 74.7818ZM255.954 72.6814H264.173V65.9466H255.954V72.6814ZM226.134 74.7818H228.534L222.571 64.8601C222.134 64.2083 221.625 63.9186 220.898 63.9186C220.171 63.9186 219.662 64.2083 219.225 64.8601L213.261 74.7818H215.661L216.898 72.7541H224.971L226.134 74.7818ZM218.062 70.7984L220.825 66.1633L220.898 66.0906L221.044 66.1633L223.735 70.7984H218.062ZM279.883 74.7818H282.283L276.32 64.8601C275.883 64.2083 275.374 63.9186 274.647 63.9186C273.919 63.9186 273.41 64.2083 272.974 64.8601L267.01 74.7818H269.41L270.646 72.7541H278.72L279.883 74.7818ZM271.81 70.7984L274.573 66.1633L274.646 66.0906L274.792 66.1633L277.483 70.7984H271.81Z" fill="#3165AA" stroke="#3165AA" stroke-width="0.261096" stroke-miterlimit="2.613"/>
<path fill-rule="evenodd" clip-rule="evenodd" d="M247.881 46.0303L240.099 37.2671H255.736L247.881 46.0303Z" fill="#3165AA"/>
<path d="M452.552 34.5793C424.143 34.5793 401.366 43.0983 401.366 53.779C401.366 64.3956 424.331 72.9832 452.552 72.9832C480.778 72.9832 503.738 64.3681 503.738 53.779C503.738 43.1899 480.778 34.5793 452.552 34.5793" fill="#003478"/>
<path d="M472.715 57.8461C472.729 57.9377 472.843 58.0201 472.953 58.0613C472.999 58.0751 473.017 58.1025 472.971 58.1987C472.651 58.8766 472.363 59.2705 471.964 59.8659C471.598 60.4155 471.181 60.8414 470.682 61.2536C469.922 61.8811 468.874 62.559 468.004 62.1055C467.619 61.904 467.455 61.3636 467.459 60.9284C467.477 59.6964 468.027 58.4369 469.034 57.1957C470.266 55.6843 471.625 54.8965 472.514 55.3224C473.438 55.7667 473.145 56.8339 472.733 57.672C472.705 57.7255 472.698 57.7879 472.715 57.8461V57.8461ZM482.623 48.2737C482.687 48.1546 482.623 48.0676 482.472 48.0676H479.885C479.692 48.0676 479.592 48.0951 479.505 48.2737C479.207 48.8417 475.59 54.2599 474.917 55.3133C474.807 55.4736 474.665 55.4507 474.652 55.2675C474.583 54.6446 474.043 53.9255 473.191 53.582C472.578 53.3342 471.909 53.2552 471.255 53.353C470.064 53.5179 469.007 54.1454 468.073 54.8507C466.672 55.9179 465.463 57.301 463.897 58.327C463.041 58.8812 461.874 59.3666 461.091 58.643C460.386 57.988 460.463 56.527 461.548 55.4003C461.663 55.2812 461.8 55.382 461.777 55.4873C461.719 55.7324 461.726 55.9885 461.799 56.2298C461.871 56.4711 462.006 56.689 462.189 56.8614C462.661 57.2827 463.334 57.3331 463.915 57.0446C464.241 56.8749 464.52 56.6287 464.729 56.3271C464.938 56.0255 465.07 55.6775 465.115 55.3133C465.153 55.0452 465.136 54.7721 465.064 54.511C464.992 54.25 464.868 54.0065 464.697 53.7959C464.527 53.5853 464.316 53.412 464.075 53.287C463.835 53.1619 463.572 53.0877 463.302 53.0691C462.405 53.0049 461.539 53.3164 460.697 54.0126C460.299 54.3334 459.954 54.7134 459.671 55.1392C459.58 55.2675 459.447 55.2766 459.452 55.0934C459.493 53.6187 458.884 52.7897 457.666 52.7622C456.723 52.7393 455.711 53.2523 454.924 53.8797C454.063 54.5713 453.307 55.4919 452.497 56.353C452.401 56.4629 452.314 56.4583 452.282 56.2522C452.286 55.3368 452.038 54.438 451.563 53.6553C451.479 53.5336 451.353 53.4471 451.21 53.4125C451.066 53.3778 450.915 53.3974 450.785 53.4675C450.652 53.5362 450.199 53.7423 449.869 54.0126C449.704 54.15 449.64 54.3423 449.713 54.5942C450.148 56.0507 450.052 57.7087 449.462 59.1102C448.917 60.3926 447.864 61.5513 446.623 61.9406C445.808 62.2017 444.957 62.0735 444.43 61.3452C443.711 60.3468 444 58.6109 445.076 57.1636C446.028 55.8904 447.401 55.0843 448.77 54.5622C448.931 54.5026 448.967 54.3973 448.921 54.2599L448.679 53.5912C448.551 53.2523 448.198 53.2019 447.772 53.2477C446.774 53.3622 445.877 53.7057 444.989 54.1774C442.667 55.4232 441.5 57.8323 440.992 59.1239C440.819 59.6072 440.573 60.0613 440.264 60.4704C439.897 60.9284 439.44 61.3498 438.597 62.0872C438.551 62.1291 438.52 62.1845 438.508 62.2455C438.495 62.3064 438.503 62.3696 438.528 62.4261C438.701 62.7402 438.918 63.0272 439.174 63.278C439.311 63.3467 439.472 63.2505 439.536 63.2047C440.122 62.8063 440.827 62.1742 441.17 61.7437C441.289 61.5971 441.417 61.6613 441.482 61.8811C441.637 62.4531 441.93 62.9782 442.335 63.4102C442.741 63.8423 443.246 64.168 443.807 64.3589C445.936 65.078 448.148 64.0383 449.814 62.2246C450.872 61.0796 451.256 60.333 451.664 59.8338C452.351 58.9773 453.71 57.0675 455.326 55.8446C455.922 55.3912 456.622 55.0476 456.975 55.2766C457.259 55.4599 457.35 55.8858 456.897 56.7148C455.249 59.7285 452.822 63.2643 452.373 64.1253C452.291 64.2719 452.364 64.391 452.52 64.391H455.02C455.152 64.3818 455.212 64.3223 455.276 64.2307C456.54 62.2475 457.73 60.3605 459.007 58.414C459.081 58.2949 459.145 58.3865 459.145 58.4369C459.177 58.8857 459.282 59.504 459.557 59.9117C459.755 60.2444 460.037 60.5194 460.374 60.7091C460.711 60.8988 461.093 60.9965 461.48 60.9926C462.017 60.9999 462.549 60.8872 463.036 60.6628C463.568 60.4659 463.998 60.2094 464.318 59.9758C464.511 59.843 464.547 60.0674 464.538 60.0995C464.245 61.6704 464.607 63.5345 466.173 64.3131C468.041 65.2291 470.096 63.9375 471.282 62.7651C471.396 62.6506 471.52 62.6643 471.534 62.907C471.561 63.3559 471.763 63.8826 472.129 64.2582C473.118 65.252 475.119 64.8536 477.124 63.3009C478.415 62.307 479.761 60.901 480.979 59.4124C481.025 59.3575 481.061 59.2659 480.97 59.1697C480.787 58.9773 480.517 58.7575 480.333 58.5835C480.251 58.5102 480.127 58.5331 480.059 58.5835C478.809 59.7743 477.683 61.1254 476.062 62.2475C475.512 62.6277 474.643 62.9345 474.249 62.4078C474.093 62.2017 474.111 61.9177 474.263 61.5376C474.734 60.3605 482.229 48.9424 482.623 48.2692" fill="white"/>
<path d="M447.351 49.6525C447.383 49.822 447.452 49.8541 447.53 49.8357C447.957 49.7194 448.327 49.4527 448.573 49.0846C448.802 48.7549 448.908 48.2785 448.683 48.0862C448.482 47.9167 448.157 47.9625 447.914 48.1778C447.708 48.3597 447.549 48.5889 447.451 48.8458C447.353 49.1026 447.319 49.3795 447.351 49.6525V49.6525ZM428.246 64.35C425.453 64.3683 422.99 62.6416 422.706 59.6462C422.542 58.0886 422.99 56.5284 423.956 55.2952C424.789 54.2097 426.199 53.312 427.389 53.0922C427.774 53.0189 428.296 53.0647 428.511 53.3212C428.85 53.7151 428.754 54.1456 428.415 54.3196C427.504 54.7822 426.41 55.5792 425.869 56.6646C425.62 57.1259 425.501 57.6467 425.526 58.1706C425.551 58.6946 425.719 59.2017 426.011 59.6371C427.133 61.3317 430.265 61.3775 433.172 58.6753C433.895 58.0112 434.536 57.3745 435.191 56.6234C436.473 55.1578 436.899 54.6219 438.602 52.2586C438.62 52.2311 438.629 52.1945 438.62 52.1807C438.606 52.1487 438.583 52.1441 438.533 52.1349C437.398 52.1716 436.404 52.5105 435.443 53.2296C435.168 53.4311 434.765 53.4036 434.591 53.138C434.399 52.8357 434.536 52.4418 434.857 52.222C436.404 51.1411 438.098 50.9487 439.829 50.6556C439.829 50.6556 439.948 50.6556 440.048 50.5319C440.758 49.6159 441.294 48.7961 442.049 47.8755C442.814 46.9411 443.798 46.0801 444.549 45.4343C445.602 44.532 446.275 44.2297 446.957 43.8542C447.14 43.7626 446.934 43.6481 446.879 43.6481C443.056 42.929 439.087 41.9993 435.292 43.4053C432.664 44.3855 431.51 46.474 432.064 47.8663C432.458 48.8556 433.758 49.0113 434.976 48.4159C435.983 47.9259 436.921 47.1243 437.585 46.0984C437.952 45.5259 438.735 45.9381 438.313 46.932C437.201 49.5426 435.081 51.6128 432.499 51.6998C430.297 51.7731 428.877 50.1518 428.882 48.1549C428.891 44.216 433.277 41.6237 437.878 41.2344C443.427 40.7764 448.683 42.2557 454.191 42.9244C458.412 43.4328 462.46 43.4466 466.704 42.4664C467.207 42.3611 467.555 42.6817 467.528 43.1855C467.482 43.9183 466.914 44.6236 465.518 45.3839C463.929 46.2587 462.267 46.5244 460.527 46.5381C456.334 46.5747 452.424 44.9351 448.372 44.0557C448.377 44.2343 448.427 44.445 448.28 44.5595C446.037 46.2083 444.009 47.8892 442.649 50.248C442.603 50.3029 442.631 50.3579 442.709 50.3487C443.89 50.2892 444.947 50.2571 446.051 50.1655C446.238 50.1518 446.248 50.106 446.234 49.964C446.174 49.5285 446.221 49.085 446.369 48.6712C446.517 48.2574 446.763 47.8855 447.085 47.5869C447.818 46.932 448.734 46.8541 449.343 47.3305C450.029 47.8663 449.97 48.8373 449.594 49.5609C449.425 49.8795 449.194 50.1609 448.914 50.3883C448.634 50.6156 448.311 50.7844 447.964 50.8846C447.964 50.8846 447.836 50.9121 447.855 51.0266C447.877 51.2098 448.711 51.6724 448.779 51.796C448.848 51.9151 448.811 52.0937 448.688 52.2311C448.639 52.2908 448.577 52.3389 448.508 52.3721C448.438 52.4054 448.362 52.4229 448.285 52.4235C448.143 52.4235 448.056 52.3731 447.873 52.2723C447.436 52.039 447.048 51.7251 446.728 51.3472C446.618 51.2143 446.563 51.2098 446.303 51.2281C445.112 51.2968 443.253 51.4754 441.999 51.6311C441.692 51.6678 441.646 51.7273 441.587 51.8327C439.582 55.1395 437.439 58.7073 435.086 61.0981C432.567 63.6584 430.471 64.3317 428.246 64.35Z" fill="white"/>
<path d="M452.552 37.7214C426.414 37.7214 405.23 44.9441 405.23 53.7882C405.23 62.6277 426.414 69.8551 452.552 69.8551C478.69 69.8551 499.874 62.6277 499.874 53.7882C499.874 44.9487 478.685 37.7214 452.552 37.7214V37.7214ZM452.552 71.3116C425.462 71.3116 403.504 63.4659 403.504 53.7882C403.504 44.106 425.462 36.2649 452.552 36.2649C479.637 36.2649 501.595 44.106 501.595 53.7882C501.595 63.4659 479.637 71.3116 452.552 71.3116" fill="white"/>
<path fill-rule="evenodd" clip-rule="evenodd" d="M323.405 7.30176H370.442V50.8691H323.405V7.30176Z" fill="white"/>
<path fill-rule="evenodd" clip-rule="evenodd" d="M317.495 56.6182H375.099V0H317.495V56.6182ZM346.964 12.9694H351.649L354.426 27.9551L357.069 12.9968H361.836V34.9846H358.921V19.5629L355.789 35.039H353.175L349.988 19.3724L350.015 35.2026H346.937L346.964 12.9694ZM330.895 23.2957V18.5004C330.895 17.4379 330.568 12.1793 336.533 12.1249C342.498 12.0705 342.47 16.5116 342.47 16.5116V19.8087H339.256C339.256 19.8087 339.774 15.3947 336.778 15.2855C334.299 15.2037 334.49 18.0645 334.49 18.0645V29.8352C334.49 29.8352 334.299 32.6142 336.778 32.6142C339.583 32.6142 339.256 29.7264 339.256 29.7264V25.5303H337.132V23.2691H342.47V35.7751H339.992V34.4672L339.801 34.9846C339.365 35.7199 337.894 35.7747 336.532 35.7747C330.568 35.7199 330.894 30.4617 330.894 29.3992L330.895 23.2957ZM331.004 43.8941V38.7447H362.162V43.8941H331.004Z" fill="#2360A5"/>
<path d="M552.787 113.664H563.95L568.067 129.346H568.346C568.543 128.04 568.742 126.653 569.098 125.389L572.461 113.664H583.509L588.416 143.525H577.926L576.46 127.169H576.263C576.066 128.159 575.867 129.188 575.551 130.138L571.236 143.525H564.902L561.022 130.89C560.705 129.623 560.427 128.435 560.347 127.169H559.991C559.913 128.357 559.834 129.584 559.715 130.77L558.447 143.525H547.957L552.787 113.664Z" fill="#ACACAC"/>
<path d="M604.472 132.714L603.206 127.446C602.889 126.177 602.69 124.871 602.491 123.604H602.097L600.117 132.714H604.472ZM597.305 143.525H585.826L596.197 113.664H608.194L618.843 143.525H607.361L606.373 139.801H598.176L597.305 143.525ZM648.333 125.941C648.251 130.812 648.251 134.891 644.729 138.691C641.561 142.139 636.694 144 632.061 144C622.957 144 615.594 138.376 615.594 128.792C615.594 119.051 622.758 113.188 632.141 113.188C637.327 113.188 644.454 115.763 646.788 120.872L636.653 124.595C635.823 123.09 634.279 122.298 632.536 122.298C628.659 122.298 626.519 125.624 626.519 129.227C626.519 132.513 628.578 135.604 632.101 135.604C633.804 135.604 635.981 134.811 636.495 132.99H631.587V125.941H648.333ZM649.143 113.664H659.557L669.294 130.219H669.609C669.176 127.723 668.7 125.149 668.7 122.614V113.664H679.071V143.525H668.7L659.16 127.843H658.843C659.198 129.9 659.516 131.842 659.516 133.823V143.525H649.143V113.664H649.143Z" fill="#ACACAC"/>
<path d="M696.631 132.714L695.363 127.446C695.047 126.177 694.849 124.871 694.65 123.604H694.254L692.275 132.714H696.631ZM689.465 143.525H677.985L688.355 113.664H700.351L711 143.525H699.52L698.53 139.801H690.336L689.465 143.525Z" fill="#ACACAC"/>
<path d="M531.411 143.554L542.659 143.556L531.827 113.744L523.593 113.743L522.08 117.892L531.411 143.554Z" fill="black"/>
<path d="M523.783 101.059C520.765 101.059 518.319 103.505 518.319 106.526C518.319 109.543 520.765 111.991 523.783 111.991C526.801 111.991 529.246 109.543 529.246 106.525C529.246 103.505 526.801 101.059 523.783 101.059" fill="#E22E2F"/>
<path d="M499.623 143.554L516.39 143.553L508.005 120.526L499.623 143.554ZM518.292 143.554L529.54 143.556L518.706 113.744L510.473 113.743L508.961 117.892L518.292 143.554Z" fill="black"/>
</g>
<g clip-path="url(#clip1)">
<path d="M181.194 253.418C181.194 253.418 183.141 263.733 181.778 264.511C180.677 265.203 179.636 265.984 178.663 266.846L182.168 271.712L190.54 273.463L198.522 266.068V258.673C198.522 258.673 196.186 254.975 196.575 252.639C196.964 250.304 181.194 253.418 181.194 253.418V253.418Z" fill="#DEAA87"/>
<path d="M167.76 271.128L166.592 271.712C166.592 271.712 164.061 272.685 162.893 281.053C161.725 289.422 158.999 309.467 159.778 310.051C160.557 310.635 160.167 314.527 160.167 314.527L166.008 283.973L167.76 271.128Z" fill="#2F2E41"/>
<path d="M185.283 458.738L189.371 467.69L181.389 470.415L177.3 468.274L178.274 458.738H185.283Z" fill="#FBBEBE"/>
<path d="M181.584 466.328C181.584 466.328 175.159 462.435 173.991 463.798C172.822 465.16 163.477 475.085 163.477 475.085C163.477 475.085 149.07 482.87 160.167 484.038C171.265 485.205 189.371 477.226 189.371 477.226C189.371 477.226 190.345 466.717 189.566 466.522C188.787 466.328 185.477 468.274 183.92 467.69C183.06 467.392 182.266 466.93 181.584 466.328Z" fill="black"/>
<path d="M187.619 465.744L195.796 468.274V476.253L185.283 473.918L187.619 465.744Z" fill="#FBBEBE"/>
<path d="M185.089 470.998C185.089 470.998 195.797 469.247 196.77 474.501C197.744 479.756 200.275 487.541 197.744 489.487C195.213 491.433 182.168 493.963 181.974 490.655C181.779 487.346 183.336 480.924 183.336 480.924C183.336 480.924 184.31 475.864 183.726 474.501C183.142 473.139 185.089 470.998 185.089 470.998V470.998Z" fill="black"/>
<path d="M163.7 339.583C163.7 339.583 154.911 395.293 162.114 422.539C169.318 449.785 174.38 465.938 174.38 465.938C174.38 465.938 187.947 469.345 187.947 467.01C187.947 464.674 181.973 423.123 180.805 419.814C179.637 416.506 177.69 415.338 179.442 412.614C181.194 409.889 184.115 392.374 184.115 392.374C184.115 392.374 190.539 421.371 190.929 422.15C191.318 422.928 185.897 471.094 185.897 471.094C185.897 471.094 198.83 476.818 199.607 469.831C199.802 468.079 209.23 405.997 209.23 405.218C209.23 404.44 212.735 344.887 207.089 341.968C201.443 339.049 163.7 339.583 163.7 339.583V339.583Z" fill="#162D50"/>
<path d="M185.867 270.349V268.987L181.973 262.565C181.973 262.565 178.079 262.954 177.495 264.706C176.911 266.457 170.291 280.469 170.291 280.469L163.282 343.33C163.282 343.33 182.557 348.001 185.477 344.693C188.398 341.384 199.495 269.376 199.495 269.376L201.053 260.619C201.053 260.619 198.379 256.726 197.769 257.31C197.159 257.894 187.035 269.182 187.035 269.182L186.84 270.933L185.867 270.349Z" fill="#162D50"/>
<path d="M181.876 261.3C181.876 261.3 178.274 260.424 177.106 262.565C175.938 264.706 175.938 265.484 174.769 266.263C173.601 267.041 166.787 270.544 166.398 271.906C166.008 273.269 157.636 316.279 157.636 316.279C157.636 316.279 153.548 329.124 155.495 337.881C157.442 346.639 156.079 348.39 160.167 349.169C164.256 349.947 164.84 349.947 164.84 348.78C164.84 347.612 170.097 308.105 173.796 305.38C177.495 302.656 176.522 272.88 176.522 272.88C176.522 272.88 181.778 266.457 181.778 265.484C181.778 264.511 182.655 261.227 181.876 261.3V261.3Z" fill="#0044AA"/>
<path d="M192.876 268.403C193.419 268.494 200.858 258.867 201.442 259.256C202.026 259.646 204.947 264.706 205.336 264.706C205.726 264.706 222.275 268.793 223.638 276.383C225 283.973 214.098 308.105 214.098 308.105C214.098 308.105 209.425 321.923 210.398 327.956C211.059 332.55 210.927 337.224 210.009 341.773C209.62 343.33 208.257 345.082 208.646 345.86C209.035 346.639 200.08 344.887 196.38 347.028C192.681 349.169 176.132 350.726 177.106 348.39C178.079 346.055 178.663 336.908 181.389 327.177C184.115 317.446 191.124 294.482 189.956 292.925C188.787 291.368 191.708 268.209 192.876 268.403Z" fill="#0044AA"/>
<path d="M221.301 274.047L223.832 276.383C223.832 276.383 226.752 281.443 226.363 283.778C225.974 286.113 234.54 321.339 231.036 322.506C227.531 323.674 219.159 329.513 218.186 331.069C217.212 332.626 214.876 335.351 213.318 336.129C211.761 336.908 210.203 338.27 209.23 337.492C208.256 336.713 206.115 320.755 207.672 320.171C209.23 319.587 210.787 317.836 212.345 317.836C213.902 317.836 214.876 316.279 214.876 314.916C214.876 313.554 213.708 305.38 213.708 305.38L211.177 286.113L221.301 274.047Z" fill="#162D50"/>
<path d="M190.362 223.912C195.421 223.913 199.436 230.355 199.493 238.338L199.506 240.186C199.521 240.185 199.535 240.185 199.55 240.186C199.704 240.186 199.857 240.259 199.999 240.403C200.141 240.546 200.271 240.756 200.38 241.02C200.488 241.285 200.575 241.599 200.634 241.945C200.693 242.291 200.723 242.662 200.723 243.036C200.723 243.411 200.693 243.781 200.634 244.127C200.575 244.473 200.488 244.787 200.38 245.052C200.271 245.317 200.141 245.527 199.999 245.67C199.857 245.813 199.704 245.887 199.55 245.887C199.595 253.856 195.054 260.377 190.002 260.377H186.366C181.487 260.377 176.931 252.826 176.61 245.127C176.555 245.146 176.5 245.155 176.444 245.155C176.29 245.155 176.138 245.082 175.995 244.938C175.853 244.795 175.724 244.585 175.615 244.321C175.506 244.056 175.419 243.742 175.36 243.396C175.301 243.05 175.271 242.679 175.271 242.305C175.271 241.93 175.301 241.56 175.36 241.214C175.419 240.868 175.506 240.554 175.615 240.289C175.724 240.024 175.853 239.814 175.995 239.671C176.138 239.528 176.29 239.454 176.444 239.454C176.492 239.454 176.54 239.461 176.588 239.475L176.587 238.34C176.579 230.356 180.66 223.914 185.719 223.914H190.364L190.362 223.912Z" fill="#DEAA87"/>
<path opacity="0.6" d="M176.306 242.499C176.166 242.485 176.091 242.013 176.137 241.443C176.184 240.873 176.336 240.422 176.475 240.435C176.615 240.448 176.691 240.921 176.644 241.491C176.597 242.061 176.446 242.512 176.306 242.499Z" fill="black"/>
<path opacity="0.6" d="M199.821 243.448C199.961 243.435 200.037 242.962 199.99 242.392C199.943 241.823 199.792 241.371 199.652 241.385C199.512 241.398 199.436 241.871 199.483 242.441C199.53 243.011 199.681 243.462 199.821 243.448Z" fill="black"/>
<path d="M187.927 222.641C194.297 222.641 199.107 228.564 199.483 235.896L199.645 239.049C199.563 241.119 199.654 241.096 199.654 242.858C199.654 244.621 199.654 244.659 199.621 246.221L199.316 248.779C199.136 250.29 198.442 252.917 197.528 254.644C196.756 256.105 195.695 257.418 194.242 258.723C192.231 260.327 191.651 260.658 189.897 260.62L186.289 260.54C185.055 260.468 182.67 259.347 181.286 257.637C179.83 255.84 180.314 256.461 179.504 255.208C178.339 253.406 176.43 249.872 176.43 246.754V246.546C176.47 244.455 176.455 244.458 176.455 242.756C176.456 241.055 176.455 241.054 176.43 239.567V235.896C176.43 228.553 181.558 222.641 187.927 222.641L187.927 222.641ZM189.788 230.661L186.081 230.871L181.399 230.783L179.818 232.153L179.579 234.341L179.037 236.544L177.514 238.148L177.144 240.431L177.195 247.519L177.594 249.938L178.827 252.518L180.878 255.858L182.862 258.07L184.915 259.316L186.35 259.428C186.822 259.242 187.844 256.811 187.873 255.742L188.345 255.728C188.527 256.355 188.54 258.796 189.32 259.424L191.455 259.352L193.052 258.121L195.786 255.84L196.799 254.215L197.776 251.993L198.452 249.823L198.894 247.257L198.827 240.177L197.893 237.283L196.869 235.809C196.745 234.978 196.785 234.422 196.765 233.803C196.753 233.414 196.739 232.555 196.599 232.164C196.481 231.833 196.172 231.806 196.172 231.806C195.819 231.654 195.912 231.473 195.539 231.336C195.329 231.259 195.119 231.191 194.908 231.131C193.389 230.7 191.828 230.687 189.787 230.66L189.788 230.661Z" fill="#333333"/>
<path d="M191.747 244.185C191.279 244.185 190.899 243.759 190.899 243.234C190.899 242.709 191.279 242.283 191.747 242.283C192.216 242.283 192.596 242.709 192.596 243.234C192.596 243.759 192.216 244.185 191.747 244.185Z" fill="black"/>
<path d="M184.927 244.075C184.458 244.075 184.079 243.649 184.079 243.124C184.079 242.599 184.458 242.174 184.927 242.174C185.396 242.174 185.776 242.599 185.776 243.124C185.776 243.649 185.396 244.075 184.927 244.075Z" fill="black"/>
<path d="M187.077 249.777H189.788C189.854 249.777 189.907 249.83 189.907 249.896V250.08C189.907 250.146 189.854 250.199 189.788 250.199H187.077C187.011 250.199 186.958 250.146 186.958 250.08V249.896C186.958 249.83 187.011 249.777 187.077 249.777Z" fill="black"/>
<path d="M189.465 239.804H193.48C193.619 239.804 193.732 239.917 193.732 240.056V240.447C193.732 240.586 193.619 240.698 193.48 240.698H189.465C189.327 240.698 189.214 240.586 189.214 240.447V240.056C189.214 239.917 189.327 239.804 189.465 239.804Z" fill="black"/>
<path d="M182.977 239.696H186.979C187.121 239.696 187.237 239.811 187.237 239.954V240.356C187.237 240.499 187.121 240.614 186.979 240.614H182.977C182.835 240.614 182.719 240.499 182.719 240.356V239.954C182.719 239.811 182.835 239.696 182.977 239.696Z" fill="black"/>
<path d="M192.464 252.155C192.462 253.048 192.035 253.905 191.277 254.536C190.518 255.167 189.49 255.522 188.418 255.522C187.346 255.522 186.318 255.167 185.559 254.536C184.801 253.905 184.374 253.048 184.373 252.155H192.464Z" fill="#F2F2F2"/>
<path d="M192.184 252.245C192.183 253.035 191.781 253.792 191.066 254.351C190.351 254.909 189.382 255.223 188.372 255.223C187.362 255.223 186.393 254.909 185.678 254.351C184.963 253.792 184.561 253.035 184.559 252.245H192.184Z" fill="white"/>
<path d="M192.119 251.722C192.084 251.702 192.11 251.617 192.119 251.605C192.295 251.377 192.65 251.482 192.909 251.703C193.202 251.954 193.143 252.326 192.99 252.637C192.98 252.66 192.788 252.949 192.725 252.821C192.696 252.761 192.849 252.322 192.852 252.287C192.876 251.997 192.895 252.12 192.777 251.857C192.564 251.705 192.445 251.685 192.215 251.721L192.119 251.722Z" fill="#808080"/>
<path d="M184.627 251.802C184.662 251.783 184.656 251.701 184.646 251.689C184.47 251.461 184.133 251.532 183.875 251.753C183.582 252.004 183.577 252.32 183.731 252.63C183.741 252.653 183.901 252.751 183.92 252.737C183.97 252.698 183.88 252.456 183.874 252.422C183.818 252.127 183.819 252.13 184.039 251.941C184.238 251.771 184.302 251.776 184.533 251.812L184.627 251.802Z" fill="#808080"/>
<path d="M190.904 221.384L190.904 221.384C195.784 221.384 199.768 226.886 200.644 234.171H176.101C176.941 226.885 180.977 221.384 185.858 221.384H190.904Z" fill="#0044AA"/>
<path d="M187.245 219.576H189.322C189.851 219.576 190.279 220.005 190.279 220.533V221.82C190.279 222.349 189.851 222.777 189.322 222.777H187.245C186.716 222.777 186.288 222.349 186.288 221.82V220.533C186.288 220.005 186.716 219.576 187.245 219.576Z" fill="#0044AA"/>
<path d="M180.693 221.24H182.184C182.622 221.24 182.977 221.595 182.977 222.032V226.064C182.977 226.502 182.622 226.856 182.184 226.856H180.693C180.256 226.856 179.901 226.502 179.901 226.064V222.032C179.901 221.595 180.256 221.24 180.693 221.24Z" fill="#0044AA"/>
<path d="M194.303 221.175H196.163C196.499 221.175 196.771 221.447 196.771 221.783V226.183C196.771 226.519 196.499 226.791 196.163 226.791H194.303C193.967 226.791 193.695 226.519 193.695 226.183V221.783C193.695 221.447 193.967 221.175 194.303 221.175Z" fill="#0044AA"/>
<path opacity="0.61" d="M200.817 234.092L195.039 231.235H182.228L176.24 234.127L200.817 234.092Z" fill="#002255"/>
<path opacity="0.65" d="M177.098 239.093L179.322 240.401H179.33C179.876 240.139 180.728 240.09 181.692 240.091C182.244 240.092 182.833 240.108 183.42 240.108C184.969 240.108 186.258 240.448 186.957 241.114C186.957 241.114 187.54 241.459 187.859 241.536C188.016 241.574 188.182 241.576 188.341 241.551C188.667 241.5 189.282 241.222 189.282 241.222C190.333 240.505 191.643 240.166 192.872 240.155C193.459 240.155 194.048 240.139 194.6 240.138C195.545 240.137 196.383 240.183 196.93 240.432L198.819 240.155L198.832 240.496L197.589 241.443C197.567 242.947 196.039 244.752 193.774 245.359C192.88 245.599 191.656 245.452 190.951 245.293C190.229 245.131 189.689 244.585 189.296 244.08C189.151 243.893 189.005 243.522 188.903 243.164C188.811 242.841 188.645 242.653 188.423 242.533C188.258 242.444 188.041 242.426 187.874 242.511C187.663 242.619 187.552 242.794 187.438 243.117C187.349 243.371 187.101 243.898 186.995 244.034C186.603 244.538 186.063 245.084 185.34 245.247C184.636 245.406 183.412 245.553 182.517 245.313C180.649 244.812 179.281 243.495 178.848 242.204L177.106 239.799L177.098 239.093Z" fill="white"/>
<path opacity="0.999" d="M203.655 262.639L205.4 264.703L208.1 265.268L203.612 289.327L198.723 346.173L195.136 347.633L193.003 348.184L198.376 290.209L203.655 262.639Z" fill="#B3B3B3"/>
<path opacity="0.999" d="M171.238 268.276L172.632 267.518L175.547 265.391L169.195 291.088L161.379 349.359L160.107 349.208L158.611 348.729L165.898 291.056L171.238 268.276Z" fill="#B3B3B3"/>
<path opacity="0.5" d="M420.725 505C420.725 505 422.941 500.542 426.511 500.416L449.697 498.92C449.697 498.92 449.321 502.375 445.193 503.691L420.725 505Z" fill="#F2F2F2"/>
<path d="M37.3489 313.717H42.5763C43.9961 313.717 45.1391 314.86 45.1391 316.279V320.93C45.1391 322.349 43.9961 323.491 42.5763 323.491H37.3489C35.9291 323.491 34.7861 322.349 34.7861 320.93V316.279C34.7861 314.86 35.9291 313.717 37.3489 313.717Z" fill="#666666"/>
<path d="M41.5266 308.881H55.9344V326.664H41.5266V308.881Z" fill="#373E48"/>
<path d="M256.321 184.911L256.893 185.514C257.871 186.546 257.849 188.186 256.844 189.19L253.217 192.813C252.211 193.817 250.615 193.794 249.636 192.762L249.065 192.159C248.087 191.127 248.108 189.488 249.114 188.483L252.74 184.861C253.746 183.856 255.343 183.879 256.321 184.911Z" fill="#808080"/>
<path d="M247.447 172.715L256.307 182.063C257.726 183.56 257.695 185.938 256.237 187.395L250.979 192.646C249.521 194.103 247.205 194.07 245.786 192.573L236.926 183.224C235.508 181.727 235.539 179.35 236.998 177.894L242.255 172.642C243.713 171.185 246.028 171.218 247.447 172.715Z" fill="#333333"/>
<path opacity="0.95" d="M118.783 332.248V339.661L130.478 385.419L118.838 385.143V386.798L47.3625 387.095V385.466L37.7654 385.448L47.3625 346.515V332.248L118.783 332.248Z" fill="#0B2228"/>
<path opacity="0.4" d="M84.7037 337.468V385.208H93.7572L88.2307 337.401L84.7037 337.468Z" fill="black"/>
<path opacity="0.4" d="M50.5548 335.899H52.6647V386.102H37.2448L50.5548 335.899Z" fill="black" stroke="black" stroke-width="0.163998"/>
<path opacity="0.4" d="M115.939 336.661H113.829V387.23H129.249L115.939 336.661Z" fill="black" stroke="black" stroke-width="0.164592"/>
<path d="M121.006 335.815V338.488H119.187L130.291 383.592H132.234V387.271H34.2214V383.592H36.2243L47.3298 338.488H45.5777V335.815H121.006ZM116.756 338.488H83.1102V383.592H127.862L116.756 338.488ZM79.4184 338.488H49.7589L38.6534 383.592H73.9042L79.4184 338.488Z" fill="#4D4D4D"/>
<path d="M133.911 266.278H33.9126L56.5163 332.778L109.264 332.585L133.911 266.278Z" fill="#FF7F2A"/>
<path d="M66.5476 225.367H16.0014C11.3039 225.367 7.52325 233.969 7.52325 244.655V257.431C7.52325 268.117 11.3039 276.719 16.0014 276.719H66.5476C71.2451 276.719 75.0258 268.117 75.0258 257.431V244.655C75.0258 233.969 71.2451 225.367 66.5476 225.367Z" fill="#373E48"/>
<path d="M29.1771 128.056L54.0503 117.504C54.0503 117.504 113.826 162.79 137.46 186.347C153.268 202.105 138.25 251.704 138.25 251.704L118.955 299.176L29.1771 128.056Z" fill="#FF7F2A"/>
<path d="M86.965 260.797C86.965 265.01 87.7407 269.181 89.2486 273.073C90.7564 276.965 92.9657 280.501 95.7519 283.479C98.538 286.458 101.846 288.821 105.486 290.433C109.126 292.045 113.028 292.875 116.968 292.875C124.926 292.874 132.558 289.495 138.185 283.479C143.811 277.463 146.972 269.304 146.972 260.797C146.972 252.29 143.811 244.131 138.185 238.115C132.558 232.099 124.926 228.72 116.968 228.719C113.028 228.719 109.126 229.549 105.486 231.161C101.846 232.773 98.538 235.136 95.7519 238.115C92.9657 241.093 90.7564 244.63 89.2486 248.521C87.7407 252.413 86.965 256.584 86.965 260.797" fill="#373E48"/>
<path d="M233.467 154.609L241.443 163.011L227.454 177.009L219.477 168.607L233.467 154.609Z" fill="#FF7F2A"/>
<path d="M244.643 159.481L248.908 163.973L228.092 184.802L223.827 180.309L244.643 159.481Z" fill="#FF7F2A"/>
<path d="M246.868 165.532L251.132 170.024L233.97 187.197L229.705 182.705L246.868 165.532Z" fill="#1C2224"/>
<path d="M42.4948 80.3428C36.5588 78.8328 30.5963 82.5239 29.1251 88.618L24.3897 108.239C22.9192 114.333 26.5144 120.455 32.4504 121.965L61.9907 129.479C66.5438 130.637 71.1104 128.733 73.6556 125.034L83.0966 127.436L89.5403 100.741L80.4132 98.4195C80.2408 93.4957 76.9365 89.1035 72.035 87.8568L42.4948 80.3428Z" fill="#FF7F2A"/>
<path d="M219.478 127.824C215.968 126.885 212.276 126.931 208.785 127.958C205.293 128.985 202.128 130.956 199.619 133.666L86.2812 103.32L81.3563 122.712L194.512 153.009C195.36 156.717 197.172 160.113 199.752 162.835C202.332 165.556 205.584 167.5 209.158 168.457C211.743 169.149 214.435 169.309 217.082 168.927C219.73 168.546 222.28 167.63 224.587 166.233C226.894 164.836 228.914 162.985 230.529 160.785C232.144 158.585 233.324 156.079 234.002 153.411C234.679 150.743 234.842 147.965 234.479 145.235C234.116 142.505 233.235 139.877 231.887 137.501C230.538 135.125 228.747 133.048 226.618 131.387C224.489 129.727 222.063 128.516 219.478 127.824V127.824Z" fill="#FF7F2A"/>
<path d="M200.912 139.908C198.81 143.667 198.237 148.122 199.318 152.294C200.4 156.465 203.047 160.01 206.678 162.15C208.475 163.209 210.46 163.892 212.519 164.158C214.578 164.425 216.672 164.269 218.679 163.702C220.686 163.135 222.568 162.167 224.217 160.853C225.867 159.538 227.251 157.904 228.292 156.042C229.333 154.181 230.009 152.129 230.283 150.004C230.556 147.879 230.422 145.721 229.886 143.656C229.351 141.59 228.425 139.657 227.162 137.966C225.899 136.275 224.325 134.859 222.527 133.8C218.896 131.66 214.579 131.103 210.525 132.248C206.471 133.393 203.014 136.149 200.912 139.908" fill="#373E48"/>
<path d="M19.4325 124.39C19.4325 130.723 21.9325 136.797 26.383 141.275C30.8335 145.753 36.8699 148.269 43.1639 148.269C46.2805 148.269 49.3661 147.651 52.2454 146.451C55.1248 145.251 57.7411 143.492 59.9448 141.275C62.1486 139.058 63.8962 136.425 65.0889 133.528C66.2816 130.631 66.8954 127.526 66.8954 124.39C66.8954 121.254 66.2816 118.149 65.0889 115.251C63.8962 112.354 62.1486 109.722 59.9448 107.504C57.7411 105.287 55.1247 103.528 52.2454 102.328C49.3661 101.128 46.2805 100.51 43.1639 100.51C36.8699 100.511 30.8335 103.026 26.383 107.505C21.9325 111.983 19.4325 118.057 19.4325 124.39Z" fill="#373E48"/>
<path opacity="0.1" d="M29.0719 87.8019L57.7983 90.6295L72.9464 95.5012L80.0987 95.9425C80.0987 95.9425 79.1514 93.1413 78.2764 91.9808C77.1873 90.537 74.1601 88.4468 74.1601 88.4468L41.4752 80C41.4752 80 37.6414 79.9994 35.8979 80.6832C34.1494 81.3688 31.3291 83.9822 31.3291 83.9822L29.0719 87.8019Z" fill="#1A1A1A"/>
<path opacity="0.5" d="M316.971 366.682C316.971 366.682 319.335 361.93 323.14 361.796L347.854 360.236C347.854 360.236 347.453 363.918 343.053 365.321L316.971 366.682Z" fill="#ECECEC"/>
<path opacity="0.25" d="M35.0046 315.134L36.6868 313.821L41.4794 313.713L41.5552 308.922L48.3434 308.844L37.2186 276.79L20.6405 273.92L75.3688 252.542L74.2789 266.195L87.715 266.446C87.715 266.446 82.5697 271.993 77.6733 275.153C75.893 276.302 72.0877 278.903 64.6763 279.102C56.5812 279.321 42.0005 277.317 42.6905 281.722C44.7266 294.714 49.719 312.364 49.719 312.364L44.284 316.921L41.3756 316.974L34.9025 318.135L35.0046 315.134Z" fill="#1A1A1A"/>
<path d="M35.1578 318.228C35.1578 318.228 14.8221 319.311 8.10433 308.076C2.98899 299.521 0.180367 287.595 4.12474 278.442C9.44691 266.09 36.8828 254.869 36.8828 254.869L81.8765 238.838C93.1707 234.336 105.407 228.439 100.651 216.291C84.5193 189.204 60.8058 173.769 64.37 159.129C66.2809 153.049 79.1499 152.414 83.7268 145.233C92.4999 131.469 89.8348 118.181 100.141 118.307C148.541 126.932 177.876 134.297 187.607 146.546C196.149 157.298 191.502 178.016 206.735 189.936C213.841 195.497 223.783 196.737 231.276 194.681C236.88 193.143 242.125 188.359 242.125 188.359" stroke="#373E48" stroke-width="3.67872"/>
<path opacity="0.25" d="M65.3635 133.216C65.3635 133.216 116.229 171.075 130.249 198.256C135.498 208.432 133.885 227.494 134.164 234.114C134.218 235.373 137.141 238.553 137.141 238.553L135.781 246.883L139.877 263.702L135.733 277.444L117.65 287.497L120.271 292.549C120.271 292.549 118.41 293.492 118.812 296.979C119.24 300.702 115.649 303.888 113.136 307.881C105.393 320.188 101.782 332.68 101.782 332.68L109.37 332.748L124.359 291.837L130.387 289.464C130.387 289.464 135.981 286.004 138.193 283.623C140.661 280.965 142.612 277.782 144.053 274.453C145.542 271.012 146.474 267.392 146.818 263.551C147.099 260.437 146.979 257.044 146.3 253.992C145.608 250.89 143.122 245.002 143.122 245.002L140.867 241.577C140.867 241.577 142.779 231.661 143.458 226.661C143.951 223.031 144.394 219.384 144.534 215.724C144.69 211.654 144.672 207.561 144.271 203.508C144.053 201.278 143.099 196.888 143.099 196.888C143.099 196.888 141.568 191.355 139.656 189.084C132.602 180.705 116.421 167 116.421 167L68.8639 128.832L66.4257 129.56L65.3635 133.216Z" fill="#333333"/>
<path opacity="0.5" d="M66.2167 129.674L69.4746 128.682C69.4746 128.682 71.061 127.725 71.7809 127.147C73.2353 125.979 73.7462 125.017 73.7462 125.017L82.9196 127.378L83.9193 123.648L66.5046 120.795L60.8646 131.983L42.3753 142.211L33.6748 146.125L39.6937 148.023L41.3492 151.245C41.3492 151.245 51.1479 150.391 55.2559 147.985C57.9829 146.387 61.7142 143.836 63.5935 140.647C64.8826 138.459 65.2245 133.205 65.2245 133.205L66.2167 129.674Z" fill="#333333"/>
<path opacity="0.25" d="M219.486 168.665L224.186 166.757L234.166 169.85L228.348 177.41L228.5 184.623L224.116 180.392L227.349 176.87L219.486 168.665Z" fill="#1A1A1A"/>
<path opacity="0.997" d="M236.45 187.6L237.598 186.511C238.471 185.683 239.84 185.719 240.668 186.591L243.552 189.629C244.38 190.501 244.344 191.87 243.471 192.698L242.324 193.786C241.451 194.614 240.082 194.578 239.254 193.706L236.37 190.668C235.542 189.796 235.578 188.427 236.45 187.6H236.45Z" fill="#666666"/>
<path opacity="0.997" d="M103.859 122.118L105.52 115.329C105.929 113.657 107.605 112.64 109.277 113.049L172.002 128.386C173.675 128.795 174.692 130.47 174.283 132.142L172.622 138.931C172.212 140.602 170.537 141.619 168.864 141.21L106.139 125.874C104.467 125.465 103.45 123.79 103.859 122.118Z" fill="#666666"/>
<path opacity="0.997" d="M61.1376 168.589L64.7633 166.021C66.1682 165.026 68.1004 165.355 69.0958 166.76L73.7758 173.363C74.7712 174.767 74.4415 176.698 73.0367 177.693L69.411 180.261C68.0062 181.256 66.0739 180.926 65.0785 179.522L60.3985 172.92C59.4032 171.515 59.7328 169.584 61.1376 168.589Z" fill="#666666"/>
<path opacity="0.997" d="M86.9581 202.432L90.5838 199.864C91.9886 198.869 93.9209 199.199 94.9162 200.603L99.5963 207.205C100.592 208.61 100.262 210.541 98.8571 211.536L95.2314 214.104C93.8266 215.099 91.8943 214.77 90.899 213.365L86.219 206.762C85.2236 205.358 85.5532 203.427 86.9581 202.432V202.432Z" fill="#666666"/>
<path opacity="0.3" d="M104.055 122.109L105.716 115.32C106.125 113.648 107.801 112.631 109.473 113.04L172.199 128.377C173.871 128.786 174.888 130.461 174.479 132.132L172.818 138.922C172.408 140.593 170.733 141.61 169.06 141.201L106.335 125.865C104.663 125.456 103.646 123.781 104.055 122.109Z" fill="#4D4D4D"/>
<path d="M430.194 254.341H520.544L500.121 314.424L452.463 314.25L430.194 254.341Z" fill="#FFCC00"/>
<path d="M520.689 291.785H515.343C513.891 291.785 512.722 292.953 512.722 294.405V299.161C512.722 300.612 513.891 301.781 515.343 301.781H520.689C522.141 301.781 523.31 300.612 523.31 299.161V294.405C523.31 292.953 522.141 291.785 520.689 291.785Z" fill="#666666"/>
<path d="M516.416 286.838H501.681V305.025H516.416V286.838Z" fill="#373E48"/>
<path d="M288.482 284.584L288.369 285.455C288.206 286.712 289.086 287.863 290.343 288.034L294.874 288.653C296.131 288.825 297.273 287.951 297.436 286.694L297.549 285.822C297.712 284.565 296.832 283.415 295.575 283.243L291.044 282.624C289.787 282.453 288.645 283.327 288.482 284.584H288.482Z" fill="#808080"/>
<path d="M288.514 270.802L286.979 282.657C286.742 284.48 288.019 286.147 289.841 286.396L296.411 287.293C298.233 287.542 299.89 286.275 300.126 284.452L301.661 272.598C301.898 270.775 300.621 269.107 298.799 268.858L292.229 267.961C290.407 267.713 288.75 268.98 288.514 270.802Z" fill="#333333"/>
<path opacity="0.95" d="M443.863 313.945V320.642L433.296 361.985L443.812 361.736V363.231L508.392 363.499V362.028L517.061 362.014L508.392 326.838V313.948L443.863 313.945Z" fill="#0B2228"/>
<path opacity="0.4" d="M474.653 318.662V361.795H466.472L471.466 318.601L474.653 318.662Z" fill="black"/>
<path opacity="0.4" d="M505.509 317.244H503.601V362.602H517.534L505.509 317.244Z" fill="black" stroke="black" stroke-width="0.148174"/>
<path opacity="0.4" d="M446.432 317.933H448.339V363.622H434.406L446.432 317.933Z" fill="black" stroke="black" stroke-width="0.14871"/>
<path d="M441.856 317.168V319.583H443.499L433.467 360.335H431.711V363.659H520.266V360.335H518.456L508.423 319.583H510.006V317.168H441.856ZM445.694 319.583H476.095V360.335H435.662L445.694 319.583ZM479.431 319.583H506.228L516.262 360.335H484.413L479.431 319.583Z" fill="#4D4D4D"/>
<path d="M491.059 217.377H536.726C540.97 217.377 544.387 225.15 544.387 234.804V246.347C544.387 256.002 540.97 263.774 536.726 263.774H491.059C486.815 263.774 483.398 256.002 483.398 246.347V234.804C483.398 225.15 486.815 217.377 491.059 217.377Z" fill="#373E48"/>
<path d="M431.301 120.46L409.386 131.276C409.386 131.276 403.011 199.874 404.193 230.405C404.985 250.827 446.545 270.366 446.545 270.366L489.289 285.67L431.301 120.46Z" fill="#FFCC00"/>
<path d="M481.4 247.735C481.4 255.422 478.544 262.793 473.461 268.229C468.377 273.664 461.482 276.717 454.292 276.717C447.103 276.717 440.208 273.664 435.124 268.229C430.04 262.793 427.184 255.422 427.184 247.735C427.184 240.049 430.04 232.677 435.124 227.242C440.208 221.806 447.103 218.753 454.292 218.753C461.482 218.753 468.377 221.806 473.461 227.242C478.544 232.677 481.4 240.049 481.4 247.735" fill="#373E48"/>
<path d="M289.127 250.024L287.757 260.531L305.25 262.935L306.62 252.429L289.127 250.024Z" fill="#FFCC00"/>
<path d="M283.583 259.743L282.85 265.361L308.88 268.939L309.613 263.321L283.583 259.743Z" fill="#1C2224"/>
<path d="M285.148 265.361L284.415 270.979L305.877 273.929L306.609 268.311L285.148 265.361Z" fill="#1C2224"/>
<path d="M286.266 220.949C288.811 218.829 291.864 217.449 295.11 216.953C298.356 216.457 301.677 216.863 304.728 218.129L386.889 149.651L398.004 163.708L315.974 232.077C316.628 235.452 316.376 238.941 315.245 242.17C314.115 245.399 312.149 248.246 309.558 250.405C307.684 251.967 305.527 253.133 303.211 253.835C300.894 254.538 298.463 254.764 296.057 254.501C293.651 254.238 291.316 253.49 289.186 252.301C287.056 251.112 285.172 249.504 283.643 247.57C282.113 245.636 280.968 243.413 280.272 241.029C279.576 238.644 279.344 236.145 279.587 233.673C279.831 231.201 280.546 228.805 281.692 226.622C282.838 224.439 284.392 222.511 286.266 220.949V220.949Z" fill="#FFCC00"/>
<path d="M305.939 223.758C309.037 226.043 311.132 229.487 311.762 233.333C312.392 237.179 311.506 241.111 309.3 244.265C307.093 247.419 303.745 249.536 299.994 250.151C296.243 250.766 292.395 249.827 289.297 247.542C287.763 246.411 286.459 244.983 285.46 243.34C284.461 241.697 283.786 239.871 283.474 237.967C283.162 236.063 283.219 234.117 283.641 232.241C284.064 230.366 284.844 228.596 285.937 227.035C288.143 223.881 291.491 221.763 295.242 221.149C298.993 220.534 302.841 221.473 305.939 223.758" fill="#373E48"/>
<path d="M414.532 113.939C418.864 110.418 425.113 111.164 428.542 115.612L439.584 129.931C443.013 134.378 442.287 140.793 437.956 144.314L416.397 161.838C413.074 164.539 408.625 164.726 405.185 162.661L398.294 168.262L383.27 148.78L389.93 143.367C388.277 139.252 389.394 134.37 392.972 131.462L414.532 113.939Z" fill="#FFCC00"/>
<path d="M444.98 143.876C444.98 146.709 444.426 149.515 443.348 152.132C442.271 154.75 440.691 157.128 438.7 159.132C436.709 161.135 434.345 162.724 431.744 163.809C429.142 164.893 426.354 165.451 423.538 165.451C417.851 165.451 412.397 163.178 408.376 159.132C404.355 155.086 402.096 149.598 402.096 143.876C402.096 138.154 404.355 132.666 408.376 128.62C412.397 124.574 417.851 122.301 423.538 122.301C426.354 122.301 429.142 122.859 431.744 123.943C434.345 125.027 436.709 126.616 438.7 128.62C440.691 130.623 442.271 133.002 443.348 135.619C444.426 138.237 444.98 141.043 444.98 143.876" fill="#373E48"/>
<path opacity="0.2" d="M453.067 313.891L465.215 313.949L451.227 276.101L461.42 262.476L427.053 243.324C427.053 243.324 414.919 233.969 412.444 227.135C405.332 207.503 411.995 161.762 411.995 161.762L407.212 157.777L404.34 206.362L404.266 235.313L410.496 244.206L416.838 250.799L429.984 261.07L435.283 268.856L453.067 313.891Z" fill="#1A1A1A"/>
<path opacity="0.25" d="M490.133 263.721L511.11 269.699L507.3 288.558L513.306 295.606L516.423 301.087L523.131 300.561L523.058 294.669L521.478 292.05L515.87 291.616V287.112L509.761 286.685L517.2 263.978L509.361 259.621L490.452 217.216L485.844 221.438L483.15 237.606L483.635 252.527L486.49 261.268L490.133 263.721Z" fill="#1A1A1A"/>
<path opacity="0.2" d="M292.51 260.682L298.712 253.948L306.728 252.417L305.091 262.62L309.657 263.598L308.57 268.936L292.51 260.682Z" fill="#1A1A1A"/>
<path opacity="0.2" d="M320.764 220.612L319.983 228.623L318.383 230.195L317.444 226.846L317.862 222.761L320.764 220.612Z" fill="#1A1A1A"/>
<path opacity="0.1" d="M434.018 121.294L424.772 112.903L420.779 111.672L417.089 112.438L411.595 116.279L395.235 129.598L391.058 133.247L389.106 139.396L397.979 135.8L407.509 123.691L422.757 118.027L434.018 121.294Z" fill="#1A1A1A"/>
<path d="M290.253 288.386L279.127 302.877L300.798 305.733L293.798 288.832L290.253 288.386Z" fill="#D40000"/>
<path d="M301.712 279.793C301.712 279.793 307.237 284.67 319.634 281.088C330.201 277.21 334.137 273.225 328.262 256.671C321.465 240.549 310.275 227.176 317.902 220.006C333.937 204.932 360.434 172.688 381.135 168.447C388.212 166.997 390.143 172.59 409.158 176.346C425.676 179.609 431.004 164.407 438.703 168.563C445.82 180.738 448.735 200.134 456.723 211.569C462.342 220.723 499.04 205.435 509.366 212.643C530.159 227.157 528.394 242.968 538.661 260.104C543.185 267.655 547.435 274.387 548.114 283.163C548.84 292.545 535.484 296.803 535.484 296.803L523.171 296.937" stroke="#373E48" stroke-width="3.76223"/>
<path d="M324.311 219.228L319.682 213.779C318.542 212.438 318.705 210.44 320.047 209.301L370.384 166.568C371.726 165.429 373.724 165.592 374.864 166.933L379.493 172.382C380.632 173.723 380.47 175.72 379.127 176.86L328.791 219.593C327.449 220.732 325.451 220.569 324.311 219.228L324.311 219.228Z" fill="#666666"/>
<path opacity="0.997" d="M449.343 199.336L452.897 198.306C454.275 197.907 455.705 198.694 456.104 200.07L457.981 206.542C458.38 207.919 457.593 209.348 456.216 209.748L452.662 210.778C451.285 211.177 449.855 210.39 449.455 209.013L447.578 202.541C447.179 201.164 447.966 199.735 449.343 199.336V199.336Z" fill="#666666"/>
<path opacity="0.997" d="M440.889 175.813L444.443 174.783C445.82 174.384 447.25 175.171 447.65 176.548L449.527 183.02C449.926 184.397 449.139 185.826 447.762 186.225L444.208 187.255C442.831 187.654 441.401 186.867 441.001 185.491L439.124 179.018C438.725 177.642 439.512 176.212 440.889 175.813V175.813Z" fill="#666666"/>
<path opacity="0.997" d="M302.306 277.182L303.626 277.3C304.63 277.389 305.367 278.268 305.277 279.272L304.967 282.767C304.878 283.77 303.998 284.506 302.994 284.417L301.674 284.3C300.67 284.211 299.933 283.331 300.023 282.328L300.333 278.833C300.422 277.829 301.302 277.093 302.306 277.182L302.306 277.182Z" fill="#666666"/>
<path opacity="0.1" d="M318.408 472.675L318.195 472.711C318.195 472.711 324.839 469.707 318.408 472.675Z" fill="black"/>
<path opacity="0.1" d="M379.634 496.193L379.766 497.177C379.644 496.867 379.599 496.53 379.634 496.193V496.193Z" fill="black"/>
<path d="M145.224 361.794C145.224 361.794 221.765 314.218 271.386 313.862C271.386 313.862 292.274 315.682 322.843 316.654C342.563 317.281 366.017 314.669 391.477 320.645C456.403 335.886 480.334 356.078 498.371 349.97L422.677 352.726L145.224 361.794Z" fill="#121C3F"/>
<path d="M489.84 373.53L489.637 436.822L51.8975 440.205L64.0991 388.191L138.605 366.305L489.84 373.53Z" fill="#121C3F"/>
<path d="M512.783 404.201L512.725 420.772C512.725 420.772 499.696 431.023 498.49 438.982C498.49 438.982 479.864 444.214 474.55 444.255C474.067 444.26 473.541 444.265 472.989 444.327C473.827 441.922 474.484 439.45 474.954 436.936C476.28 429.88 476.139 422.612 474.541 415.655C472.944 408.698 469.929 402.226 465.715 396.705C461.501 391.183 456.192 386.75 450.171 383.725C444.149 380.699 437.566 379.157 430.894 379.208C424.222 379.26 417.628 380.904 411.587 384.023C405.545 387.142 400.208 391.657 395.958 397.244C391.708 402.831 388.652 409.35 387.01 416.332C385.367 423.313 385.18 430.584 386.461 437.62C387.076 441.012 388.028 444.319 389.3 447.485L364.067 447.68C364.067 447.68 363.831 447.767 363.454 447.948C362.099 448.618 358.904 450.382 358.436 453.122L149.318 454.738L145.033 454.733C145.949 453.08 146.772 451.369 147.498 449.612C148.852 446.356 149.861 442.95 150.506 439.458C151.772 432.789 151.729 425.923 150.379 419.303C149.03 412.683 146.405 406.456 142.672 401.023C138.939 395.59 134.182 391.071 128.708 387.759C123.233 384.446 117.162 382.413 110.887 381.791C104.612 381.168 98.2707 381.97 92.273 384.145C86.2754 386.319 80.7542 389.818 76.0652 394.416C71.3762 399.014 67.6236 404.608 65.0493 410.839C62.475 417.07 61.1361 423.798 61.1188 430.591C61.1085 433.793 61.3895 436.986 61.9577 440.122C62.927 445.433 64.7191 450.521 67.2591 455.175C64.2744 454.414 57.7621 452.237 57.7621 452.237C57.7621 452.237 30.0113 449.274 22.9442 442.619L24.018 441.813L28.5705 438.436L26.5291 429.883C26.2804 429.523 26.0759 429.131 25.9205 428.714C25.3742 427.288 24.8989 424.635 26.8564 421.285C29.8232 416.174 28.406 398.058 28.406 398.058C28.406 398.058 68.6712 367.855 147.851 360.56C147.851 360.56 149.738 362.127 153.642 362.426C156.285 362.637 159.856 362.26 164.398 360.432C164.398 360.432 170.882 363.559 198.723 346.173C198.723 346.173 246.099 310.82 308.119 313.531C308.119 313.531 371.932 308.898 426.205 331.074C449.596 340.622 467.398 345.672 480.092 348.316C491.812 350.763 499.176 351.174 502.548 351.187L502.622 351.187C503.724 351.177 504.378 351.171 504.612 351.171L504.713 351.171C504.713 351.171 504.713 358.744 505.033 367.686V367.732C505.158 370.842 505.333 374.116 505.578 377.298V377.496C506.26 386.356 507.458 394.401 509.577 395.98L512.783 404.201Z" fill="#CCCCCC"/>
<path d="M34.7974 397.283C34.7974 397.283 52.6408 382.196 74.7846 385.208C74.7846 385.208 54.5709 402.541 45.4898 401.498L43.9456 400.079L34.762 400.704C34.762 400.704 33.3981 398.407 34.8126 397.283H34.7974Z" fill="#121C3F"/>
<path opacity="0.2" d="M51.9893 423.014L51.932 431.84C51.932 431.84 51.2926 440.276 44.2219 440.647L24.0173 441.877L28.5638 438.5L26.5224 429.947C26.2726 429.591 26.068 429.2 25.9138 428.785C27.7563 426.952 32.0941 423.847 40.8988 423.12L51.9893 423.014Z" fill="white"/>
<path d="M301.769 322.284L287.303 362.88L235.612 363.339L222.304 363.441L210.728 363.531L200.719 363.609L189.382 363.696C189.382 363.696 196.305 358.185 207.45 351.145C211.13 348.81 215.307 346.312 219.839 343.799C224.009 341.473 228.497 339.118 233.211 336.88C236.89 335.111 240.764 333.407 244.724 331.814C262.676 324.616 282.844 319.721 301.769 322.284V322.284Z" fill="#121C3F"/>
<path d="M382.89 349.672C382.89 349.672 361.282 353.287 340.663 355.997C332.781 357.033 325.047 357.937 318.716 358.454L317.834 358.527C315.385 358.717 313.114 358.846 311.186 358.901C308.124 358.984 305.835 358.856 304.692 358.47L310.772 319.699C310.772 319.699 318.118 319.729 328.981 320.217L331.356 320.338C333.615 320.458 335.995 320.598 338.48 320.764C342.03 321 345.77 321.287 349.625 321.64C368.24 323.335 389.325 326.474 402.663 332.317C431.045 344.766 382.89 349.673 382.89 349.673V349.672Z" fill="#121C3F"/>
<path d="M482.364 368.381L482.313 378.717C482.313 378.717 466.807 379.074 470.142 375.713C472.3 373.481 474.261 371.039 475.999 368.417L482.364 368.381Z" fill="#121C3F"/>
<path d="M505.566 377.482L492.97 378.641L493.021 366.216C493.021 366.216 498.883 357.345 504.685 367.081L505.019 367.652L505.566 377.482Z" fill="#121C3F"/>
<path opacity="0.5" d="M363.464 447.922C362.109 448.592 358.914 450.356 358.446 453.095L149.322 454.712L145.036 454.706C145.953 453.053 146.776 451.343 147.502 449.586L363.464 447.922Z" fill="#666666"/>
<path opacity="0.1" d="M260.732 395.128C260.083 396.118 259.489 397.148 258.954 398.213C254.948 406.411 245.735 393.207 248.951 388.595L251.169 386.356C250.327 396.896 258.294 395.714 260.732 395.128Z" fill="black"/>
<path opacity="0.1" d="M275.971 413.598L275.758 413.6C275.758 413.6 282.805 411.502 275.971 413.598Z" fill="black"/>
<path opacity="0.1" d="M334.046 451.32V452.44C333.965 452.073 333.965 451.689 334.046 451.32V451.32Z" fill="black"/>
<path d="M8.04517 478.284L538.838 476.526L538.878 490.155L8.08546 491.913L8.04517 478.284Z" fill="#535D6C"/>
<path d="M107.428 431.991L122.138 431.866L132.618 470.182L99.3229 470.287L107.428 431.991Z" fill="#373E48"/>
<path d="M436.429 433.244L451.138 433.119L461.619 471.435L428.324 471.54L436.429 433.244Z" fill="#373E48"/>
<path d="M268.93 453.118L291.215 453.005L306.982 474.003L256.539 474.162L268.93 453.118Z" fill="#373E48"/>
<path d="M17.9526 461.231L551.651 459.464L551.692 473.093L17.9929 474.859L17.9526 461.231Z" fill="#535D6C"/>
<path d="M422.814 433.297L439.885 433.146L452.059 481.163L413.418 481.285L422.814 433.297Z" fill="#535D6C"/>
<path d="M96.9124 431.958L113.983 431.807L126.157 479.824L87.5162 479.946L96.9124 431.958Z" fill="#535D6C"/>
<path opacity="0.15" d="M21.2607 458.807L554.96 457.04L555 470.669L21.301 472.435L21.2607 458.807Z" fill="#1C1F24"/>
<path d="M251.14 452.778L277.744 452.627L296.591 485.372L236.371 485.562L251.14 452.778Z" fill="#535D6C"/>
<path opacity="0.2" d="M98.8008 432.412L115.871 432.26L128.046 480.277L89.4045 480.399L98.8008 432.412Z" fill="#1C1F24"/>
<path opacity="0.2" d="M12.9502 478.039L540.64 476.281L540.68 489.91L12.9905 491.668L12.9502 478.039Z" fill="#1C1F24"/>
<path opacity="0.2" d="M253.128 450.09L279.731 449.939L298.578 482.684L238.358 482.874L253.128 450.09Z" fill="#1C1F24"/>
<path opacity="0.2" d="M424.68 432.255L441.751 432.104L453.925 480.12L415.284 480.243L424.68 432.255Z" fill="#1C1F24"/>
<path d="M289.575 314.51C289.622 315.755 290.562 314.648 290.39 315.402C290.279 315.89 289.33 315.8 289.033 316.232C288.861 316.482 288.851 316.836 288.604 317.136C288.291 317.52 287.98 318.118 288.135 318.459C288.422 319.091 289.425 318.089 290.093 318.279C290.768 318.47 290.012 319.664 290.883 319.838C291.568 319.975 291.408 318.785 292.7 318.43C293.11 318.318 293.534 319.071 294.033 319.02C294.959 318.926 295.331 317.929 296.029 317.993C297.044 318.085 297.776 319.885 298.757 320.797C299.9 321.86 301.273 321.106 301.94 322.026C302.381 322.635 301.859 323.563 302.058 324.277C302.328 325.242 300.399 330.585 300.399 330.585L301.858 339.596C301.858 339.596 304.905 342.518 305.828 342.295C307.826 341.814 309.375 326.012 310.336 322.604L310.767 319.691L318.78 319.815L332.258 320.379L350.661 321.713L375.545 324.902L389.89 328.003L401.49 331.936L407.968 335.062L410.297 336.961C410.297 336.961 411.062 337.811 411.262 338.333C411.508 338.979 411.662 339.719 411.508 340.393C411.36 341.041 410.886 341.59 410.427 342.072C410 342.52 408.916 343.153 408.916 343.153L406.751 344.345L403.859 345.537L402.026 346.009L415.321 378.081L500.411 360.685L504.862 360.799L504.96 351.222L501.478 351.162L491.026 350.419L463.522 344.274L410.822 325.484L391.224 320.185L369.073 316.249L358.611 314.98L351.174 314.317L341.985 313.49L319.509 313.159L291.048 313.707C291.048 313.707 289.562 314.122 289.577 314.51L289.575 314.51Z" fill="#D40000"/>
</g>
<defs>
<clipPath id="clip0">
<rect width="498" height="144" fill="white" transform="translate(213)"/>
</clipPath>
<clipPath id="clip1">
<rect width="555" height="425" fill="white" transform="translate(0 80)"/>
</clipPath>
</defs>
</svg>
