<svg width="794" height="587" viewBox="0 0 794 587" fill="none" xmlns="http://www.w3.org/2000/svg">
<g clip-path="url(#clip0)">
<path opacity="0.09" d="M25.6871 585.14L193.099 490.589L435.573 544.452L625.115 586.554L25.6871 585.14Z" fill="#1C2224"/>
<path d="M333.489 516.62C333.489 516.62 333.221 516.77 332.76 517C333.008 516.874 333.251 516.747 333.489 516.62Z" fill="url(#paint0_linear)"/>
<path d="M275.585 353.968C288.421 360.659 304.735 432.335 304.735 432.335C303.399 449.708 305.003 476.459 310.351 490.901C313.593 500.075 314.957 509.807 314.362 519.511C316.231 521.086 318.929 521.846 321.737 521.398C329.374 520.163 338.43 513.091 338.43 513.091C338.43 513.091 335.489 434.996 333.347 432.064C331.209 429.119 333.347 412.275 333.347 412.275L329.874 384.995C329.874 384.995 330.407 338.726 325.324 330.705C320.94 323.783 319.929 311.608 319.732 308.405C319.705 307.903 319.691 307.618 319.691 307.618L311.954 298.348C303.744 310.355 301.614 303.163 294.095 314.824C290.786 319.955 287.041 320.115 284.023 326.027C281.482 331.002 275.585 353.968 275.585 353.968Z" fill="#0B1728"/>
<path opacity="0.1" d="M304.739 432.322C303.403 449.708 305.007 476.446 310.355 490.887C313.598 500.058 314.962 509.788 314.366 519.498C316.235 521.086 318.835 521.357 321.642 520.896C320.029 509.617 313.155 461.028 308.751 422.631C303.736 378.914 280.27 348.824 280.27 348.824L275.589 353.968C288.425 360.659 304.739 432.322 304.739 432.322Z" fill="black"/>
<path d="M311.183 539.694C314.797 547.487 319.46 549.016 322.2 549.392C322.2 549.392 339.547 551.969 342.709 539.907C344.693 538.152 342.542 528.553 340.101 521.457C338.153 515.795 338.43 513.092 338.43 513.092C338.43 513.092 338.063 488.431 337.065 493.498C337.065 493.498 314.846 499.423 311.373 493.003C311.373 493.003 314.655 516.684 314.362 519.511C314.362 519.511 310.407 547.463 311.18 539.721L311.183 539.694Z" fill="black"/>
<path d="M347.536 168.552L341.788 183.669L340.948 214.523L361.848 217.898C361.848 217.898 399.026 208.615 387.085 196.387C385.63 194.96 384.492 193.241 383.734 191.351C382.295 187.524 382.827 178.826 384.689 175.851L387.152 170.999L371.552 161.661C370.348 166.194 371.552 161.661 371.552 161.661C366.817 169.635 355.089 168.558 351.533 168.893C350.193 169.044 348.833 168.929 347.536 168.552Z" fill="#DEAA87"/>
<path opacity="0.1" d="M347.536 168.553L341.788 183.669L340.948 214.523L361.848 217.898C361.848 217.898 399.026 208.616 387.085 196.387C385.629 194.96 384.488 193.245 383.734 191.351C381.864 199.932 362.206 207.821 362.206 207.821C359.856 208.839 357.769 205.95 357.769 205.95C351.666 200.663 351.516 173.4 351.533 168.893C350.191 169.044 348.833 168.929 347.536 168.553Z" fill="black"/>
<path d="M357.949 200.231C357.949 200.231 364.893 194.398 367.391 193.189C373.783 190.098 381.56 194.224 383.448 190.473L398.174 211.199C398.174 211.199 409.695 216.837 402.721 237.423C401.529 240.838 399.124 248.669 397.792 252.091C396.66 254.688 396.639 255.102 393.783 263.076C389.404 275.302 377.117 297.822 365.668 293.704C354.218 289.585 351.352 286.218 351.352 286.218C351.352 286.218 326.875 327.881 329.711 336.237C332.546 344.592 312.666 330.45 312.666 330.45C312.666 330.45 309.114 326.316 299.118 321.879C298.141 321.446 299.592 282.827 298.42 282.09C299.428 280.276 298.777 237.341 298.777 237.341C307.026 227.262 301.491 232.714 301.491 232.714L299.887 186.42C299.887 186.42 305.992 166.339 325.267 166.974C344.541 167.609 351.118 168.916 351.118 168.916C351.118 168.916 352.638 186.235 359.291 192.012L357.949 200.231Z" fill="#162D50"/>
<path d="M314.897 261.831C314.897 261.831 343.339 271.386 348.879 267.71C354.419 264.033 368.007 256.554 368.007 256.554L367.62 251.411L349.694 253.23C349.694 253.23 328.22 255.579 320.819 252.467C313.426 249.345 314.897 261.831 314.897 261.831L314.897 261.831Z" fill="#DEAA87"/>
<path d="M312.685 223.657L304.228 237.029L306.376 238.387C316.99 245.098 325.721 254.4 331.746 265.418L334.362 270.195L335.059 271.491L351.825 260.285L349.023 250.397C349.023 250.397 348.908 250.324 348.692 250.188C347.009 249.346 339.808 245.584 337.523 242.776C335.363 240.094 333.816 234.963 324.384 231.914C319.744 230.406 313.502 232.719 310.505 228.874L312.685 223.657Z" fill="#DEAA87"/>
<path d="M349.791 168.647C349.791 168.647 324.58 165.732 325.227 166.965L327.279 172.02L301.451 232.705L299.428 280.276L351.19 195.207C347.004 187.946 349.795 168.65 349.795 168.65L349.791 168.647Z" fill="#2C5AA0"/>
<path d="M385.728 193.642C382.18 194.711 379.371 196.517 369.569 198.687L298.733 321.504C307.94 326.234 312.635 331.318 312.635 331.318C312.635 331.318 332.722 345.909 329.915 337.508C327.079 329.152 351.205 285.604 351.205 285.604L351.056 283.845C351.056 283.845 341.722 268.447 354.685 269.275C357.216 269.449 349.825 254.852 349.825 254.852C351.157 251.43 367.035 253.816 368.219 250.412C375.194 229.826 397.853 210.49 397.853 210.49L385.728 193.642Z" fill="#2C5AA0"/>
<path opacity="0.999" d="M338.933 167.549L345.748 168.087C345.748 168.087 340.839 197.61 339.213 200.049L298.54 266.548L298.395 250.876L338.607 186.353L338.933 167.549Z" fill="#B3B3B3"/>
<path opacity="0.999" d="M392.165 202.627L388.221 196.788L375.187 206.076L329.526 276.52L302.579 325.021L308.931 329.038L335.423 282.405L381.447 210.907L392.165 202.627Z" fill="#B3B3B3"/>
<path d="M358.73 166.427L350.066 167.752L351.19 195.207L359.855 193.881L358.73 166.427Z" fill="#162D50"/>
<path d="M363.032 193.522L364.468 203.101L386.277 194.608L384.448 186.588L363.032 193.522Z" fill="#162D50"/>
<path d="M339.939 244.096C339.939 244.096 332.132 261.239 324.12 265.017C324.12 265.017 340.831 279.707 352.724 286.278L367.545 263.236L339.939 244.096Z" fill="#162D50"/>
<path d="M388.069 116.21C396.896 117.201 402.641 129.233 401.176 143.185L400.839 146.413C400.864 146.415 400.889 146.418 400.913 146.422C401.182 146.452 401.434 146.61 401.655 146.888C401.875 147.166 402.06 147.559 402.198 148.043C402.336 148.526 402.426 149.092 402.461 149.708C402.496 150.324 402.476 150.978 402.402 151.632C402.253 152.95 401.895 154.19 401.407 155.078C400.918 155.967 400.339 156.431 399.797 156.37C398.308 170.294 389.111 180.787 380.295 179.797L373.95 179.085C365.435 178.129 358.966 164.05 359.913 150.553C359.815 150.559 359.719 150.548 359.624 150.521C359.355 150.491 359.103 150.333 358.883 150.054C358.663 149.776 358.478 149.384 358.34 148.9C358.201 148.416 358.112 147.85 358.077 147.234C358.042 146.618 358.062 145.965 358.136 145.311C358.209 144.657 358.334 144.015 358.505 143.422C358.676 142.829 358.888 142.297 359.13 141.856C359.373 141.415 359.64 141.073 359.916 140.851C360.193 140.629 360.474 140.53 360.743 140.56C360.827 140.557 360.911 140.567 360.992 140.588L361.215 138.599C362.77 124.657 371.152 114.21 379.98 115.202L388.086 116.112L388.069 116.21Z" fill="#DEAA87"/>
<path opacity="0.6" d="M359.898 145.915C359.657 145.864 359.617 145.024 359.811 144.038C360.004 143.053 360.357 142.295 360.598 142.345C360.84 142.396 360.879 143.236 360.686 144.222C360.492 145.208 360.14 145.966 359.898 145.915Z" fill="black"/>
<path opacity="0.6" d="M400.75 152.157C400.997 152.161 401.221 151.35 401.251 150.346C401.281 149.342 401.106 148.525 400.859 148.521C400.612 148.517 400.388 149.328 400.358 150.331C400.328 151.335 400.503 152.153 400.75 152.157Z" fill="black"/>
<path d="M384.069 113.521C395.183 114.768 402.417 126.055 401.637 138.919L401.301 144.463C400.753 148.055 400.911 148.036 400.566 151.113C400.22 154.19 400.213 154.252 399.845 156.976L398.812 161.378C398.201 163.987 396.476 168.436 394.542 171.273C392.908 173.667 390.801 175.746 388.008 177.747C384.186 180.146 383.108 180.614 380.055 180.208L373.773 179.365C371.634 178.988 367.693 176.568 365.613 173.306C363.422 169.894 364.146 171.064 362.979 168.718C361.299 165.351 358.661 158.797 359.271 153.36L359.311 153.001C359.795 149.351 359.769 149.361 360.104 146.383C360.437 143.417 360.437 143.417 360.678 140.816L361.398 134.402C362.837 121.586 372.943 112.271 384.058 113.519L384.069 113.521ZM385.744 127.887L379.235 127.519L371.082 126.454L368.054 128.529L367.208 132.313L365.828 136.051L362.858 138.545L361.766 142.465L360.464 154.845L360.685 159.15L362.332 163.89L365.257 170.125L368.284 174.382L371.623 176.959L374.107 177.426C374.966 177.197 377.225 173.158 377.486 171.298L378.31 171.39C378.505 172.513 378.048 176.779 379.286 178.032L383.027 178.327L386.054 176.489L391.271 173.045L393.36 170.402L395.501 166.713L397.103 163.063L398.38 158.664L399.643 146.291L398.582 141.054L397.083 138.283C397.028 136.812 397.209 135.844 397.296 134.765C397.346 134.083 397.492 132.572 397.327 131.865C397.186 131.261 396.651 131.151 396.651 131.151C396.066 130.823 396.263 130.52 395.639 130.212C395.287 130.035 394.934 129.882 394.578 129.73C392.012 128.678 389.291 128.348 385.734 127.911L385.744 127.887Z" fill="#333333"/>
<path d="M386.51 151.91C385.692 151.818 385.112 151.001 385.215 150.084C385.318 149.168 386.064 148.499 386.882 148.591C387.7 148.683 388.28 149.5 388.177 150.417C388.074 151.333 387.328 152.002 386.51 151.91Z" fill="black"/>
<path d="M374.629 150.381C373.811 150.289 373.232 149.471 373.335 148.555C373.438 147.638 374.184 146.97 375.002 147.062C375.82 147.153 376.4 147.971 376.297 148.887C376.194 149.804 375.447 150.472 374.629 150.381Z" fill="black"/>
<path d="M377.266 160.728L381.997 161.259C382.112 161.272 382.194 161.375 382.181 161.49L382.145 161.813C382.132 161.927 382.029 162.009 381.914 161.997L377.183 161.465C377.068 161.452 376.986 161.349 376.999 161.235L377.035 160.912C377.048 160.798 377.151 160.715 377.266 160.728Z" fill="black"/>
<path d="M383.391 143.779L390.398 144.565C390.64 144.592 390.814 144.811 390.787 145.053L390.71 145.736C390.683 145.978 390.465 146.153 390.222 146.125L383.216 145.339C382.973 145.312 382.799 145.093 382.826 144.851L382.903 144.168C382.93 143.926 383.149 143.751 383.391 143.779Z" fill="black"/>
<path d="M372.085 142.353L379.068 143.137C379.317 143.165 379.496 143.389 379.468 143.638L379.389 144.34C379.361 144.589 379.137 144.768 378.888 144.74L371.905 143.957C371.656 143.929 371.477 143.704 371.505 143.455L371.584 142.753C371.612 142.504 371.836 142.325 372.085 142.353Z" fill="black"/>
<path d="M386.2 165.937C386.023 167.496 385.11 168.907 383.663 169.86C382.215 170.814 380.351 171.231 378.481 171.021C376.61 170.811 374.886 169.991 373.686 168.74C372.486 167.49 371.909 165.911 372.081 164.351L386.2 165.937Z" fill="#F2F2F2"/>
<path d="M385.695 166.038C385.538 167.418 384.687 168.661 383.331 169.496C381.974 170.331 380.221 170.689 378.458 170.491C376.696 170.293 375.066 169.556 373.928 168.441C372.79 167.326 372.237 165.924 372.389 164.544L385.695 166.038Z" fill="white"/>
<path d="M385.684 165.11C385.622 165.103 385.693 164.923 385.706 164.9C386.057 164.539 386.655 164.793 387.065 165.227C387.525 165.73 387.352 166.361 387.024 166.875C387.013 166.873 386.609 167.379 386.525 167.144C386.49 167.015 386.838 166.303 386.85 166.242C386.943 165.739 386.957 165.954 386.805 165.474C386.462 165.16 386.258 165.112 385.85 165.129L385.684 165.11Z" fill="#808080"/>
<path d="M372.595 163.778C372.657 163.785 372.665 163.611 372.655 163.585C372.393 163.155 371.79 163.212 371.295 163.557C370.733 163.945 370.665 164.488 370.872 165.061C370.883 165.063 371.146 165.305 371.182 165.284C371.269 165.294 371.162 164.794 371.157 164.73C371.116 164.2 371.115 164.213 371.539 163.922C371.919 163.665 372.032 163.677 372.425 163.797L372.595 163.778Z" fill="#808080"/>
<path d="M389.51 111.904C398.027 112.86 403.9 123.243 403.999 136.143L361.168 131.335C364.065 118.771 372.187 109.959 380.703 110.915L389.51 111.904Z" fill="#2C5AA0"/>
<path d="M383.48 108.045L387.104 108.452C388.026 108.556 388.69 109.387 388.587 110.31L388.334 112.557C388.231 113.48 387.399 114.144 386.476 114.04L382.852 113.633C381.93 113.53 381.266 112.698 381.369 111.775L381.621 109.528C381.725 108.605 382.557 107.942 383.48 108.045Z" fill="#2C5AA0"/>
<path d="M371.72 109.658L374.322 109.95C375.085 110.036 375.635 110.724 375.549 111.488L374.759 118.528C374.673 119.291 373.985 119.841 373.221 119.755L370.619 119.463C369.855 119.377 369.306 118.689 369.392 117.925L370.182 110.885C370.268 110.122 370.956 109.572 371.72 109.658Z" fill="#2C5AA0"/>
<path d="M395.484 112.208L398.729 112.573C399.315 112.639 399.736 113.167 399.671 113.753L398.808 121.436C398.742 122.022 398.214 122.443 397.628 122.378L394.383 122.013C393.797 121.948 393.375 121.419 393.441 120.833L394.303 113.15C394.369 112.564 394.898 112.143 395.484 112.208Z" fill="#2C5AA0"/>
<path opacity="0.61" d="M404.319 136.029L394.795 129.917L372.439 127.407L361.424 131.276L404.319 136.029Z" fill="#162D50"/>
<path opacity="0.65" d="M361.945 140.12L365.57 142.842L365.581 142.843C366.585 142.493 368.081 142.573 369.762 142.762C370.728 142.87 371.755 142.985 372.779 143.1C375.482 143.404 377.666 144.25 378.755 145.548C378.755 145.548 379.706 146.256 380.247 146.454C380.507 146.608 380.796 146.641 381.088 146.548C381.671 146.489 382.794 146.164 382.794 146.164C384.768 145.122 387.12 144.785 389.268 145.002C390.293 145.117 391.32 145.232 392.284 145.34C393.932 145.525 395.382 145.813 396.293 146.303L399.643 146.191L399.6 146.787L397.245 148.2C396.913 150.828 393.89 153.68 389.821 154.286C388.213 154.531 386.105 154.032 384.909 153.61C383.68 153.184 382.844 152.127 382.258 151.172C382.041 150.81 381.858 150.139 381.751 149.489C381.654 148.915 381.401 148.548 381.038 148.295C380.768 148.102 380.391 148.034 380.079 148.187C379.691 148.331 379.462 148.618 379.199 149.164C378.995 149.58 378.459 150.458 378.247 150.672C377.464 151.472 376.414 152.318 375.121 152.461C373.861 152.607 371.695 152.627 370.182 152.031C367.02 150.788 364.892 148.221 364.386 145.887L361.821 141.344L361.945 140.12Z" fill="white"/>
<path opacity="0.09" d="M0 521.895L86.2336 470.632L308.765 522.678L0 521.895Z" fill="#1C2224"/>
<path d="M214.742 276.906H67.4089C60.4882 276.906 54.8778 282.517 54.8778 289.438V484.47C54.8778 491.39 60.4882 497.001 67.4089 497.001H214.742C221.663 497.001 227.273 491.39 227.273 484.47V289.438C227.273 282.517 221.663 276.906 214.742 276.906Z" fill="#B3B3B3" fill-opacity="0.792157"/>
<path d="M180.714 81.9683C172.357 84.8078 167.907 93.794 170.721 102.138L179.794 129.032C182.608 137.376 191.605 141.836 199.951 139.019L241.505 124.974C247.907 122.83 252.015 117.043 252.31 110.646L265.592 106.196L253.253 69.6314L240.42 73.9722C236.486 68.3041 229.156 65.6496 222.254 67.9995L180.714 81.9683Z" fill="#BCD35F"/>
<path d="M200.973 125.539L239.298 119.621C239.298 119.621 307.958 201.759 333.228 241.925C350.127 268.796 312.635 331.319 312.635 331.319L269.863 389.468L200.973 125.539Z" fill="#BCD35F"/>
<path opacity="0.95" d="M179.36 471.714V482.114L162.506 546.356L179.278 545.954V548.282L282.269 548.695V546.411H296.096L282.269 491.775V471.714L179.36 471.714Z" fill="#0B2228"/>
<path opacity="0.4" d="M228.463 479.047V546.062H215.417L223.381 478.938L228.463 479.047Z" fill="black"/>
<path opacity="0.4" d="M277.674 476.827H274.629V547.291H296.853L277.674 476.827Z" fill="black" stroke="black" stroke-width="0.282533"/>
<path opacity="0.4" d="M183.455 477.915H186.5V548.88H164.276L183.455 477.915Z" fill="black" stroke="black" stroke-width="0.283558"/>
<path d="M176.158 476.729V480.472H178.779L162.776 543.767H159.979V548.923H301.206V543.767H298.322L282.32 480.472H284.844V476.729H176.158ZM182.276 480.472H230.762V543.767H166.278L182.276 480.472ZM236.085 480.472H278.819L294.821 543.767H244.027L236.085 480.472Z" fill="#4D4D4D"/>
<path d="M183.349 422.755H170.697C168.794 422.755 167.252 424.895 167.252 427.535V438.143C167.252 440.783 168.794 442.923 170.697 442.923H183.349C185.251 442.923 186.794 440.783 186.794 438.143V427.535C186.794 424.895 185.251 422.755 183.349 422.755Z" fill="#4D4D4D"/>
<path d="M158.51 378.904H302.603L270.03 472.225L194.024 471.976L158.51 378.904Z" fill="#BCD35F"/>
<path d="M275.75 404.881C299.627 404.881 318.983 384.725 318.983 359.86C318.983 334.995 299.627 314.839 275.75 314.839C251.873 314.839 232.517 334.995 232.517 359.86C232.517 384.725 251.873 404.881 275.75 404.881Z" fill="#373E48"/>
<path d="M431.276 1.35383C426.296 2.92374 421.828 5.80274 418.334 9.69309C414.84 13.5834 412.447 18.3439 411.402 23.482L250.444 74.2659L258.911 101.105L419.608 50.4514C423.416 54.1983 428.163 56.837 433.342 58.0847C438.521 59.3323 443.936 59.1419 449.007 57.5338C452.678 56.3758 456.084 54.5022 459.03 52.0199C461.977 49.5376 464.405 46.4952 466.178 43.0664C467.951 39.6376 469.032 35.8897 469.361 32.0366C469.69 28.1835 469.26 24.3007 468.096 20.6099C465.738 13.1616 460.536 6.94923 453.632 3.33835C446.727 -0.272538 438.686 -0.986341 431.276 1.35383Z" fill="#BCD35F"/>
<path d="M475.137 54.731L465.35 41.4889L442.713 58.2195L452.5 71.4616L475.137 54.731Z" fill="#BCD35F"/>
<path d="M125.455 406.946H84.7454C77.8247 406.946 72.2144 412.557 72.2144 419.477V456.383C72.2144 463.303 77.8247 468.914 84.7454 468.914H125.455C132.376 468.914 137.986 463.303 137.986 456.383V419.477C137.986 412.557 132.376 406.946 125.455 406.946Z" fill="#808080" fill-opacity="0.792157"/>
<path d="M453.598 77.3991C453.598 77.3991 440.282 89.0398 426.152 78.1607C406.651 59.9925 402.662 44.2394 376.382 53.9763C311.955 77.8452 223.551 98.2109 174.814 124.19C159.029 132.295 165.794 153.76 174.377 161.865C189.183 175.855 211.261 163.247 224.546 169.894C234.261 174.757 235.93 188.867 235.93 188.867L252.218 244.22C254.328 256.002 260.684 275.182 255.493 288.912C250.369 302.696 239.038 316.218 225.16 323.138C201.724 334.843 133.531 368.732 131.354 412.814C130.679 426.457 135.879 433.419 149.757 433.093C164.581 432.756 171.419 433.583 171.419 433.583" stroke="#373E48" stroke-width="6.44111"/>
<path d="M450.036 49.8888C461.3 44.3284 465.886 30.6116 460.279 19.2514C454.671 7.89121 440.994 3.18958 429.729 8.75C418.464 14.3104 413.878 28.0273 419.486 39.3875C425.094 50.7477 438.771 55.4493 450.036 49.8888Z" fill="#373E48"/>
<path d="M487.205 56.7886L481.972 49.7074L448.289 74.6016L453.523 81.6827L487.205 56.7886Z" fill="#BCD35F"/>
<path d="M487.947 66.4289L482.713 59.3477L454.943 79.8727L460.176 86.9538L487.947 66.4289Z" fill="#1C2224"/>
<path d="M210.937 317.125H138.105C131.358 317.125 125.887 329.246 125.887 344.197V362.128C125.887 377.079 131.358 389.199 138.105 389.199H210.937C217.684 389.199 223.154 377.079 223.154 362.128V344.197C223.154 329.246 217.684 317.125 210.937 317.125Z" fill="#373E48"/>
<path d="M223.647 150.838C242.533 150.838 257.843 135.833 257.843 117.323C257.843 98.8131 242.533 83.808 223.647 83.808C204.761 83.808 189.45 98.8131 189.45 117.323C189.45 135.833 204.761 150.838 223.647 150.838Z" fill="#373E48"/>
<path d="M237.417 178.984L231.189 180.77C229.579 181.232 228.759 183.304 229.356 185.399L233.412 199.622C234.009 201.717 235.798 203.042 237.407 202.58L243.635 200.795C245.245 200.333 246.065 198.261 245.468 196.165L241.412 181.943C240.815 179.847 239.026 178.523 237.417 178.984Z" fill="#6F917C"/>
<path d="M382.257 55.8855L380.529 49.6411C380.082 48.0275 378.017 47.188 375.917 47.7659L361.657 51.6891C359.556 52.2671 358.215 54.0437 358.662 55.6573L360.389 61.9016C360.836 63.5152 362.901 64.3548 365.002 63.7768L379.261 59.8536C381.362 59.2757 382.703 57.4991 382.257 55.8855Z" fill="#6F917C"/>
<path d="M283.374 87.921L281.646 81.6767C281.2 80.0631 279.135 79.2235 277.034 79.8015L262.774 83.7247C260.674 84.3026 259.333 86.0793 259.779 87.6928L261.507 93.9372C261.953 95.5508 264.018 96.3903 266.119 95.8124L280.379 91.8892C282.479 91.3112 283.82 89.5346 283.374 87.921Z" fill="#6F917C"/>
<path d="M257.58 248.217L251.186 249.265C249.534 249.536 248.478 251.499 248.827 253.65L251.199 268.248C251.548 270.399 253.171 271.922 254.823 271.651L261.217 270.603C262.869 270.332 263.925 268.369 263.576 266.219L261.204 251.62C260.855 249.47 259.232 247.946 257.58 248.217Z" fill="#6F917C"/>
<path d="M170.222 425.679H160.916C159.517 425.679 158.383 427.382 158.383 429.484V437.928C158.383 440.029 159.517 441.733 160.916 441.733H170.222C171.621 441.733 172.755 440.029 172.755 437.928V429.484C172.755 427.382 171.621 425.679 170.222 425.679Z" fill="#4D4D4D"/>
<path opacity="0.15" d="M251.468 134.33L279.179 168.61L308.759 207.002L329.14 235.397C329.14 235.397 334.894 243.208 335.941 247.44C338.101 256.133 338.584 260.854 335.57 275.508C332.492 290.446 325.466 308.712 310.961 333.571C310.18 334.909 312.186 335.485 312.723 336.443C313.554 337.911 314.296 340.055 315.371 342.285C317.827 347.409 318.963 355.111 318.815 360.986C318.657 367.285 318.397 366.828 318.095 367.753C317.885 368.417 318.226 369.243 316.177 375.466C314.795 379.676 310.916 387.564 304.979 392.873C302.501 395.103 300.161 396.931 298.016 398.28C296.882 399.009 295.096 400.129 295.096 400.129C287.866 422.856 281.28 440.523 281.28 440.523L269.948 472.019L223.923 472.432C223.923 472.432 245.336 461.607 255.283 452.784C261.321 447.432 271.795 439.61 277.491 429.525C284.166 417.721 287.062 412.532 286.669 406.472C286.426 402.697 280.241 405.602 280.66 404.34C300.557 343.895 326.25 265.228 326.819 260.136C327.066 257.96 327.17 256.405 325.957 251.803C319.767 228.195 251.468 134.33 251.468 134.33Z" fill="black"/>
<path opacity="0.18" d="M445.156 61.4611L447.612 60.3188C447.612 60.3188 448.839 63.2562 456.551 67.9342C458.738 69.2615 454.924 79.9775 454.924 79.9775L455.261 80.3582L453.298 81.816L448.216 74.7228L452.433 71.3938L445.156 61.4611Z" fill="black"/>
<path opacity="0.26" d="M162.203 389.043C162.203 389.043 192.71 376.054 203.506 365.066C211.94 356.471 212.97 314.619 213.439 317.132L222.294 331.079L222.907 367.633L220.644 378.806L235.463 378.937C235.463 378.937 227.244 382.918 221.726 387.15C216.644 391.067 202.433 395.277 197.368 394.526L163.552 392.253L162.203 389.043Z" fill="black"/>
<path opacity="0.19" d="M228.866 140.444C234.882 137.55 241.571 133.938 244.501 127.944C249.329 118.054 245.033 96.4376 247.327 97.5146L262.166 99.5817L265.118 106.098L253.274 109.449C253.274 109.449 255.315 124.386 252.871 130.914C251.978 133.264 246.32 141.009 246.32 141.009V141.14C246.32 141.14 242.764 146.427 239.119 148.636C233.109 152.248 227.169 153.586 225.199 153.575C225.199 153.575 221.603 153.858 217.863 153.455C215.192 153.194 212.445 152.346 210.903 151.954C208.458 151.323 205.666 150.3 203.647 149.093C201.626 147.863 199.316 144.883 199.316 144.883C199.316 144.883 220.513 144.415 228.851 140.4L228.866 140.444Z" fill="black"/>
<path opacity="0.26" d="M143.023 432.332C143.023 432.332 128.254 433.789 132.549 413.413C135.032 401.62 139.705 387.738 142.254 387.52L144.341 388.956C144.341 388.956 140.979 394.298 139.751 397.203C137.659 402.164 135.456 407.288 135.094 412.662C134.816 416.818 135.259 421.246 137.067 424.988C139.397 429.818 146.317 430.95 151.756 430.656C153.663 430.526 158.283 430.395 158.283 430.395L158.572 427.566L159.524 426.196L160.558 425.652H167.43C167.43 425.652 168.237 424.085 168.994 423.356C169.986 422.399 175.202 422.932 175.202 422.932L179.945 435.661C179.945 435.661 174.725 434.322 171.447 433.789C163.536 432.419 146.752 433.354 146.752 433.354L143.023 432.332Z" fill="black"/>
<path d="M483.818 69.3594L490.38 87.6581L505.52 108.785L498.799 113.757C497.468 110.798 483.308 92.0751 483.308 92.0751L466.045 81.9684L483.818 69.3594Z" fill="#373E48"/>
<path d="M84.6127 320.271C92.4139 320.271 98.7379 313.901 98.7379 306.042C98.7379 298.184 92.4139 291.813 84.6127 291.813C76.8116 291.813 70.4875 298.184 70.4875 306.042C70.4875 313.901 76.8116 320.271 84.6127 320.271Z" fill="#D40000" fill-opacity="0.792157"/>
<path d="M113.94 309.759C117.52 309.759 120.422 306.847 120.422 303.254C120.422 299.662 117.52 296.75 113.94 296.75C110.36 296.75 107.458 299.662 107.458 303.254C107.458 306.847 110.36 309.759 113.94 309.759Z" fill="#37C871" fill-opacity="0.792157"/>
<path d="M208.899 291.899H132.26V304.359H208.899V291.899Z" fill="#999999" fill-opacity="0.792157"/>
</g>
<line x1="454" y1="359.5" x2="794" y2="359.5" stroke="#383E45" stroke-width="3"/>
<path d="M497.88 306L490.36 296.56V306H484.76V276.4H490.36V293.24L497.8 283.84H505.08L495.32 294.96L505.16 306H497.88ZM513.719 287.28C514.439 286.107 515.373 285.187 516.519 284.52C517.693 283.853 519.026 283.52 520.519 283.52V289.4H519.039C517.279 289.4 515.946 289.813 515.039 290.64C514.159 291.467 513.719 292.907 513.719 294.96V306H508.119V283.84H513.719V287.28ZM527.131 281.2C526.145 281.2 525.318 280.893 524.651 280.28C524.011 279.64 523.691 278.853 523.691 277.92C523.691 276.987 524.011 276.213 524.651 275.6C525.318 274.96 526.145 274.64 527.131 274.64C528.118 274.64 528.931 274.96 529.571 275.6C530.238 276.213 530.571 276.987 530.571 277.92C530.571 278.853 530.238 279.64 529.571 280.28C528.931 280.893 528.118 281.2 527.131 281.2ZM529.891 283.84V306H524.291V283.84H529.891ZM543.904 306.36C542.091 306.36 540.464 306.04 539.024 305.4C537.584 304.733 536.437 303.84 535.584 302.72C534.757 301.6 534.304 300.36 534.224 299H539.864C539.971 299.853 540.384 300.56 541.104 301.12C541.851 301.68 542.771 301.96 543.864 301.96C544.931 301.96 545.757 301.747 546.344 301.32C546.957 300.893 547.264 300.347 547.264 299.68C547.264 298.96 546.891 298.427 546.144 298.08C545.424 297.707 544.264 297.307 542.664 296.88C541.011 296.48 539.651 296.067 538.584 295.64C537.544 295.213 536.637 294.56 535.864 293.68C535.117 292.8 534.744 291.613 534.744 290.12C534.744 288.893 535.091 287.773 535.784 286.76C536.504 285.747 537.517 284.947 538.824 284.36C540.157 283.773 541.717 283.48 543.504 283.48C546.144 283.48 548.251 284.147 549.824 285.48C551.397 286.787 552.264 288.56 552.424 290.8H547.064C546.984 289.92 546.611 289.227 545.944 288.72C545.304 288.187 544.437 287.92 543.344 287.92C542.331 287.92 541.544 288.107 540.984 288.48C540.451 288.853 540.184 289.373 540.184 290.04C540.184 290.787 540.557 291.36 541.304 291.76C542.051 292.133 543.211 292.52 544.784 292.92C546.384 293.32 547.704 293.733 548.744 294.16C549.784 294.587 550.677 295.253 551.424 296.16C552.197 297.04 552.597 298.213 552.624 299.68C552.624 300.96 552.264 302.107 551.544 303.12C550.851 304.133 549.837 304.933 548.504 305.52C547.197 306.08 545.664 306.36 543.904 306.36ZM563.741 288.44V299.16C563.741 299.907 563.914 300.453 564.261 300.8C564.634 301.12 565.248 301.28 566.101 301.28H568.701V306H565.181C560.461 306 558.101 303.707 558.101 299.12V288.44H555.461V283.84H558.101V278.36H563.741V283.84H568.701V288.44H563.741ZM575.569 281.2C574.582 281.2 573.755 280.893 573.089 280.28C572.449 279.64 572.129 278.853 572.129 277.92C572.129 276.987 572.449 276.213 573.089 275.6C573.755 274.96 574.582 274.64 575.569 274.64C576.555 274.64 577.369 274.96 578.009 275.6C578.675 276.213 579.009 276.987 579.009 277.92C579.009 278.853 578.675 279.64 578.009 280.28C577.369 280.893 576.555 281.2 575.569 281.2ZM578.329 283.84V306H572.729V283.84H578.329ZM582.422 294.84C582.422 292.6 582.862 290.613 583.742 288.88C584.648 287.147 585.862 285.813 587.382 284.88C588.928 283.947 590.648 283.48 592.542 283.48C594.195 283.48 595.635 283.813 596.862 284.48C598.115 285.147 599.115 285.987 599.862 287V283.84H605.502V306H599.862V302.76C599.142 303.8 598.142 304.667 596.862 305.36C595.608 306.027 594.155 306.36 592.502 306.36C590.635 306.36 588.928 305.88 587.382 304.92C585.862 303.96 584.648 302.613 583.742 300.88C582.862 299.12 582.422 297.107 582.422 294.84ZM599.862 294.92C599.862 293.56 599.595 292.4 599.062 291.44C598.528 290.453 597.808 289.707 596.902 289.2C595.995 288.667 595.022 288.4 593.982 288.4C592.942 288.4 591.982 288.653 591.102 289.16C590.222 289.667 589.502 290.413 588.942 291.4C588.408 292.36 588.142 293.507 588.142 294.84C588.142 296.173 588.408 297.347 588.942 298.36C589.502 299.347 590.222 300.107 591.102 300.64C592.008 301.173 592.968 301.44 593.982 301.44C595.022 301.44 595.995 301.187 596.902 300.68C597.808 300.147 598.528 299.4 599.062 298.44C599.595 297.453 599.862 296.28 599.862 294.92ZM623.251 283.52C625.891 283.52 628.024 284.36 629.651 286.04C631.278 287.693 632.091 290.013 632.091 293V306H626.491V293.76C626.491 292 626.051 290.653 625.171 289.72C624.291 288.76 623.091 288.28 621.571 288.28C620.024 288.28 618.798 288.76 617.891 289.72C617.011 290.653 616.571 292 616.571 293.76V306H610.971V283.84H616.571V286.6C617.318 285.64 618.264 284.893 619.411 284.36C620.584 283.8 621.864 283.52 623.251 283.52Z" fill="#383E45"/>
<path d="M549.36 322.6V329.6H558.76V334.04H549.36V341.44H559.96V346H543.76V318.04H559.96V322.6H549.36ZM592.569 323.52C595.289 323.52 597.476 324.36 599.129 326.04C600.809 327.693 601.649 330.013 601.649 333V346H596.049V333.76C596.049 332.027 595.609 330.707 594.729 329.8C593.849 328.867 592.649 328.4 591.129 328.4C589.609 328.4 588.396 328.867 587.489 329.8C586.609 330.707 586.169 332.027 586.169 333.76V346H580.569V333.76C580.569 332.027 580.129 330.707 579.249 329.8C578.369 328.867 577.169 328.4 575.649 328.4C574.102 328.4 572.876 328.867 571.969 329.8C571.089 330.707 570.649 332.027 570.649 333.76V346H565.049V323.84H570.649V326.52C571.369 325.587 572.289 324.853 573.409 324.32C574.556 323.787 575.809 323.52 577.169 323.52C578.902 323.52 580.449 323.893 581.809 324.64C583.169 325.36 584.222 326.4 584.969 327.76C585.689 326.48 586.729 325.453 588.089 324.68C589.476 323.907 590.969 323.52 592.569 323.52ZM634.483 323.52C637.203 323.52 639.39 324.36 641.043 326.04C642.723 327.693 643.563 330.013 643.563 333V346H637.963V333.76C637.963 332.027 637.523 330.707 636.643 329.8C635.763 328.867 634.563 328.4 633.043 328.4C631.523 328.4 630.31 328.867 629.403 329.8C628.523 330.707 628.083 332.027 628.083 333.76V346H622.483V333.76C622.483 332.027 622.043 330.707 621.163 329.8C620.283 328.867 619.083 328.4 617.563 328.4C616.016 328.4 614.79 328.867 613.883 329.8C613.003 330.707 612.563 332.027 612.563 333.76V346H606.963V323.84H612.563V326.52C613.283 325.587 614.203 324.853 615.323 324.32C616.47 323.787 617.723 323.52 619.083 323.52C620.816 323.52 622.363 323.893 623.723 324.64C625.083 325.36 626.136 326.4 626.883 327.76C627.603 326.48 628.643 325.453 630.003 324.68C631.39 323.907 632.883 323.52 634.483 323.52ZM647.437 334.84C647.437 332.6 647.877 330.613 648.757 328.88C649.664 327.147 650.877 325.813 652.397 324.88C653.944 323.947 655.664 323.48 657.557 323.48C659.211 323.48 660.651 323.813 661.877 324.48C663.131 325.147 664.131 325.987 664.877 327V323.84H670.517V346H664.877V342.76C664.157 343.8 663.157 344.667 661.877 345.36C660.624 346.027 659.171 346.36 657.517 346.36C655.651 346.36 653.944 345.88 652.397 344.92C650.877 343.96 649.664 342.613 648.757 340.88C647.877 339.12 647.437 337.107 647.437 334.84ZM664.877 334.92C664.877 333.56 664.611 332.4 664.077 331.44C663.544 330.453 662.824 329.707 661.917 329.2C661.011 328.667 660.037 328.4 658.997 328.4C657.957 328.4 656.997 328.653 656.117 329.16C655.237 329.667 654.517 330.413 653.957 331.4C653.424 332.36 653.157 333.507 653.157 334.84C653.157 336.173 653.424 337.347 653.957 338.36C654.517 339.347 655.237 340.107 656.117 340.64C657.024 341.173 657.984 341.44 658.997 341.44C660.037 341.44 661.011 341.187 661.917 340.68C662.824 340.147 663.544 339.4 664.077 338.44C664.611 337.453 664.877 336.28 664.877 334.92ZM688.267 323.52C690.907 323.52 693.04 324.36 694.667 326.04C696.293 327.693 697.107 330.013 697.107 333V346H691.507V333.76C691.507 332 691.067 330.653 690.187 329.72C689.307 328.76 688.107 328.28 686.587 328.28C685.04 328.28 683.813 328.76 682.907 329.72C682.027 330.653 681.587 332 681.587 333.76V346H675.987V323.84H681.587V326.6C682.333 325.64 683.28 324.893 684.427 324.36C685.6 323.8 686.88 323.52 688.267 323.52ZM723.352 323.84V346H717.712V343.2C716.992 344.16 716.045 344.92 714.872 345.48C713.725 346.013 712.472 346.28 711.112 346.28C709.379 346.28 707.845 345.92 706.512 345.2C705.179 344.453 704.125 343.373 703.352 341.96C702.605 340.52 702.232 338.813 702.232 336.84V323.84H707.832V336.04C707.832 337.8 708.272 339.16 709.152 340.12C710.032 341.053 711.232 341.52 712.752 341.52C714.299 341.52 715.512 341.053 716.392 340.12C717.272 339.16 717.712 337.8 717.712 336.04V323.84H723.352ZM749.477 334.44C749.477 335.24 749.424 335.96 749.317 336.6H733.117C733.251 338.2 733.811 339.453 734.797 340.36C735.784 341.267 736.997 341.72 738.437 341.72C740.517 341.72 741.997 340.827 742.877 339.04H748.917C748.277 341.173 747.051 342.933 745.237 344.32C743.424 345.68 741.197 346.36 738.557 346.36C736.424 346.36 734.504 345.893 732.797 344.96C731.117 344 729.797 342.653 728.837 340.92C727.904 339.187 727.437 337.187 727.437 334.92C727.437 332.627 727.904 330.613 728.837 328.88C729.771 327.147 731.077 325.813 732.757 324.88C734.437 323.947 736.371 323.48 738.557 323.48C740.664 323.48 742.544 323.933 744.197 324.84C745.877 325.747 747.171 327.04 748.077 328.72C749.011 330.373 749.477 332.28 749.477 334.44ZM743.677 332.84C743.651 331.4 743.131 330.253 742.117 329.4C741.104 328.52 739.864 328.08 738.397 328.08C737.011 328.08 735.837 328.507 734.877 329.36C733.944 330.187 733.371 331.347 733.157 332.84H743.677ZM759.165 316.4V346H753.565V316.4H759.165Z" fill="#383E45"/>
<path d="M545.5 244.03V265H543.4V244.03H545.5ZM557.528 256.78C557.528 255.1 557.858 253.63 558.518 252.37C559.198 251.09 560.128 250.11 561.308 249.43C562.508 248.73 563.858 248.38 565.358 248.38C566.918 248.38 568.258 248.74 569.378 249.46C570.518 250.18 571.338 251.1 571.838 252.22V248.62H573.938V265H571.838V261.37C571.318 262.49 570.488 263.42 569.348 264.16C568.228 264.88 566.888 265.24 565.328 265.24C563.848 265.24 562.508 264.89 561.308 264.19C560.128 263.49 559.198 262.5 558.518 261.22C557.858 259.94 557.528 258.46 557.528 256.78ZM571.838 256.81C571.838 255.49 571.568 254.33 571.028 253.33C570.488 252.33 569.748 251.56 568.808 251.02C567.888 250.48 566.868 250.21 565.748 250.21C564.588 250.21 563.548 250.47 562.628 250.99C561.708 251.51 560.978 252.27 560.438 253.27C559.918 254.25 559.658 255.42 559.658 256.78C559.658 258.12 559.918 259.3 560.438 260.32C560.978 261.32 561.708 262.09 562.628 262.63C563.548 263.15 564.588 263.41 565.748 263.41C566.868 263.41 567.888 263.14 568.808 262.6C569.748 262.06 570.488 261.29 571.028 260.29C571.568 259.29 571.838 258.13 571.838 256.81ZM598.232 248.32C600.152 248.32 601.712 248.93 602.912 250.15C604.132 251.35 604.742 253.1 604.742 255.4V265H602.672V255.64C602.672 253.86 602.242 252.5 601.382 251.56C600.522 250.62 599.352 250.15 597.872 250.15C596.332 250.15 595.102 250.66 594.182 251.68C593.262 252.7 592.802 254.18 592.802 256.12V265H590.732V255.64C590.732 253.86 590.302 252.5 589.442 251.56C588.582 250.62 587.402 250.15 585.902 250.15C584.362 250.15 583.132 250.66 582.212 251.68C581.292 252.7 580.832 254.18 580.832 256.12V265H578.732V248.62H580.832V251.44C581.352 250.42 582.092 249.65 583.052 249.13C584.012 248.59 585.082 248.32 586.262 248.32C587.682 248.32 588.922 248.66 589.982 249.34C591.062 250.02 591.842 251.02 592.322 252.34C592.762 251.04 593.512 250.05 594.572 249.37C595.652 248.67 596.872 248.32 598.232 248.32Z" fill="#3E3E3E"/>
<path d="M454.6 375.224V392H452.92V375.224H454.6ZM464.548 378.656C466.116 378.656 467.396 379.144 468.388 380.12C469.38 381.08 469.876 382.48 469.876 384.32V392H468.22V384.512C468.22 383.088 467.86 382 467.14 381.248C466.436 380.496 465.468 380.12 464.236 380.12C462.972 380.12 461.964 380.52 461.212 381.32C460.46 382.12 460.084 383.296 460.084 384.848V392H458.404V378.896H460.084V381.128C460.5 380.328 461.1 379.72 461.884 379.304C462.668 378.872 463.556 378.656 464.548 378.656ZM472.824 385.424C472.824 384.08 473.096 382.904 473.64 381.896C474.184 380.872 474.928 380.088 475.872 379.544C476.832 378.984 477.912 378.704 479.112 378.704C480.264 378.704 481.304 378.984 482.232 379.544C483.16 380.104 483.84 380.832 484.272 381.728V374.24H485.952V392H484.272V389.072C483.872 389.984 483.216 390.736 482.304 391.328C481.392 391.904 480.32 392.192 479.088 392.192C477.888 392.192 476.808 391.912 475.848 391.352C474.904 390.792 474.16 390 473.616 388.976C473.088 387.952 472.824 386.768 472.824 385.424ZM484.272 385.448C484.272 384.392 484.056 383.464 483.624 382.664C483.192 381.864 482.6 381.248 481.848 380.816C481.112 380.384 480.296 380.168 479.4 380.168C478.472 380.168 477.64 380.376 476.904 380.792C476.168 381.208 475.584 381.816 475.152 382.616C474.736 383.4 474.528 384.336 474.528 385.424C474.528 386.496 474.736 387.44 475.152 388.256C475.584 389.056 476.168 389.672 476.904 390.104C477.64 390.52 478.472 390.728 479.4 390.728C480.296 390.728 481.112 390.512 481.848 390.08C482.6 389.648 483.192 389.032 483.624 388.232C484.056 387.432 484.272 386.504 484.272 385.448ZM501.139 378.896V392H499.459V389.696C499.075 390.512 498.483 391.136 497.683 391.568C496.883 392 495.987 392.216 494.995 392.216C493.427 392.216 492.147 391.736 491.155 390.776C490.163 389.8 489.667 388.392 489.667 386.552V378.896H491.323V386.36C491.323 387.784 491.675 388.872 492.379 389.624C493.099 390.376 494.075 390.752 495.307 390.752C496.571 390.752 497.579 390.352 498.331 389.552C499.083 388.752 499.459 387.576 499.459 386.024V378.896H501.139ZM509.487 392.192C507.983 392.192 506.751 391.848 505.791 391.16C504.847 390.456 504.319 389.504 504.207 388.304H505.935C506.015 389.04 506.359 389.64 506.967 390.104C507.591 390.552 508.423 390.776 509.463 390.776C510.375 390.776 511.087 390.56 511.599 390.128C512.127 389.696 512.391 389.16 512.391 388.52C512.391 388.072 512.247 387.704 511.959 387.416C511.671 387.128 511.303 386.904 510.855 386.744C510.423 386.568 509.831 386.384 509.079 386.192C508.103 385.936 507.311 385.68 506.703 385.424C506.095 385.168 505.575 384.792 505.143 384.296C504.727 383.784 504.519 383.104 504.519 382.256C504.519 381.616 504.711 381.024 505.095 380.48C505.479 379.936 506.023 379.504 506.727 379.184C507.431 378.864 508.231 378.704 509.127 378.704C510.535 378.704 511.671 379.064 512.535 379.784C513.399 380.488 513.863 381.464 513.927 382.712H512.247C512.199 381.944 511.895 381.328 511.335 380.864C510.791 380.384 510.039 380.144 509.079 380.144C508.231 380.144 507.543 380.344 507.015 380.744C506.487 381.144 506.223 381.64 506.223 382.232C506.223 382.744 506.375 383.168 506.679 383.504C506.999 383.824 507.391 384.08 507.855 384.272C508.319 384.448 508.943 384.648 509.727 384.872C510.671 385.128 511.423 385.376 511.983 385.616C512.543 385.856 513.023 386.208 513.423 386.672C513.823 387.136 514.031 387.752 514.047 388.52C514.047 389.224 513.855 389.856 513.471 390.416C513.087 390.96 512.551 391.392 511.863 391.712C511.175 392.032 510.383 392.192 509.487 392.192ZM519.393 380.312V388.448C519.393 389.248 519.545 389.8 519.849 390.104C520.153 390.408 520.689 390.56 521.457 390.56H522.993V392H521.193C520.009 392 519.129 391.728 518.553 391.184C517.977 390.624 517.689 389.712 517.689 388.448V380.312H515.865V378.896H517.689V375.608H519.393V378.896H522.993V380.312H519.393ZM527.444 381.224C527.812 380.408 528.372 379.776 529.124 379.328C529.892 378.88 530.828 378.656 531.932 378.656V380.408H531.476C530.26 380.408 529.284 380.736 528.548 381.392C527.812 382.048 527.444 383.144 527.444 384.68V392H525.764V378.896H527.444V381.224ZM535.299 376.424C534.963 376.424 534.675 376.304 534.435 376.064C534.195 375.824 534.075 375.528 534.075 375.176C534.075 374.824 534.195 374.536 534.435 374.312C534.675 374.072 534.963 373.952 535.299 373.952C535.635 373.952 535.923 374.072 536.163 374.312C536.403 374.536 536.523 374.824 536.523 375.176C536.523 375.528 536.403 375.824 536.163 376.064C535.923 376.304 535.635 376.424 535.299 376.424ZM536.139 378.896V392H534.459V378.896H536.139ZM539.175 385.424C539.175 384.08 539.439 382.904 539.967 381.896C540.511 380.872 541.255 380.088 542.199 379.544C543.159 378.984 544.239 378.704 545.439 378.704C546.687 378.704 547.759 378.992 548.655 379.568C549.567 380.144 550.223 380.88 550.623 381.776V378.896H552.303V392H550.623V389.096C550.207 389.992 549.543 390.736 548.631 391.328C547.735 391.904 546.663 392.192 545.415 392.192C544.231 392.192 543.159 391.912 542.199 391.352C541.255 390.792 540.511 390 539.967 388.976C539.439 387.952 539.175 386.768 539.175 385.424ZM550.623 385.448C550.623 384.392 550.407 383.464 549.975 382.664C549.543 381.864 548.951 381.248 548.199 380.816C547.463 380.384 546.647 380.168 545.751 380.168C544.823 380.168 543.991 380.376 543.255 380.792C542.519 381.208 541.935 381.816 541.503 382.616C541.087 383.4 540.879 384.336 540.879 385.424C540.879 386.496 541.087 387.44 541.503 388.256C541.935 389.056 542.519 389.672 543.255 390.104C543.991 390.52 544.823 390.728 545.751 390.728C546.647 390.728 547.463 390.512 548.199 390.08C548.951 389.648 549.543 389.032 549.975 388.232C550.407 387.432 550.623 386.504 550.623 385.448ZM557.819 374.24V392H556.139V374.24H557.819ZM577.137 392L572.985 384.992H569.889V392H568.209V375.224H573.249C575.121 375.224 576.537 375.672 577.497 376.568C578.473 377.464 578.961 378.64 578.961 380.096C578.961 381.312 578.609 382.352 577.905 383.216C577.217 384.064 576.193 384.616 574.833 384.872L579.153 392H577.137ZM569.889 383.624H573.273C574.585 383.624 575.569 383.304 576.225 382.664C576.897 382.024 577.233 381.168 577.233 380.096C577.233 378.992 576.913 378.144 576.273 377.552C575.633 376.944 574.625 376.64 573.249 376.64H569.889V383.624ZM588.031 392.192C586.799 392.192 585.687 391.92 584.695 391.376C583.719 390.816 582.943 390.032 582.367 389.024C581.807 388 581.527 386.808 581.527 385.448C581.527 384.088 581.815 382.904 582.391 381.896C582.967 380.872 583.751 380.088 584.743 379.544C585.735 378.984 586.847 378.704 588.079 378.704C589.311 378.704 590.423 378.984 591.415 379.544C592.423 380.088 593.207 380.872 593.767 381.896C594.343 382.904 594.631 384.088 594.631 385.448C594.631 386.792 594.343 387.976 593.767 389C593.191 390.024 592.399 390.816 591.391 391.376C590.383 391.92 589.263 392.192 588.031 392.192ZM588.031 390.728C588.895 390.728 589.695 390.536 590.431 390.152C591.167 389.752 591.759 389.16 592.207 388.376C592.671 387.576 592.903 386.6 592.903 385.448C592.903 384.296 592.679 383.328 592.231 382.544C591.783 381.744 591.191 381.152 590.455 380.768C589.719 380.368 588.919 380.168 588.055 380.168C587.191 380.168 586.391 380.368 585.655 380.768C584.919 381.152 584.327 381.744 583.879 382.544C583.447 383.328 583.231 384.296 583.231 385.448C583.231 386.6 583.447 387.576 583.879 388.376C584.327 389.16 584.911 389.752 585.631 390.152C586.367 390.536 587.167 390.728 588.031 390.728ZM599.349 381.8C599.781 380.888 600.445 380.144 601.341 379.568C602.253 378.992 603.325 378.704 604.557 378.704C605.757 378.704 606.829 378.984 607.773 379.544C608.717 380.088 609.453 380.872 609.981 381.896C610.525 382.904 610.797 384.08 610.797 385.424C610.797 386.768 610.525 387.952 609.981 388.976C609.453 390 608.709 390.792 607.749 391.352C606.805 391.912 605.741 392.192 604.557 392.192C603.309 392.192 602.229 391.912 601.317 391.352C600.421 390.776 599.765 390.032 599.349 389.12V392H597.693V374.24H599.349V381.8ZM609.093 385.424C609.093 384.336 608.877 383.4 608.445 382.616C608.029 381.816 607.453 381.208 606.717 380.792C605.981 380.376 605.149 380.168 604.221 380.168C603.325 380.168 602.501 380.384 601.749 380.816C601.013 381.248 600.429 381.864 599.997 382.664C599.565 383.464 599.349 384.392 599.349 385.448C599.349 386.504 599.565 387.432 599.997 388.232C600.429 389.032 601.013 389.648 601.749 390.08C602.501 390.512 603.325 390.728 604.221 390.728C605.149 390.728 605.981 390.52 606.717 390.104C607.453 389.672 608.029 389.056 608.445 388.256C608.877 387.44 609.093 386.496 609.093 385.424ZM619.625 392.192C618.393 392.192 617.281 391.92 616.289 391.376C615.313 390.816 614.537 390.032 613.961 389.024C613.401 388 613.121 386.808 613.121 385.448C613.121 384.088 613.409 382.904 613.985 381.896C614.561 380.872 615.345 380.088 616.337 379.544C617.329 378.984 618.441 378.704 619.673 378.704C620.905 378.704 622.017 378.984 623.009 379.544C624.017 380.088 624.801 380.872 625.361 381.896C625.937 382.904 626.225 384.088 626.225 385.448C626.225 386.792 625.937 387.976 625.361 389C624.785 390.024 623.993 390.816 622.985 391.376C621.977 391.92 620.857 392.192 619.625 392.192ZM619.625 390.728C620.489 390.728 621.289 390.536 622.025 390.152C622.761 389.752 623.353 389.16 623.801 388.376C624.265 387.576 624.497 386.6 624.497 385.448C624.497 384.296 624.273 383.328 623.825 382.544C623.377 381.744 622.785 381.152 622.049 380.768C621.313 380.368 620.513 380.168 619.649 380.168C618.785 380.168 617.985 380.368 617.249 380.768C616.513 381.152 615.921 381.744 615.473 382.544C615.041 383.328 614.825 384.296 614.825 385.448C614.825 386.6 615.041 387.576 615.473 388.376C615.921 389.16 616.505 389.752 617.225 390.152C617.961 390.536 618.761 390.728 619.625 390.728ZM631.471 380.312V388.448C631.471 389.248 631.623 389.8 631.927 390.104C632.231 390.408 632.767 390.56 633.535 390.56H635.071V392H633.271C632.087 392 631.207 391.728 630.631 391.184C630.055 390.624 629.767 389.712 629.767 388.448V380.312H627.943V378.896H629.767V375.608H631.471V378.896H635.071V380.312H631.471ZM638.682 376.424C638.346 376.424 638.058 376.304 637.818 376.064C637.578 375.824 637.458 375.528 637.458 375.176C637.458 374.824 637.578 374.536 637.818 374.312C638.058 374.072 638.346 373.952 638.682 373.952C639.018 373.952 639.306 374.072 639.546 374.312C639.786 374.536 639.906 374.824 639.906 375.176C639.906 375.528 639.786 375.824 639.546 376.064C639.306 376.304 639.018 376.424 638.682 376.424ZM639.522 378.896V392H637.842V378.896H639.522ZM642.558 385.448C642.558 384.088 642.83 382.904 643.374 381.896C643.918 380.872 644.67 380.088 645.63 379.544C646.59 378.984 647.686 378.704 648.918 378.704C650.534 378.704 651.862 379.104 652.902 379.904C653.958 380.704 654.638 381.792 654.942 383.168H653.142C652.918 382.224 652.43 381.488 651.678 380.96C650.942 380.416 650.022 380.144 648.918 380.144C648.038 380.144 647.246 380.344 646.542 380.744C645.838 381.144 645.278 381.744 644.862 382.544C644.462 383.328 644.262 384.296 644.262 385.448C644.262 386.6 644.462 387.576 644.862 388.376C645.278 389.176 645.838 389.776 646.542 390.176C647.246 390.576 648.038 390.776 648.918 390.776C650.022 390.776 650.942 390.512 651.678 389.984C652.43 389.44 652.918 388.688 653.142 387.728H654.942C654.638 389.072 653.958 390.152 652.902 390.968C651.846 391.784 650.518 392.192 648.918 392.192C647.686 392.192 646.59 391.92 645.63 391.376C644.67 390.816 643.918 390.032 643.374 389.024C642.83 388 642.558 386.808 642.558 385.448ZM662.557 392.192C661.053 392.192 659.821 391.848 658.861 391.16C657.917 390.456 657.389 389.504 657.277 388.304H659.005C659.085 389.04 659.429 389.64 660.037 390.104C660.661 390.552 661.493 390.776 662.533 390.776C663.445 390.776 664.157 390.56 664.669 390.128C665.197 389.696 665.461 389.16 665.461 388.52C665.461 388.072 665.317 387.704 665.029 387.416C664.741 387.128 664.373 386.904 663.925 386.744C663.493 386.568 662.901 386.384 662.149 386.192C661.173 385.936 660.381 385.68 659.773 385.424C659.165 385.168 658.645 384.792 658.213 384.296C657.797 383.784 657.589 383.104 657.589 382.256C657.589 381.616 657.781 381.024 658.165 380.48C658.549 379.936 659.093 379.504 659.797 379.184C660.501 378.864 661.301 378.704 662.197 378.704C663.605 378.704 664.741 379.064 665.605 379.784C666.469 380.488 666.933 381.464 666.997 382.712H665.317C665.269 381.944 664.965 381.328 664.405 380.864C663.861 380.384 663.109 380.144 662.149 380.144C661.301 380.144 660.613 380.344 660.085 380.744C659.557 381.144 659.293 381.64 659.293 382.232C659.293 382.744 659.445 383.168 659.749 383.504C660.069 383.824 660.461 384.08 660.925 384.272C661.389 384.448 662.013 384.648 662.797 384.872C663.741 385.128 664.493 385.376 665.053 385.616C665.613 385.856 666.093 386.208 666.493 386.672C666.893 387.136 667.101 387.752 667.117 388.52C667.117 389.224 666.925 389.856 666.541 390.416C666.157 390.96 665.621 391.392 664.933 391.712C664.245 392.032 663.453 392.192 662.557 392.192ZM678.545 376.592V382.856H684.905V384.248H678.545V390.608H685.625V392H676.865V375.2H685.625V376.592H678.545ZM695.08 378.656C696.648 378.656 697.928 379.144 698.92 380.12C699.912 381.08 700.408 382.48 700.408 384.32V392H698.752V384.512C698.752 383.088 698.392 382 697.672 381.248C696.968 380.496 696 380.12 694.768 380.12C693.504 380.12 692.496 380.52 691.744 381.32C690.992 382.12 690.616 383.296 690.616 384.848V392H688.936V378.896H690.616V381.128C691.032 380.328 691.632 379.72 692.416 379.304C693.2 378.872 694.088 378.656 695.08 378.656ZM709.619 378.704C710.851 378.704 711.923 378.992 712.835 379.568C713.747 380.144 714.403 380.872 714.803 381.752V378.896H716.483V392.336C716.483 393.536 716.219 394.6 715.691 395.528C715.179 396.456 714.459 397.168 713.531 397.664C712.603 398.176 711.547 398.432 710.363 398.432C708.683 398.432 707.283 398.032 706.163 397.232C705.059 396.432 704.371 395.344 704.099 393.968H705.755C706.043 394.88 706.587 395.608 707.387 396.152C708.203 396.696 709.195 396.968 710.363 396.968C711.211 396.968 711.971 396.784 712.643 396.416C713.315 396.064 713.843 395.536 714.227 394.832C714.611 394.128 714.803 393.296 714.803 392.336V389.096C714.387 389.992 713.723 390.736 712.811 391.328C711.915 391.904 710.851 392.192 709.619 392.192C708.419 392.192 707.339 391.912 706.379 391.352C705.435 390.792 704.691 390 704.147 388.976C703.619 387.952 703.355 386.768 703.355 385.424C703.355 384.08 703.619 382.904 704.147 381.896C704.691 380.872 705.435 380.088 706.379 379.544C707.339 378.984 708.419 378.704 709.619 378.704ZM714.803 385.448C714.803 384.392 714.587 383.464 714.155 382.664C713.723 381.864 713.131 381.248 712.379 380.816C711.643 380.384 710.827 380.168 709.931 380.168C709.003 380.168 708.171 380.376 707.435 380.792C706.699 381.208 706.115 381.816 705.683 382.616C705.267 383.4 705.059 384.336 705.059 385.424C705.059 386.496 705.267 387.44 705.683 388.256C706.115 389.056 706.699 389.672 707.435 390.104C708.171 390.52 709.003 390.728 709.931 390.728C710.827 390.728 711.643 390.512 712.379 390.08C713.131 389.648 713.723 389.032 714.155 388.232C714.587 387.432 714.803 386.504 714.803 385.448ZM732.174 384.776C732.174 385.352 732.158 385.792 732.126 386.096H721.254C721.302 387.088 721.542 387.936 721.974 388.64C722.406 389.344 722.974 389.88 723.678 390.248C724.382 390.6 725.15 390.776 725.982 390.776C727.07 390.776 727.982 390.512 728.718 389.984C729.47 389.456 729.966 388.744 730.206 387.848H731.982C731.662 389.128 730.974 390.176 729.918 390.992C728.878 391.792 727.566 392.192 725.982 392.192C724.75 392.192 723.646 391.92 722.67 391.376C721.694 390.816 720.926 390.032 720.366 389.024C719.822 388 719.55 386.808 719.55 385.448C719.55 384.088 719.822 382.896 720.366 381.872C720.91 380.848 721.67 380.064 722.646 379.52C723.622 378.976 724.734 378.704 725.982 378.704C727.23 378.704 728.318 378.976 729.246 379.52C730.19 380.064 730.91 380.8 731.406 381.728C731.918 382.64 732.174 383.656 732.174 384.776ZM730.47 384.728C730.486 383.752 730.286 382.92 729.87 382.232C729.47 381.544 728.918 381.024 728.214 380.672C727.51 380.32 726.742 380.144 725.91 380.144C724.662 380.144 723.598 380.544 722.718 381.344C721.838 382.144 721.35 383.272 721.254 384.728H730.47ZM747.104 384.776C747.104 385.352 747.088 385.792 747.056 386.096H736.184C736.232 387.088 736.472 387.936 736.904 388.64C737.336 389.344 737.904 389.88 738.608 390.248C739.312 390.6 740.08 390.776 740.912 390.776C742 390.776 742.912 390.512 743.648 389.984C744.4 389.456 744.896 388.744 745.136 387.848H746.912C746.592 389.128 745.904 390.176 744.848 390.992C743.808 391.792 742.496 392.192 740.912 392.192C739.68 392.192 738.576 391.92 737.6 391.376C736.624 390.816 735.856 390.032 735.296 389.024C734.752 388 734.48 386.808 734.48 385.448C734.48 384.088 734.752 382.896 735.296 381.872C735.84 380.848 736.6 380.064 737.576 379.52C738.552 378.976 739.664 378.704 740.912 378.704C742.16 378.704 743.248 378.976 744.176 379.52C745.12 380.064 745.84 380.8 746.336 381.728C746.848 382.64 747.104 383.656 747.104 384.776ZM745.4 384.728C745.416 383.752 745.216 382.92 744.8 382.232C744.4 381.544 743.848 381.024 743.144 380.672C742.44 380.32 741.672 380.144 740.84 380.144C739.592 380.144 738.528 380.544 737.648 381.344C736.768 382.144 736.28 383.272 736.184 384.728H745.4ZM756.322 378.656C757.89 378.656 759.17 379.144 760.162 380.12C761.154 381.08 761.65 382.48 761.65 384.32V392H759.994V384.512C759.994 383.088 759.634 382 758.914 381.248C758.21 380.496 757.242 380.12 756.01 380.12C754.746 380.12 753.738 380.52 752.986 381.32C752.234 382.12 751.858 383.296 751.858 384.848V392H750.178V378.896H751.858V381.128C752.274 380.328 752.874 379.72 753.658 379.304C754.442 378.872 755.33 378.656 756.322 378.656ZM766.205 376.424C765.869 376.424 765.581 376.304 765.341 376.064C765.101 375.824 764.981 375.528 764.981 375.176C764.981 374.824 765.101 374.536 765.341 374.312C765.581 374.072 765.869 373.952 766.205 373.952C766.541 373.952 766.829 374.072 767.069 374.312C767.309 374.536 767.429 374.824 767.429 375.176C767.429 375.528 767.309 375.824 767.069 376.064C766.829 376.304 766.541 376.424 766.205 376.424ZM767.045 378.896V392H765.365V378.896H767.045ZM782.706 384.776C782.706 385.352 782.69 385.792 782.658 386.096H771.786C771.834 387.088 772.074 387.936 772.506 388.64C772.938 389.344 773.506 389.88 774.21 390.248C774.914 390.6 775.682 390.776 776.514 390.776C777.602 390.776 778.514 390.512 779.25 389.984C780.002 389.456 780.498 388.744 780.738 387.848H782.514C782.194 389.128 781.506 390.176 780.45 390.992C779.41 391.792 778.098 392.192 776.514 392.192C775.282 392.192 774.178 391.92 773.202 391.376C772.226 390.816 771.458 390.032 770.898 389.024C770.354 388 770.082 386.808 770.082 385.448C770.082 384.088 770.354 382.896 770.898 381.872C771.442 380.848 772.202 380.064 773.178 379.52C774.154 378.976 775.266 378.704 776.514 378.704C777.762 378.704 778.85 378.976 779.778 379.52C780.722 380.064 781.442 380.8 781.938 381.728C782.45 382.64 782.706 383.656 782.706 384.776ZM781.002 384.728C781.018 383.752 780.818 382.92 780.402 382.232C780.002 381.544 779.45 381.024 778.746 380.672C778.042 380.32 777.274 380.144 776.442 380.144C775.194 380.144 774.13 380.544 773.25 381.344C772.37 382.144 771.882 383.272 771.786 384.728H781.002ZM787.459 381.224C787.827 380.408 788.387 379.776 789.139 379.328C789.907 378.88 790.843 378.656 791.947 378.656V380.408H791.491C790.275 380.408 789.299 380.736 788.563 381.392C787.827 382.048 787.459 383.144 787.459 384.68V392H785.779V378.896H787.459V381.224Z" fill="#383E45"/>
<defs>
<linearGradient id="paint0_linear" x1="333.125" y1="517.004" x2="333.125" y2="516.62" gradientUnits="userSpaceOnUse">
<stop stop-color="#808080" stop-opacity="0.25"/>
<stop offset="0.53514" stop-color="#808080" stop-opacity="0.12"/>
<stop offset="1" stop-color="#808080" stop-opacity="0.1"/>
</linearGradient>
<clipPath id="clip0">
<rect width="625.115" height="586.554" fill="white"/>
</clipPath>
</defs>
</svg>
