<svg width="350" height="479" viewBox="0 0 350 479" fill="none" xmlns="http://www.w3.org/2000/svg">
<g clip-path="url(#clip0)">
<path d="M83.6853 223.637H178.926C184.362 223.637 188.767 227.426 188.767 232.1V297.305C188.767 301.98 184.362 305.769 178.926 305.769H83.6853C78.2499 305.769 73.8445 301.98 73.8445 297.305V232.1C73.8445 227.426 78.2499 223.637 83.6853 223.637Z" fill="#B3B3B3"/>
<path d="M170.893 247.077C166.556 247.077 163.041 243.537 163.041 239.17C163.041 234.803 166.556 231.263 170.893 231.263C175.229 231.263 178.744 234.803 178.744 239.17C178.744 243.537 175.229 247.077 170.893 247.077Z" fill="#C83737"/>
<path d="M155.77 242.997C153.599 242.997 151.839 241.254 151.839 239.103C151.839 236.952 153.599 235.209 155.77 235.209C157.941 235.209 159.701 236.952 159.701 239.103C159.701 241.254 157.941 242.997 155.77 242.997Z" fill="#37C871"/>
<path d="M90.4672 234.327H146.159C146.779 234.327 147.282 234.759 147.282 235.292V240.737C147.282 241.27 146.779 241.703 146.159 241.703H90.4672C89.8472 241.703 89.3459 241.27 89.3459 240.737V235.292C89.3459 234.759 89.8472 234.327 90.4672 234.327Z" fill="#999999"/>
<path d="M96.6439 253.144H170.285C175.007 253.144 178.834 256.435 178.834 260.495V289.478C178.834 293.538 175.007 296.83 170.285 296.83H96.6439C91.9224 296.83 88.0949 293.538 88.0949 289.478V260.495C88.0949 256.435 91.9224 253.144 96.6439 253.144Z" fill="#999999"/>
<path d="M26.971 304.366L25.2848 315.515C25.2848 315.515 15.5837 336.922 29.0803 336.922C42.5776 336.922 38.7805 328.449 38.7805 328.449L37.5153 304.366H26.971Z" fill="#1A1A1A"/>
<path d="M84.3308 304.366L86.019 315.515C86.019 315.515 95.7201 336.922 82.2235 336.922C68.7265 336.922 72.5214 328.449 72.5214 328.449L73.7866 304.366H84.3308Z" fill="#1A1A1A"/>
<path d="M17.6899 175.924L21.0643 260.214L23.8263 303.463L24.1631 307.205C24.7742 313.984 40.4056 309.949 40.4781 305.559C40.1763 300.312 40.0437 296.784 40.0437 296.784L38.3574 253.97L51.0109 201.345L67.0388 257.984L70.4132 298.568C70.4132 298.568 69.5634 311.349 74.203 312.687C78.8426 314.024 86.3886 314.115 85.9665 310.101C85.5447 306.087 84.753 299.46 84.753 299.46L86.8622 181.722L80.5345 171.465L17.6899 175.924Z" fill="#002255"/>
<path d="M41.3101 49.7131C41.3101 49.7131 37.0938 65.7683 36.2495 65.7683C35.4063 65.7683 44.2634 78.2557 44.2634 78.2557L57.338 85.8373L61.9776 65.3222C61.9776 65.3222 57.7596 54.1729 58.6032 48.3752L41.3101 49.7131Z" fill="#DEAA87"/>
<path d="M50.1682 73.7958L37.6984 62.346L30.3448 66.2142L14.3169 76.9177C14.3169 76.9177 18.5346 173.249 16.4261 176.816C16.4261 176.816 21.0651 187.966 48.48 181.276C75.8954 174.587 83.0662 173.695 83.0662 173.695L77.1615 114.826L84.3314 77.8096L60.2474 60.0015L52.6985 73.7958H50.1682Z" fill="#002255"/>
<path d="M1.99377 112.413C1.99377 112.413 -2.55333 132.219 2.08469 134.449C6.72466 136.679 10.5197 135.787 10.5197 135.787L17.6906 117.502L1.99377 112.413Z" fill="#162D50"/>
<path d="M91.5007 107.69L95.2981 126.421V164.329C95.2981 164.329 89.8138 188.412 85.596 182.168C81.3782 175.924 81.4656 173.947 81.4656 173.947L86.8612 165.221L84.3308 129.543L77.6069 112.523L91.5007 107.69Z" fill="#DEAA87"/>
<path d="M17.6893 77.8097L14.3149 76.9177C14.3149 76.9177 7.98874 85.3912 5.87984 95.2027C3.77094 105.014 0.817926 114.826 2.50544 114.826C4.19217 114.826 19.3755 121.069 19.3755 121.069L17.6893 77.8097Z" fill="#002255"/>
<path d="M74.6306 76.9177L84.3308 77.8097C84.3308 77.8097 95.2978 109.474 94.0329 110.366C92.7671 111.258 77.5835 116.61 75.4746 115.272C73.3657 113.934 74.6306 76.9177 74.6306 76.9177Z" fill="#162D50"/>
<path d="M36.3109 62.967L46.9145 75.2527L41.6874 180.259C15.1403 186.448 16.1937 175.97 16.1937 175.97C18.303 172.402 14.0845 76.0709 14.0845 76.0709L30.1133 65.3677L36.3109 62.967Z" fill="#0044AA"/>
<path d="M61.67 61.061L84.4046 77.3664L77.2347 114.383L83.1394 173.251C83.1394 173.251 81.1704 172.003 59.2641 177.224L54.3374 75.5729L61.67 61.061Z" fill="#0044AA"/>
<path opacity="0.999" d="M28.9713 66.1841L23.9432 69.2019L23.7192 182.485H29.9245L28.9713 66.1841Z" fill="#999999"/>
<path d="M60.8958 109.751C63.8392 109.772 66.3797 113.475 66.592 118.056L67.3363 134.118C67.5485 138.699 65.3497 142.371 62.4064 142.35L32.9695 142.146C30.0261 142.126 27.4859 138.422 27.2736 133.841L26.6916 121.279L24.2853 121.263C24.1775 121.983 24.018 122.569 23.82 122.973C23.6221 123.377 23.3916 123.587 23.1477 123.585C22.9471 123.584 22.7418 123.439 22.5435 123.16C22.3453 122.88 22.158 122.471 21.9923 121.956C21.8266 121.441 21.6858 120.829 21.5779 120.157C21.47 119.484 21.3972 118.764 21.3635 118.037C21.2954 116.568 21.3911 115.161 21.6295 114.124C21.8678 113.088 22.2293 112.507 22.6345 112.51C22.9151 112.512 23.2033 112.794 23.4675 113.326C23.7316 113.857 23.9614 114.617 24.1318 115.523L26.6228 115.54C27.086 112.059 29.0149 109.53 31.4589 109.547L60.8958 109.751Z" fill="#4D4D4D"/>
<path d="M21.4417 125.36C19.9627 125.259 18.8551 122.227 18.9678 118.589C19.0804 114.951 20.3707 112.084 21.8497 112.185C23.3286 112.286 24.4362 115.317 24.3236 118.955C24.2109 122.593 22.9206 125.461 21.4417 125.36Z" fill="#C83737"/>
<path d="M5.88183 121.515C5.88183 121.515 0.820049 131.327 2.08539 134.449C3.35073 137.57 13.8946 139.354 15.16 139.354C16.4257 139.354 31.6099 135.786 31.6099 135.786C31.6099 135.786 54.8074 124.191 48.0589 118.393C41.3101 112.596 28.6585 126.421 28.6585 126.421H18.5344L13.0517 122.407L5.88183 121.515Z" fill="#DEAA87"/>
<path d="M52.7523 5.87572C59.6039 5.87603 65.0427 14.6049 65.1207 25.4225V27.9258C65.1403 27.9241 65.1585 27.9232 65.1781 27.9232C65.5995 27.9233 66.0037 28.3302 66.3016 29.0546C66.5996 29.779 66.7667 30.7614 66.7667 31.7858C66.7667 32.8101 66.5996 33.7926 66.3016 34.517C66.0037 35.2413 65.5995 35.6483 65.1781 35.6484C65.2369 46.4466 59.09 55.2828 52.247 55.2828H47.3223C40.7141 55.2828 34.5427 45.0506 34.108 34.618C34.034 34.6439 33.9588 34.6569 33.884 34.6572C33.4627 34.6571 33.0585 34.2502 32.7605 33.5259C32.4626 32.8015 32.2954 31.819 32.2954 30.7947C32.2954 29.7703 32.4626 28.7879 32.7605 28.0635C33.0585 27.3391 33.4627 26.9322 33.884 26.9321C33.9495 26.9314 34.0142 26.9406 34.0793 26.9596V25.4217C34.0793 14.6035 39.5952 5.875 46.4476 5.875H52.7389L52.7523 5.87572Z" fill="#DEAA87"/>
<path opacity="0.6" d="M33.7161 31.0595C33.5266 31.0415 33.4246 30.4009 33.4879 29.6288C33.5513 28.8566 33.7561 28.2453 33.9456 28.2634C34.1352 28.2815 34.2372 28.9221 34.1738 29.6942C34.1105 30.4663 33.9057 31.0776 33.7161 31.0595Z" fill="black"/>
<path opacity="0.6" d="M65.5661 32.3463C65.7556 32.3283 65.8577 31.6877 65.7943 30.9156C65.7309 30.1435 65.5262 29.5322 65.3366 29.5503C65.1471 29.5684 65.045 30.2089 65.1084 30.981C65.1717 31.7532 65.3765 32.3644 65.5661 32.3463Z" fill="black"/>
<path d="M49.4572 4.15258C58.0837 4.15258 64.6003 12.1784 65.1099 22.1133L65.3243 26.3851C65.2145 29.1903 65.3243 29.1582 65.3243 31.5465C65.3243 33.9348 65.3256 33.9868 65.2707 36.1035L64.8592 39.5686C64.6162 41.6159 63.6751 45.1766 62.438 47.5163C61.391 49.4957 59.9553 51.2745 57.986 53.0424C55.2632 55.2158 54.4782 55.6655 52.1023 55.6134L47.2139 55.5056C45.5417 55.4084 42.3125 53.889 40.4384 51.5712C38.4655 49.1366 39.122 49.978 38.0248 48.2802C36.447 45.8387 33.8618 41.0495 33.8618 36.8248V36.5437C33.9167 33.7107 33.9154 33.7147 33.9154 31.4087C33.9154 29.1028 33.9167 29.1023 33.8618 27.087V22.113C33.8618 12.1629 40.8058 4.15234 49.4323 4.15234L49.4572 4.15258ZM51.9779 15.019L46.9575 15.304L40.6164 15.1852L38.4746 17.0406L38.1492 20.0055L37.4142 22.9915L35.3509 25.1641L34.8533 28.2579L34.9241 37.8612L35.4658 41.1395L37.1348 44.635L39.9139 49.161L42.6012 52.1576L45.3803 53.8464L47.325 53.9984C47.9635 53.7464 49.3495 50.4524 49.3883 49.0037L50.0275 48.988C50.2706 49.8373 50.293 53.1441 51.3463 53.9958L54.2403 53.8978L56.4031 52.2289L60.1048 49.1383L61.4771 46.9369L62.8016 43.9263L63.7165 40.9857L64.3156 37.509L64.2218 27.916L62.9567 23.9937L61.569 21.9976C61.4005 20.8716 61.4567 20.1179 61.4293 19.2785C61.4293 18.7523 61.374 17.5876 61.2015 17.058C61.0408 16.6103 60.6216 16.5729 60.6216 16.5729C60.1457 16.3679 60.2701 16.1214 59.766 15.9364C59.4799 15.8322 59.1954 15.74 58.9105 15.6589C56.8529 15.0747 54.7403 15.0568 51.976 15.0208L51.9779 15.019Z" fill="#333333"/>
<path d="M54.6304 33.3441C53.9956 33.3441 53.482 32.7674 53.482 32.0561C53.482 31.3447 53.9956 30.7681 54.6304 30.7681C55.2652 30.7681 55.7808 31.3447 55.7808 32.0561C55.7808 32.7674 55.2652 33.3441 54.6304 33.3441Z" fill="black"/>
<path d="M45.3921 33.1952C44.7573 33.1952 44.2418 32.6185 44.2418 31.9071C44.2418 31.1958 44.7573 30.6191 45.3921 30.6191C46.0269 30.6191 46.5405 31.1958 46.5405 31.9071C46.5405 32.6185 46.0269 33.1952 45.3921 33.1952Z" fill="black"/>
<path d="M48.3044 40.9214H51.9774C52.0663 40.9214 52.1382 40.9934 52.1382 41.0823V41.3328C52.1382 41.4216 52.0663 41.4936 51.9774 41.4936H48.3044C48.2156 41.4936 48.1436 41.4216 48.1436 41.3328V41.0823C48.1436 40.9934 48.2156 40.9214 48.3044 40.9214Z" fill="black"/>
<path d="M51.5395 27.4089H56.9772C57.1652 27.4089 57.3179 27.5614 57.3179 27.7494V28.2795C57.3179 28.4675 57.1652 28.6199 56.9772 28.6199H51.5395C51.3515 28.6199 51.1988 28.4675 51.1988 28.2795V27.7494C51.1988 27.5614 51.3515 27.4089 51.5395 27.4089Z" fill="black"/>
<path d="M42.7541 27.2617H48.1727C48.3659 27.2617 48.5229 27.4184 48.5229 27.6116V28.1564C48.5229 28.3496 48.3659 28.5063 48.1727 28.5063H42.7541C42.5609 28.5063 42.4039 28.3496 42.4039 28.1564V27.6116C42.4039 27.4184 42.5609 27.2617 42.7541 27.2617Z" fill="black"/>
<path d="M55.6001 44.1436C55.598 45.354 55.0198 46.5142 53.9925 47.3695C52.9651 48.2248 51.5726 48.7052 50.1207 48.7052C48.6689 48.7052 47.2763 48.2248 46.249 47.3695C45.2216 46.5142 44.6434 45.354 44.6414 44.1436H55.6001Z" fill="#F2F2F2"/>
<path d="M55.2231 44.2649C55.2211 45.3357 54.6762 46.3622 53.708 47.1189C52.7399 47.8756 51.4275 48.3006 50.0593 48.3005C48.6911 48.3006 47.3788 47.8756 46.4106 47.1189C45.4424 46.3622 44.8975 45.3357 44.8955 44.2649H55.2231Z" fill="white"/>
<path d="M55.131 43.5565C55.0761 43.5291 55.1321 43.415 55.1329 43.3981C55.372 43.09 55.8501 43.2316 56.2009 43.5319C56.5961 43.8717 56.5178 44.3763 56.31 44.7969C56.31 44.8283 56.0363 45.2193 55.954 45.0459C55.8992 44.9659 56.1224 44.3702 56.1263 44.3226C56.1812 43.9294 56.1856 44.0972 56.0248 43.7406C55.7387 43.5341 55.5755 43.5074 55.2631 43.5564L55.131 43.5565Z" fill="#808080"/>
<path d="M44.9874 43.6654C45.0423 43.6379 45.0423 43.5285 44.9874 43.5116C44.7483 43.2035 44.2932 43.2992 43.9424 43.5987C43.5476 43.9382 43.5429 44.3668 43.7471 44.7874C43.7471 44.8188 43.9781 44.9513 44.0055 44.9314C44.0722 44.8773 43.9503 44.5515 43.9385 44.5047C43.8641 44.105 43.8646 44.1092 44.1625 43.8535C44.4329 43.623 44.518 43.6294 44.8305 43.6784L44.9874 43.6654Z" fill="#808080"/>
<path d="M53.4891 2.44922V2.44958C60.0989 2.44989 65.4947 9.9046 66.6805 19.7755H33.438C34.5771 9.90385 40.0433 2.44922 46.6542 2.44922H53.4891Z" fill="#0044AA"/>
<path d="M48.5327 0H51.3463C52.0624 0 52.6421 0.580554 52.6421 1.29662V3.04076C52.6421 3.75683 52.0624 4.33738 51.3463 4.33738H48.5327C47.8166 4.33738 47.2369 3.75683 47.2369 3.04076V1.29662C47.2369 0.580554 47.8166 0 48.5327 0Z" fill="#0044AA"/>
<path d="M39.6584 2.25439H41.6777C42.2704 2.25439 42.7515 2.73479 42.7515 3.32744V8.79133C42.7515 9.38398 42.2704 9.86438 41.6777 9.86438H39.6584C39.0658 9.86438 38.5866 9.38398 38.5866 8.79133V3.32744C38.5866 2.73479 39.0658 2.25439 39.6584 2.25439Z" fill="#0044AA"/>
<path d="M58.0912 2.16602H60.6101C61.0649 2.16602 61.4331 2.53479 61.4331 2.98964V8.95249C61.4331 9.40734 61.0649 9.77612 60.6101 9.77612H58.0912C57.6364 9.77612 57.2663 9.40734 57.2663 8.95249V2.98964C57.2663 2.53479 57.6364 2.16602 58.0912 2.16602Z" fill="#0044AA"/>
<path opacity="0.61" d="M66.914 19.6681L59.0895 15.7969H41.7371L33.6274 19.7159L66.914 19.6681Z" fill="#002255"/>
<path opacity="0.65" d="M34.7872 26.4451L37.7999 28.217V28.2195C38.5391 27.8643 39.6944 27.7987 41.0001 27.7997C41.7484 27.8003 42.5456 27.8233 43.3409 27.8233C45.4388 27.8233 47.1846 28.2846 48.1317 29.1858C48.1317 29.1858 48.9201 29.6541 49.3509 29.7582C49.5626 29.8123 49.7899 29.8124 50.0055 29.7818C50.4437 29.7132 51.2802 29.3361 51.2802 29.3361C52.7043 28.3639 54.4766 27.905 56.1418 27.89C56.9368 27.89 57.7347 27.8665 58.4826 27.8665C59.7621 27.8656 60.898 27.9276 61.6388 28.2645L64.196 27.8886V28.3515L62.5135 29.6339C62.4587 31.6723 60.4126 34.1182 57.3457 34.9412C56.1345 35.2662 54.4756 35.0662 53.5215 34.8514C52.5431 34.6307 51.8125 33.8914 51.2802 33.2079C51.0803 32.9542 50.885 32.4508 50.7443 31.9664C50.6189 31.5289 50.4004 31.2744 50.0955 31.1113C49.872 30.9902 49.5755 30.9658 49.3509 31.0798C49.0647 31.2261 48.9135 31.4632 48.7614 31.9011C48.6438 32.2456 48.3066 32.9595 48.1604 33.1434C47.6304 33.8269 46.8975 34.5664 45.9191 34.7869C44.965 35.0017 43.3065 35.2018 42.0949 34.8768C39.5646 34.1976 37.7137 32.4132 37.1261 30.6647L34.7681 27.4055L34.7872 26.4451Z" fill="white"/>
<path d="M94.249 110.13L97.3382 131.365L95.1161 165.256C95.1161 165.256 95.356 165.207 86.7021 165.2L82.9583 134.122L76.7837 115.305L94.249 110.13Z" fill="#002255"/>
<path opacity="0.999" d="M70.6773 67.2256L66.187 63.8828L66.7727 175.416L71.9635 174.461L70.6773 67.2256Z" fill="#999999"/>
<path d="M5.89716 121.377C5.89716 121.377 -0.524523 129.837 0.740818 132.984C1.28176 134.326 3.04247 136.015 5.8005 137.13C9.51225 138.63 14.4513 139.36 15.1772 139.36C16.4422 139.36 29.4356 136.319 29.4356 136.319C28.0786 134.339 28.657 137.768 28.6739 126.323H18.5507L13.068 122.277L5.89716 121.377Z" fill="#002255"/>
<path d="M254.524 157.289H247.239V171.626H254.524V157.289Z" fill="#374548"/>
<path opacity="0.95" d="M134.929 285.876V293.278L146.919 338.968L134.986 338.693V340.346L61.7126 340.642V339.016L51.8757 338.995L61.7126 300.12V285.874L134.929 285.876Z" fill="#0B2228"/>
<path opacity="0.4" d="M99.9927 291.089V338.758H109.275L103.61 291.022L99.9927 291.089Z" fill="black"/>
<path opacity="0.4" d="M64.9843 289.522H67.148V339.65H51.3384L64.9843 289.522Z" fill="black" stroke="black" stroke-width="0.201008"/>
<path opacity="0.4" d="M132.014 290.283H129.85V340.778H145.659L132.014 290.283Z" fill="black" stroke="black" stroke-width="0.201735"/>
<path d="M137.206 289.438V292.107H135.342L146.725 337.145H148.716V340.818H48.2394V337.145H50.2925L61.6763 292.107H59.8813V289.438H137.206ZM132.85 292.107H98.3572V337.145H144.234L132.85 292.107ZM94.5723 292.107H64.1676L52.7831 337.145H88.9202L94.5723 292.107Z" fill="#4D4D4D"/>
<path d="M62.3168 267.097H63.7259C64.4278 267.097 64.7558 267.543 64.9874 268.029L65.8558 269.854C66.0895 270.34 65.2958 270.785 64.5942 270.785H61.4484C60.7462 270.785 59.9549 270.34 60.1866 269.854L61.0549 268.029C61.2887 267.542 61.6149 267.097 62.3168 267.097Z" fill="#373E48"/>
<path d="M67.3892 269.192H58.71C58.3284 269.192 58.019 269.502 58.019 269.883V275.773C58.019 276.155 58.3284 276.464 58.71 276.464H67.3892C67.7708 276.464 68.0802 276.155 68.0802 275.773V269.883C68.0802 269.502 67.7708 269.192 67.3892 269.192Z" fill="#A02C2C"/>
<path d="M79.0812 261.47H121.618C121.817 261.47 121.894 261.594 121.983 261.716L131.998 275.703C132.089 275.825 131.834 275.949 131.633 275.949H70.6483C70.4494 275.949 70.2083 275.829 70.2833 275.703L78.7166 261.716C78.7934 261.59 78.8806 261.47 79.0816 261.47H79.0812Z" fill="#00222B"/>
<path d="M139.893 273.682H57.6328C56.401 273.682 55.4024 274.68 55.4024 275.912V283.959C55.4024 285.191 56.401 286.19 57.6328 286.19H139.893C141.125 286.19 142.123 285.191 142.123 283.959V275.912C142.123 274.68 141.125 273.682 139.893 273.682Z" fill="#A02C2C"/>
<path d="M149.474 45.5307L146.276 43.1598C145.082 42.2738 143.395 42.5242 142.509 43.719L131.287 58.8537C130.401 60.0485 130.651 61.7353 131.846 62.6212L135.044 64.9921C136.238 65.8781 137.925 65.6277 138.811 64.4329L150.033 49.2982C150.919 48.1034 150.669 46.4166 149.474 45.5307Z" fill="#0A2228" fill-opacity="0.952941"/>
<path d="M153.716 44.4756L252.113 129.595C253.086 130.436 253.361 131.809 252.595 132.843L244.522 143.731C243.757 144.765 242.333 144.944 241.274 144.214L134.361 70.5754C133.302 69.8456 133.113 68.3604 133.879 67.327L150.465 44.956C151.231 43.9225 152.74 43.632 153.713 44.4736L153.716 44.4756Z" fill="#C83737"/>
<path d="M168.735 66.25C166.54 65.6416 164.26 65.424 162.025 65.6097C159.79 65.7954 157.645 66.3808 155.711 67.3324C153.777 68.284 152.092 69.5833 150.753 71.1559C149.414 72.7286 148.447 74.5438 147.907 76.4981C147.884 76.5765 147.862 76.6551 147.841 76.7339C147.089 77.0284 146.503 77.6021 146.259 78.3599L103.588 211.055C103.26 212.071 103.773 213.162 104.701 213.853C102.077 224.496 109.845 235.725 122.201 239.15C134.506 242.561 146.893 236.991 150.164 226.575C151.468 226.575 152.664 225.88 152.918 224.729L182.929 88.5248C183.191 87.3414 182.578 86.1186 181.412 85.467C182.401 81.5482 181.628 77.3406 179.257 73.7475C176.886 70.1545 173.107 67.4625 168.732 66.2497L168.735 66.25Z" fill="#C83737"/>
<path d="M163.984 99.0693C155.633 99.0693 148.864 92.2665 148.864 83.8749C148.864 75.4832 155.633 68.6804 163.984 68.6804C172.335 68.6804 179.105 75.4832 179.105 83.8749C179.105 92.2665 172.335 99.0693 163.984 99.0693Z" fill="#0A2228" fill-opacity="0.952941"/>
<path d="M213.923 95.3083L199.051 115.006C198.209 116.121 198.431 117.707 199.546 118.549L221.676 135.258C222.791 136.1 224.377 135.878 225.219 134.763L240.091 115.066C240.933 113.951 240.711 112.365 239.597 111.523L217.466 94.8138C216.351 93.972 214.765 94.1934 213.923 95.3083Z" fill="#0A2228" fill-opacity="0.952941"/>
<path d="M259.875 155.406H241.71C241.519 155.406 241.363 155.561 241.363 155.752V156.945C241.363 157.136 241.519 157.292 241.71 157.292H259.875C260.067 157.292 260.222 157.136 260.222 156.945V155.752C260.222 155.561 260.067 155.406 259.875 155.406Z" fill="#1C2224"/>
<path d="M257.605 150.776H244.276V155.412H257.605V150.776Z" fill="#6F8A91"/>
<path d="M250.973 152.921C244.042 152.921 238.424 147.331 238.424 140.435C238.424 133.54 244.042 127.95 250.973 127.95C257.903 127.95 263.521 133.54 263.521 140.435C263.521 147.331 257.903 152.921 250.973 152.921Z" fill="#0A2228" fill-opacity="0.952941"/>
<path d="M62.9088 268.156L63.0658 251.716C63.0658 251.716 63.8466 230.333 67.8789 220.667C71.4548 212.094 75.2168 199.33 84.4434 198.259C92.1542 197.364 93.8745 199.175 101.612 200.265C110.601 201.531 116.775 197.627 121.39 189.025C132.746 167.858 139.748 120.617 148.182 114.519C159.68 106.206 154.972 126.731 174.84 125.589C194.649 124.45 194.059 100.616 198.751 104.078C212.974 114.575 223.276 121.114 233.541 130.624C237.773 134.544 231.729 139.359 230.207 143.719C228.766 147.847 228.553 155.39 234.769 159.964C240.47 164.16 247.148 164.946 247.148 164.946" stroke="#1A1A1A" stroke-width="4.68059"/>
<path d="M247.174 161.894L246.19 161.901C246.006 161.903 245.856 162.053 245.856 162.237L245.855 167.284C245.855 167.469 246.005 167.617 246.189 167.616L247.174 167.609C247.358 167.608 247.507 167.457 247.507 167.273L247.508 162.226C247.508 162.042 247.359 161.893 247.174 161.894Z" fill="#939DAC"/>
<path d="M126.142 206.468C125.078 206.468 124.015 206.541 122.961 206.686H54.9835C54.9835 206.686 54.9347 206.679 54.9172 206.679H44.7127C44.2155 206.679 43.815 207.205 43.815 207.858V221.214C43.815 221.868 44.2173 222.394 44.7127 222.394H47.5431V262.006H127.021V255.273C133.2 255.04 139.049 252.368 143.339 247.819C147.629 243.269 150.026 237.198 150.026 230.88C150.026 224.406 147.51 218.197 143.03 213.619C138.55 209.041 132.475 206.469 126.139 206.469L126.142 206.468Z" fill="#C83737"/>
<path d="M124.661 250.688C114.101 250.688 105.54 241.963 105.54 231.201C105.54 220.438 114.101 211.714 124.661 211.714C135.221 211.714 143.782 220.438 143.782 231.201C143.782 241.963 135.221 250.688 124.661 250.688Z" fill="#0A2228" fill-opacity="0.952941"/>
<path d="M208.703 105.568L204.031 111.573C203.484 112.275 203.615 113.282 204.323 113.822L223.713 128.598C224.421 129.138 225.439 129.005 225.986 128.303L230.658 122.299C231.205 121.596 231.074 120.589 230.366 120.049L210.976 105.273C210.268 104.733 209.25 104.866 208.703 105.568Z" fill="#6F7C91"/>
<path d="M147.439 118.908L140.408 117.022C139.936 116.895 139.449 117.175 139.32 117.647L135.804 130.569C135.675 131.041 135.954 131.527 136.427 131.653L143.458 133.539C143.93 133.666 144.417 133.386 144.546 132.914L148.062 119.992C148.191 119.52 147.912 119.034 147.439 118.908Z" fill="#6F7C91"/>
<path d="M130.137 174.823L123.165 172.727C122.697 172.586 122.202 172.852 122.059 173.319L118.157 186.131C118.015 186.599 118.279 187.092 118.747 187.233L125.719 189.328C126.187 189.469 126.683 189.204 126.825 188.736L130.727 175.925C130.869 175.457 130.605 174.964 130.137 174.823Z" fill="#6F7C91"/>
<path opacity="0.15" d="M51.013 206.702L56.057 262.448L65.9025 242.003C65.9025 242.003 70.5307 221.582 70.5307 219.99C70.5307 218.398 68.1245 209.198 68.1245 209.198L68.6921 206.233L51.013 206.702Z" fill="black"/>
<path opacity="0.2" d="M175.007 99.2737L153.215 185.647L139.225 213.054L128.645 241.521L120.49 254.284L120.939 261.775H127.078L127.608 255.058L140.264 251.383L147.283 241.703L149.988 226.854L152.662 224.818L173.187 129.021L179.677 103.519L175.007 99.2737Z" fill="black"/>
<path d="M296.522 290.436L330.46 308.464L310.632 345.792L276.693 327.764L296.522 290.436Z" fill="#F7DF1E"/>
<path d="M289.742 326.915L293.259 326.566C293.241 327.81 293.257 328.878 294.35 329.459C295.399 330.016 296.299 329.916 297.23 328.163L303.567 316.234L306.755 317.928L300.394 329.905C298.464 333.538 295.651 334.164 292.824 332.662C290.273 331.307 289.565 329.067 289.744 326.914L289.742 326.915ZM301.221 332.529L304.695 332.253C304.726 333.845 305.136 335.216 306.709 336.051C308.03 336.753 309.259 336.475 309.792 335.472C310.431 334.269 309.791 333.383 308.708 331.908L308.111 331.109C306.383 328.81 305.573 326.645 307.091 323.788C308.489 321.157 311.376 320.121 314.223 321.633C316.25 322.71 317.292 324.26 317.266 326.847L313.852 327.283C313.878 325.915 313.511 325.175 312.599 324.69C311.666 324.194 310.727 324.531 310.275 325.383C309.716 326.436 310.081 327.175 311.103 328.551L311.7 329.351C313.73 332.066 314.567 334.182 313.01 337.114C311.332 340.271 308.158 340.802 305.126 339.192C302.16 337.616 301.081 335.042 301.227 332.526" fill="black"/>
<path d="M240.834 280.734L239.392 280.833L238.631 280.886V278.975L239.63 278.788L240.247 278.67C240.247 278.67 242.159 272.788 243.994 273.857C245.829 274.926 240.834 280.734 240.834 280.734V280.734Z" fill="#714B4F"/>
<path opacity="0.1" d="M239.392 280.833L238.631 280.886V278.975L239.63 278.788C239.281 279.267 239.294 280.115 239.392 280.833V280.833Z" fill="black"/>
<path d="M263.876 249.63L260.64 287.339L246.092 291.536L231.585 287.339L228.353 249.63H263.876Z" fill="#E44D26"/>
<path d="M246.114 288.328L257.868 284.939L260.63 252.713H246.114V288.328Z" fill="#F16529"/>
<path d="M239.822 261.965H246.113V257.339H234.963L235.071 258.581L236.165 271.327H246.116V266.701H240.231L239.822 261.965ZM240.833 273.64H236.373L236.996 280.904L246.094 283.541H246.121V278.714H246.094L241.141 277.323L240.833 273.64Z" fill="#EBEBEB"/>
<path d="M246.099 271.327H251.573L251.057 277.327L246.099 278.719V283.541L255.216 280.912L255.281 280.13L256.326 267.952L256.434 266.71H246.097V271.336L246.099 271.327ZM246.099 261.954V261.965H256.841L256.931 260.925L257.143 258.579L257.251 257.337H246.101V261.952L246.099 261.954Z" fill="white"/>
<path d="M250.106 212.926L236.524 208.864L233.497 172.251H266.755L263.726 208.858L250.106 212.926Z" fill="#264DE4"/>
<path d="M261.132 206.529L263.721 175.247H250.128V209.812L261.132 206.529Z" fill="#2965F1"/>
<path d="M240.444 188.819L240.818 193.309H250.135V188.819H240.444ZM239.694 179.731L240.073 184.22H250.134V179.731H239.686H239.694ZM250.134 200.481H250.108L245.469 199.13L245.173 195.548H240.985L241.568 202.599L250.097 205.158H250.123L250.134 200.481Z" fill="#EBEBEB"/>
<path d="M259.79 188.819L260.542 179.731H250.106V184.22H255.974L255.594 188.812H250.106V193.302H255.232L254.742 199.13L250.106 200.485V205.156L258.641 202.604L258.705 201.845L259.688 190.022L259.789 188.816L259.79 188.819Z" fill="white"/>
<path d="M243.945 391.7H232.27V336.655H243.945V391.7Z" fill="#ACABAB"/>
<path d="M238.109 391.7H207.268V387.891L238.109 384.083V391.7Z" fill="#ACABAB"/>
<path d="M238.108 391.7H268.947V387.891L238.108 384.083V391.7Z" fill="#ACABAB"/>
<path d="M144.956 391.7H133.282V336.655H144.956V391.7Z" fill="#ACABAB"/>
<path d="M139.117 391.7H108.278V387.891L139.117 384.083V391.7Z" fill="#ACABAB"/>
<path d="M139.117 391.7H169.955V387.891L139.117 384.083V391.7Z" fill="#ACABAB"/>
<path d="M174.223 395.901H104.009V391.7H174.223V395.901Z" fill="#58595B"/>
<path d="M273.216 395.901H203.004V391.7H273.216V395.901Z" fill="#58595B"/>
<path d="M258.402 333.538H118.83C108.473 333.538 100.077 325.142 100.077 314.783C100.077 304.425 108.473 296.029 118.83 296.029H258.402C268.76 296.029 277.157 304.425 277.157 314.783C277.157 325.142 268.76 333.538 258.402 333.538Z" fill="#343434"/>
<path d="M249.169 332.738H255.763V334.339H249.169V332.738Z" fill="#343434"/>
<path d="M239.939 332.738H246.533V334.339H239.939V332.738Z" fill="#343434"/>
<path d="M230.707 332.738H237.301V334.339H230.707V332.738Z" fill="#343434"/>
<path d="M221.475 332.738H228.071V334.339H221.475V332.738Z" fill="#343434"/>
<path d="M212.244 332.738H218.839V334.339H212.244V332.738Z" fill="#343434"/>
<path d="M203.014 332.738H209.608V334.339H203.014V332.738Z" fill="#343434"/>
<path d="M193.782 332.738H200.376V334.339H193.782V332.738Z" fill="#343434"/>
<path d="M184.55 332.738H191.144V334.339H184.55V332.738Z" fill="#343434"/>
<path d="M175.321 332.738H181.913V334.339H175.321V332.738Z" fill="#343434"/>
<path d="M166.09 332.738H172.683V334.339H166.09V332.738Z" fill="#343434"/>
<path d="M156.857 332.738H163.449V334.339H156.857V332.738Z" fill="#343434"/>
<path d="M147.625 332.738H154.219V334.339H147.625V332.738Z" fill="#343434"/>
<path d="M138.395 332.738H144.989V334.339H138.395V332.738Z" fill="#343434"/>
<path d="M129.163 332.738H135.757V334.339H129.163V332.738Z" fill="#343434"/>
<path d="M119.931 332.738H126.525V334.339H119.931V332.738Z" fill="#343434"/>
<path d="M111.293 331.062C111.293 331.062 111.38 331.104 111.535 331.179C111.688 331.259 111.913 331.363 112.194 331.456C112.753 331.65 113.478 331.964 114.253 332.126C114.637 332.217 115.013 332.341 115.379 332.398C115.744 332.453 116.087 332.505 116.379 332.549C116.962 332.658 117.358 332.661 117.358 332.661L117.227 334.259C117.227 334.259 116.797 334.252 116.161 334.136C115.842 334.087 115.469 334.031 115.071 333.969C114.673 333.906 114.262 333.774 113.844 333.674C113.001 333.494 112.207 333.157 111.599 332.942C111.295 332.84 111.05 332.727 110.882 332.642C110.712 332.56 110.617 332.514 110.617 332.514L111.291 331.061" fill="#343434"/>
<path d="M104.496 325.561C104.496 325.561 104.554 325.641 104.659 325.779C104.768 325.912 104.896 326.127 105.102 326.34C105.517 326.762 105.994 327.4 106.605 327.903C106.898 328.167 107.183 328.44 107.465 328.679C107.762 328.901 108.038 329.107 108.276 329.284C108.74 329.651 109.085 329.847 109.085 329.847L108.212 331.191C108.212 331.191 107.839 330.978 107.332 330.577C107.075 330.384 106.773 330.159 106.451 329.919C106.142 329.658 105.832 329.362 105.512 329.075C104.85 328.523 104.325 327.834 103.877 327.372C103.656 327.138 103.514 326.907 103.395 326.761C103.283 326.611 103.218 326.524 103.218 326.524L104.496 325.561Z" fill="#343434"/>
<path d="M101.106 317.508C101.106 317.508 101.156 317.899 101.261 318.481C101.432 319.047 101.559 319.833 101.847 320.568C101.982 320.938 102.12 321.309 102.246 321.655C102.383 321.998 102.55 322.302 102.674 322.571C102.801 322.837 102.91 323.06 102.982 323.216C103.051 323.373 103.113 323.453 103.113 323.453L101.711 324.228C101.711 324.228 101.649 324.14 101.569 323.969C101.486 323.8 101.369 323.557 101.231 323.267C101.097 322.975 100.916 322.643 100.766 322.269C100.628 321.892 100.48 321.488 100.332 321.084C100.02 320.282 99.875 319.427 99.6948 318.81C99.5788 318.175 99.5249 317.749 99.5249 317.749L101.107 317.508" fill="#343434"/>
<path d="M101.919 308.803C101.919 308.803 101.883 308.895 101.825 309.058C101.767 309.22 101.669 309.448 101.607 309.738C101.477 310.315 101.218 311.065 101.136 311.853C101.078 312.243 101.019 312.634 100.965 312.999C100.928 313.369 100.93 313.713 100.915 314.01C100.915 314.305 100.878 314.551 100.878 314.723C100.878 314.896 100.878 314.994 100.878 314.994L99.2759 315.013C99.2759 315.013 99.2759 314.905 99.2759 314.717C99.2759 314.529 99.313 314.262 99.3166 313.94C99.3166 313.619 99.3533 313.242 99.375 312.841C99.433 312.442 99.4939 312.017 99.5591 311.591C99.6534 310.734 99.93 309.915 100.074 309.287C100.143 308.972 100.248 308.723 100.31 308.546C100.375 308.369 100.411 308.269 100.411 308.269L101.921 308.802" fill="#343434"/>
<path d="M106.76 301.523C106.76 301.523 106.458 301.778 106.037 302.196C105.838 302.415 105.608 302.67 105.359 302.944C105.236 303.081 105.106 303.223 104.975 303.366C104.859 303.522 104.743 303.679 104.623 303.838C104.387 304.154 104.152 304.471 103.931 304.768C103.739 305.084 103.558 305.379 103.405 305.631C103.253 305.884 103.123 306.095 103.035 306.244C102.959 306.399 102.918 306.488 102.918 306.488L101.499 305.746C101.499 305.746 101.546 305.65 101.626 305.48C101.724 305.319 101.862 305.089 102.028 304.814C102.195 304.538 102.392 304.217 102.601 303.873C102.841 303.549 103.097 303.205 103.354 302.86C103.484 302.688 103.611 302.516 103.738 302.347C103.879 302.191 104.02 302.036 104.154 301.886C104.426 301.588 104.679 301.311 104.896 301.073C105.351 300.618 105.68 300.339 105.68 300.339L106.758 301.523" fill="#343434"/>
<path d="M114.459 297.39C114.459 297.39 114.077 297.487 113.503 297.634C112.955 297.853 112.192 298.072 111.482 298.416C111.126 298.586 110.771 298.757 110.437 298.917C110.104 299.078 109.823 299.281 109.566 299.427C109.313 299.581 109.102 299.709 108.954 299.798C108.805 299.884 108.726 299.945 108.726 299.945L107.823 298.623C107.823 298.623 107.906 298.557 108.069 298.462C108.228 298.363 108.459 298.224 108.734 298.056C109.014 297.897 109.323 297.678 109.685 297.503C110.048 297.328 110.435 297.141 110.823 296.954C111.598 296.582 112.428 296.339 113.027 296.105C113.652 295.943 114.068 295.836 114.068 295.836L114.457 297.39" fill="#343434"/>
<path d="M123.447 296.83C123.447 296.83 121.797 296.83 120.149 296.83C119.737 296.83 119.324 296.83 118.938 296.83C118.567 296.848 118.221 296.862 117.924 296.877C117.63 296.892 117.381 296.902 117.208 296.913C117.034 296.917 116.941 296.931 116.941 296.931L116.773 295.338C116.773 295.338 116.878 295.323 117.067 295.316C117.255 295.309 117.524 295.294 117.846 295.277C118.165 295.262 118.539 295.248 118.94 295.228C119.326 295.228 119.738 295.228 120.15 295.228C121.799 295.228 123.447 295.228 123.447 295.228V296.829" fill="#343434"/>
<path d="M132.678 296.83H126.085V295.228H132.678V296.83Z" fill="#343434"/>
<path d="M141.908 296.83H135.316V295.228H141.908V296.83Z" fill="#343434"/>
<path d="M151.142 296.83H144.549V295.228H151.142V296.83Z" fill="#343434"/>
<path d="M160.372 296.83H153.778V295.228H160.372V296.83Z" fill="#343434"/>
<path d="M169.603 296.83H163.009V295.228H169.603V296.83Z" fill="#343434"/>
<path d="M178.834 296.83H172.24V295.228H178.834V296.83Z" fill="#343434"/>
<path d="M188.067 296.83H181.473V295.228H188.067V296.83Z" fill="#343434"/>
<path d="M197.299 296.83H190.705V295.228H197.299V296.83Z" fill="#343434"/>
<path d="M206.529 296.83H199.933V295.228H206.529V296.83Z" fill="#343434"/>
<path d="M215.76 296.83H209.165V295.228H215.76V296.83Z" fill="#343434"/>
<path d="M224.991 296.83H218.397V295.228H224.991V296.83Z" fill="#343434"/>
<path d="M234.222 296.83H227.628V295.228H234.222V296.83Z" fill="#343434"/>
<path d="M243.454 296.83H236.86V295.228H243.454V296.83Z" fill="#343434"/>
<path d="M252.687 296.83H246.093V295.228H252.687V296.83Z" fill="#343434"/>
<path d="M261.749 297.153C261.749 297.153 261.36 297.094 260.775 297.005C260.195 296.878 259.398 296.899 258.612 296.841C256.968 296.837 255.325 296.83 255.325 296.83V295.229C255.325 295.229 256.978 295.232 258.631 295.24C259.487 295.297 260.351 295.283 260.984 295.417C261.621 295.514 262.046 295.58 262.046 295.58L261.749 297.153" fill="#343434"/>
<path d="M269.684 300.826C269.684 300.826 269.37 300.591 268.897 300.237C268.441 299.853 267.736 299.486 267.07 299.064C266.366 298.713 265.665 298.346 265.112 298.139C264.557 297.936 264.186 297.8 264.186 297.8L264.701 296.283C264.701 296.283 265.104 296.432 265.71 296.653C266.313 296.881 267.079 297.277 267.845 297.662C268.573 298.117 269.336 298.524 269.833 298.939C270.349 299.325 270.692 299.582 270.692 299.582L269.684 300.826" fill="#343434"/>
<path d="M275.377 307.186C275.377 307.186 275.207 306.831 274.951 306.298C274.719 305.75 274.305 305.079 273.892 304.407C273.469 303.741 272.969 303.127 272.611 302.658C272.213 302.219 271.947 301.927 271.947 301.927L273.119 300.835C273.119 300.835 273.408 301.153 273.841 301.631C274.231 302.141 274.774 302.811 275.234 303.535C275.685 304.267 276.139 304.999 276.392 305.594C276.671 306.176 276.854 306.564 276.854 306.564L275.377 307.186Z" fill="#343434"/>
<path d="M276.27 316.465C276.27 316.465 276.307 316.07 276.322 315.479C276.383 314.888 276.318 314.099 276.281 313.311C276.237 312.523 276.063 311.75 275.991 311.163C275.842 310.59 275.745 310.207 275.745 310.207L277.294 309.799C277.294 309.799 277.398 310.216 277.557 310.84C277.641 311.48 277.827 312.324 277.878 313.181C277.921 314.039 277.985 314.897 277.92 315.541C277.884 316.184 277.865 316.612 277.865 316.612L276.272 316.465" fill="#343434"/>
<path d="M273.356 324.711C273.356 324.711 273.559 324.374 273.868 323.868C274.205 323.378 274.511 322.648 274.862 321.942C275.156 321.213 275.436 320.471 275.604 319.906C275.753 319.333 275.85 318.95 275.85 318.95L277.408 319.321C277.408 319.321 277.298 319.738 277.139 320.362C276.954 320.979 276.654 321.787 276.332 322.581C275.952 323.352 275.613 324.145 275.248 324.68C274.915 325.231 274.689 325.598 274.689 325.598L273.356 324.711Z" fill="#343434"/>
<path d="M266.888 330.605C266.888 330.605 266.979 330.564 267.124 330.471C267.272 330.382 267.482 330.253 267.734 330.099C267.981 329.939 268.294 329.782 268.589 329.561C268.887 329.338 269.201 329.102 269.517 328.866C270.146 328.389 270.702 327.824 271.142 327.43C271.54 326.991 271.806 326.7 271.806 326.7L273.001 327.764C273.001 327.764 272.711 328.082 272.278 328.558C271.801 328.989 271.194 329.603 270.51 330.122C270.166 330.379 269.821 330.636 269.497 330.878C269.175 331.118 268.839 331.292 268.568 331.466C268.293 331.634 268.062 331.772 267.903 331.87C267.743 331.972 267.646 332.016 267.646 332.016L266.888 330.606" fill="#343434"/>
<path d="M258.401 332.738C258.401 332.738 258.794 332.716 259.387 332.686C259.681 332.665 260.028 332.672 260.394 332.62C260.76 332.565 261.151 332.505 261.541 332.445C262.325 332.345 263.073 332.077 263.651 331.954C264.213 331.767 264.579 331.623 264.579 331.623L265.131 333.127C265.131 333.127 264.73 333.282 264.119 333.485C263.491 333.624 262.672 333.911 261.819 334.023C261.394 334.087 260.969 334.152 260.571 334.212C260.172 334.268 259.795 334.262 259.474 334.287C258.83 334.319 258.401 334.339 258.401 334.339V332.738" fill="#343434"/>
<path d="M257.672 332.493H119.552C109.772 332.493 101.843 324.565 101.843 314.783C101.843 305.003 109.772 297.074 119.552 297.074H257.672C267.453 297.074 275.382 305.003 275.382 314.783C275.382 324.565 267.453 332.493 257.672 332.493Z" fill="#808080"/>
<path d="M257.497 321.899C253.499 320.601 251.311 316.309 252.609 312.311C253.907 308.314 258.201 306.127 262.198 307.426C266.195 308.724 268.382 313.017 267.084 317.014C265.786 321.011 261.494 323.199 257.497 321.899Z" fill="#999999"/>
<path d="M115.031 321.899C111.034 320.601 108.845 316.309 110.143 312.311C111.441 308.314 115.736 306.127 119.733 307.426C123.73 308.724 125.917 313.017 124.618 317.014C123.32 321.011 119.028 323.199 115.031 321.899Z" fill="#B3B3B3"/>
<path d="M124.229 332.493H252.997V321.722H124.229V332.493Z" fill="#666666"/>
<path d="M250.262 343.718H126.962V324.229H250.262V343.718Z" fill="#ACABAB"/>
<path d="M144.958 343.719H133.284V349.87H144.958V343.719Z" fill="#919191"/>
<path d="M243.948 343.719H232.274V349.87H243.948V343.719Z" fill="#919191"/>
<path d="M144.958 384.802L169.961 387.891V388.597H144.958V384.802Z" fill="#919191"/>
<path d="M133.284 384.802L108.282 387.891V388.597H133.284V384.802Z" fill="#919191"/>
<path d="M243.947 384.802L268.949 387.891V388.597H243.947V384.802Z" fill="#919191"/>
<path d="M232.274 384.802L207.272 387.891V388.597H232.274V384.802Z" fill="#919191"/>
<path d="M144.958 324.273H133.284V302.034H144.958V324.273Z" fill="#ACABAB"/>
<path d="M243.948 324.273H232.274V302.034H243.948V324.273Z" fill="#ACABAB"/>
<path d="M239.526 324.273H236.697V306.483H239.526V324.273Z" fill="#606163"/>
<path d="M239.526 365.958H236.697V343.719H239.526V365.958Z" fill="#606163"/>
<path d="M140.534 324.273H137.706V306.483H140.534V324.273Z" fill="#606163"/>
<path d="M140.534 365.958H137.706V343.719H140.534V365.958Z" fill="#606163"/>
<path d="M243.791 333.974C243.791 337.11 241.248 339.653 238.112 339.653C234.976 339.653 232.433 337.11 232.433 333.974C232.433 330.838 234.976 328.296 238.112 328.296C241.248 328.296 243.791 330.838 243.791 333.974Z" fill="#666666"/>
<path d="M242.496 333.974C242.496 336.395 240.532 338.358 238.111 338.358C235.69 338.358 233.726 336.395 233.726 333.974C233.726 331.552 235.69 329.59 238.111 329.59C240.532 329.59 242.496 331.552 242.496 333.974Z" fill="#B3B3B3"/>
<path d="M236.554 336.673L234.995 333.974L236.554 331.274H239.672L241.229 333.974L239.672 336.673H236.554Z" fill="#333333"/>
<path d="M144.795 333.974C144.795 337.11 142.252 339.653 139.116 339.653C135.98 339.653 133.437 337.11 133.437 333.974C133.437 330.838 135.98 328.296 139.116 328.296C142.252 328.296 144.795 330.838 144.795 333.974Z" fill="#4D4D4D"/>
<path d="M143.502 333.974C143.502 336.395 141.538 338.358 139.117 338.358C136.696 338.358 134.734 336.395 134.734 333.974C134.734 331.552 136.696 329.59 139.117 329.59C141.538 329.59 143.502 331.552 143.502 333.974Z" fill="#B3B3B3"/>
<path d="M137.558 336.673L136 333.974L137.558 331.274H140.676L142.233 333.974L140.676 336.673H137.558Z" fill="#333333"/>
<g opacity="0.7">
<path opacity="0.7" d="M343.74 356.065H219.678C218.615 356.069 217.597 356.495 216.847 357.249C216.098 358.003 215.679 359.024 215.682 360.088V445.474C215.679 446.537 216.098 447.558 216.847 448.312C217.597 449.067 218.615 449.493 219.678 449.497H262.347V464.236H260.402C260.135 464.237 259.87 464.29 259.624 464.393C259.378 464.496 259.154 464.647 258.966 464.836C258.778 465.026 258.629 465.251 258.527 465.498C258.426 465.745 258.374 466.009 258.375 466.276V469.234H262.347V470.983H301.071V469.234H305.042V466.276C305.043 466.009 304.992 465.745 304.89 465.498C304.789 465.251 304.64 465.026 304.452 464.836C304.264 464.647 304.04 464.496 303.794 464.393C303.548 464.29 303.283 464.237 303.016 464.236H301.186V464.108H301.061V449.497H343.74C344.803 449.493 345.821 449.067 346.57 448.312C347.32 447.558 347.739 446.537 347.736 445.474V360.088C347.739 359.024 347.32 358.003 346.57 357.249C345.821 356.495 344.803 356.069 343.74 356.065Z" fill="url(#paint0_linear)"/>
</g>
<path d="M300.943 446.958H262.723V469.498H300.943V446.958Z" fill="#BDBDBD"/>
<g opacity="0.1">
<path opacity="0.1" d="M263.475 449.163H300.266C300.71 447.235 301.065 445.979 301.065 445.979H262.6C262.6 445.979 262.995 447.23 263.475 449.163Z" fill="black"/>
</g>
<path d="M220.607 356.8H343.057C343.576 356.8 344.089 356.901 344.568 357.1C345.046 357.298 345.48 357.588 345.846 357.955C346.212 358.321 346.504 358.756 346.702 359.234C346.9 359.713 347.002 360.226 347.002 360.744V436.178H216.663V360.744C216.663 360.226 216.766 359.713 216.964 359.234C217.163 358.756 217.453 358.321 217.819 357.955C218.185 357.588 218.62 357.298 219.099 357.1C219.577 356.901 220.089 356.8 220.607 356.8Z" fill="#535461"/>
<path d="M343.058 448.428H220.608C219.561 448.428 218.559 448.013 217.819 447.273C217.079 446.533 216.665 445.53 216.665 444.484V436.178H347.002V444.484C347.002 445.002 346.901 445.515 346.702 445.993C346.504 446.472 346.212 446.907 345.846 447.273C345.48 447.639 345.046 447.93 344.568 448.128C344.089 448.326 343.576 448.428 343.058 448.428Z" fill="#BDBDBD"/>
<path d="M281.833 444.509C283.051 444.509 284.037 443.521 284.037 442.303C284.037 441.086 283.051 440.099 281.833 440.099C280.615 440.099 279.629 441.086 279.629 442.303C279.629 443.521 280.615 444.509 281.833 444.509Z" fill="#535461"/>
<path d="M260.804 462.883H302.86C303.391 462.883 303.901 463.094 304.276 463.469C304.652 463.845 304.862 464.354 304.862 464.885V467.783H258.802V464.885C258.802 464.354 259.013 463.845 259.388 463.469C259.764 463.094 260.274 462.883 260.804 462.883Z" fill="#BDBDBD"/>
<g opacity="0.5">
<path opacity="0.5" d="M328.011 373.489H242.605C241.944 373.489 241.408 373.982 241.408 374.591V418.387C241.408 418.996 241.944 419.489 242.605 419.489H328.011C328.672 419.489 329.208 418.996 329.208 418.387V374.591C329.208 373.982 328.672 373.489 328.011 373.489Z" fill="url(#paint1_linear)"/>
</g>
<path d="M284.398 373.827H243.041C242.713 373.827 242.445 374.321 242.445 374.93V417.794C242.445 418.403 242.713 418.897 243.041 418.897H284.398C284.727 418.897 284.993 418.403 284.993 417.794V374.93C284.993 374.321 284.727 373.827 284.398 373.827Z" fill="#373E48"/>
<path d="M276.884 393.547H254.308C254.068 393.547 253.874 393.741 253.874 393.981C253.874 394.22 254.068 394.414 254.308 394.414H276.884C277.123 394.414 277.318 394.22 277.318 393.981C277.318 393.741 277.123 393.547 276.884 393.547Z" fill="#AA87DE"/>
<path d="M272.927 396.153H254.308C254.068 396.153 253.874 396.347 253.874 396.587C253.874 396.826 254.068 397.021 254.308 397.021H272.927C273.166 397.021 273.361 396.826 273.361 396.587C273.361 396.347 273.166 396.153 272.927 396.153Z" fill="#80FFE6"/>
<path d="M276.464 387.368H253.888C253.649 387.368 253.454 387.562 253.454 387.801C253.454 388.041 253.649 388.235 253.888 388.235H276.464C276.703 388.235 276.898 388.041 276.898 387.801C276.898 387.562 276.703 387.368 276.464 387.368Z" fill="#ABC837"/>
<path d="M276.464 389.972H253.888C253.649 389.972 253.454 390.166 253.454 390.406C253.454 390.645 253.649 390.839 253.888 390.839H276.464C276.703 390.839 276.898 390.645 276.898 390.406C276.898 390.166 276.703 389.972 276.464 389.972Z" fill="#55FFDD"/>
<path d="M276.464 399.524H253.888C253.649 399.524 253.454 399.719 253.454 399.958C253.454 400.198 253.649 400.392 253.888 400.392H276.464C276.703 400.392 276.898 400.198 276.898 399.958C276.898 399.719 276.703 399.524 276.464 399.524Z" fill="#D35FBC"/>
<path d="M276.664 402.129H253.843C253.628 402.129 253.454 402.303 253.454 402.518V402.606C253.454 402.822 253.628 402.996 253.843 402.996H276.664C276.879 402.996 277.055 402.822 277.055 402.606V402.518C277.055 402.303 276.879 402.129 276.664 402.129Z" fill="#E0E0E0"/>
<g opacity="0.1">
<path opacity="0.1" d="M301.064 462.761H262.844V463.496H301.064V462.761Z" fill="black"/>
</g>
<path d="M349.881 467.685H216.919V475.753H349.881V467.685Z" fill="#E0E0E0"/>
<path d="M347.603 476.08H219.032V478.726H347.603V476.08Z" fill="#E0E0E0"/>
<path opacity="0.1" d="M348.433 475.752H217.993V476.852H348.433V475.752Z" fill="black"/>
<path d="M276.74 382.687H254.164C253.924 382.687 253.73 382.881 253.73 383.121C253.73 383.36 253.924 383.554 254.164 383.554H276.74C276.98 383.554 277.174 383.36 277.174 383.121C277.174 382.881 276.98 382.687 276.74 382.687Z" fill="#C83737"/>
<path d="M272.784 385.294H254.164C253.924 385.294 253.73 385.488 253.73 385.728C253.73 385.967 253.924 386.161 254.164 386.161H272.784C273.023 386.161 273.217 385.967 273.217 385.728C273.217 385.488 273.023 385.294 272.784 385.294Z" fill="#8080FF"/>
<path d="M276.538 404.936H253.961C253.722 404.936 253.528 405.13 253.528 405.37C253.528 405.609 253.722 405.803 253.961 405.803H276.538C276.777 405.803 276.971 405.609 276.971 405.37C276.971 405.13 276.777 404.936 276.538 404.936Z" fill="#5FD3BC"/>
<path d="M272.581 407.543H253.961C253.722 407.543 253.528 407.737 253.528 407.977C253.528 408.216 253.722 408.41 253.961 408.41H272.581C272.821 408.41 273.015 408.216 273.015 407.977C273.015 407.737 272.821 407.543 272.581 407.543Z" fill="#8080FF"/>
<path d="M326.987 373.852H286.806C286.487 373.852 286.228 374.343 286.228 374.949V417.582C286.228 418.187 286.487 418.678 286.806 418.678H326.987C327.306 418.678 327.566 418.187 327.566 417.582V374.949C327.566 374.343 327.306 373.852 326.987 373.852Z" fill="#373E48"/>
<path d="M317.998 392.056H295.422C295.182 392.056 294.988 392.25 294.988 392.489C294.988 392.729 295.182 392.923 295.422 392.923H317.998C318.238 392.923 318.432 392.729 318.432 392.489C318.432 392.25 318.238 392.056 317.998 392.056Z" fill="#AA87DE"/>
<path d="M314.041 394.662H295.422C295.182 394.662 294.988 394.856 294.988 395.096C294.988 395.335 295.182 395.529 295.422 395.529H314.041C314.281 395.529 314.475 395.335 314.475 395.096C314.475 394.856 314.281 394.662 314.041 394.662Z" fill="#80FFE6"/>
<path d="M317.577 385.876H295.001C294.761 385.876 294.567 386.071 294.567 386.31C294.567 386.55 294.761 386.744 295.001 386.744H317.577C317.817 386.744 318.011 386.55 318.011 386.31C318.011 386.071 317.817 385.876 317.577 385.876Z" fill="#ABC837"/>
<path d="M317.577 388.481H295.001C294.761 388.481 294.567 388.675 294.567 388.914C294.567 389.154 294.761 389.348 295.001 389.348H317.577C317.817 389.348 318.011 389.154 318.011 388.914C318.011 388.675 317.817 388.481 317.577 388.481Z" fill="#55FFDD"/>
<path d="M317.577 398.033H295.001C294.761 398.033 294.567 398.227 294.567 398.467C294.567 398.706 294.761 398.9 295.001 398.9H317.577C317.817 398.9 318.011 398.706 318.011 398.467C318.011 398.227 317.817 398.033 317.577 398.033Z" fill="#D35FBC"/>
<path d="M317.778 400.638H294.957C294.741 400.638 294.567 400.812 294.567 401.027V401.115C294.567 401.331 294.741 401.505 294.957 401.505H317.778C317.993 401.505 318.168 401.331 318.168 401.115V401.027C318.168 400.812 317.993 400.638 317.778 400.638Z" fill="#E0E0E0"/>
<path d="M317.854 381.196H295.278C295.038 381.196 294.844 381.39 294.844 381.629C294.844 381.869 295.038 382.063 295.278 382.063H317.854C318.093 382.063 318.288 381.869 318.288 381.629C318.288 381.39 318.093 381.196 317.854 381.196Z" fill="#C83737"/>
<path d="M313.897 383.803H295.278C295.038 383.803 294.844 383.997 294.844 384.236C294.844 384.476 295.038 384.67 295.278 384.67H313.897C314.137 384.67 314.331 384.476 314.331 384.236C314.331 383.997 314.137 383.803 313.897 383.803Z" fill="#8080FF"/>
<path d="M317.651 403.445H295.075C294.835 403.445 294.641 403.639 294.641 403.878C294.641 404.118 294.835 404.312 295.075 404.312H317.651C317.891 404.312 318.085 404.118 318.085 403.878C318.085 403.639 317.891 403.445 317.651 403.445Z" fill="#5FD3BC"/>
<path d="M313.695 406.052H295.075C294.835 406.052 294.641 406.246 294.641 406.485C294.641 406.725 294.835 406.919 295.075 406.919H313.695C313.934 406.919 314.128 406.725 314.128 406.485C314.128 406.246 313.934 406.052 313.695 406.052Z" fill="#8080FF"/>
<path opacity="0.15" d="M341.395 363.913H225.532C224.635 363.913 223.908 364.619 223.908 365.49V428.155C223.908 429.027 224.635 429.733 225.532 429.733H341.395C342.292 429.733 343.02 429.027 343.02 428.155V365.49C343.02 364.619 342.292 363.913 341.395 363.913Z" fill="black"/>
<path d="M250.888 172.162C254.073 172.162 256.654 172.008 256.654 171.819C256.654 171.629 254.073 171.475 250.888 171.475C247.703 171.475 245.122 171.629 245.122 171.819C245.122 172.008 247.703 172.162 250.888 172.162Z" fill="#6F8A91"/>
</g>
<defs>
<linearGradient id="paint0_linear" x1="281.709" y1="470.98" x2="281.709" y2="356.065" gradientUnits="userSpaceOnUse">
<stop stop-color="#808080" stop-opacity="0.25"/>
<stop offset="0.54" stop-color="#808080" stop-opacity="0.12"/>
<stop offset="1" stop-color="#808080" stop-opacity="0.1"/>
</linearGradient>
<linearGradient id="paint1_linear" x1="46554.8" y1="12282.1" x2="46554.8" y2="3645.05" gradientUnits="userSpaceOnUse">
<stop stop-color="#808080" stop-opacity="0.25"/>
<stop offset="0.54" stop-color="#808080" stop-opacity="0.12"/>
<stop offset="1" stop-color="#808080" stop-opacity="0.1"/>
</linearGradient>
<clipPath id="clip0">
<rect width="349.881" height="478.726" fill="white"/>
</clipPath>
</defs>
</svg>
