<svg width="307" height="437" viewBox="0 0 307 437" fill="none" xmlns="http://www.w3.org/2000/svg">
<g clip-path="url(#clip0)">
<path d="M39.9209 181.231H135.279C140.721 181.231 145.131 185.025 145.131 189.705V254.99C145.131 259.67 140.721 263.464 135.279 263.464H39.9209C34.4789 263.464 30.0681 259.67 30.0681 254.99V189.705C30.0681 185.025 34.4789 181.231 39.9209 181.231Z" fill="#B3B3B3"/>
<path d="M127.235 204.7C122.893 204.7 119.374 201.156 119.374 196.783C119.374 192.411 122.893 188.866 127.235 188.866C131.576 188.866 135.095 192.411 135.095 196.783C135.095 201.156 131.576 204.7 127.235 204.7Z" fill="#C83737"/>
<path d="M112.091 200.615C109.917 200.615 108.155 198.869 108.155 196.716C108.155 194.563 109.917 192.817 112.091 192.817C114.265 192.817 116.027 194.563 116.027 196.716C116.027 198.869 114.265 200.615 112.091 200.615Z" fill="#37C871"/>
<path d="M46.7112 191.934H102.471C103.092 191.934 103.595 192.367 103.595 192.901V198.352C103.595 198.886 103.092 199.319 102.471 199.319H46.7112C46.0904 199.319 45.5885 198.886 45.5885 198.352V192.901C45.5885 192.367 46.0904 191.934 46.7112 191.934Z" fill="#999999"/>
<path d="M52.8939 210.774H126.626C131.353 210.774 135.185 214.069 135.185 218.135V247.152C135.185 251.218 131.353 254.513 126.626 254.513H52.8939C48.1666 254.513 44.3344 251.218 44.3344 247.152V218.135C44.3344 214.069 48.1666 210.774 52.8939 210.774Z" fill="#999999"/>
<path d="M23.0214 225.024L21.8381 232.849C21.8381 232.849 15.0302 247.871 24.5016 247.871C33.9735 247.871 31.3088 241.925 31.3088 241.925L30.4209 225.024H23.0214Z" fill="#1A1A1A"/>
<path d="M63.2745 225.024L64.4592 232.849C64.4592 232.849 71.267 247.871 61.7956 247.871C52.324 247.871 54.9871 241.925 54.9871 241.925L55.8749 225.024H63.2745Z" fill="#1A1A1A"/>
<path d="M16.5103 134.889L18.8783 194.04L20.8165 224.391L21.0529 227.017C21.4817 231.774 32.4512 228.942 32.5021 225.862C32.2903 222.179 32.1972 219.704 32.1972 219.704L31.0139 189.659L39.8936 152.729L51.1413 192.476L53.5093 220.956C53.5093 220.956 52.913 229.925 56.1688 230.863C59.4247 231.802 64.7202 231.866 64.424 229.049C64.128 226.232 63.5724 221.582 63.5724 221.582L65.0526 138.958L60.612 131.76L16.5103 134.889Z" fill="#002255"/>
<path d="M33.0837 46.3195C33.0837 46.3195 30.1249 57.5864 29.5324 57.5864C28.9407 57.5864 35.1563 66.3495 35.1563 66.3495L44.3315 71.67L47.5873 57.2733C47.5873 57.2733 44.6273 49.4492 45.2193 45.3806L33.0837 46.3195Z" fill="#DEAA87"/>
<path d="M39.3001 63.2199L30.5493 55.1849L25.3889 57.8994L14.1411 65.4107C14.1411 65.4107 17.101 133.012 15.6213 135.516C15.6213 135.516 18.8767 143.34 38.1154 138.645C57.3544 133.951 62.3866 133.325 62.3866 133.325L58.2429 92.013L63.2744 66.0366L46.3733 53.5396L41.0758 63.2199H39.3001Z" fill="#002255"/>
<path d="M5.49275 90.3193C5.49275 90.3193 2.30178 104.219 5.55656 105.783C8.8127 107.348 11.4759 106.722 11.4759 106.722L16.5081 93.8908L5.49275 90.3193Z" fill="#162D50"/>
<path d="M68.3063 87.0054L70.9711 100.15V126.752C70.9711 126.752 67.1224 143.653 64.1626 139.271C61.2027 134.89 61.264 133.502 61.264 133.502L65.0504 127.378L63.2747 102.341L58.5562 90.3972L68.3063 87.0054Z" fill="#DEAA87"/>
<path d="M16.5088 66.0366L14.1408 65.4106C14.1408 65.4106 9.70133 71.357 8.22139 78.2423C6.74144 85.1276 4.66914 92.013 5.85337 92.013C7.03705 92.013 17.6921 96.3945 17.6921 96.3945L16.5088 66.0366Z" fill="#002255"/>
<path d="M56.4676 65.4106L63.2748 66.0366C63.2748 66.0366 70.971 88.2574 70.0834 88.8833C69.1951 89.5092 58.5399 93.2648 57.0599 92.3259C55.58 91.387 56.4676 65.4106 56.4676 65.4106Z" fill="#162D50"/>
<path d="M29.5756 55.6206L37.0168 64.2422L33.3486 137.931C14.719 142.275 15.4582 134.921 15.4582 134.921C16.9384 132.418 13.978 64.8164 13.978 64.8164L25.2264 57.3053L29.5756 55.6206Z" fill="#0044AA"/>
<path d="M47.3737 54.2832L63.328 65.7256L58.2964 91.7023L62.4401 133.014C62.4401 133.014 61.0583 132.138 45.6854 135.802L42.228 64.4671L47.3737 54.2832Z" fill="#0044AA"/>
<path opacity="0.999" d="M24.4244 57.8782L20.8959 59.9959L20.7388 139.493H25.0933L24.4244 57.8782Z" fill="#999999"/>
<path d="M46.8292 88.452C48.8947 88.4663 50.6776 91.0655 50.8265 94.28L51.3488 105.552C51.4978 108.766 49.9548 111.343 47.8892 111.329L27.2316 111.185C25.1661 111.171 23.3835 108.572 23.2345 105.357L22.826 96.542L21.1374 96.5303C21.0618 97.0354 20.9498 97.447 20.8109 97.7306C20.672 98.0142 20.5102 98.1615 20.3391 98.1602C20.1983 98.1592 20.0542 98.0577 19.9151 97.8615C19.776 97.6653 19.6446 97.3782 19.5283 97.0166C19.412 96.655 19.3132 96.2261 19.2375 95.7542C19.1618 95.2823 19.1106 94.7767 19.087 94.2664C19.0392 93.2358 19.1064 92.2481 19.2737 91.5207C19.4409 90.7934 19.6946 90.3858 19.9789 90.3877C20.1759 90.3892 20.3781 90.5873 20.5635 90.9603C20.7489 91.3333 20.9101 91.8668 21.0297 92.5023L22.7778 92.5144C23.1028 90.0717 24.4565 88.2969 26.1716 88.3088L46.8292 88.452Z" fill="#4D4D4D"/>
<path d="M19.1418 99.4052C18.104 99.3343 17.3267 97.2072 17.4057 94.6542C17.4848 92.1012 18.3903 90.089 19.4281 90.1599C20.466 90.2308 21.2433 92.358 21.1642 94.911C21.0852 97.464 20.1797 99.4762 19.1418 99.4052Z" fill="#C83737"/>
<path d="M8.22222 96.7075C8.22222 96.7075 4.67007 103.593 5.55803 105.784C6.446 107.974 13.8453 109.226 14.7333 109.226C15.6215 109.226 26.2772 106.722 26.2772 106.722C26.2772 106.722 42.5562 98.5853 37.8204 94.5167C33.0843 90.4482 24.206 100.15 24.206 100.15H17.1013L13.2537 97.3335L8.22222 96.7075Z" fill="#DEAA87"/>
<path d="M41.1161 15.5559C45.9243 15.5561 49.741 21.6817 49.7957 29.2731V31.0298C49.8094 31.0286 49.8222 31.0279 49.836 31.028C50.1317 31.028 50.4154 31.3136 50.6244 31.8219C50.8335 32.3303 50.9508 33.0197 50.9508 33.7386C50.9508 34.4574 50.8335 35.1469 50.6244 35.6552C50.4154 36.1635 50.1317 36.4491 49.836 36.4492C49.8773 44.0269 45.5636 50.2278 40.7615 50.2278H37.3055C32.6682 50.2278 28.3373 43.0473 28.0322 35.7261C27.9803 35.7442 27.9276 35.7534 27.8751 35.7536C27.5794 35.7535 27.2957 35.468 27.0866 34.9597C26.8776 34.4513 26.7603 33.7619 26.7603 33.043C26.7603 32.3242 26.8776 31.6347 27.0866 31.1264C27.2957 30.6181 27.5794 30.3325 27.8751 30.3324C27.9211 30.332 27.9665 30.3384 28.0121 30.3517V29.2725C28.0121 21.6807 31.883 15.5554 36.6917 15.5554H41.1067L41.1161 15.5559Z" fill="#DEAA87"/>
<path opacity="0.6" d="M27.7541 33.2293C27.621 33.2166 27.5494 32.7671 27.5939 32.2252C27.6384 31.6834 27.7821 31.2544 27.9151 31.2671C28.0481 31.2798 28.1197 31.7293 28.0752 32.2711C28.0308 32.813 27.8871 33.242 27.7541 33.2293Z" fill="black"/>
<path opacity="0.6" d="M50.1063 34.1321C50.2393 34.1194 50.3109 33.6699 50.2665 33.128C50.222 32.5862 50.0783 32.1572 49.9453 32.1699C49.8123 32.1826 49.7406 32.6321 49.7851 33.174C49.8296 33.7158 49.9733 34.1448 50.1063 34.1321Z" fill="black"/>
<path d="M38.8011 14.3468C44.8549 14.3468 49.428 19.979 49.7856 26.9509L49.936 29.9487C49.859 31.9173 49.936 31.8948 49.936 33.5708C49.936 35.2468 49.9369 35.2833 49.8984 36.7687L49.6096 39.2004C49.4391 40.6371 48.7787 43.1358 47.9105 44.7777C47.1758 46.1668 46.1683 47.4151 44.7863 48.6557C42.8756 50.181 42.3247 50.4966 40.6574 50.4599L37.2269 50.3843C36.0534 50.3161 33.7872 49.2499 32.4721 47.6233C31.0876 45.9148 31.5483 46.5053 30.7783 45.3138C29.6711 43.6005 27.8569 40.2396 27.8569 37.2749V37.0776C27.8954 35.0896 27.8945 35.0924 27.8945 33.4741C27.8945 31.8559 27.8954 31.8555 27.8569 30.4413V26.9508C27.8569 19.9681 32.7299 14.3467 38.7837 14.3467L38.8011 14.3468ZM40.5701 21.9725L37.0469 22.1724L32.597 22.0891L31.094 23.3911L30.8656 25.4718L30.3499 27.5672L28.9019 29.0919L28.5527 31.263L28.6024 38.0022L28.9825 40.3028L30.1538 42.7557L32.1041 45.9319L33.9899 48.0348L35.9402 49.2199L37.3048 49.3266C37.7529 49.1498 38.7255 46.8382 38.7528 45.8215L39.2014 45.8105C39.3719 46.4065 39.3877 48.7271 40.1268 49.3248L42.1577 49.256L43.6755 48.0849L46.2732 45.916L47.2363 44.3712L48.1657 42.2584L48.8078 40.1948L49.2282 37.755L49.1624 31.023L48.2745 28.2705L47.3007 26.8698C47.1824 26.0796 47.2219 25.5507 47.2027 24.9616C47.2027 24.5923 47.1639 23.775 47.0428 23.4034C46.9301 23.0891 46.6359 23.063 46.6359 23.063C46.3019 22.9191 46.3892 22.7461 46.0355 22.6163C45.8346 22.5431 45.635 22.4784 45.4351 22.4215C43.9911 22.0116 42.5086 21.999 40.5687 21.9737L40.5701 21.9725Z" fill="#333333"/>
<path d="M42.4315 34.8322C41.986 34.8322 41.6256 34.4275 41.6256 33.9283C41.6256 33.4291 41.986 33.0244 42.4315 33.0244C42.877 33.0244 43.2388 33.4291 43.2388 33.9283C43.2388 34.4275 42.877 34.8322 42.4315 34.8322Z" fill="black"/>
<path d="M35.9485 34.7277C35.503 34.7277 35.1412 34.323 35.1412 33.8238C35.1412 33.3246 35.503 32.9199 35.9485 32.9199C36.394 32.9199 36.7544 33.3246 36.7544 33.8238C36.7544 34.323 36.394 34.7277 35.9485 34.7277Z" fill="black"/>
<path d="M37.9927 40.1499H40.5703C40.6326 40.1499 40.6831 40.2005 40.6831 40.2628V40.4386C40.6831 40.5009 40.6326 40.5514 40.5703 40.5514H37.9927C37.9304 40.5514 37.8799 40.5009 37.8799 40.4386V40.2628C37.8799 40.2005 37.9304 40.1499 37.9927 40.1499Z" fill="black"/>
<path d="M40.2628 30.6675H44.0788C44.2107 30.6675 44.3179 30.7745 44.3179 30.9064V31.2784C44.3179 31.4103 44.2107 31.5173 44.0788 31.5173H40.2628C40.1309 31.5173 40.0237 31.4103 40.0237 31.2784V30.9064C40.0237 30.7745 40.1309 30.6675 40.2628 30.6675Z" fill="black"/>
<path d="M34.0967 30.564H37.8992C38.0348 30.564 38.145 30.6739 38.145 30.8095V31.1918C38.145 31.3274 38.0348 31.4374 37.8992 31.4374H34.0967C33.9611 31.4374 33.8509 31.3274 33.8509 31.1918V30.8095C33.8509 30.6739 33.9611 30.564 34.0967 30.564Z" fill="black"/>
<path d="M43.1128 42.4111C43.1113 43.2606 42.7056 44.0748 41.9846 44.675C41.2637 45.2752 40.2864 45.6123 39.2676 45.6123C38.2487 45.6123 37.2715 45.2752 36.5506 44.675C35.8296 44.0748 35.4238 43.2606 35.4224 42.4111H43.1128Z" fill="#F2F2F2"/>
<path d="M42.8481 42.4963C42.8468 43.2478 42.4644 43.9682 41.785 44.4992C41.1055 45.0302 40.1846 45.3284 39.2244 45.3284C38.2643 45.3284 37.3433 45.0302 36.6639 44.4992C35.9845 43.9682 35.6021 43.2478 35.6007 42.4963H42.8481Z" fill="white"/>
<path d="M42.784 41.9991C42.7455 41.9798 42.7848 41.8998 42.7853 41.8879C42.9531 41.6717 43.2886 41.7711 43.5348 41.9818C43.8121 42.2203 43.7572 42.5744 43.6114 42.8695C43.6114 42.8916 43.4193 43.166 43.3615 43.0442C43.323 42.9881 43.4797 42.5701 43.4824 42.5367C43.5209 42.2608 43.524 42.3785 43.4112 42.1283C43.2104 41.9833 43.0959 41.9646 42.8767 41.999L42.784 41.9991Z" fill="#808080"/>
<path d="M35.6637 42.0755C35.7022 42.0562 35.7022 41.9794 35.6637 41.9676C35.4959 41.7514 35.1765 41.8186 34.9303 42.0287C34.6533 42.2669 34.65 42.5677 34.7933 42.8629C34.7933 42.8849 34.9554 42.9779 34.9746 42.9639C35.0214 42.926 34.9359 42.6973 34.9276 42.6645C34.8753 42.384 34.8757 42.387 35.0848 42.2075C35.2746 42.0458 35.3343 42.0503 35.5535 42.0846L35.6637 42.0755Z" fill="#808080"/>
<path d="M41.6312 13.1514V13.1516C46.2696 13.1518 50.0562 18.3833 50.8883 25.3103H27.5601C28.3594 18.3827 32.1954 13.1514 36.8347 13.1514H41.6312Z" fill="#0044AA"/>
<path d="M38.1528 11.4329H40.1273C40.6298 11.4329 41.0366 11.8403 41.0366 12.3428V13.5667C41.0366 14.0693 40.6298 14.4767 40.1273 14.4767H38.1528C37.6503 14.4767 37.2435 14.0693 37.2435 13.5667V12.3428C37.2435 11.8403 37.6503 11.4329 38.1528 11.4329Z" fill="#0044AA"/>
<path d="M31.9246 13.0149H33.3417C33.7576 13.0149 34.0952 13.352 34.0952 13.7679V17.6023C34.0952 18.0181 33.7576 18.3553 33.3417 18.3553H31.9246C31.5088 18.3553 31.1725 18.0181 31.1725 17.6023V13.7679C31.1725 13.352 31.5088 13.0149 31.9246 13.0149Z" fill="#0044AA"/>
<path d="M44.8614 12.9526H46.629C46.9482 12.9526 47.2065 13.2114 47.2065 13.5306V17.7151C47.2065 18.0343 46.9482 18.2931 46.629 18.2931H44.8614C44.5422 18.2931 44.2825 18.0343 44.2825 17.7151V13.5306C44.2825 13.2114 44.5422 12.9526 44.8614 12.9526Z" fill="#0044AA"/>
<path opacity="0.61" d="M51.052 25.2352L45.5611 22.5186H33.3839L27.6929 25.2688L51.052 25.2352Z" fill="#002255"/>
<path opacity="0.65" d="M28.5071 29.9907L30.6212 31.2342V31.2359C31.14 30.9867 31.9507 30.9406 32.867 30.9414C33.3922 30.9418 33.9516 30.9579 34.5097 30.9579C35.982 30.9579 37.2071 31.2817 37.8717 31.9141C37.8717 31.9141 38.425 32.2427 38.7273 32.3158C38.8758 32.3537 39.0354 32.3538 39.1867 32.3323C39.4942 32.2842 40.0812 32.0195 40.0812 32.0195C41.0806 31.3373 42.3243 31.0152 43.4929 31.0047C44.0507 31.0047 44.6107 30.9882 45.1356 30.9882C46.0335 30.9876 46.8306 31.0311 47.3505 31.2675L49.145 31.0037V31.3286L47.9643 32.2285C47.9258 33.659 46.49 35.3754 44.3377 35.953C43.4877 36.181 42.3236 36.0407 41.6541 35.8899C40.9675 35.7351 40.4548 35.2162 40.0812 34.7366C39.9409 34.5586 39.8039 34.2053 39.7051 33.8654C39.6171 33.5583 39.4638 33.3798 39.2498 33.2653C39.093 33.1803 38.8849 33.1632 38.7273 33.2432C38.5265 33.3458 38.4203 33.5123 38.3136 33.8195C38.2311 34.0613 37.9944 34.5623 37.8918 34.6913C37.5199 35.171 37.0056 35.69 36.319 35.8447C35.6494 35.9954 34.4856 36.1358 33.6353 35.9077C31.8597 35.4311 30.5608 34.179 30.1484 32.9519L28.4937 30.6647L28.5071 29.9907Z" fill="white"/>
<path d="M70.2355 88.7173L72.4034 103.619L70.8439 127.402C70.8439 127.402 71.0123 127.368 64.9393 127.363L62.3121 105.554L57.979 92.3495L70.2355 88.7173Z" fill="#002255"/>
<path opacity="0.999" d="M53.6945 58.609L50.5435 56.2632L50.9545 134.533L54.5972 133.863L53.6945 58.609Z" fill="#999999"/>
<path d="M8.23196 96.6106C8.23196 96.6106 3.72548 102.547 4.61344 104.756C4.99306 105.697 6.22865 106.883 8.16413 107.665C10.7689 108.718 14.2349 109.23 14.7443 109.23C15.632 109.23 24.7503 107.096 24.7503 107.096C23.798 105.707 24.2039 108.113 24.2157 100.081H17.1117L13.2642 97.2416L8.23196 96.6106Z" fill="#002255"/>
<path d="M210.967 114.802H203.672V129.157H210.967V114.802Z" fill="#374548"/>
<path opacity="0.95" d="M91.2254 243.547V250.957L103.23 296.704L91.2827 296.428V298.082L17.9194 298.38V296.751L8.07056 296.73L17.9194 257.807V243.544L91.2254 243.547Z" fill="#0B2228"/>
<path opacity="0.4" d="M56.2465 248.765V296.493H65.5403L59.8684 248.698L56.2465 248.765Z" fill="black"/>
<path opacity="0.4" d="M21.1953 247.197H23.3616V297.386H7.53271L21.1953 247.197Z" fill="black" stroke="black" stroke-width="0.201254"/>
<path opacity="0.4" d="M88.3066 247.958H86.1399V298.515H101.968L88.3066 247.958Z" fill="black" stroke="black" stroke-width="0.201982"/>
<path d="M93.5053 247.112V249.785H91.6386L103.036 294.877H105.029V298.556H4.42981V294.877H6.48545L17.8831 249.785H16.086V247.112H93.5053ZM89.1443 249.785H54.6089V294.877H100.542L89.1443 249.785ZM50.8194 249.785H20.3775L8.9791 294.877H45.1603L50.8194 249.785Z" fill="#4D4D4D"/>
<path d="M18.5245 224.744H19.9353C20.6381 224.744 20.9664 225.19 21.1984 225.677L22.0678 227.504C22.3018 227.991 21.5071 228.436 20.8047 228.436H17.6551C16.9519 228.436 16.1597 227.991 16.3916 227.504L17.261 225.677C17.4951 225.19 17.8217 224.744 18.5245 224.744Z" fill="#373E48"/>
<path d="M23.603 226.842H14.9132C14.5311 226.842 14.2213 227.152 14.2213 227.534V233.431C14.2213 233.813 14.5311 234.123 14.9132 234.123H23.603C23.9851 234.123 24.2949 233.813 24.2949 233.431V227.534C24.2949 227.152 23.9851 226.842 23.603 226.842Z" fill="#A02C2C"/>
<path d="M35.3094 219.11H77.8982C78.0973 219.11 78.1741 219.234 78.2639 219.357L88.2909 233.36C88.3817 233.483 88.1268 233.606 87.9256 233.606H26.8661C26.667 233.606 26.4256 233.487 26.5007 233.36L34.9444 219.357C35.0212 219.23 35.1085 219.11 35.3097 219.11H35.3094Z" fill="#00222B"/>
<path d="M96.1956 231.337H13.8348C12.6014 231.337 11.6016 232.337 11.6016 233.57V241.627C11.6016 242.86 12.6014 243.86 13.8348 243.86H96.1956C97.429 243.86 98.4288 242.86 98.4288 241.627V233.57C98.4288 232.337 97.429 231.337 96.1956 231.337Z" fill="#A02C2C"/>
<path d="M105.788 2.90668L102.587 0.532821C101.391 -0.354185 99.7017 -0.103489 98.8147 1.09276L87.5788 16.246C86.6918 17.4422 86.9424 19.131 88.1387 20.0181L91.3402 22.3919C92.5364 23.2789 94.2252 23.0282 95.1122 21.832L106.348 6.67875C107.235 5.4825 106.985 3.79369 105.788 2.90668Z" fill="#0A2228" fill-opacity="0.952941"/>
<path d="M110.036 1.85027L208.553 87.0735C209.527 87.9161 209.803 89.2908 209.035 90.3259L200.953 101.228C200.187 102.262 198.761 102.441 197.701 101.71L90.6572 27.9819C89.5963 27.2513 89.407 25.7642 90.1741 24.7296L106.781 2.33118C107.548 1.29649 109.059 1.00555 110.033 1.84824L110.036 1.85027Z" fill="#C83737"/>
<path d="M125.073 23.6513C122.875 23.0421 120.592 22.8242 118.355 23.0102C116.117 23.1961 113.969 23.7822 112.033 24.735C110.096 25.6878 108.41 26.9886 107.069 28.5632C105.728 30.1378 104.76 31.9552 104.219 33.9119C104.197 33.9904 104.174 34.0691 104.153 34.148C103.4 34.4428 102.813 35.0172 102.569 35.776L59.8463 168.633C59.518 169.651 60.0314 170.743 60.9609 171.435C58.3335 182.091 66.111 193.334 78.4815 196.763C90.8017 200.178 103.205 194.601 106.479 184.173C107.785 184.173 108.982 183.476 109.236 182.324L139.284 45.9533C139.546 44.7685 138.933 43.5442 137.765 42.8918C138.756 38.9682 137.981 34.7554 135.607 31.158C133.234 27.5605 129.45 24.8653 125.069 23.6509L125.073 23.6513Z" fill="#C83737"/>
<path d="M120.316 56.5108C111.955 56.5108 105.177 49.6997 105.177 41.2978C105.177 32.8958 111.955 26.0847 120.316 26.0847C128.677 26.0847 135.455 32.8958 135.455 41.2978C135.455 49.6997 128.677 56.5108 120.316 56.5108Z" fill="#0A2228" fill-opacity="0.952941"/>
<path d="M170.316 52.7451L155.426 72.4666C154.583 73.5829 154.805 75.171 155.921 76.0139L178.078 92.7435C179.195 93.5863 180.783 93.3646 181.626 92.2484L196.516 72.5268C197.359 71.4106 197.137 69.8225 196.021 68.9796L173.864 52.25C172.747 51.4072 171.159 51.6288 170.316 52.7451Z" fill="#0A2228" fill-opacity="0.952941"/>
<path d="M216.325 112.916H198.137C197.946 112.916 197.79 113.072 197.79 113.263V114.457C197.79 114.649 197.946 114.804 198.137 114.804H216.325C216.517 114.804 216.672 114.649 216.672 114.457V113.263C216.672 113.072 216.517 112.916 216.325 112.916Z" fill="#1C2224"/>
<path d="M214.051 108.281H200.707V112.922H214.051V108.281Z" fill="#6F8A91"/>
<path d="M207.411 110.428C200.472 110.428 194.847 104.831 194.847 97.9272C194.847 91.0233 200.472 85.4265 207.411 85.4265C214.35 85.4265 219.975 91.0233 219.975 97.9272C219.975 104.831 214.35 110.428 207.411 110.428Z" fill="#0A2228" fill-opacity="0.952941"/>
<path d="M19.1172 225.804L19.2744 209.344C19.2744 209.344 20.0561 187.935 24.0933 178.257C27.6736 169.674 31.4402 156.894 40.6781 155.822C48.3983 154.926 50.1208 156.739 57.8675 157.83C66.8673 159.098 73.0492 155.189 77.6697 146.577C89.0402 125.384 96.0503 78.0845 104.495 71.9792C116.007 63.6557 111.293 84.2063 131.185 83.0625C151.018 81.9221 150.428 58.0589 155.126 61.5258C169.366 72.0348 179.68 78.5819 189.958 88.1036C194.195 92.0291 188.144 96.8496 186.62 101.215C185.177 105.348 184.964 112.9 191.188 117.48C196.896 121.681 203.581 122.467 203.581 122.467" stroke="#1A1A1A" stroke-width="4.68632"/>
<path d="M203.608 119.413L202.623 119.42C202.438 119.421 202.288 119.572 202.288 119.756L202.288 124.81C202.288 124.994 202.437 125.143 202.622 125.141L203.607 125.135C203.792 125.133 203.942 124.983 203.942 124.798L203.942 119.745C203.942 119.56 203.793 119.412 203.608 119.413Z" fill="#939DAC"/>
<path d="M82.4276 164.04C81.3624 164.04 80.2984 164.113 79.2427 164.259H11.1822C11.1822 164.259 11.1333 164.252 11.1158 164.252H0.898748C0.400995 164.252 0 164.778 0 165.433V178.805C0 179.459 0.402741 179.986 0.898748 179.986H3.73262V219.647H83.3082V212.906C89.494 212.672 95.3502 209.997 99.6456 205.442C103.941 200.887 106.341 194.808 106.341 188.482C106.341 182 103.821 175.784 99.3364 171.201C94.8513 166.617 88.7681 164.042 82.4251 164.042L82.4276 164.04Z" fill="#C83737"/>
<path d="M80.9449 208.315C70.3715 208.315 61.8001 199.58 61.8001 188.804C61.8001 178.028 70.3715 169.293 80.9449 169.293C91.5182 169.293 100.09 178.028 100.09 188.804C100.09 199.58 91.5182 208.315 80.9449 208.315Z" fill="#0A2228" fill-opacity="0.952941"/>
<path d="M165.09 63.018L160.412 69.0295C159.865 69.7331 159.996 70.7415 160.705 71.2819L180.118 86.0757C180.827 86.616 181.846 86.4837 182.394 85.7801L187.072 79.7686C187.62 79.065 187.489 78.0566 186.779 77.5162L167.366 62.7224C166.657 62.182 165.638 62.3144 165.09 63.018Z" fill="#6F7C91"/>
<path d="M103.751 76.3732L96.7115 74.4851C96.2385 74.3582 95.7507 74.6385 95.6221 75.1111L92.1014 88.0491C91.9728 88.5217 92.2521 89.0077 92.7251 89.1346L99.7647 91.0227C100.238 91.1496 100.725 90.8693 100.854 90.3967L104.375 77.4587C104.503 76.9861 104.224 76.5001 103.751 76.3732Z" fill="#6F7C91"/>
<path d="M86.4274 132.357L79.4476 130.259C78.9785 130.118 78.4826 130.383 78.3399 130.852L74.4333 143.679C74.2906 144.147 74.5551 144.641 75.0242 144.782L82.004 146.88C82.473 147.021 82.9689 146.756 83.1116 146.287L87.0182 133.461C87.1609 132.992 86.8964 132.498 86.4274 132.357Z" fill="#6F7C91"/>
<path opacity="0.15" d="M7.20679 164.275L12.257 220.09L22.1146 199.62C22.1146 199.62 26.7484 179.174 26.7484 177.579C26.7484 175.985 24.3393 166.774 24.3393 166.774L24.9076 163.805L7.20679 164.275Z" fill="black"/>
<path opacity="0.2" d="M131.352 56.7156L109.534 143.194L95.5267 170.635L84.9338 199.137L76.7686 211.916L77.2185 219.415H83.3651L83.8957 212.691L96.5673 209.011L103.595 199.319L106.303 184.452L108.98 182.413L129.53 86.4994L136.028 60.9658L131.352 56.7156Z" fill="black"/>
<path d="M253.017 248.111L286.997 266.161L267.144 303.535L233.164 285.485L253.017 248.111Z" fill="#F7DF1E"/>
<path d="M246.228 284.635L249.749 284.285C249.731 285.53 249.747 286.6 250.842 287.182C251.891 287.739 252.793 287.639 253.725 285.884L260.069 273.941L263.262 275.637L256.892 287.628C254.96 291.265 252.144 291.892 249.314 290.389C246.76 289.032 246.05 286.789 246.23 284.634L246.228 284.635ZM257.721 290.255L261.199 289.98C261.23 291.573 261.641 292.946 263.215 293.782C264.539 294.485 265.769 294.206 266.302 293.202C266.942 291.997 266.301 291.111 265.217 289.633L264.62 288.834C262.889 286.532 262.079 284.365 263.598 281.504C264.998 278.87 267.888 277.832 270.739 279.346C272.769 280.425 273.812 281.977 273.785 284.567L270.367 285.003C270.393 283.633 270.026 282.892 269.113 282.407C268.178 281.911 267.239 282.247 266.786 283.101C266.226 284.155 266.592 284.895 267.615 286.273L268.213 287.073C270.245 289.792 271.083 291.91 269.524 294.846C267.845 298.007 264.666 298.539 261.631 296.927C258.661 295.349 257.581 292.772 257.727 290.253" fill="black"/>
<path d="M197.26 238.397L195.817 238.497L195.055 238.55V236.637L196.055 236.449L196.673 236.332C196.673 236.332 198.587 230.442 200.425 231.512C202.262 232.583 197.26 238.398 197.26 238.398V238.397Z" fill="#714B4F"/>
<path opacity="0.1" d="M195.817 238.497L195.055 238.55V236.637L196.055 236.449C195.706 236.929 195.719 237.778 195.817 238.497V238.497Z" fill="black"/>
<path d="M220.33 207.255L217.089 245.011L202.524 249.213L188 245.011L184.763 207.255H220.33Z" fill="#E44D26"/>
<path d="M202.545 246.001L214.314 242.609L217.079 210.343H202.545V246.001Z" fill="#F16529"/>
<path d="M196.247 219.606H202.546V214.975H191.382L191.49 216.218L192.585 228.98H202.548V224.348H196.656L196.247 219.606ZM197.259 231.295H192.794L193.417 238.568L202.526 241.209H202.554V236.376H202.526L197.567 234.982L197.259 231.295Z" fill="#EBEBEB"/>
<path d="M202.53 228.98H208.012L207.495 234.987L202.53 236.38V241.209L211.659 238.577L211.724 237.794L212.77 225.6L212.878 224.357H202.529V228.988L202.53 228.98ZM202.53 219.595V219.606H213.286L213.376 218.565L213.589 216.216L213.696 214.973H202.533V219.593L202.53 219.595Z" fill="white"/>
<path d="M206.544 170.507L192.946 166.439L189.915 129.782H223.213L220.181 166.434L206.544 170.507Z" fill="#264DE4"/>
<path d="M217.583 164.102L220.175 132.781H206.566V167.389L217.583 164.102Z" fill="#2965F1"/>
<path d="M196.87 146.371L197.244 150.866H206.573V146.371H196.87ZM196.119 137.271L196.498 141.766H206.571V137.271H196.111H196.119ZM206.571 158.047H206.545L201.901 156.694L201.605 153.108H197.412L197.995 160.167L206.535 162.73H206.561L206.571 158.047Z" fill="#EBEBEB"/>
<path d="M216.24 146.371L216.992 137.271H206.543V141.766H212.418L212.039 146.364H206.543V150.859H211.676L211.185 156.694L206.543 158.051V162.728L215.089 160.173L215.153 159.412L216.138 147.575L216.238 146.367L216.24 146.371Z" fill="white"/>
<path d="M200.375 349.499H188.686V294.387H200.375V349.499Z" fill="#ACABAB"/>
<path d="M194.53 349.499H163.652V345.686L194.53 341.873V349.499Z" fill="#ACABAB"/>
<path d="M194.531 349.499H225.407V345.686L194.531 341.873V349.499Z" fill="#ACABAB"/>
<path d="M101.263 349.499H89.5747V294.387H101.263V349.499Z" fill="#ACABAB"/>
<path d="M95.4189 349.499H64.5425V345.686L95.4189 341.873V349.499Z" fill="#ACABAB"/>
<path d="M95.4175 349.499H126.294V345.686L95.4175 341.873V349.499Z" fill="#ACABAB"/>
<path d="M130.568 353.706H60.269V349.5H130.568V353.706Z" fill="#58595B"/>
<path d="M229.682 353.706H159.384V349.5H229.682V353.706Z" fill="#58595B"/>
<path d="M214.85 291.266H75.1071C64.737 291.266 56.3306 282.86 56.3306 272.489C56.3306 262.118 64.737 253.711 75.1071 253.711H214.85C225.22 253.711 233.628 262.118 233.628 272.489C233.628 282.86 225.22 291.266 214.85 291.266Z" fill="#343434"/>
<path d="M205.607 290.465H212.209V292.068H205.607V290.465Z" fill="#343434"/>
<path d="M196.364 290.465H202.966V292.068H196.364V290.465Z" fill="#343434"/>
<path d="M187.122 290.465H193.724V292.068H187.122V290.465Z" fill="#343434"/>
<path d="M177.877 290.465H184.481V292.068H177.877V290.465Z" fill="#343434"/>
<path d="M168.635 290.465H175.239V292.068H168.635V290.465Z" fill="#343434"/>
<path d="M159.394 290.465H165.996V292.068H159.394V290.465Z" fill="#343434"/>
<path d="M150.151 290.465H156.753V292.068H150.151V290.465Z" fill="#343434"/>
<path d="M140.908 290.465H147.51V292.068H140.908V290.465Z" fill="#343434"/>
<path d="M131.667 290.465H138.267V292.068H131.667V290.465Z" fill="#343434"/>
<path d="M122.423 290.465H129.024V292.068H122.423V290.465Z" fill="#343434"/>
<path d="M113.18 290.465H119.78V292.068H113.18V290.465Z" fill="#343434"/>
<path d="M103.937 290.465H110.539V292.068H103.937V290.465Z" fill="#343434"/>
<path d="M94.6958 290.465H101.298V292.068H94.6958V290.465Z" fill="#343434"/>
<path d="M85.4526 290.465H92.0547V292.068H85.4526V290.465Z" fill="#343434"/>
<path d="M76.2095 290.465H82.8116V292.068H76.2095V290.465Z" fill="#343434"/>
<path d="M67.5623 288.787C67.5623 288.787 67.649 288.829 67.8051 288.905C67.9576 288.984 68.1828 289.088 68.4644 289.182C69.0238 289.376 69.7504 289.69 70.5257 289.853C70.9101 289.943 71.287 290.068 71.6529 290.125C72.0192 290.18 72.3618 290.233 72.6543 290.276C73.238 290.385 73.6344 290.389 73.6344 290.389L73.5033 291.988C73.5033 291.988 73.0726 291.981 72.4363 291.865C72.1169 291.816 71.7431 291.76 71.3445 291.698C70.9467 291.634 70.5348 291.502 70.1163 291.403C69.2724 291.222 68.4776 290.885 67.8689 290.67C67.564 290.568 67.3188 290.455 67.1511 290.369C66.9805 290.287 66.8853 290.241 66.8853 290.241L67.5605 288.786" fill="#343434"/>
<path d="M60.7557 283.28C60.7557 283.28 60.8135 283.359 60.9188 283.498C61.0277 283.631 61.1557 283.846 61.3619 284.06C61.7771 284.482 62.255 285.121 62.8666 285.625C63.1606 285.888 63.4456 286.162 63.728 286.402C64.0256 286.623 64.302 286.829 64.5397 287.007C65.0047 287.375 65.3497 287.571 65.3497 287.571L64.4759 288.917C64.4759 288.917 64.1029 288.703 63.5951 288.302C63.3373 288.109 63.0355 287.883 62.7124 287.643C62.4039 287.381 62.0932 287.086 61.7731 286.797C61.1103 286.245 60.5844 285.555 60.1354 285.093C59.914 284.859 59.7724 284.627 59.6533 284.481C59.5408 284.331 59.4761 284.244 59.4761 284.244L60.7557 283.28Z" fill="#343434"/>
<path d="M57.3596 275.216C57.3596 275.216 57.4103 275.608 57.5156 276.191C57.6862 276.758 57.8133 277.544 58.1022 278.281C58.2365 278.651 58.375 279.022 58.501 279.369C58.6389 279.712 58.8061 280.017 58.9299 280.286C59.0569 280.552 59.1657 280.775 59.2383 280.931C59.3073 281.089 59.3694 281.169 59.3694 281.169L57.9657 281.945C57.9657 281.945 57.9038 281.857 57.8239 281.686C57.7405 281.516 57.6234 281.273 57.4854 280.983C57.3511 280.691 57.1699 280.358 57.0193 279.984C56.8814 279.606 56.7328 279.201 56.5851 278.797C56.2729 277.994 56.1274 277.138 55.947 276.52C55.8308 275.885 55.7769 275.458 55.7769 275.458L57.3614 275.216" fill="#343434"/>
<path d="M58.175 266.501C58.175 266.501 58.1391 266.594 58.081 266.756C58.0229 266.919 57.9247 267.147 57.863 267.437C57.7323 268.015 57.4729 268.767 57.3916 269.555C57.3335 269.946 57.2741 270.337 57.2196 270.703C57.1834 271.073 57.1845 271.417 57.17 271.714C57.17 272.01 57.1328 272.256 57.1328 272.429C57.1328 272.602 57.1328 272.7 57.1328 272.7L55.5288 272.719C55.5288 272.719 55.5288 272.611 55.5288 272.423C55.5288 272.234 55.5659 271.967 55.5696 271.644C55.5696 271.323 55.6063 270.946 55.6281 270.544C55.6861 270.145 55.7471 269.72 55.8124 269.293C55.9068 268.435 56.1837 267.614 56.3281 266.986C56.3971 266.671 56.5022 266.421 56.5639 266.244C56.6292 266.066 56.6649 265.966 56.6649 265.966L58.1767 266.5" fill="#343434"/>
<path d="M63.0209 259.213C63.0209 259.213 62.7185 259.467 62.2978 259.886C62.0981 260.105 61.868 260.361 61.619 260.635C61.4955 260.772 61.365 260.914 61.2344 261.058C61.1182 261.214 61.0014 261.371 60.8817 261.53C60.6457 261.847 60.4097 262.164 60.1887 262.461C59.9963 262.777 59.8158 263.073 59.6623 263.326C59.5098 263.579 59.38 263.791 59.2918 263.939C59.2156 264.094 59.1749 264.184 59.1749 264.184L57.7534 263.441C57.7534 263.441 57.8012 263.345 57.881 263.175C57.979 263.013 58.1171 262.783 58.2834 262.507C58.4503 262.231 58.6478 261.909 58.8576 261.565C59.0972 261.241 59.3542 260.896 59.6109 260.551C59.7415 260.379 59.8681 260.206 59.9955 260.037C60.137 259.881 60.278 259.726 60.412 259.576C60.6842 259.278 60.9375 259 61.1546 258.762C61.6109 258.306 61.9398 258.027 61.9398 258.027L63.0191 259.213" fill="#343434"/>
<path d="M70.731 255.074C70.731 255.074 70.3478 255.171 69.774 255.319C69.2248 255.538 68.461 255.757 67.7499 256.101C67.3942 256.271 67.0385 256.443 66.7042 256.603C66.3703 256.764 66.0892 256.968 65.8322 257.114C65.5781 257.268 65.3671 257.396 65.219 257.485C65.0701 257.571 64.9903 257.633 64.9903 257.633L64.0864 256.309C64.0864 256.309 64.1694 256.242 64.3328 256.148C64.4925 256.049 64.7237 255.909 64.9992 255.742C65.2787 255.581 65.5883 255.363 65.951 255.187C66.3147 255.012 66.7022 254.825 67.0906 254.638C67.8659 254.265 68.6968 254.022 69.2972 253.788C69.9226 253.626 70.3393 253.519 70.3393 253.519L70.7293 255.074" fill="#343434"/>
<path d="M79.7292 254.513C79.7292 254.513 78.0777 254.513 76.4273 254.513C76.0146 254.513 75.6015 254.513 75.215 254.513C74.8433 254.531 74.497 254.546 74.1994 254.561C73.9054 254.575 73.6561 254.586 73.4834 254.597C73.3091 254.601 73.2157 254.615 73.2157 254.615L73.0474 253.02C73.0474 253.02 73.1528 253.005 73.3416 252.998C73.5303 252.991 73.7995 252.976 74.1214 252.958C74.4408 252.944 74.8156 252.929 75.2167 252.91C75.6033 252.91 76.0163 252.91 76.429 252.91C78.0795 252.91 79.7292 252.91 79.7292 252.91V254.513" fill="#343434"/>
<path d="M88.9709 254.513H82.3706V252.91H88.9709V254.513Z" fill="#343434"/>
<path d="M98.2141 254.513H91.6138V252.91H98.2141V254.513Z" fill="#343434"/>
<path d="M107.456 254.513H100.856V252.91H107.456V254.513Z" fill="#343434"/>
<path d="M116.699 254.513H110.097V252.91H116.699V254.513Z" fill="#343434"/>
<path d="M125.941 254.513H119.339V252.91H125.941V254.513Z" fill="#343434"/>
<path d="M135.185 254.513H128.583V252.91H135.185V254.513Z" fill="#343434"/>
<path d="M144.428 254.513H137.826V252.91H144.428V254.513Z" fill="#343434"/>
<path d="M153.671 254.513H147.069V252.91H153.671V254.513Z" fill="#343434"/>
<path d="M162.914 254.513H156.31V252.91H162.914V254.513Z" fill="#343434"/>
<path d="M172.156 254.513H165.552V252.91H172.156V254.513Z" fill="#343434"/>
<path d="M181.397 254.513H174.795V252.91H181.397V254.513Z" fill="#343434"/>
<path d="M190.642 254.513H184.04V252.91H190.642V254.513Z" fill="#343434"/>
<path d="M199.884 254.513H193.282V252.91H199.884V254.513Z" fill="#343434"/>
<path d="M209.126 254.513H202.524V252.91H209.126V254.513Z" fill="#343434"/>
<path d="M218.199 254.837C218.199 254.837 217.809 254.778 217.224 254.688C216.643 254.562 215.846 254.582 215.058 254.524C213.413 254.521 211.767 254.513 211.767 254.513V252.91C211.767 252.91 213.422 252.914 215.078 252.921C215.935 252.979 216.799 252.965 217.433 253.099C218.071 253.196 218.497 253.262 218.497 253.262L218.199 254.837" fill="#343434"/>
<path d="M226.145 258.515C226.145 258.515 225.83 258.279 225.356 257.924C224.901 257.54 224.194 257.173 223.527 256.75C222.823 256.399 222.121 256.032 221.567 255.824C221.011 255.621 220.64 255.485 220.64 255.485L221.156 253.966C221.156 253.966 221.559 254.115 222.166 254.336C222.769 254.564 223.537 254.961 224.304 255.347C225.032 255.802 225.796 256.21 226.294 256.625C226.81 257.011 227.154 257.269 227.154 257.269L226.145 258.515" fill="#343434"/>
<path d="M231.845 264.882C231.845 264.882 231.674 264.526 231.417 263.993C231.185 263.444 230.771 262.772 230.358 262.1C229.934 261.433 229.433 260.818 229.074 260.348C228.676 259.909 228.41 259.617 228.41 259.617L229.583 258.523C229.583 258.523 229.873 258.842 230.306 259.32C230.697 259.831 231.24 260.502 231.701 261.227C232.153 261.959 232.607 262.693 232.86 263.288C233.14 263.871 233.323 264.259 233.323 264.259L231.845 264.882Z" fill="#343434"/>
<path d="M232.74 274.173C232.74 274.173 232.777 273.777 232.791 273.186C232.853 272.594 232.787 271.804 232.75 271.015C232.707 270.226 232.532 269.452 232.46 268.864C232.311 268.29 232.213 267.907 232.213 267.907L233.764 267.499C233.764 267.499 233.869 267.916 234.028 268.541C234.112 269.182 234.298 270.027 234.349 270.885C234.393 271.744 234.457 272.603 234.392 273.247C234.355 273.891 234.337 274.32 234.337 274.32L232.742 274.173" fill="#343434"/>
<path d="M229.822 282.428C229.822 282.428 230.025 282.091 230.334 281.584C230.672 281.094 230.978 280.363 231.33 279.656C231.624 278.926 231.904 278.183 232.073 277.617C232.222 277.044 232.319 276.661 232.319 276.661L233.879 277.032C233.879 277.032 233.769 277.45 233.609 278.075C233.424 278.692 233.124 279.501 232.801 280.296C232.421 281.068 232.081 281.862 231.716 282.398C231.382 282.949 231.156 283.317 231.156 283.317L229.822 282.428Z" fill="#343434"/>
<path d="M223.346 288.33C223.346 288.33 223.437 288.289 223.582 288.196C223.731 288.106 223.941 287.977 224.193 287.824C224.44 287.663 224.754 287.506 225.049 287.284C225.347 287.062 225.662 286.825 225.978 286.589C226.608 286.111 227.165 285.545 227.605 285.151C228.003 284.712 228.27 284.42 228.27 284.42L229.466 285.485C229.466 285.485 229.176 285.804 228.743 286.28C228.265 286.712 227.657 287.327 226.972 287.847C226.628 288.104 226.282 288.361 225.959 288.603C225.636 288.844 225.3 289.018 225.028 289.192C224.752 289.36 224.522 289.498 224.362 289.597C224.202 289.698 224.105 289.743 224.105 289.743L223.346 288.331" fill="#343434"/>
<path d="M214.849 290.465C214.849 290.465 215.243 290.443 215.836 290.414C216.13 290.392 216.479 290.399 216.845 290.347C217.211 290.292 217.603 290.232 217.993 290.172C218.778 290.072 219.527 289.803 220.106 289.68C220.668 289.493 221.035 289.349 221.035 289.349L221.588 290.854C221.588 290.854 221.186 291.011 220.574 291.213C219.945 291.353 219.126 291.639 218.272 291.752C217.845 291.816 217.42 291.881 217.022 291.942C216.623 291.997 216.245 291.992 215.923 292.016C215.279 292.049 214.849 292.069 214.849 292.069V290.466" fill="#343434"/>
<path d="M214.119 290.22H75.8299C66.0374 290.22 58.0991 282.283 58.0991 272.489C58.0991 262.697 66.0374 254.758 75.8299 254.758H214.119C223.911 254.758 231.85 262.697 231.85 272.489C231.85 282.283 223.911 290.22 214.119 290.22Z" fill="#808080"/>
<path d="M213.942 279.614C209.94 278.314 207.749 274.017 209.049 270.014C210.348 266.012 214.648 263.823 218.65 265.122C222.651 266.422 224.841 270.721 223.542 274.722C222.242 278.724 217.944 280.915 213.942 279.614Z" fill="#999999"/>
<path d="M71.3029 279.614C67.3007 278.314 65.1092 274.017 66.4094 270.014C67.7089 266.012 72.0085 263.823 76.0104 265.122C80.0126 266.422 82.2019 270.721 80.9021 274.722C79.6019 278.724 75.3048 280.915 71.3029 279.614Z" fill="#B3B3B3"/>
<path d="M80.5132 290.22H209.439V279.436H80.5132V290.22Z" fill="#666666"/>
<path d="M206.699 301.46H83.2485V281.946H206.699V301.46Z" fill="#ACABAB"/>
<path d="M101.266 301.459H89.5776V307.619H101.266V301.459Z" fill="#919191"/>
<path d="M200.379 301.459H188.69V307.619H200.379V301.459Z" fill="#919191"/>
<path d="M101.267 342.594L126.3 345.686V346.393H101.267V342.594Z" fill="#919191"/>
<path d="M89.5774 342.594L64.5444 345.686V346.393H89.5774V342.594Z" fill="#919191"/>
<path d="M200.377 342.594L225.41 345.686V346.393H200.377V342.594Z" fill="#919191"/>
<path d="M188.689 342.594L163.656 345.686V346.393H188.689V342.594Z" fill="#919191"/>
<path d="M101.266 281.991H89.5776V259.724H101.266V281.991Z" fill="#ACABAB"/>
<path d="M200.379 281.991H188.69V259.724H200.379V281.991Z" fill="#ACABAB"/>
<path d="M195.951 281.99H193.119V264.178H195.951V281.99Z" fill="#606163"/>
<path d="M195.951 323.726H193.119V301.459H195.951V323.726Z" fill="#606163"/>
<path d="M96.8386 281.99H94.0063V264.178H96.8386V281.99Z" fill="#606163"/>
<path d="M96.8386 323.726H94.0063V301.459H96.8386V323.726Z" fill="#606163"/>
<path d="M200.22 291.703C200.22 294.843 197.674 297.389 194.534 297.389C191.394 297.389 188.848 294.843 188.848 291.703C188.848 288.563 191.394 286.018 194.534 286.018C197.674 286.018 200.22 288.563 200.22 291.703Z" fill="#666666"/>
<path d="M198.924 291.703C198.924 294.127 196.959 296.093 194.534 296.093C192.11 296.093 190.144 294.127 190.144 291.703C190.144 289.278 192.11 287.313 194.534 287.313C196.959 287.313 198.924 289.278 198.924 291.703Z" fill="#B3B3B3"/>
<path d="M192.975 294.405L191.414 291.703L192.975 289H196.096L197.656 291.703L196.096 294.405H192.975Z" fill="#333333"/>
<path d="M101.104 291.703C101.104 294.843 98.5588 297.389 95.4187 297.389C92.2789 297.389 89.7329 294.843 89.7329 291.703C89.7329 288.563 92.2789 286.018 95.4187 286.018C98.5588 286.018 101.104 288.563 101.104 291.703Z" fill="#4D4D4D"/>
<path d="M99.8083 291.703C99.8083 294.127 97.8425 296.093 95.4182 296.093C92.9942 296.093 91.0298 294.127 91.0298 291.703C91.0298 289.278 92.9942 287.313 95.4182 287.313C97.8425 287.313 99.8083 289.278 99.8083 291.703Z" fill="#B3B3B3"/>
<path d="M93.859 294.405L92.2993 291.703L93.859 289H96.9801L98.5398 291.703L96.9801 294.405H93.859Z" fill="#333333"/>
<g opacity="0.7">
<path opacity="0.7" d="M300.292 313.821H176.079C175.015 313.824 173.995 314.251 173.245 315.006C172.495 315.761 172.075 316.784 172.078 317.848V403.339C172.075 404.404 172.495 405.426 173.245 406.181C173.995 406.936 175.015 407.363 176.079 407.367H218.8V422.124H216.852C216.585 422.125 216.32 422.178 216.074 422.282C215.827 422.385 215.603 422.536 215.415 422.725C215.227 422.915 215.077 423.14 214.976 423.388C214.874 423.635 214.823 423.9 214.824 424.167V427.128H218.8V428.879H257.572V427.128H261.548V424.167C261.549 423.9 261.497 423.635 261.396 423.388C261.294 423.14 261.145 422.915 260.957 422.725C260.768 422.536 260.544 422.385 260.298 422.282C260.051 422.178 259.787 422.125 259.519 422.124H257.687V421.996H257.562V407.367H300.292C301.357 407.363 302.376 406.936 303.127 406.181C303.877 405.426 304.296 404.404 304.293 403.339V317.848C304.296 316.784 303.877 315.761 303.127 315.006C302.376 314.251 301.357 313.824 300.292 313.821Z" fill="url(#paint0_linear)"/>
</g>
<path d="M257.442 404.826H219.176V427.393H257.442V404.826Z" fill="#BDBDBD"/>
<g opacity="0.1">
<path opacity="0.1" d="M219.93 407.033H256.766C257.21 405.103 257.566 403.844 257.566 403.844H219.054C219.054 403.844 219.449 405.098 219.93 407.033Z" fill="black"/>
</g>
<path d="M177.009 314.556H299.609C300.128 314.556 300.642 314.658 301.121 314.857C301.6 315.055 302.034 315.346 302.401 315.713C302.768 316.08 303.06 316.515 303.258 316.994C303.457 317.473 303.559 317.987 303.559 318.506V394.032H173.06V318.506C173.06 317.987 173.163 317.473 173.362 316.994C173.56 316.515 173.851 316.08 174.217 315.713C174.584 315.346 175.02 315.055 175.499 314.857C175.978 314.658 176.491 314.556 177.009 314.556Z" fill="#535461"/>
<path d="M299.608 406.297H177.008C175.961 406.297 174.957 405.881 174.217 405.14C173.476 404.4 173.061 403.395 173.061 402.348V394.032H303.558V402.348C303.558 402.866 303.456 403.38 303.258 403.859C303.059 404.338 302.767 404.774 302.4 405.141C302.034 405.507 301.6 405.798 301.12 405.996C300.641 406.195 300.127 406.297 299.608 406.297Z" fill="#BDBDBD"/>
<path d="M238.311 402.373C239.53 402.373 240.518 401.384 240.518 400.165C240.518 398.946 239.53 397.958 238.311 397.958C237.091 397.958 236.104 398.946 236.104 400.165C236.104 401.384 237.091 402.373 238.311 402.373Z" fill="#535461"/>
<path d="M217.255 420.77H259.362C259.894 420.77 260.404 420.981 260.78 421.357C261.156 421.733 261.366 422.242 261.366 422.774V425.676H215.25V422.774C215.25 422.242 215.461 421.733 215.837 421.357C216.213 420.981 216.723 420.77 217.255 420.77Z" fill="#BDBDBD"/>
<g opacity="0.5">
<path opacity="0.5" d="M284.544 331.266H199.034C198.372 331.266 197.835 331.76 197.835 332.37V376.219C197.835 376.829 198.372 377.323 199.034 377.323H284.544C285.207 377.323 285.743 376.829 285.743 376.219V332.37C285.743 331.76 285.207 331.266 284.544 331.266Z" fill="url(#paint1_linear)"/>
</g>
<path d="M240.879 331.604H199.471C199.142 331.604 198.874 332.099 198.874 332.708V375.625C198.874 376.235 199.142 376.729 199.471 376.729H240.879C241.208 376.729 241.474 376.235 241.474 375.625V332.708C241.474 332.099 241.208 331.604 240.879 331.604Z" fill="#373E48"/>
<path d="M233.356 351.349H210.752C210.513 351.349 210.318 351.543 210.318 351.783C210.318 352.023 210.513 352.217 210.752 352.217H233.356C233.595 352.217 233.79 352.023 233.79 351.783C233.79 351.543 233.595 351.349 233.356 351.349Z" fill="#AA87DE"/>
<path d="M229.394 353.958H210.752C210.513 353.958 210.318 354.153 210.318 354.393C210.318 354.632 210.513 354.827 210.752 354.827H229.394C229.634 354.827 229.829 354.632 229.829 354.393C229.829 354.153 229.634 353.958 229.394 353.958Z" fill="#80FFE6"/>
<path d="M232.934 345.162H210.33C210.091 345.162 209.896 345.356 209.896 345.596C209.896 345.836 210.091 346.03 210.33 346.03H232.934C233.174 346.03 233.369 345.836 233.369 345.596C233.369 345.356 233.174 345.162 232.934 345.162Z" fill="#ABC837"/>
<path d="M232.934 347.77H210.33C210.091 347.77 209.896 347.964 209.896 348.204C209.896 348.444 210.091 348.638 210.33 348.638H232.934C233.174 348.638 233.369 348.444 233.369 348.204C233.369 347.964 233.174 347.77 232.934 347.77Z" fill="#55FFDD"/>
<path d="M232.934 357.333H210.33C210.091 357.333 209.896 357.528 209.896 357.768C209.896 358.007 210.091 358.202 210.33 358.202H232.934C233.174 358.202 233.369 358.007 233.369 357.768C233.369 357.528 233.174 357.333 232.934 357.333Z" fill="#D35FBC"/>
<path d="M233.135 359.941H210.285C210.07 359.941 209.896 360.116 209.896 360.331V360.419C209.896 360.635 210.07 360.809 210.285 360.809H233.135C233.35 360.809 233.526 360.635 233.526 360.419V360.331C233.526 360.116 233.35 359.941 233.135 359.941Z" fill="#E0E0E0"/>
<g opacity="0.1">
<path opacity="0.1" d="M257.564 420.647H219.298V421.383H257.564V420.647Z" fill="black"/>
</g>
<path d="M306.441 425.578H173.317V433.655H306.441V425.578Z" fill="#E0E0E0"/>
<path d="M304.161 433.982H175.433V436.632H304.161V433.982Z" fill="#E0E0E0"/>
<path opacity="0.1" d="M304.991 433.655H174.391V434.756H304.991V433.655Z" fill="black"/>
<path d="M233.211 340.476H210.607C210.367 340.476 210.172 340.67 210.172 340.91C210.172 341.15 210.367 341.344 210.607 341.344H233.211C233.45 341.344 233.645 341.15 233.645 340.91C233.645 340.67 233.45 340.476 233.211 340.476Z" fill="#C83737"/>
<path d="M229.249 343.086H210.607C210.367 343.086 210.172 343.28 210.172 343.52C210.172 343.76 210.367 343.954 210.607 343.954H229.249C229.489 343.954 229.683 343.76 229.683 343.52C229.683 343.28 229.489 343.086 229.249 343.086Z" fill="#8080FF"/>
<path d="M233.008 362.752H210.404C210.164 362.752 209.969 362.946 209.969 363.186C209.969 363.426 210.164 363.62 210.404 363.62H233.008C233.247 363.62 233.442 363.426 233.442 363.186C233.442 362.946 233.247 362.752 233.008 362.752Z" fill="#5FD3BC"/>
<path d="M229.046 365.362H210.404C210.164 365.362 209.969 365.556 209.969 365.796C209.969 366.036 210.164 366.23 210.404 366.23H229.046C229.286 366.23 229.48 366.036 229.48 365.796C229.48 365.556 229.286 365.362 229.046 365.362Z" fill="#8080FF"/>
<path d="M283.519 331.63H243.289C242.969 331.63 242.709 332.122 242.709 332.728V375.413C242.709 376.019 242.969 376.511 243.289 376.511H283.519C283.839 376.511 284.098 376.019 284.098 375.413V332.728C284.098 332.122 283.839 331.63 283.519 331.63Z" fill="#373E48"/>
<path d="M274.519 349.855H251.915C251.675 349.855 251.481 350.05 251.481 350.29C251.481 350.529 251.675 350.724 251.915 350.724H274.519C274.759 350.724 274.953 350.529 274.953 350.29C274.953 350.05 274.759 349.855 274.519 349.855Z" fill="#AA87DE"/>
<path d="M270.557 352.465H251.915C251.675 352.465 251.481 352.66 251.481 352.9C251.481 353.139 251.675 353.334 251.915 353.334H270.557C270.797 353.334 270.991 353.139 270.991 352.9C270.991 352.66 270.797 352.465 270.557 352.465Z" fill="#80FFE6"/>
<path d="M274.097 343.669H251.493C251.253 343.669 251.059 343.863 251.059 344.103C251.059 344.343 251.253 344.537 251.493 344.537H274.097C274.337 344.537 274.531 344.343 274.531 344.103C274.531 343.863 274.337 343.669 274.097 343.669Z" fill="#ABC837"/>
<path d="M274.097 346.276H251.493C251.253 346.276 251.059 346.471 251.059 346.711C251.059 346.95 251.253 347.145 251.493 347.145H274.097C274.337 347.145 274.531 346.95 274.531 346.711C274.531 346.471 274.337 346.276 274.097 346.276Z" fill="#55FFDD"/>
<path d="M274.097 355.841H251.493C251.253 355.841 251.059 356.035 251.059 356.275C251.059 356.515 251.253 356.709 251.493 356.709H274.097C274.337 356.709 274.531 356.515 274.531 356.275C274.531 356.035 274.337 355.841 274.097 355.841Z" fill="#D35FBC"/>
<path d="M274.298 358.448H251.449C251.234 358.448 251.059 358.623 251.059 358.838V358.926C251.059 359.142 251.234 359.316 251.449 359.316H274.298C274.514 359.316 274.688 359.142 274.688 358.926V358.838C274.688 358.623 274.514 358.448 274.298 358.448Z" fill="#E0E0E0"/>
<path d="M274.374 338.982H251.77C251.531 338.982 251.336 339.177 251.336 339.417C251.336 339.656 251.531 339.851 251.77 339.851H274.374C274.614 339.851 274.809 339.656 274.809 339.417C274.809 339.177 274.614 338.982 274.374 338.982Z" fill="#C83737"/>
<path d="M270.413 341.593H251.77C251.531 341.593 251.336 341.787 251.336 342.027C251.336 342.267 251.531 342.461 251.77 342.461H270.413C270.653 342.461 270.847 342.267 270.847 342.027C270.847 341.787 270.653 341.593 270.413 341.593Z" fill="#8080FF"/>
<path d="M274.171 361.259H251.567C251.328 361.259 251.133 361.453 251.133 361.693C251.133 361.933 251.328 362.127 251.567 362.127H274.171C274.411 362.127 274.606 361.933 274.606 361.693C274.606 361.453 274.411 361.259 274.171 361.259Z" fill="#5FD3BC"/>
<path d="M270.21 363.869H251.567C251.328 363.869 251.133 364.063 251.133 364.303C251.133 364.543 251.328 364.737 251.567 364.737H270.21C270.45 364.737 270.644 364.543 270.644 364.303C270.644 364.063 270.45 363.869 270.21 363.869Z" fill="#8080FF"/>
<path opacity="0.15" d="M297.945 321.678H181.94C181.042 321.678 180.314 322.385 180.314 323.258V386C180.314 386.872 181.042 387.579 181.94 387.579H297.945C298.843 387.579 299.571 386.872 299.571 386V323.258C299.571 322.385 298.843 321.678 297.945 321.678Z" fill="black"/>
<path d="M207.326 129.693C210.515 129.693 213.1 129.539 213.1 129.349C213.1 129.159 210.515 129.005 207.326 129.005C204.138 129.005 201.553 129.159 201.553 129.349C201.553 129.539 204.138 129.693 207.326 129.693Z" fill="#6F8A91"/>
</g>
<defs>
<linearGradient id="paint0_linear" x1="238.186" y1="428.877" x2="238.186" y2="313.821" gradientUnits="userSpaceOnUse">
<stop stop-color="#808080" stop-opacity="0.25"/>
<stop offset="0.54" stop-color="#808080" stop-opacity="0.12"/>
<stop offset="1" stop-color="#808080" stop-opacity="0.1"/>
</linearGradient>
<linearGradient id="paint1_linear" x1="46567.9" y1="12254.5" x2="46567.9" y2="3606.83" gradientUnits="userSpaceOnUse">
<stop stop-color="#808080" stop-opacity="0.25"/>
<stop offset="0.54" stop-color="#808080" stop-opacity="0.12"/>
<stop offset="1" stop-color="#808080" stop-opacity="0.1"/>
</linearGradient>
<clipPath id="clip0">
<rect width="306.44" height="436.632" fill="white"/>
</clipPath>
</defs>
</svg>
