<svg width="1011" height="547" viewBox="0 0 1011 547" fill="none" xmlns="http://www.w3.org/2000/svg">
<g opacity="0.95" clip-path="url(#clip0)">
<path opacity="0.09" d="M0 476.719L79.2637 429.594L283.812 477.438L0 476.719Z" fill="#1C2224"/>
<path d="M190.881 254.531H55.4531C49.0917 254.531 43.9355 259.701 43.9355 266.062V445.312C43.9355 451.674 49.0917 456.844 55.4531 456.844H190.881C197.242 456.844 202.398 451.674 202.398 445.312V266.062C202.398 259.701 197.242 254.531 190.881 254.531Z" fill="#B3B3B3" fill-opacity="0.792157"/>
<path d="M981.33 70.7639L394.183 101.535L356.138 375.941L943.285 345.17L981.33 70.7639Z" fill="#E1E1E1"/>
<path d="M931.534 122.523L425.153 95.985L411.009 353.785L917.39 380.323L931.534 122.523Z" stroke="#383E45" stroke-width="2.5" stroke-dasharray="14.32 14.32"/>
<path d="M185.666 75.3472C177.984 77.9572 173.894 86.2084 176.481 93.8784L184.821 118.597C187.408 126.267 195.677 130.375 203.348 127.785L241.543 114.878C247.428 112.908 251.204 107.602 251.475 101.722L263.684 97.6284L252.342 64.0034L240.547 68.0034C236.931 62.7934 230.192 60.3434 223.848 62.5034L185.666 75.3472Z" fill="#BCD35F"/>
<path d="M204.287 115.406L239.516 109.969C239.516 109.969 302.626 185.455 325.854 222.375C341.388 247.075 306.926 304.531 306.926 304.531L267.611 358L204.287 115.406Z" fill="#BCD35F"/>
<path opacity="0.95" d="M184.42 433.594V443.156L168.928 502.219L184.346 501.844V503.969L279.014 504.344V502.25H291.723L279.014 452.031V433.594H184.42Z" fill="#0B2228"/>
<path opacity="0.4" d="M229.555 440.344V501.938H217.564L224.885 440.25L229.555 440.344Z" fill="black"/>
<path opacity="0.4" d="M274.791 438.281H271.992V503.062H292.42L274.791 438.281Z" fill="black" stroke="black" stroke-width="0.259701"/>
<path opacity="0.4" d="M188.184 439.281H190.984V504.531H170.555L188.184 439.281Z" fill="black" stroke="black" stroke-width="0.260644"/>
<path d="M181.477 438.219V441.656H183.887L169.178 499.812H166.607V504.562H296.42V499.812H293.77L279.061 441.656H281.381V438.219H181.477ZM187.102 441.656H231.67V499.812H172.396L187.102 441.656ZM236.561 441.656H275.842L290.551 499.812H243.863L236.561 441.656Z" fill="#4D4D4D"/>
<path d="M188.088 388.594H176.459C174.71 388.594 173.291 390.573 173.291 393V402.75C173.291 405.177 174.71 407.125 176.459 407.125H188.088C189.837 407.125 191.254 405.177 191.254 402.75V393C191.254 390.573 189.837 388.594 188.088 388.594Z" fill="#4D4D4D"/>
<path d="M165.256 348.281H297.705L267.764 434.062L197.9 433.844L165.256 348.281Z" fill="#BCD35F"/>
<path d="M273.021 372.156C294.969 372.156 312.762 353.637 312.762 330.781C312.762 307.926 294.969 289.406 273.021 289.406C251.074 289.406 233.281 307.926 233.281 330.781C233.281 353.637 251.074 372.156 273.021 372.156Z" fill="#373E48"/>
<path d="M415.979 1.24834C411.401 2.69139 407.294 5.32863 404.082 8.9046C400.87 12.4806 398.671 16.8692 397.711 21.5921L249.76 68.2796L257.543 92.9358L405.254 46.3733C408.754 49.8174 413.118 52.2578 417.879 53.4046C422.639 54.5514 427.616 54.3515 432.277 52.8733C435.652 51.809 438.782 50.0926 441.49 47.8108C444.198 45.5291 446.431 42.7438 448.061 39.5921C449.69 36.4404 450.684 32.9776 450.986 29.4358C451.289 25.8941 450.895 22.3284 449.824 18.9358C447.658 12.0895 442.874 6.37993 436.527 3.06084C430.181 -0.258241 422.79 -0.902716 415.979 1.24834Z" fill="#BCD35F"/>
<path d="M456.287 50.2885L447.297 38.125L426.488 53.5042L435.478 65.6677L456.287 50.2885Z" fill="#BCD35F"/>
<path d="M436.498 71.1428C436.498 71.1428 424.258 81.8303 411.27 71.8303C393.345 55.1303 389.678 40.6615 365.522 49.6115C306.301 71.5515 225.041 90.2628 180.243 114.143C165.733 121.593 171.951 141.318 179.84 148.768C193.45 161.628 213.744 150.033 225.955 156.143C234.885 160.613 236.42 173.58 236.42 173.58L251.391 224.487C253.33 235.317 259.175 252.929 254.403 265.549C249.693 278.219 239.277 290.658 226.52 297.018C204.978 307.778 142.296 338.935 140.295 379.455C139.674 391.995 144.454 398.38 157.211 398.08C170.837 397.77 177.121 398.518 177.121 398.518" stroke="#373E48" stroke-width="5.92058"/>
<path d="M433.221 45.8572C443.575 40.7462 447.785 28.1308 442.631 17.6887C437.477 7.24651 424.902 2.91644 414.548 8.02752C404.193 13.1386 399.983 25.754 405.137 36.1961C410.292 46.6383 422.867 50.9683 433.221 45.8572Z" fill="#373E48"/>
<path d="M467.387 52.1965L462.576 45.6875L431.615 68.5706L436.425 75.0795L467.387 52.1965Z" fill="#BCD35F"/>
<path d="M468.068 61.0715L463.258 54.5625L437.737 73.4243L442.548 79.9333L468.068 61.0715Z" fill="#1C2224"/>
<path d="M213.445 291.5H146.5C140.298 291.5 135.27 302.632 135.27 316.375V332.875C135.27 346.618 140.298 357.75 146.5 357.75H213.445C219.648 357.75 224.676 346.618 224.676 332.875V316.375C224.676 302.632 219.648 291.5 213.445 291.5Z" fill="#373E48"/>
<path d="M225.129 138.656C242.489 138.656 256.561 124.858 256.561 107.844C256.561 90.8298 242.489 77.0312 225.129 77.0312C207.769 77.0312 193.695 90.8298 193.695 107.844C193.695 124.858 207.769 138.656 225.129 138.656Z" fill="#373E48"/>
<path d="M237.786 164.528L232.064 166.169C230.585 166.593 229.828 168.498 230.377 170.424L234.104 183.496C234.653 185.422 236.3 186.638 237.779 186.214L243.502 184.573C244.981 184.149 245.738 182.244 245.189 180.318L241.461 167.245C240.912 165.319 239.266 164.104 237.786 164.528Z" fill="#4D4D4D"/>
<path d="M370.923 51.4019L369.332 45.6493C368.921 44.1661 367.026 43.3991 365.095 43.9303L351.988 47.5363C350.057 48.0676 348.817 49.6973 349.227 51.1805L350.819 56.9331C351.229 58.4163 353.132 59.1812 355.063 58.65L368.17 55.044C370.101 54.5127 371.334 52.8851 370.923 51.4019Z" fill="#4D4D4D"/>
<path d="M280.031 80.8394L278.439 75.0868C278.029 73.6036 276.133 72.8366 274.202 73.3678L261.095 76.9738C259.164 77.5051 257.932 79.1327 258.342 80.6159L259.934 86.3685C260.344 87.8517 262.24 88.6187 264.17 88.0875L277.277 84.4815C279.208 83.9502 280.441 82.3226 280.031 80.8394Z" fill="#4D4D4D"/>
<path d="M256.324 228.179L250.45 229.142C248.931 229.391 247.957 231.195 248.279 233.172L250.458 246.59C250.78 248.566 252.273 249.965 253.792 249.716L259.667 248.753C261.185 248.504 262.159 246.701 261.838 244.724L259.658 231.306C259.337 229.329 257.843 227.93 256.324 228.179Z" fill="#4D4D4D"/>
<path d="M176.021 391.281H167.467C166.181 391.281 165.139 392.85 165.139 394.781V402.531C165.139 404.463 166.181 406.031 167.467 406.031H176.021C177.308 406.031 178.35 404.463 178.35 402.531V394.781C178.35 392.85 177.308 391.281 176.021 391.281Z" fill="#4D4D4D"/>
<path opacity="0.15" d="M250.701 123.469L276.174 155L303.363 190.281L322.098 216.375C322.098 216.375 327.386 223.548 328.348 227.438C330.333 235.427 330.778 239.78 328.008 253.25C325.179 266.98 318.719 283.775 305.387 306.625C304.669 307.855 306.513 308.37 307.006 309.25C307.77 310.6 308.453 312.575 309.441 314.625C311.699 319.335 312.743 326.413 312.607 331.812C312.462 337.602 312.223 337.181 311.945 338.031C311.752 338.641 312.065 339.405 310.182 345.125C308.912 348.995 305.346 356.245 299.889 361.125C297.611 363.175 295.459 364.854 293.488 366.094C292.445 366.764 290.805 367.781 290.805 367.781C284.159 388.671 278.104 404.938 278.104 404.938L267.688 433.875L225.383 434.25C225.383 434.25 245.066 424.297 254.209 416.188C259.759 411.267 269.386 404.082 274.621 394.812C280.757 383.962 283.42 379.195 283.059 373.625C282.835 370.155 277.15 372.816 277.535 371.656C295.824 316.096 319.44 243.805 319.963 239.125C320.19 237.125 320.287 235.699 319.172 231.469C313.482 209.769 250.701 123.469 250.701 123.469Z" fill="black"/>
<path opacity="0.18" d="M428.738 56.5L430.996 55.4375C430.996 55.4375 432.123 58.1375 439.211 62.4375C441.222 63.6575 437.717 73.5312 437.717 73.5312L438.025 73.875L436.221 75.2188L431.551 68.6875L435.426 65.625L428.738 56.5Z" fill="black"/>
<path opacity="0.26" d="M168.65 357.6C168.65 357.6 196.692 345.669 206.615 335.569C214.368 327.669 215.315 289.196 215.746 291.506L223.885 304.319L224.449 337.944L222.369 348.194L235.99 348.319C235.99 348.319 228.435 351.991 223.363 355.881C218.691 359.481 205.629 363.352 200.973 362.662L169.891 360.569L168.65 357.6Z" fill="black"/>
<path opacity="0.19" d="M229.926 129.098C235.456 126.438 241.604 123.108 244.297 117.598C248.735 108.508 244.786 88.6394 246.895 89.6294L260.535 91.5357L263.248 97.5357L252.361 100.598C252.361 100.598 254.238 114.348 251.992 120.348C251.171 122.508 245.969 129.629 245.969 129.629V129.754C245.969 129.754 242.701 134.599 239.35 136.629C233.826 139.949 228.366 141.171 226.555 141.161C226.555 141.161 223.25 141.437 219.812 141.067C217.358 140.827 214.832 140.052 213.414 139.692C211.167 139.112 208.602 138.146 206.746 137.036C204.888 135.906 202.764 133.192 202.764 133.192C202.764 133.192 222.248 132.757 229.912 129.067L229.926 129.098Z" fill="black"/>
<path opacity="0.26" d="M151.019 397.406C151.019 397.406 137.444 398.73 141.392 380C143.675 369.16 147.969 356.419 150.312 356.219L152.232 357.531C152.232 357.531 149.14 362.424 148.011 365.094C146.088 369.654 144.064 374.372 143.732 379.312C143.476 383.132 143.882 387.216 145.544 390.656C147.686 395.096 154.047 396.114 159.046 395.844C160.799 395.724 165.046 395.625 165.046 395.625L165.312 393.031L166.187 391.75L167.138 391.25H173.454C173.454 391.25 174.196 389.826 174.892 389.156C175.804 388.276 180.597 388.75 180.597 388.75L184.958 400.469C184.958 400.469 180.159 399.24 177.146 398.75C169.874 397.49 154.447 398.344 154.447 398.344L151.019 397.406Z" fill="black"/>
<path d="M449.388 514.5C449.388 514.5 449.188 514.612 448.846 514.784C449.03 514.69 449.211 514.594 449.388 514.5Z" fill="url(#paint0_linear)"/>
<path d="M373.549 447.88C368.778 461.601 374.345 483.846 376.93 493.784C379.513 503.731 380.307 515.664 380.307 515.664C390.444 517.258 397.801 515.254 397.801 515.254L393.628 494.793C396.609 482.666 393.628 450.245 393.628 450.245C393.628 450.245 400.383 437.732 400.979 418.654C401.566 399.869 406.199 393.782 406.345 393.59C415.886 398.564 428.012 451.853 428.012 451.853C427.019 464.766 428.21 484.657 432.185 495.392C434.595 502.212 435.609 509.428 435.167 516.641C436.556 517.811 438.563 518.393 440.65 518.06C446.327 517.142 453.058 511.88 453.058 511.88C453.058 511.88 450.871 453.843 449.279 451.663C447.69 449.474 449.279 436.94 449.279 436.94L446.698 416.668C446.698 416.668 447.095 382.276 443.316 376.313C440.058 371.168 439.305 362.111 439.159 359.73C439.139 359.357 439.129 359.131 439.129 359.131L433.377 352.258C433.377 352.258 377.718 348.091 373.545 352.258C372.519 353.287 371.888 355.628 371.511 358.564C370.363 367.573 371.679 382.272 371.679 382.272C371.679 382.272 373.347 393.213 375.732 404.341C377.166 411.02 377.166 417.934 375.732 424.613C376.517 432.432 375.773 440.344 373.545 447.88H373.549Z" fill="#162D50"/>
<path d="M377.029 535.033C379.513 538.312 394.123 536.934 396.609 535.915C398.128 535.29 398.013 532.43 397.602 529.484C397.342 527.607 396.962 525.706 396.806 524.313C396.41 520.732 397.999 513.468 397.999 513.468C397.999 513.468 394.72 516.949 393.926 513.468C393.578 511.945 392.354 511.182 391.088 510.788C389.385 510.274 387.553 510.381 385.928 511.104C383.346 512.223 379.037 514.622 379.809 517.85C380.904 522.41 377.029 528.885 377.029 528.885C376.728 529.264 376.483 529.664 376.304 530.114C375.962 530.921 375.849 531.833 375.977 532.7C376.105 533.566 376.469 534.359 377.029 535.033Z" fill="black"/>
<path opacity="0.1" d="M377.029 535.049C379.513 538.328 394.123 536.951 396.609 535.932C398.128 535.306 398.013 532.446 397.602 529.5C396.034 530.236 393.365 530.828 388.917 530.414C387.879 530.316 386.836 530.288 385.794 530.32C382.63 530.461 379.46 530.4 376.304 530.131C375.962 530.937 375.849 531.818 375.977 532.684C376.105 533.551 376.469 534.375 377.029 535.049Z" fill="black"/>
<path opacity="0.1" d="M428.015 451.858C427.022 464.782 428.215 484.631 432.19 495.366C434.6 502.183 435.614 509.429 435.171 516.647C436.561 517.827 438.494 518.03 440.58 517.687C439.382 509.303 434.272 473.18 430.998 444.639C427.27 412.143 409.827 389.781 409.827 389.781L406.348 393.596C415.889 398.57 428.015 451.858 428.015 451.858Z" fill="black"/>
<path d="M382.992 242.928L385.42 254.877L397.306 274.834L411.966 268.56C411.966 268.56 431.892 247.702 419.369 244.725C417.868 244.403 416.452 243.763 415.209 242.865C412.752 241.009 409.59 235.262 409.578 232.619C409.678 229.663 410.655 229.659 411.901 226.976L388.36 219.094C389.418 222.463 395.341 225.336 395.505 228.867C395.701 235.849 387.803 239.897 385.674 241.541C384.882 242.177 383.969 242.646 382.992 242.928Z" fill="#DEAA87"/>
<path opacity="0.1" d="M382.992 242.95L385.42 254.899L397.306 274.855L411.966 268.581C411.966 268.581 431.892 247.723 419.369 244.747C417.868 244.424 416.451 243.788 415.209 242.887C417.473 249.101 408.137 262.024 408.137 262.024C407.052 263.618 404.559 262.623 404.559 262.623C398.547 261.715 387.478 244.438 385.674 241.562C384.881 242.199 383.969 242.667 382.992 242.95Z" fill="black"/>
<path opacity="0.1" d="M371.516 358.536C375.044 359.344 394.574 363.683 401.977 362.603C410.125 361.403 425.969 360.617 425.969 360.617C425.969 360.617 436.06 361.157 439.163 359.735C439.143 359.361 439.134 359.136 439.134 359.136L433.382 352.263C433.382 352.263 377.721 348.086 373.547 352.263C372.521 353.292 371.889 355.611 371.514 358.536H371.516Z" fill="black"/>
<path d="M402.372 258.932C402.372 258.932 404.444 252.416 405.548 250.641C408.372 246.101 414.982 245.591 414.673 242.444L432.39 249.695C432.39 249.695 441.992 248.666 445.84 264.576C446.456 267.229 448.077 273.18 448.606 275.894C448.931 278.002 449.084 278.276 450.476 284.501C452.611 294.045 453.856 313.315 444.912 315.303C435.966 317.29 432.788 316.312 432.788 316.312C432.788 316.312 433.98 352.679 439.148 356.856C444.316 361.033 425.97 360.04 425.97 360.04C425.97 360.04 410.125 360.836 401.976 362.026C393.826 363.227 370.967 357.865 370.967 357.865C370.967 357.865 374.346 342.546 375.538 332.801C376.731 323.065 379.514 302.314 379.514 302.314L359.239 274.854C359.239 274.854 355.661 258.279 368.184 250.924C380.707 243.57 385.42 241.75 385.42 241.75C385.42 241.75 393.359 252.164 399.918 253.163L402.372 258.932Z" fill="#162D50"/>
<path d="M399.767 315.464C399.767 315.464 421.717 310.103 423.763 305.533C425.809 300.963 431.446 290.715 431.446 290.715L429.131 287.594L418.453 295.98C418.453 295.98 405.731 306.11 399.767 307.109C393.805 308.098 399.767 315.464 399.767 315.464Z" fill="#DEAA87"/>
<path d="M382.992 292.02V303.937H384.907C394.364 303.935 403.666 306.349 411.936 310.936L415.522 312.922L416.488 313.458L422.647 299.586L416.884 294.416C416.884 294.416 416.782 294.416 416.59 294.416C415.18 294.557 409.082 295.063 406.498 294.195C404.043 293.358 400.993 290.731 393.763 292.587C390.202 293.495 387.161 297.485 383.705 296.244L382.992 292.02Z" fill="#DEAA87"/>
<path d="M384.465 242.094C384.465 242.094 367.246 250.397 368.154 250.921L371.496 253.317L379.484 302.342C379.484 302.342 376.701 323.062 375.508 332.798C374.315 342.543 370.936 357.862 370.936 357.862C370.936 357.862 386.555 361.523 396.574 362.118L396.613 251.71C391.026 248.774 384.469 242.094 384.469 242.094H384.465Z" fill="#2C5AA0"/>
<path d="M417.401 243.531C415.573 245.64 414.512 247.915 409.146 253.242L409.156 360.97C416.921 360.274 426.301 360.592 426.301 360.592C426.301 360.592 444.959 361.782 439.791 357.565C434.622 353.388 432.449 315.949 432.449 315.949L431.645 314.909C431.645 314.909 419.506 308.849 428.09 304.158C429.771 303.25 419.19 296.938 419.19 296.938C418.66 294.224 429.728 289.367 429.111 286.724C425.263 270.814 431.901 249.364 431.901 249.364L417.401 243.531Z" fill="#2C5AA0"/>
<path opacity="0.999" d="M377.113 245.771L381.669 243.344L385.769 254.694L388.089 361.35L382.595 360.12L381.101 254.504L377.113 245.771Z" fill="#B3B3B3"/>
<path d="M363.15 267.961L359.174 272.438V283.283C359.174 283.283 362.554 317.469 373.288 321.242C384.022 325.025 403.184 319.066 403.184 319.066C403.184 319.066 408.132 305.95 405.816 305.163C403.501 304.366 382.11 302.578 382.11 302.578C382.11 302.578 378.702 301.613 376.589 283.756C376.589 283.756 372.115 262.276 372.007 257.998C371.782 249.049 363.15 267.961 363.15 267.961Z" fill="#162D50"/>
<path opacity="0.999" d="M425.114 246.644L420.253 244.531L415.696 255.692L414.99 318.904L417.365 360.614H423.024L421.114 320.26L421.625 256.228L425.114 246.644Z" fill="#B3B3B3"/>
<path d="M408.567 294.062C408.567 294.062 410.498 308.106 406.92 313.735C406.92 313.735 423.47 316.359 433.685 315.753L433.842 295.134L408.567 294.062Z" fill="#162D50"/>
<path d="M432.805 531.661C432.92 532.653 433.362 533.595 434.06 534.309C434.759 535.023 435.675 535.466 436.665 535.602C442.064 536.409 455.066 534.008 458.35 535.602C462.525 537.589 479.02 536.202 479.816 534.215C479.929 533.817 479.962 533.395 479.913 532.985C479.864 532.575 479.735 532.179 479.533 531.818C478.968 530.606 478.035 529.6 476.867 528.949C476.486 528.736 476.086 528.58 475.67 528.445C472.564 527.406 466.693 525.207 465.109 522.896C465.109 522.896 457.794 516.489 455.706 513.028C455.314 512.348 454.759 511.773 454.092 511.357C453.425 510.942 452.667 510.716 451.883 510.664C450.142 510.563 448.203 511.453 447.41 515.267C447.41 515.267 437.874 520.701 435.292 515.929C435.292 515.929 434.896 527.698 433.312 529.706H433.302C433.093 529.985 432.942 530.314 432.857 530.652C432.771 530.99 432.753 531.348 432.803 531.692L432.805 531.661Z" fill="black"/>
<path opacity="0.1" d="M432.805 531.649C432.92 532.642 433.362 533.583 434.06 534.297C434.759 535.011 435.675 535.454 436.665 535.59C442.064 536.397 455.066 533.996 458.35 535.59C462.525 537.577 479.02 536.19 479.816 534.203C479.929 533.805 479.962 533.383 479.913 532.973C479.864 532.563 479.735 532.167 479.533 531.806C478.968 530.595 478.035 529.588 476.867 528.938C474.177 530.723 468.204 532.467 455.069 530.419C442.54 528.462 436.338 530.996 433.312 529.694H433.302C433.093 529.973 432.942 530.302 432.857 530.64C432.771 530.978 432.753 531.336 432.803 531.68L432.805 531.649Z" fill="black"/>
<path opacity="0.1" d="M457.016 514.781C457.016 514.781 454.939 518.441 447.41 515.223L457.016 514.781Z" fill="black"/>
<path opacity="0.1" d="M394.637 515.062C394.637 515.062 388.143 522.688 379.961 517.553L394.637 515.062Z" fill="black"/>
<path opacity="0.1" d="M375.736 424.625C375.736 424.625 380.325 427.499 380.473 429.133C380.623 430.778 378.107 427.935 378.107 427.935L375.736 424.625Z" fill="black"/>
<path opacity="0.1" d="M373.926 446.594C375.521 447.924 377.507 448.696 379.581 448.801C383.009 448.952 382.724 453.421 380.481 452.079C378.239 450.738 373.926 446.594 373.926 446.594Z" fill="black"/>
<path opacity="0.1" d="M373.055 449.469C373.055 449.469 375.258 460.29 377.047 458.202L373.055 449.469Z" fill="black"/>
<path opacity="0.1" d="M391.781 318.2C387.437 319.259 384.086 317.093 380.104 318.768C377.621 319.736 374.419 320.201 372.697 320.565C373.301 322.29 375.838 321.58 376.737 322.236C379.064 322.649 382.355 322.737 385.986 322.425C394.512 320.952 396.366 320.659 396.366 320.659L407.216 313.219C405.452 314.137 391.781 318.2 391.781 318.2Z" fill="black"/>
<path d="M405.832 183.751C413.038 183.751 418.759 192.927 418.841 204.307L418.86 206.923C418.88 206.922 418.901 206.922 418.921 206.923C419.141 206.923 419.357 207.034 419.56 207.239C419.763 207.443 419.948 207.744 420.104 208.121C420.259 208.499 420.382 208.952 420.466 209.445C420.55 209.939 420.592 210.456 420.592 210.99C420.591 212.067 420.415 213.099 420.102 213.859C419.788 214.62 419.364 215.058 418.921 215.057C418.982 226.417 412.517 235.708 405.319 235.708H400.139C393.188 235.708 386.697 224.952 386.239 213.985C386.161 213.999 386.083 213.999 386.005 213.985C385.785 213.986 385.567 213.874 385.365 213.67C385.162 213.466 384.978 213.165 384.823 212.787C384.667 212.41 384.544 211.957 384.46 211.463C384.376 210.97 384.334 210.452 384.334 209.918C384.334 209.385 384.376 208.835 384.46 208.342C384.544 207.849 384.667 207.396 384.823 207.018C384.978 206.64 385.162 206.371 385.365 206.167C385.567 205.962 385.785 205.851 386.005 205.851C386.073 205.841 386.142 205.841 386.21 205.851V204.212C386.2 192.832 392.011 183.656 399.219 183.656H405.836L405.832 183.751Z" fill="#DEAA87"/>
<path opacity="0.6" d="M385.803 210.263C385.604 210.244 385.497 209.564 385.563 208.752C385.63 207.94 385.846 207.29 386.045 207.309C386.245 207.328 386.352 208.008 386.285 208.821C386.218 209.633 386.002 210.282 385.803 210.263Z" fill="black"/>
<path opacity="0.6" d="M419.314 211.575C419.514 211.556 419.621 210.876 419.554 210.064C419.487 209.252 419.271 208.603 419.072 208.622C418.872 208.641 418.765 209.321 418.832 210.133C418.899 210.945 419.115 211.594 419.314 211.575Z" fill="black"/>
<path d="M402.365 181.938C411.438 181.938 418.29 190.38 418.826 200.822L419.058 205.331C418.941 208.277 419.068 208.241 419.068 210.753C419.068 213.265 419.067 213.316 419.017 215.545L418.584 219.203C418.327 221.362 417.338 225.096 416.036 227.557C414.935 229.636 413.425 231.492 411.354 233.358C408.49 235.638 407.665 236.12 405.167 236.07L400.024 235.975C398.265 235.864 394.871 234.255 392.899 231.814C390.823 229.261 391.512 230.131 390.359 228.346C388.699 225.783 385.98 220.741 385.98 216.302V216.018C386.041 213.032 386.02 213.027 386.02 210.596C386.02 208.174 386.021 208.174 385.98 206.056V200.822C385.98 190.36 393.285 181.938 402.359 181.938H402.365ZM405.015 193.382L399.734 193.666L393.066 193.54L390.812 195.494L390.473 198.615L389.699 201.768L387.529 204.038L387.003 207.285L387.074 217.406L387.644 220.842L389.399 224.531L392.321 229.291L395.147 232.444L398.073 234.21L400.116 234.367C400.788 234.105 402.245 230.657 402.286 229.134H402.96C403.219 230.022 403.235 233.501 404.347 234.399L407.389 234.273L409.665 232.539L413.559 229.291L415.003 226.958L416.396 223.806L417.358 220.716L417.988 217.059L417.886 206.97L416.556 202.84L415.098 200.728C414.92 199.547 414.978 198.768 414.95 197.89C414.93 197.335 414.91 196.081 414.714 195.526C414.545 195.052 414.105 195.021 414.105 195.021C413.603 194.809 413.735 194.551 413.204 194.359C412.905 194.248 412.604 194.166 412.304 194.075C410.14 193.46 407.917 193.444 405.009 193.413L405.015 193.382Z" fill="#333333"/>
<path d="M407.806 212.68C407.138 212.68 406.596 212.073 406.596 211.324C406.596 210.576 407.138 209.969 407.806 209.969C408.473 209.969 409.014 210.576 409.014 211.324C409.014 212.073 408.473 212.68 407.806 212.68Z" fill="black"/>
<path d="M398.089 212.524C397.421 212.524 396.879 211.916 396.879 211.168C396.879 210.42 397.421 209.812 398.089 209.812C398.757 209.812 399.297 210.42 399.297 211.168C399.297 211.916 398.757 212.524 398.089 212.524Z" fill="black"/>
<path d="M401.152 220.625H405.014C405.108 220.625 405.184 220.689 405.184 220.783V221.066C405.184 221.16 405.108 221.224 405.014 221.224H401.152C401.059 221.224 400.983 221.16 400.983 221.066V220.783C400.983 220.689 401.059 220.625 401.152 220.625Z" fill="black"/>
<path d="M404.556 206.406H410.274C410.472 206.406 410.633 206.555 410.633 206.753V207.321C410.633 207.518 410.472 207.667 410.274 207.667H404.556C404.358 207.667 404.197 207.518 404.197 207.321V206.753C404.197 206.555 404.358 206.406 404.556 206.406Z" fill="black"/>
<path d="M395.312 206.281H401.012C401.216 206.281 401.381 206.456 401.381 206.66V207.227C401.381 207.43 401.216 207.605 401.012 207.605H395.312C395.109 207.605 394.945 207.43 394.945 207.227V206.66C394.945 206.456 395.109 206.281 395.312 206.281Z" fill="black"/>
<path d="M408.826 224.031C408.824 225.304 408.216 226.525 407.135 227.424C406.055 228.324 404.59 228.829 403.063 228.829C401.536 228.829 400.071 228.324 398.991 227.424C397.91 226.525 397.302 225.304 397.3 224.031H408.826Z" fill="#F2F2F2"/>
<path d="M408.428 224.157C408.426 225.284 407.853 226.363 406.835 227.159C405.816 227.955 404.436 228.402 402.997 228.402C401.558 228.402 400.178 227.955 399.159 227.159C398.141 226.363 397.568 225.284 397.566 224.157H408.428Z" fill="white"/>
<path d="M408.333 223.364C408.283 223.364 408.323 223.195 408.333 223.174C408.584 222.852 409.089 223.019 409.459 223.332C409.875 223.695 409.793 224.212 409.575 224.656C409.565 224.656 409.285 225.09 409.196 224.908C409.156 224.808 409.374 224.202 409.378 224.152C409.408 223.738 409.438 223.926 409.271 223.553C408.967 223.331 408.797 223.313 408.469 223.364H408.333Z" fill="#808080"/>
<path d="M397.662 223.483C397.712 223.483 397.704 223.345 397.693 223.325C397.443 223.002 396.962 223.097 396.594 223.42C396.176 223.783 396.17 224.237 396.389 224.681C396.399 224.681 396.632 224.858 396.659 224.838C396.73 224.838 396.6 224.447 396.59 224.397C396.509 223.973 396.509 223.976 396.824 223.703C397.108 223.461 397.2 223.454 397.528 223.514L397.662 223.483Z" fill="#808080"/>
<path d="M406.603 180.125C413.556 180.125 419.23 187.988 420.477 198.379H385.514C386.712 187.988 392.461 180.125 399.413 180.125H406.603Z" fill="#2C5AA0"/>
<path d="M401.392 177.594H404.351C405.104 177.594 405.715 178.196 405.715 178.949V180.81C405.715 181.563 405.104 182.165 404.351 182.165H401.392C400.639 182.165 400.028 181.563 400.028 180.81V178.949C400.028 178.196 400.639 177.594 401.392 177.594Z" fill="#2C5AA0"/>
<path d="M392.059 179.938H394.183C394.807 179.938 395.312 180.449 395.312 181.072V186.81C395.312 187.434 394.807 187.945 394.183 187.945H392.059C391.436 187.945 390.93 187.434 390.93 186.81V181.072C390.93 180.449 391.436 179.938 392.059 179.938Z" fill="#2C5AA0"/>
<path d="M411.448 179.844H414.096C414.574 179.844 414.963 180.248 414.963 180.727V186.969C414.963 187.447 414.574 187.852 414.096 187.852H411.448C410.969 187.852 410.581 187.447 410.581 186.969V180.727C410.581 180.248 410.969 179.844 411.448 179.844Z" fill="#2C5AA0"/>
<path opacity="0.61" d="M420.726 198.255L412.495 194.188H394.245L385.715 198.286L420.726 198.255Z" fill="#162D50"/>
<path opacity="0.65" d="M386.936 205.375L390.104 207.235H390.114C390.892 206.862 392.104 206.794 393.477 206.794C394.265 206.794 395.104 206.794 395.941 206.794C398.147 206.794 399.985 207.296 400.981 208.244C400.981 208.244 401.812 208.7 402.266 208.811C402.49 208.912 402.724 208.912 402.951 208.811C403.415 208.711 404.293 208.37 404.293 208.37C405.79 207.351 407.655 206.845 409.407 206.825C410.243 206.825 411.081 206.825 411.868 206.825C413.213 206.825 414.409 206.954 415.188 207.267L417.878 206.857L417.897 207.33L416.128 208.685C416.097 210.834 413.919 213.408 410.693 214.266C409.419 214.609 407.674 214.403 406.672 214.171C405.643 213.939 404.872 213.153 404.313 212.437C404.105 212.165 403.899 211.659 403.753 211.144C403.623 210.69 403.385 210.402 403.07 210.23C402.835 210.099 402.525 210.079 402.287 210.23C401.988 210.382 401.829 210.649 401.667 211.113C401.54 211.466 401.185 212.214 401.034 212.406C400.475 213.122 399.707 213.908 398.677 214.14C397.675 214.372 395.93 214.577 394.656 214.234C391.994 213.518 390.047 211.625 389.428 209.789L386.947 206.384L386.936 205.375Z" fill="white"/>
<path d="M389.251 237.114L384.279 241.438L396.041 258.45L401.013 254.126L389.251 237.114Z" fill="#162D50"/>
<path d="M402.908 252.583L407.677 258.1L418.14 243.913L413.748 239.562L402.908 252.583Z" fill="#162D50"/>
<path d="M464.275 63.75L470.307 80.5625L484.223 100L478.045 104.562C476.822 101.842 463.807 84.625 463.807 84.625L447.938 75.3438L464.275 63.75Z" fill="#373E48" stroke="black" stroke-width="0.339454"/>
<path opacity="0.09" d="M43.166 537.844L307.414 450.938L690.141 500.469L989.318 539.156L43.166 537.844Z" fill="#1C2224"/>
<path d="M71.2676 294.406C78.4383 294.406 84.252 288.536 84.252 281.312C84.252 274.089 78.4383 268.25 71.2676 268.25C64.0969 268.25 58.2832 274.089 58.2832 281.312C58.2832 288.536 64.0969 294.406 71.2676 294.406Z" fill="#D40000" fill-opacity="0.792157"/>
<path d="M98.2246 284.719C101.515 284.719 104.184 282.052 104.184 278.75C104.184 275.448 101.515 272.781 98.2246 272.781C94.9339 272.781 92.2656 275.448 92.2656 278.75C92.2656 282.052 94.9339 284.719 98.2246 284.719Z" fill="#37C871" fill-opacity="0.792157"/>
<path d="M185.51 268.312H115.064V279.781H185.51V268.312Z" fill="#999999" fill-opacity="0.792157"/>
<path d="M108.811 374.062H71.3906C65.0292 374.062 59.8711 379.232 59.8711 385.594V419.5C59.8711 425.861 65.0292 431.031 71.3906 431.031H108.811C115.172 431.031 120.328 425.861 120.328 419.5V385.594C120.328 379.232 115.172 374.062 108.811 374.062Z" fill="#808080" fill-opacity="0.792157"/>
<g opacity="0.05">
<path opacity="0.05" d="M454.968 511.781C454.968 511.781 454.746 511.892 454.365 512.061C454.57 511.968 454.771 511.874 454.968 511.781Z" fill="black"/>
<path opacity="0.05" d="M370.61 446.031C365.303 459.571 371.496 481.523 374.371 491.329C377.244 501.145 378.128 512.92 378.128 512.92C389.404 514.493 397.587 512.516 397.587 512.516L392.944 492.325C396.261 480.358 392.944 448.365 392.944 448.365C392.944 448.365 400.459 436.017 401.122 417.191C401.775 398.654 406.928 392.647 407.09 392.458C417.703 397.366 431.192 449.951 431.192 449.951C430.087 462.694 431.412 482.323 435.834 492.916C438.515 499.646 439.643 506.766 439.15 513.885C440.696 515.04 442.928 515.613 445.25 515.285C451.565 514.379 459.052 509.187 459.052 509.187C459.052 509.187 456.619 451.915 454.848 449.765C453.081 447.604 454.848 435.236 454.848 435.236L451.977 415.231C451.977 415.231 452.418 381.293 448.216 375.409C444.591 370.332 443.754 361.394 443.591 359.044C443.568 358.676 443.558 358.453 443.558 358.453L437.16 351.671C437.16 351.671 375.248 347.559 370.605 351.671C369.464 352.687 368.762 354.996 368.343 357.893C367.066 366.784 368.53 381.289 368.53 381.289C368.53 381.289 370.385 392.086 373.038 403.067C374.633 409.657 374.633 416.481 373.038 423.071C373.911 430.787 373.084 438.594 370.605 446.031H370.61Z" fill="black"/>
<path opacity="0.05" d="M374.481 532.054C375.044 532.711 378.206 546.451 379.664 546.769C385.351 548.014 394.059 533.721 396.261 532.925C397.95 532.308 397.822 529.485 397.365 526.578C397.076 524.726 396.653 522.85 396.48 521.476C396.039 517.942 397.806 510.774 397.806 510.774C397.806 510.774 394.159 514.208 393.275 510.774C392.888 509.27 391.528 508.517 390.119 508.129C388.225 507.621 386.188 507.724 384.379 508.44C381.507 509.545 376.714 511.912 377.573 515.098C378.791 519.598 374.481 525.987 374.481 525.987C374.145 526.365 373.874 526.752 373.674 527.2C372.9 528.823 373.211 530.7 374.481 532.054Z" fill="black"/>
<path opacity="0.1" d="M374.481 532.038C375.074 532.735 376.288 533.213 377.858 533.531C383.599 534.696 394.088 533.696 396.261 532.909C397.95 532.292 397.822 529.47 397.365 526.562C395.62 527.289 392.652 527.873 387.704 527.465C386.549 527.365 385.389 527.342 384.23 527.371C380.711 527.511 377.184 527.473 373.674 527.185C372.9 528.807 373.211 530.684 374.481 532.038Z" fill="black"/>
<path opacity="0.1" d="M431.195 449.977C430.091 462.73 431.418 482.317 435.84 492.91C438.521 499.637 439.648 506.788 439.156 513.91C440.701 515.075 442.852 515.275 445.172 514.937C443.839 506.664 438.155 471.016 434.513 442.852C430.367 410.785 410.965 388.719 410.965 388.719L407.094 392.483C417.707 397.391 431.195 449.977 431.195 449.977Z" fill="black"/>
<path opacity="0.05" d="M381.115 243.801L383.816 255.592L397.037 275.286L413.344 269.095C413.344 269.095 435.509 248.512 421.579 245.575C419.91 245.256 418.334 244.625 416.952 243.739C414.219 241.907 410.701 236.236 410.687 233.628C410.8 230.711 411.886 230.707 413.272 228.059L387.086 220.281C388.263 223.606 394.852 226.441 395.033 229.926C395.252 236.815 386.466 240.81 384.098 242.432C383.217 243.06 382.202 243.523 381.115 243.801Z" fill="black"/>
<path opacity="0.1" d="M381.115 243.806L383.816 255.598L397.037 275.291L413.344 269.1C413.344 269.1 435.509 248.517 421.579 245.58C419.909 245.262 418.333 244.634 416.952 243.744C419.47 249.877 409.085 262.629 409.085 262.629C407.878 264.202 405.105 263.22 405.105 263.22C398.417 262.324 386.105 245.275 384.098 242.438C383.216 243.066 382.202 243.528 381.115 243.806Z" fill="black"/>
<path opacity="0.1" d="M368.35 357.867C372.274 358.663 393.998 362.945 402.233 361.88C411.297 360.695 428.921 359.92 428.921 359.92C428.921 359.92 440.145 360.453 443.597 359.049C443.575 358.681 443.565 358.458 443.565 358.458L437.167 351.676C437.167 351.676 375.252 347.554 370.61 351.676C369.468 352.691 368.765 354.98 368.348 357.867H368.35Z" fill="black"/>
<path opacity="0.05" d="M402.671 259.581C402.671 259.581 404.977 253.151 406.204 251.398C409.345 246.918 416.698 246.416 416.355 243.309L436.061 250.465C436.061 250.465 446.743 249.45 451.023 265.149C451.708 267.768 453.511 273.64 454.1 276.318C454.461 278.399 454.631 278.669 456.18 284.812C458.555 294.23 459.94 313.246 449.99 315.207C440.04 317.169 436.504 316.203 436.504 316.203C436.504 316.203 437.83 352.09 443.579 356.212C449.327 360.333 428.92 359.354 428.92 359.354C428.92 359.354 411.296 360.139 402.231 361.314C393.165 362.499 367.738 357.207 367.738 357.207C367.738 357.207 371.496 342.091 372.823 332.474C374.149 322.867 377.246 302.39 377.246 302.39L354.692 275.292C354.692 275.292 350.713 258.936 364.643 251.678C378.573 244.421 383.815 242.625 383.815 242.625C383.815 242.625 392.646 252.902 399.942 253.887L402.671 259.581Z" fill="black"/>
<path opacity="0.05" d="M399.774 315.346C399.774 315.346 424.19 310.056 426.466 305.546C428.742 301.036 435.012 290.924 435.012 290.924L432.436 287.844L420.559 296.119C420.559 296.119 406.407 306.116 399.774 307.102C393.142 308.077 399.774 315.346 399.774 315.346Z" fill="black"/>
<path opacity="0.05" d="M381.115 292.237V303.997H383.246C393.765 303.996 404.112 306.378 413.311 310.904L417.3 312.864L418.374 313.393L425.226 299.704L418.815 294.602C418.815 294.602 418.701 294.602 418.488 294.602C416.919 294.741 410.137 295.24 407.262 294.384C404.531 293.558 401.139 290.966 393.096 292.797C389.135 293.693 385.752 297.631 381.909 296.406L381.115 292.237Z" fill="black"/>
<path opacity="0.05" d="M382.753 242.969C382.753 242.969 363.599 251.162 364.609 251.68L368.326 254.044L377.212 302.422C377.212 302.422 374.116 322.868 372.789 332.476C371.462 342.093 367.704 357.209 367.704 357.209C367.704 357.209 385.077 360.822 396.222 361.409L396.265 252.458C390.051 249.561 382.757 242.969 382.757 242.969H382.753Z" fill="black"/>
<path opacity="0.05" d="M419.389 244.375C417.355 246.456 416.175 248.701 410.207 253.957L410.218 360.264C418.855 359.577 429.289 359.891 429.289 359.891C429.289 359.891 450.043 361.065 444.294 356.904C438.545 352.782 436.128 315.837 436.128 315.837L435.233 314.811C435.233 314.811 421.73 308.831 431.279 304.202C433.149 303.306 421.379 297.077 421.379 297.077C420.79 294.399 433.1 289.606 432.415 286.997C428.134 271.297 435.518 250.131 435.518 250.131L419.389 244.375Z" fill="black"/>
<path opacity="0.999" d="M374.574 246.583L379.642 244.188L384.203 255.388L386.783 360.637L380.672 359.423L379.01 255.201L374.574 246.583Z" fill="black"/>
<path opacity="0.05" d="M359.042 268.485L354.619 272.903V283.605C354.619 283.605 358.379 317.34 370.319 321.063C382.258 324.796 403.574 318.916 403.574 318.916C403.574 318.916 409.077 305.973 406.502 305.196C403.926 304.41 380.132 302.645 380.132 302.645C380.132 302.645 376.342 301.693 373.99 284.072C373.99 284.072 369.015 262.875 368.895 258.654C368.644 249.823 359.042 268.485 359.042 268.485Z" fill="black"/>
<path opacity="0.999" d="M427.969 247.459L422.561 245.375L417.492 256.388L416.707 318.766L419.348 359.926H425.643L423.519 320.104L424.087 256.917L427.969 247.459Z" fill="black"/>
<path opacity="0.05" d="M409.563 294.25C409.563 294.25 411.711 308.108 407.73 313.663C407.73 313.663 426.14 316.252 437.502 315.654L437.677 295.308L409.563 294.25Z" fill="black"/>
<path opacity="0.05" d="M436.523 528.727C436.785 530.738 441.852 535.707 444.118 535.976C450.123 536.773 461.285 531.043 464.938 532.616C469.582 534.578 474.571 538.746 475.457 536.785C475.708 535.999 478.828 536.784 479.801 533.519C475.723 529.267 475.034 530.08 473.734 529.443C473.734 529.443 470.147 527.021 469.686 526.892C467.584 525.448 465.324 522.598 465.324 522.598C465.324 522.598 462.845 517.427 460.522 514.012C459.636 512.648 459.516 508.107 457.745 508.007C455.808 507.908 453.651 508.786 452.769 512.55C452.769 512.55 442.161 517.912 439.29 513.203C439.29 513.203 438.849 524.817 437.087 526.799H437.076C436.608 527.356 436.408 528.072 436.521 528.759L436.523 528.727Z" fill="black"/>
<path opacity="0.1" d="M436.523 528.707C436.651 529.686 437.142 530.615 437.92 531.32C438.697 532.025 439.716 532.462 440.817 532.596C446.822 533.392 461.285 531.023 464.938 532.596C469.582 534.557 487.931 533.188 488.816 531.227C488.941 530.834 488.978 530.418 488.923 530.013C488.869 529.609 488.726 529.218 488.5 528.862C487.872 527.666 486.834 526.673 485.535 526.031C482.543 527.793 475.899 529.514 461.289 527.493C447.352 525.562 440.453 528.062 437.087 526.778H437.076C436.844 527.053 436.676 527.378 436.58 527.711C436.485 528.044 436.465 528.398 436.521 528.738L436.523 528.707Z" fill="black"/>
<path opacity="0.1" d="M463.455 512.062C463.455 512.062 461.145 515.674 452.77 512.498L463.455 512.062Z" fill="black"/>
<path opacity="0.1" d="M394.069 512.312C394.069 512.312 386.845 519.838 377.744 514.77L394.069 512.312Z" fill="black"/>
<path opacity="0.1" d="M373.045 423.094C373.045 423.094 378.149 425.93 378.314 427.543C378.48 429.165 375.682 426.36 375.682 426.36L373.045 423.094Z" fill="black"/>
<path opacity="0.1" d="M371.029 444.781C372.804 446.094 375.013 446.856 377.32 446.959C381.133 447.108 380.816 451.519 378.322 450.195C375.827 448.871 371.029 444.781 371.029 444.781Z" fill="black"/>
<path opacity="0.1" d="M370.061 447.594C370.061 447.594 372.511 458.272 374.501 456.212L370.061 447.594Z" fill="black"/>
<path opacity="0.1" d="M390.89 318.072C386.058 319.117 382.331 316.979 377.901 318.632C375.139 319.588 371.578 320.047 369.662 320.405C370.333 322.108 373.155 321.407 374.155 322.054C376.744 322.462 380.405 322.549 384.444 322.241C393.928 320.787 395.99 320.498 395.99 320.498L408.059 313.156C406.097 314.062 390.89 318.072 390.89 318.072Z" fill="black"/>
<path opacity="0.05" d="M406.52 185.406C414.536 185.406 420.9 194.46 420.991 205.69L421.013 208.273C421.035 208.272 421.058 208.272 421.081 208.273C421.325 208.272 421.565 208.382 421.791 208.584C422.016 208.785 422.223 209.082 422.396 209.455C422.568 209.827 422.706 210.275 422.799 210.761C422.892 211.248 422.939 211.759 422.939 212.286C422.938 213.348 422.742 214.367 422.393 215.117C422.045 215.867 421.573 216.3 421.081 216.299C421.148 227.509 413.956 236.677 405.95 236.677H400.188C392.456 236.677 385.236 226.063 384.727 215.241C384.64 215.255 384.553 215.255 384.466 215.241C384.222 215.242 383.979 215.132 383.754 214.93C383.528 214.729 383.324 214.432 383.151 214.059C382.978 213.687 382.841 213.239 382.748 212.753C382.654 212.266 382.607 211.755 382.607 211.228C382.607 210.701 382.654 210.159 382.748 209.673C382.841 209.186 382.978 208.738 383.151 208.366C383.324 207.993 383.528 207.727 383.754 207.526C383.979 207.324 384.222 207.215 384.466 207.215C384.542 207.205 384.619 207.205 384.694 207.215V205.597C384.683 194.367 391.147 185.312 399.164 185.312H406.525L406.52 185.406Z" fill="black"/>
<path opacity="0.6" d="M383.974 210.077C383.939 210.462 383.947 210.832 383.998 211.11C384.048 211.388 384.134 211.56 384.241 211.568C384.347 211.577 384.465 211.423 384.565 211.158C384.665 210.893 384.742 210.529 384.777 210.145C384.795 209.954 384.802 209.763 384.798 209.584C384.795 209.406 384.78 209.25 384.755 209.112C384.73 208.973 384.695 208.868 384.653 208.791C384.611 208.713 384.563 208.658 384.511 208.654C384.458 208.649 384.401 208.695 384.345 208.765C384.29 208.834 384.236 208.931 384.186 209.064C384.136 209.196 384.092 209.346 384.055 209.521C384.019 209.697 383.992 209.885 383.974 210.077Z" fill="black"/>
<path opacity="0.6" d="M421.783 211.358C421.801 211.549 421.808 211.74 421.805 211.919C421.801 212.097 421.785 212.253 421.76 212.391C421.736 212.53 421.7 212.635 421.658 212.712C421.616 212.79 421.57 212.845 421.517 212.849C421.464 212.854 421.408 212.807 421.353 212.738C421.297 212.669 421.243 212.572 421.193 212.439C421.143 212.307 421.099 212.157 421.063 211.982C421.026 211.806 420.998 211.617 420.981 211.426C420.945 211.041 420.953 210.671 421.004 210.393C421.054 210.115 421.141 209.943 421.247 209.935C421.354 209.926 421.471 210.08 421.571 210.345C421.671 210.61 421.748 210.974 421.783 211.358Z" fill="black"/>
<path opacity="0.05" d="M402.663 183.594C412.755 183.594 420.377 191.925 420.973 202.229L421.232 206.678C421.101 209.585 421.243 209.55 421.243 212.029C421.243 214.508 421.242 214.558 421.186 216.758L420.703 220.367C420.418 222.498 419.318 226.182 417.869 228.612C416.645 230.662 414.966 232.494 412.662 234.336C409.476 236.586 408.558 237.061 405.779 237.012L400.059 236.918C398.103 236.809 394.327 235.221 392.133 232.812C389.825 230.293 390.59 231.152 389.308 229.389C387.462 226.861 384.438 221.885 384.438 217.505V217.225C384.505 214.278 384.481 214.273 384.481 211.874C384.481 209.484 384.482 209.484 384.438 207.394V202.229C384.438 191.905 392.563 183.594 402.656 183.594H402.663ZM405.611 194.887L399.736 195.167L392.319 195.043L389.812 196.972L389.435 200.052L388.573 203.163L386.16 205.403L385.575 208.607L385.654 218.594L386.287 221.985L388.24 225.625L391.491 230.323L394.634 233.434L397.889 235.176L400.162 235.332C400.909 235.073 402.529 231.67 402.575 230.167H403.324C403.613 231.043 403.631 234.477 404.868 235.363L408.252 235.238L410.783 233.527L415.114 230.323L416.721 228.02L418.271 224.909L419.34 221.86L420.042 218.252L419.928 208.296L418.448 204.22L416.826 202.136C416.629 200.971 416.693 200.202 416.662 199.336C416.639 198.788 416.618 197.55 416.399 197.003C416.211 196.535 415.721 196.505 415.721 196.505C415.164 196.296 415.31 196.041 414.72 195.852C414.386 195.742 414.053 195.661 413.718 195.572C411.311 194.964 408.838 194.948 405.604 194.918L405.611 194.887Z" fill="black"/>
<path opacity="0.05" d="M407.373 212.588C407.372 212.764 407.405 212.923 407.472 213.086C407.539 213.249 407.639 213.396 407.763 213.521C407.888 213.646 408.036 213.765 408.2 213.832C408.363 213.9 408.54 213.926 408.717 213.926C408.894 213.926 409.068 213.9 409.232 213.832C409.396 213.765 409.545 213.646 409.67 213.521C409.795 213.396 409.895 213.249 409.962 213.086C410.029 212.923 410.061 212.764 410.061 212.588C410.06 212.234 409.918 211.905 409.666 211.654C409.414 211.404 409.073 211.25 408.717 211.25C408.361 211.25 408.02 211.404 407.768 211.654C407.516 211.905 407.374 212.234 407.373 212.588Z" fill="black"/>
<path opacity="0.05" d="M396.562 212.432C396.563 212.786 396.707 213.115 396.959 213.365C397.211 213.615 397.552 213.769 397.908 213.769C398.264 213.77 398.605 213.615 398.857 213.365C399.109 213.115 399.253 212.786 399.254 212.432C399.253 212.077 399.109 211.748 398.857 211.498C398.605 211.248 398.264 211.094 397.908 211.094C397.552 211.094 397.211 211.248 396.959 211.498C396.707 211.748 396.563 212.078 396.562 212.432Z" fill="black"/>
<path opacity="0.05" d="M405.61 221.781H401.314C401.213 221.781 401.126 221.867 401.126 221.937V222.217C401.126 222.316 401.205 222.372 401.314 222.372H405.61C405.711 222.372 405.799 222.286 405.799 222.217V221.937C405.799 221.837 405.709 221.781 405.61 221.781Z" fill="black"/>
<path opacity="0.05" d="M411.462 207.75H405.1C404.88 207.75 404.701 207.903 404.701 208.092V208.652C404.701 208.841 404.88 208.994 405.1 208.994H411.462C411.683 208.994 411.861 208.841 411.861 208.652V208.092C411.861 207.903 411.683 207.75 411.462 207.75Z" fill="black"/>
<path opacity="0.05" d="M401.158 207.625H394.818C394.591 207.625 394.41 207.799 394.41 207.998V208.558C394.41 208.757 394.591 208.901 394.818 208.901H401.158C401.385 208.901 401.568 208.757 401.568 208.558V207.998C401.568 207.799 401.385 207.625 401.158 207.625Z" fill="black"/>
<g opacity="0.05">
<path opacity="0.05" d="M409.854 225.125C409.851 226.381 409.175 227.586 407.973 228.473C406.771 229.361 405.141 229.86 403.443 229.86C401.744 229.86 400.115 229.361 398.913 228.473C397.711 227.586 397.035 226.381 397.032 225.125H409.854Z" fill="black"/>
<path opacity="0.05" d="M409.411 225.249C409.408 226.361 408.771 227.426 407.638 228.212C406.505 228.997 404.97 229.438 403.369 229.438C401.768 229.438 400.233 228.997 399.1 228.212C397.968 227.426 397.33 226.361 397.328 225.249H409.411Z" fill="black"/>
</g>
<path opacity="0.05" d="M409.303 224.484C409.247 224.484 409.292 224.317 409.303 224.297C409.581 223.979 410.144 224.144 410.555 224.453C411.018 224.811 410.926 225.321 410.684 225.759C410.673 225.759 410.362 226.187 410.263 226.008C410.218 225.909 410.46 225.311 410.465 225.262C410.498 224.853 410.531 225.039 410.346 224.671C410.007 224.451 409.819 224.434 409.454 224.484H409.303Z" fill="black"/>
<path opacity="0.05" d="M397.432 224.603C397.488 224.603 397.479 224.467 397.467 224.447C397.189 224.129 396.654 224.222 396.244 224.541C395.78 224.899 395.773 225.347 396.016 225.785C396.028 225.785 396.286 225.961 396.317 225.941C396.395 225.941 396.251 225.555 396.24 225.505C396.15 225.087 396.15 225.089 396.501 224.821C396.816 224.582 396.919 224.574 397.283 224.634L397.432 224.603Z" fill="black"/>
<path opacity="0.05" d="M407.379 181.812C415.112 181.812 421.425 189.572 422.812 199.826H383.92C385.253 189.572 391.648 181.812 399.381 181.812H407.379Z" fill="black"/>
<path opacity="0.05" d="M404.874 179.312H401.584C400.743 179.312 400.065 179.904 400.065 180.65V182.486C400.065 183.233 400.743 183.824 401.584 183.824H404.874C405.714 183.824 406.391 183.233 406.391 182.486V180.65C406.391 179.904 405.714 179.312 404.874 179.312Z" fill="black"/>
<path opacity="0.05" d="M393.562 181.625H391.2C390.504 181.625 389.944 182.128 389.944 182.745V188.407C389.944 189.024 390.504 189.527 391.2 189.527H393.562C394.257 189.527 394.818 189.024 394.818 188.407V182.745C394.818 182.128 394.257 181.625 393.562 181.625Z" fill="black"/>
<path opacity="0.05" d="M415.713 181.531H412.768C412.234 181.531 411.803 181.924 411.803 182.402V188.562C411.803 189.04 412.234 189.433 412.768 189.433H415.713C416.248 189.433 416.678 189.04 416.678 188.562V182.402C416.678 181.924 416.248 181.531 415.713 181.531Z" fill="black"/>
<path opacity="0.61" d="M423.089 199.701L413.934 195.688H393.633L384.145 199.732L423.089 199.701Z" fill="black"/>
<path opacity="0.65" d="M385.5 206.75L389.024 208.586H389.035C389.901 208.217 391.25 208.15 392.777 208.15C393.653 208.15 394.586 208.15 395.517 208.15C397.971 208.15 400.016 208.645 401.123 209.581C401.123 209.581 402.047 210.032 402.552 210.141C402.802 210.241 403.063 210.241 403.315 210.141C403.831 210.042 404.808 209.706 404.808 209.706C406.473 208.7 408.547 208.201 410.496 208.181C411.426 208.181 412.358 208.181 413.233 208.181C414.73 208.181 416.06 208.308 416.926 208.617L419.918 208.212L419.94 208.679L417.972 210.017C417.938 212.137 415.515 214.677 411.927 215.523C410.509 215.862 408.569 215.659 407.453 215.43C406.309 215.201 405.451 214.426 404.83 213.719C404.599 213.45 404.369 212.951 404.207 212.443C404.062 211.995 403.798 211.71 403.447 211.541C403.185 211.412 402.841 211.392 402.577 211.541C402.243 211.69 402.067 211.954 401.886 212.412C401.745 212.761 401.351 213.499 401.183 213.688C400.561 214.395 399.706 215.17 398.561 215.399C397.446 215.628 395.505 215.831 394.088 215.492C391.127 214.785 388.961 212.917 388.273 211.106L385.513 207.746L385.5 206.75Z" fill="black"/>
<path opacity="0.05" d="M382.547 242.312L388.091 238.035L401.173 254.823L395.629 259.1L382.547 242.312Z" fill="black"/>
<path opacity="0.05" d="M403.268 253.318L408.572 258.762L420.21 244.762L415.325 240.469L403.268 253.318Z" fill="black"/>
</g>
</g>
<line x1="473" y1="283.5" x2="900" y2="283.5" stroke="#383E45" stroke-width="3"/>
<path d="M511.85 219L502.45 207.2V219H495.45V182H502.45V203.05L511.75 191.3H520.85L508.65 205.2L520.95 219H511.85ZM531.649 195.6C532.549 194.133 533.716 192.983 535.149 192.15C536.616 191.317 538.283 190.9 540.149 190.9V198.25H538.299C536.099 198.25 534.433 198.767 533.299 199.8C532.199 200.833 531.649 202.633 531.649 205.2V219H524.649V191.3H531.649V195.6ZM548.414 188C547.181 188 546.147 187.617 545.314 186.85C544.514 186.05 544.114 185.067 544.114 183.9C544.114 182.733 544.514 181.767 545.314 181C546.147 180.2 547.181 179.8 548.414 179.8C549.647 179.8 550.664 180.2 551.464 181C552.297 181.767 552.714 182.733 552.714 183.9C552.714 185.067 552.297 186.05 551.464 186.85C550.664 187.617 549.647 188 548.414 188ZM551.864 191.3V219H544.864V191.3H551.864ZM569.38 219.45C567.113 219.45 565.08 219.05 563.28 218.25C561.48 217.417 560.047 216.3 558.98 214.9C557.947 213.5 557.38 211.95 557.28 210.25H564.33C564.463 211.317 564.98 212.2 565.88 212.9C566.813 213.6 567.963 213.95 569.33 213.95C570.663 213.95 571.697 213.683 572.43 213.15C573.197 212.617 573.58 211.933 573.58 211.1C573.58 210.2 573.113 209.533 572.18 209.1C571.28 208.633 569.83 208.133 567.83 207.6C565.763 207.1 564.063 206.583 562.73 206.05C561.43 205.517 560.297 204.7 559.33 203.6C558.397 202.5 557.93 201.017 557.93 199.15C557.93 197.617 558.363 196.217 559.23 194.95C560.13 193.683 561.397 192.683 563.03 191.95C564.697 191.217 566.647 190.85 568.88 190.85C572.18 190.85 574.813 191.683 576.78 193.35C578.747 194.983 579.83 197.2 580.03 200H573.33C573.23 198.9 572.763 198.033 571.93 197.4C571.13 196.733 570.047 196.4 568.68 196.4C567.413 196.4 566.43 196.633 565.73 197.1C565.063 197.567 564.73 198.217 564.73 199.05C564.73 199.983 565.197 200.7 566.13 201.2C567.063 201.667 568.513 202.15 570.48 202.65C572.48 203.15 574.13 203.667 575.43 204.2C576.73 204.733 577.847 205.567 578.78 206.7C579.747 207.8 580.247 209.267 580.28 211.1C580.28 212.7 579.83 214.133 578.93 215.4C578.063 216.667 576.797 217.667 575.13 218.4C573.497 219.1 571.58 219.45 569.38 219.45ZM594.176 197.05V210.45C594.176 211.383 594.393 212.067 594.826 212.5C595.293 212.9 596.06 213.1 597.126 213.1H600.376V219H595.976C590.076 219 587.126 216.133 587.126 210.4V197.05H583.826V191.3H587.126V184.45H594.176V191.3H600.376V197.05H594.176ZM608.961 188C607.728 188 606.694 187.617 605.861 186.85C605.061 186.05 604.661 185.067 604.661 183.9C604.661 182.733 605.061 181.767 605.861 181C606.694 180.2 607.728 179.8 608.961 179.8C610.194 179.8 611.211 180.2 612.011 181C612.844 181.767 613.261 182.733 613.261 183.9C613.261 185.067 612.844 186.05 612.011 186.85C611.211 187.617 610.194 188 608.961 188ZM612.411 191.3V219H605.411V191.3H612.411ZM617.527 205.05C617.527 202.25 618.077 199.767 619.177 197.6C620.31 195.433 621.827 193.767 623.727 192.6C625.66 191.433 627.81 190.85 630.177 190.85C632.244 190.85 634.044 191.267 635.577 192.1C637.144 192.933 638.394 193.983 639.327 195.25V191.3H646.377V219H639.327V214.95C638.427 216.25 637.177 217.333 635.577 218.2C634.01 219.033 632.194 219.45 630.127 219.45C627.794 219.45 625.66 218.85 623.727 217.65C621.827 216.45 620.31 214.767 619.177 212.6C618.077 210.4 617.527 207.883 617.527 205.05ZM639.327 205.15C639.327 203.45 638.994 202 638.327 200.8C637.66 199.567 636.76 198.633 635.627 198C634.494 197.333 633.277 197 631.977 197C630.677 197 629.477 197.317 628.377 197.95C627.277 198.583 626.377 199.517 625.677 200.75C625.01 201.95 624.677 203.383 624.677 205.05C624.677 206.717 625.01 208.183 625.677 209.45C626.377 210.683 627.277 211.633 628.377 212.3C629.51 212.967 630.71 213.3 631.977 213.3C633.277 213.3 634.494 212.983 635.627 212.35C636.76 211.683 637.66 210.75 638.327 209.55C638.994 208.317 639.327 206.85 639.327 205.15ZM668.564 190.9C671.864 190.9 674.53 191.95 676.564 194.05C678.597 196.117 679.614 199.017 679.614 202.75V219H672.614V203.7C672.614 201.5 672.064 199.817 670.964 198.65C669.864 197.45 668.364 196.85 666.464 196.85C664.53 196.85 662.997 197.45 661.864 198.65C660.764 199.817 660.214 201.5 660.214 203.7V219H653.214V191.3H660.214V194.75C661.147 193.55 662.33 192.617 663.764 191.95C665.23 191.25 666.83 190.9 668.564 190.9Z" fill="#383E45"/>
<path d="M541.45 237.75V246.5H553.2V252.05H541.45V261.3H554.7V267H534.45V232.05H554.7V237.75H541.45ZM595.461 238.9C598.861 238.9 601.595 239.95 603.661 242.05C605.761 244.117 606.811 247.017 606.811 250.75V267H599.811V251.7C599.811 249.533 599.261 247.883 598.161 246.75C597.061 245.583 595.561 245 593.661 245C591.761 245 590.245 245.583 589.111 246.75C588.011 247.883 587.461 249.533 587.461 251.7V267H580.461V251.7C580.461 249.533 579.911 247.883 578.811 246.75C577.711 245.583 576.211 245 574.311 245C572.378 245 570.845 245.583 569.711 246.75C568.611 247.883 568.061 249.533 568.061 251.7V267H561.061V239.3H568.061V242.65C568.961 241.483 570.111 240.567 571.511 239.9C572.945 239.233 574.511 238.9 576.211 238.9C578.378 238.9 580.311 239.367 582.011 240.3C583.711 241.2 585.028 242.5 585.961 244.2C586.861 242.6 588.161 241.317 589.861 240.35C591.595 239.383 593.461 238.9 595.461 238.9ZM647.854 238.9C651.254 238.9 653.987 239.95 656.054 242.05C658.154 244.117 659.204 247.017 659.204 250.75V267H652.204V251.7C652.204 249.533 651.654 247.883 650.554 246.75C649.454 245.583 647.954 245 646.054 245C644.154 245 642.637 245.583 641.504 246.75C640.404 247.883 639.854 249.533 639.854 251.7V267H632.854V251.7C632.854 249.533 632.304 247.883 631.204 246.75C630.104 245.583 628.604 245 626.704 245C624.771 245 623.237 245.583 622.104 246.75C621.004 247.883 620.454 249.533 620.454 251.7V267H613.454V239.3H620.454V242.65C621.354 241.483 622.504 240.567 623.904 239.9C625.337 239.233 626.904 238.9 628.604 238.9C630.771 238.9 632.704 239.367 634.404 240.3C636.104 241.2 637.421 242.5 638.354 244.2C639.254 242.6 640.554 241.317 642.254 240.35C643.987 239.383 645.854 238.9 647.854 238.9ZM664.046 253.05C664.046 250.25 664.596 247.767 665.696 245.6C666.83 243.433 668.346 241.767 670.246 240.6C672.18 239.433 674.33 238.85 676.696 238.85C678.763 238.85 680.563 239.267 682.096 240.1C683.663 240.933 684.913 241.983 685.846 243.25V239.3H692.896V267H685.846V262.95C684.946 264.25 683.696 265.333 682.096 266.2C680.53 267.033 678.713 267.45 676.646 267.45C674.313 267.45 672.18 266.85 670.246 265.65C668.346 264.45 666.83 262.767 665.696 260.6C664.596 258.4 664.046 255.883 664.046 253.05ZM685.846 253.15C685.846 251.45 685.513 250 684.846 248.8C684.18 247.567 683.28 246.633 682.146 246C681.013 245.333 679.796 245 678.496 245C677.196 245 675.996 245.317 674.896 245.95C673.796 246.583 672.896 247.517 672.196 248.75C671.53 249.95 671.196 251.383 671.196 253.05C671.196 254.717 671.53 256.183 672.196 257.45C672.896 258.683 673.796 259.633 674.896 260.3C676.03 260.967 677.23 261.3 678.496 261.3C679.796 261.3 681.013 260.983 682.146 260.35C683.28 259.683 684.18 258.75 684.846 257.55C685.513 256.317 685.846 254.85 685.846 253.15ZM715.083 238.9C718.383 238.9 721.05 239.95 723.083 242.05C725.117 244.117 726.133 247.017 726.133 250.75V267H719.133V251.7C719.133 249.5 718.583 247.817 717.483 246.65C716.383 245.45 714.883 244.85 712.983 244.85C711.05 244.85 709.517 245.45 708.383 246.65C707.283 247.817 706.733 249.5 706.733 251.7V267H699.733V239.3H706.733V242.75C707.667 241.55 708.85 240.617 710.283 239.95C711.75 239.25 713.35 238.9 715.083 238.9ZM758.94 239.3V267H751.89V263.5C750.99 264.7 749.807 265.65 748.34 266.35C746.907 267.017 745.34 267.35 743.64 267.35C741.473 267.35 739.557 266.9 737.89 266C736.223 265.067 734.907 263.717 733.94 261.95C733.007 260.15 732.54 258.017 732.54 255.55V239.3H739.54V254.55C739.54 256.75 740.09 258.45 741.19 259.65C742.29 260.817 743.79 261.4 745.69 261.4C747.623 261.4 749.14 260.817 750.24 259.65C751.34 258.45 751.89 256.75 751.89 254.55V239.3H758.94ZM791.596 252.55C791.596 253.55 791.53 254.45 791.396 255.25H771.146C771.313 257.25 772.013 258.817 773.246 259.95C774.48 261.083 775.996 261.65 777.796 261.65C780.396 261.65 782.246 260.533 783.346 258.3H790.896C790.096 260.967 788.563 263.167 786.296 264.9C784.03 266.6 781.246 267.45 777.946 267.45C775.28 267.45 772.88 266.867 770.746 265.7C768.646 264.5 766.996 262.817 765.796 260.65C764.63 258.483 764.046 255.983 764.046 253.15C764.046 250.283 764.63 247.767 765.796 245.6C766.963 243.433 768.596 241.767 770.696 240.6C772.796 239.433 775.213 238.85 777.946 238.85C780.58 238.85 782.93 239.417 784.996 240.55C787.096 241.683 788.713 243.3 789.846 245.4C791.013 247.467 791.596 249.85 791.596 252.55ZM784.346 250.55C784.313 248.75 783.663 247.317 782.396 246.25C781.13 245.15 779.58 244.6 777.746 244.6C776.013 244.6 774.546 245.133 773.346 246.2C772.18 247.233 771.463 248.683 771.196 250.55H784.346ZM803.706 230V267H796.706V230H803.706Z" fill="#383E45"/>
<path d="M511.2 143.428V163H509.24V143.428H511.2ZM522.426 155.328C522.426 153.76 522.734 152.388 523.35 151.212C523.985 150.017 524.853 149.103 525.954 148.468C527.074 147.815 528.334 147.488 529.734 147.488C531.19 147.488 532.441 147.824 533.486 148.496C534.55 149.168 535.315 150.027 535.782 151.072V147.712H537.742V163H535.782V159.612C535.297 160.657 534.522 161.525 533.458 162.216C532.413 162.888 531.162 163.224 529.706 163.224C528.325 163.224 527.074 162.897 525.954 162.244C524.853 161.591 523.985 160.667 523.35 159.472C522.734 158.277 522.426 156.896 522.426 155.328ZM535.782 155.356C535.782 154.124 535.53 153.041 535.026 152.108C534.522 151.175 533.831 150.456 532.954 149.952C532.095 149.448 531.143 149.196 530.098 149.196C529.015 149.196 528.045 149.439 527.186 149.924C526.327 150.409 525.646 151.119 525.142 152.052C524.657 152.967 524.414 154.059 524.414 155.328C524.414 156.579 524.657 157.68 525.142 158.632C525.646 159.565 526.327 160.284 527.186 160.788C528.045 161.273 529.015 161.516 530.098 161.516C531.143 161.516 532.095 161.264 532.954 160.76C533.831 160.256 534.522 159.537 535.026 158.604C535.53 157.671 535.782 156.588 535.782 155.356ZM560.417 147.432C562.209 147.432 563.665 148.001 564.785 149.14C565.923 150.26 566.493 151.893 566.493 154.04V163H564.561V154.264C564.561 152.603 564.159 151.333 563.357 150.456C562.554 149.579 561.462 149.14 560.081 149.14C558.643 149.14 557.495 149.616 556.637 150.568C555.778 151.52 555.349 152.901 555.349 154.712V163H553.417V154.264C553.417 152.603 553.015 151.333 552.213 150.456C551.41 149.579 550.309 149.14 548.909 149.14C547.471 149.14 546.323 149.616 545.465 150.568C544.606 151.52 544.177 152.901 544.177 154.712V163H542.217V147.712H544.177V150.344C544.662 149.392 545.353 148.673 546.249 148.188C547.145 147.684 548.143 147.432 549.245 147.432C550.57 147.432 551.727 147.749 552.717 148.384C553.725 149.019 554.453 149.952 554.901 151.184C555.311 149.971 556.011 149.047 557.001 148.412C558.009 147.759 559.147 147.432 560.417 147.432Z" fill="#3E3E3E"/>
<path d="M513.6 296.224V313H511.92V296.224H513.6ZM523.548 299.656C525.116 299.656 526.396 300.144 527.388 301.12C528.38 302.08 528.876 303.48 528.876 305.32V313H527.22V305.512C527.22 304.088 526.86 303 526.14 302.248C525.436 301.496 524.468 301.12 523.236 301.12C521.972 301.12 520.964 301.52 520.212 302.32C519.46 303.12 519.084 304.296 519.084 305.848V313H517.404V299.896H519.084V302.128C519.5 301.328 520.1 300.72 520.884 300.304C521.668 299.872 522.556 299.656 523.548 299.656ZM531.824 306.424C531.824 305.08 532.096 303.904 532.64 302.896C533.184 301.872 533.928 301.088 534.872 300.544C535.832 299.984 536.912 299.704 538.112 299.704C539.264 299.704 540.304 299.984 541.232 300.544C542.16 301.104 542.84 301.832 543.272 302.728V295.24H544.952V313H543.272V310.072C542.872 310.984 542.216 311.736 541.304 312.328C540.392 312.904 539.32 313.192 538.088 313.192C536.888 313.192 535.808 312.912 534.848 312.352C533.904 311.792 533.16 311 532.616 309.976C532.088 308.952 531.824 307.768 531.824 306.424ZM543.272 306.448C543.272 305.392 543.056 304.464 542.624 303.664C542.192 302.864 541.6 302.248 540.848 301.816C540.112 301.384 539.296 301.168 538.4 301.168C537.472 301.168 536.64 301.376 535.904 301.792C535.168 302.208 534.584 302.816 534.152 303.616C533.736 304.4 533.528 305.336 533.528 306.424C533.528 307.496 533.736 308.44 534.152 309.256C534.584 310.056 535.168 310.672 535.904 311.104C536.64 311.52 537.472 311.728 538.4 311.728C539.296 311.728 540.112 311.512 540.848 311.08C541.6 310.648 542.192 310.032 542.624 309.232C543.056 308.432 543.272 307.504 543.272 306.448ZM560.139 299.896V313H558.459V310.696C558.075 311.512 557.483 312.136 556.683 312.568C555.883 313 554.987 313.216 553.995 313.216C552.427 313.216 551.147 312.736 550.155 311.776C549.163 310.8 548.667 309.392 548.667 307.552V299.896H550.323V307.36C550.323 308.784 550.675 309.872 551.379 310.624C552.099 311.376 553.075 311.752 554.307 311.752C555.571 311.752 556.579 311.352 557.331 310.552C558.083 309.752 558.459 308.576 558.459 307.024V299.896H560.139ZM568.487 313.192C566.983 313.192 565.751 312.848 564.791 312.16C563.847 311.456 563.319 310.504 563.207 309.304H564.935C565.015 310.04 565.359 310.64 565.967 311.104C566.591 311.552 567.423 311.776 568.463 311.776C569.375 311.776 570.087 311.56 570.599 311.128C571.127 310.696 571.391 310.16 571.391 309.52C571.391 309.072 571.247 308.704 570.959 308.416C570.671 308.128 570.303 307.904 569.855 307.744C569.423 307.568 568.831 307.384 568.079 307.192C567.103 306.936 566.311 306.68 565.703 306.424C565.095 306.168 564.575 305.792 564.143 305.296C563.727 304.784 563.519 304.104 563.519 303.256C563.519 302.616 563.711 302.024 564.095 301.48C564.479 300.936 565.023 300.504 565.727 300.184C566.431 299.864 567.231 299.704 568.127 299.704C569.535 299.704 570.671 300.064 571.535 300.784C572.399 301.488 572.863 302.464 572.927 303.712H571.247C571.199 302.944 570.895 302.328 570.335 301.864C569.791 301.384 569.039 301.144 568.079 301.144C567.231 301.144 566.543 301.344 566.015 301.744C565.487 302.144 565.223 302.64 565.223 303.232C565.223 303.744 565.375 304.168 565.679 304.504C565.999 304.824 566.391 305.08 566.855 305.272C567.319 305.448 567.943 305.648 568.727 305.872C569.671 306.128 570.423 306.376 570.983 306.616C571.543 306.856 572.023 307.208 572.423 307.672C572.823 308.136 573.031 308.752 573.047 309.52C573.047 310.224 572.855 310.856 572.471 311.416C572.087 311.96 571.551 312.392 570.863 312.712C570.175 313.032 569.383 313.192 568.487 313.192ZM578.393 301.312V309.448C578.393 310.248 578.545 310.8 578.849 311.104C579.153 311.408 579.689 311.56 580.457 311.56H581.993V313H580.193C579.009 313 578.129 312.728 577.553 312.184C576.977 311.624 576.689 310.712 576.689 309.448V301.312H574.865V299.896H576.689V296.608H578.393V299.896H581.993V301.312H578.393ZM586.444 302.224C586.812 301.408 587.372 300.776 588.124 300.328C588.892 299.88 589.828 299.656 590.932 299.656V301.408H590.476C589.26 301.408 588.284 301.736 587.548 302.392C586.812 303.048 586.444 304.144 586.444 305.68V313H584.764V299.896H586.444V302.224ZM594.299 297.424C593.963 297.424 593.675 297.304 593.435 297.064C593.195 296.824 593.075 296.528 593.075 296.176C593.075 295.824 593.195 295.536 593.435 295.312C593.675 295.072 593.963 294.952 594.299 294.952C594.635 294.952 594.923 295.072 595.163 295.312C595.403 295.536 595.523 295.824 595.523 296.176C595.523 296.528 595.403 296.824 595.163 297.064C594.923 297.304 594.635 297.424 594.299 297.424ZM595.139 299.896V313H593.459V299.896H595.139ZM598.175 306.424C598.175 305.08 598.439 303.904 598.967 302.896C599.511 301.872 600.255 301.088 601.199 300.544C602.159 299.984 603.239 299.704 604.439 299.704C605.687 299.704 606.759 299.992 607.655 300.568C608.567 301.144 609.223 301.88 609.623 302.776V299.896H611.303V313H609.623V310.096C609.207 310.992 608.543 311.736 607.631 312.328C606.735 312.904 605.663 313.192 604.415 313.192C603.231 313.192 602.159 312.912 601.199 312.352C600.255 311.792 599.511 311 598.967 309.976C598.439 308.952 598.175 307.768 598.175 306.424ZM609.623 306.448C609.623 305.392 609.407 304.464 608.975 303.664C608.543 302.864 607.951 302.248 607.199 301.816C606.463 301.384 605.647 301.168 604.751 301.168C603.823 301.168 602.991 301.376 602.255 301.792C601.519 302.208 600.935 302.816 600.503 303.616C600.087 304.4 599.879 305.336 599.879 306.424C599.879 307.496 600.087 308.44 600.503 309.256C600.935 310.056 601.519 310.672 602.255 311.104C602.991 311.52 603.823 311.728 604.751 311.728C605.647 311.728 606.463 311.512 607.199 311.08C607.951 310.648 608.543 310.032 608.975 309.232C609.407 308.432 609.623 307.504 609.623 306.448ZM616.819 295.24V313H615.139V295.24H616.819ZM636.137 313L631.985 305.992H628.889V313H627.209V296.224H632.249C634.121 296.224 635.537 296.672 636.497 297.568C637.473 298.464 637.961 299.64 637.961 301.096C637.961 302.312 637.609 303.352 636.905 304.216C636.217 305.064 635.193 305.616 633.833 305.872L638.153 313H636.137ZM628.889 304.624H632.273C633.585 304.624 634.569 304.304 635.225 303.664C635.897 303.024 636.233 302.168 636.233 301.096C636.233 299.992 635.913 299.144 635.273 298.552C634.633 297.944 633.625 297.64 632.249 297.64H628.889V304.624ZM647.031 313.192C645.799 313.192 644.687 312.92 643.695 312.376C642.719 311.816 641.943 311.032 641.367 310.024C640.807 309 640.527 307.808 640.527 306.448C640.527 305.088 640.815 303.904 641.391 302.896C641.967 301.872 642.751 301.088 643.743 300.544C644.735 299.984 645.847 299.704 647.079 299.704C648.311 299.704 649.423 299.984 650.415 300.544C651.423 301.088 652.207 301.872 652.767 302.896C653.343 303.904 653.631 305.088 653.631 306.448C653.631 307.792 653.343 308.976 652.767 310C652.191 311.024 651.399 311.816 650.391 312.376C649.383 312.92 648.263 313.192 647.031 313.192ZM647.031 311.728C647.895 311.728 648.695 311.536 649.431 311.152C650.167 310.752 650.759 310.16 651.207 309.376C651.671 308.576 651.903 307.6 651.903 306.448C651.903 305.296 651.679 304.328 651.231 303.544C650.783 302.744 650.191 302.152 649.455 301.768C648.719 301.368 647.919 301.168 647.055 301.168C646.191 301.168 645.391 301.368 644.655 301.768C643.919 302.152 643.327 302.744 642.879 303.544C642.447 304.328 642.231 305.296 642.231 306.448C642.231 307.6 642.447 308.576 642.879 309.376C643.327 310.16 643.911 310.752 644.631 311.152C645.367 311.536 646.167 311.728 647.031 311.728ZM658.349 302.8C658.781 301.888 659.445 301.144 660.341 300.568C661.253 299.992 662.325 299.704 663.557 299.704C664.757 299.704 665.829 299.984 666.773 300.544C667.717 301.088 668.453 301.872 668.981 302.896C669.525 303.904 669.797 305.08 669.797 306.424C669.797 307.768 669.525 308.952 668.981 309.976C668.453 311 667.709 311.792 666.749 312.352C665.805 312.912 664.741 313.192 663.557 313.192C662.309 313.192 661.229 312.912 660.317 312.352C659.421 311.776 658.765 311.032 658.349 310.12V313H656.693V295.24H658.349V302.8ZM668.093 306.424C668.093 305.336 667.877 304.4 667.445 303.616C667.029 302.816 666.453 302.208 665.717 301.792C664.981 301.376 664.149 301.168 663.221 301.168C662.325 301.168 661.501 301.384 660.749 301.816C660.013 302.248 659.429 302.864 658.997 303.664C658.565 304.464 658.349 305.392 658.349 306.448C658.349 307.504 658.565 308.432 658.997 309.232C659.429 310.032 660.013 310.648 660.749 311.08C661.501 311.512 662.325 311.728 663.221 311.728C664.149 311.728 664.981 311.52 665.717 311.104C666.453 310.672 667.029 310.056 667.445 309.256C667.877 308.44 668.093 307.496 668.093 306.424ZM678.625 313.192C677.393 313.192 676.281 312.92 675.289 312.376C674.313 311.816 673.537 311.032 672.961 310.024C672.401 309 672.121 307.808 672.121 306.448C672.121 305.088 672.409 303.904 672.985 302.896C673.561 301.872 674.345 301.088 675.337 300.544C676.329 299.984 677.441 299.704 678.673 299.704C679.905 299.704 681.017 299.984 682.009 300.544C683.017 301.088 683.801 301.872 684.361 302.896C684.937 303.904 685.225 305.088 685.225 306.448C685.225 307.792 684.937 308.976 684.361 310C683.785 311.024 682.993 311.816 681.985 312.376C680.977 312.92 679.857 313.192 678.625 313.192ZM678.625 311.728C679.489 311.728 680.289 311.536 681.025 311.152C681.761 310.752 682.353 310.16 682.801 309.376C683.265 308.576 683.497 307.6 683.497 306.448C683.497 305.296 683.273 304.328 682.825 303.544C682.377 302.744 681.785 302.152 681.049 301.768C680.313 301.368 679.513 301.168 678.649 301.168C677.785 301.168 676.985 301.368 676.249 301.768C675.513 302.152 674.921 302.744 674.473 303.544C674.041 304.328 673.825 305.296 673.825 306.448C673.825 307.6 674.041 308.576 674.473 309.376C674.921 310.16 675.505 310.752 676.225 311.152C676.961 311.536 677.761 311.728 678.625 311.728ZM690.471 301.312V309.448C690.471 310.248 690.623 310.8 690.927 311.104C691.231 311.408 691.767 311.56 692.535 311.56H694.071V313H692.271C691.087 313 690.207 312.728 689.631 312.184C689.055 311.624 688.767 310.712 688.767 309.448V301.312H686.943V299.896H688.767V296.608H690.471V299.896H694.071V301.312H690.471ZM697.682 297.424C697.346 297.424 697.058 297.304 696.818 297.064C696.578 296.824 696.458 296.528 696.458 296.176C696.458 295.824 696.578 295.536 696.818 295.312C697.058 295.072 697.346 294.952 697.682 294.952C698.018 294.952 698.306 295.072 698.546 295.312C698.786 295.536 698.906 295.824 698.906 296.176C698.906 296.528 698.786 296.824 698.546 297.064C698.306 297.304 698.018 297.424 697.682 297.424ZM698.522 299.896V313H696.842V299.896H698.522ZM701.558 306.448C701.558 305.088 701.83 303.904 702.374 302.896C702.918 301.872 703.67 301.088 704.63 300.544C705.59 299.984 706.686 299.704 707.918 299.704C709.534 299.704 710.862 300.104 711.902 300.904C712.958 301.704 713.638 302.792 713.942 304.168H712.142C711.918 303.224 711.43 302.488 710.678 301.96C709.942 301.416 709.022 301.144 707.918 301.144C707.038 301.144 706.246 301.344 705.542 301.744C704.838 302.144 704.278 302.744 703.862 303.544C703.462 304.328 703.262 305.296 703.262 306.448C703.262 307.6 703.462 308.576 703.862 309.376C704.278 310.176 704.838 310.776 705.542 311.176C706.246 311.576 707.038 311.776 707.918 311.776C709.022 311.776 709.942 311.512 710.678 310.984C711.43 310.44 711.918 309.688 712.142 308.728H713.942C713.638 310.072 712.958 311.152 711.902 311.968C710.846 312.784 709.518 313.192 707.918 313.192C706.686 313.192 705.59 312.92 704.63 312.376C703.67 311.816 702.918 311.032 702.374 310.024C701.83 309 701.558 307.808 701.558 306.448ZM721.557 313.192C720.053 313.192 718.821 312.848 717.861 312.16C716.917 311.456 716.389 310.504 716.277 309.304H718.005C718.085 310.04 718.429 310.64 719.037 311.104C719.661 311.552 720.493 311.776 721.533 311.776C722.445 311.776 723.157 311.56 723.669 311.128C724.197 310.696 724.461 310.16 724.461 309.52C724.461 309.072 724.317 308.704 724.029 308.416C723.741 308.128 723.373 307.904 722.925 307.744C722.493 307.568 721.901 307.384 721.149 307.192C720.173 306.936 719.381 306.68 718.773 306.424C718.165 306.168 717.645 305.792 717.213 305.296C716.797 304.784 716.589 304.104 716.589 303.256C716.589 302.616 716.781 302.024 717.165 301.48C717.549 300.936 718.093 300.504 718.797 300.184C719.501 299.864 720.301 299.704 721.197 299.704C722.605 299.704 723.741 300.064 724.605 300.784C725.469 301.488 725.933 302.464 725.997 303.712H724.317C724.269 302.944 723.965 302.328 723.405 301.864C722.861 301.384 722.109 301.144 721.149 301.144C720.301 301.144 719.613 301.344 719.085 301.744C718.557 302.144 718.293 302.64 718.293 303.232C718.293 303.744 718.445 304.168 718.749 304.504C719.069 304.824 719.461 305.08 719.925 305.272C720.389 305.448 721.013 305.648 721.797 305.872C722.741 306.128 723.493 306.376 724.053 306.616C724.613 306.856 725.093 307.208 725.493 307.672C725.893 308.136 726.101 308.752 726.117 309.52C726.117 310.224 725.925 310.856 725.541 311.416C725.157 311.96 724.621 312.392 723.933 312.712C723.245 313.032 722.453 313.192 721.557 313.192ZM737.545 297.592V303.856H743.905V305.248H737.545V311.608H744.625V313H735.865V296.2H744.625V297.592H737.545ZM754.08 299.656C755.648 299.656 756.928 300.144 757.92 301.12C758.912 302.08 759.408 303.48 759.408 305.32V313H757.752V305.512C757.752 304.088 757.392 303 756.672 302.248C755.968 301.496 755 301.12 753.768 301.12C752.504 301.12 751.496 301.52 750.744 302.32C749.992 303.12 749.616 304.296 749.616 305.848V313H747.936V299.896H749.616V302.128C750.032 301.328 750.632 300.72 751.416 300.304C752.2 299.872 753.088 299.656 754.08 299.656ZM768.619 299.704C769.851 299.704 770.923 299.992 771.835 300.568C772.747 301.144 773.403 301.872 773.803 302.752V299.896H775.483V313.336C775.483 314.536 775.219 315.6 774.691 316.528C774.179 317.456 773.459 318.168 772.531 318.664C771.603 319.176 770.547 319.432 769.363 319.432C767.683 319.432 766.283 319.032 765.163 318.232C764.059 317.432 763.371 316.344 763.099 314.968H764.755C765.043 315.88 765.587 316.608 766.387 317.152C767.203 317.696 768.195 317.968 769.363 317.968C770.211 317.968 770.971 317.784 771.643 317.416C772.315 317.064 772.843 316.536 773.227 315.832C773.611 315.128 773.803 314.296 773.803 313.336V310.096C773.387 310.992 772.723 311.736 771.811 312.328C770.915 312.904 769.851 313.192 768.619 313.192C767.419 313.192 766.339 312.912 765.379 312.352C764.435 311.792 763.691 311 763.147 309.976C762.619 308.952 762.355 307.768 762.355 306.424C762.355 305.08 762.619 303.904 763.147 302.896C763.691 301.872 764.435 301.088 765.379 300.544C766.339 299.984 767.419 299.704 768.619 299.704ZM773.803 306.448C773.803 305.392 773.587 304.464 773.155 303.664C772.723 302.864 772.131 302.248 771.379 301.816C770.643 301.384 769.827 301.168 768.931 301.168C768.003 301.168 767.171 301.376 766.435 301.792C765.699 302.208 765.115 302.816 764.683 303.616C764.267 304.4 764.059 305.336 764.059 306.424C764.059 307.496 764.267 308.44 764.683 309.256C765.115 310.056 765.699 310.672 766.435 311.104C767.171 311.52 768.003 311.728 768.931 311.728C769.827 311.728 770.643 311.512 771.379 311.08C772.131 310.648 772.723 310.032 773.155 309.232C773.587 308.432 773.803 307.504 773.803 306.448ZM791.174 305.776C791.174 306.352 791.158 306.792 791.126 307.096H780.254C780.302 308.088 780.542 308.936 780.974 309.64C781.406 310.344 781.974 310.88 782.678 311.248C783.382 311.6 784.15 311.776 784.982 311.776C786.07 311.776 786.982 311.512 787.718 310.984C788.47 310.456 788.966 309.744 789.206 308.848H790.982C790.662 310.128 789.974 311.176 788.918 311.992C787.878 312.792 786.566 313.192 784.982 313.192C783.75 313.192 782.646 312.92 781.67 312.376C780.694 311.816 779.926 311.032 779.366 310.024C778.822 309 778.55 307.808 778.55 306.448C778.55 305.088 778.822 303.896 779.366 302.872C779.91 301.848 780.67 301.064 781.646 300.52C782.622 299.976 783.734 299.704 784.982 299.704C786.23 299.704 787.318 299.976 788.246 300.52C789.19 301.064 789.91 301.8 790.406 302.728C790.918 303.64 791.174 304.656 791.174 305.776ZM789.47 305.728C789.486 304.752 789.286 303.92 788.87 303.232C788.47 302.544 787.918 302.024 787.214 301.672C786.51 301.32 785.742 301.144 784.91 301.144C783.662 301.144 782.598 301.544 781.718 302.344C780.838 303.144 780.35 304.272 780.254 305.728H789.47ZM806.104 305.776C806.104 306.352 806.088 306.792 806.056 307.096H795.184C795.232 308.088 795.472 308.936 795.904 309.64C796.336 310.344 796.904 310.88 797.608 311.248C798.312 311.6 799.08 311.776 799.912 311.776C801 311.776 801.912 311.512 802.648 310.984C803.4 310.456 803.896 309.744 804.136 308.848H805.912C805.592 310.128 804.904 311.176 803.848 311.992C802.808 312.792 801.496 313.192 799.912 313.192C798.68 313.192 797.576 312.92 796.6 312.376C795.624 311.816 794.856 311.032 794.296 310.024C793.752 309 793.48 307.808 793.48 306.448C793.48 305.088 793.752 303.896 794.296 302.872C794.84 301.848 795.6 301.064 796.576 300.52C797.552 299.976 798.664 299.704 799.912 299.704C801.16 299.704 802.248 299.976 803.176 300.52C804.12 301.064 804.84 301.8 805.336 302.728C805.848 303.64 806.104 304.656 806.104 305.776ZM804.4 305.728C804.416 304.752 804.216 303.92 803.8 303.232C803.4 302.544 802.848 302.024 802.144 301.672C801.44 301.32 800.672 301.144 799.84 301.144C798.592 301.144 797.528 301.544 796.648 302.344C795.768 303.144 795.28 304.272 795.184 305.728H804.4ZM815.322 299.656C816.89 299.656 818.17 300.144 819.162 301.12C820.154 302.08 820.65 303.48 820.65 305.32V313H818.994V305.512C818.994 304.088 818.634 303 817.914 302.248C817.21 301.496 816.242 301.12 815.01 301.12C813.746 301.12 812.738 301.52 811.986 302.32C811.234 303.12 810.858 304.296 810.858 305.848V313H809.178V299.896H810.858V302.128C811.274 301.328 811.874 300.72 812.658 300.304C813.442 299.872 814.33 299.656 815.322 299.656ZM825.205 297.424C824.869 297.424 824.581 297.304 824.341 297.064C824.101 296.824 823.981 296.528 823.981 296.176C823.981 295.824 824.101 295.536 824.341 295.312C824.581 295.072 824.869 294.952 825.205 294.952C825.541 294.952 825.829 295.072 826.069 295.312C826.309 295.536 826.429 295.824 826.429 296.176C826.429 296.528 826.309 296.824 826.069 297.064C825.829 297.304 825.541 297.424 825.205 297.424ZM826.045 299.896V313H824.365V299.896H826.045ZM841.706 305.776C841.706 306.352 841.69 306.792 841.658 307.096H830.786C830.834 308.088 831.074 308.936 831.506 309.64C831.938 310.344 832.506 310.88 833.21 311.248C833.914 311.6 834.682 311.776 835.514 311.776C836.602 311.776 837.514 311.512 838.25 310.984C839.002 310.456 839.498 309.744 839.738 308.848H841.514C841.194 310.128 840.506 311.176 839.45 311.992C838.41 312.792 837.098 313.192 835.514 313.192C834.282 313.192 833.178 312.92 832.202 312.376C831.226 311.816 830.458 311.032 829.898 310.024C829.354 309 829.082 307.808 829.082 306.448C829.082 305.088 829.354 303.896 829.898 302.872C830.442 301.848 831.202 301.064 832.178 300.52C833.154 299.976 834.266 299.704 835.514 299.704C836.762 299.704 837.85 299.976 838.778 300.52C839.722 301.064 840.442 301.8 840.938 302.728C841.45 303.64 841.706 304.656 841.706 305.776ZM840.002 305.728C840.018 304.752 839.818 303.92 839.402 303.232C839.002 302.544 838.45 302.024 837.746 301.672C837.042 301.32 836.274 301.144 835.442 301.144C834.194 301.144 833.13 301.544 832.25 302.344C831.37 303.144 830.882 304.272 830.786 305.728H840.002ZM846.459 302.224C846.827 301.408 847.387 300.776 848.139 300.328C848.907 299.88 849.843 299.656 850.947 299.656V301.408H850.491C849.275 301.408 848.299 301.736 847.563 302.392C846.827 303.048 846.459 304.144 846.459 305.68V313H844.779V299.896H846.459V302.224Z" fill="#383E45"/>
<defs>
<linearGradient id="paint0_linear" x1="449.117" y1="514.786" x2="449.117" y2="514.5" gradientUnits="userSpaceOnUse">
<stop stop-color="#808080" stop-opacity="0.25"/>
<stop offset="0.53514" stop-color="#808080" stop-opacity="0.12"/>
<stop offset="1" stop-color="#808080" stop-opacity="0.1"/>
</linearGradient>
<clipPath id="clip0">
<rect width="1010.6" height="546.834" fill="white"/>
</clipPath>
</defs>
</svg>
