<svg width="343" height="258" viewBox="0 0 343 258" fill="none" xmlns="http://www.w3.org/2000/svg">
<g clip-path="url(#clip0)">
<path d="M115.598 104.936C115.598 104.936 116.775 111.178 115.951 111.649C115.285 112.067 114.655 112.54 114.067 113.062L116.187 116.006L121.25 117.066L126.079 112.591V108.116C126.079 108.116 124.666 105.878 124.901 104.465C125.137 103.052 115.598 104.936 115.598 104.936Z" fill="#DEAA87"/>
<path d="M107.472 115.653L106.766 116.006C106.766 116.006 105.235 116.595 104.528 121.659C103.821 126.723 102.173 138.852 102.644 139.205C103.115 139.559 102.879 141.914 102.879 141.914L106.412 123.425L107.472 115.653Z" fill="#2F2E41"/>
<path d="M115.715 236.242L113.242 234.947L113.831 229.176H118.071L120.544 234.593L115.715 236.242Z" fill="#FBBEBE"/>
<path d="M115.833 233.769C115.833 233.769 111.947 231.414 111.241 232.238C110.534 233.063 104.881 239.068 104.881 239.068C104.881 239.068 96.167 243.779 102.879 244.486C109.592 245.192 120.544 240.364 120.544 240.364C120.544 240.364 121.133 234.005 120.662 233.887C120.191 233.769 118.189 234.947 117.246 234.594C116.726 234.413 116.246 234.133 115.833 233.769Z" fill="black"/>
<path d="M124.43 239.775L118.071 238.362L119.484 233.416L124.43 234.947V239.775Z" fill="#FBBEBE"/>
<path d="M117.953 236.595C117.953 236.595 124.43 235.535 125.019 238.715C125.608 241.895 127.139 246.605 125.608 247.783C124.077 248.961 116.187 250.491 116.069 248.489C115.951 246.487 116.893 242.601 116.893 242.601C116.893 242.601 117.482 239.539 117.129 238.715C116.775 237.891 117.953 236.595 117.953 236.595Z" fill="black"/>
<path d="M105.016 157.075C105.016 157.075 99.6999 190.786 104.057 207.272C108.414 223.759 111.476 233.534 111.476 233.534C111.476 233.534 119.683 235.595 119.683 234.182C119.683 232.769 116.069 207.626 115.362 205.624C114.656 203.622 113.478 202.915 114.538 201.267C115.598 199.618 117.364 189.019 117.364 189.019C117.364 189.019 121.25 206.566 121.486 207.037C121.722 207.508 118.442 236.653 118.442 236.653C118.442 236.653 126.265 240.117 126.735 235.889C126.853 234.829 132.556 197.263 132.556 196.792C132.556 196.321 134.676 160.285 131.26 158.519C127.845 156.752 105.016 157.075 105.016 157.075Z" fill="#162D50"/>
<path d="M118.424 115.182V114.357L116.069 110.471C116.069 110.471 113.713 110.707 113.36 111.766C113.007 112.826 109.003 121.305 109.003 121.305L104.764 159.343C104.764 159.343 116.422 162.169 118.188 160.167C119.955 158.165 126.668 114.593 126.668 114.593L127.61 109.293C127.61 109.293 125.992 106.938 125.623 107.291C125.254 107.645 119.131 114.475 119.131 114.475L119.013 115.535L118.424 115.182Z" fill="#162D50"/>
<path d="M116.01 109.706C116.01 109.706 113.831 109.176 113.125 110.471C112.418 111.767 112.418 112.238 111.712 112.709C111.005 113.18 106.883 115.299 106.648 116.124C106.412 116.948 101.349 142.974 101.349 142.974C101.349 142.974 98.8755 150.746 100.053 156.045C101.231 161.345 100.406 162.405 102.879 162.876C105.352 163.347 105.706 163.347 105.706 162.64C105.706 161.934 108.885 138.028 111.123 136.379C113.36 134.73 112.772 116.713 112.772 116.713C112.772 116.713 115.951 112.826 115.951 112.238C115.951 111.649 116.481 109.662 116.01 109.706Z" fill="#0044AA"/>
<path d="M122.664 114.004C122.992 114.059 127.492 108.234 127.845 108.469C128.198 108.705 129.965 111.766 130.2 111.766C130.436 111.766 140.446 114.239 141.27 118.832C142.094 123.425 135.5 138.028 135.5 138.028C135.5 138.028 132.673 146.389 133.262 150.039C133.662 152.82 133.582 155.647 133.027 158.401C132.791 159.343 131.967 160.403 132.202 160.874C132.438 161.345 127.021 160.285 124.783 161.58C122.546 162.876 112.536 163.818 113.125 162.405C113.714 160.991 114.067 155.457 115.716 149.568C117.364 143.68 121.604 129.784 120.897 128.842C120.191 127.9 121.957 113.886 122.664 114.004Z" fill="#0044AA"/>
<path d="M139.857 117.419L141.388 118.832C141.388 118.832 143.154 121.894 142.919 123.307C142.683 124.72 147.865 146.036 145.745 146.742C143.625 147.449 138.562 150.982 137.973 151.924C137.384 152.866 135.971 154.515 135.029 154.986C134.087 155.457 133.144 156.281 132.556 155.81C131.967 155.339 130.672 145.682 131.614 145.329C132.556 144.976 133.498 143.916 134.44 143.916C135.382 143.916 135.971 142.974 135.971 142.149C135.971 141.325 135.264 136.379 135.264 136.379L133.733 124.72L139.857 117.419Z" fill="#162D50"/>
<path d="M121.143 87.0825C124.203 87.0827 126.631 90.9808 126.666 95.8117L126.674 96.9296C126.683 96.9292 126.692 96.9292 126.7 96.9296C126.794 96.9296 126.886 96.9741 126.972 97.0608C127.058 97.1475 127.136 97.2745 127.202 97.4347C127.268 97.5949 127.32 97.785 127.356 97.9943C127.392 98.2036 127.41 98.428 127.41 98.6545C127.41 98.8811 127.392 99.1054 127.356 99.3147C127.32 99.524 127.268 99.7142 127.202 99.8744C127.136 100.035 127.058 100.162 126.972 100.248C126.886 100.335 126.794 100.379 126.7 100.379C126.728 105.202 123.981 109.148 120.925 109.148H118.726C115.775 109.148 113.019 104.578 112.825 99.9194C112.792 99.9309 112.758 99.9367 112.725 99.9368C112.631 99.9368 112.539 99.8922 112.453 99.8055C112.367 99.7189 112.289 99.5918 112.223 99.4316C112.157 99.2715 112.105 99.0813 112.069 98.872C112.033 98.6627 112.015 98.4384 112.015 98.2118C112.015 97.9853 112.033 97.7609 112.069 97.5517C112.105 97.3424 112.157 97.1522 112.223 96.992C112.289 96.8318 112.367 96.7048 112.453 96.6181C112.539 96.5314 112.631 96.4869 112.725 96.4869C112.754 96.4869 112.783 96.4911 112.811 96.4997L112.811 95.813C112.806 90.9818 115.275 87.0838 118.335 87.0838H121.144L121.143 87.0825Z" fill="#DEAA87"/>
<path opacity="0.6" d="M112.641 98.329C112.556 98.321 112.511 98.0349 112.539 97.6901C112.567 97.3452 112.659 97.0723 112.743 97.0803C112.828 97.0884 112.874 97.3745 112.845 97.7193C112.817 98.0641 112.726 98.3371 112.641 98.329Z" fill="black"/>
<path opacity="0.6" d="M126.865 98.9037C126.949 98.8957 126.995 98.6096 126.967 98.2648C126.938 97.92 126.847 97.647 126.762 97.6551C126.678 97.6631 126.632 97.9492 126.66 98.294C126.688 98.6388 126.78 98.9118 126.865 98.9037Z" fill="black"/>
<path d="M119.67 86.313C123.523 86.313 126.432 89.8971 126.66 94.3338L126.758 96.2416C126.708 97.4943 126.764 97.48 126.764 98.5465C126.764 99.6131 126.764 99.6362 126.744 100.582L126.559 102.129C126.45 103.043 126.031 104.633 125.478 105.678C125.01 106.562 124.369 107.357 123.49 108.146C122.274 109.117 121.923 109.318 120.862 109.294L118.68 109.246C117.933 109.203 116.491 108.524 115.654 107.489C114.772 106.402 115.066 106.778 114.576 106.019C113.871 104.929 112.716 102.79 112.716 100.904V100.778C112.74 99.5129 112.732 99.5147 112.732 98.4849C112.732 97.4551 112.732 97.4549 112.716 96.5549V94.3336C112.716 89.8901 115.818 86.3127 119.67 86.3127L119.67 86.313ZM120.796 91.1657L118.554 91.293L115.722 91.2399L114.765 92.0685L114.621 93.3926L114.293 94.726L113.372 95.6963L113.148 97.0779L113.179 101.367L113.42 102.831L114.166 104.392L115.407 106.413L116.607 107.751L117.848 108.505L118.717 108.573C119.002 108.461 119.62 106.99 119.638 106.343L119.923 106.334C120.033 106.714 120.041 108.19 120.513 108.571L121.804 108.527L122.77 107.782L124.424 106.402L125.037 105.419L125.628 104.074L126.036 102.761L126.304 101.208L126.263 96.9242L125.699 95.1726L125.079 94.2812C125.004 93.7783 125.028 93.4418 125.016 93.0669C125.009 92.832 125 92.3118 124.916 92.0753C124.844 91.8753 124.657 91.8586 124.657 91.8586C124.444 91.7671 124.5 91.6571 124.275 91.5744C124.147 91.5278 124.02 91.4867 123.893 91.4505C122.974 91.1897 122.03 91.1816 120.796 91.1655L120.796 91.1657Z" fill="#333333"/>
<path d="M121.981 99.3491C121.697 99.3491 121.467 99.0916 121.467 98.7739C121.467 98.4562 121.697 98.1987 121.981 98.1987C122.264 98.1987 122.494 98.4562 122.494 98.7739C122.494 99.0916 122.264 99.3491 121.981 99.3491Z" fill="black"/>
<path d="M117.856 99.2827C117.572 99.2827 117.342 99.0252 117.342 98.7075C117.342 98.3898 117.572 98.1323 117.856 98.1323C118.139 98.1323 118.369 98.3898 118.369 98.7075C118.369 99.0252 118.139 99.2827 117.856 99.2827Z" fill="black"/>
<path d="M119.156 102.733H120.796C120.836 102.733 120.868 102.765 120.868 102.805V102.917C120.868 102.957 120.836 102.989 120.796 102.989H119.156C119.116 102.989 119.084 102.957 119.084 102.917V102.805C119.084 102.765 119.116 102.733 119.156 102.733Z" fill="black"/>
<path d="M120.601 96.6987H123.029C123.113 96.6987 123.181 96.7668 123.181 96.8508V97.0875C123.181 97.1715 123.113 97.2395 123.029 97.2395H120.601C120.517 97.2395 120.448 97.1715 120.448 97.0875V96.8508C120.448 96.7668 120.517 96.6987 120.601 96.6987Z" fill="black"/>
<path d="M116.676 96.6331H119.097C119.183 96.6331 119.253 96.703 119.253 96.7893V97.0326C119.253 97.1189 119.183 97.1889 119.097 97.1889H116.676C116.59 97.1889 116.52 97.1189 116.52 97.0326V96.7893C116.52 96.703 116.59 96.6331 116.676 96.6331Z" fill="black"/>
<path d="M122.414 104.172C122.413 104.713 122.155 105.231 121.696 105.613C121.237 105.995 120.616 106.209 119.967 106.209C119.319 106.209 118.697 105.995 118.238 105.613C117.779 105.231 117.521 104.713 117.52 104.172H122.414Z" fill="#F2F2F2"/>
<path d="M122.245 104.226C122.244 104.705 122.001 105.163 121.569 105.501C121.136 105.839 120.55 106.029 119.939 106.029C119.328 106.029 118.742 105.839 118.31 105.501C117.878 105.163 117.634 104.705 117.633 104.226H122.245Z" fill="white"/>
<path d="M122.206 103.91C122.185 103.898 122.2 103.846 122.206 103.839C122.312 103.701 122.527 103.765 122.683 103.899C122.861 104.05 122.825 104.276 122.733 104.464C122.726 104.477 122.61 104.652 122.572 104.575C122.555 104.539 122.647 104.273 122.649 104.252C122.664 104.076 122.675 104.151 122.604 103.992C122.475 103.9 122.403 103.888 122.264 103.91L122.206 103.91Z" fill="#808080"/>
<path d="M117.674 103.958C117.695 103.947 117.692 103.897 117.686 103.89C117.579 103.752 117.376 103.795 117.219 103.929C117.042 104.081 117.039 104.272 117.132 104.46C117.138 104.473 117.235 104.533 117.247 104.524C117.277 104.5 117.222 104.354 117.218 104.333C117.185 104.155 117.185 104.157 117.318 104.043C117.439 103.94 117.478 103.943 117.617 103.964L117.674 103.958Z" fill="#808080"/>
<path d="M121.471 85.5522L121.471 85.5524C124.423 85.5525 126.832 88.8817 127.362 93.2898H112.517C113.025 88.8813 115.467 85.5522 118.419 85.5522H121.471Z" fill="#0044AA"/>
<path d="M119.258 84.4585H120.514C120.834 84.4585 121.093 84.7177 121.093 85.0375V85.8164C121.093 86.1362 120.834 86.3955 120.514 86.3955H119.258C118.938 86.3955 118.679 86.1362 118.679 85.8164V85.0375C118.679 84.7177 118.938 84.4585 119.258 84.4585Z" fill="#0044AA"/>
<path d="M115.295 85.4653H116.197C116.461 85.4653 116.676 85.6799 116.676 85.9445V88.3846C116.676 88.6493 116.461 88.8638 116.197 88.8638H115.295C115.03 88.8638 114.816 88.6493 114.816 88.3846V85.9445C114.816 85.6799 115.03 85.4653 115.295 85.4653Z" fill="#0044AA"/>
<path d="M123.527 85.4258H124.652C124.855 85.4258 125.02 85.5904 125.02 85.7936V88.4565C125.02 88.6596 124.855 88.8243 124.652 88.8243H123.527C123.324 88.8243 123.159 88.6596 123.159 88.4565V85.7936C123.159 85.5904 123.324 85.4258 123.527 85.4258Z" fill="#0044AA"/>
<path opacity="0.61" d="M127.467 93.242L123.972 91.5132H116.223L112.601 93.2633L127.467 93.242Z" fill="#002255"/>
<path opacity="0.65" d="M113.12 96.2683L114.465 97.0596H114.47C114.801 96.9009 115.316 96.8716 115.899 96.872C116.233 96.8724 116.589 96.8823 116.944 96.8823C117.881 96.8823 118.661 97.0883 119.084 97.4908C119.084 97.4908 119.436 97.7 119.629 97.7464C119.724 97.7695 119.825 97.7705 119.921 97.7556C120.118 97.7249 120.49 97.5565 120.49 97.5565C121.126 97.1224 121.918 96.9174 122.661 96.9107C123.016 96.9107 123.372 96.901 123.707 96.9005C124.278 96.9001 124.785 96.9276 125.116 97.0783L126.258 96.9105L126.266 97.1172L125.515 97.6899C125.501 98.6002 124.577 99.6925 123.207 100.06C122.666 100.205 121.926 100.116 121.5 100.02C121.063 99.9216 120.736 99.5914 120.498 99.2861C120.41 99.1729 120.322 98.948 120.261 98.7316C120.205 98.5363 120.105 98.4226 119.97 98.3498C119.871 98.2957 119.739 98.2848 119.638 98.3364C119.511 98.4017 119.443 98.5076 119.375 98.7032C119.32 98.857 119.171 99.1758 119.107 99.258C118.869 99.5632 118.542 99.8935 118.106 99.9919C117.68 100.088 116.939 100.177 116.398 100.032C115.268 99.7286 114.441 98.9317 114.178 98.1509L113.125 96.6954L113.12 96.2683Z" fill="white"/>
<path opacity="0.999" d="M129.183 110.516L130.239 111.765L131.872 112.107L129.157 126.665L126.2 161.063L124.031 161.946L122.741 162.28L125.99 127.199L129.183 110.516Z" fill="#B3B3B3"/>
<path opacity="0.999" d="M109.576 113.927L110.419 113.468L112.182 112.182L108.34 127.731L103.613 162.991L102.843 162.9L101.938 162.609L106.346 127.711L109.576 113.927Z" fill="#B3B3B3"/>
<path opacity="0.5" d="M260.481 257.17C260.481 257.17 261.822 254.472 263.981 254.396L278.005 253.491C278.005 253.491 277.778 255.581 275.281 256.377L260.481 257.17Z" fill="#F2F2F2"/>
<path d="M28.591 141.424H31.7529C32.6116 141.424 33.303 142.115 33.303 142.974V145.788C33.303 146.647 32.6116 147.338 31.7529 147.338H28.591C27.7323 147.338 27.0409 146.647 27.0409 145.788V142.974C27.0409 142.115 27.7323 141.424 28.591 141.424Z" fill="#666666"/>
<path d="M31.118 138.497H39.8328V149.258H31.118V138.497Z" fill="#373E48"/>
<path d="M161.038 63.4821L161.384 63.8468C161.975 64.4715 161.962 65.4638 161.354 66.0716L159.16 68.2637C158.552 68.8715 157.586 68.8576 156.995 68.2329L156.649 67.8682C156.057 67.2435 156.07 66.2516 156.678 65.6437L158.872 63.4517C159.48 62.8439 160.446 62.8574 161.038 63.4821Z" fill="#808080"/>
<path d="M155.671 56.1021L161.03 61.7591C161.888 62.665 161.869 64.1036 160.987 64.985L157.807 68.1629C156.925 69.0443 155.525 69.0242 154.666 68.1184L149.307 62.4614C148.449 61.5556 148.468 60.1173 149.35 59.2359L152.531 56.058C153.413 55.1766 154.813 55.1963 155.671 56.1021Z" fill="#333333"/>
<path opacity="0.95" d="M77.8477 152.637V157.122L84.9214 184.811L77.8806 184.644V185.645L34.648 185.825V184.839L28.843 184.828L34.648 161.27V152.637L77.8477 152.637Z" fill="#0B2228"/>
<path opacity="0.4" d="M57.2346 155.795V184.683H62.7107L59.368 155.755L57.2346 155.795Z" fill="black"/>
<path opacity="0.4" d="M36.5783 154.846H37.8545V185.224H28.5276L36.5783 154.846Z" fill="black" stroke="black" stroke-width="0.120195"/>
<path opacity="0.4" d="M76.128 155.307H74.8518V185.907H84.1788L76.128 155.307Z" fill="black" stroke="black" stroke-width="0.12063"/>
<path d="M79.1912 154.795V156.413H78.0911L84.8073 183.705H85.9828V185.931H26.6985V183.705H27.91L34.6272 156.413H33.5675V154.795H79.1912ZM76.6208 156.413H56.2695V183.705H83.3381L76.6208 156.413ZM54.0365 156.413H36.0965L29.3792 183.705H50.7012L54.0365 156.413Z" fill="#4D4D4D"/>
<path d="M86.9971 112.718H26.512L40.1841 152.957L72.0891 152.841L86.9971 112.718Z" fill="#FF7F2A"/>
<path d="M46.252 87.9624H15.6784C12.8371 87.9624 10.5503 93.1678 10.5503 99.6337V107.364C10.5503 113.83 12.8371 119.036 15.6784 119.036H46.252C49.0933 119.036 51.3801 113.83 51.3801 107.364V99.6337C51.3801 93.1678 49.0933 87.9624 46.252 87.9624Z" fill="#373E48"/>
<path d="M23.6467 29.0789L38.6916 22.6938C38.6916 22.6938 74.848 50.0969 89.1433 64.3509C98.705 73.8864 89.6207 103.899 89.6207 103.899L77.9503 132.624L23.6467 29.0789Z" fill="#FF7F2A"/>
<path d="M58.601 109.401C58.601 111.95 59.0701 114.474 59.9822 116.829C60.8942 119.184 62.2306 121.324 63.9158 123.127C65.601 124.929 67.6016 126.359 69.8035 127.334C72.0053 128.31 74.3656 128.812 76.7488 128.812C81.562 128.811 86.1785 126.766 89.5819 123.126C92.9853 119.486 94.8967 114.549 94.8967 109.401C94.8967 104.253 92.9853 99.3163 89.5819 95.6762C86.1785 92.036 81.562 89.991 76.7488 89.991C74.3656 89.9909 72.0053 90.493 69.8035 91.4684C67.6016 92.4438 65.601 93.8736 63.9158 95.676C62.2306 97.4784 60.8942 99.6182 59.9822 101.973C59.0701 104.328 58.601 106.852 58.601 109.401Z" fill="#373E48"/>
<path d="M147.214 45.146L152.039 50.2302L143.577 58.7009L138.752 53.6166L147.214 45.146Z" fill="#FF7F2A"/>
<path d="M153.976 48.0942L156.556 50.8127L143.965 63.4161L141.385 60.6977L153.976 48.0942Z" fill="#FF7F2A"/>
<path d="M155.321 51.7556L157.9 54.4741L147.519 64.8657L144.94 62.1472L155.321 51.7556Z" fill="#1C2224"/>
<path d="M31.7031 0.207377C28.1126 -0.706291 24.5062 1.52718 23.6163 5.21478L20.752 17.0873C19.8625 20.7749 22.0372 24.4793 25.6276 25.393L43.4955 29.9398C46.2495 30.6406 49.0116 29.4887 50.5511 27.2506L56.2617 28.7036L60.1592 12.5502L54.6386 11.1457C54.5343 8.16628 52.5357 5.50853 49.5709 4.75417L31.7031 0.207377Z" fill="#FF7F2A"/>
<path d="M138.754 28.9385C136.631 28.3699 134.398 28.3979 132.286 29.0195C130.174 29.641 128.26 30.8336 126.742 32.4736L58.1881 14.1111L55.2092 25.8451L123.653 44.1782C124.166 46.4216 125.262 48.4769 126.823 50.1237C128.383 51.7704 130.35 52.9465 132.512 53.5256C134.075 53.9444 135.703 54.0411 137.305 53.8103C138.906 53.5794 140.449 53.0254 141.844 52.18C143.24 51.3346 144.461 50.2143 145.438 48.883C146.415 47.5517 147.129 46.0356 147.539 44.4212C147.949 42.8067 148.047 41.1256 147.827 39.4738C147.608 37.8219 147.075 36.2317 146.259 34.794C145.444 33.3563 144.36 32.0992 143.073 31.0945C141.785 30.0898 140.318 29.3572 138.754 28.9385Z" fill="#FF7F2A"/>
<path d="M127.524 36.2507C126.252 38.5255 125.906 41.2212 126.56 43.7452C127.214 46.2692 128.815 48.4144 131.011 49.7092C132.098 50.3503 133.299 50.7634 134.544 50.9246C135.79 51.0859 137.056 50.9918 138.27 50.6487C139.484 50.3055 140.622 49.7197 141.62 48.9244C142.618 48.1291 143.455 47.1399 144.085 46.0136C144.714 44.8872 145.123 43.6456 145.289 42.3597C145.454 41.0737 145.373 39.7683 145.049 38.5185C144.725 37.2687 144.165 36.0989 143.401 35.0755C142.638 34.0522 141.685 33.1957 140.598 32.5546C138.401 31.26 135.79 30.9225 133.338 31.6156C130.886 32.3086 128.795 33.9759 127.524 36.2507Z" fill="#373E48"/>
<path d="M17.7536 26.8606C17.7536 30.6928 19.2657 34.368 21.9577 37.0778C24.6497 39.7876 28.3008 41.31 32.1079 41.31C33.993 41.31 35.8593 40.9363 37.6009 40.2102C39.3425 39.484 40.9251 38.4197 42.258 37.0779C43.591 35.7362 44.6481 34.1433 45.3695 32.3902C46.0909 30.6371 46.4622 28.7581 46.4622 26.8606C46.4622 24.963 46.0909 23.0841 45.3695 21.331C44.6481 19.5779 43.591 17.985 42.258 16.6432C40.9251 15.3015 39.3425 14.2371 37.6009 13.511C35.8593 12.7848 33.993 12.4111 32.1079 12.4111C28.3008 12.4112 24.6497 13.9336 21.9577 16.6433C19.2657 19.3531 17.7536 23.0284 17.7536 26.8606Z" fill="#373E48"/>
<path opacity="0.1" d="M23.5842 4.72095L40.9598 6.43194L50.1223 9.37983L54.4485 9.64688C54.4485 9.64688 53.8755 7.95187 53.3462 7.24966C52.6875 6.37599 50.8564 5.11119 50.8564 5.11119L31.0865 8.69756e-10C31.0865 8.69756e-10 28.7676 -0.000334238 27.713 0.413422C26.6554 0.82829 24.9495 2.40964 24.9495 2.40964L23.5842 4.72095Z" fill="#1A1A1A"/>
<path opacity="0.5" d="M197.724 173.473C197.724 173.473 199.154 170.597 201.456 170.516L216.404 169.573C216.404 169.573 216.162 171.8 213.5 172.649L197.724 173.473Z" fill="#ECECEC"/>
<path opacity="0.25" d="M27.173 142.281L28.1906 141.487L31.0894 141.421L31.1353 138.522L35.2412 138.475L28.5122 119.079L18.4847 117.342L51.5879 104.406L50.9287 112.668L59.0556 112.82C59.0556 112.82 55.9435 116.176 52.9818 118.088C51.9049 118.783 49.6032 120.357 45.1204 120.478C40.2239 120.61 31.4046 119.398 31.822 122.063C33.0536 129.925 36.0732 140.605 36.0732 140.605L32.7858 143.362L31.0266 143.394L27.1113 144.097L27.173 142.281Z" fill="#1A1A1A"/>
<path d="M27.2657 144.153C27.2657 144.153 14.9654 144.809 10.9021 138.01C7.80797 132.833 6.10914 125.617 8.49494 120.078C11.7141 112.604 28.3091 105.814 28.3091 105.814L55.5241 96.1135C62.3556 93.3893 69.7568 89.8212 66.8803 82.4707C57.1227 66.0802 42.7793 56.7402 44.9351 47.8816C46.0909 44.2022 53.8749 43.8179 56.6433 39.4732C61.9498 31.1443 60.3378 23.1033 66.5718 23.18C95.8473 28.3988 113.591 32.8556 119.476 40.2673C124.644 46.7735 121.833 59.3097 131.046 66.523C135.345 69.8881 141.358 70.6382 145.89 69.3943C149.28 68.4637 152.453 65.5686 152.453 65.5686" stroke="#373E48" stroke-width="2.69614"/>
<path opacity="0.25" d="M45.536 32.2013C45.536 32.2013 76.3024 55.1099 84.7828 71.5573C87.9578 77.715 86.9821 89.2498 87.1511 93.2554C87.1837 94.0173 88.9513 95.9415 88.9513 95.9415L88.1293 100.982L90.6067 111.159L88.1001 119.475L77.1622 125.558L78.7478 128.615C78.7478 128.615 77.6222 129.186 77.8651 131.296C78.1239 133.548 75.9516 135.476 74.4318 137.892C69.7484 145.339 67.5642 152.898 67.5642 152.898L72.1541 152.939L81.2201 128.184L84.8661 126.748C84.8661 126.748 88.25 124.654 89.5876 123.214C91.081 121.605 92.2608 119.679 93.1322 117.665C94.0333 115.583 94.5965 113.392 94.8049 111.068C94.9747 109.183 94.9019 107.13 94.4916 105.284C94.0731 103.407 92.5695 99.8438 92.5695 99.8438L91.2055 97.7711C91.2055 97.7711 92.3616 91.7712 92.7725 88.7454C93.0707 86.549 93.3384 84.3424 93.4234 82.1275C93.5178 79.6648 93.5069 77.1882 93.2643 74.7356C93.1322 73.386 92.5552 70.7294 92.5552 70.7294C92.5552 70.7294 91.6294 67.3816 90.473 66.0076C86.2064 60.9373 76.4189 52.6441 76.4189 52.6441L47.6533 29.5488L46.1785 29.9893L45.536 32.2013Z" fill="#333333"/>
<path opacity="0.5" d="M46.052 30.058L48.0226 29.4575C48.0226 29.4575 48.9822 28.8789 49.4176 28.5291C50.2974 27.8225 50.6064 27.24 50.6064 27.24L56.155 28.6689L56.7597 26.4116L46.2262 24.6853L42.8148 31.4552L31.6312 37.6442L26.3687 40.0129L30.0092 41.1612L31.0106 43.1109C31.0106 43.1109 36.9375 42.5939 39.4223 41.138C41.0717 40.1715 43.3287 38.6278 44.4654 36.6979C45.2451 35.3739 45.4519 32.1949 45.4519 32.1949L46.052 30.058Z" fill="#333333"/>
<path opacity="0.25" d="M138.759 53.6516L141.602 52.4973L147.638 54.3685L144.12 58.9434L144.211 63.3079L141.56 60.7475L143.515 58.6166L138.759 53.6516Z" fill="#1A1A1A"/>
<path opacity="0.997" d="M149.02 65.1093L149.714 64.4505C150.242 63.9497 151.07 63.9713 151.571 64.4993L153.316 66.3374C153.817 66.8652 153.795 67.6933 153.267 68.1942L152.573 68.853C152.045 69.3538 151.217 69.3322 150.716 68.8042L148.972 66.9661C148.471 66.4383 148.492 65.6102 149.02 65.1093H149.02Z" fill="#666666"/>
<path opacity="0.997" d="M68.8204 25.4858L69.8253 21.3776C70.0728 20.366 71.0863 19.7509 72.0979 19.9983L110.038 29.2785C111.05 29.5259 111.665 30.5395 111.417 31.5511L110.413 35.6593C110.165 36.6708 109.152 37.286 108.14 37.0386L70.1998 27.7584C69.1882 27.511 68.573 26.4974 68.8204 25.4858Z" fill="#666666"/>
<path opacity="0.997" d="M42.9799 53.6056L45.173 52.0518C46.0227 51.4498 47.1915 51.649 47.7935 52.4989L50.6243 56.4942C51.2263 57.344 51.027 58.5127 50.1772 59.1148L47.9842 60.6686C47.1344 61.2706 45.9657 61.071 45.3636 60.2215L42.5329 56.2262C41.9308 55.3764 42.1302 54.2077 42.9799 53.6056Z" fill="#666666"/>
<path opacity="0.997" d="M58.5977 74.0841L60.7908 72.5302C61.6405 71.9282 62.8093 72.1277 63.4113 72.9773L66.2421 76.9727C66.8441 77.8224 66.6447 78.9911 65.795 79.5932L63.602 81.147C62.7522 81.7491 61.5835 81.5499 60.9814 80.6999L58.1506 76.7046C57.5486 75.8549 57.748 74.6861 58.5977 74.0841Z" fill="#666666"/>
<path opacity="0.3" d="M68.939 25.4804L69.9438 21.3722C70.1913 20.3607 71.2048 19.7455 72.2164 19.9929L110.157 29.2731C111.168 29.5205 111.783 30.5341 111.536 31.5457L110.531 35.6539C110.284 36.6655 109.27 37.2806 108.259 37.0332L70.3183 27.753C69.3067 27.5056 68.6915 26.492 68.939 25.4804Z" fill="#4D4D4D"/>
<path d="M266.209 105.495H320.858L308.505 141.851L279.679 141.746L266.209 105.495Z" fill="#FFCC00"/>
<path d="M320.946 128.152H317.712C316.834 128.152 316.127 128.859 316.127 129.738V132.616C316.127 133.494 316.834 134.201 317.712 134.201H320.946C321.824 134.201 322.531 133.494 322.531 132.616V129.738C322.531 128.859 321.824 128.152 320.946 128.152Z" fill="#666666"/>
<path d="M318.361 125.159H309.449V136.164H318.361V125.159Z" fill="#373E48"/>
<path d="M180.492 123.795L180.424 124.322C180.325 125.083 180.858 125.779 181.618 125.883L184.359 126.257C185.119 126.361 185.81 125.832 185.908 125.072L185.977 124.544C186.075 123.784 185.543 123.088 184.783 122.984L182.042 122.609C181.282 122.505 180.591 123.034 180.492 123.795H180.492Z" fill="#808080"/>
<path d="M180.512 115.456L179.583 122.629C179.44 123.732 180.212 124.741 181.314 124.892L185.288 125.434C186.39 125.585 187.392 124.818 187.535 123.715L188.464 116.542C188.607 115.439 187.835 114.43 186.733 114.279L182.759 113.737C181.657 113.586 180.655 114.353 180.512 115.456Z" fill="#333333"/>
<path opacity="0.95" d="M274.476 141.562V145.614L268.085 170.631L274.446 170.48V171.385L313.507 171.547V170.657L318.751 170.649L313.507 149.363V141.563L274.476 141.562Z" fill="#0B2228"/>
<path opacity="0.4" d="M293.1 144.416V170.516H288.152L291.173 144.379L293.1 144.416Z" fill="black"/>
<path opacity="0.4" d="M311.764 143.558H310.61V171.004H319.038L311.764 143.558Z" fill="black" stroke="black" stroke-width="0.108597"/>
<path opacity="0.4" d="M276.031 143.975H277.184V171.622H268.756L276.031 143.975Z" fill="black" stroke="black" stroke-width="0.10899"/>
<path d="M273.262 143.512V144.973H274.256L268.188 169.632H267.126V171.644H320.69V169.632H319.595L313.527 144.973H314.484V143.512H273.262ZM275.584 144.973H293.972V169.632H269.516L275.584 144.973ZM295.99 144.973H312.199L318.268 169.632H299.004L295.99 144.973Z" fill="#4D4D4D"/>
<path d="M303.024 83.1279H330.646C333.213 83.1279 335.28 87.8311 335.28 93.6731V100.658C335.28 106.5 333.213 111.203 330.646 111.203H303.024C300.456 111.203 298.39 106.5 298.39 100.658V93.6731C298.39 87.8311 300.456 83.1279 303.024 83.1279Z" fill="#373E48"/>
<path d="M266.878 24.4829L253.623 31.0274C253.623 31.0274 249.766 72.5367 250.481 91.0111C250.961 103.369 276.099 115.192 276.099 115.192L301.953 124.452L266.878 24.4829Z" fill="#FFCC00"/>
<path d="M297.182 101.498C297.182 106.149 295.454 110.61 292.379 113.898C289.304 117.187 285.133 119.035 280.785 119.035C276.436 119.035 272.266 117.187 269.191 113.898C266.116 110.61 264.388 106.149 264.388 101.498C264.388 96.8466 266.116 92.3859 269.19 89.097C272.265 85.8081 276.436 83.9605 280.785 83.9604C285.134 83.9605 289.304 85.8081 292.379 89.097C295.454 92.3859 297.182 96.8466 297.182 101.498Z" fill="#373E48"/>
<path d="M180.882 102.883L180.053 109.24L190.635 110.695L191.463 104.338L180.882 102.883Z" fill="#FFCC00"/>
<path d="M177.529 108.764L177.086 112.164L192.831 114.328L193.274 110.929L177.529 108.764Z" fill="#1C2224"/>
<path d="M178.475 112.163L178.032 115.563L191.014 117.348L191.457 113.948L178.475 112.163Z" fill="#1C2224"/>
<path d="M179.152 85.2895C180.691 84.0064 182.538 83.1715 184.501 82.8714C186.465 82.5714 188.473 82.817 190.319 83.5828L240.015 42.1462L246.738 50.6526L197.121 92.0228C197.517 94.0648 197.364 96.1761 196.68 98.1299C195.997 100.084 194.807 101.807 193.24 103.113C192.107 104.058 190.802 104.764 189.401 105.189C188 105.614 186.53 105.751 185.074 105.592C183.619 105.433 182.206 104.98 180.918 104.261C179.629 103.541 178.49 102.568 177.565 101.398C176.64 100.228 175.947 98.8826 175.526 97.4397C175.106 95.9968 174.965 94.4842 175.112 92.9884C175.259 91.4926 175.692 90.0428 176.385 88.7218C177.078 87.4008 178.019 86.2345 179.152 85.2895Z" fill="#FFCC00"/>
<path d="M191.051 86.9888C192.925 88.3714 194.192 90.4556 194.574 92.7827C194.955 95.1099 194.419 97.4895 193.084 99.398C191.749 101.307 189.725 102.588 187.456 102.96C185.187 103.331 182.859 102.764 180.985 101.381C180.057 100.696 179.269 99.8323 178.664 98.8381C178.06 97.844 177.652 96.7393 177.463 95.5869C177.274 94.4346 177.309 93.2573 177.564 92.1223C177.82 90.9872 178.292 89.9167 178.953 88.9717C180.287 87.0632 182.312 85.782 184.581 85.4102C186.85 85.0383 189.178 85.6062 191.051 86.9888Z" fill="#373E48"/>
<path d="M256.735 20.537C259.356 18.4063 263.135 18.858 265.209 21.5491L271.889 30.2136C273.963 32.9049 273.523 36.7867 270.904 38.9172L257.863 49.5208C255.853 51.1551 253.163 51.2686 251.081 50.0192L246.913 53.408L237.826 41.6194L241.854 38.344C240.854 35.8539 241.53 32.8998 243.695 31.1404L256.735 20.537Z" fill="#FFCC00"/>
<path d="M275.152 38.6518C275.152 40.3663 274.817 42.064 274.165 43.6479C273.513 45.2318 272.558 46.671 271.354 47.8833C270.149 49.0956 268.72 50.0572 267.146 50.7133C265.572 51.3694 263.886 51.707 262.183 51.707C258.743 51.707 255.444 50.3315 253.012 47.8832C250.58 45.4349 249.213 42.1143 249.213 38.6518C249.213 35.1894 250.58 31.8688 253.012 29.4205C255.444 26.9722 258.743 25.5967 262.183 25.5967C263.886 25.5967 265.572 25.9343 267.146 26.5904C268.72 27.2465 270.149 28.2081 271.354 29.4204C272.558 30.6326 273.513 32.0719 274.165 33.6558C274.817 35.2397 275.152 36.9374 275.152 38.6518Z" fill="#373E48"/>
<path opacity="0.2" d="M280.044 141.529L287.392 141.564L278.93 118.662L285.096 110.417L264.309 98.8286C264.309 98.8286 256.969 93.1676 255.472 89.0327C251.171 77.1529 255.201 49.4751 255.201 49.4751L252.307 47.0637L250.57 76.4626L250.526 93.9811L254.294 99.3622L258.13 103.352L266.082 109.566L269.287 114.278L280.044 141.529Z" fill="#1A1A1A"/>
<path opacity="0.25" d="M302.464 111.17L315.152 114.788L312.847 126.2L316.48 130.465L318.365 133.781L322.423 133.463L322.379 129.898L321.423 128.313L318.031 128.05V125.325L314.336 125.066L318.835 111.326L314.094 108.69L302.657 83.0303L299.87 85.5853L298.24 95.368L298.533 104.397L300.26 109.687L302.464 111.17Z" fill="#1A1A1A"/>
<path opacity="0.2" d="M182.928 109.332L186.68 105.257L191.529 104.331L190.538 110.504L193.3 111.097L192.643 114.327L182.928 109.332Z" fill="#1A1A1A"/>
<path opacity="0.2" d="M200.018 85.0852L199.546 89.9328L198.579 90.8838L198.01 88.8575L198.263 86.3857L200.018 85.0852Z" fill="#1A1A1A"/>
<path opacity="0.1" d="M268.522 24.9871L262.929 19.91L260.514 19.1648L258.282 19.6286L254.959 21.9528L245.063 30.0121L242.537 32.22L241.356 35.941L246.723 33.765L252.488 26.438L261.711 23.0106L268.522 24.9871Z" fill="#1A1A1A"/>
<path d="M181.564 126.096L174.834 134.864L187.942 136.593L183.707 126.365L181.564 126.096Z" fill="#D40000"/>
<path d="M188.494 120.896C188.494 120.896 191.837 123.847 199.335 121.68C205.726 119.333 208.108 116.922 204.554 106.904C200.442 97.1493 193.674 89.0574 198.288 84.7185C207.987 75.5972 224.014 56.0864 236.535 53.5199C240.815 52.6425 241.983 56.027 253.485 58.3C263.476 60.2744 266.698 51.0754 271.356 53.5903C275.66 60.9574 277.423 72.694 282.255 79.6136C285.654 85.1524 307.851 75.9014 314.097 80.263C326.674 89.0456 325.606 98.613 331.816 108.982C334.553 113.551 337.123 117.625 337.534 122.935C337.974 128.612 329.895 131.189 329.895 131.189L322.447 131.27" stroke="#373E48" stroke-width="2.75734"/>
<path d="M202.164 84.2476L199.364 80.9507C198.674 80.1389 198.773 78.9304 199.585 78.241L230.032 52.3832C230.843 51.6938 232.052 51.7923 232.741 52.604L235.541 55.9008C236.231 56.7126 236.132 57.9211 235.32 58.6106L204.874 84.4684C204.062 85.1578 202.853 85.0593 202.164 84.2475L202.164 84.2476Z" fill="#666666"/>
<path opacity="0.997" d="M277.791 72.2109L279.941 71.5877C280.774 71.3462 281.639 71.8225 281.881 72.6553L283.016 76.5718C283.258 77.4048 282.781 78.2698 281.948 78.5113L279.799 79.1346C278.966 79.376 278.101 78.8997 277.859 78.067L276.724 74.1504C276.482 73.3174 276.958 72.4524 277.791 72.2109Z" fill="#666666"/>
<path opacity="0.997" d="M272.678 57.9773L274.828 57.354C275.66 57.1126 276.525 57.5889 276.767 58.4217L277.903 62.3382C278.144 63.1711 277.668 64.0361 276.835 64.2777L274.685 64.9009C273.852 65.1424 272.987 64.6661 272.746 63.8333L271.61 59.9168C271.369 59.0838 271.845 58.2188 272.678 57.9773Z" fill="#666666"/>
<path opacity="0.997" d="M188.854 119.316L189.652 119.387C190.26 119.441 190.705 119.973 190.651 120.581L190.463 122.695C190.41 123.303 189.877 123.748 189.27 123.694L188.471 123.623C187.864 123.569 187.419 123.037 187.473 122.43L187.66 120.315C187.714 119.708 188.247 119.263 188.854 119.316L188.854 119.316Z" fill="#666666"/>
<path opacity="0.1" d="M198.593 237.61L198.465 237.632C198.465 237.632 202.483 235.814 198.593 237.61Z" fill="black"/>
<path opacity="0.1" d="M235.627 251.84L235.707 252.436C235.633 252.248 235.605 252.045 235.627 251.84Z" fill="black"/>
<path d="M93.8407 170.515C93.8407 170.515 140.138 141.727 170.151 141.511C170.151 141.511 182.786 142.613 201.276 143.201C213.204 143.58 227.39 142 242.79 145.616C282.061 154.838 296.537 167.057 307.446 163.36L261.662 165.028L93.8407 170.515Z" fill="#121C3F"/>
<path d="M302.286 177.617L302.163 215.915L37.3909 217.962L44.7712 186.488L89.8374 173.245L302.286 177.617Z" fill="#121C3F"/>
<path d="M316.164 196.176L316.129 206.203C316.129 206.203 308.248 212.406 307.518 217.222C307.518 217.222 296.252 220.388 293.038 220.413C292.746 220.416 292.427 220.419 292.094 220.456C292.601 219.001 292.998 217.505 293.282 215.984C294.084 211.714 293.999 207.316 293.033 203.107C292.066 198.897 290.243 194.981 287.694 191.64C285.145 188.299 281.934 185.616 278.292 183.786C274.65 181.955 270.667 181.022 266.632 181.053C262.596 181.084 258.608 182.079 254.954 183.966C251.3 185.853 248.071 188.586 245.5 191.966C242.93 195.347 241.081 199.291 240.088 203.516C239.095 207.741 238.981 212.14 239.756 216.398C240.128 218.45 240.704 220.451 241.473 222.367L226.211 222.485C226.211 222.485 226.068 222.538 225.84 222.647C225.02 223.053 223.088 224.121 222.805 225.778L96.3168 226.756L93.7253 226.753C94.2793 225.753 94.7771 224.718 95.216 223.654C96.0351 221.684 96.6453 219.623 97.0352 217.51C97.801 213.475 97.7751 209.32 96.9589 205.314C96.1428 201.309 94.5547 197.54 92.2969 194.253C90.0391 190.965 87.1618 188.231 83.8505 186.227C80.5391 184.222 76.8672 182.992 73.0714 182.615C69.2757 182.239 65.4403 182.724 61.8125 184.04C58.1848 185.356 54.8452 187.473 52.009 190.255C49.1728 193.037 46.903 196.422 45.3459 200.193C43.7888 203.963 42.9789 208.034 42.9685 212.145C42.9622 214.082 43.1322 216.014 43.4759 217.912C44.0622 221.126 45.1461 224.205 46.6825 227.021C44.8772 226.56 40.9381 225.243 40.9381 225.243C40.9381 225.243 24.1526 223.45 19.8781 219.423L20.5275 218.935L23.2812 216.892L22.0464 211.716C21.896 211.499 21.7723 211.261 21.6783 211.009C21.3478 210.146 21.0604 208.541 22.2444 206.514C24.0389 203.421 23.1817 192.459 23.1817 192.459C23.1817 192.459 47.5366 174.183 95.4297 169.768C95.4297 169.768 96.5709 170.717 98.9321 170.898C100.531 171.025 102.691 170.797 105.438 169.691C105.438 169.691 109.36 171.583 126.2 161.063C126.2 161.063 154.857 139.67 192.37 141.311C192.37 141.311 230.968 138.508 263.796 151.926C277.944 157.704 288.712 160.76 296.39 162.359C303.479 163.84 307.933 164.089 309.973 164.097L310.018 164.097C310.684 164.091 311.08 164.087 311.221 164.087L311.282 164.087C311.282 164.087 311.282 168.67 311.476 174.081V174.108C311.551 175.99 311.657 177.971 311.805 179.897V180.016C312.218 185.378 312.943 190.246 314.225 191.201L316.164 196.176Z" fill="#CCCCCC"/>
<path d="M27.0476 191.989C27.0476 191.989 37.8404 182.86 51.2344 184.683C51.2344 184.683 39.0079 195.172 33.5151 194.54L32.581 193.682L27.0262 194.06C27.0262 194.06 26.2012 192.67 27.0568 191.989H27.0476Z" fill="#121C3F"/>
<path opacity="0.2" d="M37.4464 207.56L37.4118 212.901C37.4118 212.901 37.0251 218.005 32.7482 218.23L20.5272 218.974L23.2772 216.931L22.0425 211.755C21.8914 211.54 21.7676 211.303 21.6743 211.052C22.7888 209.943 25.4126 208.064 30.7382 207.624L37.4464 207.56Z" fill="white"/>
<path d="M188.529 146.608L179.779 171.172L148.513 171.45L140.463 171.512L133.462 171.566L127.408 171.613L120.55 171.666C120.55 171.666 124.738 168.331 131.479 164.071C133.705 162.658 136.231 161.147 138.973 159.626C141.495 158.219 144.21 156.794 147.061 155.44C149.286 154.369 151.629 153.338 154.025 152.374C164.883 148.019 177.082 145.057 188.529 146.608V146.608Z" fill="#121C3F"/>
<path d="M237.596 163.18C237.596 163.18 224.526 165.367 212.055 167.007C207.287 167.634 202.609 168.181 198.779 168.494L198.246 168.538C196.765 168.653 195.391 168.732 194.225 168.765C192.373 168.815 190.989 168.737 190.297 168.504L193.975 145.043C193.975 145.043 198.418 145.061 204.989 145.357L206.425 145.43C207.792 145.503 209.231 145.587 210.734 145.687C212.881 145.83 215.143 146.004 217.475 146.218C228.735 147.243 241.488 149.143 249.556 152.678C266.723 160.211 237.596 163.181 237.596 163.181V163.18Z" fill="#121C3F"/>
<path d="M297.764 174.501L297.734 180.755C297.734 180.755 288.354 180.971 290.371 178.937C291.677 177.587 292.863 176.109 293.914 174.523L297.764 174.501Z" fill="#121C3F"/>
<path d="M311.798 180.008L304.18 180.709L304.21 173.191C304.21 173.191 307.756 167.823 311.266 173.715L311.467 174.06L311.798 180.008Z" fill="#121C3F"/>
<path opacity="0.5" d="M225.846 222.632C225.026 223.037 223.094 224.105 222.811 225.762L96.3192 226.74L93.7272 226.737C94.2813 225.737 94.7793 224.702 95.2184 223.638L225.846 222.632Z" fill="#666666"/>
<path opacity="0.1" d="M163.707 190.686C163.315 191.285 162.955 191.908 162.632 192.553C160.209 197.513 154.636 189.523 156.582 186.732L157.923 185.378C157.413 191.755 162.233 191.04 163.707 190.686Z" fill="black"/>
<path opacity="0.1" d="M172.925 201.862L172.796 201.863C172.796 201.863 177.059 200.594 172.925 201.862Z" fill="black"/>
<path opacity="0.1" d="M208.052 224.688V225.366C208.003 225.143 208.003 224.911 208.052 224.688Z" fill="black"/>
<path d="M10.8662 241.004L331.923 239.94L331.948 248.187L10.8906 249.251L10.8662 241.004Z" fill="#535D6C"/>
<path d="M70.9794 212.992L79.8768 212.916L86.2158 236.101L66.0768 236.165L70.9794 212.992Z" fill="#373E48"/>
<path d="M269.98 213.75L278.877 213.674L285.216 236.859L265.077 236.923L269.98 213.75Z" fill="#373E48"/>
<path d="M168.666 225.776L182.145 225.708L191.682 238.413L161.171 238.51L168.666 225.776Z" fill="#373E48"/>
<path d="M16.8589 230.685L339.674 229.616L339.698 237.863L16.8832 238.932L16.8589 230.685Z" fill="#535D6C"/>
<path d="M261.745 213.782L272.071 213.691L279.434 242.746L256.061 242.82L261.745 213.782Z" fill="#535D6C"/>
<path d="M64.6189 212.972L74.944 212.88L82.308 241.935L58.9354 242.009L64.6189 212.972Z" fill="#535D6C"/>
<path opacity="0.15" d="M18.8599 229.218L341.675 228.149L341.699 236.396L18.8842 237.465L18.8599 229.218Z" fill="#1C1F24"/>
<path d="M157.906 225.57L173.997 225.479L185.397 245.293L148.972 245.408L157.906 225.57Z" fill="#535D6C"/>
<path opacity="0.2" d="M65.7611 213.246L76.0862 213.155L83.4502 242.21L60.0776 242.284L65.7611 213.246Z" fill="#1C1F24"/>
<path opacity="0.2" d="M13.8331 240.856L333.013 239.792L333.038 248.039L13.8575 249.102L13.8331 240.856Z" fill="#1C1F24"/>
<path opacity="0.2" d="M159.108 223.943L175.199 223.852L186.599 243.666L150.174 243.781L159.108 223.943Z" fill="#1C1F24"/>
<path opacity="0.2" d="M262.874 213.151L273.199 213.06L280.563 242.115L257.19 242.189L262.874 213.151Z" fill="#1C1F24"/>
<path d="M181.153 141.904C181.182 142.657 181.751 141.987 181.647 142.443C181.579 142.738 181.005 142.684 180.825 142.945C180.721 143.096 180.715 143.311 180.566 143.492C180.377 143.725 180.189 144.087 180.283 144.293C180.456 144.675 181.063 144.069 181.467 144.184C181.875 144.3 181.418 145.022 181.944 145.128C182.359 145.21 182.262 144.49 183.044 144.276C183.291 144.208 183.548 144.663 183.85 144.632C184.41 144.575 184.635 143.972 185.057 144.011C185.671 144.067 186.114 145.156 186.707 145.708C187.399 146.351 188.229 145.894 188.633 146.452C188.899 146.82 188.584 147.381 188.704 147.813C188.867 148.397 187.7 151.631 187.7 151.631L188.583 157.083C188.583 157.083 190.426 158.851 190.984 158.716C192.193 158.425 193.129 148.863 193.711 146.801L193.972 145.038L198.819 145.114L206.97 145.455L218.102 146.262L233.154 148.192L241.83 150.068L248.846 152.448L252.765 154.339L254.174 155.489C254.174 155.489 254.636 156.003 254.757 156.319C254.906 156.709 254.999 157.157 254.906 157.565C254.816 157.958 254.53 158.289 254.252 158.581C253.994 158.853 253.338 159.236 253.338 159.236L252.029 159.957L250.28 160.678L249.171 160.964L257.213 180.37L308.68 169.844L311.373 169.913L311.432 164.118L309.326 164.082L303.004 163.632L286.367 159.914L254.491 148.544L242.637 145.337L229.239 142.956L222.91 142.188L218.412 141.787L212.854 141.286L199.259 141.086L182.044 141.417C182.044 141.417 181.145 141.669 181.154 141.904L181.153 141.904Z" fill="#D40000"/>
</g>
<defs>
<clipPath id="clip0">
<rect width="342.93" height="257.17" fill="white"/>
</clipPath>
</defs>
</svg>
