<svg width="670" height="465" viewBox="0 0 670 465" fill="none" xmlns="http://www.w3.org/2000/svg">
<g opacity="0.95" clip-path="url(#clip0)">
<path d="M98.0659 204.958H93.634C92.4338 204.958 91.4609 205.931 91.4609 207.131V211.076C91.4609 212.276 92.4338 213.249 93.634 213.249H98.0659C99.266 213.249 100.239 212.276 100.239 211.076V207.131C100.239 205.931 99.266 204.958 98.0659 204.958Z" fill="#666666"/>
<path d="M569.138 163.048H573.571C574.771 163.048 575.744 164.021 575.744 165.221V169.166C575.744 170.366 574.771 171.339 573.571 171.339H569.138C567.938 171.339 566.965 170.366 566.965 169.166V165.221C566.965 164.021 567.938 163.048 569.138 163.048Z" fill="#666666"/>
<path d="M557.811 158.945H570.028V174.03H557.811V158.945Z" fill="#373E48"/>
<path d="M666.957 181.516H574.569C573.368 181.516 572.396 182.488 572.396 183.689V257.937C572.396 259.138 573.368 260.11 574.569 260.11H666.957C668.157 260.11 669.13 259.138 669.13 257.937V183.689C669.13 182.488 668.157 181.516 666.957 181.516Z" fill="#999999"/>
<path d="M654.838 215.131H585.397C584.197 215.131 583.224 216.104 583.224 217.304V247.726C583.224 248.926 584.197 249.899 585.397 249.899H654.838C656.038 249.899 657.011 248.926 657.011 247.726V217.304C657.011 216.104 656.038 215.131 654.838 215.131Z" fill="#808080"/>
<path d="M587.472 203.135C590.69 203.135 593.3 200.474 593.3 197.191C593.3 193.908 590.69 191.246 587.472 191.246C584.253 191.246 581.643 193.908 581.643 197.191C581.643 200.474 584.253 203.135 587.472 203.135Z" fill="#C83737"/>
<path d="M655.236 191.055H614.272C613.072 191.055 612.099 192.028 612.099 193.228V200.085C612.099 201.285 613.072 202.258 614.272 202.258H655.236C656.436 202.258 657.409 201.285 657.409 200.085V193.228C657.409 192.028 656.436 191.055 655.236 191.055Z" fill="#808080"/>
<path d="M599.853 201.753C601.994 201.753 603.728 199.983 603.728 197.8C603.728 195.617 601.994 193.847 599.853 193.847C597.712 193.847 595.977 195.617 595.977 197.8C595.977 199.983 597.712 201.753 599.853 201.753Z" fill="#37C871"/>
<path d="M653.486 192.347H615.143C614.22 192.347 613.472 193.095 613.472 194.018V199.292C613.472 200.215 614.22 200.963 615.143 200.963H653.486C654.409 200.963 655.157 200.215 655.157 199.292V194.018C655.157 193.095 654.409 192.347 653.486 192.347Z" fill="#333333"/>
<path d="M94.5611 220.774H2.17304C0.972901 220.774 0 221.747 0 222.947V297.196C0 298.396 0.972901 299.369 2.17304 299.369H94.5611C95.7612 299.369 96.7341 298.396 96.7341 297.196V222.947C96.7341 221.747 95.7612 220.774 94.5611 220.774Z" fill="#999999"/>
<path d="M109.392 200.855H97.1758V215.94H109.392V200.855Z" fill="#373E48"/>
<path d="M82.4426 254.389H13.0012C11.801 254.389 10.8281 255.362 10.8281 256.562V286.984C10.8281 288.184 11.801 289.157 13.0012 289.157H82.4426C83.6427 289.157 84.6156 288.184 84.6156 286.984V256.562C84.6156 255.362 83.6427 254.389 82.4426 254.389Z" fill="#808080"/>
<path d="M380.955 157.798L381.048 157.076C381.183 156.036 382.134 155.308 383.173 155.45L386.929 155.963C387.968 156.105 388.701 157.063 388.566 158.103L388.472 158.825C388.338 159.865 387.387 160.593 386.348 160.451L382.591 159.938C381.553 159.796 380.82 158.838 380.955 157.798Z" fill="#808080"/>
<path d="M379.802 155.477L381.075 145.645C381.27 144.138 382.649 143.083 384.155 143.288L389.602 144.033C391.108 144.238 392.171 145.627 391.976 147.134L390.703 156.966C390.507 158.474 389.128 159.529 387.622 159.323L382.175 158.579C380.669 158.373 379.607 156.984 379.802 155.477Z" fill="#333333"/>
<path opacity="0.95" d="M509.875 181.429V186.984L501.114 221.274L509.833 221.068V222.308L563.375 222.531V221.31L570.563 221.296L563.375 192.12V181.429L509.875 181.429Z" fill="#0B2228"/>
<path opacity="0.4" d="M535.402 185.341V221.117H528.62L532.76 185.291L535.402 185.341Z" fill="black"/>
<path opacity="0.4" d="M560.985 184.165H559.403V221.786H570.955L560.985 184.165Z" fill="black" stroke="black" stroke-width="0.148855"/>
<path opacity="0.4" d="M512.005 184.736H513.586V222.632H502.034L512.005 184.736Z" fill="black" stroke="black" stroke-width="0.149394"/>
<path d="M508.211 184.102V186.105H509.573L501.255 219.906H499.8V222.663H573.22V219.906H571.72L563.401 186.105H564.713V184.102H508.211ZM511.393 186.105H536.598V219.906H503.075L511.393 186.105ZM539.363 186.105H561.581L569.9 219.906H543.494L539.363 186.105Z" fill="#4D4D4D"/>
<path d="M498.541 131.992H573.45L556.517 181.826L517.005 181.681L498.541 131.992Z" fill="#FFCC00"/>
<path d="M586.866 101.333H549.004C545.496 101.333 542.652 107.804 542.652 115.787V125.361C542.652 133.344 545.496 139.816 549.004 139.816H586.866C590.374 139.816 593.218 133.344 593.218 125.361V115.787C593.218 107.804 590.374 101.333 586.866 101.333Z" fill="#373E48"/>
<path d="M499.46 20.9469L481.29 29.9175C481.29 29.9175 476.004 86.8151 476.984 112.138C477.642 129.077 512.098 145.283 512.098 145.283L547.537 157.977L499.46 20.9469Z" fill="#FFCC00"/>
<path d="M518.521 150.551C530.934 150.551 540.996 139.789 540.996 126.512C540.996 113.236 530.934 102.474 518.521 102.474C506.108 102.474 496.046 113.236 496.046 126.512C496.046 139.789 506.108 150.551 518.521 150.551Z" fill="#373E48"/>
<path d="M380.447 137.125L381.583 128.411L396.088 130.405L394.952 139.12L380.447 137.125Z" fill="#FFCC00"/>
<path d="M376.38 141.132L376.987 136.472L398.569 139.44L397.962 144.099L376.38 141.132Z" fill="#1C2224"/>
<path d="M377.678 145.792L378.285 141.132L396.079 143.578L395.471 148.238L377.678 145.792Z" fill="#1C2224"/>
<path d="M379.213 104.295C381.322 102.537 383.853 101.392 386.545 100.981C389.236 100.57 391.989 100.906 394.519 101.956L462.638 45.1582L471.853 56.818L403.843 113.525C404.385 116.324 404.176 119.218 403.239 121.896C402.301 124.574 400.671 126.936 398.523 128.727C396.969 130.022 395.181 130.989 393.26 131.572C391.34 132.155 389.325 132.342 387.33 132.124C385.335 131.906 383.399 131.286 381.633 130.299C379.867 129.313 378.305 127.98 377.037 126.375C375.769 124.771 374.82 122.928 374.243 120.95C373.666 118.972 373.472 116.899 373.674 114.848C373.876 112.798 374.47 110.811 375.42 109C376.37 107.189 377.659 105.591 379.213 104.295Z" fill="#FFCC00"/>
<path d="M398.309 123.634C402.119 118.187 400.871 110.571 395.522 106.625C390.173 102.678 382.748 103.895 378.938 109.343C375.128 114.79 376.375 122.406 381.724 126.352C387.073 130.299 394.499 129.082 398.309 123.634Z" fill="#373E48"/>
<path d="M485.556 15.5381C489.148 12.6175 494.329 13.2365 497.172 16.9253L506.327 28.8019C509.17 32.4909 508.568 37.8118 504.977 40.7321L487.102 55.2666C484.347 57.5067 480.659 57.6623 477.806 55.9497L472.093 60.5948L459.638 44.436L465.158 39.9464C463.788 36.5331 464.714 32.4839 467.681 30.0723L485.556 15.5381Z" fill="#FFCC00"/>
<path d="M493.024 58.2635C502.842 58.2635 510.801 50.2516 510.801 40.3685C510.801 30.4855 502.842 22.4736 493.024 22.4736C483.205 22.4736 475.246 30.4855 475.246 40.3685C475.246 50.2516 483.205 58.2635 493.024 58.2635Z" fill="#373E48"/>
<path d="M279.789 96.2083L279.304 95.6971C278.477 94.8241 277.118 94.805 276.268 95.6544L273.193 98.7273C272.343 99.5767 272.324 100.973 273.151 101.846L273.636 102.357C274.463 103.23 275.822 103.249 276.672 102.4L279.747 99.3272C280.597 98.4778 280.616 97.0813 279.789 96.2083Z" fill="#808080"/>
<path d="M279.29 93.2817L271.778 85.3516C270.579 84.0859 268.608 84.0581 267.375 85.2897L262.917 89.7451C261.684 90.9767 261.657 93.001 262.857 94.2668L270.369 102.197C271.568 103.463 273.539 103.49 274.771 102.259L279.23 97.8034C280.462 96.5718 280.489 94.5475 279.29 93.2817Z" fill="#333333"/>
<path opacity="0.95" d="M162.685 220.677V226.964L172.601 265.779L162.731 265.545V266.949L102.126 267.201V265.82L93.9885 265.804L102.126 232.779V220.677L162.685 220.677Z" fill="#0B2228"/>
<path opacity="0.4" d="M133.787 225.105V265.6H141.464L136.778 225.048L133.787 225.105Z" fill="black"/>
<path opacity="0.4" d="M104.831 223.774H106.62V266.358H93.5452L104.831 223.774Z" fill="black" stroke="black" stroke-width="0.168493"/>
<path opacity="0.4" d="M160.273 224.42H158.484V267.316H171.558L160.273 224.42Z" fill="black" stroke="black" stroke-width="0.169102"/>
<path d="M164.568 223.702V225.97H163.026L172.441 264.23H174.088V267.35H90.9817V264.23H92.68L102.096 225.97H100.611V223.702H164.568ZM160.964 225.97H132.435V264.23H170.381L160.964 225.97ZM129.305 225.97H104.156L94.7397 264.23H124.629L129.305 225.97Z" fill="#4D4D4D"/>
<path d="M175.512 164.718H90.7219L109.888 221.126L154.613 220.963L175.512 164.718Z" fill="#FF7F2A"/>
<path d="M75.535 130.014H118.393C122.363 130.014 125.581 137.339 125.581 146.375V157.213C125.581 166.249 122.363 173.574 118.393 173.574H75.535C71.5643 173.574 68.3448 166.249 68.3448 157.213V146.375C68.3448 137.339 71.5643 130.014 75.535 130.014Z" fill="#373E48"/>
<path d="M86.7043 47.4696L107.795 38.5188C107.795 38.5188 158.48 76.9332 178.52 96.915C191.923 110.282 179.189 152.355 179.189 152.355L162.829 192.623L86.7043 47.4696Z" fill="#FF7F2A"/>
<path d="M161.145 187.278C147.095 187.278 135.705 175.096 135.705 160.068C135.705 145.04 147.095 132.858 161.145 132.858C175.195 132.858 186.585 145.04 186.585 160.068C186.585 175.096 175.195 187.278 161.145 187.278Z" fill="#373E48"/>
<path d="M266.687 77.1198L259.924 69.993L248.062 81.8674L254.825 88.9941L266.687 77.1198Z" fill="#FF7F2A"/>
<path d="M273.019 77.9367L269.403 74.1259L251.753 91.7938L255.369 95.6046L273.019 77.9367Z" fill="#FF7F2A"/>
<path d="M274.905 83.0699L271.288 79.2585L256.736 93.8258L260.353 97.6372L274.905 83.0699Z" fill="#1C2224"/>
<path d="M97.9961 6.99656C92.9628 5.71575 87.9072 8.8467 86.6597 14.0161L82.6445 30.6594C81.3976 35.8288 84.4461 41.0218 89.4793 42.3026L114.527 48.6764C118.388 49.6588 122.26 48.0441 124.418 44.9066L132.423 46.9435L137.887 24.2991L130.148 22.3303C130.002 18.1536 127.2 14.4279 123.044 13.3704L97.9961 6.99656Z" fill="#FF7F2A"/>
<path d="M248.065 47.2728C245.089 46.4758 241.959 46.515 238.998 47.3864C236.037 48.2577 233.354 49.9295 231.226 52.2285L135.125 26.4873L130.949 42.9364L226.896 68.6364C227.615 71.7812 229.152 74.6624 231.339 76.9709C233.527 79.2794 236.284 80.928 239.315 81.7398C241.507 82.3269 243.789 82.4625 246.034 82.1389C248.279 81.8152 250.441 81.0387 252.397 79.8535C254.353 78.6684 256.066 77.0979 257.436 75.2317C258.805 73.3655 259.805 71.2401 260.38 68.977C260.955 66.7138 261.092 64.3571 260.785 62.0415C260.477 59.7259 259.73 57.4968 258.587 55.4813C257.443 53.4659 255.924 51.7036 254.119 50.2952C252.314 48.8868 250.257 47.8598 248.065 47.2728Z" fill="#FF7F2A"/>
<path d="M237.21 76.3905C230.799 72.611 228.609 64.1632 232.32 57.5225C236.031 50.8818 244.238 48.5625 250.649 52.342C257.06 56.1214 259.249 64.5685 255.537 71.2092C251.826 77.8498 243.621 80.1699 237.21 76.3905Z" fill="#373E48"/>
<path d="M98.5625 64.6154C87.449 64.6154 78.4402 55.5466 78.4402 44.3597C78.4402 33.1728 87.449 24.104 98.5625 24.104C109.676 24.104 118.685 33.1728 118.685 44.3597C118.685 55.5466 109.676 64.6154 98.5625 64.6154Z" fill="#373E48"/>
<path opacity="0.2" d="M517.507 181.383L527.58 181.432L515.982 150.039L524.433 138.739L495.94 122.854C495.94 122.854 485.879 115.094 483.827 109.426C477.931 93.1426 483.455 55.2041 483.455 55.2041L479.489 51.8988L477.108 92.1963L477.047 116.209L482.212 123.585L487.47 129.054L498.37 137.572L502.763 144.031L517.507 181.383Z" fill="#1A1A1A"/>
<path opacity="0.1" d="M86.6155 13.3238L110.973 15.7223L123.817 19.8548L129.882 20.2291C129.882 20.2291 129.079 17.853 128.337 16.8686C127.413 15.6439 124.847 13.8708 124.847 13.8708L97.1324 6.70581C97.1324 6.70581 93.8817 6.70534 92.4034 7.28536C90.9208 7.86693 88.5294 10.0837 88.5294 10.0837L86.6155 13.3238Z" fill="#1A1A1A"/>
<path opacity="0.25" d="M548.239 139.771L565.631 144.73L562.472 160.372L567.451 166.218L570.036 170.764L575.598 170.327L575.537 165.441L574.226 163.268L569.578 162.908V159.173L564.512 158.818L570.68 139.985L564.181 136.371L548.504 101.199L544.683 104.701L542.449 118.11L542.851 130.487L545.218 137.737L548.239 139.771Z" fill="#1A1A1A"/>
<path opacity="0.2" d="M384.39 137.251L389.532 131.665L396.178 130.396L394.821 138.858L398.607 139.67L397.706 144.097L384.39 137.251Z" fill="#1A1A1A"/>
<path opacity="0.2" d="M407.815 104.016L407.169 110.66L405.842 111.964L405.063 109.186L405.409 105.798L407.815 104.016Z" fill="#1A1A1A"/>
<path opacity="0.1" d="M501.714 21.6382L494.048 14.6789L490.737 13.6575L487.678 14.2932L483.123 17.479L469.559 28.526L466.096 31.5524L464.478 36.6528L471.835 33.6702L479.736 23.627L492.378 18.9289L501.714 21.6382Z" fill="#1A1A1A"/>
<path d="M225.804 464.229C254.817 464.229 278.337 454.813 278.337 443.197C278.337 431.581 254.817 422.164 225.804 422.164C196.792 422.164 173.272 431.581 173.272 443.197C173.272 454.813 196.792 464.229 225.804 464.229Z" fill="#CCCCCC"/>
<path opacity="0.1" d="M399.288 358.16L399.05 358.201C399.05 358.201 406.5 354.831 399.288 358.16Z" fill="black"/>
<path opacity="0.1" d="M467.951 384.543L468.098 385.647C467.961 385.3 467.911 384.922 467.951 384.543Z" fill="black"/>
<path d="M205.072 233.763C205.072 233.763 290.908 180.388 346.555 179.989C346.555 179.989 369.98 182.03 404.262 183.121C426.377 183.824 452.679 180.894 481.231 187.598C554.041 204.696 580.879 227.35 601.106 220.497L516.22 223.589L205.072 233.763Z" fill="#121C3F"/>
<path d="M114.095 263.377L197.649 238.824L591.539 246.93L591.311 317.937L100.411 321.732L114.095 263.377Z" fill="#121C3F"/>
<path d="M617.269 281.339L617.205 299.93C617.205 299.93 602.594 311.431 601.241 320.359C601.241 320.359 580.352 326.23 574.394 326.276C573.852 326.281 573.261 326.285 572.643 326.356C573.583 323.658 574.32 320.885 574.847 318.064C576.334 310.148 576.175 301.994 574.383 294.189C572.592 286.384 569.212 279.123 564.486 272.929C559.76 266.735 553.806 261.761 547.054 258.367C540.301 254.973 532.917 253.242 525.435 253.3C517.953 253.358 510.559 255.202 503.784 258.701C497.009 262.2 491.022 267.266 486.257 273.534C481.491 279.801 478.064 287.115 476.222 294.948C474.38 302.781 474.17 310.938 475.606 318.831C476.297 322.636 477.364 326.347 478.791 329.899L450.493 330.118C450.493 330.118 450.228 330.216 449.805 330.419C448.285 331.17 444.703 333.15 444.178 336.223L209.664 338.036L204.859 338.028C205.886 336.173 206.809 334.255 207.623 332.283C209.141 328.63 210.273 324.809 210.996 320.891C212.416 313.409 212.367 305.707 210.854 298.28C209.341 290.853 206.397 283.867 202.211 277.771C198.025 271.676 192.69 266.607 186.551 262.89C180.412 259.174 173.604 256.893 166.566 256.195C159.529 255.497 152.417 256.396 145.691 258.836C138.965 261.275 132.774 265.201 127.515 270.359C122.257 275.517 118.049 281.794 115.162 288.784C112.275 295.774 110.773 303.323 110.754 310.944C110.742 314.536 111.057 318.118 111.694 321.637C112.781 327.595 114.791 333.303 117.639 338.525C114.292 337.671 106.989 335.228 106.989 335.228C106.989 335.228 75.8686 331.904 67.9434 324.437L69.1475 323.533L74.2521 319.745L71.9637 310.149C71.6848 309.746 71.4552 309.305 71.2809 308.838C70.6682 307.238 70.1349 304.262 72.33 300.503C75.6572 294.769 74.0685 274.445 74.0685 274.445C74.0685 274.445 119.223 240.561 208.019 232.376C208.019 232.376 210.135 234.134 214.513 234.47C217.477 234.706 221.481 234.283 226.575 232.232C226.575 232.232 233.847 235.74 265.069 216.236C265.069 216.236 318.199 176.573 387.751 179.615C387.751 179.615 459.313 174.417 520.178 199.296C546.409 210.008 566.373 215.673 580.608 218.64C593.752 221.385 602.01 221.846 605.792 221.861L605.875 221.86C607.11 221.851 607.844 221.845 608.106 221.843L608.219 221.842C608.219 221.842 608.219 230.339 608.578 240.371V240.423C608.718 243.912 608.914 247.586 609.189 251.155V251.377C609.954 261.317 611.297 270.343 613.674 272.115L617.269 281.339Z" fill="#CCCCCC"/>
<path d="M81.2348 273.577C81.2348 273.577 101.245 256.651 126.078 260.031C126.078 260.031 103.41 279.477 93.2258 278.306L91.4938 276.715L81.1952 277.416C81.1952 277.416 79.6661 274.839 81.2524 273.577L81.2348 273.577Z" fill="#121C3F"/>
<path opacity="0.2" d="M100.515 302.446L100.451 312.347C100.451 312.347 99.7337 321.811 91.8043 322.227L69.1465 323.608L74.2446 319.819L71.9553 310.224C71.6752 309.824 71.4463 309.386 71.2734 308.92C73.3397 306.863 78.2042 303.379 88.0783 302.564L100.515 302.446Z" fill="white"/>
<path opacity="0.5" d="M330.729 249.885C330.729 249.885 332.734 245.855 335.96 245.741L356.916 244.418C356.916 244.418 356.576 247.541 352.845 248.731L330.729 249.885Z" fill="#ECECEC"/>
<path opacity="0.5" d="M451.987 242.167C451.987 242.167 453.991 238.136 457.217 238.022L478.173 236.67C478.173 236.67 477.833 239.793 474.102 240.983L451.987 242.167Z" fill="#F2F2F2"/>
<path d="M380.628 189.437L364.406 234.981L306.438 235.496L291.512 235.612L278.531 235.712L267.306 235.799L254.593 235.897C254.593 235.897 262.357 229.714 274.855 221.816C278.983 219.196 283.666 216.394 288.749 213.574C293.425 210.965 298.458 208.323 303.745 205.812C307.87 203.828 312.215 201.916 316.656 200.129C336.789 192.054 359.404 186.562 380.628 189.437V189.437Z" fill="#121C3F"/>
<path d="M471.602 220.164C471.602 220.164 447.37 224.218 424.246 227.259C415.407 228.422 406.734 229.435 399.633 230.015L398.645 230.097C395.899 230.31 393.351 230.456 391.188 230.517C387.756 230.61 385.189 230.467 383.906 230.033L390.725 186.536C390.725 186.536 398.964 186.568 411.146 187.118L413.809 187.252C416.342 187.388 419.011 187.545 421.798 187.73C425.779 187.996 429.973 188.318 434.296 188.714C455.172 190.615 478.818 194.137 493.776 200.692C525.604 214.658 471.602 220.164 471.602 220.164V220.164Z" fill="#121C3F"/>
<path d="M583.155 241.153L583.099 252.748C583.099 252.748 565.709 253.149 569.449 249.378C571.869 246.875 574.068 244.134 576.017 241.193L583.155 241.153Z" fill="#121C3F"/>
<path d="M609.176 251.364L595.051 252.663L595.107 238.724C595.107 238.724 601.681 228.771 608.188 239.695L608.562 240.335L609.176 251.364Z" fill="#121C3F"/>
<path opacity="0.2" d="M242.102 328.902L347.151 325.612L364.686 235.046L254.978 235.487L242.102 328.902Z" stroke="white" stroke-width="0.712518" stroke-miterlimit="10"/>
<path opacity="0.5" d="M449.816 330.389C448.297 331.14 444.714 333.12 444.19 336.193L209.668 338.006L204.862 337.998C205.89 336.144 206.813 334.225 207.627 332.253L449.816 330.389Z" fill="#666666"/>
<path opacity="0.1" d="M334.609 271.16C333.881 272.27 333.214 273.426 332.614 274.621C328.122 283.818 317.791 269.005 321.398 263.83L323.883 261.319C322.939 273.143 331.875 271.817 334.609 271.16Z" fill="black"/>
<path opacity="0.1" d="M351.697 291.881L351.459 291.883C351.459 291.883 359.362 289.53 351.697 291.881Z" fill="black"/>
<path opacity="0.1" d="M416.826 334.201V335.458C416.735 335.046 416.735 334.615 416.826 334.201Z" fill="black"/>
<path d="M646.487 362.48L22.5654 364.452L22.6112 379.742L646.533 377.77L646.487 362.48Z" fill="#535D6C"/>
<path d="M162.687 312.516L179.182 312.376L190.935 355.363L153.597 355.481L162.687 312.516Z" fill="#373E48"/>
<path d="M531.642 313.922L548.137 313.782L559.891 356.768L522.553 356.886L531.642 313.922Z" fill="#373E48"/>
<path d="M343.803 336.219L368.793 336.092L386.476 359.649L329.906 359.828L343.803 336.219Z" fill="#373E48"/>
<path d="M660.859 343.338L62.3447 345.32L62.3885 360.61L660.902 358.628L660.859 343.338Z" fill="#535D6C"/>
<path d="M516.375 313.982L535.519 313.812L549.171 367.682L505.837 367.819L516.375 313.982Z" fill="#535D6C"/>
<path d="M150.894 312.479L170.037 312.31L183.69 366.179L140.356 366.316L150.894 312.479Z" fill="#535D6C"/>
<path opacity="0.15" d="M664.568 340.619L66.0547 342.601L66.0984 357.891L664.611 355.909L664.568 340.619Z" fill="#1C1F24"/>
<path d="M323.852 335.837L353.686 335.668L374.822 372.404L307.289 372.618L323.852 335.837Z" fill="#535D6C"/>
<path opacity="0.2" d="M153.012 312.988L172.155 312.818L185.808 366.688L142.475 366.825L153.012 312.988Z" fill="#1C1F24"/>
<path opacity="0.2" d="M648.506 362.205L24.585 364.177L24.6308 379.467L648.551 377.495L648.506 362.205Z" fill="#1C1F24"/>
<path opacity="0.2" d="M326.08 332.821L355.914 332.652L377.05 369.388L309.517 369.602L326.08 332.821Z" fill="#1C1F24"/>
<path opacity="0.2" d="M518.467 312.812L537.611 312.643L551.264 366.512L507.93 366.649L518.467 312.812Z" fill="#1C1F24"/>
<path d="M366.954 180.716C367.007 182.112 368.061 180.87 367.869 181.716C367.744 182.264 366.68 182.162 366.346 182.647C366.153 182.927 366.142 183.325 365.865 183.661C365.514 184.092 365.166 184.763 365.34 185.146C365.662 185.855 366.786 184.731 367.536 184.943C368.293 185.159 367.444 186.498 368.42 186.693C369.189 186.847 369.01 185.511 370.459 185.113C370.918 184.987 371.394 185.832 371.955 185.775C372.993 185.67 373.41 184.551 374.192 184.623C375.331 184.727 376.151 186.745 377.252 187.769C378.534 188.961 380.072 188.115 380.821 189.148C381.316 189.83 380.731 190.871 380.954 191.673C381.256 192.755 379.093 198.75 379.093 198.75L380.73 208.86C380.73 208.86 384.146 212.137 385.182 211.887C387.422 211.347 389.159 193.619 390.238 189.796L390.72 186.528L399.707 186.668L414.82 187.3L435.459 188.796L463.365 192.374L479.452 195.853L492.46 200.266L499.726 203.772L502.338 205.903C502.338 205.903 503.195 206.856 503.419 207.442C503.695 208.166 503.868 208.997 503.695 209.753C503.529 210.48 502.998 211.096 502.483 211.637C502.004 212.14 500.789 212.85 500.789 212.85L498.36 214.187L495.118 215.524L493.062 216.054L507.972 252.035L603.394 232.518L608.387 232.647L608.497 221.902L604.592 221.835L592.87 221.002L562.026 214.107L502.926 193.027L480.949 187.082L456.107 182.667L444.375 181.243L436.034 180.499L425.73 179.571L400.524 179.2L368.606 179.814C368.606 179.814 366.94 180.28 366.957 180.716L366.954 180.716Z" fill="#D40000"/>
<path d="M382.518 160.229L373.293 172.248L391.26 174.618L385.456 160.599L382.518 160.229Z" fill="#D40000"/>
<path opacity="0.25" d="M91.645 206.16L93.0716 205.046L97.1353 204.954L97.1999 200.891L102.956 200.824L93.5228 173.634L79.4658 171.2L125.871 153.065L124.947 164.647L136.34 164.86C136.34 164.86 131.976 169.565 127.825 172.246C126.315 173.22 123.089 175.426 116.804 175.596C109.94 175.781 97.5772 174.082 98.1623 177.818C99.8888 188.838 104.122 203.81 104.122 203.81L99.5132 207.675L97.0476 207.721L91.5583 208.705L91.645 206.16Z" fill="#1A1A1A"/>
<path d="M91.7763 208.784C91.7763 208.784 74.5332 209.703 68.8371 200.173C64.4997 192.916 62.1182 182.8 65.4627 175.035C69.9754 164.557 93.2389 155.039 93.2389 155.039L131.389 141.441C140.966 137.622 151.341 132.62 147.308 122.316C133.63 99.3392 113.523 86.2461 116.545 73.8277C118.166 68.6699 129.077 68.1312 132.958 62.0406C140.397 50.3648 138.138 39.0928 146.877 39.2002C187.916 46.5162 212.789 52.7638 221.04 63.1537C228.283 72.2744 224.343 89.8481 237.259 99.96C243.284 104.677 251.714 105.729 258.067 103.985C262.82 102.681 267.267 98.6221 267.267 98.6221" stroke="#373E48" stroke-width="3.77953"/>
<path d="M220.504 163.162C220.504 163.162 222.911 175.92 221.226 176.882C219.865 177.738 218.577 178.704 217.375 179.771L221.708 185.789L232.058 187.955L241.928 178.808V169.661C241.928 169.661 239.039 165.087 239.52 162.199C240.002 159.31 220.504 163.162 220.504 163.162Z" fill="#DEAA87"/>
<path d="M203.895 185.067L202.45 185.789C202.45 185.789 199.321 186.992 197.877 197.343C196.432 207.694 193.062 232.487 194.025 233.209C194.988 233.932 194.507 238.746 194.507 238.746L201.728 200.954L203.895 185.067Z" fill="#2F2E41"/>
<path d="M215.689 428.91L216.893 417.115H225.559L230.614 428.188L220.744 431.558L215.689 428.91Z" fill="#FBBEBE"/>
<path d="M220.985 426.503C220.985 426.503 213.042 421.688 211.598 423.373C210.153 425.058 198.599 437.335 198.599 437.335C198.599 437.335 180.786 446.963 194.507 448.408C208.227 449.852 230.614 439.983 230.614 439.983C230.614 439.983 231.817 426.984 230.855 426.743C229.892 426.503 225.799 428.91 223.874 428.188C222.81 427.82 221.829 427.247 220.985 426.503Z" fill="black"/>
<path d="M225.559 435.891L228.447 425.781L238.557 428.91V438.779L225.559 435.891Z" fill="#FBBEBE"/>
<path d="M225.318 432.28C225.318 432.28 238.558 430.113 239.761 436.613C240.965 443.112 244.094 452.741 240.965 455.148C237.836 457.555 221.708 460.684 221.467 456.592C221.226 452.5 223.152 444.556 223.152 444.556C223.152 444.556 224.356 438.298 223.633 436.613C222.911 434.928 225.318 432.28 225.318 432.28Z" fill="black"/>
<path d="M198.875 269.736C198.875 269.736 188.008 338.642 196.914 372.342C205.82 406.042 212.079 426.021 212.079 426.021C212.079 426.021 228.853 430.235 228.853 427.346C228.853 424.458 221.467 373.064 220.022 368.972C218.578 364.88 216.171 363.436 218.338 360.066C220.504 356.696 224.115 335.031 224.115 335.031C224.115 335.031 232.058 370.898 232.54 371.861C233.021 372.823 226.318 432.398 226.318 432.398C226.318 432.398 242.309 439.478 243.269 430.835C243.51 428.669 255.167 351.881 255.167 350.918C255.167 349.956 259.5 276.297 252.519 272.686C245.538 269.076 198.875 269.736 198.875 269.736Z" fill="#162D50"/>
<path d="M226.281 184.104V182.419L221.467 174.475C221.467 174.475 216.652 174.957 215.93 177.123C215.208 179.289 207.024 196.621 207.024 196.621L198.358 274.372C198.358 274.372 222.189 280.149 225.799 276.056C229.41 271.964 243.131 182.9 243.131 182.9L245.057 172.068C245.057 172.068 241.75 167.254 240.996 167.976C240.242 168.698 227.725 182.659 227.725 182.659L227.485 184.826L226.281 184.104Z" fill="#162D50"/>
<path d="M221.347 172.911C221.347 172.911 216.893 171.827 215.449 174.475C214.005 177.123 214.005 178.086 212.56 179.049C211.116 180.012 202.691 184.344 202.21 186.029C201.728 187.714 191.378 240.912 191.378 240.912C191.378 240.912 186.323 256.799 188.73 267.632C191.137 278.464 189.452 280.63 194.507 281.593C199.562 282.556 200.284 282.556 200.284 281.112C200.284 279.667 206.783 230.802 211.357 227.432C215.93 224.062 214.727 187.233 214.727 187.233C214.727 187.233 221.226 179.289 221.226 178.086C221.226 176.882 222.31 172.82 221.347 172.911Z" fill="#0044AA"/>
<path d="M234.947 181.697C235.618 181.809 244.816 169.902 245.538 170.383C246.26 170.865 249.871 177.123 250.353 177.123C250.834 177.123 271.295 182.178 272.98 191.566C274.665 200.954 261.185 230.802 261.185 230.802C261.185 230.802 255.408 247.893 256.611 255.355C257.428 261.038 257.265 266.818 256.13 272.446C255.648 274.372 253.963 276.538 254.445 277.501C254.926 278.464 243.853 276.297 239.28 278.945C234.706 281.593 214.246 283.519 215.449 280.63C216.653 277.742 217.375 266.428 220.745 254.392C224.115 242.357 232.781 213.952 231.336 212.027C229.892 210.101 233.503 181.456 234.947 181.697Z" fill="#0044AA"/>
<path d="M270.091 188.677L273.22 191.566C273.22 191.566 276.831 197.824 276.35 200.713C275.868 203.602 286.46 247.171 282.127 248.615C277.794 250.059 267.443 257.281 266.24 259.207C265.036 261.132 262.148 264.502 260.222 265.465C258.296 266.428 256.37 268.113 255.167 267.15C253.963 266.187 251.315 246.449 253.241 245.727C255.167 245.004 257.092 242.838 259.018 242.838C260.944 242.838 262.147 240.912 262.147 239.227C262.147 237.542 260.703 227.432 260.703 227.432L257.574 203.602L270.091 188.677Z" fill="#162D50"/>
<path d="M231.838 126.667C238.093 126.668 243.057 134.636 243.128 144.51L243.144 146.795C243.162 146.795 243.18 146.795 243.198 146.795C243.389 146.795 243.577 146.886 243.753 147.064C243.929 147.241 244.089 147.5 244.224 147.828C244.358 148.155 244.465 148.544 244.538 148.972C244.611 149.399 244.649 149.858 244.649 150.321C244.649 150.784 244.611 151.243 244.538 151.671C244.465 152.098 244.358 152.487 244.224 152.815C244.089 153.142 243.929 153.402 243.753 153.579C243.577 153.756 243.389 153.847 243.198 153.847C243.254 163.704 237.64 171.77 231.393 171.77H226.898C220.865 171.77 215.232 162.43 214.835 152.907C214.768 152.93 214.699 152.942 214.631 152.942C214.441 152.942 214.252 152.851 214.076 152.674C213.9 152.497 213.74 152.237 213.605 151.91C213.471 151.582 213.364 151.193 213.291 150.766C213.218 150.338 213.18 149.879 213.18 149.416C213.18 148.953 213.218 148.495 213.291 148.067C213.364 147.639 213.471 147.25 213.605 146.923C213.74 146.595 213.9 146.336 214.076 146.159C214.252 145.981 214.441 145.89 214.631 145.89C214.69 145.89 214.75 145.899 214.808 145.917L214.808 144.513C214.797 134.638 219.843 126.67 226.098 126.67H231.841L231.838 126.667Z" fill="#DEAA87"/>
<path opacity="0.6" d="M214.46 149.656C214.287 149.64 214.193 149.055 214.251 148.35C214.309 147.645 214.496 147.087 214.669 147.104C214.842 147.12 214.936 147.705 214.878 148.41C214.82 149.115 214.633 149.673 214.46 149.656Z" fill="black"/>
<path opacity="0.6" d="M243.534 150.831C243.707 150.814 243.8 150.229 243.743 149.525C243.685 148.82 243.498 148.262 243.325 148.278C243.152 148.295 243.058 148.879 243.116 149.584C243.174 150.289 243.361 150.847 243.534 150.831Z" fill="black"/>
<path d="M228.828 125.095C236.703 125.095 242.65 132.421 243.115 141.49L243.316 145.389C243.214 147.95 243.327 147.921 243.327 150.101C243.327 152.281 243.327 152.328 243.286 154.26L242.909 157.424C242.686 159.292 241.829 162.543 240.699 164.678C239.743 166.485 238.433 168.109 236.635 169.723C234.15 171.707 233.433 172.117 231.264 172.07L226.803 171.971C225.277 171.882 222.329 170.495 220.618 168.38C218.817 166.157 219.416 166.925 218.414 165.376C216.974 163.147 214.614 158.775 214.614 154.919V154.662C214.663 152.076 214.645 152.08 214.645 149.975C214.645 147.87 214.645 147.869 214.614 146.03V141.489C214.614 132.407 220.953 125.094 228.828 125.094L228.828 125.095ZM231.129 135.014L226.546 135.274L220.758 135.166L218.802 136.859L218.507 139.566L217.836 142.291L215.953 144.275L215.497 147.099L215.56 155.865L216.052 158.858L217.577 162.048L220.113 166.18L222.566 168.915L225.104 170.457L226.879 170.596C227.461 170.366 228.726 167.359 228.761 166.036L229.345 166.019C229.57 166.795 229.585 169.813 230.55 170.591L233.19 170.502L235.165 168.978L238.545 166.157L239.798 164.148L241.006 161.399L241.841 158.715L242.388 155.542L242.304 146.785L241.15 143.204L239.884 141.382C239.73 140.354 239.78 139.666 239.756 138.9C239.741 138.42 239.723 137.357 239.55 136.873C239.404 136.464 239.022 136.43 239.022 136.43C238.586 136.243 238.7 136.018 238.24 135.849C237.979 135.754 237.72 135.67 237.459 135.596C235.581 135.063 233.651 135.046 231.128 135.014L231.129 135.014Z" fill="#333333"/>
<path d="M233.551 151.741C232.972 151.741 232.502 151.215 232.502 150.566C232.502 149.916 232.972 149.39 233.551 149.39C234.131 149.39 234.6 149.916 234.6 150.566C234.6 151.215 234.131 151.741 233.551 151.741Z" fill="black"/>
<path d="M225.119 151.606C224.54 151.606 224.07 151.079 224.07 150.43C224.07 149.781 224.54 149.254 225.119 149.254C225.699 149.254 226.168 149.781 226.168 150.43C226.168 151.079 225.699 151.606 225.119 151.606Z" fill="black"/>
<path d="M227.777 158.658H231.129C231.21 158.658 231.276 158.724 231.276 158.805V159.034C231.276 159.115 231.21 159.181 231.129 159.181H227.777C227.696 159.181 227.63 159.115 227.63 159.034V158.805C227.63 158.724 227.696 158.658 227.777 158.658Z" fill="black"/>
<path d="M230.73 146.324H235.694C235.866 146.324 236.005 146.463 236.005 146.634V147.118C236.005 147.29 235.866 147.429 235.694 147.429H230.73C230.558 147.429 230.419 147.29 230.419 147.118V146.634C230.419 146.463 230.558 146.324 230.73 146.324Z" fill="black"/>
<path d="M222.709 146.189H227.656C227.832 146.189 227.975 146.332 227.975 146.509V147.006C227.975 147.182 227.832 147.325 227.656 147.325H222.709C222.533 147.325 222.39 147.182 222.39 147.006V146.509C222.39 146.332 222.533 146.189 222.709 146.189Z" fill="black"/>
<path d="M234.437 161.6C234.435 162.705 233.907 163.764 232.969 164.544C232.031 165.325 230.76 165.764 229.435 165.764C228.109 165.764 226.838 165.325 225.901 164.544C224.963 163.764 224.435 162.705 224.433 161.6H234.437Z" fill="#F2F2F2"/>
<path d="M234.091 161.71C234.09 162.688 233.592 163.625 232.708 164.316C231.825 165.006 230.627 165.394 229.378 165.394C228.129 165.394 226.931 165.006 226.047 164.316C225.163 163.625 224.666 162.688 224.664 161.71H234.091Z" fill="white"/>
<path d="M234.011 161.064C233.968 161.04 233.999 160.934 234.011 160.919C234.228 160.637 234.667 160.767 234.987 161.041C235.349 161.351 235.277 161.812 235.088 162.195C235.075 162.224 234.837 162.581 234.76 162.423C234.725 162.35 234.913 161.806 234.917 161.763C234.947 161.404 234.97 161.556 234.824 161.231C234.56 161.043 234.414 161.019 234.129 161.063L234.011 161.064Z" fill="#808080"/>
<path d="M224.749 161.163C224.791 161.139 224.784 161.038 224.772 161.023C224.554 160.741 224.138 160.829 223.818 161.103C223.455 161.413 223.45 161.804 223.64 162.188C223.652 162.216 223.851 162.337 223.874 162.319C223.936 162.271 223.824 161.972 223.817 161.93C223.748 161.565 223.749 161.569 224.021 161.335C224.267 161.125 224.347 161.131 224.631 161.175L224.749 161.163Z" fill="#808080"/>
<path d="M232.509 123.54L232.509 123.54C238.543 123.54 243.468 130.345 244.551 139.356H214.206C215.246 130.344 220.236 123.54 226.27 123.54H232.509Z" fill="#0044AA"/>
<path d="M227.985 121.304H230.552C231.206 121.304 231.736 121.834 231.736 122.487V124.08C231.736 124.733 231.206 125.263 230.552 125.263H227.985C227.331 125.263 226.801 124.733 226.801 124.08V122.487C226.801 121.834 227.331 121.304 227.985 121.304Z" fill="#0044AA"/>
<path d="M219.885 123.362H221.728C222.269 123.362 222.708 123.8 222.708 124.341V129.329C222.708 129.87 222.269 130.309 221.728 130.309H219.885C219.344 130.309 218.905 129.87 218.905 129.329V124.341C218.905 123.8 219.344 123.362 219.885 123.362Z" fill="#0044AA"/>
<path d="M236.711 123.281H239.011C239.426 123.281 239.762 123.618 239.762 124.033V129.476C239.762 129.891 239.426 130.228 239.011 130.228H236.711C236.296 130.228 235.96 129.891 235.96 129.476V124.033C235.96 123.618 236.296 123.281 236.711 123.281Z" fill="#0044AA"/>
<path opacity="0.61" d="M244.765 139.258L237.621 135.724H221.782L214.379 139.301L244.765 139.258Z" fill="#002255"/>
<path opacity="0.65" d="M215.439 145.444L218.189 147.061H218.199C218.874 146.737 219.927 146.677 221.119 146.678C221.802 146.679 222.53 146.699 223.255 146.699C225.171 146.699 226.765 147.12 227.629 147.943C227.629 147.943 228.35 148.37 228.744 148.465C228.938 148.512 229.143 148.514 229.34 148.484C229.743 148.421 230.503 148.077 230.503 148.077C231.803 147.19 233.422 146.771 234.942 146.757C235.668 146.757 236.396 146.737 237.079 146.736C238.247 146.735 239.283 146.792 239.959 147.099L242.294 146.757L242.311 147.179L240.774 148.35C240.747 150.21 238.857 152.443 236.057 153.194C234.952 153.491 233.438 153.308 232.567 153.113C231.674 152.911 231.006 152.236 230.521 151.612C230.341 151.381 230.16 150.921 230.035 150.479C229.921 150.08 229.716 149.847 229.441 149.698C229.238 149.588 228.968 149.566 228.762 149.671C228.502 149.805 228.365 150.021 228.224 150.421C228.113 150.735 227.807 151.387 227.676 151.555C227.191 152.179 226.523 152.854 225.63 153.055C224.759 153.251 223.245 153.434 222.14 153.137C219.829 152.517 218.139 150.888 217.602 149.292L215.45 146.317L215.439 145.444Z" fill="white"/>
<path opacity="0.999" d="M248.273 174.567L250.431 177.12L253.769 177.819L248.22 207.577L242.176 277.887L237.741 279.693L235.104 280.375L241.746 208.668L248.273 174.567Z" fill="#B3B3B3"/>
<path opacity="0.999" d="M208.194 181.539L209.918 180.601L213.522 177.971L205.669 209.755L196.006 281.828L194.433 281.641L192.583 281.048L201.592 209.715L208.194 181.539Z" fill="#B3B3B3"/>
<path opacity="0.25" d="M117.388 51.8463C117.388 51.8463 160.517 83.9604 172.405 107.017C176.856 115.649 175.488 131.819 175.725 137.434C175.77 138.502 178.249 141.199 178.249 141.199L177.096 148.266L180.569 162.532L177.056 174.189L161.722 182.716L163.945 187.002C163.945 187.002 162.367 187.802 162.708 190.76C163.071 193.918 160.025 196.62 157.895 200.007C151.329 210.447 148.268 221.043 148.268 221.043L154.702 221.101L167.411 186.398L172.522 184.385C172.522 184.385 177.266 181.45 179.141 179.43C181.234 177.176 182.888 174.475 184.11 171.652C185.373 168.733 186.162 165.663 186.454 162.404C186.693 159.762 186.591 156.884 186.015 154.295C185.429 151.664 183.321 146.67 183.321 146.67L181.409 143.764C181.409 143.764 183.029 135.353 183.605 131.112C184.023 128.033 184.399 124.939 184.518 121.834C184.65 118.382 184.635 114.91 184.295 111.472C184.11 109.58 183.301 105.856 183.301 105.856C183.301 105.856 182.003 101.163 180.382 99.2369C174.401 92.1293 160.681 80.5035 160.681 80.5035L120.356 48.1278L118.288 48.7453L117.388 51.8463Z" fill="#333333"/>
<path opacity="0.5" d="M118.111 48.8419L120.874 48.0001C120.874 48.0001 122.219 47.189 122.829 46.6986C124.062 45.7081 124.496 44.8916 124.496 44.8916L132.274 46.8947L133.121 43.7303L118.356 41.3103L113.573 50.8006L97.8958 59.4766L90.5186 62.7971L95.6222 64.4068L97.0257 67.1399C97.0257 67.1399 105.334 66.4152 108.817 64.3742C111.13 63.0194 114.294 60.8553 115.887 58.15C116.98 56.294 117.27 51.8376 117.27 51.8376L118.111 48.8419Z" fill="#333333"/>
<path opacity="0.25" d="M248.07 81.9164L252.056 80.2982L260.518 82.9213L255.586 89.3346L255.714 95.4529L251.997 91.8636L254.739 88.8765L248.07 81.9164Z" fill="#1A1A1A"/>
<path d="M15.077 242.393C18.296 242.393 20.9059 239.732 20.9059 236.449C20.9059 233.166 18.296 230.505 15.077 230.505C11.8581 230.505 9.24902 233.166 9.24902 236.449C9.24902 239.732 11.8581 242.393 15.077 242.393Z" fill="#C83737"/>
<path d="M82.8401 230.313H41.8762C40.676 230.313 39.7031 231.286 39.7031 232.486V239.343C39.7031 240.543 40.676 241.516 41.8762 241.516H82.8401C84.0403 241.516 85.0132 240.543 85.0132 239.343V232.486C85.0132 231.286 84.0403 230.313 82.8401 230.313Z" fill="#808080"/>
<path d="M27.4575 241.011C29.5981 241.011 31.333 239.242 31.333 237.058C31.333 234.875 29.5981 233.105 27.4575 233.105C25.3168 233.105 23.5811 234.875 23.5811 237.058C23.5811 239.242 25.3168 241.011 27.4575 241.011Z" fill="#37C871"/>
<path d="M81.0906 231.605H42.7472C41.8242 231.605 41.0762 232.354 41.0762 233.277V238.55C41.0762 239.474 41.8242 240.222 42.7472 240.222H81.0906C82.0137 240.222 82.7617 239.474 82.7617 238.55V233.277C82.7617 232.354 82.0137 231.605 81.0906 231.605Z" fill="#333333"/>
<path opacity="0.997" d="M263.428 97.0543L262.454 97.9779C261.717 98.6779 261.687 99.8431 262.387 100.581L264.832 103.157C265.532 103.895 266.697 103.926 267.435 103.226L268.408 102.302C269.145 101.602 269.176 100.437 268.476 99.6993L266.03 97.1228C265.33 96.3852 264.165 96.3544 263.428 97.0543Z" fill="#666666"/>
<path opacity="0.997" d="M151.438 36.6733L150.029 42.4323C149.684 43.846 150.55 45.2723 151.963 45.6181L205.149 58.6273C206.562 58.973 207.989 58.1074 208.335 56.6938L209.743 50.9347C210.089 49.5211 209.223 48.0947 207.809 47.7489L154.624 34.7398C153.21 34.394 151.784 35.2596 151.438 36.6733Z" fill="#666666"/>
<path opacity="0.997" d="M116.879 79.6736L113.805 81.8517C112.617 82.6931 112.336 84.3381 113.178 85.5255L117.146 91.1261C117.987 92.3135 119.632 92.5942 120.82 91.7528L123.894 89.5747C125.081 88.7334 125.362 87.0884 124.521 85.9009L120.553 80.3004C119.711 79.1129 118.066 78.8323 116.879 79.6736Z" fill="#666666"/>
<path opacity="0.997" d="M138.772 108.381L135.698 110.559C134.511 111.4 134.23 113.045 135.071 114.233L139.04 119.834C139.881 121.021 141.526 121.301 142.713 120.46L145.787 118.282C146.975 117.441 147.256 115.796 146.414 114.609L142.446 109.008C141.605 107.82 139.96 107.54 138.772 108.381Z" fill="#666666"/>
<path opacity="0.3" d="M151.604 36.6657L150.195 42.4247C149.85 43.8384 150.716 45.2647 152.129 45.6105L205.315 58.6197C206.728 58.9655 208.155 58.0999 208.501 56.6862L209.909 50.9272C210.255 49.5135 209.389 48.0871 207.975 47.7414L154.79 34.7322C153.376 34.3864 151.95 35.252 151.604 36.6657Z" fill="#4D4D4D"/>
<path d="M392.018 153.102C392.018 153.102 396.599 157.147 406.877 154.176C415.638 150.96 418.902 147.654 414.03 133.923C408.395 120.552 399.117 109.46 405.442 103.513C418.736 91.0101 440.704 64.2665 457.867 60.7485C463.735 59.5458 465.336 64.185 481.101 67.3006C494.796 70.007 499.213 57.3978 505.597 60.845C511.497 70.9432 513.914 87.0307 520.537 96.5155C525.196 104.108 555.622 91.4271 564.184 97.4057C581.422 109.444 579.959 122.558 588.472 136.771C592.223 143.034 595.746 148.618 596.31 155.897C596.912 163.679 585.837 167.211 585.837 167.211L575.628 167.322" stroke="#373E48" stroke-width="3.77953"/>
<path d="M406.917 98.3483L410.755 102.868C411.697 103.977 413.36 104.112 414.47 103.17L456.203 67.7266C457.312 66.7845 457.448 65.1216 456.506 64.0123L452.668 59.4931C451.726 58.3838 450.063 58.2486 448.954 59.1907L407.22 94.6341C406.111 95.5762 405.975 97.2391 406.917 98.3483Z" fill="#666666"/>
<path opacity="0.997" d="M517.365 85.5141L514.418 86.3684C513.28 86.6984 512.625 87.8885 512.955 89.0268L514.511 94.3952C514.841 95.5334 516.031 96.1887 517.169 95.8587L520.116 95.0044C521.254 94.6744 521.91 93.484 521.58 92.3457L520.024 86.9774C519.694 85.8391 518.503 85.1841 517.365 85.5141Z" fill="#666666"/>
<path opacity="0.997" d="M510.357 66.0037L507.41 66.858C506.272 67.188 505.616 68.3784 505.946 69.5166L507.503 74.885C507.833 76.0233 509.023 76.6783 510.162 76.3483L513.108 75.494C514.247 75.164 514.901 73.9738 514.571 72.8356L513.015 67.4672C512.685 66.329 511.495 65.6737 510.357 66.0037Z" fill="#666666"/>
<path opacity="0.997" d="M393.606 151.034L392.512 150.937C391.682 150.863 390.949 151.476 390.875 152.306L390.618 155.204C390.544 156.034 391.158 156.767 391.987 156.84L393.082 156.937C393.912 157.011 394.644 156.398 394.717 155.568L394.975 152.67C395.048 151.84 394.436 151.107 393.606 151.034Z" fill="#666666"/>
</g>
<defs>
<clipPath id="clip0">
<rect width="669.13" height="464.229" fill="white"/>
</clipPath>
</defs>
</svg>
