<svg width="48" height="48" viewBox="0 0 48 48" fill="none" xmlns="http://www.w3.org/2000/svg">
<path d="M24 36C30.6274 36 36 30.6274 36 24C36 17.3726 30.6274 12 24 12C17.3726 12 12 17.3726 12 24C12 30.6274 17.3726 36 24 36Z" fill="#383E45"/>
<path d="M23.9998 16.4016C19.8045 16.4016 16.4014 19.8047 16.4014 24C16.4014 27.3047 18.5107 30.1125 21.4545 31.1625C21.4686 31.1672 21.5201 31.1859 21.5342 31.1906C21.5764 31.2047 21.6232 31.2141 21.6701 31.2141C21.9186 31.2141 22.1154 31.0125 22.1154 30.7687C22.1154 30.7547 22.1154 30.7453 22.1154 30.7312C22.1154 30.3281 22.1154 29.8172 22.1154 29.4094C21.6326 29.5078 20.9014 29.6016 20.5029 29.4094C19.9873 29.1609 19.7248 28.8422 19.4764 28.2141C19.167 27.45 18.4545 27.2391 18.4264 27.1078C18.3982 26.9719 19.1811 26.7703 19.5842 27.2344C19.9873 27.6984 20.3951 28.6266 21.2623 28.5375C21.6889 28.4953 21.9654 28.425 22.1389 28.3734C22.1717 28.0734 22.2701 27.7031 22.5186 27.4406C20.4795 27.1031 19.1201 26.0062 19.1201 23.8547C19.1201 22.875 19.4014 22.1156 19.8982 21.5484C19.8139 21.0797 19.6732 19.9922 20.0482 19.6125C20.0482 19.6125 20.5779 19.2844 22.0967 20.3531C22.6639 20.2219 23.292 20.1562 23.9623 20.1562C23.9764 20.1562 23.9857 20.1562 23.9998 20.1562C24.0139 20.1562 24.0232 20.1562 24.0373 20.1562C24.7123 20.1609 25.3404 20.2266 25.9029 20.3531C27.4217 19.2844 27.9514 19.6125 27.9514 19.6125C28.3264 19.9969 28.1857 21.0844 28.1014 21.5484C28.5982 22.1203 28.8795 22.8797 28.8795 23.8547C28.8795 26.0062 27.5248 27.1031 25.4811 27.4406C25.8701 27.8484 25.8842 28.5094 25.8842 28.7812C25.8842 29.0391 25.8842 30.7641 25.8842 30.7734C25.8842 31.0219 26.0857 31.2187 26.3295 31.2187C26.367 31.2187 26.3998 31.2141 26.4373 31.2047C26.4467 31.2047 26.4748 31.1953 26.4842 31.1906C29.4607 30.1594 31.5982 27.3328 31.5982 24.0047C31.5982 19.8 28.1951 16.4016 23.9998 16.4016Z" fill="#DDDDDD"/>
</svg>
