<svg width="48" height="48" viewBox="0 0 48 48" fill="none" xmlns="http://www.w3.org/2000/svg">
<path d="M24 39C32.2843 39 39 32.2843 39 24C39 15.7157 32.2843 9 24 9C15.7157 9 9 15.7157 9 24C9 32.2843 15.7157 39 24 39Z" fill="#C4C4C4"/>
<path d="M19.9451 30.7797H16.9041V20.9594H19.9451V30.7797ZM18.4099 19.6761C17.4197 19.6761 16.6111 18.8676 16.6111 17.8656C16.6111 16.8636 17.4138 16.0551 18.4099 16.0551C19.4001 16.0551 20.2087 16.8636 20.2087 17.8656C20.2087 18.8617 19.4001 19.6761 18.4099 19.6761ZM31.3357 30.7797H28.3123C28.3123 30.7797 28.3123 27.0414 28.3123 25.6234C28.3123 24.2113 27.7732 23.4203 26.6599 23.4203C25.4412 23.4203 24.8083 24.2406 24.8083 25.6234C24.8083 27.1351 24.8083 30.7797 24.8083 30.7797H21.8904V20.9594H24.8083V22.2836C24.8083 22.2836 25.6873 20.6605 27.7673 20.6605C29.8474 20.6605 31.3415 21.932 31.3415 24.5629C31.3357 27.1937 31.3357 30.7797 31.3357 30.7797Z" fill="#E8E8E8"/>
</svg>
