<svg width="48" height="48" viewBox="0 0 48 48" fill="none" xmlns="http://www.w3.org/2000/svg">
<path d="M24 36C30.6274 36 36 30.6274 36 24C36 17.3726 30.6274 12 24 12C17.3726 12 12 17.3726 12 24C12 30.6274 17.3726 36 24 36Z" fill="#383E45"/>
<path d="M20.7561 29.4237H18.3232V21.5675H20.7561V29.4237ZM19.5279 20.5409C18.7357 20.5409 18.0889 19.894 18.0889 19.0925C18.0889 18.2909 18.7311 17.644 19.5279 17.644C20.3201 17.644 20.967 18.2909 20.967 19.0925C20.967 19.8894 20.3201 20.5409 19.5279 20.5409ZM29.8686 29.4237H27.4498C27.4498 29.4237 27.4498 26.4331 27.4498 25.2987C27.4498 24.169 27.0186 23.5362 26.1279 23.5362C25.1529 23.5362 24.6467 24.1925 24.6467 25.2987C24.6467 26.5081 24.6467 29.4237 24.6467 29.4237H22.3123V21.5675H24.6467V22.6269C24.6467 22.6269 25.3498 21.3284 27.0139 21.3284C28.6779 21.3284 29.8732 22.3456 29.8732 24.4503C29.8686 26.555 29.8686 29.4237 29.8686 29.4237Z" fill="white"/>
</svg>
