<svg width="22" height="24" viewBox="0 0 22 24" fill="none" xmlns="http://www.w3.org/2000/svg">
<path d="M13.5632 8.38283C12.9719 8.15202 11.8457 8.46438 11.8457 8.46438L10.5108 7.4272L6.89409 3.78198L3.72357 5.98539L4.45846 7.51647C4.45846 7.51647 4.4587 7.5104 4.45912 7.50274C4.41888 7.35592 7.08472 11.6172 7.08472 11.6172C7.15118 11.7414 7.07191 12.5131 6.99652 12.632C6.37069 13.6195 6.90338 14.4604 7.00427 14.8936L14.8103 8.74219C14.7664 8.70569 14.0716 8.58134 13.5632 8.38283Z" fill="#DADADA"/>
<path d="M5.37441 2.09302L2.62244 4.1727L3.63741 6.35543L6.80805 3.62107L5.37441 2.09302Z" fill="#DADADA"/>
<path d="M7.08677 3.62981L5.37413 2.0929L4.45996 2.81517L5.9554 4.52369L7.08677 3.62981Z" fill="black" fill-opacity="0.15"/>
<path d="M10.9186 13.3841C10.9186 13.3841 11.561 14.2125 11.695 14.3821L14.821 18.1392L17.4092 19.7988L16.8878 17.7942L12.5381 12.1132L10.9186 13.3841Z" fill="#D0CFCE"/>
<path d="M16.3252 16.9505L12.8863 12.5579L12.5356 12.1073L11.7219 12.7547L17.1769 19.525L16.3252 16.9505Z" fill="#9B9B9A"/>
<path d="M10.4034 9.60392C10.4034 9.60392 11.1259 9.6105 11.7172 9.84131C12.2256 10.0399 12.7165 10.3253 12.7605 10.3618L14.5906 8.73584C14.1934 8.5381 13.5003 8.1217 12.3937 8.50252C12.2606 8.54835 12.0477 8.48146 11.9423 8.38808C11.9423 8.38808 7.86039 4.61699 8.01932 4.71583L6.80763 3.62097L5.95526 4.5237L9.94695 9.03986L10.4034 9.60392Z" fill="black" fill-opacity="0.15"/>
<path d="M11.165 13.6855L14.7507 18.2199L17.5334 19.9375L16.334 16.9574L12.755 12.4312" stroke="black" stroke-width="0.782078" stroke-miterlimit="10" stroke-linecap="round" stroke-linejoin="round"/>
<path d="M4.82892 7.40098L7.31398 12.0458C6.15511 13.8743 6.96464 15.0605 6.96464 15.0605L14.7735 8.89086C14.7735 8.89086 13.8068 7.82887 11.7598 8.53327L7.8159 5.04102" stroke="black" stroke-width="0.782078" stroke-miterlimit="10" stroke-linecap="round" stroke-linejoin="round"/>
<path d="M5.37427 2.09302L7.08691 3.62993L3.63726 6.35543L2.53827 4.33368L5.37427 2.09302Z" stroke="black" stroke-width="0.782078" stroke-miterlimit="10" stroke-linecap="round" stroke-linejoin="round"/>
</svg>
